<?xml version="1.0" encoding="utf-8"?>
<!-- Generator: Adobe Illustrator 22.1.0, SVG Export Plug-In . SVG Version: 6.00 Build 0)  -->
<svg version="1.1" id="Layer_1" xmlns="http://www.w3.org/2000/svg" xmlns:xlink="http://www.w3.org/1999/xlink" x="0px" y="0px"
	 viewBox="0 0 575 465" style="enable-background:new 0 0 575 465;" xml:space="preserve">
<style type="text/css">
	.st0{fill:url(#path-2_2_);stroke:#F0F5FA;stroke-width:0.95;}
	.st1{fill:#3E4B58;stroke:#8E9CAA;stroke-width:0.95;}
	.st2{fill:url(#Fill-5_3_);}
	.st3{fill:#FFFFFF;}
	.st4{fill:#6A7177;}
	.st5{fill:#454D55;}
	.st6{fill:none;stroke:#D0DEEF;stroke-width:1.425;}
	.st7{fill:none;stroke:#D0DEEF;stroke-width:1.425;stroke-linecap:round;}
	.st8{fill:#D0DEEF;}
	.st9{fill:#3B77BC;}
	.st10{fill:none;stroke:#3B77BC;stroke-width:0.95;}
	.st11{fill:#B3B3B3;}
	.st12{fill:none;stroke:#B3B3B3;stroke-width:0.95;}
	.st13{fill:none;stroke:#3B77BC;stroke-width:0.95;stroke-linejoin:round;}
	.st14{fill:none;stroke:#3B77BC;stroke-width:0.95;stroke-linecap:round;stroke-linejoin:round;}
	.st15{fill:none;stroke:#6A7177;stroke-width:0.95;}
	.st16{filter:url(#Adobe_OpacityMaskFilter);}
	.st17{mask:url(#mask-6_2_);fill:#454D55;}
	.st18{filter:url(#Adobe_OpacityMaskFilter_1_);}
	.st19{mask:url(#mask-8_2_);fill:#454D55;}
	.st20{filter:url(#Adobe_OpacityMaskFilter_2_);}
	.st21{mask:url(#mask-10_26_);fill:#454D55;}
	.st22{filter:url(#Adobe_OpacityMaskFilter_3_);}
	.st23{mask:url(#mask-10_25_);fill:#454D55;}
	.st24{filter:url(#Adobe_OpacityMaskFilter_4_);}
	.st25{mask:url(#mask-10_24_);fill:#454D55;}
	.st26{filter:url(#Adobe_OpacityMaskFilter_5_);}
	.st27{mask:url(#mask-10_23_);fill:#454D55;}
	.st28{filter:url(#Adobe_OpacityMaskFilter_6_);}
	.st29{mask:url(#mask-10_22_);fill:#454D55;}
	.st30{filter:url(#Adobe_OpacityMaskFilter_7_);}
	.st31{mask:url(#mask-10_21_);fill:#454D55;}
	.st32{filter:url(#Adobe_OpacityMaskFilter_8_);}
	.st33{mask:url(#mask-10_20_);fill:#454D55;}
	.st34{filter:url(#Adobe_OpacityMaskFilter_9_);}
	.st35{mask:url(#mask-10_19_);fill:#454D55;}
	.st36{filter:url(#Adobe_OpacityMaskFilter_10_);}
	.st37{mask:url(#mask-10_18_);fill:#454D55;}
	.st38{filter:url(#Adobe_OpacityMaskFilter_11_);}
	.st39{mask:url(#mask-10_17_);fill:#454D55;}
	.st40{filter:url(#Adobe_OpacityMaskFilter_12_);}
	.st41{mask:url(#mask-10_16_);fill:#454D55;}
	.st42{filter:url(#Adobe_OpacityMaskFilter_13_);}
	.st43{mask:url(#mask-10_15_);fill:#454D55;}
	.st44{filter:url(#Adobe_OpacityMaskFilter_14_);}
	.st45{mask:url(#mask-10_14_);fill:#454D55;}
	.st46{filter:url(#Adobe_OpacityMaskFilter_15_);}
	.st47{mask:url(#mask-12_2_);fill:#FFFFFF;}
	.st48{filter:url(#Adobe_OpacityMaskFilter_16_);}
	.st49{mask:url(#mask-14_2_);fill:none;stroke:#D0DEEF;stroke-width:0.95;}
	.st50{filter:url(#Adobe_OpacityMaskFilter_17_);}
	.st51{mask:url(#mask-16_2_);fill:none;stroke:#D0DEEF;stroke-width:0.95;}
	.st52{fill:#193A5A;fill-opacity:0.5;}
	.st53{filter:url(#Adobe_OpacityMaskFilter_18_);}
	.st54{mask:url(#mask-18_70_);fill:#263943;}
	.st55{filter:url(#Adobe_OpacityMaskFilter_19_);}
	.st56{mask:url(#mask-18_69_);fill:#263943;}
	.st57{filter:url(#Adobe_OpacityMaskFilter_20_);}
	.st58{mask:url(#mask-18_68_);fill:#263943;}
	.st59{filter:url(#Adobe_OpacityMaskFilter_21_);}
	.st60{mask:url(#mask-18_67_);fill:#263943;}
	.st61{filter:url(#Adobe_OpacityMaskFilter_22_);}
	.st62{mask:url(#mask-18_66_);fill:#263943;}
	.st63{filter:url(#Adobe_OpacityMaskFilter_23_);}
	.st64{mask:url(#mask-18_65_);fill:#263943;}
	.st65{filter:url(#Adobe_OpacityMaskFilter_24_);}
	.st66{mask:url(#mask-18_64_);fill:#263943;}
	.st67{filter:url(#Adobe_OpacityMaskFilter_25_);}
	.st68{mask:url(#mask-18_63_);fill:#263943;}
	.st69{filter:url(#Adobe_OpacityMaskFilter_26_);}
	.st70{mask:url(#mask-18_62_);fill:#263943;}
	.st71{filter:url(#Adobe_OpacityMaskFilter_27_);}
	.st72{mask:url(#mask-18_61_);fill:#263943;}
	.st73{filter:url(#Adobe_OpacityMaskFilter_28_);}
	.st74{mask:url(#mask-18_60_);fill:#263943;}
	.st75{filter:url(#Adobe_OpacityMaskFilter_29_);}
	.st76{mask:url(#mask-18_59_);fill:#263943;}
	.st77{filter:url(#Adobe_OpacityMaskFilter_30_);}
	.st78{mask:url(#mask-18_58_);fill:#263943;}
	.st79{filter:url(#Adobe_OpacityMaskFilter_31_);}
	.st80{mask:url(#mask-18_57_);fill:#263943;}
	.st81{filter:url(#Adobe_OpacityMaskFilter_32_);}
	.st82{mask:url(#mask-18_56_);fill:#263943;}
	.st83{filter:url(#Adobe_OpacityMaskFilter_33_);}
	.st84{mask:url(#mask-18_55_);fill:#263943;}
	.st85{filter:url(#Adobe_OpacityMaskFilter_34_);}
	.st86{mask:url(#mask-18_54_);fill:#263943;}
	.st87{filter:url(#Adobe_OpacityMaskFilter_35_);}
	.st88{mask:url(#mask-18_53_);fill:#263943;}
	.st89{filter:url(#Adobe_OpacityMaskFilter_36_);}
	.st90{mask:url(#mask-18_52_);fill:#263943;}
	.st91{filter:url(#Adobe_OpacityMaskFilter_37_);}
	.st92{mask:url(#mask-18_51_);fill:#263943;}
	.st93{filter:url(#Adobe_OpacityMaskFilter_38_);}
	.st94{mask:url(#mask-18_50_);fill:#263943;}
	.st95{filter:url(#Adobe_OpacityMaskFilter_39_);}
	.st96{mask:url(#mask-18_49_);fill:#263943;}
	.st97{filter:url(#Adobe_OpacityMaskFilter_40_);}
	.st98{mask:url(#mask-18_48_);fill:#263943;}
	.st99{filter:url(#Adobe_OpacityMaskFilter_41_);}
	.st100{mask:url(#mask-18_47_);fill:#263943;}
	.st101{filter:url(#Adobe_OpacityMaskFilter_42_);}
	.st102{mask:url(#mask-18_46_);fill:#263943;}
	.st103{filter:url(#Adobe_OpacityMaskFilter_43_);}
	.st104{mask:url(#mask-18_45_);fill:#263943;}
	.st105{filter:url(#Adobe_OpacityMaskFilter_44_);}
	.st106{mask:url(#mask-18_44_);fill:#263943;}
	.st107{filter:url(#Adobe_OpacityMaskFilter_45_);}
	.st108{mask:url(#mask-18_43_);fill:#263943;}
	.st109{filter:url(#Adobe_OpacityMaskFilter_46_);}
	.st110{mask:url(#mask-18_42_);fill:#263943;}
	.st111{filter:url(#Adobe_OpacityMaskFilter_47_);}
	.st112{mask:url(#mask-18_41_);fill:#263943;}
	.st113{filter:url(#Adobe_OpacityMaskFilter_48_);}
	.st114{mask:url(#mask-18_40_);fill:#263943;}
	.st115{filter:url(#Adobe_OpacityMaskFilter_49_);}
	.st116{mask:url(#mask-18_39_);fill:#263943;}
	.st117{filter:url(#Adobe_OpacityMaskFilter_50_);}
	.st118{mask:url(#mask-18_38_);fill:#263943;}
	.st119{filter:url(#Adobe_OpacityMaskFilter_51_);}
	.st120{mask:url(#mask-18_37_);fill:#263943;}
	.st121{filter:url(#Adobe_OpacityMaskFilter_52_);}
	.st122{mask:url(#mask-18_36_);fill:#263943;}
	.st123{filter:url(#Adobe_OpacityMaskFilter_53_);}
	.st124{mask:url(#mask-20_2_);fill:#DCE5F2;}
	.st125{fill:#B2754B;}
	.st126{fill:#6B432C;}
	.st127{fill:#263943;}
	.st128{filter:url(#Adobe_OpacityMaskFilter_54_);}
	.st129{mask:url(#mask-22_2_);fill:#3269A6;}
	.st130{fill:#3269A6;}
	.st131{fill:#569E3E;}
	.st132{fill:#2D571D;}
	.st133{fill:#A76A3B;}
	.st134{fill:#C68C63;}
	.st135{fill:#665B50;}
	.st136{filter:url(#Adobe_OpacityMaskFilter_55_);}
	.st137{mask:url(#mask-24_2_);fill:#263943;}
	.st138{fill:none;stroke:#2D571D;stroke-width:0.5966;stroke-linecap:round;stroke-linejoin:round;}
	.st139{fill:none;stroke:#665B50;stroke-width:0.5966;stroke-linecap:round;stroke-linejoin:round;}
</style>
<g id="Page-1">
	<g id="SnapScan-Assets" transform="translate(-694.000000, -2668.000000)">
		<g id="img-point-of-sale" transform="translate(694.000000, 2668.000000)">
			<g id="Group" transform="translate(7.000000, 11.000000)">
				<g id="Group-181">
					<g id="Fill-1">
						<g>
							<path id="path-2_12_" d="M541.4,393.8H19.9C6.2,393.8-5,382.6-5,368.8V16.9C-5,3.2,6.2-8,19.9-8h521.5
								c13.8,0,24.9,11.2,24.9,24.9v351.9C566.4,382.6,555.2,393.8,541.4,393.8"/>
						</g>
						<g>
							
								<linearGradient id="path-2_2_" gradientUnits="userSpaceOnUse" x1="50.8309" y1="466.6326" x2="51.0574" y2="466.5748" gradientTransform="matrix(571.351 0 0 -401.7496 -29080.9004 187605.0625)">
								<stop  offset="0" style="stop-color:#F0F5FA"/>
								<stop  offset="1" style="stop-color:#FFFFFF"/>
							</linearGradient>
							<path id="path-2_1_" class="st0" d="M541.4,393.8H19.9C6.2,393.8-5,382.6-5,368.8V16.9C-5,3.2,6.2-8,19.9-8h521.5
								c13.8,0,24.9,11.2,24.9,24.9v351.9C566.4,382.6,555.2,393.8,541.4,393.8"/>
						</g>
					</g>
					<path id="Fill-3" class="st1" d="M20.8,195.7c-1.4,0-2.6-1.2-2.6-2.6c0-1.4,1.2-2.6,2.6-2.6c1.4,0,2.6,1.2,2.6,2.6
						C23.4,194.6,22.2,195.7,20.8,195.7z"/>
					
						<linearGradient id="Fill-5_3_" gradientUnits="userSpaceOnUse" x1="48.6669" y1="466.5648" x2="50.8671" y2="464.5436" gradientTransform="matrix(24.3813 0 0 -24.3902 -649.7453 11567.1465)">
						<stop  offset="0" style="stop-color:#F0F5FA"/>
						<stop  offset="1" style="stop-color:#D0DEEF"/>
					</linearGradient>
					<path id="Fill-5" class="st2" d="M555.1,193.1c0,6.7-5.5,12.2-12.2,12.2c-6.7,0-12.2-5.5-12.2-12.2s5.5-12.2,12.2-12.2
						C549.6,180.9,555.1,186.4,555.1,193.1"/>
					<g id="Group-50" transform="translate(49.408638, 22.812371)">
						<polygon id="Fill-7" class="st3" points="-5,347.2 467.5,347.2 467.5,-7.1 -5,-7.1 						"/>
						<path id="Fill-9" class="st4" d="M-3.1,347.2h468.6c1,0,1.9-0.9,1.9-1.9V316H-5v29.3C-5,346.4-4.1,347.2-3.1,347.2z"/>
						<polygon id="Fill-10" class="st5" points="111.9,347.2 200.5,347.2 200.5,316 111.9,316 						"/>
						<polygon id="Stroke-11" class="st6" points="307.8,301.8 455,301.8 455,10.5 307.8,10.5 						"/>
						<polygon id="Stroke-12" class="st7" points="307.8,40.1 455,40.1 455,10.5 307.8,10.5 						"/>
						<polygon id="Stroke-13" class="st7" points="14,61.1 65,61.1 65,10.5 14,10.5 						"/>
						<polygon id="Stroke-14" class="st7" points="14,61.1 65,61.1 65,50.1 14,50.1 						"/>
						<polygon id="Fill-15" class="st8" points="17.7,57.5 37.5,57.5 37.5,53.8 17.7,53.8 						"/>
						<polygon id="Stroke-16" class="st7" points="14,119.4 65,119.4 65,68.7 14,68.7 						"/>
						<polygon id="Stroke-17" class="st7" points="14,119.4 65,119.4 65,108.3 14,108.3 						"/>
						<polygon id="Fill-18" class="st8" points="17.7,115.7 37.5,115.7 37.5,112 17.7,112 						"/>
						<polygon id="Stroke-19" class="st7" points="14,177.6 65,177.6 65,126.9 14,126.9 						"/>
						<polygon id="Stroke-20" class="st7" points="14,177.6 65,177.6 65,166.5 14,166.5 						"/>
						<polygon id="Fill-21" class="st8" points="17.7,173.9 37.5,173.9 37.5,170.2 17.7,170.2 						"/>
						<polygon id="Stroke-22" class="st7" points="14,235.8 65,235.8 65,185.1 14,185.1 						"/>
						<polygon id="Stroke-23" class="st7" points="14,235.8 65,235.8 65,224.8 14,224.8 						"/>
						<polygon id="Fill-24" class="st8" points="17.7,232.1 37.5,232.1 37.5,228.4 17.7,228.4 						"/>
						<polygon id="Stroke-25" class="st7" points="189.6,301.8 240.6,301.8 240.6,251.1 189.6,251.1 						"/>
						<polygon id="Stroke-26" class="st7" points="189.6,301.8 240.6,301.8 240.6,290.7 189.6,290.7 						"/>
						<polygon id="Fill-27" class="st8" points="193.2,298.1 236.9,298.1 236.9,294.4 193.2,294.4 						"/>
						<polygon id="Stroke-28" class="st7" points="248.1,301.8 299.1,301.8 299.1,251.1 248.1,251.1 						"/>
						<polygon id="Stroke-29" class="st7" points="248.1,301.8 299.1,301.8 299.1,290.7 248.1,290.7 						"/>
						<polygon id="Fill-30" class="st8" points="251.8,298.1 295.4,298.1 295.4,294.4 251.8,294.4 						"/>
						<polygon id="Fill-32" class="st9" points="307.8,301.8 455,301.8 455,271.6 307.8,271.6 						"/>
						<path id="Stroke-45" class="st10" d="M436.7,25.2c0,2.6-2.1,4.7-4.7,4.7c-2.6,0-4.7-2.1-4.7-4.7c0-2.6,2.1-4.7,4.7-4.7
							C434.6,20.5,436.7,22.6,436.7,25.2z"/>
						<polyline id="Stroke-46" class="st10" points="430.1,25.2 431.4,26.5 433.9,24 						"/>
						<polygon id="Fill-47" class="st11" points="3.4,329.5 14.5,329.5 14.5,328 3.4,328 						"/>
						<polygon id="Fill-48" class="st11" points="3.4,333 14.5,333 14.5,331.4 3.4,331.4 						"/>
						<polygon id="Fill-49" class="st11" points="3.4,336.4 14.5,336.4 14.5,334.9 3.4,334.9 						"/>
						<polygon id="Stroke-50" class="st12" points="415.7,338.3 428.1,338.3 428.1,326.1 415.7,326.1 						"/>
						<polygon id="Stroke-51" class="st12" points="327.2,338.3 338.6,338.3 338.6,326.1 327.2,326.1 						"/>
						<path id="Stroke-52" class="st12" d="M415.7,330.1h12.4"/>
						<path id="Stroke-53" class="st12" d="M415.7,334.2h12.4"/>
						<path id="Stroke-54" class="st12" d="M419.9,338.3V326"/>
						<path id="Stroke-55" class="st12" d="M423.9,338.3V326"/>
						<path id="Stroke-56" class="st12" d="M329.4,328.4h2.4"/>
						<path id="Stroke-57" class="st12" d="M333,328.4h3.6"/>
						<path id="Stroke-58" class="st12" d="M329.4,331h2.4"/>
						<path id="Stroke-59" class="st12" d="M333,331h3.6"/>
					</g>
					<g id="Group-26" transform="translate(82.664452, 52.278351)">
						<polygon id="Stroke-1" class="st13" points="15,56.4 -2.2,56.4 -0.2,69.6 13,69.6 						"/>
						<polyline id="Stroke-2" class="st13" points="-0.8,56.4 -0.8,51.8 2.1,51.8 						"/>
						<polyline id="Stroke-3" class="st13" points="2.1,56.4 2.1,47.9 5,47.9 5,56.4 						"/>
						<path id="Stroke-4" class="st13" d="M5,49.8h2.9"/>
						<polyline id="Stroke-5" class="st13" points="7.8,56.4 7.8,47.9 10.7,47.9 10.7,56.4 						"/>
						<polyline id="Stroke-6" class="st13" points="10.7,51.8 13.6,51.8 13.6,56.4 						"/>
						<polyline id="Stroke-7" class="st13" points="-0.8,113.6 1,129.6 11.8,129.6 13.6,113.6 						"/>
						<polygon id="Stroke-8" class="st13" points="-1.7,113.6 14.5,113.6 14.5,110.5 -1.7,110.5 						"/>
						<path id="Stroke-9" class="st13" d="M0.3,123.8h12.1"/>
						<path id="Stroke-10" class="st13" d="M13.1,118H-0.3"/>
						<polyline id="Stroke-11_1_" class="st13" points="-0.1,110.5 -0.1,108.4 12.9,108.4 12.9,110.5 						"/>
						<polyline id="Stroke-12_1_" class="st13" points="5.4,108.4 5.4,104.3 7.4,104.3 7.4,108.4 						"/>
						<g id="Group-25" transform="translate(0.000000, 0.278501)">
							<path id="Stroke-13_1_" class="st13" d="M-0.3,5.9h-4.3v1.9c0,0.9,0.7,1.6,1.6,1.6h18.7c0.9,0,1.6-0.7,1.6-1.6V5.9H5.6"/>
							<path id="Stroke-15" class="st13" d="M17.3,2H-4.5c0-5.4,4.4-9.8,9.8-9.8h2.2C12.9-7.8,17.3-3.4,17.3,2z"/>
							<path id="Stroke-17_1_" class="st14" d="M17.3,4H-4.5"/>
							<polyline id="Stroke-19_1_" class="st14" points="9,4 2,7.8 -2,4.1 							"/>
							<polygon id="Fill-21_1_" class="st9" points="5.1,179.3 3,176.3 0.9,179.3 -0.7,179.3 2.1,175.4 -0.6,171.6 1,171.6 3,174.4 
								4.9,171.6 6.6,171.6 3.9,175.3 6.7,179.3 							"/>
							<path id="Fill-23" class="st9" d="M7.3,179.3v-1c3-2.2,4.1-3.2,4.1-4.3c0-0.8-0.7-1.2-1.4-1.2c-0.9,0-1.6,0.4-2.1,0.9
								l-0.8-0.9c0.7-0.8,1.7-1.2,2.8-1.2c1.5,0,2.8,0.8,2.8,2.3c0,1.4-1.3,2.7-3.3,4.2h3.4v1.2H7.3z"/>
						</g>
					</g>
					<g id="Group-39" transform="translate(377.215947, 96.002062)">
						<polygon id="Stroke-1_1_" class="st15" points="75.4,8.7 75.4,12.1 79.2,15.9 82.6,12.5 78.8,8.7 						"/>
						<g id="Group-38" transform="translate(0.000000, 0.625439)">
							<g id="Group-24">
								<path id="Fill-2" class="st5" d="M97.9-5.7c0-0.6-0.4-1-1-1h-1.4v1.9h1.4C97.5-4.7,97.9-5.1,97.9-5.7L97.9-5.7z M97.8-1.6
									l-1.3-2.3h-1v2.3h-1.1v-6H97c1.2,0,2,0.8,2,1.9c0,1.1-0.7,1.7-1.4,1.8L99-1.6H97.8z"/>
								<g id="Group-6" transform="translate(104.518272, 0.000000)">
									<g id="Clip-5">
									</g>
									<defs>
										<filter id="Adobe_OpacityMaskFilter" filterUnits="userSpaceOnUse" x="-4.3" y="-7.7" width="4.6" height="6.2">
											<feColorMatrix  type="matrix" values="1 0 0 0 0  0 1 0 0 0  0 0 1 0 0  0 0 0 1 0"/>
										</filter>
									</defs>
									<mask maskUnits="userSpaceOnUse" x="-4.3" y="-7.7" width="4.6" height="6.2" id="mask-6_2_">
										<g class="st16">
											<polygon id="path-5_2_" class="st3" points="-4.3,-7.7 0.3,-7.7 0.3,-1.5 -4.3,-1.5 											"/>
										</g>
									</mask>
									<path id="Fill-4" class="st17" d="M-0.8-5.9c0-0.5-0.5-0.8-1.1-0.8c-0.7,0-1.1,0.3-1.1,0.8c0,0.6,0.8,0.8,1.1,0.9
										C-1.6-5.1-0.8-5.4-0.8-5.9 M-0.7-3.2c0-0.6-0.9-0.9-1.2-0.9c-0.4,0-1.2,0.3-1.2,0.9c0,0.5,0.6,0.9,1.2,0.9
										C-1.3-2.4-0.7-2.7-0.7-3.2 M-4.3-3.1c0-0.8,0.6-1.3,1.4-1.6c-0.7-0.2-1.3-0.7-1.3-1.4c0-1.1,1.1-1.6,2.2-1.6
										c1.1,0,2.2,0.5,2.2,1.6c0,0.8-0.6,1.2-1.3,1.4c0.7,0.2,1.4,0.8,1.4,1.6C0.3-2-0.8-1.5-2-1.5C-3.2-1.5-4.3-2-4.3-3.1"/>
								</g>
								<g id="Group-9" transform="translate(110.219269, 0.000000)">
									<g id="Clip-8">
									</g>
									<defs>
										<filter id="Adobe_OpacityMaskFilter_1_" filterUnits="userSpaceOnUse" x="-4.2" y="-7.7" width="4.8" height="6.2">
											<feColorMatrix  type="matrix" values="1 0 0 0 0  0 1 0 0 0  0 0 1 0 0  0 0 0 1 0"/>
										</filter>
									</defs>
									<mask maskUnits="userSpaceOnUse" x="-4.2" y="-7.7" width="4.8" height="6.2" id="mask-8_2_">
										<g class="st18">
											<polygon id="path-7_2_" class="st3" points="-4.2,-7.7 0.6,-7.7 0.6,-1.5 -4.2,-1.5 											"/>
										</g>
									</mask>
									<path id="Fill-7_1_" class="st19" d="M-0.4-4.6c0-1.1-0.4-2.2-1.3-2.2c-1,0-1.3,1-1.3,2.2s0.4,2.2,1.3,2.2
										C-0.8-2.4-0.4-3.4-0.4-4.6 M-4.2-4.6c0-1.5,0.7-3.1,2.4-3.1c1.7,0,2.4,1.6,2.4,3.1s-0.7,3.1-2.4,3.1
										C-3.5-1.5-4.2-3-4.2-4.6"/>
								</g>
								<g id="Clip-11">
								</g>
								<defs>
									<filter id="Adobe_OpacityMaskFilter_2_" filterUnits="userSpaceOnUse" x="90.8" y="12" width="2.2" height="0.8">
										<feColorMatrix  type="matrix" values="1 0 0 0 0  0 1 0 0 0  0 0 1 0 0  0 0 0 1 0"/>
									</filter>
								</defs>
								<mask maskUnits="userSpaceOnUse" x="90.8" y="12" width="2.2" height="0.8" id="mask-10_26_">
									<g class="st20">
										<polygon id="path-9_26_" class="st3" points="-5,216.3 111.2,216.3 111.2,-7.7 -5,-7.7 										"/>
									</g>
								</mask>
								<polygon id="Fill-10_1_" class="st21" points="90.8,12.8 93,12.8 93,12 90.8,12 								"/>
								<defs>
									<filter id="Adobe_OpacityMaskFilter_3_" filterUnits="userSpaceOnUse" x="94.4" y="8.6" width="4.7" height="6">
										<feColorMatrix  type="matrix" values="1 0 0 0 0  0 1 0 0 0  0 0 1 0 0  0 0 0 1 0"/>
									</filter>
								</defs>
								<mask maskUnits="userSpaceOnUse" x="94.4" y="8.6" width="4.7" height="6" id="mask-10_25_">
									<g class="st22">
										<polygon id="path-9_25_" class="st3" points="-5,216.3 111.2,216.3 111.2,-7.7 -5,-7.7 										"/>
									</g>
								</mask>
								<path id="Fill-12" class="st23" d="M97.9,10.5c0-0.6-0.4-1-1-1h-1.4v1.9h1.4C97.5,11.4,97.9,11,97.9,10.5L97.9,10.5z
									 M97.8,14.6l-1.3-2.3h-1v2.3h-1.1v-6H97c1.2,0,2,0.8,2,1.9c0,1.1-0.7,1.7-1.4,1.8l1.5,2.4H97.8z"/>
								<defs>
									<filter id="Adobe_OpacityMaskFilter_4_" filterUnits="userSpaceOnUse" x="100.2" y="8.5" width="4.4" height="6.1">
										<feColorMatrix  type="matrix" values="1 0 0 0 0  0 1 0 0 0  0 0 1 0 0  0 0 0 1 0"/>
									</filter>
								</defs>
								<mask maskUnits="userSpaceOnUse" x="100.2" y="8.5" width="4.4" height="6.1" id="mask-10_24_">
									<g class="st24">
										<polygon id="path-9_24_" class="st3" points="-5,216.3 111.2,216.3 111.2,-7.7 -5,-7.7 										"/>
									</g>
								</mask>
								<path id="Fill-13" class="st25" d="M100.3,14.6v-0.8c2.3-1.8,3.3-2.6,3.3-3.4c0-0.6-0.5-0.9-1.1-0.9c-0.7,0-1.2,0.3-1.6,0.7
									l-0.6-0.7c0.5-0.6,1.4-1,2.2-1c1.2,0,2.2,0.7,2.2,1.9c0,1.1-1,2.1-2.6,3.3h2.7v0.9H100.3z"/>
								<defs>
									<filter id="Adobe_OpacityMaskFilter_5_" filterUnits="userSpaceOnUse" x="106" y="8.5" width="4.8" height="6.2">
										<feColorMatrix  type="matrix" values="1 0 0 0 0  0 1 0 0 0  0 0 1 0 0  0 0 0 1 0"/>
									</filter>
								</defs>
								<mask maskUnits="userSpaceOnUse" x="106" y="8.5" width="4.8" height="6.2" id="mask-10_23_">
									<g class="st26">
										<polygon id="path-9_23_" class="st3" points="-5,216.3 111.2,216.3 111.2,-7.7 -5,-7.7 										"/>
									</g>
								</mask>
								<path id="Fill-14" class="st27" d="M109.8,11.6c0-1.1-0.4-2.2-1.3-2.2c-1,0-1.3,1-1.3,2.2s0.4,2.2,1.3,2.2
									C109.4,13.8,109.8,12.7,109.8,11.6 M106,11.6c0-1.5,0.7-3.1,2.4-3.1c1.7,0,2.4,1.6,2.4,3.1c0,1.5-0.7,3.1-2.4,3.1
									C106.8,14.7,106,13.1,106,11.6"/>
								<defs>
									<filter id="Adobe_OpacityMaskFilter_6_" filterUnits="userSpaceOnUse" x="94.7" y="37.1" width="4.7" height="6">
										<feColorMatrix  type="matrix" values="1 0 0 0 0  0 1 0 0 0  0 0 1 0 0  0 0 0 1 0"/>
									</filter>
								</defs>
								<mask maskUnits="userSpaceOnUse" x="94.7" y="37.1" width="4.7" height="6" id="mask-10_22_">
									<g class="st28">
										<polygon id="path-9_22_" class="st3" points="-5,216.3 111.2,216.3 111.2,-7.7 -5,-7.7 										"/>
									</g>
								</mask>
								<path id="Fill-15_1_" class="st29" d="M98.2,39c0-0.6-0.4-1-1-1h-1.4v1.9h1.4C97.8,39.9,98.2,39.6,98.2,39L98.2,39z
									 M98.1,43.1l-1.3-2.3h-1v2.3h-1.1v-6h2.6c1.2,0,2,0.8,2,1.9c0,1.1-0.7,1.7-1.4,1.8l1.5,2.4H98.1z"/>
								<defs>
									<filter id="Adobe_OpacityMaskFilter_7_" filterUnits="userSpaceOnUse" x="100.4" y="37.1" width="4.7" height="6">
										<feColorMatrix  type="matrix" values="1 0 0 0 0  0 1 0 0 0  0 0 1 0 0  0 0 0 1 0"/>
									</filter>
								</defs>
								<mask maskUnits="userSpaceOnUse" x="100.4" y="37.1" width="4.7" height="6" id="mask-10_21_">
									<g class="st30">
										<polygon id="path-9_21_" class="st3" points="-5,216.3 111.2,216.3 111.2,-7.7 -5,-7.7 										"/>
									</g>
								</mask>
								<path id="Fill-16" class="st31" d="M103.3,38l-1.8,2.8h1.8V38z M103.3,43.1v-1.4h-2.9v-0.8l2.5-3.8h1.5v3.7h0.8v0.9h-0.8
									v1.4H103.3z"/>
								<defs>
									<filter id="Adobe_OpacityMaskFilter_8_" filterUnits="userSpaceOnUse" x="106.2" y="37" width="4.6" height="6.2">
										<feColorMatrix  type="matrix" values="1 0 0 0 0  0 1 0 0 0  0 0 1 0 0  0 0 0 1 0"/>
									</filter>
								</defs>
								<mask maskUnits="userSpaceOnUse" x="106.2" y="37" width="4.6" height="6.2" id="mask-10_20_">
									<g class="st32">
										<polygon id="path-9_20_" class="st3" points="-5,216.3 111.2,216.3 111.2,-7.7 -5,-7.7 										"/>
									</g>
								</mask>
								<path id="Fill-17" class="st33" d="M109.7,38.7c0-0.5-0.5-0.8-1.1-0.8c-0.7,0-1.1,0.3-1.1,0.8c0,0.6,0.8,0.8,1.1,0.9
									C108.9,39.5,109.7,39.3,109.7,38.7 M109.8,41.4c0-0.6-0.9-0.9-1.2-0.9c-0.4,0-1.2,0.3-1.2,0.9c0,0.5,0.6,0.9,1.2,0.9
									C109.2,42.3,109.8,42,109.8,41.4 M106.2,41.6c0-0.8,0.6-1.3,1.4-1.6c-0.7-0.2-1.3-0.7-1.3-1.4c0-1.1,1.1-1.6,2.2-1.6
									c1.1,0,2.2,0.5,2.2,1.6c0,0.8-0.6,1.2-1.3,1.4c0.7,0.2,1.4,0.8,1.4,1.6c0,1.1-1.1,1.7-2.3,1.7
									C107.3,43.2,106.2,42.7,106.2,41.6"/>
								<defs>
									<filter id="Adobe_OpacityMaskFilter_9_" filterUnits="userSpaceOnUse" x="96.5" y="53.2" width="4.7" height="6">
										<feColorMatrix  type="matrix" values="1 0 0 0 0  0 1 0 0 0  0 0 1 0 0  0 0 0 1 0"/>
									</filter>
								</defs>
								<mask maskUnits="userSpaceOnUse" x="96.5" y="53.2" width="4.7" height="6" id="mask-10_19_">
									<g class="st34">
										<polygon id="path-9_19_" class="st3" points="-5,216.3 111.2,216.3 111.2,-7.7 -5,-7.7 										"/>
									</g>
								</mask>
								<path id="Fill-18_1_" class="st35" d="M100,55.1c0-0.6-0.4-1-1-1h-1.4v1.9H99C99.6,56.1,100,55.7,100,55.1L100,55.1z
									 M99.9,59.3L98.6,57h-1v2.3h-1.1v-6h2.6c1.2,0,2,0.8,2,1.9c0,1.1-0.7,1.7-1.4,1.8l1.5,2.4H99.9z"/>
								<defs>
									<filter id="Adobe_OpacityMaskFilter_10_" filterUnits="userSpaceOnUse" x="102.1" y="53.2" width="2.7" height="6">
										<feColorMatrix  type="matrix" values="1 0 0 0 0  0 1 0 0 0  0 0 1 0 0  0 0 0 1 0"/>
									</filter>
								</defs>
								<mask maskUnits="userSpaceOnUse" x="102.1" y="53.2" width="2.7" height="6" id="mask-10_18_">
									<g class="st36">
										<polygon id="path-9_18_" class="st3" points="-5,216.3 111.2,216.3 111.2,-7.7 -5,-7.7 										"/>
									</g>
								</mask>
								<polygon id="Fill-19" class="st37" points="103.7,59.3 103.7,54.6 102.7,55.6 102.1,55 103.8,53.2 104.8,53.2 104.8,59.3 
																	"/>
								<defs>
									<filter id="Adobe_OpacityMaskFilter_11_" filterUnits="userSpaceOnUse" x="106.2" y="53.2" width="4.4" height="6.1">
										<feColorMatrix  type="matrix" values="1 0 0 0 0  0 1 0 0 0  0 0 1 0 0  0 0 0 1 0"/>
									</filter>
								</defs>
								<mask maskUnits="userSpaceOnUse" x="106.2" y="53.2" width="4.4" height="6.1" id="mask-10_17_">
									<g class="st38">
										<polygon id="path-9_17_" class="st3" points="-5,216.3 111.2,216.3 111.2,-7.7 -5,-7.7 										"/>
									</g>
								</mask>
								<path id="Fill-20" class="st39" d="M106.3,59.3v-0.8c2.3-1.8,3.3-2.6,3.3-3.4c0-0.6-0.5-0.9-1.1-0.9c-0.7,0-1.2,0.3-1.6,0.7
									l-0.6-0.7c0.5-0.6,1.4-1,2.2-1c1.2,0,2.2,0.7,2.2,1.9c0,1.1-1,2.1-2.6,3.3h2.7v0.9H106.3z"/>
								<defs>
									<filter id="Adobe_OpacityMaskFilter_12_" filterUnits="userSpaceOnUse" x="94.3" y="81.8" width="4.7" height="6">
										<feColorMatrix  type="matrix" values="1 0 0 0 0  0 1 0 0 0  0 0 1 0 0  0 0 0 1 0"/>
									</filter>
								</defs>
								<mask maskUnits="userSpaceOnUse" x="94.3" y="81.8" width="4.7" height="6" id="mask-10_16_">
									<g class="st40">
										<polygon id="path-9_16_" class="st3" points="-5,216.3 111.2,216.3 111.2,-7.7 -5,-7.7 										"/>
									</g>
								</mask>
								<path id="Fill-21_2_" class="st41" d="M97.8,83.7c0-0.6-0.4-1-1-1h-1.4v1.9h1.4C97.4,84.6,97.8,84.2,97.8,83.7L97.8,83.7z
									 M97.8,87.8l-1.3-2.3h-1v2.3h-1.1v-6H97c1.2,0,2,0.8,2,1.9c0,1.1-0.7,1.7-1.4,1.8l1.5,2.4H97.8z"/>
								<defs>
									<filter id="Adobe_OpacityMaskFilter_13_" filterUnits="userSpaceOnUse" x="100.2" y="81.7" width="4.7" height="6.2">
										<feColorMatrix  type="matrix" values="1 0 0 0 0  0 1 0 0 0  0 0 1 0 0  0 0 0 1 0"/>
									</filter>
								</defs>
								<mask maskUnits="userSpaceOnUse" x="100.2" y="81.7" width="4.7" height="6.2" id="mask-10_15_">
									<g class="st42">
										<polygon id="path-9_15_" class="st3" points="-5,216.3 111.2,216.3 111.2,-7.7 -5,-7.7 										"/>
									</g>
								</mask>
								<path id="Fill-22" class="st43" d="M103.8,85.9c0-0.7-0.6-1.1-1.2-1.1c-0.5,0-1,0.3-1.3,0.7c0.1,0.7,0.4,1.4,1.3,1.4
									C103.4,87,103.8,86.4,103.8,85.9 M100.2,84.8c0-1.7,0.9-3.1,2.7-3.1c0.7,0,1.3,0.3,1.7,0.7l-0.5,0.8
									c-0.3-0.3-0.7-0.5-1.2-0.5c-1,0-1.6,0.9-1.6,2c0,0.1,0,0.1,0,0.2c0.3-0.4,0.9-0.8,1.6-0.8c1.1,0,2,0.7,2,1.9
									c0,1.1-0.9,2-2.2,2C100.9,87.9,100.2,86.5,100.2,84.8"/>
								<defs>
									<filter id="Adobe_OpacityMaskFilter_14_" filterUnits="userSpaceOnUse" x="106" y="81.7" width="4.8" height="6.2">
										<feColorMatrix  type="matrix" values="1 0 0 0 0  0 1 0 0 0  0 0 1 0 0  0 0 0 1 0"/>
									</filter>
								</defs>
								<mask maskUnits="userSpaceOnUse" x="106" y="81.7" width="4.8" height="6.2" id="mask-10_14_">
									<g class="st44">
										<polygon id="path-9_14_" class="st3" points="-5,216.3 111.2,216.3 111.2,-7.7 -5,-7.7 										"/>
									</g>
								</mask>
								<path id="Fill-23_1_" class="st45" d="M109.8,84.8c0-1.1-0.4-2.2-1.3-2.2c-1,0-1.3,1-1.3,2.2s0.4,2.2,1.3,2.2
									C109.4,87,109.8,85.9,109.8,84.8 M106,84.8c0-1.5,0.7-3.1,2.4-3.1c1.7,0,2.4,1.6,2.4,3.1c0,1.5-0.7,3.1-2.4,3.1
									C106.8,87.9,106,86.3,106,84.8"/>
							</g>
							<path id="Fill-25" class="st3" d="M94,210.9c0-0.7-0.6-1.2-1.3-1.2h-1.9v2.5h1.9C93.4,212.1,94,211.6,94,210.9L94,210.9z
								 M93.8,216.2l-1.7-2.9h-1.3v2.9h-1.4v-7.7h3.4c1.5,0,2.5,1,2.5,2.4c0,1.4-0.9,2.1-1.8,2.3l1.9,3H93.8z"/>
							<path id="Fill-27_1_" class="st3" d="M101.6,213.8c0-1-0.7-1.4-1.6-1.4c-0.7,0-1.3,0.4-1.7,0.9c0.1,0.8,0.5,1.8,1.7,1.8
								C101.1,215.1,101.6,214.4,101.6,213.8 M96.9,212.3c0-2.2,1.2-4,3.4-4c1,0,1.7,0.3,2.2,0.9l-0.6,1c-0.4-0.4-0.8-0.7-1.6-0.7
								c-1.3,0-2,1.2-2,2.6c0,0.1,0,0.2,0,0.2c0.3-0.5,1.2-1.1,2.1-1.1c1.4,0,2.6,0.8,2.6,2.5c0,1.4-1.1,2.6-2.9,2.6
								C97.9,216.3,96.9,214.5,96.9,212.3"/>
							<g id="Group-31" transform="translate(109.269103, 215.767010)">
								<g id="Clip-30">
								</g>
								<defs>
									<filter id="Adobe_OpacityMaskFilter_15_" filterUnits="userSpaceOnUse" x="-4.8" y="-7.4" width="6.2" height="8">
										<feColorMatrix  type="matrix" values="1 0 0 0 0  0 1 0 0 0  0 0 1 0 0  0 0 0 1 0"/>
									</filter>
								</defs>
								<mask maskUnits="userSpaceOnUse" x="-4.8" y="-7.4" width="6.2" height="8" id="mask-12_2_">
									<g class="st46">
										<polygon id="path-11_2_" class="st3" points="-4.8,-7.4 1.4,-7.4 1.4,0.6 -4.8,0.6 										"/>
									</g>
								</mask>
								<path id="Fill-29" class="st47" d="M0.1-3.5c0-1.5-0.5-2.8-1.7-2.8s-1.7,1.3-1.7,2.8c0,1.5,0.5,2.8,1.7,2.8S0.1-2,0.1-3.5
									 M-4.8-3.5c0-2,0.9-4,3.1-4s3.1,2,3.1,4c0,2-0.9,4-3.1,4S-4.8-1.5-4.8-3.5"/>
							</g>
							<g id="Group-34" transform="translate(0.000000, 33.268041)">
								<g id="Clip-33">
								</g>
								<defs>
									<filter id="Adobe_OpacityMaskFilter_16_" filterUnits="userSpaceOnUse" x="-5" y="-8" width="116.2" height="0.9">
										<feColorMatrix  type="matrix" values="1 0 0 0 0  0 1 0 0 0  0 0 1 0 0  0 0 0 1 0"/>
									</filter>
								</defs>
								<mask maskUnits="userSpaceOnUse" x="-5" y="-8" width="116.2" height="0.9" id="mask-14_2_">
									<g class="st48">
										<polygon id="path-13_2_" class="st3" points="-5,-7.5 111.2,-7.5 111.2,-6.6 -5,-6.6 										"/>
									</g>
								</mask>
								<path id="Stroke-32" class="st49" d="M-5-7.5h116.2"/>
							</g>
							<g id="Group-37" transform="translate(0.000000, 76.991753)">
								<g id="Clip-36">
								</g>
								<defs>
									<filter id="Adobe_OpacityMaskFilter_17_" filterUnits="userSpaceOnUse" x="-5" y="-8" width="116.2" height="0.9">
										<feColorMatrix  type="matrix" values="1 0 0 0 0  0 1 0 0 0  0 0 1 0 0  0 0 0 1 0"/>
									</filter>
								</defs>
								<mask maskUnits="userSpaceOnUse" x="-5" y="-8" width="116.2" height="0.9" id="mask-16_2_">
									<g class="st50">
										<polygon id="path-15_2_" class="st3" points="-5,-7.5 111.2,-7.5 111.2,-6.6 -5,-6.6 										"/>
									</g>
								</mask>
								<path id="Stroke-35" class="st51" d="M-5-7.5h116.2"/>
							</g>
						</g>
					</g>
					<g id="Group-53" transform="translate(49.408638, 22.812371)">
						<path id="Fill-60" class="st52" d="M-3.1,347.2h468.6c1,0,1.9-0.9,1.9-1.9V-5.2c0-1-0.9-1.9-1.9-1.9H-3.1
							c-1,0-1.9,0.9-1.9,1.9v350.6C-5,346.4-4.1,347.2-3.1,347.2z"/>
						<path id="Fill-61" class="st3" d="M68.7,34.5v288.9c0,5.2,4.3,9.5,9.5,9.5h306c5.2,0,9.5-4.3,9.5-9.5V34.5H68.7z"/>
						<path id="Fill-62" class="st9" d="M393.8,35.5h-325V16.8c0-5.2,4.3-9.5,9.5-9.5h306c5.2,0,9.5,4.3,9.5,9.5V35.5z"/>
						<g id="Group-15" transform="translate(135.873754, 271.847423)">
							<path id="Fill-63" class="st9" d="M181.2-7.1H9.6C1.8-7.1-4.6-0.7-4.6,7.1c0,7.8,6.3,14.1,14.1,14.1h171.7
								c7.8,0,14.1-6.3,14.1-14.1C195.4-0.7,189-7.1,181.2-7.1"/>
							<g id="Group-13" transform="translate(40.857143, 10.455670)">
								<path id="Fill-124" class="st3" d="M0.1-5.2c0-0.7-0.5-1.2-1.3-1.2H-3V-4h1.8C-0.4-4,0.1-4.5,0.1-5.2L0.1-5.2z M-4.4,0v-7.6
									H-1c1.6,0,2.5,1.1,2.5,2.4S0.6-2.8-1-2.8h-2V0H-4.4z"/>
								<path id="Fill-125" class="st3" d="M2.5,0v-5.5h1.2v0.8c0.4-0.5,1.1-0.9,1.8-0.9v1.2c-0.1,0-0.2,0-0.4,0
									C4.7-4.5,4-4.1,3.7-3.8V0H2.5z"/>
								<path id="Fill-126" class="st3" d="M6.5,0h1.2v-5.5H6.5V0z M6.4-6.9c0-0.4,0.3-0.7,0.7-0.7c0.4,0,0.7,0.3,0.7,0.7
									c0,0.4-0.3,0.7-0.7,0.7C6.7-6.2,6.4-6.5,6.4-6.9L6.4-6.9z"/>
								<path id="Fill-127" class="st3" d="M13,0v-3.4c0-0.9-0.4-1.1-1.1-1.1c-0.6,0-1.1,0.4-1.4,0.7V0H9.2v-5.5h1.2v0.8
									c0.4-0.4,1.1-0.9,1.9-0.9c1.2,0,1.8,0.6,1.8,1.8V0H13z"/>
								<path id="Fill-128" class="st3" d="M16-1.3v-3.2H15v-1H16V-7h1.2v1.5h1.1v1h-1.1v2.9c0,0.4,0.2,0.7,0.5,0.7
									c0.2,0,0.4-0.1,0.5-0.2l0.3,0.9c-0.2,0.2-0.6,0.4-1.1,0.4C16.4,0.1,16-0.4,16-1.3"/>
								<path id="Fill-129" class="st3" d="M26.8-5.2c0-0.7-0.5-1.2-1.3-1.2h-1.8V-4h1.8C26.2-4,26.8-4.5,26.8-5.2L26.8-5.2z
									 M22.3,0v-7.6h3.3c1.6,0,2.5,1.1,2.5,2.4s-0.9,2.4-2.5,2.4h-2V0H22.3z"/>
								<path id="Fill-130" class="st3" d="M29.2,0v-5.5h1.2v0.8c0.4-0.5,1.1-0.9,1.8-0.9v1.2c-0.1,0-0.2,0-0.4,0
									c-0.5,0-1.2,0.3-1.4,0.7V0H29.2z"/>
								<path id="Fill-131" class="st3" d="M37.2-2.8c0-1-0.6-1.8-1.6-1.8c-1,0-1.6,0.9-1.6,1.8c0,1,0.6,1.8,1.6,1.8
									C36.7-0.9,37.2-1.8,37.2-2.8 M32.8-2.8c0-1.6,1.1-2.9,2.8-2.9c1.8,0,2.8,1.3,2.8,2.9c0,1.6-1.1,2.9-2.8,2.9
									C33.9,0.1,32.8-1.2,32.8-2.8"/>
								<polygon id="Fill-132" class="st3" points="39.3,-2.2 42,-2.2 42,-3.3 39.3,-3.3 								"/>
								<polygon id="Fill-133" class="st3" points="43.2,0 43.2,-7.6 48.4,-7.6 48.4,-6.4 44.5,-6.4 44.5,-4.5 48.3,-4.5 48.3,-3.3 
									44.5,-3.3 44.5,0 								"/>
								<path id="Fill-134" class="st3" d="M53.6-2.8c0-1-0.6-1.8-1.6-1.8c-1,0-1.6,0.9-1.6,1.8c0,1,0.6,1.8,1.6,1.8
									C53-0.9,53.6-1.8,53.6-2.8 M49.2-2.8c0-1.6,1.1-2.9,2.8-2.9c1.8,0,2.8,1.3,2.8,2.9c0,1.6-1.1,2.9-2.8,2.9
									C50.3,0.1,49.2-1.2,49.2-2.8"/>
								<path id="Fill-135" class="st3" d="M56.1,0v-5.5h1.2v0.8c0.4-0.5,1.1-0.9,1.8-0.9v1.2c-0.1,0-0.2,0-0.4,0
									c-0.5,0-1.2,0.3-1.4,0.7V0H56.1z"/>
								<path id="Fill-136" class="st3" d="M66.8,0v-3.6c0-0.6-0.3-1-0.9-1c-0.5,0-1,0.4-1.3,0.7V0h-1.2v-3.6c0-0.6-0.3-1-0.9-1
									c-0.5,0-1,0.4-1.3,0.7V0H60v-5.5h1.2v0.8c0.2-0.3,1-0.9,1.8-0.9c0.8,0,1.3,0.4,1.5,1c0.3-0.5,1-1,1.9-1c1,0,1.6,0.5,1.6,1.7
									v4H66.8z"/>
								<path id="Fill-137" class="st3" d="M72.9-1.3v-0.8c-0.3-0.4-0.8-0.6-1.3-0.6c-0.7,0-1.2,0.4-1.2,1c0,0.6,0.5,1,1.2,1
									C72.1-0.7,72.6-0.9,72.9-1.3L72.9-1.3z M72.9,0v-0.6c-0.4,0.5-1,0.7-1.8,0.7c-0.9,0-1.9-0.6-1.9-1.8c0-1.3,1-1.8,1.9-1.8
									c0.7,0,1.4,0.2,1.8,0.7v-0.8c0-0.6-0.5-1-1.3-1c-0.6,0-1.2,0.2-1.6,0.7l-0.5-0.8c0.6-0.6,1.4-0.9,2.3-0.9
									c1.2,0,2.3,0.5,2.3,2V0H72.9z"/>
								<polygon id="Fill-138" class="st3" points="78.6,0 79.9,0 79.9,-7.6 78.6,-7.6 								"/>
								<path id="Fill-139" class="st3" d="M85.2,0v-3.4c0-0.9-0.4-1.1-1.1-1.1c-0.6,0-1.1,0.4-1.4,0.7V0h-1.2v-5.5h1.2v0.8
									c0.4-0.4,1.1-0.9,1.9-0.9c1.2,0,1.8,0.6,1.8,1.8V0H85.2z"/>
								<polygon id="Fill-140" class="st3" points="89.4,0 87.2,-5.5 88.5,-5.5 90.1,-1.4 91.7,-5.5 93,-5.5 90.7,0 								"/>
								<path id="Fill-141" class="st3" d="M97.8-2.8c0-1-0.6-1.8-1.6-1.8c-1,0-1.6,0.9-1.6,1.8c0,1,0.6,1.8,1.6,1.8
									C97.2-0.9,97.8-1.8,97.8-2.8 M93.4-2.8c0-1.6,1.1-2.9,2.8-2.9C98-5.6,99-4.3,99-2.8c0,1.6-1.1,2.9-2.8,2.9
									C94.5,0.1,93.4-1.2,93.4-2.8"/>
								<path id="Fill-142" class="st3" d="M100.2,0h1.2v-5.5h-1.2V0z M100.1-6.9c0-0.4,0.3-0.7,0.7-0.7c0.4,0,0.7,0.3,0.7,0.7
									c0,0.4-0.3,0.7-0.7,0.7C100.4-6.2,100.1-6.5,100.1-6.9L100.1-6.9z"/>
								<path id="Fill-143" class="st3" d="M102.7-2.8c0-1.7,1.2-2.9,2.8-2.9c1.1,0,1.7,0.5,2.1,1l-0.8,0.7
									c-0.3-0.4-0.7-0.7-1.3-0.7c-1,0-1.7,0.8-1.7,1.8s0.7,1.8,1.7,1.8c0.5,0,1-0.2,1.3-0.7l0.8,0.7c-0.4,0.5-1,1-2.1,1
									C103.8,0.1,102.7-1.1,102.7-2.8"/>
								<path id="Fill-144" class="st3" d="M111.1-4.7c-1,0-1.5,0.8-1.6,1.5h3.1C112.6-3.9,112.2-4.7,111.1-4.7 M108.3-2.8
									c0-1.6,1.2-2.9,2.8-2.9c1.7,0,2.7,1.3,2.7,3v0.3h-4.3c0.1,0.8,0.7,1.5,1.8,1.5c0.5,0,1.2-0.2,1.6-0.6l0.5,0.8
									c-0.5,0.5-1.4,0.8-2.2,0.8C109.5,0.1,108.3-1,108.3-2.8"/>
							</g>
						</g>
						<path id="Fill-64" class="st5" d="M120,66.3c0-0.7-0.6-1.2-1.3-1.2h-2v2.4h2C119.4,67.5,120,67.1,120,66.3L120,66.3z
							 M114.8,72.3v-8.9h4.2c1.9,0,3,1.3,3,2.9c0,1.5-1.1,2.9-3,2.9h-2.3v3.2H114.8z"/>
						<path id="Fill-65" class="st5" d="M123,72.3v-6.4h1.7v0.9c0.5-0.6,1.3-1,2-1v1.7c-0.1,0-0.3,0-0.5,0c-0.6,0-1.3,0.3-1.6,0.7
							v4.2H123z"/>
						<path id="Fill-66" class="st5" d="M130.7,67.1c-1,0-1.5,0.8-1.6,1.4h3.2C132.3,67.9,131.9,67.1,130.7,67.1 M127.4,69.1
							c0-1.9,1.4-3.4,3.3-3.4c1.9,0,3.2,1.4,3.2,3.5v0.4h-4.8c0.1,0.8,0.8,1.5,1.9,1.5c0.5,0,1.3-0.2,1.7-0.6l0.7,1.1
							c-0.6,0.6-1.7,0.9-2.6,0.9C128.9,72.5,127.4,71.2,127.4,69.1"/>
						<path id="Fill-67" class="st5" d="M134.6,71.5l0.7-1.2c0.5,0.4,1.4,0.9,2.2,0.9c0.7,0,1.1-0.3,1.1-0.7c0-1.1-3.8-0.2-3.8-2.7
							c0-1.1,0.9-2,2.6-2c1.1,0,2,0.4,2.6,0.9l-0.7,1.2c-0.4-0.4-1.1-0.7-1.9-0.7c-0.6,0-1,0.3-1,0.6c0,1,3.8,0.2,3.8,2.8
							c0,1.2-1,2.1-2.8,2.1C136.4,72.5,135.3,72.1,134.6,71.5"/>
						<path id="Fill-68" class="st5" d="M144.4,67.1c-1,0-1.5,0.8-1.6,1.4h3.2C146,67.9,145.6,67.1,144.4,67.1 M141.1,69.1
							c0-1.9,1.4-3.4,3.3-3.4c1.9,0,3.2,1.4,3.2,3.5v0.4h-4.8c0.1,0.8,0.8,1.5,1.9,1.5c0.5,0,1.3-0.2,1.7-0.6l0.7,1.1
							c-0.6,0.6-1.7,0.9-2.6,0.9C142.6,72.5,141.1,71.2,141.1,69.1"/>
						<path id="Fill-69" class="st5" d="M153.2,72.3v-3.9c0-0.9-0.5-1.2-1.2-1.2c-0.7,0-1.2,0.4-1.5,0.8v4.3h-1.7v-6.4h1.7v0.8
							c0.4-0.5,1.2-1,2.2-1c1.4,0,2.1,0.8,2.1,2.1v4.5H153.2z"/>
						<path id="Fill-70" class="st5" d="M156.9,70.7v-3.4h-1.1v-1.5h1.1v-1.8h1.7v1.8h1.3v1.5h-1.3v2.9c0,0.4,0.2,0.7,0.6,0.7
							c0.3,0,0.5-0.1,0.6-0.2l0.4,1.3c-0.3,0.2-0.7,0.4-1.4,0.4C157.6,72.5,156.9,71.9,156.9,70.7"/>
						<path id="Fill-71" class="st5" d="M164.8,70.7v-3.4h-1.1v-1.5h1.1v-1.8h1.7v1.8h1.3v1.5h-1.3v2.9c0,0.4,0.2,0.7,0.6,0.7
							c0.3,0,0.5-0.1,0.6-0.2l0.4,1.3c-0.3,0.2-0.7,0.4-1.4,0.4C165.5,72.5,164.8,71.9,164.8,70.7"/>
						<path id="Fill-72" class="st5" d="M173.3,72.3v-3.9c0-0.9-0.5-1.2-1.2-1.2c-0.7,0-1.2,0.4-1.5,0.8v4.3H169v-8.9h1.7v3.3
							c0.4-0.5,1.2-1,2.3-1c1.4,0,2.1,0.8,2.1,2v4.6H173.3z"/>
						<path id="Fill-73" class="st5" d="M176.7,72.3h1.7v-6.4h-1.7V72.3z M176.5,64.2c0-0.6,0.5-1,1-1c0.6,0,1,0.4,1,1
							c0,0.6-0.5,1-1,1C177,65.2,176.5,64.8,176.5,64.2L176.5,64.2z"/>
						<path id="Fill-74" class="st5" d="M179.5,71.5l0.7-1.2c0.5,0.4,1.4,0.9,2.2,0.9c0.7,0,1.1-0.3,1.1-0.7c0-1.1-3.8-0.2-3.8-2.7
							c0-1.1,0.9-2,2.6-2c1.1,0,2,0.4,2.6,0.9l-0.7,1.2c-0.4-0.4-1.1-0.7-1.9-0.7c-0.6,0-1,0.3-1,0.6c0,1,3.8,0.2,3.8,2.8
							c0,1.2-1,2.1-2.8,2.1C181.3,72.5,180.2,72.1,179.5,71.5"/>
						<path id="Fill-75" class="st5" d="M195,70.7l-1-1.1l1.3-1.1l1,1.2c0.3-0.5,0.5-1.1,0.5-1.7c0-1.7-1.1-2.9-2.7-2.9
							c-1.6,0-2.7,1.3-2.7,2.9c0,1.7,1.1,2.9,2.7,2.9C194.4,70.8,194.7,70.8,195,70.7 M189.4,67.9c0-2.7,2-4.6,4.6-4.6
							c2.7,0,4.6,1.9,4.6,4.6c0,1.3-0.4,2.3-1.2,3.1l0.7,0.8l-1.3,1.1l-0.7-0.8c-0.6,0.3-1.3,0.4-2.1,0.4
							C191.4,72.5,189.4,70.6,189.4,67.9"/>
						<path id="Fill-76" class="st5" d="M205.2,66.3c0-0.7-0.6-1.2-1.3-1.2h-2v2.4h2C204.7,67.5,205.2,67.1,205.2,66.3L205.2,66.3z
							 M205.1,72.3l-1.7-3.2h-1.4v3.2H200v-8.9h4.2c1.8,0,3,1.2,3,2.9c0,1.6-1,2.4-1.9,2.6l2,3.4H205.1z"/>
						<path id="Fill-77" class="st5" d="M211.6,67.9c0-2.7,2.1-4.6,4.7-4.6c2,0,3.1,1.1,3.7,2.2l-1.6,0.8c-0.4-0.7-1.2-1.3-2.1-1.3
							c-1.6,0-2.8,1.2-2.8,2.9c0,1.7,1.2,2.9,2.8,2.9c0.9,0,1.7-0.6,2.1-1.3l1.6,0.8c-0.6,1.1-1.8,2.2-3.7,2.2
							C213.6,72.5,211.6,70.6,211.6,67.9"/>
						<path id="Fill-78" class="st5" d="M225.7,69.1c0-1-0.6-1.9-1.6-1.9c-1.1,0-1.6,0.9-1.6,1.9c0,1,0.6,1.9,1.6,1.9
							C225.1,71,225.7,70.1,225.7,69.1 M220.7,69.1c0-1.8,1.3-3.4,3.4-3.4c2.1,0,3.4,1.5,3.4,3.4c0,1.8-1.3,3.4-3.4,3.4
							C222,72.5,220.7,71,220.7,69.1"/>
						<path id="Fill-79" class="st5" d="M233.1,70.3V68c-0.3-0.4-0.9-0.7-1.5-0.7c-1,0-1.6,0.8-1.6,1.9c0,1.1,0.7,1.9,1.6,1.9
							C232.3,71,232.9,70.7,233.1,70.3L233.1,70.3z M233.1,72.3v-0.8c-0.5,0.6-1.2,1-2,1c-1.6,0-2.8-1.2-2.8-3.4
							c0-2.1,1.2-3.4,2.8-3.4c0.8,0,1.5,0.3,2,1v-3.3h1.7v8.9H233.1z"/>
						<path id="Fill-80" class="st5" d="M239.4,67.1c-1,0-1.5,0.8-1.6,1.4h3.2C241,67.9,240.6,67.1,239.4,67.1 M236.1,69.1
							c0-1.9,1.4-3.4,3.3-3.4c1.9,0,3.2,1.4,3.2,3.5v0.4h-4.8c0.1,0.8,0.8,1.5,1.9,1.5c0.5,0,1.3-0.2,1.7-0.6l0.7,1.1
							c-0.6,0.6-1.7,0.9-2.6,0.9C237.6,72.5,236.1,71.2,236.1,69.1"/>
						<path id="Fill-81" class="st5" d="M247.6,70.7v-3.4h-1.1v-1.5h1.1v-1.8h1.7v1.8h1.3v1.5h-1.3v2.9c0,0.4,0.2,0.7,0.6,0.7
							c0.3,0,0.5-0.1,0.6-0.2l0.4,1.3c-0.3,0.2-0.7,0.4-1.4,0.4C248.3,72.5,247.6,71.9,247.6,70.7"/>
						<path id="Fill-82" class="st5" d="M256.4,69.1c0-1-0.6-1.9-1.6-1.9c-1.1,0-1.6,0.9-1.6,1.9c0,1,0.6,1.9,1.6,1.9
							C255.8,71,256.4,70.1,256.4,69.1 M251.4,69.1c0-1.8,1.3-3.4,3.4-3.4c2.1,0,3.4,1.5,3.4,3.4c0,1.8-1.3,3.4-3.4,3.4
							C252.6,72.5,251.4,71,251.4,69.1"/>
						<path id="Fill-83" class="st5" d="M262.8,73.3c0.1,0.1,0.4,0.1,0.5,0.1c0.4,0,0.7-0.1,0.9-0.5l0.2-0.5l-2.6-6.5h1.8l1.7,4.5
							l1.7-4.5h1.8l-3,7.5c-0.5,1.2-1.3,1.5-2.4,1.6c-0.2,0-0.6,0-0.8-0.1L262.8,73.3z"/>
						<path id="Fill-84" class="st5" d="M274.3,69.1c0-1-0.6-1.9-1.6-1.9c-1.1,0-1.6,0.9-1.6,1.9c0,1,0.6,1.9,1.6,1.9
							C273.7,71,274.3,70.1,274.3,69.1 M269.2,69.1c0-1.8,1.3-3.4,3.4-3.4c2.1,0,3.4,1.5,3.4,3.4c0,1.8-1.3,3.4-3.4,3.4
							C270.5,72.5,269.2,71,269.2,69.1"/>
						<path id="Fill-85" class="st5" d="M281.6,72.3v-0.8c-0.4,0.5-1.2,1-2.3,1c-1.4,0-2.1-0.8-2.1-2v-4.6h1.7v3.9
							c0,0.9,0.5,1.2,1.2,1.2c0.7,0,1.2-0.4,1.5-0.7v-4.4h1.7v6.4H281.6z"/>
						<path id="Fill-86" class="st5" d="M285,72.3v-6.4h1.7v0.9c0.5-0.6,1.3-1,2.1-1v1.7c-0.1,0-0.3,0-0.5,0c-0.6,0-1.3,0.3-1.6,0.7
							v4.2H285z"/>
						<path id="Fill-87" class="st5" d="M292.8,69.1c0-2,1.4-3.4,3.4-3.4c1.3,0,2.1,0.6,2.5,1.2l-1.1,1c-0.3-0.5-0.8-0.7-1.4-0.7
							c-1,0-1.7,0.7-1.7,1.9c0,1.1,0.7,1.9,1.7,1.9c0.6,0,1-0.3,1.4-0.7l1.1,1c-0.4,0.6-1.2,1.2-2.5,1.2
							C294.2,72.5,292.8,71.1,292.8,69.1"/>
						<path id="Fill-88" class="st5" d="M304.2,72.3v-0.8c-0.4,0.5-1.2,1-2.3,1c-1.4,0-2.1-0.8-2.1-2v-4.6h1.7v3.9
							c0,0.9,0.5,1.2,1.2,1.2c0.7,0,1.2-0.4,1.5-0.7v-4.4h1.7v6.4H304.2z"/>
						<path id="Fill-89" class="st5" d="M307,71.5l0.7-1.2c0.5,0.4,1.4,0.9,2.2,0.9c0.7,0,1.1-0.3,1.1-0.7c0-1.1-3.8-0.2-3.8-2.7
							c0-1.1,0.9-2,2.6-2c1.1,0,2,0.4,2.6,0.9l-0.7,1.2c-0.4-0.4-1.1-0.7-1.9-0.7c-0.6,0-1,0.3-1,0.6c0,1,3.8,0.2,3.8,2.8
							c0,1.2-1,2.1-2.8,2.1C308.7,72.5,307.6,72.1,307,71.5"/>
						<path id="Fill-90" class="st5" d="M314.2,70.7v-3.4h-1.1v-1.5h1.1v-1.8h1.7v1.8h1.3v1.5h-1.3v2.9c0,0.4,0.2,0.7,0.6,0.7
							c0.3,0,0.5-0.1,0.6-0.2l0.4,1.3c-0.3,0.2-0.7,0.4-1.4,0.4C314.8,72.5,314.2,71.9,314.2,70.7"/>
						<path id="Fill-91" class="st5" d="M323,69.1c0-1-0.6-1.9-1.6-1.9c-1.1,0-1.6,0.9-1.6,1.9c0,1,0.6,1.9,1.6,1.9
							C322.4,71,323,70.1,323,69.1 M317.9,69.1c0-1.8,1.3-3.4,3.4-3.4c2.1,0,3.4,1.5,3.4,3.4c0,1.8-1.3,3.4-3.4,3.4
							C319.2,72.5,317.9,71,317.9,69.1"/>
						<path id="Fill-92" class="st5" d="M334,72.3v-4.1c0-0.6-0.3-1-1-1c-0.6,0-1.1,0.4-1.3,0.7v4.3H330v-4.1c0-0.6-0.3-1-1-1
							c-0.6,0-1.1,0.4-1.3,0.8v4.3H326v-6.4h1.7v0.8c0.3-0.4,1.1-1,2.1-1c0.9,0,1.5,0.4,1.8,1.2c0.4-0.6,1.2-1.2,2.2-1.2
							c1.2,0,1.9,0.6,1.9,1.9v4.6H334z"/>
						<path id="Fill-93" class="st5" d="M340.2,67.1c-1,0-1.5,0.8-1.6,1.4h3.2C341.8,67.9,341.4,67.1,340.2,67.1 M336.9,69.1
							c0-1.9,1.4-3.4,3.3-3.4c1.9,0,3.2,1.4,3.2,3.5v0.4h-4.8c0.1,0.8,0.8,1.5,1.9,1.5c0.5,0,1.3-0.2,1.7-0.6l0.7,1.1
							c-0.6,0.6-1.7,0.9-2.6,0.9C338.4,72.5,336.9,71.2,336.9,69.1"/>
						<path id="Fill-94" class="st5" d="M344.7,72.3v-6.4h1.7v0.9c0.5-0.6,1.3-1,2.1-1v1.7c-0.1,0-0.3,0-0.5,0
							c-0.6,0-1.3,0.3-1.6,0.7v4.2H344.7z"/>
						<g id="Group-22" transform="translate(227.089701, 247.134021)">
							<path id="Fill-145" class="st5" d="M2.6-2.6c0-1.7-1.1-2.9-2.7-2.9c-1.6,0-2.7,1.3-2.7,2.9c0,1.7,1.1,2.9,2.7,2.9
								C1.5,0.3,2.6-0.9,2.6-2.6 M-4.7-2.6c0-2.7,2-4.6,4.6-4.6c2.7,0,4.6,1.9,4.6,4.6c0,2.7-2,4.6-4.6,4.6C-2.8,2-4.7,0.1-4.7-2.6"
								/>
							<path id="Fill-146" class="st5" d="M11.1-4.2c0-0.7-0.6-1.2-1.3-1.2h-2V-3h2C10.5-3,11.1-3.4,11.1-4.2L11.1-4.2z M10.9,1.8
								L9.1-1.3H7.8v3.2H5.9V-7H10c1.8,0,3,1.2,3,2.9c0,1.6-1,2.4-1.9,2.6l2,3.4H10.9z"/>
						</g>
						<g id="Group-37_1_" transform="translate(177.934757, 106.604111)">
							<g id="Clip-2">
							</g>
							<defs>
								<filter id="Adobe_OpacityMaskFilter_18_" filterUnits="userSpaceOnUse" x="11.5" y="29.2" width="103.1" height="78.5">
									<feColorMatrix  type="matrix" values="1 0 0 0 0  0 1 0 0 0  0 0 1 0 0  0 0 0 1 0"/>
								</filter>
							</defs>
							<mask maskUnits="userSpaceOnUse" x="11.5" y="29.2" width="103.1" height="78.5" id="mask-18_70_">
								<g class="st53">
									<polygon id="path-17_70_" class="st3" points="-5,-8 114.7,-8 114.7,111.7 -5,111.7 									"/>
								</g>
							</mask>
							<path id="Fill-1_1_" class="st54" d="M52.8,74.5h4v-4h-4V74.5z M73.4,70.4h4.1v-4h-4.1V70.4z M89.9,74.5v-8.2h-4.1v4.1h-8.2
								v4.1H89.9z M81.7,91H94V78.7H81.7V91z M36.2,107.6c-1.3,0-2.6,0-4,0l0,0c0-0.5-0.1-1.1-0.1-1.6c0-0.7,0-1.4,0-2.1
								c0-0.4-0.1-0.5-0.5-0.5c-1,0-2,0-3,0H28V87h4.1v-4.2H28v-4.1H15.6v-8.3h-4.1v-4.1h4.1l0,0v4.1c0.5,0,1,0,1.5,0
								c0.9,0,1.8,0,2.7,0.1c0,1.3,0,2.7,0,4h4.1v-4h-4.1c0-1.4,0-2.8,0-4.2l0,0h4.2v-4.2l0,0h12.3v4.2H28v12.3h8.2v-4.1l0,0h4.2
								v-8.2h8.3v-4.1h8.2V58h-4v-4.1c0.3,0,0.5,0,0.8,0c1.1,0,2.3,0,3.4,0c0,0.9-0.1,1.7-0.1,2.6c0,0.5,0,1,0,1.6H61v16.5h4.2v4.2
								h8.3c0,1.4,0,2.8,0,4.1c-1.4,0-2.7,0-4.1,0v8.3c1.4,0,2.8,0,4.1,0v4.1h4.1v-4h-4.1c0-2.8,0-5.5,0-8.3h4.1v-8.3h-8.3V62.1
								h-4.1V58h4.1v-4.1c-0.2,0-0.4,0-0.6,0c-3.2,0-6.4,0-9.6,0c-0.7,0-1.4,0-2.1,0c0-0.2-0.1-0.4-0.1-0.7c0-2.3,0-4.5,0-6.8v-0.7
								h-4.1c0-1.4,0-2.7,0-4.1c0.2,0,0.4-0.1,0.5-0.1c1,0,2,0,3,0c0.4,0,0.5-0.1,0.5-0.5c0-0.8,0-1.6,0-2.3v-1.2h-4.1v4.2
								c-0.8,0-1.6-0.1-2.4-0.1c-0.6,0-1.2,0-1.8,0v-4.1h-4.1v4h-4.2v-4.1h-4.1v-4.1l0,0h8.3v-4.1H61v0.7c0,3.7,0,7.4,0,11
								c0,0.5,0.1,0.6,0.6,0.6c2.3,0,4.7,0,7,0c0.2,0,0.4,0,0.6,0v4.1h-8.2v4.1c1,0,2,0,3,0c3.1,0,6.3,0,9.4,0l0,0v12.4h16.5V58l0,0
								c1.4,0,2.8,0,4.2,0v4.2h4.1l0,0v4.2h-4.1v8.2h4.1v4.1h4.1v-4.1h4.1c0-0.3,0-0.5,0-0.8c0-1.1,0-2.2,0-3.3l0,0h4.1v4h4.1v8.3
								h-8.2V87l0,0h-8.3v8.3l0,0c-0.1,0-0.2,0-0.3,0c-5.3,0-10.6,0-15.8,0c-0.1,0-0.2,0-0.4,0.1v4.1H69.3v4.1l0,0
								c-1.2,0-2.3,0.1-3.5,0c-0.5,0-0.6,0.1-0.6,0.6c0,1.2,0,2.3,0,3.5H52.8v-4.1h-8.3v-4.2h0.6c2.3,0,4.6,0,6.9,0
								c0.2,0,0.4,0,0.7-0.1l0,0v4.2h12.4v-4.1h4.1v-4.1h-4.1V82.8H61v8.2h-8.2V87h4v-4.1H61v-4.1h-8.2v-4.1h-4.1v4.1h-4.1v4.1h-4.2
								c0-1.4,0-2.8,0-4.2c0.9,0,1.7,0.1,2.6,0.1c0.5,0,1,0,1.5,0v-4.1h-4.1v4c-0.9,0-1.8,0-2.7,0.1c-0.4,0-0.8,0-1.3,0v8.2h8.2v4.1
								h4.1v4.1h-8.2v-4.1h-4.1V87h-4.1v8.2h4.1v4.1h4.1v4.2c-1.2,0-2.3,0-3.4,0c-0.5,0-0.7,0.1-0.7,0.7c0,1,0,1.9,0,2.9
								C36.2,107.2,36.2,107.4,36.2,107.6L36.2,107.6z"/>
							<defs>
								<filter id="Adobe_OpacityMaskFilter_19_" filterUnits="userSpaceOnUse" x="73.4" y="25" width="37.2" height="33">
									<feColorMatrix  type="matrix" values="1 0 0 0 0  0 1 0 0 0  0 0 1 0 0  0 0 0 1 0"/>
								</filter>
							</defs>
							<mask maskUnits="userSpaceOnUse" x="73.4" y="25" width="37.2" height="33" id="mask-18_69_">
								<g class="st55">
									<polygon id="path-17_69_" class="st3" points="-5,-8 114.7,-8 114.7,111.7 -5,111.7 									"/>
								</g>
							</mask>
							<path id="Fill-3_1_" class="st56" d="M81.7,53.9h4v-4h-4V53.9z M73.4,37.4h8.2v-4.1h4.1V25h20.6v4.1h-8.2v4.1H85.8v4.1H94
								v4.1h-8.2v-4h-4.1v4.1h-4.1v4.1h12.3v4.1H94v-4.1h4.1v-8.2h4.1v4c0.3,0,0.5,0,0.8,0c1,0,1.9,0,2.9,0c0.4,0,0.5-0.1,0.5-0.5
								c0-1,0-2,0-3v-0.6h4.1v4.1h-4.1v4.2h-8.3v4.1h8.2v4.1h4.1V58h-4.1l0,0v-4.1h-8.3v-4.1H94v4.1h-4.1c0,0.3,0,0.6,0,0.9
								c0,1.1,0,2.2,0,3.3l0,0h-8.2v-4.2h-4.1v-4.1c-0.3,0-0.6,0-0.8,0c-1.1,0-2.2,0-3.3,0l0,0C73.4,45.6,73.4,41.5,73.4,37.4
								L73.4,37.4z"/>
							<defs>
								<filter id="Adobe_OpacityMaskFilter_20_" filterUnits="userSpaceOnUse" x="44.6" y="-8" width="37.1" height="28.9">
									<feColorMatrix  type="matrix" values="1 0 0 0 0  0 1 0 0 0  0 0 1 0 0  0 0 0 1 0"/>
								</filter>
							</defs>
							<mask maskUnits="userSpaceOnUse" x="44.6" y="-8" width="37.1" height="28.9" id="mask-18_68_">
								<g class="st57">
									<polygon id="path-17_68_" class="st3" points="-5,-8 114.7,-8 114.7,111.7 -5,111.7 									"/>
								</g>
							</mask>
							<path id="Fill-4_1_" class="st58" d="M48.7,4.3v-8.2h-4.1V-8H61v4h4.1v-4h16.5v8.2h-4.1v-4h-8.3v4.1c-0.3,0-0.5,0-0.7,0
								c-2.3,0-4.6,0-6.9,0c-0.6,0-0.7,0.2-0.7,0.7c0,2.3,0,4.6,0,6.9v0.6h4.1V4.4h12.4v4.1h4.1v4.1H69.3v4.1h4.1v4.2l0,0h-4.2v-4.1
								c-1.4,0-2.8,0-4.1,0l0,0v-4.2h-8.2V8.5h-4.1c0-1.4,0-2.8,0-4.1c1.4,0,2.7,0,4.1,0c0-1.3,0-2.5,0-3.8c0-0.1-0.3-0.3-0.4-0.3
								c-0.7,0-1.4,0-2.1,0c-0.5,0-1,0-1.6,0v4.1C51.4,4.3,50,4.3,48.7,4.3L48.7,4.3"/>
							<defs>
								<filter id="Adobe_OpacityMaskFilter_21_" filterUnits="userSpaceOnUse" x="69.3" y="86.9" width="45.4" height="24.7">
									<feColorMatrix  type="matrix" values="1 0 0 0 0  0 1 0 0 0  0 0 1 0 0  0 0 0 1 0"/>
								</filter>
							</defs>
							<mask maskUnits="userSpaceOnUse" x="69.3" y="86.9" width="45.4" height="24.7" id="mask-18_67_">
								<g class="st59">
									<polygon id="path-17_67_" class="st3" points="-5,-8 114.7,-8 114.7,111.7 -5,111.7 									"/>
								</g>
							</mask>
							<path id="Fill-5_1_" class="st60" d="M106.5,87h8.2v8.3h-8.2v4.1h4.1v8.2c-1.4,0-2.7,0-4,0c0-0.2-0.1-0.4-0.1-0.5
								c0-1,0-2,0-3c0-0.5-0.2-0.6-0.6-0.6c-0.8,0-1.7,0-2.5,0c-0.3,0-0.7,0-1,0v4.1h4.2c0,0.5-0.1,1.1-0.1,1.6c0,0.8,0,1.7,0,2.5
								H94.1v-8.2c-0.2,0-0.4,0-0.6,0c-2.4,0-4.7,0-7.1,0c-0.5,0-0.6,0.1-0.6,0.6c0,2.3,0,4.6,0,6.9v0.7h-4.1v-4.1h-4.1v4.1h-4.2
								v-4.1h-4.1v-4.2l0,0c0.1,0,0.2,0,0.3,0c5.2,0,10.5,0,15.7,0c0.1,0,0.3,0,0.5-0.1v-4.1h12.4v-4l0,0h4.2v-4.2h4.1
								c0-0.3,0-0.5,0-0.8C106.4,89.2,106.5,88.1,106.5,87L106.5,87z"/>
							<defs>
								<filter id="Adobe_OpacityMaskFilter_22_" filterUnits="userSpaceOnUse" x="-5" y="82.9" width="28.8" height="28.8">
									<feColorMatrix  type="matrix" values="1 0 0 0 0  0 1 0 0 0  0 0 1 0 0  0 0 0 1 0"/>
								</filter>
							</defs>
							<mask maskUnits="userSpaceOnUse" x="-5" y="82.9" width="28.8" height="28.8" id="mask-18_66_">
								<g class="st61">
									<polygon id="path-17_66_" class="st3" points="-5,-8 114.7,-8 114.7,111.7 -5,111.7 									"/>
								</g>
							</mask>
							<path id="Fill-6" class="st62" d="M-0.9,107.5h20.6V87H-0.9V107.5z M-5,111.7h28.8V82.9H-5V111.7z"/>
							<defs>
								<filter id="Adobe_OpacityMaskFilter_23_" filterUnits="userSpaceOnUse" x="85.8" y="-8" width="28.9" height="28.9">
									<feColorMatrix  type="matrix" values="1 0 0 0 0  0 1 0 0 0  0 0 1 0 0  0 0 0 1 0"/>
								</filter>
							</defs>
							<mask maskUnits="userSpaceOnUse" x="85.8" y="-8" width="28.9" height="28.9" id="mask-18_65_">
								<g class="st63">
									<polygon id="path-17_65_" class="st3" points="-5,-8 114.7,-8 114.7,111.7 -5,111.7 									"/>
								</g>
							</mask>
							<path id="Fill-7_2_" class="st64" d="M110.5,16.7V-3.9c-0.2,0-0.4,0-0.6,0c-6.4,0-12.9,0-19.3,0c-0.6,0-0.7,0.2-0.7,0.7
								c0,6.4,0,12.8,0,19.3c0,0.6,0.1,0.7,0.7,0.7c6.4,0,12.8,0,19.2,0H110.5z M85.8,20.9V-8h28.9v0.7c0,9.2,0,18.3,0,27.5
								c0,0.6-0.1,0.7-0.7,0.7c-9.2,0-18.4,0-27.6,0H85.8z"/>
							<defs>
								<filter id="Adobe_OpacityMaskFilter_24_" filterUnits="userSpaceOnUse" x="-5" y="-8" width="28.8" height="28.9">
									<feColorMatrix  type="matrix" values="1 0 0 0 0  0 1 0 0 0  0 0 1 0 0  0 0 0 1 0"/>
								</filter>
							</defs>
							<mask maskUnits="userSpaceOnUse" x="-5" y="-8" width="28.8" height="28.9" id="mask-18_64_">
								<g class="st65">
									<polygon id="path-17_64_" class="st3" points="-5,-8 114.7,-8 114.7,111.7 -5,111.7 									"/>
								</g>
							</mask>
							<path id="Fill-8" class="st66" d="M-0.9,16.7h20.6V-3.9H-0.9V16.7z M-5,20.9h28.8V-8H-5V20.9z"/>
							<defs>
								<filter id="Adobe_OpacityMaskFilter_25_" filterUnits="userSpaceOnUse" x="19.7" y="0.2" width="28.9" height="37.2">
									<feColorMatrix  type="matrix" values="1 0 0 0 0  0 1 0 0 0  0 0 1 0 0  0 0 0 1 0"/>
								</filter>
							</defs>
							<mask maskUnits="userSpaceOnUse" x="19.7" y="0.2" width="28.9" height="37.2" id="mask-18_63_">
								<g class="st67">
									<polygon id="path-17_63_" class="st3" points="-5,-8 114.7,-8 114.7,111.7 -5,111.7 									"/>
								</g>
							</mask>
							<path id="Fill-9_1_" class="st68" d="M19.7,37.4v-4.1h4.1c0-1,0-1.9,0-2.8c0-0.5,0-0.9,0.1-1.4l0,0c0.1,0,0.3,0,0.4,0
								c3.8,0,7.7,0,11.5,0c0.1,0,0.3,0,0.4,0V25H28V0.3h4.1v20.6h4.1V0.2h4.1v4.1h8.3l0,0v8.3h-4.1V8.5h-4.1v20.6h-4.1
								c0,0.3,0,0.5,0,0.8c0,1.1,0,2.2,0,3.4l0,0h-4.1v4.1L19.7,37.4L19.7,37.4z"/>
							<defs>
								<filter id="Adobe_OpacityMaskFilter_26_" filterUnits="userSpaceOnUse" x="-5" y="41.5" width="28.9" height="24.8">
									<feColorMatrix  type="matrix" values="1 0 0 0 0  0 1 0 0 0  0 0 1 0 0  0 0 0 1 0"/>
								</filter>
							</defs>
							<mask maskUnits="userSpaceOnUse" x="-5" y="41.5" width="28.9" height="24.8" id="mask-18_62_">
								<g class="st69">
									<polygon id="path-17_62_" class="st3" points="-5,-8 114.7,-8 114.7,111.7 -5,111.7 									"/>
								</g>
							</mask>
							<path id="Fill-10_2_" class="st70" d="M15.6,66.3v-8.3h-4.1v4.1H7.4v4.1H3.3v-4.1h4v-8.3H-5v-8.2h8.2v4h8.3v4.1h4.1v-8.2h-4
								v-4.1h4.1l0,0v4.1c0.4,0,0.6,0,0.9,0c1.1,0,2.2,0,3.3,0l0,0v4h4.2l0,0c0,1.4,0,2.8,0,4.2c-1.4,0-2.7,0-4.1,0V58h4.1
								c0,1.4,0,2.8,0,4.2l0,0h-4.2v4.2l0,0C18.4,66.3,17,66.3,15.6,66.3L15.6,66.3z"/>
							<defs>
								<filter id="Adobe_OpacityMaskFilter_27_" filterUnits="userSpaceOnUse" x="-5" y="25" width="28.9" height="16.5">
									<feColorMatrix  type="matrix" values="1 0 0 0 0  0 1 0 0 0  0 0 1 0 0  0 0 0 1 0"/>
								</filter>
							</defs>
							<mask maskUnits="userSpaceOnUse" x="-5" y="25" width="28.9" height="16.5" id="mask-18_61_">
								<g class="st71">
									<polygon id="path-17_61_" class="st3" points="-5,-8 114.7,-8 114.7,111.7 -5,111.7 									"/>
								</g>
							</mask>
							<path id="Fill-11" class="st72" d="M7.4,33.2h4v-4.1h-4V33.2z M23.9,29.1c-0.2,0-0.4,0.1-0.6,0.1c-2.4,0-4.7,0-7.1,0h-0.7
								v4.1h-4.1v4.1H-0.9v4.1H-5V25h4.1v4.1h4.1V25h20.7C23.9,26.4,23.9,27.7,23.9,29.1C23.9,29.1,23.9,29.1,23.9,29.1L23.9,29.1z"
								/>
							<defs>
								<filter id="Adobe_OpacityMaskFilter_28_" filterUnits="userSpaceOnUse" x="15.6" y="37.4" width="16.6" height="12.3">
									<feColorMatrix  type="matrix" values="1 0 0 0 0  0 1 0 0 0  0 0 1 0 0  0 0 0 1 0"/>
								</filter>
							</defs>
							<mask maskUnits="userSpaceOnUse" x="15.6" y="37.4" width="16.6" height="12.3" id="mask-18_60_">
								<g class="st73">
									<polygon id="path-17_60_" class="st3" points="-5,-8 114.7,-8 114.7,111.7 -5,111.7 									"/>
								</g>
							</mask>
							<polygon id="Fill-12_1_" class="st74" points="15.6,41.6 15.6,37.4 19.7,37.4 19.7,37.4 19.7,41.5 32.2,41.5 32.2,45.7 
								32.2,45.7 28,45.7 28,49.7 23.9,49.7 23.9,49.7 23.9,45.7 19.7,45.7 19.7,45.7 19.7,41.5 15.6,41.5 							"/>
							<defs>
								<filter id="Adobe_OpacityMaskFilter_29_" filterUnits="userSpaceOnUse" x="-5" y="58.1" width="4.1" height="20.6">
									<feColorMatrix  type="matrix" values="1 0 0 0 0  0 1 0 0 0  0 0 1 0 0  0 0 0 1 0"/>
								</filter>
							</defs>
							<mask maskUnits="userSpaceOnUse" x="-5" y="58.1" width="4.1" height="20.6" id="mask-18_59_">
								<g class="st75">
									<polygon id="path-17_59_" class="st3" points="-5,-8 114.7,-8 114.7,111.7 -5,111.7 									"/>
								</g>
							</mask>
							<polygon id="Fill-13_1_" class="st76" points="-5,78.6 -0.9,78.6 -0.9,58.1 -5,58.1 							"/>
							<defs>
								<filter id="Adobe_OpacityMaskFilter_30_" filterUnits="userSpaceOnUse" x="73.4" y="16.8" width="8.2" height="16.5">
									<feColorMatrix  type="matrix" values="1 0 0 0 0  0 1 0 0 0  0 0 1 0 0  0 0 0 1 0"/>
								</filter>
							</defs>
							<mask maskUnits="userSpaceOnUse" x="73.4" y="16.8" width="8.2" height="16.5" id="mask-18_58_">
								<g class="st77">
									<polygon id="path-17_58_" class="st3" points="-5,-8 114.7,-8 114.7,111.7 -5,111.7 									"/>
								</g>
							</mask>
							<path id="Fill-14_1_" class="st78" d="M73.4,20.9c1.1,0,2.2,0,3.3-0.1c0.3,0,0.5,0,0.8,0v-4.1h4.1V25h-4.1v8.2h-4.2l0,0
								C73.4,29.1,73.4,25,73.4,20.9L73.4,20.9z"/>
							<defs>
								<filter id="Adobe_OpacityMaskFilter_31_" filterUnits="userSpaceOnUse" x="98.2" y="58" width="8.3" height="12.5">
									<feColorMatrix  type="matrix" values="1 0 0 0 0  0 1 0 0 0  0 0 1 0 0  0 0 0 1 0"/>
								</filter>
							</defs>
							<mask maskUnits="userSpaceOnUse" x="98.2" y="58" width="8.3" height="12.5" id="mask-18_57_">
								<g class="st79">
									<polygon id="path-17_57_" class="st3" points="-5,-8 114.7,-8 114.7,111.7 -5,111.7 									"/>
								</g>
							</mask>
							<path id="Fill-15_2_" class="st80" d="M106.5,58c0,1.5,0,3.1,0,4.6c0,2.6,0,5.3,0,7.9l0,0h-4.2v-8.3h-4.1l0,0
								c0-1.4,0-2.8,0-4.2L106.5,58L106.5,58z"/>
							<defs>
								<filter id="Adobe_OpacityMaskFilter_32_" filterUnits="userSpaceOnUse" x="3.3" y="70.5" width="8.2" height="8.2">
									<feColorMatrix  type="matrix" values="1 0 0 0 0  0 1 0 0 0  0 0 1 0 0  0 0 0 1 0"/>
								</filter>
							</defs>
							<mask maskUnits="userSpaceOnUse" x="3.3" y="70.5" width="8.2" height="8.2" id="mask-18_56_">
								<g class="st81">
									<polygon id="path-17_56_" class="st3" points="-5,-8 114.7,-8 114.7,111.7 -5,111.7 									"/>
								</g>
							</mask>
							<polygon id="Fill-16_1_" class="st82" points="7.4,74.5 11.5,74.5 11.5,78.6 3.3,78.6 3.3,70.5 7.4,70.5 							"/>
							<defs>
								<filter id="Adobe_OpacityMaskFilter_33_" filterUnits="userSpaceOnUse" x="69.3" y="33.2" width="4.1" height="4.2">
									<feColorMatrix  type="matrix" values="1 0 0 0 0  0 1 0 0 0  0 0 1 0 0  0 0 0 1 0"/>
								</filter>
							</defs>
							<mask maskUnits="userSpaceOnUse" x="69.3" y="33.2" width="4.1" height="4.2" id="mask-18_55_">
								<g class="st83">
									<polygon id="path-17_55_" class="st3" points="-5,-8 114.7,-8 114.7,111.7 -5,111.7 									"/>
								</g>
							</mask>
							<polygon id="Fill-17_1_" class="st84" points="73.4,33.2 73.4,37.4 73.4,37.4 69.3,37.4 69.3,33.3 73.4,33.3 							"/>
							<defs>
								<filter id="Adobe_OpacityMaskFilter_34_" filterUnits="userSpaceOnUse" x="110.6" y="29.1" width="4.1" height="4.1">
									<feColorMatrix  type="matrix" values="1 0 0 0 0  0 1 0 0 0  0 0 1 0 0  0 0 0 1 0"/>
								</filter>
							</defs>
							<mask maskUnits="userSpaceOnUse" x="110.6" y="29.1" width="4.1" height="4.1" id="mask-18_54_">
								<g class="st85">
									<polygon id="path-17_54_" class="st3" points="-5,-8 114.7,-8 114.7,111.7 -5,111.7 									"/>
								</g>
							</mask>
							<polygon id="Fill-18_2_" class="st86" points="110.6,33.2 114.6,33.2 114.6,29.1 110.6,29.1 							"/>
							<defs>
								<filter id="Adobe_OpacityMaskFilter_35_" filterUnits="userSpaceOnUse" x="28" y="107.6" width="4.2" height="4.1">
									<feColorMatrix  type="matrix" values="1 0 0 0 0  0 1 0 0 0  0 0 1 0 0  0 0 0 1 0"/>
								</filter>
							</defs>
							<mask maskUnits="userSpaceOnUse" x="28" y="107.6" width="4.2" height="4.1" id="mask-18_53_">
								<g class="st87">
									<polygon id="path-17_53_" class="st3" points="-5,-8 114.7,-8 114.7,111.7 -5,111.7 									"/>
								</g>
							</mask>
							<path id="Fill-19_1_" class="st88" d="M32.2,107.6c0,1,0,2-0.1,3c0,0.3,0,0.7,0,1.1H28v-4.1
								C29.4,107.6,30.8,107.6,32.2,107.6C32.2,107.6,32.2,107.6,32.2,107.6"/>
							<defs>
								<filter id="Adobe_OpacityMaskFilter_36_" filterUnits="userSpaceOnUse" x="110.6" y="62.2" width="4.1" height="4.1">
									<feColorMatrix  type="matrix" values="1 0 0 0 0  0 1 0 0 0  0 0 1 0 0  0 0 0 1 0"/>
								</filter>
							</defs>
							<mask maskUnits="userSpaceOnUse" x="110.6" y="62.2" width="4.1" height="4.1" id="mask-18_52_">
								<g class="st89">
									<polygon id="path-17_52_" class="st3" points="-5,-8 114.7,-8 114.7,111.7 -5,111.7 									"/>
								</g>
							</mask>
							<polygon id="Fill-20_1_" class="st90" points="110.6,66.3 114.7,66.3 114.7,62.2 110.6,62.2 							"/>
							<defs>
								<filter id="Adobe_OpacityMaskFilter_37_" filterUnits="userSpaceOnUse" x="36.2" y="107.6" width="4.2" height="4.1">
									<feColorMatrix  type="matrix" values="1 0 0 0 0  0 1 0 0 0  0 0 1 0 0  0 0 0 1 0"/>
								</filter>
							</defs>
							<mask maskUnits="userSpaceOnUse" x="36.2" y="107.6" width="4.2" height="4.1" id="mask-18_51_">
								<g class="st91">
									<polygon id="path-17_51_" class="st3" points="-5,-8 114.7,-8 114.7,111.7 -5,111.7 									"/>
								</g>
							</mask>
							<path id="Fill-21_3_" class="st92" d="M36.2,107.6h4.2v4.1h-4.1C36.2,110.3,36.2,109,36.2,107.6
								C36.2,107.6,36.2,107.6,36.2,107.6"/>
							<defs>
								<filter id="Adobe_OpacityMaskFilter_38_" filterUnits="userSpaceOnUse" x="44.6" y="107.6" width="4" height="4.1">
									<feColorMatrix  type="matrix" values="1 0 0 0 0  0 1 0 0 0  0 0 1 0 0  0 0 0 1 0"/>
								</filter>
							</defs>
							<mask maskUnits="userSpaceOnUse" x="44.6" y="107.6" width="4" height="4.1" id="mask-18_50_">
								<g class="st93">
									<polygon id="path-17_50_" class="st3" points="-5,-8 114.7,-8 114.7,111.7 -5,111.7 									"/>
								</g>
							</mask>
							<polygon id="Fill-22_1_" class="st94" points="44.6,111.7 48.6,111.7 48.6,107.6 44.6,107.6 							"/>
							<defs>
								<filter id="Adobe_OpacityMaskFilter_39_" filterUnits="userSpaceOnUse" x="110.6" y="45.7" width="4.1" height="4.1">
									<feColorMatrix  type="matrix" values="1 0 0 0 0  0 1 0 0 0  0 0 1 0 0  0 0 0 1 0"/>
								</filter>
							</defs>
							<mask maskUnits="userSpaceOnUse" x="110.6" y="45.7" width="4.1" height="4.1" id="mask-18_49_">
								<g class="st95">
									<polygon id="path-17_49_" class="st3" points="-5,-8 114.7,-8 114.7,111.7 -5,111.7 									"/>
								</g>
							</mask>
							<path id="Fill-23_2_" class="st96" d="M110.6,49.8v-4.1h4.1c0,1.3,0,2.5,0,3.8c0,0.1-0.2,0.3-0.3,0.3
								C113.1,49.8,111.9,49.8,110.6,49.8"/>
							<defs>
								<filter id="Adobe_OpacityMaskFilter_40_" filterUnits="userSpaceOnUse" x="52.8" y="95.2" width="4.1" height="4.1">
									<feColorMatrix  type="matrix" values="1 0 0 0 0  0 1 0 0 0  0 0 1 0 0  0 0 0 1 0"/>
								</filter>
							</defs>
							<mask maskUnits="userSpaceOnUse" x="52.8" y="95.2" width="4.1" height="4.1" id="mask-18_48_">
								<g class="st97">
									<polygon id="path-17_48_" class="st3" points="-5,-8 114.7,-8 114.7,111.7 -5,111.7 									"/>
								</g>
							</mask>
							<path id="Fill-24_1_" class="st98" d="M52.8,99.2v-4h4.1v4.1c-1.1,0-2.2,0-3.2,0C53.3,99.3,53,99.3,52.8,99.2
								C52.8,99.2,52.8,99.2,52.8,99.2"/>
							<defs>
								<filter id="Adobe_OpacityMaskFilter_41_" filterUnits="userSpaceOnUse" x="32.2" y="45.7" width="16.4" height="12.3">
									<feColorMatrix  type="matrix" values="1 0 0 0 0  0 1 0 0 0  0 0 1 0 0  0 0 0 1 0"/>
								</filter>
							</defs>
							<mask maskUnits="userSpaceOnUse" x="32.2" y="45.7" width="16.4" height="12.3" id="mask-18_47_">
								<g class="st99">
									<polygon id="path-17_47_" class="st3" points="-5,-8 114.7,-8 114.7,111.7 -5,111.7 									"/>
								</g>
							</mask>
							<path id="Fill-25_1_" class="st100" d="M32.2,45.7c0.1,0,0.3,0,0.4,0c3.8,0,7.7,0,11.5,0c0.1,0,0.3,0,0.4,0v8.2h4.1V58H32.2
								v-4.1h8.2v-4.1h-8.1L32.2,45.7L32.2,45.7"/>
							<defs>
								<filter id="Adobe_OpacityMaskFilter_42_" filterUnits="userSpaceOnUse" x="23.9" y="53.9" width="4.1" height="4.2">
									<feColorMatrix  type="matrix" values="1 0 0 0 0  0 1 0 0 0  0 0 1 0 0  0 0 0 1 0"/>
								</filter>
							</defs>
							<mask maskUnits="userSpaceOnUse" x="23.9" y="53.9" width="4.1" height="4.2" id="mask-18_46_">
								<g class="st101">
									<polygon id="path-17_46_" class="st3" points="-5,-8 114.7,-8 114.7,111.7 -5,111.7 									"/>
								</g>
							</mask>
							<path id="Fill-26" class="st102" d="M23.9,58c0-1.4,0-2.8,0-4.2H28V58H23.9z"/>
							<defs>
								<filter id="Adobe_OpacityMaskFilter_43_" filterUnits="userSpaceOnUse" x="32.2" y="70.5" width="4" height="4">
									<feColorMatrix  type="matrix" values="1 0 0 0 0  0 1 0 0 0  0 0 1 0 0  0 0 0 1 0"/>
								</filter>
							</defs>
							<mask maskUnits="userSpaceOnUse" x="32.2" y="70.5" width="4" height="4" id="mask-18_45_">
								<g class="st103">
									<polygon id="path-17_45_" class="st3" points="-5,-8 114.7,-8 114.7,111.7 -5,111.7 									"/>
								</g>
							</mask>
							<path id="Fill-27_2_" class="st104" d="M36.2,74.5h-4v-4h4C36.2,71.8,36.2,73.2,36.2,74.5L36.2,74.5"/>
							<defs>
								<filter id="Adobe_OpacityMaskFilter_44_" filterUnits="userSpaceOnUse" x="61" y="16.8" width="4.1" height="8.2">
									<feColorMatrix  type="matrix" values="1 0 0 0 0  0 1 0 0 0  0 0 1 0 0  0 0 0 1 0"/>
								</filter>
							</defs>
							<mask maskUnits="userSpaceOnUse" x="61" y="16.8" width="4.1" height="8.2" id="mask-18_44_">
								<g class="st105">
									<polygon id="path-17_44_" class="st3" points="-5,-8 114.7,-8 114.7,111.7 -5,111.7 									"/>
								</g>
							</mask>
							<path id="Fill-28" class="st106" d="M65.1,25H61v-8.2c1.4,0,2.7,0,4.1,0l0,0c0,0.7,0,1.4,0,2.1C65.2,20.9,65.1,22.9,65.1,25
								L65.1,25z"/>
							<defs>
								<filter id="Adobe_OpacityMaskFilter_45_" filterUnits="userSpaceOnUse" x="52.8" y="16.7" width="4.1" height="8.2">
									<feColorMatrix  type="matrix" values="1 0 0 0 0  0 1 0 0 0  0 0 1 0 0  0 0 0 1 0"/>
								</filter>
							</defs>
							<mask maskUnits="userSpaceOnUse" x="52.8" y="16.7" width="4.1" height="8.2" id="mask-18_43_">
								<g class="st107">
									<polygon id="path-17_43_" class="st3" points="-5,-8 114.7,-8 114.7,111.7 -5,111.7 									"/>
								</g>
							</mask>
							<path id="Fill-29_1_" class="st108" d="M52.8,16.7c1.3,0,2.5,0,3.8,0c0.1,0,0.3,0.2,0.3,0.3c0,2.6,0,5.2,0,7.8
								c0,0,0,0-0.1,0.1h-4V16.7z"/>
							<defs>
								<filter id="Adobe_OpacityMaskFilter_46_" filterUnits="userSpaceOnUse" x="65.1" y="25" width="4.1" height="4.1">
									<feColorMatrix  type="matrix" values="1 0 0 0 0  0 1 0 0 0  0 0 1 0 0  0 0 0 1 0"/>
								</filter>
							</defs>
							<mask maskUnits="userSpaceOnUse" x="65.1" y="25" width="4.1" height="4.1" id="mask-18_42_">
								<g class="st109">
									<polygon id="path-17_42_" class="st3" points="-5,-8 114.7,-8 114.7,111.7 -5,111.7 									"/>
								</g>
							</mask>
							<path id="Fill-30_1_" class="st110" d="M65.1,25h4.1v4.1h-4.1L65.1,25L65.1,25"/>
							<defs>
								<filter id="Adobe_OpacityMaskFilter_47_" filterUnits="userSpaceOnUse" x="44.5" y="16.8" width="4.1" height="4.1">
									<feColorMatrix  type="matrix" values="1 0 0 0 0  0 1 0 0 0  0 0 1 0 0  0 0 0 1 0"/>
								</filter>
							</defs>
							<mask maskUnits="userSpaceOnUse" x="44.5" y="16.8" width="4.1" height="4.1" id="mask-18_41_">
								<g class="st111">
									<polygon id="path-17_41_" class="st3" points="-5,-8 114.7,-8 114.7,111.7 -5,111.7 									"/>
								</g>
							</mask>
							<polygon id="Fill-31" class="st112" points="44.5,20.9 48.6,20.9 48.6,16.8 44.5,16.8 							"/>
							<defs>
								<filter id="Adobe_OpacityMaskFilter_48_" filterUnits="userSpaceOnUse" x="85.8" y="82.8" width="4.1" height="4.1">
									<feColorMatrix  type="matrix" values="1 0 0 0 0  0 1 0 0 0  0 0 1 0 0  0 0 0 1 0"/>
								</filter>
							</defs>
							<mask maskUnits="userSpaceOnUse" x="85.8" y="82.8" width="4.1" height="4.1" id="mask-18_40_">
								<g class="st113">
									<polygon id="path-17_40_" class="st3" points="-5,-8 114.7,-8 114.7,111.7 -5,111.7 									"/>
								</g>
							</mask>
							<polygon id="Fill-32_1_" class="st114" points="85.8,86.9 89.9,86.9 89.9,82.8 85.8,82.8 							"/>
							<defs>
								<filter id="Adobe_OpacityMaskFilter_49_" filterUnits="userSpaceOnUse" x="94" y="53.9" width="4.2" height="4.2">
									<feColorMatrix  type="matrix" values="1 0 0 0 0  0 1 0 0 0  0 0 1 0 0  0 0 0 1 0"/>
								</filter>
							</defs>
							<mask maskUnits="userSpaceOnUse" x="94" y="53.9" width="4.2" height="4.2" id="mask-18_39_">
								<g class="st115">
									<polygon id="path-17_39_" class="st3" points="-5,-8 114.7,-8 114.7,111.7 -5,111.7 									"/>
								</g>
							</mask>
							<path id="Fill-33" class="st116" d="M94,53.9c1.4,0,2.8,0,4.2,0c0,1.4,0,2.8,0,4.2H94V53.9z"/>
							<defs>
								<filter id="Adobe_OpacityMaskFilter_50_" filterUnits="userSpaceOnUse" x="3.3" y="91.1" width="12.3" height="12.3">
									<feColorMatrix  type="matrix" values="1 0 0 0 0  0 1 0 0 0  0 0 1 0 0  0 0 0 1 0"/>
								</filter>
							</defs>
							<mask maskUnits="userSpaceOnUse" x="3.3" y="91.1" width="12.3" height="12.3" id="mask-18_38_">
								<g class="st117">
									<polygon id="path-17_38_" class="st3" points="-5,-8 114.7,-8 114.7,111.7 -5,111.7 									"/>
								</g>
							</mask>
							<polygon id="Fill-34" class="st118" points="3.3,103.4 15.6,103.4 15.6,91.1 3.3,91.1 							"/>
							<defs>
								<filter id="Adobe_OpacityMaskFilter_51_" filterUnits="userSpaceOnUse" x="94.1" y="0.3" width="12.3" height="12.3">
									<feColorMatrix  type="matrix" values="1 0 0 0 0  0 1 0 0 0  0 0 1 0 0  0 0 0 1 0"/>
								</filter>
							</defs>
							<mask maskUnits="userSpaceOnUse" x="94.1" y="0.3" width="12.3" height="12.3" id="mask-18_37_">
								<g class="st119">
									<polygon id="path-17_37_" class="st3" points="-5,-8 114.7,-8 114.7,111.7 -5,111.7 									"/>
								</g>
							</mask>
							<polygon id="Fill-35" class="st120" points="94.1,12.6 106.4,12.6 106.4,0.3 94.1,0.3 							"/>
							<defs>
								<filter id="Adobe_OpacityMaskFilter_52_" filterUnits="userSpaceOnUse" x="3.3" y="0.3" width="12.3" height="12.3">
									<feColorMatrix  type="matrix" values="1 0 0 0 0  0 1 0 0 0  0 0 1 0 0  0 0 0 1 0"/>
								</filter>
							</defs>
							<mask maskUnits="userSpaceOnUse" x="3.3" y="0.3" width="12.3" height="12.3" id="mask-18_36_">
								<g class="st121">
									<polygon id="path-17_36_" class="st3" points="-5,-8 114.7,-8 114.7,111.7 -5,111.7 									"/>
								</g>
							</mask>
							<polygon id="Fill-36" class="st122" points="3.3,12.6 15.6,12.6 15.6,0.3 3.3,0.3 							"/>
						</g>
						<path id="Fill-169" class="st3" d="M100.7,24.7l0.8-1.2c0.6,0.6,1.5,1.2,2.7,1.2c1.2,0,1.7-0.6,1.7-1.2c0-1.8-5-0.7-5-3.8
							c0-1.4,1.2-2.5,3.1-2.5c1.3,0,2.4,0.4,3.2,1.2l-0.8,1.1c-0.7-0.7-1.6-1-2.5-1c-0.9,0-1.4,0.4-1.4,1.1c0,1.6,5,0.6,5,3.8
							c0,1.4-1,2.7-3.3,2.7C102.6,26.1,101.4,25.5,100.7,24.7"/>
						<path id="Fill-170" class="st3" d="M113,25.9v-3.9c0-1-0.5-1.3-1.3-1.3c-0.7,0-1.3,0.4-1.6,0.8v4.3h-1.3v-6.2h1.3v0.8
							c0.4-0.5,1.2-1,2.2-1c1.3,0,2,0.7,2,2v4.4H113z"/>
						<path id="Fill-171" class="st3" d="M119.9,25.9v-0.7c-0.5,0.5-1.2,0.8-2,0.8c-1,0-2.1-0.7-2.1-2.1c0-1.4,1.1-2,2.1-2
							c0.8,0,1.6,0.3,2,0.8v-0.9c0-0.7-0.6-1.2-1.4-1.2c-0.7,0-1.3,0.3-1.8,0.8l-0.6-0.9c0.7-0.7,1.6-1,2.6-1c1.4,0,2.6,0.6,2.6,2.2
							v4.1H119.9z M119.9,24.5v-0.9c-0.3-0.4-0.9-0.6-1.5-0.6c-0.8,0-1.3,0.4-1.3,1.1c0,0.7,0.6,1.1,1.3,1.1
							C119,25.2,119.6,25,119.9,24.5L119.9,24.5z"/>
						<path id="Fill-172" class="st3" d="M124.3,25.1v3.2H123v-8.6h1.3v0.8c0.5-0.6,1.2-1,2-1c1.6,0,2.7,1.2,2.7,3.2
							s-1.1,3.3-2.7,3.3C125.5,26.1,124.8,25.7,124.3,25.1 M127.7,22.8c0-1.2-0.7-2.1-1.8-2.1c-0.6,0-1.3,0.4-1.6,0.8v2.4
							c0.3,0.5,1,0.8,1.6,0.8C127,24.9,127.7,24,127.7,22.8"/>
						<path id="Fill-173" class="st3" d="M129.9,24.7l0.8-1.2c0.6,0.6,1.5,1.2,2.7,1.2c1.2,0,1.7-0.6,1.7-1.2c0-1.8-5-0.7-5-3.8
							c0-1.4,1.2-2.5,3.1-2.5c1.3,0,2.4,0.4,3.2,1.2l-0.8,1.1c-0.7-0.7-1.6-1-2.5-1c-0.9,0-1.4,0.4-1.4,1.1c0,1.6,5,0.6,5,3.8
							c0,1.4-1,2.7-3.3,2.7C131.8,26.1,130.6,25.5,129.9,24.7"/>
						<path id="Fill-174" class="st3" d="M137.6,22.8c0-1.9,1.3-3.2,3.2-3.2c1.2,0,1.9,0.5,2.4,1.1l-0.9,0.8
							c-0.3-0.5-0.8-0.7-1.4-0.7c-1.1,0-1.9,0.8-1.9,2.1c0,1.2,0.8,2.1,1.9,2.1c0.6,0,1.1-0.3,1.4-0.7l0.9,0.8
							c-0.4,0.6-1.2,1.1-2.4,1.1C139,26.1,137.6,24.7,137.6,22.8"/>
						<path id="Fill-175" class="st3" d="M148.2,25.9v-0.7c-0.5,0.5-1.2,0.8-2,0.8c-1,0-2.1-0.7-2.1-2.1c0-1.4,1.1-2,2.1-2
							c0.8,0,1.6,0.3,2,0.8v-0.9c0-0.7-0.6-1.2-1.4-1.2c-0.7,0-1.3,0.3-1.8,0.8l-0.6-0.9c0.7-0.7,1.6-1,2.6-1c1.4,0,2.6,0.6,2.6,2.2
							v4.1H148.2z M148.2,24.5v-0.9c-0.3-0.4-0.9-0.6-1.5-0.6c-0.8,0-1.3,0.4-1.3,1.1c0,0.7,0.6,1.1,1.3,1.1
							C147.3,25.2,147.9,25,148.2,24.5L148.2,24.5z"/>
						<path id="Fill-176" class="st3" d="M155.5,25.9v-3.9c0-1-0.5-1.3-1.3-1.3c-0.7,0-1.3,0.4-1.6,0.8v4.3h-1.3v-6.2h1.3v0.8
							c0.4-0.5,1.2-1,2.2-1c1.3,0,2,0.7,2,2v4.4H155.5z"/>
						<path id="Fill-177" class="st3" d="M87.5,14c-4.4,0-8,3.6-8,8s3.6,8,8,8c4.4,0,8-3.6,8-8S91.9,14,87.5,14 M87.5,29.4
							c-4.1,0-7.4-3.3-7.4-7.4s3.3-7.4,7.4-7.4c4.1,0,7.4,3.3,7.4,7.4S91.6,29.4,87.5,29.4"/>
						<path id="Fill-178" class="st3" d="M86.4,18.5h-1.9c-0.3,0-0.5,0.2-0.5,0.5v1.8c0,0.3,0.2,0.5,0.5,0.5h1.9
							c0.3,0,0.5-0.2,0.5-0.5v-1.8C87,18.8,86.7,18.5,86.4,18.5"/>
						<path id="Fill-179" class="st3" d="M90.4,18.5h-1.9c-0.3,0-0.5,0.2-0.5,0.5v1.8c0,0.3,0.2,0.5,0.5,0.5h1.9
							c0.3,0,0.5-0.2,0.5-0.5v-1.8C90.9,18.8,90.7,18.5,90.4,18.5"/>
						<path id="Fill-180" class="st3" d="M86.4,22.5h-1.9c-0.3,0-0.5,0.2-0.5,0.5v1.8c0,0.3,0.2,0.5,0.5,0.5h1.9
							c0.3,0,0.5-0.2,0.5-0.5V23C87,22.7,86.7,22.5,86.4,22.5"/>
					</g>
				</g>
				<g id="Group-3" transform="translate(406.671096, 454.346392)">
					<g id="Clip-2_1_">
					</g>
					<defs>
						<filter id="Adobe_OpacityMaskFilter_53_" filterUnits="userSpaceOnUse" x="-5" y="-8" width="105.5" height="6.7">
							<feColorMatrix  type="matrix" values="1 0 0 0 0  0 1 0 0 0  0 0 1 0 0  0 0 0 1 0"/>
						</filter>
					</defs>
					<mask maskUnits="userSpaceOnUse" x="-5" y="-8" width="105.5" height="6.7" id="mask-20_2_">
						<g class="st123">
							<polygon id="path-19_2_" class="st3" points="-5,-8 100.5,-8 100.5,-1.3 -5,-1.3 							"/>
						</g>
					</mask>
					<path id="Fill-1_2_" class="st124" d="M100.5-4.7c0,1.8-23.6,3.3-52.7,3.3C18.6-1.3-5-2.8-5-4.7S18.6-8,47.7-8
						C76.9-8,100.5-6.5,100.5-4.7"/>
				</g>
				<g id="Group-75" transform="translate(360.112957, 140.676289)">
					<path id="Fill-1_3_" class="st125" d="M68.3,285.5c0.7,3.1,1,4.3,1.4,6.1c0.4,1.6,0.2,3-1.7,4.2l-0.8,6.7l9.3,0.1l3.4-5.8
						v-11.3H68.3z"/>
					<path id="Fill-3_2_" class="st126" d="M78.9,169.1H53.1c0,16.4,1.8,36.1,4.1,54.5c1.8,12.9,6.2,43,8.1,55.9
						c0.3,2.3,1.4,4.4,3,6H80c1.1-2.1,1.6-4.4,1.6-6.7L78.9,169.1z"/>
					<polygon id="Fill-5_2_" class="st127" points="80.9,252.1 80,213.8 65.4,191.4 					"/>
					<path id="Fill-7_3_" class="st126" d="M54.7,110l-1.7,59.1l24.9,4.8c0,0,18.4-29.6,18.4-58.4l-0.1-5.5H54.7z"/>
					<g id="Group-11" transform="translate(109.269103, 295.610309)">
						<g id="Clip-10">
						</g>
						<defs>
							<filter id="Adobe_OpacityMaskFilter_54_" filterUnits="userSpaceOnUse" x="-4.9" y="-7.2" width="35.9" height="20.1">
								<feColorMatrix  type="matrix" values="1 0 0 0 0  0 1 0 0 0  0 0 1 0 0  0 0 0 1 0"/>
							</filter>
						</defs>
						<mask maskUnits="userSpaceOnUse" x="-4.9" y="-7.2" width="35.9" height="20.1" id="mask-22_2_">
							<g class="st128">
								<polygon id="path-21_2_" class="st3" points="-4.9,-7.2 31,-7.2 31,12.9 -4.9,12.9 								"/>
							</g>
						</mask>
						<path id="Fill-9_2_" class="st129" d="M-1.4,6.4c0.3-0.1,0.7-0.2,1-0.3l7.3-1.6c1-0.2,2.1-0.5,3.1-0.9
							c1.1-1.1,2.1-2.4,2.9-3.8c0.5-0.8,0.7-1.7,0.8-2.6c0,0,0,0,0,0l0,0L16.9-2c2.6,0.5,5.2-0.5,6.7-2.7l1.7-2.5
							C28.5-0.7,31,3.2,31,3.2L21.6,8l-9.8,4.9H0.6h-5.4C-5.3,10.2-3.9,7.4-1.4,6.4"/>
					</g>
					<path id="Fill-12_2_" class="st125" d="M122.1,289.5l10.4-5.3c0.7,1.6,1.3,2.9,2,4.2l-1.7,2.5c-1.5,2.2-4.2,3.3-6.7,2.7
						l-3.2-0.7l0,0C123,291.7,122.7,290.5,122.1,289.5"/>
					<path id="Fill-14_2_" class="st126" d="M90.2,176.7c0,0,7.4-37.1,7.4-52.4c0-7.7-1.3-14.2-1.3-14.2H55.4l4.1,71.1l55.1,99.8
						c1.1,2,3,3.6,5.1,4.4l11.2-5.3l0.2-0.7c0.5-2,0.3-4.1-0.4-6L90.2,176.7z"/>
					<polygon id="Fill-16_2_" class="st126" points="119.7,285.3 122.1,289.5 132.6,284.1 130.9,280 					"/>
					<path id="Fill-18_3_" class="st126" d="M53.1,169.1c0,7.1,5.8,12.9,12.9,12.9c7.1,0,12.9-5.8,12.9-12.9
						c0-7.1-5.8-12.9-12.9-12.9C58.9,156.2,53.1,162,53.1,169.1"/>
					<path id="Fill-20_2_" class="st130" d="M47.9,308.5l0.4-2.2c0.5-2.4,2.4-4.3,4.8-4.8l5.9-1.6c5.5-1.5,9.1-4.2,9.1-4.2
						c0,0,0.5,0.4,1.2,1c2.6,2.1,6.1,2.4,9,0.8l1.7-0.9l0.3,11.9H47.9z"/>
					<path id="Fill-22_2_" class="st131" d="M97.6,115L97.6,115c3.1-3.1,4.9-7.3,4.9-11.8V73.6c0-14.3-4.2-28.4-12.1-40.3l-17.6,6.6
						c-5.3,6.7-9.6,14.7-11.2,23.1l-10.9,58.2h42.2L97.6,115z"/>
					<polygon id="Fill-24_2_" class="st127" points="59.7,72.8 56.5,90.4 83.8,68.5 					"/>
					<polygon id="Fill-26_1_" class="st132" points="72.8,39.9 74.5,46.5 90.4,33.3 					"/>
					<path id="Fill-28_1_" class="st127" d="M74.5,46.5l-1.7-6.6c-0.7,0.8-1.3,1.7-1.9,2.6L74.5,46.5z"/>
					<path id="Fill-30_2_" class="st133" d="M-2.8,26.9c0,0-0.8,0.4-1.3,1.2l2.4-0.3L-2.8,26.9z"/>
					<path id="Fill-32_2_" class="st133" d="M-3.5,29.9c0,0-0.8,0.4-1.3,1.2l2.4-0.3L-3.5,29.9z"/>
					<polygon id="Fill-34_1_" class="st127" points="2.2,26.4 -0.3,26.7 -2,11.6 0.5,11.3 					"/>
					<path id="Fill-36_1_" class="st125" d="M11,38.6l-0.9-7.5c-0.1-0.6-0.3-1.2-0.8-1.7l-2-2.4c-0.7-0.8-1.8-1.2-2.9-1.1l-2.6,0.3
						l-1.6-1.3l-1-0.9c-0.8-0.7-2.1-0.3-2.4,0.8c-0.2,0.7,0.2,1.7,0.7,2.2l0.8,0.7c-0.7-0.6-1.9-0.5-2.4,0.3
						c-0.4,0.7-0.3,1.6,0.3,2.1l0.9,0.7c-0.6-0.5-1.5-0.4-1.9,0.2c-0.4,0.6-0.3,1.4,0.2,1.8l0.6,0.5L-4,33.8
						c-0.3,1.3,0.1,2.7,1.1,3.7l1.8,1.7l5.7,5.6L11,38.6z"/>
					<path id="Fill-38" class="st133" d="M-3.9,33.4L-4,33.8c-0.1,0.3-0.1,0.6-0.1,0.8l2.3,0.6L-3.9,33.4z"/>
					<polygon id="Fill-40" class="st134" points="11,38.6 4.6,44.8 27.2,66.3 35.2,56.9 					"/>
					<path id="Fill-42" class="st131" d="M48.9,76.8l34.8-8.3l2.1-25.1l-44.3,16L18.5,42c-1.1-0.8-2.3-1.3-3.7-1.5l-1.7-0.3
						l-6.5,6.6c0.2,2,1,3.8,2.4,5.2c5.5,5.4,20,19.4,25.4,22.8C38.9,77.6,42.8,78,48,77C48.3,77,48.6,76.9,48.9,76.8"/>
					<polygon id="Fill-44" class="st127" points="3.7,26 1.8,26.2 5.8,29.6 					"/>
					<path id="Fill-46" class="st125" d="M101.1,3.6C99.2-3.6,92.6-8.2,85.4-8c-2.6,0.1-4.9,0.5-6.6,1c-2,0.5-3.6,2-4.3,3.9l-4,11.3
						l-3.6,5.2c-0.4,0.5-0.2,1.3,0.4,1.6l1.6,0.9c0,0,0.2,12.3,3,12.7c0.7,0.1,1.7,0,2.7-0.1c1.8-0.2,3.1,1.6,2.3,3.1l-4,8.1
						L91,34.1l1.7-6.8c1.4-3.1,6.8-11.7,6.8-11.7C101.5,12,102.2,7.6,101.1,3.6"/>
					<path id="Fill-48_1_" class="st135" d="M102.2,2.4c-1.7-3.5-5-7.7-11.5-9.7L91.1,0l-8.4-1.2l-1.3,3.5c-0.3,1,0.1,2,1,2.5
						c1.3,0.7,2.4,1.5,2.1,3.1c-0.4,2.7,1.1,6.2,1.1,6.2L87,9.4c0.9-2.4,5.1-1.7,4.6,1.6c-0.3,1.7-0.7,4.5-0.9,5.9
						c-0.9,5.7,1.1,8.4,1.9,10.5l9-15.2C103.5,9.2,103.7,5.6,102.2,2.4"/>
					<path id="Fill-50" class="st127" d="M76.5,32.3c3.8-2.8,5.3-5.3,7.3-8.8c-1.3,1.5-4.6,4.1-9.3,5.1c1.8-0.2,3.1,1.6,2.3,3.1
						L76.5,32.3z"/>
					<g id="Group-54" transform="translate(78.863787, 0.000000)">
						<g id="Clip-53">
						</g>
						<defs>
							<filter id="Adobe_OpacityMaskFilter_55_" filterUnits="userSpaceOnUse" x="-4.4" y="-8" width="28.5" height="13.2">
								<feColorMatrix  type="matrix" values="1 0 0 0 0  0 1 0 0 0  0 0 1 0 0  0 0 0 1 0"/>
							</filter>
						</defs>
						<mask maskUnits="userSpaceOnUse" x="-4.4" y="-8" width="28.5" height="13.2" id="mask-24_2_">
							<g class="st136">
								<polygon id="path-23_2_" class="st3" points="-4.4,-8 24.2,-8 24.2,5.2 -4.4,5.2 								"/>
							</g>
						</mask>
						<path id="Fill-52" class="st137" d="M24.2,5.2c-0.2-1-0.4-1.9-0.9-2.8c-1.7-3.5-5-7.7-11.5-9.7C10.1-7.8,8.4-8,6.6-8
							C3.9-7.9,1.5-7.5-0.3-7.1c-2,0.4-3.6,2-4.1,4l26.9,7.8L24.2,5.2z"/>
					</g>
					<polygon id="Fill-55" class="st132" points="97.6,115 51.8,115 50.7,121.2 97.6,121.2 					"/>
					<path id="Fill-57" class="st127" d="M80.8,121.2c-10.3,0-26.6,6.8-26.6,6.8l0.2-6.8H80.8z"/>
					<polygon id="Fill-59" class="st132" points="11,38.6 4.6,44.8 6.6,46.8 13.1,40.2 					"/>
					<path id="Stroke-61" class="st138" d="M60.4,94.4c1.9,6,7.9,10.5,14.2,10.5"/>
					<path id="Stroke-63" class="st138" d="M86.9,66.7c3.5,22.7,0,34.9-3.3,51.1"/>
					<path id="Stroke-65" class="st138" d="M74.5,46.5L90.4,38"/>
					<polygon id="Fill-67_1_" class="st126" points="69.2,289.5 80,289.5 80,285.5 68.3,285.5 					"/>
					<path id="Fill-69_1_" class="st127" d="M74,8.4c-0.1,0.6,0.2,1.2,0.7,1.3c0.5,0.1,0.9-0.4,1-1c0.1-0.6-0.2-1.2-0.7-1.3
						C74.6,7.3,74.1,7.8,74,8.4"/>
					<path id="Stroke-71" class="st139" d="M73.4,5.6c2.8-0.4,4.7,1.7,4.7,1.7"/>
					<path id="Fill-73_1_" class="st3" d="M69.1,21.1l4.3-1.3c0,0-2.1-0.2-4.4-0.6C69,19.8,69.1,20.5,69.1,21.1"/>
				</g>
			</g>
		</g>
	</g>
</g>
</svg>
