<?xml version="1.0" encoding="utf-8"?>
<!-- Generator: Adobe Illustrator 16.0.0, SVG Export Plug-In . SVG Version: 6.00 Build 0)  -->
<!DOCTYPE svg PUBLIC "-//W3C//DTD SVG 1.1//EN" "http://www.w3.org/Graphics/SVG/1.1/DTD/svg11.dtd">
<svg version="1.1" id="Layer_1" xmlns="http://www.w3.org/2000/svg" xmlns:xlink="http://www.w3.org/1999/xlink" x="0px" y="0px"
	 width="44px" height="44px" viewBox="0 0 44 44" enable-background="new 0 0 44 44" xml:space="preserve">
<title>icn-social-twitter</title>
<desc>Created with Sketch.</desc>
<g id="SnapScan-Assets" transform="translate(-143.000000, -165.000000)">
	<g id="icn-social-twitter" transform="translate(143.000000, 165.000000)">
		<circle id="Oval-Copy" fill="#4A90E2" cx="22" cy="22" r="22"/>
		<path id="_xF099_" fill="#FFFFFF" d="M30.723,17.5c0.029,0.115,0.043,0.303,0.043,0.563c0,2.077-0.502,4.082-1.504,6.015
			c-1.031,2.048-2.479,3.678-4.34,4.89C22.889,30.322,20.553,31,17.918,31c-2.521,0-4.827-0.678-6.918-2.033
			c0.315,0.028,0.673,0.043,1.074,0.043c2.091,0,3.967-0.649,5.629-1.947c-1.002,0-1.883-0.296-2.643-0.887
			c-0.759-0.592-1.282-1.334-1.568-2.229c0.287,0.029,0.559,0.043,0.816,0.043c0.401,0,0.802-0.043,1.203-0.13
			c-1.031-0.23-1.891-0.765-2.578-1.601c-0.688-0.837-1.031-1.789-1.031-2.856v-0.086c0.63,0.375,1.303,0.577,2.02,0.605
			c-0.602-0.433-1.088-0.98-1.461-1.644s-0.559-1.392-0.559-2.185s0.215-1.55,0.645-2.271c1.117,1.413,2.485,2.538,4.104,3.375
			c1.619,0.836,3.344,1.298,5.178,1.384c-0.057-0.346-0.086-0.692-0.086-1.038c0-0.808,0.201-1.565,0.602-2.272
			c0.4-0.707,0.945-1.262,1.633-1.666S25.408,13,26.211,13c0.658,0,1.268,0.13,1.826,0.39c0.559,0.259,1.053,0.605,1.482,1.038
			c1.031-0.202,1.99-0.563,2.879-1.082c-0.344,1.067-1.002,1.904-1.977,2.51c0.859-0.116,1.719-0.361,2.578-0.736
			C32.369,16.043,31.611,16.836,30.723,17.5z"/>
	</g>
</g>
</svg>
