<svg xmlns="http://www.w3.org/2000/svg" width="22" height="22" viewBox="0 0 22 22">
  <path fill="#FFF" d="M1215.57157,132 L1202,132 C1201.44772,132 1201,131.552285 1201,131 C1201,130.447715 1201.44772,130 1202,130 L1215.57157,130 L1209.27868,123.707107 C1208.88816,123.316582 1208.88816,122.683418 1209.27868,122.292893 C1209.6692,121.902369 1210.30237,121.902369 1210.69289,122.292893 L1218.59971,130.199706 C1218.67568,130.256729 1218.74327,130.324319 1218.80029,130.400294 L1219.4,131 L1218.80029,131.599706 C1218.74327,131.675681 1218.67568,131.743271 1218.59971,131.800294 L1210.69289,139.707107 C1210.30237,140.097631 1209.6692,140.097631 1209.27868,139.707107 C1208.88816,139.316582 1208.88816,138.683418 1209.27868,138.292893 L1215.57157,132 Z" transform="translate(-1199 -120)"/>
</svg>
