<?xml version="1.0" encoding="UTF-8"?>
<svg width="22px" height="22px" viewBox="0 0 22 22" version="1.1" xmlns="http://www.w3.org/2000/svg" xmlns:xlink="http://www.w3.org/1999/xlink">
    <!-- Generator: Sketch 53 (72520) - https://sketchapp.com -->
    <title>icn-toggle-mobile-active</title>
    <desc>Created with Sketch.</desc>
    <g id="Page-1" stroke="none" stroke-width="1" fill="none" fill-rule="evenodd">
        <g id="SnapScan-Assets" transform="translate(-1242.000000, -209.000000)">
            <g id="icn-toggle-mobile-active" transform="translate(1247.000000, 211.000000)">
                <path d="M10,18 L2,18 C0.896,18 0,17.104 0,16 L0,2 C0,0.896 0.896,0 2,0 L10,0 C11.104,0 12,0.896 12,2 L12,16 C12,17.104 11.104,18 10,18 Z" id="Stroke-1" stroke="#4A90E2" stroke-width="2" stroke-linecap="round"></path>
                <path d="M7,14 C7,13.447 6.553,13 6,13 C5.447,13 5,13.447 5,14 C5,14.553 5.447,15 6,15 C6.553,15 7,14.553 7,14" id="Fill-3" fill="#4A90E2"></path>
                <path d="M4,4 L8,4" id="Stroke-5" stroke="#4A90E2" stroke-width="2" stroke-linecap="round"></path>
            </g>
        </g>
    </g>
</svg>