<?xml version="1.0" encoding="UTF-8"?>
<svg width="44px" height="44px" viewBox="0 0 44 44" version="1.1" xmlns="http://www.w3.org/2000/svg" xmlns:xlink="http://www.w3.org/1999/xlink">
    <!-- Generator: Sketch 53 (72520) - https://sketchapp.com -->
    <title>icn-social-twitter</title>
    <desc>Created with Sketch.</desc>
    <g id="Page-1" stroke="none" stroke-width="1" fill="none" fill-rule="evenodd">
        <g id="SnapScan-Assets" transform="translate(-143.000000, -165.000000)">
            <g id="icn-social-twitter" transform="translate(143.000000, 165.000000)">
                <circle id="Oval-Copy" fill="#FFFFFF" fill-rule="nonzero" cx="22" cy="22" r="22"></circle>
                <path d="M30.7226562,17.5 C30.7513023,17.6153848 30.765625,17.8028846 30.765625,18.0625 C30.765625,20.1394231 30.2643227,22.1442305 29.2617188,24.0769231 C28.2304688,26.1249998 26.7838539,27.7548077 24.921875,28.9663462 C22.8880211,30.3221152 20.5533852,31 17.9179688,31 C15.3971352,31 13.0911461,30.3221152 11,28.9663462 C11.3151039,28.9951925 11.6731773,29.0096154 12.0742188,29.0096154 C14.1653648,29.0096154 16.0416664,28.3605769 17.703125,27.0625 C16.7005211,27.0625 15.8196617,26.7668271 15.0605469,26.1754808 C14.3014321,25.5841344 13.7786461,24.8413464 13.4921875,23.9471154 C13.7786461,23.9759618 14.0507812,23.9903846 14.3085938,23.9903846 C14.7096352,23.9903846 15.1106773,23.9471154 15.5117188,23.8605769 C14.4804688,23.6298079 13.6210938,23.0961536 12.9335938,22.2596154 C12.2460938,21.4230771 11.9023438,20.4711541 11.9023438,19.4038462 L11.9023438,19.3173077 C12.5325523,19.6923079 13.2057289,19.8942305 13.921875,19.9230769 C13.3203125,19.4903846 12.8333336,18.9423075 12.4609375,18.2788462 C12.0885414,17.6153848 11.9023438,16.887019 11.9023438,16.09375 C11.9023438,15.300481 12.1171875,14.5432695 12.546875,13.8221154 C13.6640625,15.2355771 15.0319008,16.3605771 16.6503906,17.1971154 C18.2688804,18.0336536 19.9947914,18.4951923 21.828125,18.5817308 C21.7708336,18.2355769 21.7421875,17.8894231 21.7421875,17.5432692 C21.7421875,16.7355767 21.9427086,15.9783652 22.34375,15.2716346 C22.7447914,14.5649041 23.2890625,14.0096152 23.9765625,13.6057692 C24.6640625,13.2019233 25.4088539,13 26.2109375,13 C26.8697914,13 27.4785156,13.1298077 28.0371094,13.3894231 C28.5957031,13.6490385 29.0898438,13.9951923 29.5195312,14.4278846 C30.5507812,14.2259613 31.5104164,13.8653846 32.3984375,13.3461538 C32.0546875,14.4134618 31.3958336,15.25 30.421875,15.8557692 C31.28125,15.7403844 32.140625,15.4951925 33,15.1201923 C32.3697914,16.043269 31.6106773,16.8365387 30.7226562,17.5 Z" id="" fill="#4A90E2"></path>
            </g>
        </g>
    </g>
</svg>