<?xml version="1.0" encoding="UTF-8"?>
<svg width="174px" height="194px" viewBox="0 0 174 194" version="1.1" xmlns="http://www.w3.org/2000/svg" xmlns:xlink="http://www.w3.org/1999/xlink">
    <!-- Generator: Sketch 53 (72520) - https://sketchapp.com -->
    <title>icn-download-logo</title>
    <desc>Created with Sketch.</desc>
    <defs>
        <path d="M10,0 L124,-1.77635684e-15 C129.522847,-2.79088747e-15 134,4.4771525 134,10 L134,144 C134,149.522847 129.522847,154 124,154 L10,154 C4.4771525,154 6.76353751e-16,149.522847 0,144 L0,10 C-6.76353751e-16,4.4771525 4.4771525,1.01453063e-15 10,0 Z" id="path-1"></path>
        <filter x="-28.0%" y="-14.6%" width="156.0%" height="148.7%" filterUnits="objectBoundingBox" id="filter-2">
            <feOffset dx="0" dy="15" in="SourceAlpha" result="shadowOffsetOuter1"></feOffset>
            <feGaussianBlur stdDeviation="10" in="shadowOffsetOuter1" result="shadowBlurOuter1"></feGaussianBlur>
            <feColorMatrix values="0 0 0 0 0.231372549   0 0 0 0 0.466666667   0 0 0 0 0.733333333  0 0 0 0.2 0" type="matrix" in="shadowBlurOuter1"></feColorMatrix>
        </filter>
        <filter x="-84.4%" y="-84.4%" width="268.8%" height="268.8%" filterUnits="objectBoundingBox" id="filter-3">
            <feOffset dx="0" dy="15" in="SourceAlpha" result="shadowOffsetOuter1"></feOffset>
            <feGaussianBlur stdDeviation="10" in="shadowOffsetOuter1" result="shadowBlurOuter1"></feGaussianBlur>
            <feColorMatrix values="0 0 0 0 0.97254902   0 0 0 0 0.980392157   0 0 0 0 0.992156863  0 0 0 1 0" type="matrix" in="shadowBlurOuter1" result="shadowMatrixOuter1"></feColorMatrix>
            <feMerge>
                <feMergeNode in="shadowMatrixOuter1"></feMergeNode>
                <feMergeNode in="SourceGraphic"></feMergeNode>
            </feMerge>
        </filter>
    </defs>
    <g id="Page-1" stroke="none" stroke-width="1" fill="none" fill-rule="evenodd">
        <g id="SnapScan-Assets" transform="translate(-233.000000, -5585.000000)">
            <g id="icn-download-logo" transform="translate(253.000000, 5590.000000)">
                <g id="Rectangle-Copy-5">
                    <use fill="black" fill-opacity="1" filter="url(#filter-2)" xlink:href="#path-1"></use>
                    <use fill="#FFFFFF" fill-rule="evenodd" xlink:href="#path-1"></use>
                </g>
                <text id="Logos" font-family="ProximaNova-Semibold, Proxima Nova" font-size="14" font-weight="500" line-spacing="20" fill="#4A90E2">
                    <tspan x="48.6" y="134">Logos</tspan>
                </text>
                <g id="Group-58">
                    <g filter="url(#filter-3)" transform="translate(27.000000, 20.000000)">
                        <g id="Group-15" fill="#BBD8F9">
                            <path d="M-1.8562929e-13,9.56215007 L9.40683112,9.56215007 L9.40683112,0.173117812 L-1.8562929e-13,0.173117812 L-1.8562929e-13,9.56215007 Z M2.66451613,6.9007756 L6.73965844,6.9007756 L6.73965844,2.83714306 L2.66451613,2.83714306 L2.66451613,6.9007756 Z" id="Fill-1"></path>
                            <polygon id="Fill-2" points="11.8880455 6.08698878 14.3320683 6.08698878 14.3320683 3.64562833 11.8880455 3.64562833"></polygon>
                            <polygon id="Fill-3" points="17.2648956 6.08698878 19.7062619 6.08698878 19.7062619 3.64562833 17.2648956 3.64562833"></polygon>
                            <polygon id="Fill-4" points="22.6390892 6.08698878 25.0804554 6.08698878 25.0804554 3.64562833 22.6390892 3.64562833"></polygon>
                            <polygon id="Fill-5" points="28.0132827 6.08698878 30.4573055 6.08698878 30.4573055 3.64562833 28.0132827 3.64562833"></polygon>
                            <polygon id="Fill-6" points="33.3874763 6.08698878 35.8314991 6.08698878 35.8314991 3.64562833 33.3874763 3.64562833"></polygon>
                            <polygon id="Fill-7" points="38.7643264 6.08698878 41.2083491 6.08698878 41.2083491 3.64562833 38.7643264 3.64562833"></polygon>
                            <polygon id="Fill-8" points="44.1385199 6.08698878 46.5825427 6.08698878 46.5825427 3.64562833 44.1385199 3.64562833"></polygon>
                            <polygon id="Fill-9" points="49.51537 6.08698878 51.9567362 6.08698878 51.9567362 3.64562833 49.51537 3.64562833"></polygon>
                            <polygon id="Fill-10" points="54.8895636 6.08698878 57.3309298 6.08698878 57.3309298 3.64562833 54.8895636 3.64562833"></polygon>
                            <polygon id="Fill-11" points="60.2637571 6.08698878 62.7077799 6.08698878 62.7077799 3.64562833 60.2637571 3.64562833"></polygon>
                            <polygon id="Fill-12" points="65.6406072 6.08698878 68.08463 6.08698878 68.08463 3.64562833 65.6406072 3.64562833"></polygon>
                            <path d="M70.4197343,9.56215007 L79.8265655,9.56215007 L79.8265655,0.173117812 L70.4197343,0.173117812 L70.4197343,9.56215007 Z M73.0842505,6.9007756 L77.1593928,6.9007756 L77.1593928,2.83714306 L73.0842505,2.83714306 L73.0842505,6.9007756 Z" id="Fill-13"></path>
                            <polygon id="Fill-14" points="73.8998102 14.4740295 76.343833 14.4740295 76.343833 12.0353198 73.8998102 12.0353198"></polygon>
                            <polygon id="Fill-15" points="73.8998102 19.83654 76.343833 19.83654 76.343833 17.3978303 73.8998102 17.3978303"></polygon>
                            <polygon id="Fill-16" points="73.8998102 25.2017013 76.343833 25.2017013 76.343833 22.7629916 73.8998102 22.7629916"></polygon>
                            <polygon id="Fill-17" points="73.8998102 30.5642118 76.343833 30.5642118 76.343833 28.1255021 73.8998102 28.1255021"></polygon>
                            <polygon id="Fill-18" points="73.8998102 35.9293731 76.343833 35.9293731 76.343833 33.4906634 73.8998102 33.4906634"></polygon>
                            <polygon id="Fill-19" points="73.8998102 41.2918836 76.343833 41.2918836 76.343833 38.8531739 73.8998102 38.8531739"></polygon>
                            <polygon id="Fill-20" points="73.8998102 46.6543941 76.343833 46.6543941 76.343833 44.2183352 73.8998102 44.2183352"></polygon>
                            <polygon id="Fill-21" points="73.8998102 52.0195554 76.343833 52.0195554 76.343833 49.578195 73.8998102 49.578195"></polygon>
                            <polygon id="Fill-22" points="73.8998102 57.3820659 76.343833 57.3820659 76.343833 54.9433562 73.8998102 54.9433562"></polygon>
                            <polygon id="Fill-23" points="73.8998102 62.7445764 76.343833 62.7445764 76.343833 60.3058668 73.8998102 60.3058668"></polygon>
                            <polygon id="Fill-24" points="73.8998102 68.1097377 76.343833 68.1097377 76.343833 65.6710281 73.8998102 65.6710281"></polygon>
                            <path d="M70.4197343,79.979892 L79.8265655,79.979892 L79.8265655,70.5908597 L70.4197343,70.5908597 L70.4197343,79.979892 Z M73.0842505,77.3185175 L77.1593928,77.3185175 L77.1593928,73.254885 L73.0842505,73.254885 L73.0842505,77.3185175 Z" id="Fill-25"></path>
                            <polygon id="Fill-26" points="65.4944972 76.5073815 67.9385199 76.5073815 67.9385199 74.0686718 65.4944972 74.0686718"></polygon>
                            <polygon id="Fill-27" points="60.1176471 76.5073815 62.5616698 76.5073815 62.5616698 74.0686718 60.1176471 74.0686718"></polygon>
                            <polygon id="Fill-28" points="54.7434535 76.5073815 57.1874763 76.5073815 57.1874763 74.0686718 54.7434535 74.0686718"></polygon>
                            <polygon id="Fill-29" points="49.36926 76.5073815 51.8106262 76.5073815 51.8106262 74.0686718 49.36926 74.0686718"></polygon>
                            <polygon id="Fill-30" points="43.9950664 76.5073815 46.4390892 76.5073815 46.4390892 74.0686718 43.9950664 74.0686718"></polygon>
                            <polygon id="Fill-31" points="38.6182163 76.5073815 41.0622391 76.5073815 41.0622391 74.0686718 38.6182163 74.0686718"></polygon>
                            <polygon id="Fill-32" points="33.2440228 76.5073815 35.6880455 76.5073815 35.6880455 74.0686718 33.2440228 74.0686718"></polygon>
                            <polygon id="Fill-33" points="27.8671727 76.5073815 30.3111954 76.5073815 30.3111954 74.0686718 27.8671727 74.0686718"></polygon>
                            <polygon id="Fill-34" points="22.4929791 76.5073815 24.9370019 76.5073815 24.9370019 74.0686718 22.4929791 74.0686718"></polygon>
                            <polygon id="Fill-35" points="17.1187856 76.5073815 19.5601518 76.5073815 19.5601518 74.0686718 17.1187856 74.0686718"></polygon>
                            <polygon id="Fill-36" points="11.744592 76.5073815 14.1859583 76.5073815 14.1859583 74.0686718 11.744592 74.0686718"></polygon>
                            <path d="M-1.8562929e-13,79.979892 L9.40683112,79.979892 L9.40683112,70.5908597 L-1.8562929e-13,70.5908597 L-1.8562929e-13,79.979892 Z M2.66451613,77.3185175 L6.73965844,77.3185175 L6.73965844,73.254885 L2.66451613,73.254885 L2.66451613,77.3185175 Z" id="Fill-37"></path>
                            <polygon id="Fill-38" points="3.48273245 68.11769 5.92409867 68.11769 5.92409867 65.6789804 3.48273245 65.6789804"></polygon>
                            <polygon id="Fill-39" points="3.48273245 62.7551795 5.92409867 62.7551795 5.92409867 60.3164698 3.48273245 60.3164698"></polygon>
                            <polygon id="Fill-40" points="3.48273245 57.392669 5.92409867 57.392669 5.92409867 54.9513086 3.48273245 54.9513086"></polygon>
                            <polygon id="Fill-41" points="3.48273245 52.0275077 5.92409867 52.0275077 5.92409867 49.588798 3.48273245 49.588798"></polygon>
                            <polygon id="Fill-42" points="3.48273245 46.6649972 5.92409867 46.6649972 5.92409867 44.2262875 3.48273245 44.2262875"></polygon>
                            <polygon id="Fill-43" points="3.48273245 41.2998359 5.92409867 41.2998359 5.92409867 38.8611262 3.48273245 38.8611262"></polygon>
                            <polygon id="Fill-44" points="3.48273245 35.9373254 5.92409867 35.9373254 5.92409867 33.4986157 3.48273245 33.4986157"></polygon>
                            <polygon id="Fill-45" points="3.48273245 30.5721641 5.92409867 30.5721641 5.92409867 28.1361052 3.48273245 28.1361052"></polygon>
                            <polygon id="Fill-46" points="3.48273245 25.2123043 5.92409867 25.2123043 5.92409867 22.7709439 3.48273245 22.7709439"></polygon>
                            <polygon id="Fill-47" points="3.48273245 19.8471431 5.92409867 19.8471431 5.92409867 17.4084334 3.48273245 17.4084334"></polygon>
                            <polygon id="Fill-48" points="3.48273245 14.4819818 5.92409867 14.4819818 5.92409867 12.0432721 3.48273245 12.0432721"></polygon>
                        </g>
                        <g id="Group-10" transform="translate(12.000000, 13.000000)">
                            <path d="M27.8505999,0.856405006 C13.3272603,0.856405006 1.54854182,12.6252183 1.54854182,27.143901 C1.54854182,41.6580977 13.3272603,53.426911 27.8505999,53.426911 C42.3739396,53.426911 54.1481623,41.6580977 54.1481623,27.143901 C54.1481623,12.6252183 42.3739396,0.856405006 27.8505999,0.856405006" id="Path" fill="#FFFFFF"></path>
                            <g id="Group-57" transform="translate(0.820464, 0.346132)" fill="#3892CD">
                                <path d="M27.0301357,0.510273492 C12.5067961,0.510273492 0.728077653,12.2790867 0.728077653,26.7977694 C0.728077653,41.3119662 12.5067961,53.0807795 27.0301357,53.0807795 C41.5534754,53.0807795 53.3276981,41.3119662 53.3276981,26.7977694 C53.3276981,12.2790867 41.5534754,0.510273492 27.0301357,0.510273492 M27.0301357,51.3222985 C13.477866,51.3222985 2.49263757,40.3430073 2.49263757,26.7977694 C2.49263757,13.2480456 13.477866,2.27099741 27.0301357,2.27099741 C40.5846533,2.27099741 51.5676339,13.2480456 51.5676339,26.7977694 C51.5676339,40.3430073 40.5846533,51.3222985 27.0301357,51.3222985" id="Fill-49"></path>
                                <path d="M23.171032,14.6644751 L16.7287024,14.6644751 C15.7126755,14.6644751 14.8899635,15.4853986 14.8899635,16.4992167 L14.8899635,22.9365131 C14.8899635,23.9525742 15.7126755,24.7734977 16.7287024,24.7734977 L23.171032,24.7734977 C24.184811,24.7734977 25.0052751,23.9525742 25.0052751,22.9365131 L25.0052751,16.4992167 C25.0052751,15.4853986 24.184811,14.6644751 23.171032,14.6644751" id="Fill-51"></path>
                                <path d="M35.3069333,14.6644751 L28.8646037,14.6644751 C27.8508247,14.6644751 27.0281127,15.4853986 27.0281127,16.4992167 L27.0281127,22.9365131 C27.0281127,23.9525742 27.8508247,24.7734977 28.8646037,24.7734977 L35.3069333,24.7734977 C36.3207123,24.7734977 37.1434243,23.9525742 37.1434243,22.9365131 L37.1434243,16.4992167 C37.1434243,15.4853986 36.3207123,14.6644751 35.3069333,14.6644751" id="Fill-53"></path>
                                <path d="M23.171032,26.7959751 L16.7287024,26.7959751 C15.7126755,26.7959751 14.8899635,27.6191415 14.8899635,28.6329597 L14.8899635,35.0657701 C14.8899635,36.0795882 15.7126755,36.9049976 16.7287024,36.9049976 L23.171032,36.9049976 C24.184811,36.9049976 25.0052751,36.0795882 25.0052751,35.0657701 L25.0052751,28.6329597 C25.0052751,27.6191415 24.184811,26.7959751 23.171032,26.7959751" id="Fill-55"></path>
                            </g>
                        </g>
                    </g>
                </g>
            </g>
        </g>
    </g>
</svg>