<svg xmlns="http://www.w3.org/2000/svg" width="22" height="22" viewBox="0 0 22 22">
  <path fill="#4A90E2" d="M1161.42843,99 L1167.72132,105.292893 C1168.11184,105.683418 1168.11184,106.316582 1167.72132,106.707107 C1167.3308,107.097631 1166.69763,107.097631 1166.30711,106.707107 L1158.40029,98.8002941 C1158.32432,98.7432706 1158.25673,98.6756809 1158.19971,98.5997061 L1157.6,98 L1158.19971,97.4002941 C1158.25673,97.3243191 1158.32432,97.2567294 1158.40029,97.1997061 L1166.30711,89.2928932 C1166.69763,88.9023689 1167.3308,88.9023689 1167.72132,89.2928932 C1168.11184,89.6834175 1168.11184,90.3165825 1167.72132,90.7071068 L1161.42843,97 L1175,97 C1175.55228,97 1176,97.4477153 1176,98 C1176,98.5522847 1175.55228,99 1175,99 L1161.42843,99 Z" transform="translate(-1156 -87)"/>
</svg>
