<?xml version="1.0" encoding="UTF-8"?>
<svg width="44px" height="44px" viewBox="0 0 44 44" version="1.1" xmlns="http://www.w3.org/2000/svg" xmlns:xlink="http://www.w3.org/1999/xlink">
    <!-- Generator: Sketch 53 (72520) - https://sketchapp.com -->
    <title>icn-social-instagram</title>
    <desc>Created with Sketch.</desc>
    <g id="Page-1" stroke="none" stroke-width="1" fill="none" fill-rule="evenodd">
        <g id="SnapScan-Assets" transform="translate(-202.000000, -165.000000)">
            <g id="icn-social-instagram" transform="translate(202.000000, 165.000000)">
                <circle id="Oval-Copy-2" fill="#FFFFFF" fill-rule="nonzero" cx="22" cy="22" r="22"></circle>
                <path d="M22,15.8660714 C22.9226193,15.8660714 23.7782736,16.0967264 24.5669643,16.5580357 C25.355655,17.019345 25.980655,17.644345 26.4419643,18.4330357 C26.9032736,19.2217264 27.1339286,20.0773807 27.1339286,21 C27.1339286,21.9226193 26.9032736,22.7782736 26.4419643,23.5669643 C25.980655,24.355655 25.355655,24.980655 24.5669643,25.4419643 C23.7782736,25.9032736 22.9226193,26.1339286 22,26.1339286 C21.0773807,26.1339286 20.2217264,25.9032736 19.4330357,25.4419643 C18.644345,24.980655 18.019345,24.355655 17.5580357,23.5669643 C17.0967264,22.7782736 16.8660714,21.9226193 16.8660714,21 C16.8660714,20.0773807 17.0967264,19.2217264 17.5580357,18.4330357 C18.019345,17.644345 18.644345,17.019345 19.4330357,16.5580357 C20.2217264,16.0967264 21.0773807,15.8660714 22,15.8660714 Z M22,24.3482143 C22.9226193,24.3482143 23.7113093,24.0208336 24.3660714,23.3660714 C25.0208336,22.7113093 25.3482143,21.9226193 25.3482143,21 C25.3482143,20.0773807 25.0208336,19.2886907 24.3660714,18.6339286 C23.7113093,17.9791664 22.9226193,17.6517857 22,17.6517857 C21.0773807,17.6517857 20.2886907,17.9791664 19.6339286,18.6339286 C18.9791664,19.2886907 18.6517857,20.0773807 18.6517857,21 C18.6517857,21.9226193 18.9791664,22.7113093 19.6339286,23.3660714 C20.2886907,24.0208336 21.0773807,24.3482143 22,24.3482143 Z M28.5625,15.6428571 C28.5327379,15.9702379 28.40625,16.2529764 28.1830357,16.4910714 C27.9598214,16.7291664 27.6845236,16.8482143 27.3571429,16.8482143 C27.0297621,16.8482143 26.7470236,16.7291664 26.5089286,16.4910714 C26.2708336,16.2529764 26.1517857,15.9702379 26.1517857,15.6428571 C26.1517857,15.3154764 26.2708336,15.0327379 26.5089286,14.7946429 C26.7470236,14.5565478 27.0297621,14.4375 27.3571429,14.4375 C27.6845236,14.4375 27.9672621,14.5565478 28.2053571,14.7946429 C28.4434522,15.0327379 28.5625,15.3154764 28.5625,15.6428571 Z M31.9553571,16.8482143 C31.9851193,17.6815478 32,19.0654764 32,21 C32,22.9345236 31.9776786,24.3258929 31.9330357,25.1741071 C31.8883929,26.0223214 31.761905,26.7589286 31.5535714,27.3839286 C31.2857143,28.1279764 30.8764879,28.7752978 30.3258929,29.3258929 C29.7752978,29.8764879 29.1279764,30.2857143 28.3839286,30.5535714 C27.7589286,30.761905 27.0223214,30.8883929 26.1741071,30.9330357 C25.3258929,30.9776786 23.9345236,31 22,31 C20.0654764,31 18.6741071,30.9776786 17.8258929,30.9330357 C16.9776786,30.8883929 16.2410714,30.7470236 15.6160714,30.5089286 C14.8720236,30.2708336 14.2247022,29.8764879 13.6741071,29.3258929 C13.1235121,28.7752978 12.7142857,28.1279764 12.4464286,27.3839286 C12.238095,26.7589286 12.1116071,26.0223214 12.0669643,25.1741071 C12.0223214,24.3258929 12,22.9345236 12,21 C12,19.0654764 12.0223214,17.6741071 12.0669643,16.8258929 C12.1116071,15.9776786 12.238095,15.2410714 12.4464286,14.6160714 C12.7142857,13.8720236 13.1235121,13.2247022 13.6741071,12.6741071 C14.2247022,12.1235121 14.8720236,11.7142857 15.6160714,11.4464286 C16.2410714,11.238095 16.9776786,11.1116071 17.8258929,11.0669643 C18.6741071,11.0223214 20.0654764,11 22,11 C23.9345236,11 25.3258929,11.0223214 26.1741071,11.0669643 C27.0223214,11.1116071 27.7589286,11.238095 28.3839286,11.4464286 C29.1279764,11.7142857 29.7752978,12.1235121 30.3258929,12.6741071 C30.8764879,13.2247022 31.2857143,13.8720236 31.5535714,14.6160714 C31.761905,15.2410714 31.8958336,15.9851193 31.9553571,16.8482143 Z M29.8125,26.8928571 C29.9910714,26.386905 30.1101193,25.5833336 30.1696429,24.4821429 C30.199405,23.8273807 30.2142857,22.9047621 30.2142857,21.7142857 L30.2142857,20.2857143 C30.2142857,19.0654764 30.199405,18.1428571 30.1696429,17.5178571 C30.1101193,16.386905 29.9910714,15.5833336 29.8125,15.1071429 C29.4553571,14.1845236 28.8154764,13.5446429 27.8928571,13.1875 C27.4166664,13.0089286 26.613095,12.8898807 25.4821429,12.8303571 C24.8273807,12.800595 23.9047621,12.7857143 22.7142857,12.7857143 L21.2857143,12.7857143 C20.0952379,12.7857143 19.1726193,12.800595 18.5178571,12.8303571 C17.4166664,12.8898807 16.613095,13.0089286 16.1071429,13.1875 C15.1845236,13.5446429 14.5446429,14.1845236 14.1875,15.1071429 C14.0089286,15.5833336 13.8898807,16.386905 13.8303571,17.5178571 C13.800595,18.1726193 13.7857143,19.0952379 13.7857143,20.2857143 L13.7857143,21.7142857 C13.7857143,22.9047621 13.800595,23.8273807 13.8303571,24.4821429 C13.8898807,25.5833336 14.0089286,26.386905 14.1875,26.8928571 C14.574405,27.8154764 15.2142857,28.4553571 16.1071429,28.8125 C16.613095,28.9910714 17.4166664,29.1101193 18.5178571,29.1696429 C19.1726193,29.199405 20.0952379,29.2142857 21.2857143,29.2142857 L22.7142857,29.2142857 C23.9345236,29.2142857 24.8571429,29.199405 25.4821429,29.1696429 C26.613095,29.1101193 27.4166664,28.9910714 27.8928571,28.8125 C28.8154764,28.425595 29.4553571,27.7857143 29.8125,26.8928571 Z" id="" fill="#4A90E2"></path>
            </g>
        </g>
    </g>
</svg>