<svg xmlns="http://www.w3.org/2000/svg" width="22" height="22" viewBox="0 0 22 22">
  <path fill="#4A90E2" d="M1215.57157,99 L1202,99 C1201.44772,99 1201,98.5522847 1201,98 C1201,97.4477153 1201.44772,97 1202,97 L1215.57157,97 L1209.27868,90.7071068 C1208.88816,90.3165825 1208.88816,89.6834175 1209.27868,89.2928932 C1209.6692,88.9023689 1210.30237,88.9023689 1210.69289,89.2928932 L1218.59971,97.1997061 C1218.67568,97.2567294 1218.74327,97.3243191 1218.80029,97.4002941 L1219.4,98 L1218.80029,98.5997061 C1218.74327,98.6756809 1218.67568,98.7432706 1218.59971,98.8002941 L1210.69289,106.707107 C1210.30237,107.097631 1209.6692,107.097631 1209.27868,106.707107 C1208.88816,106.316582 1208.88816,105.683418 1209.27868,105.292893 L1215.57157,99 Z" transform="translate(-1199 -87)"/>
</svg>
