<svg xmlns="http://www.w3.org/2000/svg" width="22" height="22" viewBox="0 0 22 22">
  <path fill="#FFF" d="M1161.42843,132 L1167.72132,138.292893 C1168.11184,138.683418 1168.11184,139.316582 1167.72132,139.707107 C1167.3308,140.097631 1166.69763,140.097631 1166.30711,139.707107 L1158.40029,131.800294 C1158.32432,131.743271 1158.25673,131.675681 1158.19971,131.599706 L1157.6,131 L1158.19971,130.400294 C1158.25673,130.324319 1158.32432,130.256729 1158.40029,130.199706 L1166.30711,122.292893 C1166.69763,121.902369 1167.3308,121.902369 1167.72132,122.292893 C1168.11184,122.683418 1168.11184,123.316582 1167.72132,123.707107 L1161.42843,130 L1175,130 C1175.55228,130 1176,130.447715 1176,131 C1176,131.552285 1175.55228,132 1175,132 L1161.42843,132 Z" transform="translate(-1156 -120)"/>
</svg>
