<?xml version="1.0" encoding="UTF-8"?>
<svg width="40px" height="40px" viewBox="0 0 40 40" version="1.1" xmlns="http://www.w3.org/2000/svg" xmlns:xlink="http://www.w3.org/1999/xlink">
    <!-- Generator: Sketch 53 (72520) - https://sketchapp.com -->
    <title>icn-mobile-play</title>
    <desc>Created with Sketch.</desc>
    <g id="Page-1" stroke="none" stroke-width="1" fill="none" fill-rule="evenodd">
        <g id="SnapScan-Assets" transform="translate(-892.000000, -277.000000)" fill="#FFFFFF" fill-rule="nonzero">
            <path d="M898,310.536821 L898,283.172084 C898,282.217167 898.557167,281.391734 899.365713,281 L915.296505,296.849784 L899.359306,312.705718 C898.554223,312.312793 898,311.489275 898,310.536821 Z M920.350602,301.877974 L902.931296,311.88381 L916.669483,298.215607 L920.350602,301.877974 Z M925.765175,294.936024 C926.344556,295.37724 926.718299,296.072465 926.718299,296.854453 C926.718299,297.624689 926.355882,298.310579 925.791385,298.7526 L922.091336,300.878035 L918.042298,296.849784 L922.088585,292.824078 L925.765175,294.936024 Z M902.941505,281.825852 L920.347852,291.824202 L916.669483,295.483801 L902.941505,281.825852 Z" id="logo"></path>
        </g>
    </g>
</svg>