<?xml version="1.0" encoding="utf-8"?>
<!-- Generator: Adobe Illustrator 16.0.0, SVG Export Plug-In . SVG Version: 6.00 Build 0)  -->
<!DOCTYPE svg PUBLIC "-//W3C//DTD SVG 1.1//EN" "http://www.w3.org/Graphics/SVG/1.1/DTD/svg11.dtd">
<svg version="1.1" id="Layer_1" xmlns="http://www.w3.org/2000/svg" xmlns:xlink="http://www.w3.org/1999/xlink" x="0px" y="0px"
	 width="44px" height="44px" viewBox="0 0 44 44" enable-background="new 0 0 44 44" xml:space="preserve">
<title>icn-social-instagram</title>
<desc>Created with Sketch.</desc>
<g id="icn-social-instagram" transform="translate(202.000000, 165.000000)">
	<circle id="Oval-Copy-2" fill="#4A90E2" cx="-180" cy="-143" r="22"/>
	<path id="_xF16D_" fill="#FFFFFF" d="M-180-149.134c0.923,0,1.778,0.23,2.566,0.692c0.789,0.461,1.414,1.086,1.875,1.875
		c0.462,0.789,0.692,1.644,0.692,2.567s-0.23,1.778-0.692,2.566c-0.461,0.789-1.086,1.414-1.875,1.875
		c-0.788,0.462-1.644,0.692-2.566,0.692s-1.778-0.23-2.567-0.692c-0.789-0.461-1.414-1.086-1.875-1.875
		c-0.461-0.788-0.692-1.644-0.692-2.566s0.23-1.778,0.692-2.567s1.086-1.414,1.875-1.875S-180.923-149.134-180-149.134z
		 M-180-140.652c0.923,0,1.711-0.326,2.366-0.981s0.981-1.443,0.981-2.366s-0.326-1.711-0.981-2.366s-1.443-0.982-2.366-0.982
		s-1.711,0.327-2.366,0.982s-0.982,1.443-0.982,2.366s0.327,1.711,0.982,2.366S-180.923-140.652-180-140.652z M-173.438-149.357
		c-0.029,0.327-0.156,0.61-0.379,0.848c-0.224,0.238-0.499,0.357-0.826,0.357c-0.328,0-0.61-0.119-0.849-0.357
		c-0.237-0.238-0.356-0.521-0.356-0.848c0-0.328,0.119-0.61,0.356-0.849c0.238-0.238,0.521-0.357,0.849-0.357
		c0.327,0,0.609,0.119,0.848,0.357C-173.557-149.967-173.438-149.685-173.438-149.357z M-170.045-148.152
		c0.03,0.833,0.045,2.217,0.045,4.152s-0.022,3.326-0.066,4.174c-0.045,0.849-0.172,1.585-0.38,2.21
		c-0.269,0.744-0.677,1.392-1.228,1.942s-1.198,0.959-1.942,1.228c-0.625,0.208-1.361,0.335-2.21,0.38
		c-0.848,0.044-2.239,0.066-4.174,0.066s-3.326-0.022-4.174-0.066c-0.848-0.045-1.584-0.187-2.209-0.425
		c-0.744-0.237-1.392-0.632-1.942-1.183c-0.551-0.551-0.96-1.198-1.228-1.942c-0.208-0.625-0.334-1.361-0.379-2.21
		c-0.044-0.848-0.067-2.239-0.067-4.174s0.022-3.326,0.067-4.174c0.045-0.848,0.171-1.584,0.379-2.209
		c0.268-0.744,0.677-1.392,1.228-1.942c0.55-0.551,1.198-0.96,1.942-1.228c0.625-0.208,1.361-0.334,2.209-0.379
		c0.849-0.044,2.24-0.067,4.174-0.067s3.326,0.022,4.174,0.067c0.849,0.045,1.585,0.171,2.21,0.379
		c0.744,0.268,1.392,0.677,1.942,1.228c0.551,0.55,0.959,1.198,1.228,1.942C-170.238-149.759-170.104-149.015-170.045-148.152z
		 M-172.188-138.107c0.179-0.506,0.298-1.309,0.357-2.41c0.029-0.655,0.045-1.578,0.045-2.768v-1.429
		c0-1.22-0.016-2.143-0.045-2.768c-0.06-1.131-0.179-1.935-0.357-2.411c-0.357-0.922-0.997-1.563-1.92-1.919
		c-0.477-0.179-1.279-0.298-2.41-0.357c-0.655-0.03-1.578-0.045-2.768-0.045h-1.429c-1.19,0-2.113,0.015-2.768,0.045
		c-1.102,0.059-1.905,0.178-2.411,0.357c-0.922,0.357-1.563,0.997-1.919,1.919c-0.179,0.477-0.298,1.28-0.357,2.411
		c-0.03,0.655-0.045,1.577-0.045,2.768v1.429c0,1.19,0.015,2.113,0.045,2.768c0.059,1.102,0.178,1.904,0.357,2.41
		c0.387,0.923,1.027,1.563,1.919,1.92c0.506,0.179,1.31,0.298,2.411,0.357c0.655,0.029,1.577,0.045,2.768,0.045h1.429
		c1.22,0,2.143-0.016,2.768-0.045c1.131-0.06,1.934-0.179,2.41-0.357C-173.185-136.574-172.545-137.215-172.188-138.107z"/>
</g>
</svg>
