<?xml version="1.0" encoding="UTF-8"?>
<svg width="40px" height="40px" viewBox="0 0 40 40" version="1.1" xmlns="http://www.w3.org/2000/svg" xmlns:xlink="http://www.w3.org/1999/xlink">
    <!-- Generator: Sketch 53 (72520) - https://sketchapp.com -->
    <title>icn-mobile-apple</title>
    <desc>Created with Sketch.</desc>
    <g id="Page-1" stroke="none" stroke-width="1" fill="none" fill-rule="evenodd">
        <g id="SnapScan-Assets" transform="translate(-822.000000, -277.000000)" fill="#FFFFFE">
            <g id="Group-4" transform="translate(828.000000, 279.000000)">
                <path d="M24.1464008,19.0706237 C24.1067,14.7777788 27.6940009,12.6886859 27.858422,12.5907249 C25.8269415,9.655976 22.6774726,9.25485531 21.5714693,9.22368589 C18.9261251,8.94835606 16.3620552,10.7918043 15.0141019,10.7918043 C13.6399312,10.7918043 11.5646301,9.2507736 9.3297768,9.29641453 C6.4529697,9.3405712 3.76043407,10.9906949 2.28401517,13.5536372 C-0.762456508,18.7793381 1.50985031,26.4588883 4.42823085,30.6830862 C5.88817019,32.7513995 7.59455388,35.0616469 9.82753447,34.9800127 C12.0122,34.8902151 12.8283128,33.5996529 15.4657917,33.5996529 C18.0785513,33.5996529 18.8441019,34.9800127 21.1224012,34.9276926 C23.4669934,34.8902151 24.9441614,32.8501027 26.3527894,30.762494 C28.0400717,28.391021 28.7176064,26.0555412 28.744573,25.9360585 C28.6902653,25.9178763 24.1909705,24.2176589 24.1464008,19.0706237" id="Fill-5"></path>
                <path d="M20.2080347,6.10876687 C21.382578,4.65233883 22.1867057,2.67196777 21.9634825,0.661169415 C20.2627169,0.736124438 18.1353553,1.82631184 16.9109988,3.2511994 C15.8278421,4.50613943 14.8592934,6.56332084 15.1094831,8.49730885 C17.0199886,8.63757121 18.9818055,7.54218891 20.2080347,6.10876687" id="Fill-6"></path>
            </g>
        </g>
    </g>
</svg>