<?xml version="1.0" encoding="UTF-8"?>
<svg width="20px" height="20px" viewBox="0 0 20 20" version="1.1" xmlns="http://www.w3.org/2000/svg" xmlns:xlink="http://www.w3.org/1999/xlink">
    <!-- Generator: Sketch 53 (72520) - https://sketchapp.com -->
    <title>icn-map-pin</title>
    <desc>Created with Sketch.</desc>
    <g id="Page-1" stroke="none" stroke-width="1" fill="none" fill-rule="evenodd">
        <g id="SnapScan-Assets" transform="translate(-1156.000000, -209.000000)" fill="#BDC6CB">
            <path d="M1166,219.796267 C1164.45075,219.796267 1163.19512,218.541867 1163.19512,216.994133 C1163.19512,215.4464 1164.45075,214.192 1166,214.192 C1167.54871,214.192 1168.80488,215.4464 1168.80488,216.994133 C1168.80488,218.541867 1167.54871,219.796267 1166,219.796267 M1166,211 L1166,211 C1162.68636,211 1160,213.683733 1160,216.994133 C1160,221.0992 1163.77809,223.426667 1165.33802,226.581867 C1165.46294,226.8352 1165.71706,227 1166,227 C1166.28294,227 1166.53706,226.8352 1166.66198,226.581867 C1168.22191,223.426667 1172,221.0992 1172,216.994133 C1172,213.683733 1169.31364,211 1166,211" id="Fill-1-Copy"></path>
        </g>
    </g>
</svg>