<?xml version="1.0" encoding="UTF-8"?>
<svg width="22px" height="22px" viewBox="0 0 22 22" version="1.1" xmlns="http://www.w3.org/2000/svg" xmlns:xlink="http://www.w3.org/1999/xlink">
    <!-- Generator: Sketch 53 (72520) - https://sketchapp.com -->
    <title>icn-toggle-lock</title>
    <desc>Created with Sketch.</desc>
    <g id="Page-1" stroke="none" stroke-width="1" fill="none" fill-rule="evenodd">
        <g id="SnapScan-Assets" transform="translate(-1199.000000, -263.000000)">
            <g id="icn-toggle-lock" transform="translate(1203.000000, 265.000000)">
                <path d="M7,18 L7,18 C3.134,18 0,14.866 0,11 L0,10 C0,8.343 1.343,7 3,7 L11,7 C12.657,7 14,8.343 14,10 L14,11 C14,14.866 10.866,18 7,18 Z" id="Stroke-1" stroke="#9AABB4" stroke-width="2" stroke-linecap="round"></path>
                <path d="M7,0 L7,0 C4.791,0 3,1.791 3,4 L3,7 L11,7 L11,4 C11,1.791 9.209,0 7,0 Z" id="Stroke-3" stroke="#9AABB4" stroke-width="2" stroke-linecap="round"></path>
                <path d="M8,12 C8,12.553 7.553,13 7,13 C6.447,13 6,12.553 6,12 C6,11.447 6.447,11 7,11 C7.553,11 8,11.447 8,12" id="Fill-5" fill="#9AABB4"></path>
            </g>
        </g>
    </g>
</svg>