<?xml version="1.0" encoding="UTF-8"?>
<svg width="262px" height="222px" viewBox="0 0 262 222" version="1.1" xmlns="http://www.w3.org/2000/svg" xmlns:xlink="http://www.w3.org/1999/xlink">
    <!-- Generator: Sketch 53 (72520) - https://sketchapp.com -->
    <title>img-in-print</title>
    <desc>Created with Sketch.</desc>
    <defs>
        <filter x="-6.6%" y="-4.7%" width="113.2%" height="109.3%" filterUnits="objectBoundingBox" id="filter-1">
            <feOffset dx="4" dy="4" in="SourceAlpha" result="shadowOffsetOuter1"></feOffset>
            <feColorMatrix values="0 0 0 0 0.149019608   0 0 0 0 0.223529412   0 0 0 0 0.262745098  0 0 0 0.1 0" type="matrix" in="shadowOffsetOuter1" result="shadowMatrixOuter1"></feColorMatrix>
            <feMerge>
                <feMergeNode in="shadowMatrixOuter1"></feMergeNode>
                <feMergeNode in="SourceGraphic"></feMergeNode>
            </feMerge>
        </filter>
        <polygon id="path-2" points="0 171 120.657 171 120.657 0.993 0 0.993"></polygon>
    </defs>
    <g id="Page-1" stroke="none" stroke-width="1" fill="none" fill-rule="evenodd">
        <g id="SnapScan-Assets" transform="translate(-935.000000, -1205.000000)">
            <g id="img-in-print" transform="translate(936.000000, 1206.000000)">
                <g id="Group-163" filter="url(#filter-1)" transform="translate(70.000000, 25.000000)">
                    <polygon id="Fill-1" fill="#E3EBF5" points="0 171.007 120.657 171.007 120.657 1 0 1"></polygon>
                    <polygon id="Fill-2" fill="#FFFFFF" points="0.001 35.807 120.657 35.807 120.657 1 0.001 1"></polygon>
                    <polygon id="Stroke-4" fill="#E3EBF5" points="8.993 16.867 76.11 16.867 76.11 7.518 8.993 7.518"></polygon>
                    <polygon id="Stroke-5" fill="#E3EBF5" points="8.992 23.565 57.342 23.565 57.342 20.101 8.992 20.101"></polygon>
                    <path d="M3.512,40.167 L3.512,49.285" id="Stroke-6" stroke="#FFFFFF" stroke-width="0.672" stroke-linecap="round"></path>
                    <path d="M5.7923,40.167 L5.7923,49.285" id="Stroke-7" stroke="#FFFFFF" stroke-width="0.672" stroke-linecap="round"></path>
                    <path d="M8.0716,40.167 L8.0716,49.285" id="Stroke-8" stroke="#FFFFFF" stroke-width="0.672" stroke-linecap="round"></path>
                    <path d="M10.3509,40.167 L10.3509,49.285" id="Stroke-9" stroke="#FFFFFF" stroke-width="0.672" stroke-linecap="round"></path>
                    <path d="M12.6312,40.167 L12.6312,49.285" id="Stroke-10" stroke="#FFFFFF" stroke-width="0.672" stroke-linecap="round"></path>
                    <path d="M15.1253,49.2852 L24.2433,49.2852" id="Stroke-11" stroke="#FFFFFF" stroke-width="0.672" stroke-linecap="round"></path>
                    <path d="M15.1253,47.0059 L24.2433,47.0059" id="Stroke-12" stroke="#FFFFFF" stroke-width="0.672" stroke-linecap="round"></path>
                    <path d="M15.1253,44.7261 L24.2433,44.7261" id="Stroke-13" stroke="#FFFFFF" stroke-width="0.672" stroke-linecap="round"></path>
                    <path d="M15.1253,42.4468 L24.2433,42.4468" id="Stroke-14" stroke="#FFFFFF" stroke-width="0.672" stroke-linecap="round"></path>
                    <path d="M15.1253,40.167 L24.2433,40.167" id="Stroke-15" stroke="#FFFFFF" stroke-width="0.672" stroke-linecap="round"></path>
                    <path d="M26.7376,40.167 L26.7376,49.285" id="Stroke-16" stroke="#FFFFFF" stroke-width="0.672" stroke-linecap="round"></path>
                    <path d="M29.0169,40.167 L29.0169,49.285" id="Stroke-17" stroke="#FFFFFF" stroke-width="0.672" stroke-linecap="round"></path>
                    <path d="M31.2972,40.167 L31.2972,49.285" id="Stroke-18" stroke="#FFFFFF" stroke-width="0.672" stroke-linecap="round"></path>
                    <path d="M33.5765,40.167 L33.5765,49.285" id="Stroke-19" stroke="#FFFFFF" stroke-width="0.672" stroke-linecap="round"></path>
                    <path d="M35.8558,40.167 L35.8558,49.285" id="Stroke-20" stroke="#FFFFFF" stroke-width="0.672" stroke-linecap="round"></path>
                    <path d="M38.3499,49.2852 L47.4689,49.2852" id="Stroke-21" stroke="#FFFFFF" stroke-width="0.672" stroke-linecap="round"></path>
                    <path d="M38.3499,47.0059 L47.4689,47.0059" id="Stroke-22" stroke="#FFFFFF" stroke-width="0.672" stroke-linecap="round"></path>
                    <path d="M38.3499,44.7261 L47.4689,44.7261" id="Stroke-23" stroke="#FFFFFF" stroke-width="0.672" stroke-linecap="round"></path>
                    <path d="M38.3499,42.4468 L47.4689,42.4468" id="Stroke-24" stroke="#FFFFFF" stroke-width="0.672" stroke-linecap="round"></path>
                    <path d="M38.3499,40.167 L47.4689,40.167" id="Stroke-25" stroke="#FFFFFF" stroke-width="0.672" stroke-linecap="round"></path>
                    <path d="M49.9632,40.167 L49.9632,49.285" id="Stroke-26" stroke="#FFFFFF" stroke-width="0.672" stroke-linecap="round"></path>
                    <path d="M52.2425,40.167 L52.2425,49.285" id="Stroke-27" stroke="#FFFFFF" stroke-width="0.672" stroke-linecap="round"></path>
                    <path d="M54.5218,40.167 L54.5218,49.285" id="Stroke-28" stroke="#FFFFFF" stroke-width="0.672" stroke-linecap="round"></path>
                    <path d="M56.8021,40.167 L56.8021,49.285" id="Stroke-29" stroke="#FFFFFF" stroke-width="0.672" stroke-linecap="round"></path>
                    <path d="M59.0814,40.167 L59.0814,49.285" id="Stroke-30" stroke="#FFFFFF" stroke-width="0.672" stroke-linecap="round"></path>
                    <path d="M61.5755,49.2852 L70.6935,49.2852" id="Stroke-31" stroke="#FFFFFF" stroke-width="0.672" stroke-linecap="round"></path>
                    <path d="M61.5755,47.0059 L70.6935,47.0059" id="Stroke-32" stroke="#FFFFFF" stroke-width="0.672" stroke-linecap="round"></path>
                    <path d="M61.5755,44.7261 L70.6935,44.7261" id="Stroke-33" stroke="#FFFFFF" stroke-width="0.672" stroke-linecap="round"></path>
                    <path d="M61.5755,42.4468 L70.6935,42.4468" id="Stroke-34" stroke="#FFFFFF" stroke-width="0.672" stroke-linecap="round"></path>
                    <path d="M61.5755,40.167 L70.6935,40.167" id="Stroke-35" stroke="#FFFFFF" stroke-width="0.672" stroke-linecap="round"></path>
                    <path d="M73.1878,40.167 L73.1878,49.285" id="Stroke-36" stroke="#FFFFFF" stroke-width="0.672" stroke-linecap="round"></path>
                    <path d="M75.4681,40.167 L75.4681,49.285" id="Stroke-37" stroke="#FFFFFF" stroke-width="0.672" stroke-linecap="round"></path>
                    <path d="M77.7474,40.167 L77.7474,49.285" id="Stroke-38" stroke="#FFFFFF" stroke-width="0.672" stroke-linecap="round"></path>
                    <path d="M80.0267,40.167 L80.0267,49.285" id="Stroke-39" stroke="#FFFFFF" stroke-width="0.672" stroke-linecap="round"></path>
                    <path d="M82.3069,40.167 L82.3069,49.285" id="Stroke-40" stroke="#FFFFFF" stroke-width="0.672" stroke-linecap="round"></path>
                    <path d="M84.8011,49.2852 L93.9191,49.2852" id="Stroke-41" stroke="#FFFFFF" stroke-width="0.672" stroke-linecap="round"></path>
                    <path d="M84.8011,47.0059 L93.9191,47.0059" id="Stroke-42" stroke="#FFFFFF" stroke-width="0.672" stroke-linecap="round"></path>
                    <path d="M84.8011,44.7261 L93.9191,44.7261" id="Stroke-43" stroke="#FFFFFF" stroke-width="0.672" stroke-linecap="round"></path>
                    <path d="M84.8011,42.4468 L93.9191,42.4468" id="Stroke-44" stroke="#FFFFFF" stroke-width="0.672" stroke-linecap="round"></path>
                    <path d="M84.8011,40.167 L93.9191,40.167" id="Stroke-45" stroke="#FFFFFF" stroke-width="0.672" stroke-linecap="round"></path>
                    <path d="M96.4134,40.167 L96.4134,49.285" id="Stroke-46" stroke="#FFFFFF" stroke-width="0.672" stroke-linecap="round"></path>
                    <path d="M98.6927,40.167 L98.6927,49.285" id="Stroke-47" stroke="#FFFFFF" stroke-width="0.672" stroke-linecap="round"></path>
                    <path d="M100.973,40.167 L100.973,49.285" id="Stroke-48" stroke="#FFFFFF" stroke-width="0.672" stroke-linecap="round"></path>
                    <path d="M103.2523,40.167 L103.2523,49.285" id="Stroke-49" stroke="#FFFFFF" stroke-width="0.672" stroke-linecap="round"></path>
                    <path d="M105.5316,40.167 L105.5316,49.285" id="Stroke-50" stroke="#FFFFFF" stroke-width="0.672" stroke-linecap="round"></path>
                    <path d="M108.0257,49.2852 L117.1447,49.2852" id="Stroke-51" stroke="#FFFFFF" stroke-width="0.672" stroke-linecap="round"></path>
                    <path d="M108.0257,47.0059 L117.1447,47.0059" id="Stroke-52" stroke="#FFFFFF" stroke-width="0.672" stroke-linecap="round"></path>
                    <path d="M108.0257,44.7261 L117.1447,44.7261" id="Stroke-53" stroke="#FFFFFF" stroke-width="0.672" stroke-linecap="round"></path>
                    <path d="M108.0257,42.4468 L117.1447,42.4468" id="Stroke-54" stroke="#FFFFFF" stroke-width="0.672" stroke-linecap="round"></path>
                    <path d="M108.0257,40.167 L117.1447,40.167" id="Stroke-55" stroke="#FFFFFF" stroke-width="0.672" stroke-linecap="round"></path>
                    <g id="Group-162" transform="translate(0.000000, 0.007000)">
                        <path d="M17.6546,65.0736 L13.1066,70.2716 C8.6666,75.0366 13.3236,83.2676 17.3306,94.2046 C21.3376,105.1426 17.8716,125.8276 17.8716,125.8276" id="Stroke-56" stroke="#A9C3E2" stroke-width="1.044" stroke-linecap="round"></path>
                        <polygon id="Fill-58" fill="#A9C3E2" points="31.0745 59.0887 22.2735 62.4527 26.1435 69.9667 35.6325 67.5867"></polygon>
                        <polygon id="Fill-60" fill="#8AADD7" points="34.3538 65.7875 23.3608 71.3835 45.2418 112.6505 60.4488 102.5115"></polygon>
                        <mask id="mask-3" fill="white">
                            <use xlink:href="#path-2"></use>
                        </mask>
                        <g id="Clip-63"></g>
                        <polygon id="Fill-62" fill="#8AADD7" mask="url(#mask-3)" points="26.694 123.663 30.701 123.663 30.701 57.601 26.694 57.601"></polygon>
                        <path d="M45.2415,112.6503 L45.2415,112.6503 C48.5355,118.9873 57.3885,119.5433 61.4505,113.6693 L61.8255,113.1263 C64.1025,109.8333 64.0655,105.4653 61.7335,102.2113 L61.7315,102.2093 C57.9035,96.8693 49.9345,96.9473 46.2135,102.3623 L45.8395,102.9073 C43.8545,105.7953 43.6245,109.5413 45.2415,112.6503" id="Fill-64" fill="#8AADD7" mask="url(#mask-3)"></path>
                        <path d="M78.7444,68.1258 L46.6174,101.8168 L60.7934,114.5158 L93.8404,80.2558 C97.1614,76.1568 82.0654,64.0258 78.7444,68.1258" id="Fill-65" fill="#8AADD7" mask="url(#mask-3)"></path>
                        <path d="M109.0853,124.3632 C105.6413,117.9702 98.8873,113.6242 91.1163,113.6242 C83.3463,113.6242 76.5913,117.9702 73.1473,124.3632 L109.0853,124.3632 Z" id="Fill-66" fill="#5589C5" mask="url(#mask-3)"></path>
                        <path d="M67.0892,124.3632 L115.5102,124.3632 C115.5112,124.0752 115.5212,123.7892 115.5032,123.5002 L112.6212,76.0542 C112.2222,69.4772 108.7442,63.4742 103.2382,59.8562 C95.7892,54.9602 87.5592,57.3672 81.9842,64.3232 C81.9842,64.3232 82.1922,64.5102 78.7442,68.1262 C68.4602,78.9112 66.8762,114.4562 67.0272,122.7632 C67.0362,123.2982 67.0572,123.8322 67.0892,124.3632" id="Fill-67" fill="#A9C3E2" mask="url(#mask-3)"></path>
                        <path d="M71.7894,124.3632 C87.8424,116.5602 101.1034,86.6852 101.1034,86.6852 L67.5404,109.4372 C67.2184,113.7012 67.0714,117.4262 67.0304,120.1082 C67.0884,121.7492 67.1444,123.2232 67.1844,124.3632 L71.7894,124.3632 Z" id="Fill-68" fill="#8AADD7" mask="url(#mask-3)"></path>
                        <path d="M69.2855,34.8441 C72.4495,29.8361 74.4815,21.8111 74.4815,21.8111 L78.6205,21.4891 L93.2105,17.4681 L99.2635,27.0901 L95.0745,46.4161 L98.3375,57.6791 L81.7575,68.7031 L81.6545,57.5831 C81.5875,55.4171 79.8635,53.6611 77.6985,53.5731 C75.4715,53.4821 73.2395,53.2811 72.3255,52.9931 C70.7775,52.5081 69.8255,50.9611 70.0505,49.3541 L71.6375,38.0221 L70.1205,37.4001 C69.1135,36.9871 68.7045,35.7641 69.2855,34.8441" id="Fill-69" fill="#BED2EA" mask="url(#mask-3)"></path>
                        <path d="M87.9886,15.4364 C85.8556,14.0514 84.4686,12.1144 85.0776,9.6454 C83.4006,9.7584 81.8346,10.8924 81.2026,12.4494 C79.5296,9.2054 82.2746,4.7584 82.2746,4.7584 C77.6986,4.3244 72.9926,7.0604 71.1046,11.2514 C70.1586,13.3524 69.8916,15.7774 70.5026,17.9994 C71.1116,20.2214 72.6266,22.2084 74.6756,23.2614 C76.4236,24.1594 78.4366,24.3854 80.3996,24.4704 L91.4236,24.9464 L85.7876,35.8174 L88.1436,37.1034 C88.1436,37.1034 91.0246,31.0534 95.0676,32.7464 C99.1096,34.4384 96.8126,41.5144 89.0946,41.5144 C89.0946,41.5144 90.4726,46.8434 95.0746,46.4154 C97.6416,44.2984 99.6576,41.7744 101.7616,39.1964 C103.8666,36.6184 105.7106,33.5494 105.7966,30.2224 C106.1586,16.2224 91.5616,17.7574 87.9886,15.4364" id="Fill-70" fill="#8AADD7" mask="url(#mask-3)"></path>
                        <path d="M88.1439,50.1048 C88.1439,50.1048 86.1609,54.1578 81.5609,56.8278 C81.1679,55.0228 79.6049,53.6508 77.6989,53.5728 C85.5079,53.5728 88.1439,50.1048 88.1439,50.1048" id="Fill-71" fill="#A9C3E2" mask="url(#mask-3)"></path>
                        <path d="M37.5433,50.4613 L25.3743,62.6303 C19.4543,68.5513 16.4033,68.7363 16.4033,68.7363 L14.2463,66.5643 C14.2463,66.5643 14.4393,63.5213 20.3523,57.6083 L32.5213,45.4393 L37.5433,50.4613 Z" id="Fill-72" fill="#8AADD7" mask="url(#mask-3)"></path>
                        <path d="M35.1097,52.9071 L33.6627,54.3541 C33.0997,53.6371 32.5457,52.2771 29.8297,48.7361 C29.1067,47.7941 27.9237,47.3141 26.7507,47.4971 L24.4277,47.8581 L22.5457,48.2741 C21.4337,48.5201 20.5277,49.3211 20.1467,50.3931 L18.6197,54.6901 C18.6197,54.6901 20.8087,60.7641 24.7137,64.0701 L29.0167,74.9281 L40.1287,73.9141 C40.9287,71.4291 35.2707,63.6411 35.8557,61.8241 C37.6987,56.1041 36.8267,54.6231 35.1097,52.9071" id="Fill-73" fill="#BED2EA" mask="url(#mask-3)"></path>
                        <polygon id="Fill-74" fill="#A9C3E2" mask="url(#mask-3)" points="39.5355 63.1087 34.0825 65.8987 26.7375 69.6557 44.7885 111.5627 62.3855 103.1167"></polygon>
                        <path d="M44.7884,111.5624 L44.7884,111.5624 C47.3214,118.2404 56.0494,119.8254 60.7684,114.4654 L61.2044,113.9704 C63.8504,110.9654 64.3224,106.6224 62.3864,103.1194 L62.3854,103.1174 C59.2064,97.3664 51.2824,96.5144 46.9544,101.4584 L46.5194,101.9554 C44.2114,104.5914 43.5464,108.2864 44.7884,111.5624" id="Fill-75" fill="#A9C3E2" mask="url(#mask-3)"></path>
                        <path d="M102.3724,73.8807 C99.2584,69.6227 93.2804,68.6947 89.0214,71.8097 L48.7504,100.0507 L59.0744,115.9697 L100.3024,87.2307 C104.5604,84.1157 105.4874,78.1387 102.3724,73.8807" id="Fill-76" fill="#A9C3E2" mask="url(#mask-3)"></path>
                        <path d="M44.2435,109.35 L44.2435,109.35 C45.1155,116.438 53.2155,120.054 59.0745,115.97 L59.6155,115.593 C62.8995,113.303 64.3915,109.198 63.3445,105.333 L63.3435,105.331 C61.6235,98.99 54.1305,96.278 48.7505,100.051 L48.2095,100.43 C45.3415,102.442 43.8155,105.872 44.2435,109.35" id="Fill-77" fill="#A9C3E2" mask="url(#mask-3)"></path>
                        <path d="M21.2786,60.4715 C22.8916,61.2195 22.3636,62.8005 20.9736,62.7835 C19.5856,62.7655 17.2306,61.9065 15.7486,61.1855 C14.1366,60.4015 15.1516,58.1125 16.6316,58.6275 C18.1106,59.1425 21.2786,60.4715 21.2786,60.4715" id="Fill-78" fill="#BED2EA" mask="url(#mask-3)"></path>
                        <path d="M21.2757,57.0599 C23.1107,57.3989 23.0467,59.0779 21.6517,59.4009 C20.2557,59.7249 17.6477,59.4579 15.9527,59.1139 C14.1107,58.7399 14.4527,56.2469 16.0847,56.3899 C17.7157,56.5319 21.2757,57.0599 21.2757,57.0599" id="Fill-79" fill="#BED2EA" mask="url(#mask-3)"></path>
                        <path d="M21.2298,54.578 C23.0518,54.98 22.9288,56.656 21.5238,56.931 C20.1188,57.206 17.5208,56.849 15.8378,56.447 C14.0098,56.01 14.4378,53.53 16.0638,53.729 C17.6898,53.928 21.2298,54.578 21.2298,54.578" id="Fill-80" fill="#BED2EA" mask="url(#mask-3)"></path>
                        <path d="M21.4212,51.6166 C23.2662,51.8966 23.2562,53.5766 21.8722,53.9446 C20.4872,54.3126 17.8722,54.1296 16.1672,53.8406 C14.3142,53.5256 14.5752,51.0236 16.2112,51.1136 C17.8462,51.2036 21.4212,51.6166 21.4212,51.6166" id="Fill-81" fill="#BED2EA" mask="url(#mask-3)"></path>
                        <polygon id="Fill-82" fill="#8FB1D8" mask="url(#mask-3)" points="0.001 171 120.657 171 120.657 123.69 0.001 123.69"></polygon>
                        <polygon id="Stroke-83" stroke="#C8D8EB" stroke-width="0.334" stroke-linecap="round" stroke-linejoin="round" mask="url(#mask-3)" points="8.992 139.539 72.301 139.539 72.301 130.191 8.992 130.191"></polygon>
                        <polygon id="Stroke-84" stroke="#C8D8EB" stroke-width="0.334" stroke-linecap="round" stroke-linejoin="round" mask="url(#mask-3)" points="8.993 147.241 57.517 147.241 57.517 143.51 8.993 143.51"></polygon>
                        <polygon id="Stroke-85" stroke="#C8D8EB" stroke-width="0.334" stroke-linecap="round" stroke-linejoin="round" mask="url(#mask-3)" points="8.993 153.634 57.517 153.634 57.517 149.903 8.993 149.903"></polygon>
                        <path d="M24.6253,164.4569 L10.9283,164.4569 C9.8583,164.4569 8.9923,163.5909 8.9923,162.5219 L8.9923,160.9189 C8.9923,159.8509 9.8583,158.9839 10.9283,158.9839 L24.6253,158.9839 C25.6933,158.9839 26.5603,159.8509 26.5603,160.9189 L26.5603,162.5219 C26.5603,163.5909 25.6933,164.4569 24.6253,164.4569" id="Fill-86" fill="#3B77BC" mask="url(#mask-3)"></path>
                        <path d="M43.0052,164.4569 L29.3082,164.4569 C28.2392,164.4569 27.3732,163.5909 27.3732,162.5219 L27.3732,160.9189 C27.3732,159.8509 28.2392,158.9839 29.3082,158.9839 L43.0052,158.9839 C44.0732,158.9839 44.9402,159.8509 44.9402,160.9189 L44.9402,162.5219 C44.9402,163.5909 44.0732,164.4569 43.0052,164.4569" id="Fill-87" fill="#3B77BC" mask="url(#mask-3)"></path>
                        <path d="M56.6605,164.4569 L48.0215,164.4569 C47.1455,164.4569 46.4345,163.7469 46.4345,162.8709 L46.4345,160.5709 C46.4345,159.6949 47.1455,158.9839 48.0215,158.9839 L56.6605,158.9839 C57.5365,158.9839 58.2465,159.6949 58.2465,160.5709 L58.2465,162.8709 C58.2465,163.7469 57.5365,164.4569 56.6605,164.4569" id="Fill-88" fill="#3B77BC" mask="url(#mask-3)"></path>
                        <path d="M14.9114,162.2709 L15.0494,162.0809 C15.1424,162.1829 15.2964,162.2749 15.4894,162.2749 C15.6904,162.2749 15.7674,162.1769 15.7674,162.0829 C15.7674,161.7909 14.9574,161.9719 14.9574,161.4609 C14.9574,161.2289 15.1574,161.0519 15.4654,161.0519 C15.6804,161.0519 15.8574,161.1229 15.9844,161.2479 L15.8474,161.4299 C15.7354,161.3189 15.5884,161.2689 15.4414,161.2689 C15.3004,161.2689 15.2084,161.3399 15.2084,161.4419 C15.2084,161.7029 16.0174,161.5419 16.0174,162.0599 C16.0174,162.2919 15.8524,162.4919 15.4794,162.4919 C15.2234,162.4919 15.0364,162.3999 14.9114,162.2709" id="Fill-89" fill="#FFFFFF" mask="url(#mask-3)"></path>
                        <path d="M16.9183,162.4667 L16.9183,161.8367 C16.9183,161.6777 16.8363,161.6277 16.7133,161.6277 C16.6033,161.6277 16.5073,161.6947 16.4543,161.7617 L16.4543,162.4667 L16.2353,162.4667 L16.2353,161.4587 L16.4543,161.4587 L16.4543,161.5937 C16.5223,161.5147 16.6523,161.4337 16.8123,161.4337 C17.0283,161.4337 17.1373,161.5507 17.1373,161.7577 L17.1373,162.4667 L16.9183,162.4667 Z" id="Fill-90" fill="#FFFFFF" mask="url(#mask-3)"></path>
                        <path d="M18.0394,162.4667 L18.0394,162.3567 C17.9644,162.4437 17.8454,162.4917 17.7114,162.4917 C17.5484,162.4917 17.3624,162.3797 17.3624,162.1577 C17.3624,161.9247 17.5464,161.8277 17.7114,161.8277 C17.8494,161.8277 17.9644,161.8717 18.0394,161.9577 L18.0394,161.8067 C18.0394,161.6907 17.9404,161.6197 17.8034,161.6197 C17.6904,161.6197 17.5904,161.6607 17.5054,161.7487 L17.4134,161.5967 C17.5294,161.4837 17.6764,161.4337 17.8374,161.4337 C18.0614,161.4337 18.2584,161.5277 18.2584,161.7967 L18.2584,162.4667 L18.0394,162.4667 Z M18.0394,162.2377 L18.0394,162.0827 C17.9864,162.0137 17.8934,161.9787 17.7994,161.9787 C17.6764,161.9787 17.5824,162.0517 17.5824,162.1597 C17.5824,162.2707 17.6764,162.3417 17.7994,162.3417 C17.8934,162.3417 17.9864,162.3057 18.0394,162.2377 L18.0394,162.2377 Z" id="Fill-91" fill="#FFFFFF" mask="url(#mask-3)"></path>
                        <path d="M18.762,162.327 L18.762,162.851 L18.542,162.851 L18.542,161.459 L18.762,161.459 L18.762,161.597 C18.837,161.496 18.953,161.433 19.085,161.433 C19.346,161.433 19.532,161.63 19.532,161.962 C19.532,162.294 19.346,162.492 19.085,162.492 C18.958,162.492 18.845,162.433 18.762,162.327 M19.307,161.962 C19.307,161.765 19.194,161.628 19.021,161.628 C18.918,161.628 18.812,161.686 18.762,161.761 L18.762,162.16 C18.81,162.235 18.918,162.298 19.021,162.298 C19.194,162.298 19.307,162.158 19.307,161.962" id="Fill-92" fill="#FFFFFF" mask="url(#mask-3)"></path>
                        <path d="M19.6683,162.2709 L19.8063,162.0809 C19.8993,162.1829 20.0523,162.2749 20.2463,162.2749 C20.4463,162.2749 20.5233,162.1769 20.5233,162.0829 C20.5233,161.7909 19.7143,161.9719 19.7143,161.4609 C19.7143,161.2289 19.9143,161.0519 20.2213,161.0519 C20.4363,161.0519 20.6133,161.1229 20.7403,161.2479 L20.6033,161.4299 C20.4923,161.3189 20.3443,161.2689 20.1983,161.2689 C20.0563,161.2689 19.9643,161.3399 19.9643,161.4419 C19.9643,161.7029 20.7743,161.5419 20.7743,162.0599 C20.7743,162.2919 20.6093,162.4919 20.2353,162.4919 C19.9793,162.4919 19.7933,162.3999 19.6683,162.2709" id="Fill-93" fill="#FFFFFF" mask="url(#mask-3)"></path>
                        <path d="M20.931,161.9618 C20.931,161.6568 21.146,161.4338 21.452,161.4338 C21.65,161.4338 21.766,161.5168 21.837,161.6128 L21.694,161.7448 C21.637,161.6658 21.56,161.6278 21.461,161.6278 C21.28,161.6278 21.157,161.7658 21.157,161.9618 C21.157,162.1578 21.28,162.2978 21.461,162.2978 C21.56,162.2978 21.637,162.2558 21.694,162.1768 L21.837,162.3128 C21.766,162.4058 21.65,162.4918 21.452,162.4918 C21.146,162.4918 20.931,162.2668 20.931,161.9618" id="Fill-94" fill="#FFFFFF" mask="url(#mask-3)"></path>
                        <path d="M22.6497,162.4667 L22.6497,162.3567 C22.5747,162.4437 22.4557,162.4917 22.3217,162.4917 C22.1587,162.4917 21.9727,162.3797 21.9727,162.1577 C21.9727,161.9247 22.1567,161.8277 22.3217,161.8277 C22.4597,161.8277 22.5747,161.8717 22.6497,161.9577 L22.6497,161.8067 C22.6497,161.6907 22.5507,161.6197 22.4137,161.6197 C22.3007,161.6197 22.2007,161.6607 22.1157,161.7487 L22.0237,161.5967 C22.1397,161.4837 22.2867,161.4337 22.4467,161.4337 C22.6717,161.4337 22.8687,161.5277 22.8687,161.7967 L22.8687,162.4667 L22.6497,162.4667 Z M22.6497,162.2377 L22.6497,162.0827 C22.5967,162.0137 22.5037,161.9787 22.4097,161.9787 C22.2867,161.9787 22.1927,162.0517 22.1927,162.1597 C22.1927,162.2707 22.2867,162.3417 22.4097,162.3417 C22.5037,162.3417 22.5967,162.3057 22.6497,162.2377 L22.6497,162.2377 Z" id="Fill-95" fill="#FFFFFF" mask="url(#mask-3)"></path>
                        <path d="M23.8353,162.4667 L23.8353,161.8367 C23.8353,161.6777 23.7543,161.6277 23.6313,161.6277 C23.5203,161.6277 23.4243,161.6947 23.3713,161.7617 L23.3713,162.4667 L23.1523,162.4667 L23.1523,161.4587 L23.3713,161.4587 L23.3713,161.5937 C23.4393,161.5147 23.5703,161.4337 23.7293,161.4337 C23.9453,161.4337 24.0553,161.5507 24.0553,161.7577 L24.0553,162.4667 L23.8353,162.4667 Z" id="Fill-96" fill="#FFFFFF" mask="url(#mask-3)"></path>
                        <path d="M12.762,160.5209 C12.046,160.5209 11.466,161.1019 11.466,161.8169 C11.466,162.5329 12.046,163.1139 12.762,163.1139 C13.479,163.1139 14.059,162.5329 14.059,161.8169 C14.059,161.1019 13.479,160.5209 12.762,160.5209 M12.762,163.0269 C12.094,163.0269 11.553,162.4849 11.553,161.8169 C11.553,161.1489 12.094,160.6079 12.762,160.6079 C13.431,160.6079 13.972,161.1489 13.972,161.8169 C13.972,162.4849 13.431,163.0269 12.762,163.0269" id="Fill-97" fill="#FFFFFF" mask="url(#mask-3)"></path>
                        <path d="M12.5901,161.2577 L12.2881,161.2577 C12.2401,161.2577 12.2021,161.2967 12.2021,161.3437 L12.2021,161.6447 C12.2021,161.6927 12.2401,161.7317 12.2881,161.7317 L12.5901,161.7317 C12.6381,161.7317 12.6761,161.6927 12.6761,161.6447 L12.6761,161.3437 C12.6761,161.2967 12.6381,161.2577 12.5901,161.2577" id="Fill-98" fill="#FFFFFF" mask="url(#mask-3)"></path>
                        <path d="M13.2366,161.2577 L12.9346,161.2577 C12.8866,161.2577 12.8486,161.2967 12.8486,161.3437 L12.8486,161.6447 C12.8486,161.6927 12.8866,161.7317 12.9346,161.7317 L13.2366,161.7317 C13.2846,161.7317 13.3226,161.6927 13.3226,161.6447 L13.3226,161.3437 C13.3226,161.2967 13.2846,161.2577 13.2366,161.2577" id="Fill-99" fill="#FFFFFF" mask="url(#mask-3)"></path>
                        <path d="M12.5901,161.9032 L12.2881,161.9032 C12.2401,161.9032 12.2021,161.9422 12.2021,161.9892 L12.2021,162.2902 C12.2021,162.3382 12.2401,162.3772 12.2881,162.3772 L12.5901,162.3772 C12.6381,162.3772 12.6761,162.3382 12.6761,162.2902 L12.6761,161.9892 C12.6761,161.9422 12.6381,161.9032 12.5901,161.9032" id="Fill-100" fill="#FFFFFF" mask="url(#mask-3)"></path>
                        <polygon id="Fill-101" fill="#FFFFFF" mask="url(#mask-3)" points="32.5462 163.2108 29.2162 163.2108 31.3352 159.8808 34.6652 159.8808"></polygon>
                        <polygon id="Fill-102" fill="#FFFFFF" mask="url(#mask-3)" points="39.5384 162.8046 33.7574 162.8046 34.9684 160.8796 40.7494 160.8796"></polygon>
                        <polygon id="Fill-103" fill="#FFFFFF" mask="url(#mask-3)" points="42.6888 162.8046 40.4558 162.8046 41.6668 160.8796 41.7048 160.8796"></polygon>
                        <polygon id="Fill-104" fill="#FFFFFF" mask="url(#mask-3)" points="48.251 163.362 49.428 163.362 49.428 160.032 48.251 160.032"></polygon>
                        <polygon id="Fill-105" fill="#FFFFFF" mask="url(#mask-3)" points="50.429 161.266 52.927 161.266 52.927 160.05 50.429 160.05"></polygon>
                        <polygon id="Fill-106" fill="#FFFFFF" mask="url(#mask-3)" points="50.43 163.208 55.576 163.208 55.576 161.749 50.43 161.749"></polygon>
                        <path d="M108.0228,114.3539 L108.0228,158.6769 C108.0228,159.6019 107.2728,160.3519 106.3468,160.3519 L83.9808,160.3519 C83.0548,160.3519 82.3048,159.6019 82.3048,158.6769 L82.3048,114.3539 C82.3048,113.4289 83.0548,112.6789 83.9808,112.6789 L106.3468,112.6789 C107.2728,112.6789 108.0228,113.4289 108.0228,114.3539" id="Fill-107" fill="#F6F6F6" mask="url(#mask-3)"></path>
                        <path d="M108.0228,134.702 L108.0228,114.354 C108.0228,113.429 107.2728,112.679 106.3468,112.679 L83.9808,112.679 C83.0548,112.679 82.3048,113.429 82.3048,114.354 L82.3048,134.702 L108.0228,134.702 Z" id="Fill-108" fill="#3B77BC" mask="url(#mask-3)"></path>
                        <path d="M87.553,127.5858 L87.782,127.2698 C87.939,127.4398 88.193,127.5928 88.516,127.5928 C88.85,127.5928 88.979,127.4298 88.979,127.2728 C88.979,126.7868 87.63,127.0888 87.63,126.2368 C87.63,125.8518 87.963,125.5558 88.475,125.5558 C88.832,125.5558 89.128,125.6738 89.34,125.8828 L89.111,126.1858 C88.926,126.0008 88.679,125.9178 88.436,125.9178 C88.199,125.9178 88.047,126.0358 88.047,126.2058 C88.047,126.6408 89.395,126.3728 89.395,127.2348 C89.395,127.6208 89.12,127.9538 88.498,127.9538 C88.072,127.9538 87.762,127.8008 87.553,127.5858" id="Fill-109" fill="#FFFFFF" mask="url(#mask-3)"></path>
                        <path d="M90.8939,127.9125 L90.8939,126.8635 C90.8939,126.5995 90.7579,126.5155 90.5529,126.5155 C90.3689,126.5155 90.2089,126.6265 90.1229,126.7375 L90.1229,127.9125 L89.7569,127.9125 L89.7569,126.2335 L90.1229,126.2335 L90.1229,126.4595 C90.2339,126.3285 90.4529,126.1925 90.7159,126.1925 C91.0779,126.1925 91.2579,126.3875 91.2579,126.7305 L91.2579,127.9125 L90.8939,127.9125 Z" id="Fill-110" fill="#FFFFFF" mask="url(#mask-3)"></path>
                        <path d="M92.7601,127.9125 L92.7601,127.7285 C92.6351,127.8745 92.4371,127.9545 92.2141,127.9545 C91.9441,127.9545 91.6341,127.7665 91.6341,127.3985 C91.6341,127.0095 91.9401,126.8495 92.2141,126.8495 C92.4441,126.8495 92.6351,126.9225 92.7601,127.0645 L92.7601,126.8145 C92.7601,126.6195 92.5971,126.5015 92.3671,126.5015 C92.1801,126.5015 92.0131,126.5715 91.8701,126.7175 L91.7181,126.4635 C91.9121,126.2755 92.1561,126.1925 92.4231,126.1925 C92.7981,126.1925 93.1251,126.3485 93.1251,126.7965 L93.1251,127.9125 L92.7601,127.9125 Z M92.7601,127.5305 L92.7601,127.2725 C92.6731,127.1585 92.5171,127.0995 92.3611,127.0995 C92.1561,127.0995 91.9991,127.2215 91.9991,127.4015 C91.9991,127.5855 92.1561,127.7045 92.3611,127.7045 C92.5171,127.7045 92.6731,127.6445 92.7601,127.5305 L92.7601,127.5305 Z" id="Fill-111" fill="#FFFFFF" mask="url(#mask-3)"></path>
                        <path d="M93.9632,127.6796 L93.9632,128.5526 L93.5982,128.5526 L93.5982,126.2336 L93.9632,126.2336 L93.9632,126.4636 C94.0882,126.2966 94.2822,126.1926 94.5012,126.1926 C94.9362,126.1926 95.2452,126.5186 95.2452,127.0716 C95.2452,127.6236 94.9362,127.9536 94.5012,127.9536 C94.2892,127.9536 94.1022,127.8566 93.9632,127.6796 M94.8702,127.0716 C94.8702,126.7446 94.6822,126.5156 94.3942,126.5156 C94.2242,126.5156 94.0462,126.6126 93.9632,126.7376 L93.9632,127.4016 C94.0432,127.5266 94.2242,127.6306 94.3942,127.6306 C94.6822,127.6306 94.8702,127.3986 94.8702,127.0716" id="Fill-112" fill="#FFFFFF" mask="url(#mask-3)"></path>
                        <path d="M95.472,127.5858 L95.701,127.2698 C95.858,127.4398 96.111,127.5928 96.434,127.5928 C96.768,127.5928 96.897,127.4298 96.897,127.2728 C96.897,126.7868 95.548,127.0888 95.548,126.2368 C95.548,125.8518 95.882,125.5558 96.393,125.5558 C96.75,125.5558 97.046,125.6738 97.258,125.8828 L97.029,126.1858 C96.844,126.0008 96.598,125.9178 96.355,125.9178 C96.118,125.9178 95.965,126.0358 95.965,126.2058 C95.965,126.6408 97.314,126.3728 97.314,127.2348 C97.314,127.6208 97.039,127.9538 96.417,127.9538 C95.99,127.9538 95.68,127.8008 95.472,127.5858" id="Fill-113" fill="#FFFFFF" mask="url(#mask-3)"></path>
                        <path d="M97.5745,127.0717 C97.5745,126.5647 97.9325,126.1927 98.4395,126.1927 C98.7695,126.1927 98.9645,126.3317 99.0835,126.4907 L98.8435,126.7097 C98.7495,126.5777 98.6205,126.5157 98.4575,126.5157 C98.1545,126.5157 97.9495,126.7447 97.9495,127.0717 C97.9495,127.3977 98.1545,127.6307 98.4575,127.6307 C98.6205,127.6307 98.7495,127.5617 98.8435,127.4297 L99.0835,127.6547 C98.9645,127.8117 98.7695,127.9537 98.4395,127.9537 C97.9325,127.9537 97.5745,127.5787 97.5745,127.0717" id="Fill-114" fill="#FFFFFF" mask="url(#mask-3)"></path>
                        <path d="M100.4349,127.9125 L100.4349,127.7285 C100.3099,127.8745 100.1119,127.9545 99.8889,127.9545 C99.6189,127.9545 99.3089,127.7665 99.3089,127.3985 C99.3089,127.0095 99.6149,126.8495 99.8889,126.8495 C100.1189,126.8495 100.3099,126.9225 100.4349,127.0645 L100.4349,126.8145 C100.4349,126.6195 100.2719,126.5015 100.0419,126.5015 C99.8549,126.5015 99.6879,126.5715 99.5449,126.7175 L99.3929,126.4635 C99.5869,126.2755 99.8309,126.1925 100.0979,126.1925 C100.4729,126.1925 100.7999,126.3485 100.7999,126.7965 L100.7999,127.9125 L100.4349,127.9125 Z M100.4349,127.5305 L100.4349,127.2725 C100.3479,127.1585 100.1919,127.0995 100.0359,127.0995 C99.8309,127.0995 99.6739,127.2215 99.6739,127.4015 C99.6739,127.5855 99.8309,127.7045 100.0359,127.7045 C100.1919,127.7045 100.3479,127.6445 100.4349,127.5305 L100.4349,127.5305 Z" id="Fill-115" fill="#FFFFFF" mask="url(#mask-3)"></path>
                        <path d="M102.4095,127.9125 L102.4095,126.8635 C102.4095,126.5995 102.2735,126.5155 102.0685,126.5155 C101.8855,126.5155 101.7245,126.6265 101.6385,126.7375 L101.6385,127.9125 L101.2725,127.9125 L101.2725,126.2335 L101.6385,126.2335 L101.6385,126.4595 C101.7495,126.3285 101.9685,126.1925 102.2315,126.1925 C102.5945,126.1925 102.7745,126.3875 102.7745,126.7305 L102.7745,127.9125 L102.4095,127.9125 Z" id="Fill-116" fill="#FFFFFF" mask="url(#mask-3)"></path>
                        <path d="M95.0443,118.829 C93.5023,118.829 92.2523,120.079 92.2523,121.621 C92.2523,123.163 93.5023,124.414 95.0443,124.414 C96.5863,124.414 97.8373,123.163 97.8373,121.621 C97.8373,120.079 96.5863,118.829 95.0443,118.829 M95.0443,124.227 C93.6063,124.227 92.4393,123.06 92.4393,121.621 C92.4393,120.183 93.6063,119.016 95.0443,119.016 C96.4833,119.016 97.6493,120.183 97.6493,121.621 C97.6493,123.06 96.4833,124.227 95.0443,124.227" id="Fill-117" fill="#FFFFFF" mask="url(#mask-3)"></path>
                        <path d="M94.6732,120.4164 L94.0232,120.4164 C93.9202,120.4164 93.8372,120.4994 93.8372,120.6024 L93.8372,121.2504 C93.8372,121.3534 93.9202,121.4364 94.0232,121.4364 L94.6732,121.4364 C94.7762,121.4364 94.8592,121.3534 94.8592,121.2504 L94.8592,120.6024 C94.8592,120.4994 94.7762,120.4164 94.6732,120.4164" id="Fill-118" fill="#FFFFFF" mask="url(#mask-3)"></path>
                        <path d="M96.0657,120.4164 L95.4157,120.4164 C95.3127,120.4164 95.2297,120.4994 95.2297,120.6024 L95.2297,121.2504 C95.2297,121.3534 95.3127,121.4364 95.4157,121.4364 L96.0657,121.4364 C96.1687,121.4364 96.2517,121.3534 96.2517,121.2504 L96.2517,120.6024 C96.2517,120.4994 96.1687,120.4164 96.0657,120.4164" id="Fill-119" fill="#FFFFFF" mask="url(#mask-3)"></path>
                        <path d="M94.6732,121.8065 L94.0232,121.8065 C93.9202,121.8065 93.8372,121.8895 93.8372,121.9925 L93.8372,122.6405 C93.8372,122.7435 93.9202,122.8265 94.0232,122.8265 L94.6732,122.8265 C94.7762,122.8265 94.8592,122.7435 94.8592,122.6405 L94.8592,121.9925 C94.8592,121.8895 94.7762,121.8065 94.6732,121.8065" id="Fill-120" fill="#FFFFFF" mask="url(#mask-3)"></path>
                        <polygon id="Fill-121" fill="#143641" mask="url(#mask-3)" points="105.0628 144.6356 104.2708 144.6376 104.2728 145.4306 105.0658 145.4276"></polygon>
                        <path d="M104.305,156.5262 L103.512,156.5282 L102.72,156.5312 L101.927,156.5332 L101.134,156.5352 L100.342,156.5382 L100.33,152.5752 L101.123,152.5722 L101.915,152.5702 L102.708,152.5682 L103.5,152.5662 L104.293,152.5632 L104.305,156.5262 Z M103.498,151.7732 L102.706,151.7762 L101.913,151.7772 L101.12,151.7802 L100.328,151.7822 L99.535,151.7842 L99.552,157.3332 L100.344,157.3302 L101.137,157.3282 L101.929,157.3262 L102.722,157.3232 L103.514,157.3212 L104.307,157.3192 L105.1,157.3172 L105.083,151.7692 L104.291,151.7712 L103.498,151.7732 Z" id="Fill-122" fill="#143641" mask="url(#mask-3)"></path>
                        <polygon id="Fill-123" fill="#143641" mask="url(#mask-3)" points="103.4798 145.4325 103.4778 144.6405 102.6858 144.6425 102.6878 145.4345"></polygon>
                        <polygon id="Fill-124" fill="#143641" mask="url(#mask-3)" points="101.9183 153.3632 101.1253 153.3652 101.1323 155.7432 101.9253 155.7402 102.7173 155.7382 103.5103 155.7362 103.5033 153.3582 102.7103 153.3612"></polygon>
                        <polygon id="Fill-125" fill="#143641" mask="url(#mask-3)" points="102.7034 150.9828 102.7014 150.1908 101.9084 150.1928 101.9114 150.9848"></polygon>
                        <polygon id="Fill-126" fill="#143641" mask="url(#mask-3)" points="102.6859 144.6425 102.6829 143.8505 101.8909 143.8515 101.0979 143.8545 101.0999 144.6465 101.8929 144.6445"></polygon>
                        <polygon id="Fill-127" fill="#143641" mask="url(#mask-3)" points="102.6761 141.472 103.4691 141.47 103.4621 139.092 102.6691 139.094 101.8771 139.097 101.0841 139.099 101.0911 141.476 101.8841 141.474"></polygon>
                        <polygon id="Fill-128" fill="#143641" mask="url(#mask-3)" points="101.1165 150.1947 101.9085 150.1927 101.9065 149.4007 101.1135 149.4027 100.3215 149.4047 100.3235 150.1967"></polygon>
                        <path d="M100.2894,138.3085 L101.0824,138.3065 L101.8744,138.3045 L102.6674,138.3015 L103.4594,138.2995 L104.2524,138.2975 L104.2644,142.2605 L103.4714,142.2625 L102.6794,142.2645 L101.8864,142.2665 L101.0934,142.2695 L100.3014,142.2715 L100.2894,138.3085 Z M101.0964,143.0615 L101.8884,143.0595 L102.6814,143.0575 L103.4734,143.0555 L104.2664,143.0525 L105.0594,143.0505 L105.0424,137.5025 L104.2504,137.5045 L103.4574,137.5065 L102.6654,137.5095 L101.8724,137.5115 L101.0794,137.5135 L100.2874,137.5165 L99.4944,137.5185 L99.5114,143.0665 L100.3034,143.0635 L101.0964,143.0615 Z" id="Fill-129" fill="#143641" mask="url(#mask-3)"></path>
                        <polygon id="Fill-130" fill="#143641" mask="url(#mask-3)" points="100.3187 148.6122 99.5267 148.6142 99.5287 149.4072 100.3217 149.4042"></polygon>
                        <polygon id="Fill-131" fill="#143641" mask="url(#mask-3)" points="99.5179 145.4442 99.5199 146.2362 100.3119 146.2342 100.3149 147.0272 101.1069 147.0252 101.1099 147.8172 101.9019 147.8152 101.9049 148.6072 102.6969 148.6052 103.4899 148.6032 103.4969 150.9812 104.2889 150.9782 105.0809 150.9762 105.0799 150.1832 104.2869 150.1862 104.2849 149.3932 105.0769 149.3912 105.0679 146.2202 104.2749 146.2232 104.2729 145.4302 103.4799 145.4322 103.4829 146.2252 102.6899 146.2272 102.6929 147.0202 101.8999 147.0222 101.8979 146.2302 102.6899 146.2272 102.6879 145.4352 101.8949 145.4372 101.1029 145.4392 101.0999 144.6472 100.3079 144.6492 100.3099 145.4422"></polygon>
                        <polygon id="Fill-132" fill="#143641" mask="url(#mask-3)" points="100.305 143.8568 99.513 143.8588 99.515 144.6508 100.308 144.6488"></polygon>
                        <polygon id="Fill-133" fill="#143641" mask="url(#mask-3)" points="99.5335 150.9921 100.3255 150.9901 100.3235 150.1971 99.5315 150.2001 99.5285 149.4071 98.7365 149.4091 98.7405 150.9941"></polygon>
                        <polygon id="Fill-134" fill="#143641" mask="url(#mask-3)" points="99.5198 146.2367 98.7268 146.2387 98.7298 147.0317 97.9368 147.0337 97.9418 148.6187 97.1488 148.6207 96.3558 148.6237 96.3588 149.4157 95.5658 149.4187 95.5688 150.2107 96.3608 150.2087 96.3628 151.0017 97.1558 150.9987 97.1508 149.4137 97.9438 149.4117 98.7368 149.4087 98.7318 147.8237 99.5248 147.8217 100.3168 147.8197 100.3148 147.0267 99.5218 147.0287"></polygon>
                        <polygon id="Fill-135" fill="#143641" mask="url(#mask-3)" points="98.7249 145.4462 99.5179 145.4442 99.5149 144.6512 98.7229 144.6542 97.9299 144.6562 97.9319 145.4482"></polygon>
                        <polygon id="Fill-136" fill="#143641" mask="url(#mask-3)" points="97.1741 157.3397 97.9661 157.3377 97.9641 156.5447 97.1711 156.5467"></polygon>
                        <polygon id="Fill-137" fill="#143641" mask="url(#mask-3)" points="97.1556 150.9989 97.1576 151.7909 97.9506 151.7899 97.9526 152.5819 97.1606 152.5839 97.1626 153.3769 97.9556 153.3739 97.9576 154.1669 98.7506 154.1649 98.7406 150.9949 97.9486 150.9969"></polygon>
                        <polygon id="Fill-138" fill="#143641" mask="url(#mask-3)" points="96.3724 154.1713 95.5794 154.1733 95.5824 154.9663 94.7894 154.9683 94.7914 155.7613 93.9994 155.7633 94.0014 156.5563 94.7944 156.5533 94.7964 157.3463 95.5894 157.3443 95.5864 156.5513 96.3794 156.5493 96.3764 155.7563 97.1694 155.7543 97.9624 155.7523 97.9644 156.5453 98.7574 156.5423 98.7524 154.9573 97.9594 154.9593 97.9574 154.1673 97.1644 154.1693"></polygon>
                        <polygon id="Fill-139" fill="#143641" mask="url(#mask-3)" points="96.3675 152.5863 97.1605 152.5843 97.1575 151.7913 96.3655 151.7943"></polygon>
                        <polygon id="Fill-140" fill="#143641" mask="url(#mask-3)" points="97.1439 147.036 97.9369 147.034 97.9349 146.241 97.1419 146.244 96.3489 146.245 96.3519 147.038"></polygon>
                        <polygon id="Fill-141" fill="#143641" mask="url(#mask-3)" points="95.5775 153.3812 96.3695 153.3792 96.3675 152.5862 95.5755 152.5892"></polygon>
                        <polygon id="Fill-142" fill="#143641" mask="url(#mask-3)" points="95.5589 147.0404 94.7669 147.0424 94.7599 144.6654 93.9669 144.6674 93.9689 145.4594 93.1769 145.4624 93.1789 146.2544 93.9719 146.2524 93.9739 147.0454 93.1809 147.0474 93.1839 147.8404 92.3909 147.8424 92.3929 148.6344 93.1859 148.6324 93.9789 148.6304 94.7709 148.6274 95.5639 148.6254 96.3559 148.6234 96.3519 147.0384"></polygon>
                        <polygon id="Fill-143" fill="#143641" mask="url(#mask-3)" points="96.3489 146.2455 96.3449 144.6605 95.5519 144.6625 95.5569 146.2475"></polygon>
                        <polygon id="Fill-144" fill="#143641" mask="url(#mask-3)" points="93.2064 155.7655 93.9994 155.7635 93.9944 154.1785 94.7874 154.1765 94.7824 152.5905 93.9894 152.5935 93.9854 151.0085 94.7774 151.0055 94.7824 152.5905 95.5754 152.5885 95.5684 150.2105 94.7754 150.2135 93.9824 150.2155 93.1904 150.2175 93.1924 151.0105 92.3994 151.0125 91.6074 151.0155 91.6124 152.5995 92.4044 152.5975 92.4024 151.8055 93.1944 151.8035 93.1974 152.5955 92.4044 152.5975 92.4064 153.3905 91.6144 153.3925 91.6214 155.7705 92.4134 155.7675 92.4184 157.3535 93.2114 157.3505 94.0034 157.3485 94.0014 156.5565 93.2084 156.5585"></polygon>
                        <polygon id="Fill-145" fill="#143641" mask="url(#mask-3)" points="91.5735 139.1263 92.3655 139.1243 92.3635 138.3313 93.1565 138.3293 93.9485 138.3273 93.9515 139.1193 94.7435 139.1173 94.7485 140.7023 95.5415 140.7003 95.5365 139.1143 96.3285 139.1123 97.1215 139.1103 97.1265 140.6953 96.3335 140.6973 96.3385 142.2833 97.1305 142.2803 97.1285 141.4883 97.9215 141.4853 97.9185 140.6933 98.7115 140.6903 98.7095 139.8983 97.9165 139.9003 97.9145 139.1073 98.7065 139.1053 98.7025 137.5203 97.9095 137.5223 97.9115 138.3153 97.1195 138.3173 96.3265 138.3203 96.3245 137.5273 95.5315 137.5293 94.7395 137.5323 93.9465 137.5343 93.1535 137.5363 92.3615 137.5393 91.5685 137.5413 91.5715 138.3343 90.7785 138.3353 89.9855 138.3383 89.9885 139.1303 90.7805 139.1283"></polygon>
                        <polygon id="Fill-146" fill="#143641" mask="url(#mask-3)" points="90.7903 142.2987 89.9973 142.3007 89.9993 143.0937 90.7923 143.0907"></polygon>
                        <polygon id="Fill-147" fill="#143641" mask="url(#mask-3)" points="89.1907 137.5477 89.1937 138.3407 89.9857 138.3387 89.9837 137.5457"></polygon>
                        <polygon id="Fill-148" fill="#143641" mask="url(#mask-3)" points="88.43 148.6464 89.223 148.6444 89.221 147.8514 88.428 147.8544"></polygon>
                        <polygon id="Fill-149" fill="#143641" mask="url(#mask-3)" points="88.4505 155.7792 89.2435 155.7772 89.2365 153.3992 88.4435 153.4022 87.6515 153.4042 86.8585 153.4062 86.8655 155.7842 87.6585 155.7812"></polygon>
                        <path d="M89.2112,144.681 L90.0042,144.679 L90.0062,145.472 L89.2142,145.473 L89.2112,144.681 Z M89.2022,141.511 L89.9952,141.509 L90.7872,141.506 L91.5802,141.504 L91.5872,143.882 L90.7942,143.884 L90.0022,143.886 L89.2092,143.889 L89.2022,141.511 Z M88.4192,144.683 L88.4232,146.268 L89.2162,146.266 L89.2212,147.851 L90.0132,147.849 L90.0202,150.227 L89.2282,150.229 L88.4352,150.231 L88.4372,151.024 L89.2302,151.022 L90.0232,151.019 L90.8152,151.017 L90.8112,149.432 L91.6032,149.43 L91.6062,150.222 L92.3982,150.22 L92.3932,148.635 L91.6012,148.637 L91.5992,147.845 L92.3912,147.842 L92.3892,147.05 L91.5962,147.052 L90.8042,147.054 L90.7972,144.677 L91.5892,144.674 L91.5942,146.259 L92.3862,146.257 L92.3822,144.672 L93.1742,144.67 L93.1722,143.877 L93.9652,143.875 L94.7572,143.872 L94.7602,144.665 L95.5522,144.663 L95.5502,143.87 L96.3422,143.868 L96.3452,144.66 L97.1372,144.658 L97.9302,144.656 L97.9282,143.864 L98.7202,143.861 L98.7162,142.276 L97.9232,142.278 L97.9252,143.071 L97.1332,143.073 L96.3402,143.076 L95.5482,143.077 L95.5452,142.285 L94.7532,142.287 L93.9602,142.29 L93.9582,141.497 L94.7502,141.495 L94.7482,140.702 L93.9552,140.704 L93.1632,140.707 L93.1672,142.292 L92.3752,142.294 L92.3682,139.916 L91.5752,139.919 L90.7832,139.921 L90.7852,140.714 L89.9922,140.716 L89.9882,139.131 L89.1952,139.133 L88.4022,139.135 L88.4052,139.928 L87.6122,139.93 L87.6102,139.138 L86.8172,139.14 L86.8222,140.725 L87.6152,140.723 L87.6172,141.515 L86.8242,141.517 L86.8272,142.31 L87.6192,142.308 L87.6242,143.893 L86.8312,143.895 L86.8342,144.688 L87.6262,144.685 L88.4192,144.683 Z" id="Fill-150" fill="#143641" mask="url(#mask-3)"></path>
                        <polygon id="Fill-151" fill="#143641" mask="url(#mask-3)" points="88.4007 138.3427 87.6087 138.3447 87.6107 139.1377 88.4027 139.1347"></polygon>
                        <polygon id="Fill-152" fill="#143641" mask="url(#mask-3)" points="86.8519 151.0287 87.6449 151.0267 87.6429 150.2337 86.8499 150.2357 86.0569 150.2377 86.0599 151.0307"></polygon>
                        <polygon id="Fill-153" fill="#143641" mask="url(#mask-3)" points="86.8431 147.8583 88.4281 147.8543 88.4231 146.2683 87.6311 146.2713 87.6291 145.4783 86.8361 145.4803 86.8411 147.0663 86.0481 147.0673 86.0431 145.4833 85.2511 145.4853 85.2581 147.8623 86.0501 147.8603"></polygon>
                        <polygon id="Fill-154" fill="#143641" mask="url(#mask-3)" points="86.8343 144.6879 86.0413 144.6899 86.0433 145.4829 86.8363 145.4799"></polygon>
                        <polygon id="Fill-155" fill="#143641" mask="url(#mask-3)" points="86.8226 140.725 86.0296 140.727 86.0326 141.52 86.8246 141.517"></polygon>
                        <polygon id="Fill-156" fill="#143641" mask="url(#mask-3)" points="86.8157 138.3475 86.8137 137.5545 86.0207 137.5565 85.2277 137.5595 85.2307 138.3515 86.0227 138.3495"></polygon>
                        <path d="M86.0638,152.6161 L86.8568,152.6141 L87.6498,152.6111 L88.4418,152.6091 L89.2348,152.6071 L90.0268,152.6041 L90.0388,156.5671 L89.2458,156.5701 L88.4538,156.5721 L87.6608,156.5741 L86.8688,156.5761 L86.0758,156.5791 L86.0638,152.6161 Z M86.0778,157.3711 L86.8708,157.3691 L87.6638,157.3671 L88.4558,157.3651 L89.2488,157.3621 L90.0408,157.3601 L90.8338,157.3581 L90.8178,151.8101 L90.0248,151.8121 L89.2318,151.8141 L88.4398,151.8171 L87.6468,151.8191 L86.8548,151.8211 L86.0618,151.8241 L85.2688,151.8251 L85.2858,157.3741 L86.0778,157.3711 Z" id="Fill-157" fill="#143641" mask="url(#mask-3)"></path>
                        <polygon id="Fill-158" fill="#143641" mask="url(#mask-3)" points="86.055 149.4457 86.848 149.4437 86.845 148.6507 86.053 148.6537 85.26 148.6547 85.265 150.2407 86.057 150.2377"></polygon>
                        <polygon id="Fill-159" fill="#143641" mask="url(#mask-3)" points="86.0325 141.5199 85.2395 141.5219 85.2465 143.8999 86.0395 143.8979 86.0365 143.1049 86.8295 143.1029 86.8275 142.3109 86.0345 142.3119"></polygon>
                        <polygon id="Fill-160" fill="#143641" mask="url(#mask-3)" points="86.0257 139.142 85.2327 139.144 85.2347 139.937 86.0277 139.935"></polygon>
                        <path d="M38.3499,52.0453 L38.3499,52.0453 C34.7019,52.0453 31.7449,49.0873 31.7449,45.4393 C31.7449,41.7913 34.7019,38.8333 38.3499,38.8333 C41.9979,38.8333 44.9559,41.7913 44.9559,45.4393 C44.9559,49.0873 41.9979,52.0453 38.3499,52.0453" id="Fill-161" fill="#8AADD7" mask="url(#mask-3)"></path>
                    </g>
                </g>
            </g>
        </g>
    </g>
</svg>