<?xml version="1.0" encoding="UTF-8"?>
<svg width="150px" height="130px" viewBox="0 0 150 130" version="1.1" xmlns="http://www.w3.org/2000/svg" xmlns:xlink="http://www.w3.org/1999/xlink">
    <!-- Generator: Sketch 53 (72520) - https://sketchapp.com -->
    <title>img-price-starter-kit</title>
    <desc>Created with Sketch.</desc>
    <defs>
        <polygon id="path-1" points="0.1626 0.9401 15.902 0.9401 15.902 1.9401 0.1626 1.9401"></polygon>
        <polygon id="path-3" points="0.1626 0.695 15.902 0.695 15.902 1.695 0.1626 1.695"></polygon>
        <polygon id="path-5" points="0.1626 0.4489 15.902 0.4489 15.902 1.4489 0.1626 1.4489"></polygon>
        <polygon id="path-7" points="0.1633 0.0612 15.902 0.0612 15.902 1.0612 0.1633 1.0612"></polygon>
        <polygon id="path-9" points="0.1633 0.3064 15.902 0.3064 15.902 1.3064 0.1633 1.3064"></polygon>
        <polygon id="path-11" points="0.069 0.478 38.5217 0.478 38.5217 34.071 0.069 34.071"></polygon>
        <polygon id="path-13" points="0.4862 0.93 23.8782 0.93 23.8782 13.4926 0.4862 13.4926"></polygon>
        <polygon id="path-15" points="0.0912 0.1951 14.163 0.1951 14.163 37.1051 0.0912 37.1051"></polygon>
        <linearGradient x1="50%" y1="0%" x2="27.560013%" y2="100%" id="linearGradient-17">
            <stop stop-color="#FAFAFA" offset="0%"></stop>
            <stop stop-color="#FFFFFF" offset="100%"></stop>
        </linearGradient>
    </defs>
    <g id="Page-1" stroke="none" stroke-width="1" fill="none" fill-rule="evenodd">
        <g id="SnapScan-Assets" transform="translate(-311.000000, -4203.000000)">
            <g id="img-price-starter-kit" transform="translate(311.000000, 4203.000000)">
                <ellipse id="Oval" fill="#F4F5F5" fill-rule="nonzero" cx="87" cy="116.5" rx="48" ry="1.5"></ellipse>
                <g id="Group-64" transform="translate(42.000000, 6.000000)">
                    <polygon id="Fill-1" fill="#0E5C99" points="67.163 109.97 82.903 109.97 82.903 9.829 67.163 9.829"></polygon>
                    <g id="Group-17" transform="translate(67.000000, 13.899000)">
                        <g id="Group-4">
                            <mask id="mask-2" fill="white">
                                <use xlink:href="#path-1"></use>
                            </mask>
                            <g id="Clip-3"></g>
                            <path d="M15.9026,1.4401 L0.1626,1.4401" id="Stroke-2" stroke="#1D77C1" mask="url(#mask-2)"></path>
                        </g>
                        <g id="Group-7" transform="translate(0.000000, 3.000000)">
                            <mask id="mask-4" fill="white">
                                <use xlink:href="#path-3"></use>
                            </mask>
                            <g id="Clip-6"></g>
                            <path d="M15.9026,1.195 L0.1626,1.195" id="Stroke-5" stroke="#1D77C1" mask="url(#mask-4)"></path>
                        </g>
                        <g id="Group-10" transform="translate(0.000000, 6.000000)">
                            <mask id="mask-6" fill="white">
                                <use xlink:href="#path-5"></use>
                            </mask>
                            <g id="Clip-9"></g>
                            <path d="M15.9026,0.9489 L0.1626,0.9489" id="Stroke-8" stroke="#1D77C1" mask="url(#mask-6)"></path>
                        </g>
                        <g id="Group-13" transform="translate(0.000000, 90.000000)">
                            <mask id="mask-8" fill="white">
                                <use xlink:href="#path-7"></use>
                            </mask>
                            <g id="Clip-12"></g>
                            <path d="M0.1633,0.5612 L15.9033,0.5612" id="Stroke-11" stroke="#1D77C1" mask="url(#mask-8)"></path>
                        </g>
                        <g id="Group-16" transform="translate(0.000000, 87.000000)">
                            <mask id="mask-10" fill="white">
                                <use xlink:href="#path-9"></use>
                            </mask>
                            <g id="Clip-15"></g>
                            <path d="M0.1633,0.8064 L15.9033,0.8064" id="Stroke-14" stroke="#1D77C1" mask="url(#mask-10)"></path>
                        </g>
                    </g>
                    <polygon id="Fill-18" fill="#1D77C1" points="66.951 26.118 82.903 26.118 82.903 23.103 66.951 23.103"></polygon>
                    <polygon id="Fill-19" fill="#0B4573" points="59.7812 4.7118 66.4912 9.8348 82.8912 9.8348 93.7902 4.7118"></polygon>
                    <polygon id="Fill-20" fill="#F6F9FC" points="12.068 109.97 67.162 109.97 67.162 9.829 12.068 9.829"></polygon>
                    <g id="Group-30" transform="translate(12.000000, 8.899000)">
                        <g id="Group-23" transform="translate(0.000000, 67.000000)">
                            <mask id="mask-12" fill="white">
                                <use xlink:href="#path-11"></use>
                            </mask>
                            <g id="Clip-22"></g>
                            <path d="M38.5217,32.239 C38.5217,49.78 24.3017,64 6.7607,64 C-10.7803,64 -24.9993,49.78 -24.9993,32.239 C-24.9993,14.698 -10.7803,0.478 6.7607,0.478 C24.3017,0.478 38.5217,14.698 38.5217,32.239" id="Fill-21" fill="#3B77BC" mask="url(#mask-12)"></path>
                        </g>
                        <g id="Group-26" transform="translate(7.000000, 0.000000)">
                            <mask id="mask-14" fill="white">
                                <use xlink:href="#path-13"></use>
                            </mask>
                            <g id="Clip-25"></g>
                            <path d="M23.8782,1.7966 C23.8782,8.2556 18.6422,13.4926 12.1822,13.4926 C5.7232,13.4926 0.4862,8.2556 0.4862,1.7966 C0.4862,-4.6624 5.7232,-9.8994 12.1822,-9.8994 C18.6422,-9.8994 23.8782,-4.6624 23.8782,1.7966" id="Fill-24" fill="#34B82F" mask="url(#mask-14)"></path>
                        </g>
                        <g id="Group-29" transform="translate(41.000000, 9.000000)">
                            <mask id="mask-16" fill="white">
                                <use xlink:href="#path-15"></use>
                            </mask>
                            <g id="Clip-28"></g>
                            <path d="M37.0012,18.6501 C37.0012,28.8421 28.7382,37.1051 18.5462,37.1051 C8.3542,37.1051 0.0912,28.8421 0.0912,18.6501 C0.0912,8.4581 8.3542,0.1951 18.5462,0.1951 C28.7382,0.1951 37.0012,8.4581 37.0012,18.6501" id="Fill-27" fill="#FF9467" mask="url(#mask-16)"></path>
                        </g>
                    </g>
                    <g id="Group-63" transform="translate(0.000000, 0.899000)">
                        <path d="M76.3254,96.0251 C76.3254,95.2831 75.7234,94.6801 74.9814,94.6801 C74.2394,94.6801 73.6374,95.2831 73.6374,96.0251 C73.6374,96.7671 74.2394,97.3691 74.9814,97.3691 C75.7234,97.3691 76.3254,96.7671 76.3254,96.0251" id="Fill-31" fill="#1D77C1"></path>
                        <path d="M23.8772,65.9939 L24.3602,65.3289 C24.6922,65.6919 25.2062,65.9939 25.8702,65.9939 C26.5652,65.9939 26.8372,65.6619 26.8372,65.3289 C26.8372,64.3329 24.0582,64.9359 24.0582,63.1839 C24.0582,62.3989 24.7532,61.7649 25.8102,61.7649 C26.5352,61.7649 27.1692,62.0069 27.5932,62.4299 L27.1092,63.0629 C26.7162,62.6709 26.2322,62.5199 25.7202,62.5199 C25.2362,62.5199 24.9032,62.7619 24.9032,63.1239 C24.9032,64.0299 27.6832,63.4559 27.6832,65.2389 C27.6832,66.0239 27.1092,66.7189 25.8402,66.7189 C24.9642,66.7789 24.3002,66.4469 23.8772,65.9939" id="Fill-33" fill="#3B77BC"></path>
                        <path d="M30.7952,66.6882 L30.7952,64.5132 C30.7952,63.9692 30.5232,63.7892 30.1002,63.7892 C29.7072,63.7892 29.3752,64.0302 29.2242,64.2422 L29.2242,66.6582 L28.4692,66.6582 L28.4692,63.2142 L29.2242,63.2142 L29.2242,63.6672 C29.4652,63.3962 29.9182,63.1242 30.4622,63.1242 C31.2182,63.1242 31.5802,63.5162 31.5802,64.2422 L31.5802,66.6882 L30.7952,66.6882 Z" id="Fill-35" fill="#3B77BC"></path>
                        <path d="M34.6311,65.903 L34.6311,65.359 C34.4501,65.118 34.1171,64.997 33.8161,64.997 C33.3931,64.997 33.0611,65.239 33.0611,65.632 C33.0611,66.024 33.3931,66.265 33.8161,66.265 C34.1481,66.235 34.4811,66.115 34.6311,65.903 L34.6311,65.903 Z M34.6311,66.688 L34.6311,66.296 C34.3601,66.598 33.9671,66.749 33.5141,66.749 C32.9401,66.749 32.3051,66.356 32.3051,65.601 C32.3051,64.786 32.9401,64.453 33.5141,64.453 C33.9971,64.453 34.3901,64.604 34.6311,64.906 L34.6311,64.392 C34.6311,64 34.2991,63.758 33.8161,63.758 C33.4231,63.758 33.0911,63.909 32.7881,64.212 L32.4861,63.698 C32.8791,63.305 33.3931,63.124 33.9371,63.124 C34.7221,63.124 35.3871,63.456 35.3871,64.362 L35.3871,66.688 L34.6311,66.688 Z" id="Fill-37" fill="#3B77BC"></path>
                        <path d="M39.012,64.9362 C39.012,64.2722 38.618,63.7892 38.015,63.7892 C37.653,63.7892 37.289,63.9992 37.139,64.2422 L37.139,65.6012 C37.289,65.8732 37.683,66.0842 38.015,66.0842 C38.618,66.0842 39.012,65.6312 39.012,64.9362 M37.139,66.2052 L37.139,68.0182 L36.383,68.0182 L36.383,63.2142 L37.139,63.2142 L37.139,63.6982 C37.41,63.3662 37.803,63.1242 38.256,63.1242 C39.162,63.1242 39.797,63.7892 39.797,64.9362 C39.797,66.0842 39.162,66.7482 38.256,66.7482 C37.803,66.7792 37.41,66.5682 37.139,66.2052" id="Fill-39" fill="#3B77BC"></path>
                        <path d="M40.2502,65.9939 L40.7332,65.3289 C41.0652,65.6919 41.5792,65.9939 42.2442,65.9939 C42.9382,65.9939 43.2102,65.6619 43.2102,65.3289 C43.2102,64.3329 40.4322,64.9359 40.4322,63.1839 C40.4322,62.3989 41.1262,61.7649 42.1842,61.7649 C42.9082,61.7649 43.5432,62.0069 43.9662,62.4299 L43.4822,63.0629 C43.0902,62.6709 42.6062,62.5199 42.0932,62.5199 C41.6092,62.5199 41.2772,62.7619 41.2772,63.1239 C41.2772,64.0299 44.0572,63.4559 44.0572,65.2389 C44.0572,66.0239 43.4822,66.7189 42.2142,66.7189 C41.3082,66.7789 40.6732,66.4469 40.2502,65.9939" id="Fill-41" fill="#3B77BC"></path>
                        <path d="M44.5999,64.9362 C44.5999,63.8792 45.3259,63.1242 46.3829,63.1242 C47.0779,63.1242 47.4699,63.4262 47.7119,63.7282 L47.2289,64.1812 C47.0469,63.9092 46.7759,63.7892 46.4429,63.7892 C45.8089,63.7892 45.3859,64.2722 45.3859,64.9362 C45.3859,65.6012 45.8089,66.0842 46.4429,66.0842 C46.7759,66.0842 47.0469,65.9332 47.2289,65.6622 L47.7119,66.1152 C47.4699,66.4472 47.0779,66.7182 46.3829,66.7182 C45.3259,66.7792 44.5999,65.9942 44.5999,64.9362" id="Fill-43" fill="#3B77BC"></path>
                        <path d="M50.5217,65.903 L50.5217,65.359 C50.3397,65.118 50.0077,64.997 49.7057,64.997 C49.2827,64.997 48.9507,65.239 48.9507,65.632 C48.9507,66.024 49.2827,66.265 49.7057,66.265 C50.0077,66.235 50.3397,66.115 50.5217,65.903 L50.5217,65.903 Z M50.5217,66.688 L50.5217,66.296 C50.2497,66.598 49.8567,66.749 49.4037,66.749 C48.8297,66.749 48.1957,66.356 48.1957,65.601 C48.1957,64.786 48.8297,64.453 49.4037,64.453 C49.8867,64.453 50.2797,64.604 50.5217,64.906 L50.5217,64.392 C50.5217,64 50.1887,63.758 49.7057,63.758 C49.3127,63.758 48.9807,63.909 48.6787,64.212 L48.3757,63.698 C48.7687,63.305 49.2827,63.124 49.8267,63.124 C50.6117,63.124 51.2767,63.456 51.2767,64.362 L51.2767,66.688 L50.5217,66.688 Z" id="Fill-45" fill="#3B77BC"></path>
                        <path d="M54.5999,66.6882 L54.5999,64.5132 C54.5999,63.9692 54.3279,63.7892 53.9049,63.7892 C53.5119,63.7892 53.1799,64.0302 53.0289,64.2422 L53.0289,66.6582 L52.2439,66.6582 L52.2439,63.2142 L52.9979,63.2142 L52.9979,63.6672 C53.2409,63.3962 53.6939,63.1242 54.2369,63.1242 C54.9929,63.1242 55.3549,63.5162 55.3549,64.2422 L55.3549,66.6882 L54.5999,66.6882 Z" id="Fill-47" fill="#3B77BC"></path>
                        <path d="M39.6155,58.8513 C37.3195,58.8513 35.4465,56.9783 35.4465,54.6823 C35.4465,52.3863 37.3195,50.5133 39.6155,50.5133 C41.9115,50.5133 43.7845,52.3863 43.7845,54.6823 C43.7845,56.9783 41.9115,58.8513 39.6155,58.8513 M39.6155,50.2113 C37.1385,50.2113 35.1445,52.2053 35.1445,54.6823 C35.1445,57.1603 37.1385,59.1533 39.6155,59.1533 C42.0935,59.1533 44.0875,57.1603 44.0875,54.6823 C44.0875,52.2053 42.0935,50.2113 39.6155,50.2113" id="Fill-49" fill="#3B77BC"></path>
                        <path d="M39.0422,52.7487 L38.0152,52.7487 C37.8632,52.7487 37.7122,52.8697 37.7122,53.0517 L37.7122,54.0777 C37.7122,54.2287 37.8332,54.3807 38.0152,54.3807 L39.0422,54.3807 C39.1922,54.3807 39.3442,54.2597 39.3442,54.0777 L39.3442,53.0517 C39.3132,52.8697 39.1922,52.7487 39.0422,52.7487" id="Fill-51" fill="#3B77BC"></path>
                        <path d="M41.2473,52.7487 L40.2203,52.7487 C40.0683,52.7487 39.9183,52.8697 39.9183,53.0517 L39.9183,54.0777 C39.9183,54.2287 40.0383,54.3807 40.2203,54.3807 L41.2473,54.3807 C41.3973,54.3807 41.5493,54.2597 41.5493,54.0777 L41.5493,53.0517 C41.5493,52.8697 41.4283,52.7487 41.2473,52.7487" id="Fill-53" fill="#3B77BC"></path>
                        <path d="M39.0422,54.9548 L38.0152,54.9548 C37.8632,54.9548 37.7122,55.0748 37.7122,55.2568 L37.7122,56.3138 C37.7122,56.4648 37.8332,56.6158 38.0152,56.6158 L39.0422,56.6158 C39.1922,56.6158 39.3442,56.4948 39.3442,56.3138 L39.3442,55.2868 C39.3132,55.1048 39.1922,54.9548 39.0422,54.9548" id="Fill-55" fill="#3B77BC"></path>
                        <path d="M25.1868,43.779 C25.1868,45.862 23.4998,47.55 21.4158,47.55 C19.3338,47.55 17.6468,45.862 17.6468,43.779 C17.6468,41.697 19.3338,40.009 21.4158,40.009 C23.4998,40.009 25.1868,41.697 25.1868,43.779" id="Fill-57" fill="#D3E1F2"></path>
                        <path d="M58.5247,85.3747 C58.5247,87.9187 56.4617,89.9807 53.9187,89.9807 C51.3747,89.9807 49.3117,87.9187 49.3117,85.3747 C49.3117,82.8307 51.3747,80.7687 53.9187,80.7687 C56.4617,80.7687 58.5247,82.8307 58.5247,85.3747" id="Fill-59" fill="#FFD26F"></path>
                        <polygon id="Fill-61" fill="#E5EDF7" points="67.1682 8.9372 12.0822 8.9372 0.0132 0.0192 57.5742 0.0192"></polygon>
                    </g>
                </g>
                <rect id="Rectangle" fill-opacity="0.1" fill="#263943" fill-rule="nonzero" x="46" y="42" width="21" height="74"></rect>
                <g id="image/paypoint" transform="translate(7.000000, 40.000000)">
                    <ellipse id="Oval" fill-opacity="0.05" fill="#263943" fill-rule="nonzero" cx="35.1" cy="82.125" rx="31.95" ry="2.475"></ellipse>
                    <g id="Group-133" stroke-width="1" fill-rule="evenodd" transform="translate(7.650000, 0.000000)">
                        <g id="Group-132">
                            <g id="Group-4" transform="translate(0.000000, 18.000000)" fill="url(#linearGradient-17)">
                                <path d="M43.166565,63.870795 L42.001965,62.911845 L49.724865,0.013095 L7.577415,0.013095 L0.015165,61.602345 C-0.132885,62.807895 0.807615,63.870795 2.022165,63.870795 L43.166565,63.870795 Z" id="Fill-2"></path>
                            </g>
                            <path d="M36.243855,74.25396 L5.114655,74.25396 C4.654305,74.25396 4.265955,74.59731 4.209705,75.05406 C4.143555,75.59721 4.567005,76.07646 5.114655,76.07646 L36.243855,76.07646 C36.704205,76.07646 37.092105,75.73311 37.148355,75.27636 C37.214955,74.73276 36.791055,74.25396 36.243855,74.25396" id="Fill-5" fill="#D7DFEA"></path>
                            <g id="Group-9" transform="translate(40.950000, 69.750000)" fill="#C7CCD5">
                                <path d="M2.73531488,10.1376 L2.78872786,10.1376 C2.76816546,10.1303355 2.75385951,10.1267805 2.74581,10.126935 C2.19003431,10.1376 2.24255976,9.67737199 2.24660976,9.64317199 L3.40281,0.221985 L1.38726,0.221985 L0.22131,9.716085 C0.10971,10.625985 0.56421,11.485935 1.37961,11.905335 C1.69821,12.069585 2.03931,12.150135 2.37726,12.150135 C2.90331,12.150135 3.42171,11.955285 3.83256,11.579085 L2.73531488,10.1376 Z" id="Fill-7"></path>
                                <rect id="Rectangle" fill-rule="nonzero" x="1.8" y="10.125" width="14.85" height="2.025" rx="1.0125"></rect>
                            </g>
                            <polygon id="Fill-10" fill="#C7CCD5" points="45.616545 59.679585 50.768145 17.722935 48.752595 17.722935 43.600995 59.679585"></polygon>
                            <path d="M25.56405,44.903115 C25.60815,44.543565 25.65135,44.191215 25.69545,43.835265 L24.6258,43.835265 C24.58125,44.197515 24.53805,44.549415 24.49485,44.903115 L25.56405,44.903115 Z M31.30605,42.739965 L30.22245,42.739965 C30.17835,43.100415 30.13515,43.452765 30.09105,43.810515 L31.17465,43.810515 C31.21875,43.449615 31.26195,43.100415 31.30605,42.739965 L31.30605,42.739965 Z M34.31475,44.904915 C34.40475,44.174565 34.4925,43.459965 34.5807,42.740415 L33.4917,42.740415 C33.44715,43.102215 33.40395,43.455465 33.3585,43.824915 L31.1904,43.824915 C31.14495,44.194365 31.10175,44.547165 31.05765,44.904915 L34.31475,44.904915 Z M35.27595,46.022265 L32.0175,46.022265 C31.88295,47.117565 31.7502,48.202515 31.61745,49.282965 L34.87545,49.282965 C35.00955,48.191715 35.14185,47.113965 35.27595,46.022265 L35.27595,46.022265 Z M19.00395,53.672265 C18.6534,53.671815 18.30285,53.671365 17.9523,53.671365 L17.95635,53.674965 C17.9658,53.533215 17.97165,53.391465 17.98605,53.249265 C18.00495,53.066565 18.02565,52.882965 18.05445,52.700265 C18.0702,52.600815 18.036,52.572015 17.9406,52.573815 C17.6778,52.578765 17.4159,52.575615 17.15355,52.575615 L16.9812,52.575615 C17.16075,51.113565 17.3385,49.666365 17.51805,48.202965 L18.5922,48.202965 C18.6381,47.829465 18.6822,47.472165 18.72765,47.103165 L17.64585,47.103165 C17.6904,46.739565 17.73405,46.386765 17.77905,46.018215 L14.4954,46.018215 C14.58585,45.283365 14.67405,44.564265 14.7645,43.828065 L13.6764,43.828065 C13.7223,43.457715 13.7655,43.104465 13.8105,42.736365 L14.89275,42.736365 L14.88915,42.732315 C14.8455,43.089615 14.8014,43.447365 14.7555,43.822665 C14.9004,43.822665 15.0228,43.820415 15.1443,43.823115 C15.37875,43.827165 15.6132,43.834365 15.8481,43.839765 C15.8049,44.192565 15.7617,44.546265 15.7185,44.898165 L16.812,44.898165 C16.8561,44.538165 16.8993,44.190315 16.9416,43.843815 L15.8427,43.843815 C15.89265,43.473465 15.94215,43.103115 15.9921,42.732315 L15.9876,42.736365 L17.09055,42.736365 C17.13825,42.350265 17.18235,41.991615 17.226,41.633415 L17.22195,41.637015 L20.49075,41.637015 C20.4444,42.012765 20.40075,42.366465 20.3553,42.737265 L18.1908,42.737265 C18.0558,43.835715 17.92305,44.916165 17.79075,45.995715 L19.9566,45.995715 C20.0025,45.621315 20.0466,45.260415 20.0907,44.899965 L20.08755,44.903115 L21.19275,44.903115 C21.28185,44.175465 21.3696,43.460865 21.46005,42.725565 L23.65785,42.725565 C23.70375,42.351615 23.74695,41.997915 23.79195,41.632065 L25.96365,41.632065 C26.0091,41.262615 26.05275,40.905315 26.09865,40.530465 L25.0299,40.530465 C25.0758,40.159215 25.119,39.805515 25.164,39.439215 C25.23645,39.439215 25.2999,39.440115 25.3629,39.439215 C25.66485,39.435165 25.9668,39.430665 26.26785,39.426165 C26.2332,39.657915 26.1972,39.889665 26.16435,40.120965 C26.14545,40.257315 26.1306,40.393215 26.1126,40.541265 L27.2007,40.541265 C27.0216,42.000165 26.84385,43.446465 26.6643,44.910315 L27.765,44.910315 C27.7191,45.283815 27.675,45.641115 27.62955,46.011465 L29.8215,46.011465 C29.7756,46.384965 29.7315,46.744515 29.6874,47.104065 C29.3238,47.103615 28.9602,47.103615 28.59435,47.103615 C28.50345,47.843415 28.41525,48.562065 28.32525,49.295115 L29.41425,49.295115 C29.37015,49.654215 29.32605,50.012865 29.28195,50.371515 L30.36645,50.371515 C30.411,50.007465 30.4542,49.658265 30.49785,49.300065 L29.4084,49.300065 C29.5002,48.567015 29.592,47.833515 29.6838,47.100015 L30.76695,47.100015 C30.85695,46.365615 30.94515,45.647415 31.0356,44.910315 L28.84725,44.910315 C28.9827,43.807365 29.1159,42.722865 29.2509,41.623065 L28.1745,41.623065 C28.2195,41.254065 28.26315,40.900365 28.30815,40.532265 L29.3823,40.532265 C29.4273,40.163715 29.47095,39.810015 29.5164,39.439215 L29.34945,39.439215 C28.503,39.439215 27.657,39.439665 26.811,39.438765 C26.6283,39.438765 26.44605,39.433365 26.2638,39.430665 C26.26515,39.372615 26.2611,39.314565 26.2683,39.256515 C26.3412,38.654415 26.41545,38.052765 26.48925,37.450665 C26.49645,37.392615 26.5032,37.335015 26.51265,37.259415 L25.4322,37.259415 C25.4781,36.887715 25.5213,36.534015 25.5645,36.179865 C25.61265,36.172665 25.6617,36.160515 25.7094,36.160515 C25.97625,36.158265 26.2431,36.154665 26.5086,36.161865 C26.6211,36.165015 26.658,36.125865 26.66745,36.016965 C26.68545,35.809965 26.71605,35.602965 26.7417,35.395515 C26.75475,35.289315 26.76735,35.183565 26.7804,35.080065 L25.7031,35.080065 C25.65675,35.455815 25.61175,35.820315 25.5672,36.184365 C25.35705,36.177165 25.1469,36.167715 24.9363,36.162765 C24.7806,36.159615 24.62355,36.162315 24.4521,36.162315 C24.498,35.786565 24.54165,35.432865 24.58485,35.079165 L23.4927,35.079165 C23.44815,35.441865 23.40495,35.795115 23.3613,36.150165 L22.2588,36.150165 C22.30335,35.784765 22.347,35.431065 22.392,35.063865 L21.2994,35.063865 C21.3453,34.689915 21.3894,34.329915 21.4335,33.970365 L21.42945,33.973515 L23.63805,33.973515 C23.6844,33.596415 23.72805,33.238665 23.7717,32.887215 L28.13985,32.887215 C28.13085,32.958315 28.12365,33.017715 28.11645,33.076665 C27.99675,34.051815 27.87885,35.026965 27.7551,36.002115 C27.73935,36.123165 27.7659,36.163665 27.8919,36.162315 C28.5111,36.156465 29.12985,36.159615 29.74815,36.160065 C29.8053,36.160065 29.8611,36.165015 29.916,36.167715 C29.8701,36.540315 29.8269,36.894015 29.7819,37.261215 L27.61425,37.261215 C27.5697,37.627965 27.52605,37.980765 27.48105,38.346165 C27.74925,38.346165 28.0062,38.346615 28.26315,38.345715 C29.09475,38.343915 29.9268,38.341665 30.7584,38.339415 L30.7557,38.335815 C30.62115,39.431115 30.4866,40.526415 30.35205,41.623065 L34.7211,41.623065 C34.76655,41.253615 34.81065,40.894065 34.85475,40.534515 L34.8507,40.537665 C35.2188,40.536315 35.58645,40.534515 35.95455,40.533165 C35.91045,40.895415 35.8659,41.257665 35.81955,41.637015 L36.918,41.637015 L36.9144,41.633415 C36.86985,41.997015 36.8253,42.360615 36.77895,42.737715 L35.6931,42.737715 C35.604,43.465815 35.51625,44.179965 35.4267,44.909865 L36.5139,44.909865 C36.46845,45.282465 36.42435,45.640215 36.38025,46.000215 L37.48005,46.000215 C37.52505,45.634365 37.56915,45.277065 37.61415,44.907615 L38.70135,44.907615 C38.7108,44.831565 38.718,44.768115 38.72655,44.705115 C38.76615,44.413965 38.8062,44.122815 38.8458,43.831665 L38.8431,43.834815 L39.92985,43.834815 C39.88665,44.187165 39.843,44.539515 39.798,44.907165 L40.878,44.907165 C40.788,45.642465 40.69935,46.361565 40.60935,47.096415 L38.44215,47.096415 C38.3958,47.474415 38.35125,47.837565 38.3067,48.200715 L38.3103,48.197565 L36.1089,48.197565 C36.0171,48.941415 35.928,49.670415 35.83845,50.398965 L35.84205,50.395365 C35.81775,50.393565 35.79345,50.389965 35.76915,50.389965 C34.36965,50.389515 32.9706,50.389065 31.5711,50.389965 C31.5387,50.389965 31.5054,50.399865 31.45905,50.407515 C31.4154,50.763915 31.37265,51.113115 31.3272,51.481215 L28.0422,51.481215 C27.9963,51.855615 27.95265,52.211115 27.909,52.566615 L27.91305,52.562565 C27.60165,52.567065 27.28935,52.576965 26.97885,52.572915 C26.85825,52.571565 26.81145,52.603065 26.79975,52.729065 C26.77095,53.034615 26.7273,53.340615 26.6886,53.656065 L23.4135,53.656065 C23.4567,53.303715 23.50035,52.950915 23.54535,52.581015 L21.35745,52.581015 C21.40335,52.206615 21.44745,51.848865 21.49335,51.474015 L21.6567,51.474015 C22.27005,51.474015 22.8834,51.474915 23.4972,51.473565 C23.55525,51.473565 23.6151,51.462765 23.67405,51.457365 L23.67045,51.452865 C23.62545,51.818265 23.58045,52.183665 23.53455,52.560765 L26.8155,52.560765 C26.8587,52.208415 26.9028,51.850665 26.9487,51.476715 L28.03815,51.476715 C28.08315,51.110865 28.1259,50.761665 28.1709,50.395365 L27.0909,50.395365 C27.22635,49.292865 27.35955,48.207465 27.4941,47.112165 L26.397,47.112165 C26.3079,47.837115 26.2197,48.557565 26.1297,49.286565 L23.9562,49.286565 C23.99985,48.928365 24.04395,48.571065 24.0894,48.199815 L25.1613,48.199815 C25.20675,47.833065 25.24995,47.478915 25.29585,47.106765 L26.3817,47.106765 C26.42715,46.735965 26.4708,46.382715 26.51625,46.011015 L24.34725,46.011015 C24.3927,45.639315 24.43635,45.285615 24.4809,44.922465 L23.3865,44.922465 C23.3424,45.281115 23.2992,45.634365 23.25285,46.011015 L22.1535,46.011015 C22.10805,46.383615 22.06485,46.733265 22.02075,47.092365 L20.90925,47.092365 C20.9538,46.726965 20.99925,46.358415 21.0447,45.990315 C21.27555,45.996615 21.50595,46.004265 21.7368,46.008765 C21.87225,46.011465 22.0086,46.009215 22.1436,46.009215 C22.18995,45.632565 22.23315,45.279765 22.27725,44.922465 L21.18015,44.922465 C21.1356,45.286065 21.09195,45.640215 21.0483,45.994365 C20.8062,46.000215 20.5641,46.006515 20.32245,46.011015 C20.2095,46.013265 20.097,46.011465 19.9746,46.011465 C19.8846,46.744065 19.79685,47.458665 19.70685,48.192165 L21.88305,48.192165 C21.83715,48.564315 21.79395,48.918465 21.7485,49.288365 L22.83525,49.288365 C22.7898,49.658265 22.7466,50.012415 22.7016,50.377815 L20.51955,50.377815 C20.5632,50.019615 20.6064,49.665915 20.65185,49.297815 L19.5633,49.297815 C19.60875,48.929265 19.65195,48.574665 19.69695,48.208365 L18.6165,48.208365 C18.52785,48.929715 18.43965,49.649265 18.3492,50.385015 L19.4256,50.385015 C19.3806,50.754015 19.3374,51.107265 19.29195,51.473115 L20.37375,51.473115 C20.32785,51.843915 20.2842,52.201665 20.2383,52.575615 C19.93005,52.575615 19.62855,52.582365 19.32975,52.572465 C19.1934,52.567965 19.1457,52.609365 19.13445,52.746165 C19.1133,53.003115 19.0755,53.260965 19.0413,53.517915 C19.03455,53.570565 19.01385,53.623215 18.99945,53.675415 L19.00395,53.672265 Z" id="Fill-12" fill="#143641"></path>
                            <path d="M32.819895,39.430485 L33.887745,39.430485 C33.932295,39.069585 33.975045,38.717235 34.019145,38.362185 L32.951295,38.362185 C32.906295,38.724435 32.863545,39.073185 32.819895,39.430485 L32.819895,39.430485 Z M31.156245,35.073135 L33.338745,35.073135 C33.384195,34.703235 33.427845,34.349085 33.473295,33.976935 L34.566795,33.976935 C34.657245,33.239835 34.745445,32.520285 34.834995,31.791285 L40.303845,31.791285 C40.260195,32.149935 40.216545,32.502735 40.171095,32.873085 L37.994445,32.873085 C37.948545,33.243885 37.905345,33.598035 37.859445,33.971535 L34.580745,33.971535 C34.534845,34.344135 34.491645,34.697835 34.446645,35.064585 L36.613845,35.064585 C36.569295,35.430885 36.525645,35.784585 36.480645,36.149985 L34.307595,36.149985 C34.350795,35.797185 34.394445,35.443485 34.438995,35.079435 L33.345945,35.079435 C33.302295,35.437185 33.259095,35.790885 33.213645,36.161235 L32.128695,36.161235 C32.083245,36.532485 32.040045,36.886185 31.994145,37.257885 L35.262495,37.257885 C35.217495,37.624185 35.174295,37.972935 35.130195,38.333835 L36.223695,38.333835 C36.267345,37.980585 36.310545,37.626885 36.355995,37.256535 L37.448145,37.256535 C37.538145,36.523485 37.625895,35.807535 37.714995,35.080335 L38.813445,35.080335 C38.770695,35.432685 38.727495,35.782335 38.682495,36.149535 C38.759895,36.153135 38.825595,36.158985 38.892195,36.158985 C39.144195,36.159885 39.397545,36.155835 39.649095,36.160785 C39.745395,36.163035 39.782745,36.131535 39.793095,36.033885 C39.819645,35.771535 39.855645,35.509185 39.888045,35.246835 C39.894345,35.193735 39.900645,35.140635 39.908295,35.078085 L40.999095,35.078085 C40.955895,35.432235 40.912245,35.785485 40.866795,36.154935 L39.782295,36.154935 C39.736845,36.527985 39.692745,36.885285 39.646845,37.259685 L37.458945,37.259685 C37.413945,37.625985 37.371195,37.975185 37.326195,38.341935 L39.504645,38.341935 C39.459195,38.712735 39.415995,39.065985 39.370095,39.437685 L40.467645,39.437685 C40.422195,39.810285 40.378545,40.163985 40.333095,40.534335 L39.248595,40.534335 L39.250845,40.537485 C39.295395,40.174785 39.339945,39.811635 39.385845,39.439485 L37.183995,39.439485 C37.227645,39.080835 37.272195,38.722185 37.316295,38.360385 L36.220995,38.360385 C36.175995,38.728035 36.132345,39.083985 36.088695,39.439485 L34.998345,39.439485 C34.987095,39.529485 34.979445,39.597435 34.970445,39.665835 C34.930845,39.956085 34.890795,40.246785 34.850745,40.537485 L34.854795,40.534335 L32.670945,40.534335 C32.716395,40.163985 32.760495,39.806235 32.806395,39.430935 L31.712895,39.430935 C31.757895,39.064185 31.800645,38.714985 31.845645,38.348685 C31.764195,38.348685 31.695795,38.349585 31.627845,38.348685 C31.337145,38.344635 31.046445,38.340135 30.755745,38.336085 L30.758445,38.339685 C30.892545,37.249335 31.026195,36.159435 31.160295,35.069085 L31.156245,35.073135 Z" id="Fill-14" fill="#143641"></path>
                            <path d="M25.671735,26.310735 C25.760385,25.588935 25.849035,24.867135 25.939935,24.128235 L24.850935,24.128235 C24.896385,23.757435 24.940035,23.404185 24.984585,23.041035 L29.345985,23.041035 C29.301885,23.398335 29.259135,23.747085 29.215035,24.107535 L30.312135,24.107535 C30.355335,23.754735 30.398535,23.401935 30.443085,23.040585 L34.815735,23.040585 C34.727085,23.763735 34.639335,24.478785 34.549785,25.207335 L33.471585,25.207335 C33.515235,24.854535 33.558435,24.500385 33.603435,24.134085 L31.404735,24.134085 C31.360185,24.494985 31.316985,24.845085 31.271985,25.212285 C31.204035,25.215435 31.146885,25.220385 31.089735,25.220385 C30.480885,25.220835 29.871585,25.226685 29.264085,25.216785 C29.107485,25.214085 29.070585,25.264485 29.054835,25.409385 C28.987785,26.017785 28.908585,26.626635 28.833885,27.235485 C28.827135,27.288585 28.820835,27.341685 28.813185,27.402435 L29.906235,27.402435 C29.950335,27.041535 29.993985,26.687385 30.038535,26.322435 L33.326235,26.322435 C33.283035,26.678385 33.238935,27.036135 33.193035,27.408735 L34.279785,27.408735 C34.234785,27.777285 34.191135,28.130985 34.145685,28.502235 L30.877335,28.502235 C30.832335,28.868535 30.789585,29.217735 30.743685,29.590335 L31.829535,29.590335 C31.781835,29.977785 31.736835,30.342735 31.691835,30.707685 L31.695885,30.703635 L30.590685,30.703635 C30.637935,30.318885 30.681585,29.962035 30.725235,29.605635 L29.629035,29.605635 L29.631735,29.608785 C29.676285,29.244735 29.721285,28.881135 29.768085,28.500885 L27.581535,28.500885 C27.626985,28.130535 27.670185,27.776385 27.716085,27.404685 L26.630235,27.404685 C26.677035,27.026235 26.721135,26.665785 26.765685,26.305785 L27.856935,26.305785 C27.898785,25.962885 27.941985,25.633035 27.975285,25.303185 C27.977985,25.274835 27.917685,25.226235 27.880335,25.224435 C27.694035,25.216335 27.505485,25.220835 27.317835,25.220835 L26.903385,25.220835 C26.857035,25.599735 26.813385,25.955235 26.769735,26.310285 C26.402535,26.309385 26.035335,26.308035 25.668135,26.307135 L25.671735,26.310735 Z" id="Fill-16" fill="#143641"></path>
                            <path d="M38.306655,48.20076 L40.476105,48.20076 C40.386105,48.93426 40.297455,49.65381 40.207455,50.38776 L38.041605,50.38776 C37.997055,50.75181 37.953855,51.10056 37.908405,51.47001 L38.988405,51.47001 C38.897505,52.20981 38.809305,52.92936 38.720205,53.65476 C38.358405,53.65476 38.004255,53.65476 37.649205,53.65521 C37.647405,53.60796 37.640655,53.56071 37.646055,53.51346 C37.676205,53.25201 37.702755,52.99011 37.744155,52.72911 C37.763955,52.60221 37.723005,52.56891 37.602405,52.57341 C37.379655,52.58196 37.158255,52.57566 36.935955,52.57566 L36.681255,52.57566 C36.634905,52.95456 36.591255,53.30691 36.548955,53.65206 L37.653705,53.65206 C37.628505,53.79426 37.599255,53.93601 37.579455,54.07821 C37.548405,54.29961 37.524105,54.52101 37.495755,54.75186 L34.212105,54.75186 C34.300755,54.03276 34.388505,53.31771 34.478505,52.58601 C34.420455,52.58196 34.374555,52.57611 34.327305,52.57611 C33.699105,52.57521 33.070005,52.57881 32.442255,52.57296 C32.319405,52.57206 32.278455,52.60716 32.264505,52.73091 C32.195205,53.34426 32.116905,53.95806 32.041305,54.57141 C32.034105,54.62946 32.026905,54.68751 32.018805,54.75321 L30.930255,54.75321 C30.974355,54.39456 31.018005,54.03726 31.062555,53.67366 L29.977155,53.67366 C29.933505,54.03276 29.889855,54.38646 29.845305,54.75051 L28.741005,54.75051 C28.784655,54.39456 28.828305,54.04086 28.873755,53.67141 L27.777105,53.67141 C27.823905,53.29116 27.868455,52.92711 27.913005,52.56261 C27.913005,52.56261 27.909405,52.56666 27.909405,52.56666 C27.938205,52.56846 27.967455,52.57251 27.997155,52.57251 C29.386755,52.57296 30.776805,52.57296 32.166405,52.57251 C32.203755,52.57251 32.242005,52.56396 32.293755,52.55766 C32.338755,52.19271 32.381955,51.83901 32.427855,51.46641 L35.710605,51.46641 C35.756055,51.09651 35.799255,50.74596 35.842005,50.39541 L35.838405,50.39901 L36.940005,50.39901 C36.987705,50.01021 37.030905,49.66101 37.075905,49.29336 L38.163105,49.29336 C38.173005,49.21191 38.180205,49.14891 38.188755,49.08546 C38.229255,48.78936 38.269755,48.49326 38.310255,48.19761 L38.306655,48.20076 Z" id="Fill-18" fill="#143641"></path>
                            <path d="M9.186975,53.65593 L14.640975,53.65593 C14.864625,51.83298 15.087375,50.01993 15.309675,48.20733 L9.856125,48.20733 C9.632475,50.02713 9.410625,51.83613 9.186975,53.65593 L9.186975,53.65593 Z M7.956675,54.74943 C8.269425,52.20153 8.580825,49.66353 8.894025,47.11383 L16.539975,47.11383 C16.228125,49.65543 15.916275,52.19703 15.602625,54.74943 L7.956675,54.74943 Z" id="Fill-20" fill="#143641"></path>
                            <path d="M41.65794,29.59542 C41.88294,27.76167 42.10569,25.94907 42.32934,24.12927 C42.26994,24.12612 42.22134,24.12207 42.17274,24.12207 C40.46634,24.12162 38.75949,24.12342 37.05309,24.11847 C36.90459,24.11802 36.87039,24.16707 36.85374,24.30432 C36.64944,26.00622 36.44064,27.70767 36.22644,29.40957 C36.20754,29.55942 36.24129,29.59947 36.39204,29.59902 C38.08944,29.59362 39.78594,29.59542 41.48289,29.59542 L41.65794,29.59542 Z M34.97634,30.69702 C35.29134,28.13247 35.60274,25.59537 35.91594,23.04477 L43.57539,23.04477 C43.56774,23.10732 43.56054,23.16492 43.55334,23.22252 C43.25499,25.65207 42.95574,28.08162 42.66189,30.51117 C42.64389,30.65787 42.60564,30.70152 42.45129,30.70107 C40.01724,30.69567 37.58274,30.69702 35.14824,30.69702 L34.97634,30.69702 Z" id="Fill-22" fill="#143641"></path>
                            <path d="M18.269145,24.13377 L12.813795,24.13377 C12.589695,25.95627 12.367845,27.76617 12.144195,29.58597 L17.599545,29.58597 C17.823195,27.76617 18.045495,25.95627 18.269145,24.13377 M18.557595,30.68937 L10.915695,30.68937 C11.228445,28.14012 11.540745,25.59897 11.854395,23.04432 L19.496295,23.04432 C19.183995,25.58862 18.871695,28.13067 18.557595,30.68937" id="Fill-24" fill="#143641"></path>
                            <path d="M16.932555,35.07309 C16.976655,34.71399 17.020755,34.35444 17.067105,33.97734 L18.161955,33.97734 C18.194355,33.71499 18.222705,33.47019 18.255105,33.22539 C18.271305,33.10344 18.295155,32.98149 18.315405,32.85954 L18.312705,32.86179 C18.346005,32.86629 18.378405,32.87484 18.412605,32.87484 C19.426905,32.87529 20.442105,32.87529 21.456855,32.87484 C21.490155,32.87484 21.524355,32.87214 21.566205,32.87034 C21.610305,32.51169 21.653505,32.16249 21.698955,31.79034 L19.532205,31.79034 C19.801755,29.59209 20.069055,27.41679 20.337705,25.22979 L21.420855,25.22979 C21.198555,27.04059 20.975805,28.85364 20.751705,30.68109 L21.844305,30.68109 C22.067955,28.86264 22.290255,27.04869 22.513905,25.22664 L23.597955,25.22664 C23.554305,25.57944 23.511105,25.93269 23.464755,26.31069 L25.671555,26.31069 L25.668405,26.30709 C25.578855,27.03699 25.489305,27.76689 25.399305,28.49679 L24.302655,28.49679 C24.347205,28.13499 24.390855,27.78129 24.434955,27.42219 L23.335605,27.42219 C23.111955,29.24244 22.889655,31.05054 22.665555,32.87709 L21.577005,32.87709 C21.567105,32.95854 21.559905,33.02199 21.551355,33.08499 C21.510855,33.38109 21.470355,33.67764 21.429855,33.97374 L21.433455,33.97014 L20.354805,33.97014 C20.308455,34.34679 20.265255,34.70049 20.219805,35.06904 L16.929405,35.06904 L16.932555,35.07309 Z" id="Fill-26" fill="#143641"></path>
                            <path d="M14.892615,42.73614 C14.981715,42.00984 15.070815,41.28309 15.161265,40.54734 L14.075865,40.54734 C14.031765,40.90374 13.988115,41.26104 13.942665,41.63139 L12.852765,41.63139 C12.807315,42.00174 12.763215,42.35949 12.718215,42.72444 L11.626065,42.72444 C11.670165,42.36354 11.714265,42.00624 11.759715,41.63679 L12.832065,41.63679 C12.922515,40.90194 13.011165,40.17924 13.101615,39.44214 L9.841815,39.44214 C9.931815,38.71269 10.019115,37.99764 10.108665,37.27044 L12.281715,37.27044 C12.238515,37.62279 12.195315,37.97244 12.150315,38.34234 L14.340465,38.34234 C14.294565,38.71629 14.251365,39.07044 14.206815,39.43134 L15.286815,39.43134 C15.375015,38.71404 15.463215,37.99539 15.553215,37.26459 L14.485365,37.26459 C14.530815,36.89559 14.574465,36.53829 14.619465,36.17244 L15.699015,36.17244 L15.695415,36.16839 C15.651765,36.52659 15.607665,36.88479 15.561765,37.25874 C15.655365,37.25874 15.723765,37.25784 15.791715,37.25874 C16.081965,37.26234 16.372215,37.26684 16.662465,37.27089 L16.659315,37.26729 C16.616115,37.62189 16.572465,37.97649 16.527915,38.33964 L17.630415,38.33964 L17.627715,38.33604 C17.583615,38.70369 17.539965,39.07089 17.496765,39.43854 L16.407315,39.43854 C16.360515,39.81879 16.317315,40.17204 16.272765,40.53339 L17.362215,40.53339 C17.315415,40.90104 17.268615,41.26914 17.221815,41.63679 L17.226315,41.63319 L16.122915,41.63319 C16.076115,42.01659 16.032015,42.37614 15.987915,42.73614 L15.991965,42.73209 L14.889465,42.73209 L14.892615,42.73614 Z" id="Fill-28" fill="#143641"></path>
                            <path d="M15.00201,32.88537 L13.93686,32.88537 C13.89186,33.25257 13.84821,33.60942 13.80411,33.96537 L14.86971,33.96537 C14.91426,33.60267 14.95746,33.24942 15.00201,32.88537 M18.31536,32.85927 C18.26136,32.86467 18.20691,32.87457 18.15336,32.87457 C17.52966,32.87592 16.90596,32.87547 16.28226,32.87547 L16.10766,32.87547 C16.06221,33.24582 16.01856,33.59952 15.97311,33.97212 L14.88096,33.97212 C14.83506,34.34427 14.79186,34.69797 14.74686,35.06607 L11.46861,35.06607 C11.42361,35.43372 11.38041,35.78742 11.33541,36.15192 L10.24776,36.15192 C10.42596,34.70067 10.60416,33.24942 10.78326,31.79007 L11.86326,31.79007 C11.81916,32.14872 11.77596,32.50242 11.73096,32.86557 L12.82491,32.86557 C12.86856,32.50827 12.91221,32.15412 12.95676,31.79142 L18.44316,31.79142 C18.39906,32.15367 18.35541,32.50782 18.31221,32.86197 C18.31266,32.86197 18.31536,32.85927 18.31536,32.85927" id="Fill-30" fill="#143641"></path>
                            <path d="M15.69879,36.172485 C15.74289,35.812035 15.78699,35.452035 15.83379,35.073135 L16.93269,35.073135 L16.92909,35.069085 C16.88544,35.427735 16.84134,35.786385 16.79544,36.161235 L20.09349,36.161235 C20.04669,36.541935 20.00214,36.906435 19.95714,37.270935 L19.96029,37.268235 L18.84654,37.268235 C18.80154,37.634985 18.75834,37.983285 18.71514,38.336085 L17.62749,38.336085 L17.63019,38.339685 C17.67384,37.985085 17.71749,37.630935 17.76204,37.267335 L16.65954,37.267335 L16.66269,37.270935 C16.70769,36.903735 16.75269,36.536085 16.79769,36.168435 L15.69564,36.168435 L15.69879,36.172485 Z" id="Fill-32" fill="#143641"></path>
                            <path d="M9.70506,40.5423 L10.78191,40.5423 C10.55871,42.3594 10.33596,44.17245 10.11186,45.99855 L9.03501,45.99855 C9.25821,44.18145 9.48096,42.36795 9.70506,40.5423" id="Fill-34" fill="#143641"></path>
                            <path d="M31.692015,30.707865 C31.983615,30.703365 32.275665,30.698865 32.567265,30.694365 C32.635665,30.693465 32.704065,30.694365 32.788665,30.694365 C32.834115,30.324465 32.877315,29.971215 32.921865,29.606715 L34.008615,29.606715 C33.919965,30.329415 33.831315,31.048065 33.740865,31.785615 L32.660865,31.785615 C32.570865,32.519565 32.482665,33.235065 32.392665,33.969915 L31.291515,33.969915 L31.294665,33.973965 C31.428765,32.883615 31.562415,31.793715 31.696065,30.703365 L31.692015,30.707865 Z" id="Fill-36" fill="#143641"></path>
                            <path d="M39.248415,40.534155 C39.196665,40.938705 39.142215,41.343255 39.092715,41.747805 C39.008115,42.443505 38.926215,43.139205 38.842965,43.834905 L38.845665,43.831755 L37.739115,43.831755 C37.830915,43.085205 37.919115,42.365655 38.009115,41.633055 L36.914265,41.633055 L36.917865,41.637105 C36.961515,41.269455 37.005165,40.901355 37.048815,40.533255 C37.782765,40.534605 38.517165,40.536405 39.250665,40.537755 L39.248415,40.534155 Z" id="Fill-38" fill="#143641"></path>
                            <path d="M12.443535,44.912115 L13.525335,44.912115 C13.479885,45.280665 13.436685,45.633915 13.391685,45.999315 L11.222685,45.999315 C11.311335,45.278865 11.399085,44.564265 11.488185,43.836165 L12.575835,43.836165 C12.532185,44.188965 12.489435,44.537715 12.443535,44.912115" id="Fill-40" fill="#143641"></path>
                            <path d="M31.29147,33.96996 C31.24647,34.33761 31.20102,34.70526 31.15602,35.07291 L31.16007,35.06931 L30.07197,35.06931 C30.11787,34.69446 30.16152,34.33806 30.20652,33.97401 L31.29462,33.97401 L31.29147,33.96996 Z" id="Fill-42" fill="#143641"></path>
                            <path d="M42.22044,33.968835 L41.14494,33.968835 C41.18904,33.607935 41.23314,33.250635 41.27814,32.884335 L42.35364,32.884335 C42.30999,33.240285 42.26634,33.597135 42.22044,33.968835" id="Fill-44" fill="#143641"></path>
                            <path d="M17.9523,53.671275 C17.9145,53.937225 17.8758,54.202725 17.8389,54.468225 C17.8254,54.560925 17.8155,54.653625 17.80335,54.753075 L16.7148,54.753075 C16.75845,54.395325 16.8021,54.038925 16.8471,53.674425 C17.21835,53.674425 17.5869,53.674425 17.9559,53.674425 C17.95635,53.674875 17.9523,53.671275 17.9523,53.671275" id="Fill-46" fill="#143641"></path>
                            <path d="M40.198275,41.64183 L41.283225,41.64183 C41.238675,42.00453 41.195025,42.35868 41.150475,42.72228 L40.065525,42.72228 C40.109625,42.36318 40.153275,42.00903 40.198275,41.64183" id="Fill-48" fill="#143641"></path>
                            <path d="M18.999315,53.675595 L20.103615,53.675595 C20.059965,54.029745 20.016765,54.382995 19.971765,54.748845 L18.872415,54.748845 C18.916965,54.388395 18.961065,54.029745 19.004265,53.671545 C19.003815,53.671995 18.999315,53.675595 18.999315,53.675595" id="Fill-50" fill="#143641"></path>
                            <path d="M22.162905,54.756855 L21.091905,54.756855 C21.136005,54.399105 21.179655,54.041805 21.224655,53.675505 L22.295655,53.675505 C22.252455,54.027855 22.208805,54.385155 22.162905,54.756855" id="Fill-52" fill="#143641"></path>
                            <path d="M40.600395,38.347335 C40.645845,37.976085 40.688145,37.631835 40.732245,37.272735 L41.826645,37.272735 C41.785245,37.609335 41.745645,37.943685 41.699745,38.277585 C41.697045,38.300985 41.645295,38.343735 41.620095,38.344185 C41.284395,38.348685 40.949145,38.347335 40.600395,38.347335" id="Fill-54" fill="#143641"></path>
                            <path d="M23.674185,51.45723 C23.716935,51.10803 23.759685,50.75838 23.804235,50.39793 L24.890985,50.39793 C24.847335,50.75208 24.804135,51.10398 24.758235,51.47658 C24.469335,51.47658 24.184485,51.47838 23.900085,51.47568 C23.822685,51.47478 23.747085,51.46128 23.670585,51.45318 C23.670585,51.45318 23.674185,51.45723 23.674185,51.45723" id="Fill-56" fill="#143641"></path>
                            <path d="M19.957095,37.271115 C19.991745,37.267065 20.026845,37.258965 20.060595,37.258965 C21.075345,37.258515 22.090095,37.258515 23.104395,37.258965 C23.138145,37.258965 23.171895,37.263915 23.221395,37.267515 C23.133195,37.985265 23.045445,38.700315 22.955895,39.429765 L24.044445,39.429765 C23.998995,39.801465 23.954895,40.158765 23.909895,40.527315 L19.559295,40.527315 C19.603395,40.168665 19.647495,39.811365 19.692945,39.440115 L21.853395,39.440115 C21.898395,39.072465 21.941595,38.719215 21.987495,38.348415 L19.827945,38.348415 C19.873395,37.976265 19.917045,37.622115 19.960245,37.267965 L19.957095,37.271115 Z" id="Fill-58" fill="#143641"></path>
                            <path d="M17.356635,40.53825 C17.402085,40.1706 17.447085,39.8025 17.492085,39.43485 L18.576585,39.43485 C18.531135,39.8052 18.487935,40.158 18.441135,40.53825 L17.356635,40.53825 Z" id="Fill-60" fill="#143641"></path>
                            <path d="M20.09088,44.89992 L19.02528,44.89992 C19.06803,44.55162 19.11123,44.19927 19.15578,43.83477 L20.21868,43.83477 C20.17458,44.19522 20.13093,44.54892 20.08773,44.90307 L20.09088,44.89992 Z" id="Fill-62" fill="#143641"></path>
                            <path d="M29.366235,31.772115 L28.282185,31.772115 C28.370835,31.047615 28.458585,30.332565 28.547685,29.608515 L29.631735,29.608515 L29.629035,29.605815 C29.610585,29.792115 29.595735,29.978865 29.572335,30.165615 C29.504385,30.702015 29.432835,31.238415 29.363085,31.774815 L29.366235,31.772115 Z" id="Fill-64" fill="#143641"></path>
                            <path d="M26.3718,29.59596 C26.7138,29.59596 27.04455,29.59416 27.3744,29.59956 C27.40185,29.60001 27.4455,29.64906 27.44235,29.67561 C27.3591,30.36816 27.2709,31.06026 27.18315,31.75236 C27.1827,31.75641 27.17685,31.76046 27.16515,31.77441 L26.1045,31.77441 C26.19315,31.05171 26.2809,30.33666 26.3718,29.59596" id="Fill-66" fill="#143641"></path>
                            <path d="M29.362905,31.77486 L30.454605,31.77486 C30.408705,32.14701 30.365505,32.50026 30.320955,32.86431 L29.231955,32.86431 C29.276955,32.50071 29.321505,32.13621 29.366055,31.77216 L29.362905,31.77486 Z" id="Fill-68" fill="#143641"></path>
                            <path d="M25.12242,30.68865 L24.04287,30.68865 C24.08697,30.32685 24.13062,29.97315 24.17562,29.6073 L25.25517,29.6073 C25.21107,29.9673 25.16742,30.321 25.12242,30.68865" id="Fill-70" fill="#143641"></path>
                            <path d="M34.04817,47.111445 C34.00362,47.472345 33.96042,47.826045 33.91632,48.188295 L32.83002,48.188295 C32.87457,47.826945 32.91777,47.473695 32.96232,47.111445 L34.04817,47.111445 Z" id="Fill-72" fill="#143641"></path>
                            <path d="M36.085005,39.43476 L37.188405,39.43476 C37.143405,39.80241 37.097955,40.17051 37.052955,40.53816 L35.949555,40.53816 C35.994555,40.17051 36.039555,39.80241 36.085005,39.43476" id="Fill-74" fill="#143641"></path>
                            <path d="M14.081175,49.305195 C13.947525,50.395095 13.815225,51.471945 13.681125,52.562295 L10.421325,52.562295 C10.554075,51.482295 10.687275,50.398695 10.821375,49.305195 L14.081175,49.305195 Z" id="Fill-76" fill="#143641"></path>
                            <path d="M40.708485,28.499085 L37.440585,28.499085 C37.574685,27.407835 37.707885,26.322435 37.842435,25.227585 L41.110335,25.227585 C40.976235,26.317935 40.843035,27.402435 40.708485,28.499085" id="Fill-78" fill="#143641"></path>
                            <path d="M16.630425,28.499535 L13.372875,28.499535 C13.506975,27.409185 13.639725,26.323785 13.774725,25.228485 L17.032275,25.228485 C16.898625,26.316585 16.764975,27.401985 16.630425,28.499535" id="Fill-80" fill="#143641"></path>
                            <polygon id="Fill-82" fill="#3B77BC" points="2.48598 59.49108 1.17468 70.16958 43.32213 70.16958 44.63343 59.49108"></polygon>
                            <path d="M16.70337,64.270665 L9.50112,64.270665 C9.05697,64.270665 8.68212,64.601865 8.62812,65.042865 C8.56377,65.567115 8.97282,66.029715 9.50112,66.029715 L16.70337,66.029715 C17.14752,66.029715 17.52192,65.698065 17.57592,65.257065 C17.64072,64.732815 17.23167,64.270665 16.70337,64.270665" id="Fill-84" fill="#FFFFFF"></path>
                            <polygon id="Fill-86" fill="#61B446" points="25.344765 67.79619 19.896165 67.79619 20.565315 62.34759 26.013915 62.34759"></polygon>
                            <polygon id="Fill-88" fill="#143641" points="35.05185 67.79619 26.62695 67.79619 27.2961 62.34759 35.721 62.34759"></polygon>
                            <path d="M30.6828,64.86462 C30.73635,64.43082 30.9708,64.04292 31.29885,63.76887 C31.06125,63.52002 30.7242,63.36432 30.3291,63.36432 C29.50065,63.36432 28.74645,64.03617 28.64475,64.86462 C28.5435,65.69307 29.13255,66.36447 29.961,66.36447 C30.35565,66.36447 30.73095,66.20877 31.02975,65.95992 C30.76875,65.68587 30.6297,65.29797 30.6828,64.86462" id="Fill-90" fill="#E0121A"></path>
                            <path d="M32.36724,63.36432 C31.97259,63.36432 31.59729,63.52002 31.29849,63.76887 C31.55949,64.04292 31.69854,64.43082 31.64544,64.86462 C31.59189,65.29797 31.35744,65.68587 31.02939,65.95992 C31.26699,66.20877 31.60404,66.36447 31.99914,66.36447 C32.82759,66.36447 33.58179,65.69307 33.68304,64.86462 C33.78474,64.03617 33.19569,63.36432 32.36724,63.36432" id="Fill-92" fill="#F8A312"></path>
                            <path d="M31.64544,64.86462 C31.69854,64.43082 31.55949,64.04292 31.29849,63.76887 C30.97044,64.04292 30.73599,64.43082 30.68289,64.86462 C30.62979,65.29797 30.76884,65.68587 31.02939,65.95992 C31.35744,65.68587 31.59189,65.29797 31.64544,64.86462" id="Fill-94" fill="#EF6F19"></path>
                            <path d="M23.54652,64.27134 C23.46552,64.93014 22.86612,65.46384 22.20732,65.46384 C21.54852,65.46384 21.08007,64.93014 21.16107,64.27134 C21.24162,63.61254 21.84147,63.07839 22.50027,63.07839 C23.15907,63.07839 23.62752,63.61254 23.54652,64.27134" id="Fill-96" fill="#FFFFFF"></path>
                            <path d="M23.470965,66.681315 C23.121315,66.681315 22.808115,66.544965 22.588965,66.297015 C22.367565,66.046815 22.269915,65.715165 22.313115,65.362365 C22.400415,64.650015 23.051115,64.070865 23.763915,64.070865 C24.113565,64.070865 24.426765,64.207215 24.645915,64.454715 C24.867315,64.704915 24.964965,65.037015 24.921765,65.389365 C24.834465,66.101715 24.183315,66.681315 23.470965,66.681315" id="Fill-98" fill="#FFFFFF"></path>
                            <path d="M23.763825,63.95823 C22.996125,63.95823 22.295475,64.58193 22.201425,65.34873 C22.153725,65.73348 22.261725,66.09708 22.504725,66.37158 C22.745475,66.64383 23.088825,66.79368 23.470875,66.79368 C24.238575,66.79368 24.939225,66.16998 25.033275,65.40318 C25.080525,65.01798 24.972975,64.65483 24.729975,64.37988 C24.489225,64.10808 24.145875,63.95823 23.763825,63.95823 M23.763825,64.18323 C24.422625,64.18323 24.891075,64.71738 24.810075,65.37573 C24.729525,66.03453 24.129675,66.56868 23.470875,66.56868 C22.812075,66.56868 22.343625,66.03453 22.424625,65.37573 C22.505625,64.71738 23.105025,64.18323 23.763825,64.18323" id="Fill-100" fill="#61B446"></path>
                            <path d="M51.814575,0.251145 L51.814575,4.5e-05 L10.668825,4.5e-05 C10.167075,4.5e-05 9.744075,0.373995 9.682875,0.872145 L7.575975,18.033345 L49.723425,18.033345 L51.906375,0.251145 L51.814575,0.251145 Z" id="Fill-102" fill="#3B77BC"></path>
                            <path d="M23.129955,10.05489 L23.497155,9.62154 C23.683005,9.85464 24.004755,10.06434 24.448005,10.06434 C24.905205,10.06434 25.108605,9.84069 25.135155,9.62604 C25.217055,8.95959 23.318505,9.37359 23.461605,8.20719 C23.526405,7.67844 24.033105,7.27389 24.733305,7.27389 C25.223805,7.27389 25.609005,7.43544 25.864155,7.72119 L25.499205,8.13564 C25.277355,7.88319 24.953355,7.76889 24.620355,7.76889 C24.296355,7.76889 24.067305,7.93089 24.038505,8.16399 C23.965155,8.75934 25.857855,8.39259 25.712955,9.57384 C25.648155,10.10214 25.215705,10.55934 24.363405,10.55934 C23.777505,10.55934 23.379705,10.35009 23.129955,10.05489" id="Fill-104" fill="#FFFFFF"></path>
                            <path d="M27.651915,10.502505 L27.828765,9.064305 C27.872865,8.702505 27.701415,8.588205 27.420165,8.588205 C27.167715,8.588205 26.930115,8.740305 26.792415,8.892855 L26.594865,10.502505 L26.094915,10.502505 L26.377065,8.202105 L26.877015,8.202105 L26.839215,8.511705 C27.013815,8.331255 27.336465,8.145405 27.698715,8.145405 C28.193715,8.145405 28.408365,8.411805 28.350765,8.883405 L28.151865,10.502505 L27.651915,10.502505 Z" id="Fill-106" fill="#FFFFFF"></path>
                            <path d="M30.20976,10.502505 L30.24081,10.250055 C30.04506,10.450305 29.75976,10.559655 29.45511,10.559655 C29.08386,10.559655 28.69146,10.302255 28.75356,9.797805 C28.81881,9.264105 29.26476,9.045405 29.64096,9.045405 C29.95551,9.045405 30.20526,9.145305 30.35241,9.340155 L30.39471,8.997705 C30.42711,8.730855 30.22326,8.569305 29.90916,8.569305 C29.65221,8.569305 29.41191,8.664255 29.19186,8.864055 L29.02491,8.516655 C29.32326,8.259705 29.67066,8.145405 30.03741,8.145405 C30.55131,8.145405 30.97296,8.359605 30.89736,8.973855 L30.70971,10.502505 L30.20976,10.502505 Z M30.27411,9.978705 L30.31731,9.625905 C30.21786,9.469305 30.01311,9.388305 29.79891,9.388305 C29.51811,9.388305 29.28321,9.554805 29.25306,9.802755 C29.22201,10.054755 29.41641,10.216755 29.69721,10.216755 C29.91141,10.216755 30.13551,10.135755 30.27411,9.978705 L30.27411,9.978705 Z" id="Fill-108" fill="#FFFFFF"></path>
                            <path d="M31.89726,10.183455 L31.75056,11.378655 L31.25061,11.378655 L31.64076,8.202105 L32.14071,8.202105 L32.10201,8.516655 C32.30136,8.288055 32.58576,8.145405 32.88546,8.145405 C33.48081,8.145405 33.84981,8.592705 33.75666,9.350055 C33.66396,10.107405 33.18426,10.559655 32.58891,10.559655 C32.29866,10.559655 32.05791,10.426455 31.89726,10.183455 M33.24231,9.350055 C33.29721,8.902755 33.07851,8.588205 32.68341,8.588205 C32.45031,8.588205 32.19111,8.721405 32.05566,8.892855 L31.94406,9.802755 C32.03271,9.973755 32.26266,10.116855 32.49576,10.116855 C32.89086,10.116855 33.18741,9.797805 33.24231,9.350055" id="Fill-110" fill="#FFFFFF"></path>
                            <path d="M33.980265,10.05489 L34.347915,9.62154 C34.533315,9.85464 34.855065,10.06434 35.298315,10.06434 C35.755515,10.06434 35.958915,9.84069 35.985465,9.62604 C36.066915,8.95959 34.168815,9.37359 34.311915,8.20719 C34.376715,7.67844 34.883415,7.27389 35.583615,7.27389 C36.074115,7.27389 36.459315,7.43544 36.714465,7.72119 L36.349515,8.13564 C36.128115,7.88319 35.803665,7.76889 35.470665,7.76889 C35.146665,7.76889 34.917615,7.93089 34.888815,8.16399 C34.815465,8.75934 36.708165,8.39259 36.563265,9.57384 C36.498465,10.10214 36.066015,10.55934 35.213715,10.55934 C34.627815,10.55934 34.229565,10.35009 33.980265,10.05489" id="Fill-112" fill="#FFFFFF"></path>
                            <path d="M36.94833,9.35001 C37.03383,8.65476 37.58688,8.14536 38.28213,8.14536 C38.73438,8.14536 38.97783,8.33571 39.11283,8.55486 L38.74743,8.85456 C38.64123,8.67366 38.47563,8.58816 38.25153,8.58816 C37.83708,8.58816 37.51803,8.90226 37.46313,9.35001 C37.40778,9.79776 37.64943,10.11681 38.06388,10.11681 C38.28798,10.11681 38.47563,10.02141 38.62638,9.84051 L38.91708,10.15011 C38.72853,10.36431 38.43828,10.55961 37.98603,10.55961 C37.29033,10.55961 36.86328,10.04526 36.94833,9.35001" id="Fill-114" fill="#FFFFFF"></path>
                            <path d="M40.726755,10.502505 L40.757805,10.250055 C40.561605,10.450305 40.276755,10.559655 39.971655,10.559655 C39.600855,10.559655 39.208455,10.302255 39.270555,9.797805 C39.335805,9.264105 39.781755,9.045405 40.157955,9.045405 C40.472505,9.045405 40.721805,9.145305 40.869405,9.340155 L40.911255,8.997705 C40.944105,8.730855 40.740255,8.569305 40.426155,8.569305 C40.168755,8.569305 39.928905,8.664255 39.708855,8.864055 L39.541905,8.516655 C39.840255,8.259705 40.187655,8.145405 40.554405,8.145405 C41.068755,8.145405 41.489505,8.359605 41.414355,8.973855 L41.226705,10.502505 L40.726755,10.502505 Z M40.791105,9.978705 L40.834305,9.625905 C40.734405,9.469305 40.530105,9.388305 40.315455,9.388305 C40.034655,9.388305 39.800205,9.554805 39.770055,9.802755 C39.739005,10.054755 39.932955,10.216755 40.214205,10.216755 C40.428405,10.216755 40.652505,10.135755 40.791105,9.978705 L40.791105,9.978705 Z" id="Fill-116" fill="#FFFFFF"></path>
                            <path d="M43.43202,10.502505 L43.60887,9.064305 C43.65297,8.702505 43.48152,8.588205 43.20027,8.588205 C42.94827,8.588205 42.71022,8.740305 42.57252,8.892855 L42.37452,10.502505 L41.87502,10.502505 L42.15717,8.202105 L42.65712,8.202105 L42.61932,8.511705 C42.79392,8.331255 43.11657,8.145405 43.47882,8.145405 C43.97427,8.145405 44.18892,8.411805 44.13087,8.883405 L43.93197,10.502505 L43.43202,10.502505 Z" id="Fill-118" fill="#FFFFFF"></path>
                            <path d="M18.717165,6.062895 C17.083665,6.062895 15.597315,7.387245 15.396615,9.020295 C15.195915,10.653795 16.357365,11.977695 17.990865,11.977695 C19.624365,11.977695 21.110715,10.653795 21.311415,9.020295 C21.512115,7.387245 20.350665,6.062895 18.717165,6.062895 M18.015165,11.780145 C16.491465,11.780145 15.407415,10.544445 15.594615,9.020295 C15.781815,7.496595 17.169165,6.260895 18.692865,6.260895 C20.217015,6.260895 21.300615,7.496595 21.113865,9.020295 C20.926665,10.544445 19.539315,11.780145 18.015165,11.780145" id="Fill-120" fill="#FFFFFF"></path>
                            <path d="M18.117765,7.744275 L17.429265,7.744275 C17.320815,7.744275 17.222265,7.832025 17.208765,7.940475 L17.124165,8.627625 C17.111115,8.736525 17.188065,8.824275 17.296515,8.824275 L17.985465,8.824275 C18.093465,8.824275 18.192465,8.736525 18.205515,8.627625 L18.290115,7.940475 C18.303615,7.832025 18.226215,7.744275 18.117765,7.744275" id="Fill-122" fill="#FFFFFF"></path>
                            <path d="M19.592325,7.744275 L18.903825,7.744275 C18.795375,7.744275 18.696825,7.832025 18.683325,7.940475 L18.598725,8.627625 C18.585675,8.736525 18.662625,8.824275 18.771075,8.824275 L19.460025,8.824275 C19.568025,8.824275 19.667025,8.736525 19.680075,8.627625 L19.764675,7.940475 C19.778175,7.832025 19.700775,7.744275 19.592325,7.744275" id="Fill-124" fill="#FFFFFF"></path>
                            <path d="M17.93691,9.216765 L17.24841,9.216765 C17.13996,9.216765 17.04141,9.304965 17.02791,9.413415 L16.94331,10.100565 C16.93026,10.209015 17.00721,10.296765 17.11566,10.296765 L17.80461,10.296765 C17.91261,10.296765 18.01161,10.209015 18.02466,10.100565 L18.10926,9.413415 C18.12276,9.304965 18.04536,9.216765 17.93691,9.216765" id="Fill-126" fill="#FFFFFF"></path>
                            <path d="M52.80642,1.122795 C52.87392,0.574695 52.48377,0.075195 51.93522,0.008145 C51.38937,-0.059805 50.88807,0.330795 50.82057,0.878895 L48.71457,18.033345 L50.73012,18.033345 L52.80642,1.122795 Z" id="Fill-128" fill="#2C598D"></path>
                            <polygon id="Fill-130" fill="#2C598D" points="42.31296 70.169445 44.32851 70.169445 45.63981 59.490945 43.62426 59.490945"></polygon>
                        </g>
                    </g>
                </g>
            </g>
        </g>
    </g>
</svg>