<?xml version="1.0" encoding="utf-8"?>
<!-- Generator: Adobe Illustrator 16.0.0, SVG Export Plug-In . SVG Version: 6.00 Build 0)  -->
<!DOCTYPE svg PUBLIC "-//W3C//DTD SVG 1.1//EN" "http://www.w3.org/Graphics/SVG/1.1/DTD/svg11.dtd">
<svg version="1.1" id="Layer_1" xmlns="http://www.w3.org/2000/svg" xmlns:xlink="http://www.w3.org/1999/xlink" x="0px" y="0px"
	 width="133px" height="28px" viewBox="0 0 133 28" enable-background="new 0 0 133 28" xml:space="preserve">
<g id="Page-1">
	<g id="SnapScan-Assets" transform="translate(-250.000000, -81.000000)">
		<g id="img-footer-logo-standardbank" transform="translate(261.000000, 87.000000)">
			<polygon id="Clip-2" fill="none" points="-11,-6 122,-6 122,22 -11,22 			"/>
			<path id="Fill-1" fill="#224096" d="M69.865,7.084l-0.158-1.485h-1.873v8.951h2.179V8.666c0.339-0.341,1.151-1.206,2.984-1.222
				V5.41C71.164,5.431,70.174,6.745,69.865,7.084L69.865,7.084z M63.66,12.406c-0.162,0.131-0.699,0.693-1.51,0.693
				c-0.594,0-1.154-0.265-1.154-1.242c0-1.2,0.829-1.501,2.664-1.631V12.406z M62.979,5.41c-1.619,0-3.17,0.718-3.33,0.791
				l0.375,1.297c0.201-0.054,1.264-0.374,2.215-0.374c1.26,0,1.422,0.469,1.422,1.503v0.47c-1.943,0.114-4.75,0.056-4.75,2.856
				c0,1.9,1.042,2.783,2.377,2.783c1.348,0,2.285-0.977,2.482-1.205l0.162,1.019h1.818V8.945C65.75,6.973,65.693,5.41,62.979,5.41
				L62.979,5.41z M55.311,11.953c-0.182,0.227-0.777,0.903-1.733,0.903c-0.97,0-1.562-0.81-1.562-2.766c0-2.045,0.645-2.8,1.652-2.8
				c0.812,0,1.407,0.47,1.643,0.66V11.953z M55.311,6.503C54.715,5.995,54.052,5.41,52.9,5.41c-2.02,0-3.168,1.75-3.168,4.74
				c0,2.91,1.313,4.586,3.273,4.586c1.406,0,2.283-1.053,2.442-1.262l0.149,1.075h1.89V1.316l-2.175,0.338V6.503z M78.859,11.953
				c-0.174,0.227-0.771,0.903-1.723,0.903c-0.976,0-1.568-0.81-1.568-2.766c0-2.045,0.648-2.8,1.656-2.8
				c0.809,0,1.404,0.47,1.635,0.66V11.953z M78.859,6.503c-0.594-0.509-1.261-1.093-2.41-1.093c-2.015,0-3.164,1.75-3.164,4.74
				c0,2.91,1.313,4.586,3.276,4.586c1.4,0,2.28-1.053,2.445-1.262l0.144,1.075h1.887V1.316l-2.178,0.338V6.503z M118.402,9.875
				l3.363-4.267h-2.299l-3.082,3.983V1.321l-2.176,0.341v12.893h2.176v-4.211l3.112,4.211H122L118.402,9.875z M91.627,12.611
				c-0.506,0.245-1.098,0.262-2.072,0.262h-0.828V8.945h1.151c1.062,0,1.442,0.057,1.822,0.266c0.521,0.281,0.826,0.805,0.826,1.633
				C92.526,11.768,92.168,12.33,91.627,12.611L91.627,12.611z M88.727,3.662h1.151c1.08,0,1.479,0.059,1.872,0.304
				c0.418,0.26,0.631,0.807,0.631,1.427c0,1.431-0.648,1.956-2.735,1.956h-0.919V3.662z M92.076,8.1
				c1.656-0.283,2.499-1.295,2.499-2.967c0-3.085-2.552-3.123-4.748-3.123h-3.333v12.54h2.957c2.103,0,2.735-0.078,3.454-0.377
				c1.239-0.509,1.944-1.542,1.944-3.025C94.85,9.246,93.859,8.292,92.076,8.1L92.076,8.1z M45.612,5.41
				c-1.239,0-2.411,0.923-2.953,1.376l-0.161-1.187h-1.871v8.951h2.18V8.1c0.341-0.223,1.187-0.81,1.978-0.81
				c0.973,0,1.079,0.717,1.079,1.844v5.415h2.18V8.721C48.045,7.276,47.97,5.41,45.612,5.41L45.612,5.41z M100.832,12.406
				c-0.163,0.131-0.703,0.693-1.516,0.693c-0.59,0-1.15-0.265-1.15-1.242c0-1.2,0.828-1.501,2.666-1.631V12.406z M100.147,5.41
				c-1.624,0-3.172,0.718-3.331,0.791l0.381,1.297c0.197-0.054,1.26-0.374,2.211-0.374c1.261,0,1.424,0.469,1.424,1.503v0.47
				c-1.945,0.114-4.752,0.056-4.752,2.856c0,1.9,1.045,2.783,2.377,2.783c1.348,0,2.281-0.977,2.479-1.205l0.162,1.019h1.82V8.945
				C102.918,6.973,102.865,5.41,100.147,5.41L100.147,5.41z M109.831,5.422c-1.245,0-2.413,0.918-2.954,1.368l-0.16-1.182h-1.877
				v8.946h2.184V8.109c0.342-0.227,1.188-0.809,1.981-0.809c0.968,0,1.075,0.712,1.075,1.841v5.414h2.177V8.727
				C112.257,7.28,112.185,5.422,109.831,5.422L109.831,5.422z M21.729,7.291c-1.6-0.526-2.589-0.825-2.589-1.933
				c0-1.206,0.97-1.715,2.066-1.715c1.336,0,2.452,0.415,2.722,0.509l0.503-1.579c-0.396-0.207-1.817-0.732-3.364-0.732
				c-2.573,0-4.155,1.372-4.155,3.684c0,3.553,3.65,3.309,5.072,4.436c0.375,0.303,0.559,0.658,0.559,1.164
				c0,1.055-0.882,1.805-2.269,1.805c-1.51,0-2.573-0.621-2.754-0.715l-0.757,1.545c0.091,0.094,1.459,0.955,3.639,0.955
				c2.808,0,4.388-1.463,4.388-3.928C24.789,8.647,23.514,7.894,21.729,7.291L21.729,7.291z M36.603,12.406
				c-0.161,0.131-0.701,0.693-1.512,0.693c-0.592,0-1.152-0.265-1.152-1.242c0-1.2,0.828-1.501,2.664-1.631V12.406z M35.924,5.41
				c-1.622,0-3.169,0.718-3.333,0.791l0.381,1.297c0.195-0.054,1.261-0.374,2.209-0.374c1.261,0,1.422,0.469,1.422,1.503v0.47
				c-1.942,0.114-4.749,0.056-4.749,2.856c0,1.9,1.042,2.783,2.378,2.783c1.345,0,2.282-0.977,2.482-1.205l0.161,1.019h1.817V8.945
				C38.692,6.973,38.637,5.41,35.924,5.41L35.924,5.41z M29.486,13.085c-0.898,0-0.952-0.605-0.952-1.339V7.124h2.357l0.217-1.525
				h-2.574V2.765l-1.875,0.336l-0.305,2.498l-1.436,0.284v1.241h1.436v4.324c0,1.22,0.036,2.178,0.663,2.761
				c0.366,0.341,0.924,0.544,1.736,0.544c1.436,0,2.408-0.562,2.605-0.655L30.908,12.8C30.782,12.835,30.171,13.085,29.486,13.085
				L29.486,13.085z M4.901,16.885l-3.252-6.639C1.394,9.723,0.987,9.375,0.987,9.375c1.009,0.334,2.212,1.146,4.155,1.146
				c1.861,0,3.441-1.151,4.069-1.759C8.859,12.229,7.264,14.908,4.901,16.885L4.901,16.885z M4.456-0.599
				C1.919-0.738,0.523-2.105-1.599-2.22c-0.779-0.042-1.534,0.061-2.238,0.278l-1.915-1.307l0.054-0.007
				c1.661-0.247,3.706-0.453,5.923-0.453c3.592,0,6.717,0.538,8.49,0.902L8.81-1.752C7.777-1.163,6.412-0.488,4.456-0.599
				L4.456-0.599z M-0.907,19.088l-0.556-0.262c-3.949-1.996-6.796-5.322-7.275-9.969C-8.87,7.584-8.804,5.25-8.664,2.877
				L-0.907,19.088z M9.801-4.913C8.147-5.276,4.499-6,0.225-6c-4.269,0-7.915,0.724-9.57,1.087c-0.608,0.13-0.99,0.682-1.048,1.343
				c-0.244,2.742-0.818,9.833-0.526,12.672C-10.228,15.836-5.426,20.059,0.225,22c0.73-0.252,1.447-0.539,2.143-0.865l-9.62-19.617
				l-0.942-0.731C-8.336,0.675-8.432,0.5-8.432,0.3v-3.046c0-0.168,0.127-0.307,0.288-0.307c0.063,0,0.126,0.02,0.175,0.057
				l2.329,1.833c0.151,0.119,0.227,0.303,0.227,0.49l0.003,1.215c1.08-0.644,2.416-0.928,3.749-0.854
				c2.12,0.116,3.581,1.594,6.117,1.733c2.052,0.112,3.457-0.629,4.503-1.238C9.071,1.737,9.176,3.46,9.231,5.013l0.033,1.538
				C8.108,7.537,6.218,8.398,5.142,8.398c-1.785,0-2.997-1.181-4.683-1.181c-0.832,0-1.576,0.258-2.221,0.704l5.966,12.228
				c3.794-2.323,6.652-5.967,7.171-11.047c0.297-2.839-0.284-9.93-0.521-12.672C10.792-4.231,10.409-4.783,9.801-4.913L9.801-4.913z
				"/>
		</g>
	</g>
</g>
</svg>
