<?xml version="1.0" encoding="UTF-8"?>
<svg width="226px" height="226px" viewBox="0 0 226 226" version="1.1" xmlns="http://www.w3.org/2000/svg" xmlns:xlink="http://www.w3.org/1999/xlink">
    <!-- Generator: Sketch 53 (72520) - https://sketchapp.com -->
    <title>img-prefooter-getsnapscan</title>
    <desc>Created with Sketch.</desc>
    <defs>
        <ellipse id="path-1" cx="113.074074" cy="115.059406" rx="74.0740741" ry="74.0594059"></ellipse>
        <filter x="-25.3%" y="-15.2%" width="150.6%" height="150.6%" filterUnits="objectBoundingBox" id="filter-2">
            <feOffset dx="0" dy="15" in="SourceAlpha" result="shadowOffsetOuter1"></feOffset>
            <feGaussianBlur stdDeviation="10" in="shadowOffsetOuter1" result="shadowBlurOuter1"></feGaussianBlur>
            <feColorMatrix values="0 0 0 0 0.231372549   0 0 0 0 0.466666667   0 0 0 0 0.733333333  0 0 0 0.2 0" type="matrix" in="shadowBlurOuter1"></feColorMatrix>
        </filter>
        <path d="M75,187 C116.011244,187 149.257426,153.908003 149.257426,113.086957 C149.257426,72.2659098 156.042118,0.245414402 75,0.245414402 C-6.04211788,0.245414402 0.742574257,72.2659098 0.742574257,113.086957 C0.742574257,153.908003 33.9887562,187 75,187 Z" id="path-3"></path>
    </defs>
    <g id="Page-1" stroke="none" stroke-width="1" fill="none" fill-rule="evenodd">
        <g id="SnapScan-Assets" transform="translate(-899.000000, -769.000000)">
            <g id="img-prefooter-getsnapscan" transform="translate(899.000000, 769.000000)">
                <g id="Oval-4">
                    <use fill="black" fill-opacity="1" filter="url(#filter-2)" xlink:href="#path-1"></use>
                    <use fill="#FFFFFF" fill-rule="evenodd" xlink:href="#path-1"></use>
                </g>
                <g id="Group-83" transform="translate(38.000000, 2.000000)">
                    <g>
                        <mask id="mask-4" fill="white">
                            <use xlink:href="#path-3"></use>
                        </mask>
                        <g id="Mask"></g>
                        <g opacity="0.241071429" mask="url(#mask-4)" fill="#263943">
                            <g transform="translate(54.277228, 70.956522)">
                                <path d="M0.273840501,24.0919875 L0.877359994,23.2634861 C1.29018874,23.7093463 1.95927908,24.109955 2.810362,24.109955 C3.68954672,24.109955 4.02810644,23.6820623 4.02810644,23.2721371 C4.02810644,21.9977756 0.475905786,22.789011 0.475905786,20.5583792 C0.475905786,19.5468755 1.35442141,18.7736076 2.70063119,18.7736076 C3.64337949,18.7736076 4.42220065,19.0830478 4.980222,19.6293929 L4.37670251,20.4219593 C3.89027382,19.9388332 3.2405871,19.7205613 2.60026764,19.7205613 C1.97734452,19.7205613 1.57388304,20.0300016 1.57388304,20.4758618 C1.57388304,21.6151344 5.12675278,20.9137364 5.12675278,23.1723177 C5.12675278,24.1824904 4.40346612,25.0575742 2.76486386,25.0575742 C1.63878481,25.0575742 0.823163676,24.6569655 0.273840501,24.0919875" id="Fill-59"></path>
                                <path d="M9.07458656,24.9479059 L9.07458656,22.1975475 C9.07458656,21.5054661 8.71729231,21.2871942 8.1773364,21.2871942 C7.6922459,21.2871942 7.27138807,21.5793325 7.04189008,21.8701398 L7.04189008,24.9479059 L6.07973817,24.9479059 L6.07973817,20.5491958 L7.04189008,20.5491958 L7.04189008,21.1407924 C7.33428256,20.7954171 7.91237662,20.4407254 8.60823058,20.4407254 C9.56034615,20.4407254 10.0360694,20.95047 10.0360694,21.8515068 L10.0360694,24.9479059 L9.07458656,24.9479059 Z" id="Fill-61"></path>
                                <path d="M13.9928021,24.9479059 L13.9928021,24.4654453 C13.6636096,24.8480865 13.1417191,25.0577073 12.555596,25.0577073 C11.8410075,25.0577073 11.0253864,24.5652647 11.0253864,23.6003434 C11.0253864,22.5801887 11.8316402,22.1616125 12.555596,22.1616125 C13.1597846,22.1616125 13.6636096,22.3532659 13.9928021,22.7259251 L13.9928021,22.0704441 C13.9928021,21.560034 13.562577,21.2505938 12.9583884,21.2505938 C12.4645997,21.2505938 12.0243383,21.4322651 11.6489786,21.8149063 L11.2461862,21.1501089 C11.7580403,20.6589972 12.3996979,20.4407254 13.1049192,20.4407254 C14.0931656,20.4407254 14.9542849,20.8493196 14.9542849,22.0245272 L14.9542849,24.9479059 L13.9928021,24.9479059 Z M13.9928021,23.9463842 L13.9928021,23.2722702 C13.7639732,22.9721464 13.3518135,22.8164281 12.9403229,22.8164281 C12.3996979,22.8164281 11.9875383,23.1358503 11.9875383,23.6096599 C11.9875383,24.0921206 12.3996979,24.4015608 12.9403229,24.4015608 C13.3518135,24.4015608 13.7639732,24.246508 13.9928021,23.9463842 L13.9928021,23.9463842 Z" id="Fill-63"></path>
                                <path d="M17.1618147,24.3376764 L17.1618147,26.6235416 L16.2003318,26.6235416 L16.2003318,20.5498613 L17.1618147,20.5498613 L17.1618147,21.1507743 C17.4916762,20.7135652 18.0048685,20.4400599 18.5816244,20.4400599 C19.726438,20.4400599 20.5407209,21.2958452 20.5407209,22.7438926 C20.5407209,24.1926055 19.726438,25.0570418 18.5816244,25.0570418 C18.0229339,25.0570418 17.5291453,24.8021695 17.1618147,24.3376764 M19.5518054,22.7438926 C19.5518054,21.8887727 19.0573476,21.2878597 18.297261,21.2878597 C17.8489705,21.2878597 17.3819454,21.5420665 17.1618147,21.8701398 L17.1618147,23.6089945 C17.3725781,23.9370677 17.8489705,24.210573 18.297261,24.210573 C19.0573476,24.210573 19.5518054,23.6010089 19.5518054,22.7438926" id="Fill-65"></path>
                                <path d="M21.1371481,24.0919875 L21.7413366,23.2634861 C22.1534963,23.7093463 22.8225866,24.109955 23.6736696,24.109955 C24.5535234,24.109955 24.891414,23.6820623 24.891414,23.2721371 C24.891414,21.9977756 21.3392133,22.789011 21.3392133,20.5583792 C21.3392133,19.5468755 22.217729,18.7736076 23.5639387,18.7736076 C24.5073561,18.7736076 25.2855082,19.0830478 25.8435295,19.6293929 L25.2400101,20.4219593 C24.7535814,19.9388332 24.1038946,19.7205613 23.4635752,19.7205613 C22.8406521,19.7205613 22.4371906,20.0300016 22.4371906,20.4758618 C22.4371906,21.6151344 25.9907294,20.9137364 25.9907294,23.1723177 C25.9907294,24.1824904 25.2667737,25.0575742 23.6281714,25.0575742 C22.5020924,25.0575742 21.6858021,24.6569655 21.1371481,24.0919875" id="Fill-67"></path>
                                <path d="M26.6780859,22.7442254 C26.6780859,21.4139649 27.6208342,20.4403926 28.9583458,20.4403926 C29.8281633,20.4403926 30.3413556,20.8044009 30.6518135,21.222977 L30.0208613,21.7972716 C29.7732979,21.4512308 29.4340691,21.2868615 29.003844,21.2868615 C28.2069574,21.2868615 27.6676706,21.88844 27.6676706,22.7442254 C27.6676706,23.6000107 28.2069574,24.2109057 29.003844,24.2109057 C29.4340691,24.2109057 29.7732979,24.0279034 30.0208613,23.6818626 L30.6518135,24.2741247 C30.3413556,24.6840498 29.8281633,25.0573746 28.9583458,25.0573746 C27.6208342,25.0573746 26.6780859,24.0738203 26.6780859,22.7442254" id="Fill-69"></path>
                                <path d="M34.2151211,24.9479059 L34.2151211,24.4654453 C33.8852595,24.8480865 33.363369,25.0577073 32.777915,25.0577073 C32.0626574,25.0577073 31.2477054,24.5652647 31.2477054,23.6003434 C31.2477054,22.5801887 32.0546283,22.1616125 32.777915,22.1616125 C33.3821036,22.1616125 33.8852595,22.3532659 34.2151211,22.7259251 L34.2151211,22.0704441 C34.2151211,21.560034 33.7842269,21.2505938 33.1800383,21.2505938 C32.6862496,21.2505938 32.2466573,21.4322651 31.8712976,21.8149063 L31.4685052,21.1501089 C31.9810284,20.6589972 32.6220169,20.4407254 33.3272382,20.4407254 C34.3161537,20.4407254 35.1766039,20.8493196 35.1766039,22.0245272 L35.1766039,24.9479059 L34.2151211,24.9479059 Z M34.2151211,23.9463842 L34.2151211,23.2722702 C33.9856231,22.9721464 33.5741325,22.8164281 33.1626419,22.8164281 C32.6220169,22.8164281 32.2098573,23.1358503 32.2098573,23.6096599 C32.2098573,24.0921206 32.6220169,24.4015608 33.1626419,24.4015608 C33.5741325,24.4015608 33.9856231,24.246508 34.2151211,23.9463842 L34.2151211,23.9463842 Z" id="Fill-71"></path>
                                <path d="M39.416897,24.9479059 L39.416897,22.1975475 C39.416897,21.5054661 39.0602719,21.2871942 38.5196469,21.2871942 C38.0345564,21.2871942 37.6130295,21.5793325 37.3835315,21.8701398 L37.3835315,24.9479059 L36.4227177,24.9479059 L36.4227177,20.5491958 L37.3835315,20.5491958 L37.3835315,21.1407924 C37.6772621,20.7954171 38.2546871,20.4407254 38.9505411,20.4407254 C39.9026566,20.4407254 40.3783799,20.95047 40.3783799,21.8515068 L40.3783799,24.9479059 L39.416897,24.9479059 Z" id="Fill-73"></path>
                                <path d="M20.0002297,0.740027459 C15.9930476,0.740027459 12.7439449,3.97085008 12.7439449,7.95630768 C12.7439449,11.9410998 15.9930476,15.1719224 20.0002297,15.1719224 C24.0074118,15.1719224 27.2558455,11.9410998 27.2558455,7.95630768 C27.2558455,3.97085008 24.0074118,0.740027459 20.0002297,0.740027459 M20.0002297,14.6887963 C16.2613529,14.6887963 13.2303736,11.6749146 13.2303736,7.95630768 C13.2303736,4.23703526 16.2613529,1.22315356 20.0002297,1.22315356 C23.7397757,1.22315356 26.7700859,4.23703526 26.7700859,7.95630768 C26.7700859,11.6749146 23.7397757,14.6887963 20.0002297,14.6887963" id="Fill-75"></path>
                                <path d="M19.036472,4.84200763 L17.3470189,4.84200763 C17.0807209,4.84200763 16.8652738,5.0562867 16.8652738,5.32047549 L16.8652738,6.99810758 C16.8652738,7.26229637 17.0807209,7.47657544 17.3470189,7.47657544 L19.036472,7.47657544 C19.3021009,7.47657544 19.517548,7.26229637 19.517548,6.99810758 L19.517548,5.32047549 C19.517548,5.0562867 19.3021009,4.84200763 19.036472,4.84200763" id="Fill-77"></path>
                                <path d="M22.6537082,4.84200763 L20.9642551,4.84200763 C20.6979571,4.84200763 20.4825101,5.0562867 20.4825101,5.32047549 L20.4825101,6.99810758 C20.4825101,7.26229637 20.6979571,7.47657544 20.9642551,7.47657544 L22.6537082,7.47657544 C22.9193371,7.47657544 23.1354533,7.26229637 23.1354533,6.99810758 L23.1354533,5.32047549 C23.1354533,5.0562867 22.9193371,4.84200763 22.6537082,4.84200763" id="Fill-79"></path>
                                <path d="M19.036472,8.43477555 L17.3470189,8.43477555 C17.0807209,8.43477555 16.8652738,8.64905462 16.8652738,8.91390887 L16.8652738,10.5908755 C16.8652738,10.8550643 17.0807209,11.0706743 17.3470189,11.0706743 L19.036472,11.0706743 C19.3021009,11.0706743 19.517548,10.8550643 19.517548,10.5908755 L19.517548,8.91390887 C19.517548,8.64905462 19.3021009,8.43477555 19.036472,8.43477555" id="Fill-81"></path>
                            </g>
                        </g>
                        <g mask="url(#mask-4)">
                            <g transform="translate(22.277228, 26.608696)">
                                <path d="M0.622053295,22.1843387 L0.259406327,23.1139905 C-0.419051284,24.8528451 0.271449954,26.8246119 1.88864132,27.7689038 L9.91705639,32.4584212 L12.1598472,27.1107609 L0.622053295,22.1843387 Z" id="Fill-1" fill="#FF9A71"></path>
                                <path d="M27.1504819,46.5068764 L28.1126338,44.2749137 C30.1968502,39.4416563 27.9460303,33.8431165 23.0864271,31.7701994 L2.45636448,22.9727792 C0.600307859,27.3195832 2.3091646,32.353145 6.42875387,34.7008982 L27.1504819,46.5068764 Z" id="Fill-3" fill="#975C3C"></path>
                                <path d="M18.0184023,48.4938157 L18.0184023,48.4938157 C18.0184023,53.4601657 20.5970765,58.0744858 24.8384402,60.6957443 L31.3573875,64.724457 L27.2210709,40.4576851 L18.0184023,48.4938157 Z" id="Fill-5" fill="#263943"></path>
                                <path d="M93.2681834,129.894109 L90.2539314,89.1671108 C89.7460918,82.3128424 86.1798403,76.0441815 80.5333868,72.0813496 L23.0859588,31.770266 L25.3039933,43.4311732 L25.1748588,101.343752 L37.1776706,121.150591 C40.7439221,127.246232 46.1100267,132.189956 52.5981958,135.35756 L59.0622776,138.514516 L84.4729908,200.130396 L128.465012,200.130396 L93.2681834,129.894109 Z" id="Fill-7" fill="#975C3C"></path>
                                <path d="M33.2330484,114.640766 C49.8258199,114.640766 56.8646504,119.219817 60.6396581,123.632502 L61.7209081,114.640766 L33.2330484,114.640766 Z" id="Fill-9" fill="#263943"></path>
                                <path d="M18.9932669,66.8232606 L18.9932669,69.2455458 C18.9932669,73.6096518 21.2594759,77.6643176 24.9863092,79.9674848 L31.3573875,83.9050291 L27.2210709,59.6382572 L18.9932669,66.8232606 Z" id="Fill-11" fill="#263943"></path>
                                <polygon id="Fill-13" fill="#263943" points="17.4035752 87.392188 27.7697919 78.3398955 27.7697919 104.552481"></polygon>
                                <path d="M71.32938,114.640766 L31.8048751,114.640766 C26.9553082,114.640766 23.0244025,110.731172 23.0244025,105.907896 L23.0244025,8.73300338 C23.0244025,3.90972792 26.9553082,0.00013309259 31.8048751,0.00013309259 L71.32938,0.00013309259 C76.1782778,0.00013309259 80.1098526,3.90972792 80.1098526,8.73300338 L80.1098526,105.907896 C80.1098526,110.731172 76.1782778,114.640766 71.32938,114.640766" id="Fill-15" fill="#263943"></path>
                                <path d="M71.32938,2.26723227 L65.4019086,2.26723227 L65.4019086,3.38321364 C65.4019086,5.05951481 64.0356262,6.41772469 62.3508567,6.41772469 L40.7833984,6.41772469 C39.0979599,6.41772469 37.7316774,5.05951481 37.7316774,3.38321364 L37.7316774,2.26723227 L31.8048751,2.26723227 C28.219889,2.26723227 25.3039933,5.1673198 25.3039933,8.73287029 L25.3039933,105.907763 C25.3039933,109.472648 28.219889,112.373401 31.8048751,112.373401 L71.32938,112.373401 C74.9130279,112.373401 77.8302618,109.472648 77.8302618,105.907763 L77.8302618,8.73287029 C77.8302618,5.1673198 74.9130279,2.26723227 71.32938,2.26723227" id="Fill-17" fill="#4A90E2"></path>
                                <polygon id="Fill-19" fill="#3B77BB" points="77.830128 24.5553167 34.1860338 112.373135 39.0536661 112.373135 77.830128 34.3502658"></polygon>
                                <polygon id="Fill-21" fill="#3B77BB" points="77.830128 57.8415072 50.7286235 112.372869 67.765671 112.372869 77.830128 92.1228311"></polygon>
                                <path d="M93.8477495,137.724012 L90.3852069,91.1748791 L77.4135524,87.4755705 C77.1967671,87.7610542 71.6587063,94.9606978 71.4365683,95.2461814 L68.3667818,99.2462792 C64.2485307,104.943973 60.2895231,112.840356 60.2895231,130.916992 L93.8477495,137.724012 Z" id="Fill-23" fill="#975C3C"></path>
                                <path d="M18.9932669,47.6428217 L17.1586212,49.2452565 C13.1848936,52.7149803 12.7914685,58.7314308 16.2807747,62.6836153 L31.0904204,79.4592708 C34.6479738,76.3309294 35.2856169,71.0564701 32.5838301,67.1728283 L18.9932669,47.6428217 Z" id="Fill-25" fill="#975C3C"></path>
                                <path d="M29.7784681,71.3606532 C28.6222799,69.6923376 26.2289438,69.4753967 24.7890613,70.9074729 L24.1246546,71.5682777 L31.4050267,79.8220146 L31.7562991,79.3282411 C32.8342037,77.8136474 32.8475855,75.7906401 31.7890845,74.2620717 L29.7784681,71.3606532 Z" id="Fill-27" fill="#FF9A71"></path>
                                <path d="M18.9932669,66.8232606 L17.1586212,68.4256954 C13.1848936,71.8960847 12.7914685,77.9125352 16.2807747,81.8640542 L31.0904204,98.6403752 C34.6479738,95.5120339 35.2856169,90.2369091 32.5838301,86.3539327 L18.9932669,66.8232606 Z" id="Fill-29" fill="#975C3C"></path>
                                <path d="M29.7784681,90.5414249 C28.6222799,88.8731093 26.2289438,88.6561684 24.7890613,90.0882446 L24.1246546,90.7490493 L31.7054483,99.3441688 C32.83688,97.2852264 32.7070765,94.7684456 31.3682267,92.8366066 L29.7784681,90.5414249 Z" id="Fill-31" fill="#FF9A71"></path>
                                <path d="M18.9932669,86.0040989 L17.4035083,87.3922546 C13.9617075,90.3981507 13.6218096,95.6093911 16.6434216,99.0325325 L29.4718909,113.562916 C32.5530519,110.853151 33.1050514,106.284748 30.7645734,102.920833 L18.9932669,86.0040989 Z" id="Fill-33" fill="#975C3C"></path>
                                <path d="M28.3351064,106.548338 C27.3341472,105.103618 25.2606362,104.915292 24.0134518,106.155714 L23.4380341,106.728013 L30.1610539,114.351556 C31.0542895,112.439016 30.8642679,110.199067 29.6612434,108.462875 L28.3351064,106.548338 Z" id="Fill-35" fill="#FF9A71"></path>
                                <polygon id="Fill-37" fill="#263943" points="23.0242017 44.1227889 20.0159715 30.4608345 23.0864271 31.7704656"></polygon>
                                <path d="M87.0216228,45.4979015 L87.0216228,45.4979015 C81.9914016,45.4979015 77.8550851,49.4414349 77.6416453,54.4397272 L77.0561912,68.1802061 L88.688996,68.0284806 L87.0216228,45.4979015 Z" id="Fill-39" fill="#975C3C"></path>
                                <polygon id="Fill-41" fill="#975C3C" points="90.3997262 91.1376797 88.6888622 68.0281479 77.0567265 68.1798734 76.0704873 91.3146928"></polygon>
                                <path d="M90.3997262,91.628991 C90.3997262,95.5645389 87.1921071,98.7547683 83.2351067,98.7547683 C79.2781064,98.7547683 76.0704873,95.5645389 76.0704873,91.628991 C76.0704873,87.6934431 79.2781064,84.5032137 83.2351067,84.5032137 C87.1921071,84.5032137 90.3997262,87.6934431 90.3997262,91.628991" id="Fill-43" fill="#975C3C"></path>
                                <path d="M88.701508,68.406397 C88.701508,71.6079392 86.0920556,74.2032447 82.8723929,74.2032447 C79.6540683,74.2032447 77.0439469,71.6079392 77.0439469,68.406397 C77.0439469,65.2048547 79.6540683,62.6095492 82.8723929,62.6095492 C86.0920556,62.6095492 88.701508,65.2048547 88.701508,68.406397" id="Fill-45" fill="#975C3C"></path>
                                <path d="M86.8190892,42.7577913 L86.8190892,42.7577913 C84.8747126,42.7577913 83.2990049,44.3249565 83.2990049,46.2587918 L83.2990049,53.2807569 C83.2990049,55.1560315 84.8278763,56.6772798 86.714042,56.6772798 L87.8488192,56.6772798 L86.8190892,42.7577913 Z" id="Fill-47" fill="#CB6E54"></path>
                                <path d="M87.0216228,45.4979015 L87.0216228,45.4979015 C81.9914016,45.4979015 77.8550851,49.4414349 77.6416453,54.4397272 L77.0561912,68.1802061 L88.688996,68.0284806 L87.0216228,45.4979015 Z" id="Fill-49" fill="#975C3C"></path>
                                <polygon id="Fill-51" fill="#975C3C" points="90.3997262 91.1376797 88.6888622 68.0281479 77.0567265 68.1798734 76.0704873 91.3146928"></polygon>
                                <path d="M90.3997262,91.628991 C90.3997262,95.5645389 87.1921071,98.7547683 83.2351067,98.7547683 C79.2781064,98.7547683 76.0704873,95.5645389 76.0704873,91.628991 C76.0704873,87.6934431 79.2781064,84.5032137 83.2351067,84.5032137 C87.1921071,84.5032137 90.3997262,87.6934431 90.3997262,91.628991" id="Fill-53" fill="#975C3C"></path>
                                <path d="M88.701508,68.406397 C88.701508,71.6079392 86.0920556,74.2032447 82.8723929,74.2032447 C79.6540683,74.2032447 77.0439469,71.6079392 77.0439469,68.406397 C77.0439469,65.2048547 79.6540683,62.6095492 82.8723929,62.6095492 C86.0920556,62.6095492 88.701508,65.2048547 88.701508,68.406397" id="Fill-55" fill="#975C3C"></path>
                                <path d="M86.8190892,42.7577913 L86.8190892,42.7577913 C84.8747126,42.7577913 83.2990049,44.3249565 83.2990049,46.2587918 L83.2990049,53.2807569 C83.2990049,55.1560315 84.8278763,56.6772798 86.714042,56.6772798 L87.8488192,56.6772798 L86.8190892,42.7577913 Z" id="Fill-57" fill="#FF9A71"></path>
                                <path d="M32.2738405,58.0919875 L32.87736,57.2634861 C33.2901887,57.7093463 33.9592791,58.109955 34.810362,58.109955 C35.6895467,58.109955 36.0281064,57.6820623 36.0281064,57.2721371 C36.0281064,55.9977756 32.4759058,56.789011 32.4759058,54.5583792 C32.4759058,53.5468755 33.3544214,52.7736076 34.7006312,52.7736076 C35.6433795,52.7736076 36.4222006,53.0830478 36.980222,53.6293929 L36.3767025,54.4219593 C35.8902738,53.9388332 35.2405871,53.7205613 34.6002676,53.7205613 C33.9773445,53.7205613 33.573883,54.0300016 33.573883,54.4758618 C33.573883,55.6151344 37.1267528,54.9137364 37.1267528,57.1723177 C37.1267528,58.1824904 36.4034661,59.0575742 34.7648639,59.0575742 C33.6387848,59.0575742 32.8231637,58.6569655 32.2738405,58.0919875" id="Fill-59" fill="#FFFFFF"></path>
                                <path d="M41.0745866,58.9479059 L41.0745866,56.1975475 C41.0745866,55.5054661 40.7172923,55.2871942 40.1773364,55.2871942 C39.6922459,55.2871942 39.2713881,55.5793325 39.0418901,55.8701398 L39.0418901,58.9479059 L38.0797382,58.9479059 L38.0797382,54.5491958 L39.0418901,54.5491958 L39.0418901,55.1407924 C39.3342826,54.7954171 39.9123766,54.4407254 40.6082306,54.4407254 C41.5603461,54.4407254 42.0360694,54.95047 42.0360694,55.8515068 L42.0360694,58.9479059 L41.0745866,58.9479059 Z" id="Fill-61" fill="#FFFFFF"></path>
                                <path d="M45.9928021,58.9479059 L45.9928021,58.4654453 C45.6636096,58.8480865 45.1417191,59.0577073 44.555596,59.0577073 C43.8410075,59.0577073 43.0253864,58.5652647 43.0253864,57.6003434 C43.0253864,56.5801887 43.8316402,56.1616125 44.555596,56.1616125 C45.1597846,56.1616125 45.6636096,56.3532659 45.9928021,56.7259251 L45.9928021,56.0704441 C45.9928021,55.560034 45.562577,55.2505938 44.9583884,55.2505938 C44.4645997,55.2505938 44.0243383,55.4322651 43.6489786,55.8149063 L43.2461862,55.1501089 C43.7580403,54.6589972 44.3996979,54.4407254 45.1049192,54.4407254 C46.0931656,54.4407254 46.9542849,54.8493196 46.9542849,56.0245272 L46.9542849,58.9479059 L45.9928021,58.9479059 Z M45.9928021,57.9463842 L45.9928021,57.2722702 C45.7639732,56.9721464 45.3518135,56.8164281 44.9403229,56.8164281 C44.3996979,56.8164281 43.9875383,57.1358503 43.9875383,57.6096599 C43.9875383,58.0921206 44.3996979,58.4015608 44.9403229,58.4015608 C45.3518135,58.4015608 45.7639732,58.246508 45.9928021,57.9463842 L45.9928021,57.9463842 Z" id="Fill-63" fill="#FFFFFF"></path>
                                <path d="M49.1618147,58.3376764 L49.1618147,60.6235416 L48.2003318,60.6235416 L48.2003318,54.5498613 L49.1618147,54.5498613 L49.1618147,55.1507743 C49.4916762,54.7135652 50.0048685,54.4400599 50.5816244,54.4400599 C51.726438,54.4400599 52.5407209,55.2958452 52.5407209,56.7438926 C52.5407209,58.1926055 51.726438,59.0570418 50.5816244,59.0570418 C50.0229339,59.0570418 49.5291453,58.8021695 49.1618147,58.3376764 M51.5518054,56.7438926 C51.5518054,55.8887727 51.0573476,55.2878597 50.297261,55.2878597 C49.8489705,55.2878597 49.3819454,55.5420665 49.1618147,55.8701398 L49.1618147,57.6089945 C49.3725781,57.9370677 49.8489705,58.210573 50.297261,58.210573 C51.0573476,58.210573 51.5518054,57.6010089 51.5518054,56.7438926" id="Fill-65" fill="#FFFFFF"></path>
                                <path d="M53.1371481,58.0919875 L53.7413366,57.2634861 C54.1534963,57.7093463 54.8225866,58.109955 55.6736696,58.109955 C56.5535234,58.109955 56.891414,57.6820623 56.891414,57.2721371 C56.891414,55.9977756 53.3392133,56.789011 53.3392133,54.5583792 C53.3392133,53.5468755 54.217729,52.7736076 55.5639387,52.7736076 C56.5073561,52.7736076 57.2855082,53.0830478 57.8435295,53.6293929 L57.2400101,54.4219593 C56.7535814,53.9388332 56.1038946,53.7205613 55.4635752,53.7205613 C54.8406521,53.7205613 54.4371906,54.0300016 54.4371906,54.4758618 C54.4371906,55.6151344 57.9907294,54.9137364 57.9907294,57.1723177 C57.9907294,58.1824904 57.2667737,59.0575742 55.6281714,59.0575742 C54.5020924,59.0575742 53.6858021,58.6569655 53.1371481,58.0919875" id="Fill-67" fill="#FFFFFF"></path>
                                <path d="M58.6780859,56.7442254 C58.6780859,55.4139649 59.6208342,54.4403926 60.9583458,54.4403926 C61.8281633,54.4403926 62.3413556,54.8044009 62.6518135,55.222977 L62.0208613,55.7972716 C61.7732979,55.4512308 61.4340691,55.2868615 61.003844,55.2868615 C60.2069574,55.2868615 59.6676706,55.88844 59.6676706,56.7442254 C59.6676706,57.6000107 60.2069574,58.2109057 61.003844,58.2109057 C61.4340691,58.2109057 61.7732979,58.0279034 62.0208613,57.6818626 L62.6518135,58.2741247 C62.3413556,58.6840498 61.8281633,59.0573746 60.9583458,59.0573746 C59.6208342,59.0573746 58.6780859,58.0738203 58.6780859,56.7442254" id="Fill-69" fill="#FFFFFF"></path>
                                <path d="M66.2151211,58.9479059 L66.2151211,58.4654453 C65.8852595,58.8480865 65.363369,59.0577073 64.777915,59.0577073 C64.0626574,59.0577073 63.2477054,58.5652647 63.2477054,57.6003434 C63.2477054,56.5801887 64.0546283,56.1616125 64.777915,56.1616125 C65.3821036,56.1616125 65.8852595,56.3532659 66.2151211,56.7259251 L66.2151211,56.0704441 C66.2151211,55.560034 65.7842269,55.2505938 65.1800383,55.2505938 C64.6862496,55.2505938 64.2466573,55.4322651 63.8712976,55.8149063 L63.4685052,55.1501089 C63.9810284,54.6589972 64.6220169,54.4407254 65.3272382,54.4407254 C66.3161537,54.4407254 67.1766039,54.8493196 67.1766039,56.0245272 L67.1766039,58.9479059 L66.2151211,58.9479059 Z M66.2151211,57.9463842 L66.2151211,57.2722702 C65.9856231,56.9721464 65.5741325,56.8164281 65.1626419,56.8164281 C64.6220169,56.8164281 64.2098573,57.1358503 64.2098573,57.6096599 C64.2098573,58.0921206 64.6220169,58.4015608 65.1626419,58.4015608 C65.5741325,58.4015608 65.9856231,58.246508 66.2151211,57.9463842 L66.2151211,57.9463842 Z" id="Fill-71" fill="#FFFFFF"></path>
                                <path d="M71.416897,58.9479059 L71.416897,56.1975475 C71.416897,55.5054661 71.0602719,55.2871942 70.5196469,55.2871942 C70.0345564,55.2871942 69.6130295,55.5793325 69.3835315,55.8701398 L69.3835315,58.9479059 L68.4227177,58.9479059 L68.4227177,54.5491958 L69.3835315,54.5491958 L69.3835315,55.1407924 C69.6772621,54.7954171 70.2546871,54.4407254 70.9505411,54.4407254 C71.9026566,54.4407254 72.3783799,54.95047 72.3783799,55.8515068 L72.3783799,58.9479059 L71.416897,58.9479059 Z" id="Fill-73" fill="#FFFFFF"></path>
                                <path d="M52.0002297,34.7400275 C47.9930476,34.7400275 44.7439449,37.9708501 44.7439449,41.9563077 C44.7439449,45.9410998 47.9930476,49.1719224 52.0002297,49.1719224 C56.0074118,49.1719224 59.2558455,45.9410998 59.2558455,41.9563077 C59.2558455,37.9708501 56.0074118,34.7400275 52.0002297,34.7400275 M52.0002297,48.6887963 C48.2613529,48.6887963 45.2303736,45.6749146 45.2303736,41.9563077 C45.2303736,38.2370353 48.2613529,35.2231536 52.0002297,35.2231536 C55.7397757,35.2231536 58.7700859,38.2370353 58.7700859,41.9563077 C58.7700859,45.6749146 55.7397757,48.6887963 52.0002297,48.6887963" id="Fill-75" fill="#FFFFFF"></path>
                                <path d="M51.036472,38.8420076 L49.3470189,38.8420076 C49.0807209,38.8420076 48.8652738,39.0562867 48.8652738,39.3204755 L48.8652738,40.9981076 C48.8652738,41.2622964 49.0807209,41.4765754 49.3470189,41.4765754 L51.036472,41.4765754 C51.3021009,41.4765754 51.517548,41.2622964 51.517548,40.9981076 L51.517548,39.3204755 C51.517548,39.0562867 51.3021009,38.8420076 51.036472,38.8420076" id="Fill-77" fill="#FFFFFF"></path>
                                <path d="M54.6537082,38.8420076 L52.9642551,38.8420076 C52.6979571,38.8420076 52.4825101,39.0562867 52.4825101,39.3204755 L52.4825101,40.9981076 C52.4825101,41.2622964 52.6979571,41.4765754 52.9642551,41.4765754 L54.6537082,41.4765754 C54.9193371,41.4765754 55.1354533,41.2622964 55.1354533,40.9981076 L55.1354533,39.3204755 C55.1354533,39.0562867 54.9193371,38.8420076 54.6537082,38.8420076" id="Fill-79" fill="#FFFFFF"></path>
                                <path d="M51.036472,42.4347755 L49.3470189,42.4347755 C49.0807209,42.4347755 48.8652738,42.6490546 48.8652738,42.9139089 L48.8652738,44.5908755 C48.8652738,44.8550643 49.0807209,45.0706743 49.3470189,45.0706743 L51.036472,45.0706743 C51.3021009,45.0706743 51.517548,44.8550643 51.517548,44.5908755 L51.517548,42.9139089 C51.517548,42.6490546 51.3021009,42.4347755 51.036472,42.4347755" id="Fill-81" fill="#FFFFFF"></path>
                            </g>
                        </g>
                    </g>
                </g>
            </g>
        </g>
    </g>
</svg>