<?xml version="1.0" encoding="UTF-8"?>
<svg width="240px" height="200px" viewBox="0 0 240 200" version="1.1" xmlns="http://www.w3.org/2000/svg" xmlns:xlink="http://www.w3.org/1999/xlink">
    <!-- Generator: Sketch 53 (72520) - https://sketchapp.com -->
    <title>illustration/statement</title>
    <desc>Created with Sketch.</desc>
    <defs>
        <filter x="-6.8%" y="-6.3%" width="113.9%" height="112.4%" filterUnits="objectBoundingBox" id="filter-1">
            <feOffset dx="4" dy="4" in="SourceAlpha" result="shadowOffsetOuter1"></feOffset>
            <feColorMatrix values="0 0 0 0 0.149019608   0 0 0 0 0.223529412   0 0 0 0 0.262745098  0 0 0 0.1 0" type="matrix" in="shadowOffsetOuter1" result="shadowMatrixOuter1"></feColorMatrix>
            <feMerge>
                <feMergeNode in="shadowMatrixOuter1"></feMergeNode>
                <feMergeNode in="SourceGraphic"></feMergeNode>
            </feMerge>
        </filter>
        <polygon id="path-2" points="0.141044776 142.340887 100.634696 142.340887 100.634696 0.141644562 0.141044776 0.141644562"></polygon>
        <polygon id="path-4" points="-20 155.2 79.2 155.2 79.2 16 -20 16"></polygon>
        <filter x="-30.2%" y="-12.9%" width="160.5%" height="143.1%" filterUnits="objectBoundingBox" id="filter-5">
            <feOffset dx="0" dy="12" in="SourceAlpha" result="shadowOffsetOuter1"></feOffset>
            <feGaussianBlur stdDeviation="8" in="shadowOffsetOuter1" result="shadowBlurOuter1"></feGaussianBlur>
            <feColorMatrix values="0 0 0 0 0.908694728   0 0 0 0 0.844210532   0 0 0 0 0.586273747  0 0 0 1 0" type="matrix" in="shadowBlurOuter1"></feColorMatrix>
        </filter>
        <filter x="-14.4%" y="-10.2%" width="128.0%" height="120.1%" filterUnits="objectBoundingBox" id="filter-6">
            <feOffset dx="5" dy="7" in="SourceAlpha" result="shadowOffsetOuter1"></feOffset>
            <feColorMatrix values="0 0 0 0 0.149019608   0 0 0 0 0.223529412   0 0 0 0 0.262745098  0 0 0 0.1 0" type="matrix" in="shadowOffsetOuter1" result="shadowMatrixOuter1"></feColorMatrix>
            <feMerge>
                <feMergeNode in="shadowMatrixOuter1"></feMergeNode>
                <feMergeNode in="SourceGraphic"></feMergeNode>
            </feMerge>
        </filter>
    </defs>
    <g id="Page-1" stroke="none" stroke-width="1" fill="none" fill-rule="evenodd">
        <g id="SnapScan-Assets" transform="translate(-59.000000, -3899.000000)">
            <g id="illustration/statement" transform="translate(59.000000, 3899.000000)">
                <g id="Group-159" filter="url(#filter-1)" transform="translate(68.200000, 22.200000)">
                    <polygon id="Fill-2" fill="#FFF9E0" points="16.1410448 142.340887 116.634696 142.340887 116.634696 0.141644562 16.1410448 0.141644562"></polygon>
                    <polygon id="Fill-3" fill="#FFFFFF" points="16.1410448 35.691408 116.634696 35.691408 116.634696 0.141455703 16.1410448 0.141455703"></polygon>
                    <polygon id="Fill-4" fill="#FFFFFF" points="16.1410448 106.790935 116.634696 106.790935 116.634696 71.2411714 16.1410448 71.2411714"></polygon>
                    <g id="Group-85" transform="translate(16.000000, 0.099718)">
                        <g id="Group-7">
                            <polygon id="Clip-6" points="0.141063582 0.0418701326 100.634696 0.0418701326 100.634696 1.69646748 0.141063582 1.69646748"></polygon>
                            <polyline id="Stroke-5" stroke="#FFE682" stroke-width="0.5" stroke-linecap="round" stroke-linejoin="round" points="0.141063582 0.0418701326 4.3274606 1.69646748 8.51404567 0.0418701326 12.701383 1.69646748 16.8881561 0.0418701326 21.0747412 1.69646748 25.2615143 0.0418701326 29.4482875 1.69646748 33.6352487 0.0418701326 37.822774 1.69646748 42.0097352 0.0418701326 46.1970725 1.69646748 50.3842218 0.0418701326 54.571183 1.69646748 58.7585203 0.0418701326 62.9458576 1.69646748 67.1324427 0.0418701326 71.3195919 1.69646748 75.5067412 0.0418701326 79.6944546 1.69646748 83.8821681 0.0418701326 88.0698815 1.69646748 92.257783 0.0418701326 96.4460606 1.69646748 100.634714 0.0418701326"></polyline>
                        </g>
                        <g id="Group-10" transform="translate(0.000000, 2.266313)">
                            <polygon id="Clip-9" points="0.141063582 0.0571677454 100.634696 0.0571677454 100.634696 1.71195395 0.141063582 1.71195395"></polygon>
                            <polyline id="Stroke-8" stroke="#FFE682" stroke-width="0.5" stroke-linecap="round" stroke-linejoin="round" points="0.141063582 0.0571677454 4.3274606 1.71195395 8.51404567 0.0571677454 12.701383 1.71195395 16.8881561 0.0571677454 21.0747412 1.71195395 25.2615143 0.0571677454 29.4482875 1.71195395 33.6352487 0.0571677454 37.822774 1.71195395 42.0097352 0.0571677454 46.1970725 1.71195395 50.3842218 0.0571677454 54.571183 1.71195395 58.7585203 0.0571677454 62.9458576 1.71195395 67.1324427 0.0571677454 71.3195919 1.71195395 75.5067412 0.0571677454 79.6944546 1.71195395 83.8821681 0.0571677454 88.0698815 1.71195395 92.257783 0.0571677454 96.4460606 1.71195395 100.634714 0.0571677454"></polyline>
                        </g>
                        <g id="Group-13" transform="translate(0.000000, 4.532626)">
                            <polygon id="Clip-12" points="0.141063582 0.072484244 100.634696 0.072484244 100.634696 1.72727045 0.141063582 1.72727045"></polygon>
                            <polyline id="Stroke-11" stroke="#FFE682" stroke-width="0.5" stroke-linecap="round" stroke-linejoin="round" points="0.141063582 0.072484244 4.3274606 1.72727045 8.51404567 0.072484244 12.701383 1.72727045 16.8881561 0.072484244 21.0747412 1.72727045 25.2615143 0.072484244 29.4482875 1.72727045 33.6352487 0.072484244 37.822774 1.72727045 42.0097352 0.072484244 46.1970725 1.72727045 50.3842218 0.072484244 54.571183 1.72727045 58.7585203 0.072484244 62.9458576 1.72727045 67.1324427 0.072484244 71.3195919 1.72727045 75.5067412 0.072484244 79.6944546 1.72727045 83.8821681 0.072484244 88.0698815 1.72727045 92.257783 0.072484244 96.4460606 1.72727045 100.634714 0.072484244"></polyline>
                        </g>
                        <g id="Group-16" transform="translate(0.000000, 6.798939)">
                            <polygon id="Clip-15" points="0.141063582 0.0877818568 100.634696 0.0877818568 100.634696 1.65535279 0.141063582 1.65535279"></polygon>
                            <polyline id="Stroke-14" stroke="#FFE682" stroke-width="0.5" stroke-linecap="round" stroke-linejoin="round" points="0.141063582 0.0877818568 4.3274606 1.74256806 8.51404567 0.0877818568 12.701383 1.74256806 16.8881561 0.0877818568 21.0747412 1.74256806 25.2615143 0.0877818568 29.4482875 1.74256806 33.6352487 0.0877818568 37.822774 1.74256806 42.0097352 0.0877818568 46.1970725 1.74256806 50.3842218 0.0877818568 54.571183 1.74256806 58.7585203 0.0877818568 62.9458576 1.74256806 67.1324427 0.0877818568 71.3195919 1.74256806 75.5067412 0.0877818568 79.6944546 1.74256806 83.8821681 0.0877818568 88.0698815 1.74256806 92.257783 0.0877818568 96.4460606 1.74256806 100.634714 0.0877818568"></polyline>
                        </g>
                        <g id="Group-19" transform="translate(8.274627, 0.000000)">
                            <polygon id="Clip-18" points="0.145464179 0.0418701326 0.333523881 0.0418701326 0.333523881 8.45429178 0.145464179 8.45429178"></polygon>
                            <path d="M0.23949403,0.0418701326 L0.23949403,8.54148817" id="Stroke-17" stroke="#FFE682" stroke-width="0.5" stroke-linecap="round" stroke-linejoin="round"></path>
                        </g>
                        <g id="Group-22" transform="translate(4.137313, 0.000000)">
                            <polygon id="Clip-21" points="0.0960608955 0.0418512467 0.284120597 0.0418512467 0.284120597 8.45429178 0.0960608955 8.45429178"></polygon>
                            <path d="M0.190090746,8.54146928 L0.190090746,0.0418512467" id="Stroke-20" stroke="#FFE682" stroke-width="0.5" stroke-linecap="round" stroke-linejoin="round"></path>
                        </g>
                        <g id="Group-25" transform="translate(12.600000, 0.000000)">
                            <polygon id="Clip-24" points="0.00727791045 0.0418512467 0.195337612 0.0418512467 0.195337612 8.45429178 0.00727791045 8.45429178"></polygon>
                            <path d="M0.101307761,8.54146928 L0.101307761,0.0418512467" id="Stroke-23" stroke="#FFE682" stroke-width="0.5" stroke-linecap="round" stroke-linejoin="round"></path>
                        </g>
                        <g id="Group-28" transform="translate(16.737313, 0.000000)">
                            <polygon id="Clip-27" points="0.0567752239 0.0418701326 0.244834925 0.0418701326 0.244834925 8.45429178 0.0567752239 8.45429178"></polygon>
                            <path d="M0.150805075,0.0418701326 L0.150805075,8.54148817" id="Stroke-26" stroke="#FFE682" stroke-width="0.5" stroke-linecap="round" stroke-linejoin="round"></path>
                        </g>
                        <g id="Group-31" transform="translate(20.874627, 0.000000)">
                            <polygon id="Clip-30" points="0.106178507 0.0418512467 0.294238209 0.0418512467 0.294238209 8.45429178 0.106178507 8.45429178"></polygon>
                            <path d="M0.200208358,8.54146928 L0.200208358,0.0418512467" id="Stroke-29" stroke="#FFE682" stroke-width="0.5" stroke-linecap="round" stroke-linejoin="round"></path>
                        </g>
                        <g id="Group-34" transform="translate(29.337313, 0.000000)">
                            <polygon id="Clip-33" points="0.017000597 0.0418512467 0.205060299 0.0418512467 0.205060299 8.45429178 0.017000597 8.45429178"></polygon>
                            <path d="M0.111030448,8.54146928 L0.111030448,0.0418512467" id="Stroke-32" stroke="#FFE682" stroke-width="0.5" stroke-linecap="round" stroke-linejoin="round"></path>
                        </g>
                        <g id="Group-37" transform="translate(25.011940, 0.000000)">
                            <polygon id="Clip-36" points="0.155581791 0.0418701326 0.343641493 0.0418701326 0.343641493 8.45429178 0.155581791 8.45429178"></polygon>
                            <path d="M0.249611642,0.0418701326 L0.249611642,8.54148817" id="Stroke-35" stroke="#FFE682" stroke-width="0.5" stroke-linecap="round" stroke-linejoin="round"></path>
                        </g>
                        <g id="Group-40" transform="translate(33.474627, 0.000000)">
                            <polygon id="Clip-39" points="0.0665919403 0.0418701326 0.254651642 0.0418701326 0.254651642 8.45429178 0.0665919403 8.45429178"></polygon>
                            <path d="M0.160621791,0.0418701326 L0.160621791,8.54148817" id="Stroke-38" stroke="#FFE682" stroke-width="0.5" stroke-linecap="round" stroke-linejoin="round"></path>
                        </g>
                        <g id="Group-43" transform="translate(37.611940, 0.000000)">
                            <polygon id="Clip-42" points="0.116728657 0.0418512467 0.304788358 0.0418512467 0.304788358 8.45429178 0.116728657 8.45429178"></polygon>
                            <path d="M0.210758507,8.54146928 L0.210758507,0.0418512467" id="Stroke-41" stroke="#FFE682" stroke-width="0.5" stroke-linecap="round" stroke-linejoin="round"></path>
                        </g>
                        <g id="Group-46" transform="translate(41.749254, 0.000000)">
                            <polygon id="Clip-45" points="0.16650806 0.0418701326 0.354567761 0.0418701326 0.354567761 8.45429178 0.16650806 8.45429178"></polygon>
                            <path d="M0.26053791,0.0418701326 L0.26053791,8.54148817" id="Stroke-44" stroke="#FFE682" stroke-width="0.5" stroke-linecap="round" stroke-linejoin="round"></path>
                        </g>
                        <g id="Group-49" transform="translate(46.074627, 0.000000)">
                            <polygon id="Clip-48" points="0.0283970149 0.0418512467 0.216456716 0.0418512467 0.216456716 8.45429178 0.0283970149 8.45429178"></polygon>
                            <path d="M0.122426866,8.54146928 L0.122426866,0.0418512467" id="Stroke-47" stroke="#FFE682" stroke-width="0.5" stroke-linecap="round" stroke-linejoin="round"></path>
                        </g>
                        <g id="Group-52" transform="translate(50.211940, 0.000000)">
                            <polygon id="Clip-51" points="0.0781576119 0.0418701326 0.266217313 0.0418701326 0.266217313 8.45429178 0.0781576119 8.45429178"></polygon>
                            <path d="M0.172187463,0.0418701326 L0.172187463,8.54148817" id="Stroke-50" stroke="#FFE682" stroke-width="0.5" stroke-linecap="round" stroke-linejoin="round"></path>
                        </g>
                        <g id="Group-55" transform="translate(54.349254, 0.000000)">
                            <polygon id="Clip-54" points="0.127937015 0.0418512467 0.315996716 0.0418512467 0.315996716 8.45429178 0.127937015 8.45429178"></polygon>
                            <path d="M0.221966866,8.54146928 L0.221966866,0.0418512467" id="Stroke-53" stroke="#FFE682" stroke-width="0.5" stroke-linecap="round" stroke-linejoin="round"></path>
                        </g>
                        <g id="Group-58" transform="translate(58.486567, 0.000000)">
                            <polygon id="Clip-57" points="0.177885672 0.0418701326 0.365945373 0.0418701326 0.365945373 8.45429178 0.177885672 8.45429178"></polygon>
                            <path d="M0.271915522,0.0418701326 L0.271915522,8.54148817" id="Stroke-56" stroke="#FFE682" stroke-width="0.5" stroke-linecap="round" stroke-linejoin="round"></path>
                        </g>
                        <g id="Group-61" transform="translate(62.811940, 0.000000)">
                            <polygon id="Clip-60" points="0.0399626866 0.0418512467 0.228022388 0.0418512467 0.228022388 8.45429178 0.0399626866 8.45429178"></polygon>
                            <path d="M0.133992537,8.54146928 L0.133992537,0.0418512467" id="Stroke-59" stroke="#FFE682" stroke-width="0.5" stroke-linecap="round" stroke-linejoin="round"></path>
                        </g>
                        <g id="Group-64" transform="translate(66.949254, 0.000000)">
                            <polygon id="Clip-63" points="0.0891779104 0.0418701326 0.277237612 0.0418701326 0.277237612 8.45429178 0.0891779104 8.45429178"></polygon>
                            <path d="M0.183207761,0.0418701326 L0.183207761,8.54148817" id="Stroke-62" stroke="#FFE682" stroke-width="0.5" stroke-linecap="round" stroke-linejoin="round"></path>
                        </g>
                        <g id="Group-67" transform="translate(71.086567, 0.000000)">
                            <polygon id="Clip-66" points="0.138957313 0.0418512467 0.327017015 0.0418512467 0.327017015 8.45429178 0.138957313 8.45429178"></polygon>
                            <path d="M0.232987164,8.54146928 L0.232987164,0.0418512467" id="Stroke-65" stroke="#FFE682" stroke-width="0.5" stroke-linecap="round" stroke-linejoin="round"></path>
                        </g>
                        <g id="Group-70" transform="translate(75.411940, 0.000000)">
                            <polygon id="Clip-69" points="0.000846268657 0.0418701326 0.18890597 0.0418701326 0.18890597 8.45429178 0.000846268657 8.45429178"></polygon>
                            <path d="M0.0948761194,0.0418701326 L0.0948761194,8.54148817" id="Stroke-68" stroke="#FFE682" stroke-width="0.5" stroke-linecap="round" stroke-linejoin="round"></path>
                        </g>
                        <path d="M79.6944546,8.45421623 L79.6944546,0.0418512467" id="Stroke-71" stroke="#FFE682" stroke-width="0.5" stroke-linecap="round" stroke-linejoin="round"></path>
                        <g id="Group-75" transform="translate(83.686567, 0.000000)">
                            <polygon id="Clip-74" points="0.101495821 0.0418701326 0.289555522 0.0418701326 0.289555522 8.45429178 0.101495821 8.45429178"></polygon>
                            <path d="M0.195525672,0.0418701326 L0.195525672,8.54148817" id="Stroke-73" stroke="#FFE682" stroke-width="0.5" stroke-linecap="round" stroke-linejoin="round"></path>
                        </g>
                        <g id="Group-78" transform="translate(87.823881, 0.000000)">
                            <polygon id="Clip-77" points="0.151989851 0.0418512467 0.340049552 0.0418512467 0.340049552 8.45429178 0.151989851 8.45429178"></polygon>
                            <path d="M0.246019701,8.54146928 L0.246019701,0.0418512467" id="Stroke-76" stroke="#FFE682" stroke-width="0.5" stroke-linecap="round" stroke-linejoin="round"></path>
                        </g>
                        <g id="Group-81" transform="translate(92.149254, 0.000000)">
                            <polygon id="Clip-80" points="0.0144429851 0.0418701326 0.202502687 0.0418701326 0.202502687 8.45429178 0.0144429851 8.45429178"></polygon>
                            <path d="M0.108472836,0.0418701326 L0.108472836,8.54148817" id="Stroke-79" stroke="#FFE682" stroke-width="0.5" stroke-linecap="round" stroke-linejoin="round"></path>
                        </g>
                        <g id="Group-84" transform="translate(96.286567, 0.000000)">
                            <polygon id="Clip-83" points="0.065501194 0.0418512467 0.253560896 0.0418512467 0.253560896 8.45429178 0.065501194 8.45429178"></polygon>
                            <path d="M0.159531045,8.54146928 L0.159531045,0.0418512467" id="Stroke-82" stroke="#FFE682" stroke-width="0.5" stroke-linecap="round" stroke-linejoin="round"></path>
                        </g>
                    </g>
                    <polygon id="Fill-86" fill="#FFF3C1" points="90.0372239 136.497388 109.330645 136.497388 109.330645 112.634245 90.0372239 112.634245"></polygon>
                    <polygon id="Fill-87" fill="#FFFFFF" points="91.3688746 132.916424 107.999182 132.916424 107.999182 116.215208 91.3688746 116.215208"></polygon>
                    <polygon id="Fill-88" fill="#FFE682" points="98.5281194 129.208359 99.6839343 129.208359 99.6839343 128.047629 98.5281194 128.047629"></polygon>
                    <polygon id="Fill-89" fill="#FFE682" points="99.6837463 121.083815 100.839561 121.083815 100.839561 119.923274 99.6837463 119.923274"></polygon>
                    <polygon id="Fill-90" fill="#FFE682" points="99.6839343 129.208359 100.839749 129.208359 100.839749 128.047629 99.6839343 128.047629"></polygon>
                    <polygon id="Fill-91" fill="#FFE682" points="98.5281194 119.923274 99.6839343 119.923274 99.6839343 118.762544 98.5281194 118.762544"></polygon>
                    <polygon id="Fill-92" fill="#FFE682" points="103.151191 129.208359 104.307006 129.208359 104.307006 128.047629 103.151191 128.047629"></polygon>
                    <polygon id="Fill-93" fill="#FFE682" points="103.151191 125.726546 104.307006 125.726546 104.307006 124.565816 103.151191 124.565816"></polygon>
                    <polygon id="Fill-94" fill="#FFE682" points="95.0608627 124.566005 96.2166776 124.566005 96.2166776 123.405275 95.0608627 123.405275"></polygon>
                    <polygon id="Fill-95" fill="#FFE682" points="99.6839343 126.887088 100.839749 126.887088 100.839749 125.726358 99.6839343 125.726358"></polygon>
                    <polygon id="Fill-96" fill="#FFE682" points="100.839561 125.726546 101.995376 125.726546 101.995376 124.565816 100.839561 124.565816"></polygon>
                    <polygon id="Fill-97" fill="#FFE682" points="100.839561 124.565816 101.995376 124.565816 101.995376 123.405086 100.839561 123.405086"></polygon>
                    <polygon id="Fill-98" fill="#FFE682" points="98.5281194 123.405275 99.6839343 123.405275 99.6839343 122.244545 98.5281194 122.244545"></polygon>
                    <polygon id="Fill-99" fill="#FFE682" points="97.3723045 124.566005 98.5281194 124.566005 98.5281194 123.405275 97.3723045 123.405275"></polygon>
                    <polygon id="Fill-100" fill="#FFE682" points="98.5281194 125.726546 99.6839343 125.726546 99.6839343 124.565816 98.5281194 124.565816"></polygon>
                    <polygon id="Fill-101" fill="#FFE682" points="99.6837463 123.405275 100.839561 123.405275 100.839561 122.244545 99.6837463 122.244545"></polygon>
                    <polygon id="Fill-102" fill="#FFE682" points="98.5281194 122.244545 99.6839343 122.244545 99.6839343 121.083815 98.5281194 121.083815"></polygon>
                    <polygon id="Fill-103" fill="#FFE682" points="101.995564 126.887088 103.151379 126.887088 103.151379 125.726358 101.995564 125.726358"></polygon>
                    <polygon id="Fill-104" fill="#FFE682" points="99.6839343 128.047818 100.839749 128.047818 100.839749 126.887088 99.6839343 126.887088"></polygon>
                    <polygon id="Fill-105" fill="#FFE682" points="101.995564 124.565816 103.151379 124.565816 103.151379 123.405086 101.995564 123.405086"></polygon>
                    <polygon id="Fill-106" fill="#FFE682" points="101.995564 128.047818 103.151379 128.047818 103.151379 126.887088 101.995564 126.887088"></polygon>
                    <polygon id="Fill-107" fill="#FFE682" points="96.2166776 125.726546 97.3724925 125.726546 97.3724925 124.565816 96.2166776 124.565816"></polygon>
                    <polygon id="Fill-108" fill="#FFE682" points="98.5281194 131.529819 99.6839343 131.529819 99.6839343 130.369089 98.5281194 130.369089"></polygon>
                    <polygon id="Fill-109" fill="#FFE682" points="92.7494209 124.566005 93.9052358 124.566005 93.9052358 123.405275 92.7494209 123.405275"></polygon>
                    <polygon id="Fill-110" fill="#FFE682" points="105.462633 124.565816 106.618448 124.565816 106.618448 123.405086 105.462633 123.405086"></polygon>
                    <polygon id="Fill-111" fill="#FFE682" points="103.151191 131.529819 104.307006 131.529819 104.307006 130.369089 103.151191 130.369089"></polygon>
                    <polygon id="Fill-112" fill="#FFE682" points="101.995564 131.529819 103.151379 131.529819 103.151379 130.369089 101.995564 130.369089"></polygon>
                    <polygon id="Fill-113" fill="#FFE682" points="105.462633 131.529819 106.618448 131.529819 106.618448 130.369089 105.462633 130.369089"></polygon>
                    <polygon id="Fill-114" fill="#FFE682" points="105.462633 129.208359 106.618448 129.208359 106.618448 128.047629 105.462633 128.047629"></polygon>
                    <polygon id="Fill-115" fill="#FFE682" points="98.5281194 130.369089 99.6839343 130.369089 99.6839343 129.208359 98.5281194 129.208359"></polygon>
                    <polygon id="Fill-116" fill="#FFE682" points="100.839561 130.369089 101.995376 130.369089 101.995376 129.208359 100.839561 129.208359"></polygon>
                    <polygon id="Fill-117" fill="#FFE682" points="93.9052358 124.566005 95.0610507 124.566005 95.0610507 123.405275 93.9052358 123.405275"></polygon>
                    <polygon id="Fill-118" fill="#FFE682" points="93.9052358 125.726546 95.0610507 125.726546 95.0610507 124.565816 93.9052358 124.565816"></polygon>
                    <polygon id="Fill-119" fill="#FFE682" points="99.6837463 118.762544 100.839561 118.762544 100.839561 117.601814 99.6837463 117.601814"></polygon>
                    <polygon id="Fill-120" fill="#FFE682" points="104.307006 130.369089 105.462821 130.369089 105.462821 129.208359 104.307006 129.208359"></polygon>
                    <polygon id="Fill-121" fill="#FFE682" points="104.307006 128.047818 105.462821 128.047818 105.462821 126.887088 104.307006 126.887088"></polygon>
                    <polygon id="Fill-122" fill="#FFE682" points="104.307006 126.887088 105.462821 126.887088 105.462821 125.726358 104.307006 125.726358"></polygon>
                    <polygon id="Fill-123" fill="#FFE682" points="104.307006 124.565816 105.462821 124.565816 105.462821 123.405086 104.307006 123.405086"></polygon>
                    <path d="M92.749609,122.244923 L97.3728687,122.244923 L97.3728687,117.601814 L92.749609,117.601814 L92.749609,122.244923 Z M93.5279881,121.462856 L96.5943015,121.462856 L96.5943015,118.383692 L93.5279881,118.383692 L93.5279881,121.462856 Z" id="Fill-124" fill="#FFE682"></path>
                    <polygon id="Fill-125" fill="#FFE682" points="94.2589761 120.729137 95.8636896 120.729137 95.8636896 119.117789 94.2589761 119.117789"></polygon>
                    <path d="M92.749609,131.530007 L97.3728687,131.530007 L97.3728687,126.886899 L92.749609,126.886899 L92.749609,131.530007 Z M93.5279881,130.747941 L96.5943015,130.747941 L96.5943015,127.668777 L93.5279881,127.668777 L93.5279881,130.747941 Z" id="Fill-126" fill="#FFE682"></path>
                    <polygon id="Fill-127" fill="#FFE682" points="94.2589761 130.014222 95.8636896 130.014222 95.8636896 128.402873 94.2589761 128.402873"></polygon>
                    <path d="M101.995376,122.244923 L106.618636,122.244923 L106.618636,117.601814 L101.995376,117.601814 L101.995376,122.244923 Z M102.773755,121.462856 L105.840069,121.462856 L105.840069,118.383692 L102.773755,118.383692 L102.773755,121.462856 Z" id="Fill-128" fill="#FFE682"></path>
                    <polygon id="Fill-129" fill="#FFE682" points="103.504743 120.729137 105.109269 120.729137 105.109269 119.117789 103.504743 119.117789"></polygon>
                    <path d="M88.2038299,18.1271013 L110.516925,18.1271013" id="Stroke-130" stroke="#FFE682" stroke-width="0.5" stroke-linecap="round" stroke-linejoin="round"></path>
                    <path d="M88.2038299,22.6761391 L110.516925,22.6761391" id="Stroke-131" stroke="#FFE682" stroke-width="0.5" stroke-linecap="round" stroke-linejoin="round"></path>
                    <path d="M88.2038299,27.225177 L99.4443463,27.225177" id="Stroke-132" stroke="#FFE682" stroke-width="0.5" stroke-linecap="round" stroke-linejoin="round"></path>
                    <polygon id="Fill-133" fill="#FFE682" points="22.2586269 48.5742642 109.330645 48.5742642 109.330645 41.8348159 22.2586269 41.8348159"></polygon>
                    <polygon id="Stroke-134" stroke="#FFE682" stroke-width="0.5" stroke-linecap="round" stroke-linejoin="round" points="22.2586269 96.928696 109.330645 96.928696 109.330645 41.8348159 22.2586269 41.8348159"></polygon>
                    <path d="M80.5583943,48.5742453 L80.5583943,96.9286771" id="Stroke-135" stroke="#FFE682" stroke-width="0.5" stroke-linecap="round" stroke-linejoin="round"></path>
                    <path d="M22.2586081,48.5738454 L109.330626,48.5738454" id="Stroke-136" stroke="#FFE682" stroke-width="0.5" stroke-linecap="round" stroke-linejoin="round"></path>
                    <path d="M27.0494478,55.3218868 L48.523797,55.3218868" id="Stroke-137" stroke="#FFE682" stroke-width="0.5" stroke-linecap="round" stroke-linejoin="round"></path>
                    <path d="M27.0494478,62.0697393 L37.7867164,62.0697393" id="Stroke-138" stroke="#FFE682" stroke-width="0.5" stroke-linecap="round" stroke-linejoin="round"></path>
                    <path d="M83.9137179,93.5587231 L94.6509866,93.5587231" id="Stroke-139" stroke="#FFE682" stroke-width="0.5" stroke-linecap="round" stroke-linejoin="round"></path>
                    <polygon id="Stroke-140" stroke="#FFE682" stroke-width="0.5" stroke-linecap="round" stroke-linejoin="round" points="80.5584507 96.928696 109.330645 96.928696 109.330645 90.1892477 80.5584507 90.1892477"></polygon>
                    <path d="M22.2586081,112.633902 L43.7329573,112.633902" id="Stroke-141" stroke="#FFE682" stroke-width="0.5" stroke-linecap="round" stroke-linejoin="round"></path>
                    <path d="M22.2586081,116.952947 L43.7329573,116.952947" id="Stroke-142" stroke="#FFE682" stroke-width="0.5" stroke-linecap="round" stroke-linejoin="round"></path>
                    <path d="M22.2586081,121.271992 L32.9958767,121.271992" id="Stroke-143" stroke="#FFE682" stroke-width="0.5" stroke-linecap="round" stroke-linejoin="round"></path>
                    <g id="Group-158" transform="translate(19.008955, 11.809002)">
                        <path d="M5.62821313,11.6805205 L5.62821313,11.6805205 C5.2746609,11.6805205 4.98824597,11.3926988 4.98824597,11.0378319 L4.98824597,6.7660208 C4.98824597,6.41115395 5.2746609,6.1233322 5.62821313,6.1233322 C5.98157731,6.1233322 6.2681803,6.41115395 6.2681803,6.7660208 L6.2681803,11.0378319 C6.2681803,11.3926988 5.98157731,11.6805205 5.62821313,11.6805205" id="Fill-144" fill="#FFE682"></path>
                        <path d="M3.88967642,10.5403385 L3.88967642,10.5403385 C3.53631224,10.5403385 3.24970925,10.2527056 3.24970925,9.89764987 L3.24970925,7.90612732 C3.24970925,7.55107162 3.53631224,7.26324987 3.88967642,7.26324987 C4.2430406,7.26324987 4.52964358,7.55107162 4.52964358,7.90612732 L4.52964358,9.89764987 C4.52964358,10.2527056 4.2430406,10.5403385 3.88967642,10.5403385" id="Fill-146" fill="#FFE682"></path>
                        <path d="M12.2786248,11.6805205 L12.2786248,11.6805205 C12.632177,11.6805205 12.9185919,11.3926988 12.9185919,11.0378319 L12.9185919,6.7660208 C12.9185919,6.41115395 12.632177,6.1233322 12.2786248,6.1233322 C11.9252606,6.1233322 11.6386576,6.41115395 11.6386576,6.7660208 L11.6386576,11.0378319 C11.6386576,11.3926988 11.9252606,11.6805205 12.2786248,11.6805205" id="Fill-148" fill="#FFE682"></path>
                        <path d="M14.0171803,10.5403385 L14.0171803,10.5403385 C14.3705445,10.5403385 14.6571475,10.2527056 14.6571475,9.89764987 L14.6571475,7.90612732 C14.6571475,7.55107162 14.3705445,7.26324987 14.0171803,7.26324987 C13.6638161,7.26324987 13.3772131,7.55107162 13.3772131,7.90612732 L13.3772131,9.89764987 C13.3772131,10.2527056 13.6638161,10.5403385 14.0171803,10.5403385" id="Fill-150" fill="#FFE682"></path>
                        <path d="M10.7084015,9.41696488 L7.19845522,9.41696488 C6.91523731,9.41696488 6.68561642,9.18617867 6.68561642,8.90175639 C6.68561642,8.61752297 6.91523731,8.38673676 7.19845522,8.38673676 L10.7084015,8.38673676 C10.9916194,8.38673676 11.2212403,8.61752297 11.2212403,8.90175639 C11.2212403,9.18617867 10.9916194,9.41696488 10.7084015,9.41696488" id="Fill-152" fill="#FFE682"></path>
                        <path d="M16.5536919,8.90185082 C16.5536919,13.117193 13.1509397,16.5344153 8.95344716,16.5344153 C4.75595463,16.5344153 1.35320239,13.117193 1.35320239,8.90185082 C1.35320239,4.68650865 4.75595463,1.26928637 8.95344716,1.26928637 C13.1509397,1.26928637 16.5536919,4.68650865 16.5536919,8.90185082 Z" id="Stroke-154" stroke="#FFE682" stroke-width="0.5" stroke-linecap="round" stroke-linejoin="round"></path>
                        <path d="M17.7689149,8.90185082 C17.7689149,13.7912323 13.822106,17.7548248 8.95342836,17.7548248 C4.08475075,17.7548248 0.137941791,13.7912323 0.137941791,8.90185082 C0.137941791,4.01246939 4.08475075,0.048876817 8.95342836,0.048876817 C13.822106,0.048876817 17.7689149,4.01246939 17.7689149,8.90185082 Z" id="Stroke-156" stroke="#FFE682" stroke-width="0.564179104" stroke-linecap="round" stroke-linejoin="round"></path>
                    </g>
                    <g id="Fill-2">
                        <mask id="mask-3" fill="white">
                            <use xlink:href="#path-2"></use>
                        </mask>
                        <g id="Mask"></g>
                        <g fill-rule="nonzero" mask="url(#mask-3)">
                            <use fill="black" fill-opacity="1" filter="url(#filter-5)" xlink:href="#path-4"></use>
                            <use fill="#FFFFFF" xlink:href="#path-4"></use>
                        </g>
                    </g>
                </g>
                <g transform="translate(13.000000, 23.000000)" id="Group-195">
                    <g filter="url(#filter-6)" transform="translate(35.200000, 14.400000)">
                        <polygon id="Fill-2" fill="#FFD6C5" points="0 140 99.2 140 99.2 0.8 0 0.8"></polygon>
                        <polygon id="Fill-3" fill="#FFEBE2" points="0 36 99.2 36 99.2 0.8 0 0.8"></polygon>
                        <polygon id="Fill-4" fill="#FFEBE2" points="0 104.8 99.2 104.8 99.2 69.6 0 69.6"></polygon>
                        <g id="Group-86">
                            <g id="Group-7">
                                <polygon id="Clip-6" points="0.138991045 0.0402215873 99.0371713 0.0402215873 99.0371713 1.63128952 0.138991045 1.63128952"></polygon>
                                <polyline id="Stroke-5" stroke="#FFCBB5" stroke-width="1.2" stroke-linecap="round" stroke-linejoin="round" points="0.138842985 0.0402215873 4.25878925 1.63128952 8.3789206 0.0402215873 12.4997922 1.63128952 16.6201087 0.0402215873 20.74024 1.63128952 24.8605564 0.0402215873 28.9808728 1.63128952 33.1013743 0.0402215873 37.222431 1.63128952 41.3429325 0.0402215873 45.4636191 1.63128952 49.5843057 0.0402215873 53.7051773 1.63128952 57.8258639 0.0402215873 61.9467355 1.63128952 66.0670519 0.0402215873 70.1875534 1.63128952 74.30824 0.0402215873 78.4292967 1.63128952 82.5507236 0.0402215873 86.6719654 1.63128952 90.7932072 0.0402215873 94.9153743 1.63128952 99.0371713 0.0402215873"></polyline>
                            </g>
                            <g id="Group-10" transform="translate(0.000000, 2.179048)">
                                <polygon id="Clip-9" points="0.138991045 0.0549483175 99.0371713 0.0549483175 99.0371713 1.64601625 0.138991045 1.64601625"></polygon>
                                <polyline id="Stroke-8" stroke="#FFCBB5" stroke-width="1.2" stroke-linecap="round" stroke-linejoin="round" points="0.138842985 0.0549483175 4.25878925 1.64601625 8.3789206 0.0549483175 12.4997922 1.64601625 16.6201087 0.0549483175 20.74024 1.64601625 24.8605564 0.0549483175 28.9808728 1.64601625 33.1013743 0.0549483175 37.222431 1.64601625 41.3429325 0.0549483175 45.4636191 1.64601625 49.5843057 0.0549483175 53.7051773 1.64601625 57.8258639 0.0549483175 61.9467355 1.64601625 66.0670519 0.0549483175 70.1875534 1.64601625 74.30824 0.0549483175 78.4292967 1.64601625 82.5507236 0.0549483175 86.6719654 1.64601625 90.7932072 0.0549483175 94.9153743 1.64601625 99.0371713 0.0549483175"></polyline>
                            </g>
                            <g id="Group-13" transform="translate(0.000000, 4.358095)">
                                <polygon id="Clip-12" points="0.138991045 0.0696568889 99.0371713 0.0696568889 99.0371713 1.66072483 0.138991045 1.66072483"></polygon>
                                <polyline id="Stroke-11" stroke="#FFCBB5" stroke-width="1.2" stroke-linecap="round" stroke-linejoin="round" points="0.138842985 0.0696568889 4.25878925 1.66072483 8.3789206 0.0696568889 12.4997922 1.66072483 16.6201087 0.0696568889 20.74024 1.66072483 24.8605564 0.0696568889 28.9808728 1.66072483 33.1013743 0.0696568889 37.222431 1.66072483 41.3429325 0.0696568889 45.4636191 1.66072483 49.5843057 0.0696568889 53.7051773 1.66072483 57.8258639 0.0696568889 61.9467355 1.66072483 66.0670519 0.0696568889 70.1875534 1.66072483 74.30824 0.0696568889 78.4292967 1.66072483 82.5507236 0.0696568889 86.6719654 1.66072483 90.7932072 0.0696568889 94.9153743 1.66072483 99.0371713 0.0696568889"></polyline>
                            </g>
                            <g id="Group-16" transform="translate(0.000000, 6.537143)">
                                <polygon id="Clip-15" points="0.138991045 0.084383619 99.0371713 0.084383619 99.0371713 1.59143111 0.138991045 1.59143111"></polygon>
                                <polyline id="Stroke-14" stroke="#FFCBB5" stroke-width="1.2" stroke-linecap="round" stroke-linejoin="round" points="0.138842985 0.084383619 4.25878925 1.67545156 8.3789206 0.084383619 12.4997922 1.67545156 16.6201087 0.084383619 20.74024 1.67545156 24.8605564 0.084383619 28.9808728 1.67545156 33.1013743 0.084383619 37.222431 1.67545156 41.3429325 0.084383619 45.4636191 1.67545156 49.5843057 0.084383619 53.7051773 1.67545156 57.8258639 0.084383619 61.9467355 1.67545156 66.0670519 0.084383619 70.1875534 1.67545156 74.30824 0.084383619 78.4292967 1.67545156 82.5507236 0.084383619 86.6719654 1.67545156 90.7932072 0.084383619 94.9153743 1.67545156 99.0371713 0.084383619"></polyline>
                            </g>
                            <g id="Group-19" transform="translate(8.328358, 0.000000)">
                                <polygon id="Clip-18" points="0.0506364179 0.0402215873 0.368585136 0.0402215873 0.368585136 8.12857397 0.0506364179 8.12857397"></polygon>
                                <path d="M0.0506364179,0.0402215873 L0.0506364179,8.2125581" id="Stroke-17" stroke="#FFCBB5" stroke-width="1.2" stroke-linecap="round" stroke-linejoin="round"></path>
                            </g>
                            <g id="Group-22" transform="translate(4.256716, 0.000000)">
                                <polygon id="Clip-21" points="0.00201731343 0.0402034286 0.319966031 0.0402034286 0.319966031 8.12857397 0.00201731343 8.12857397"></polygon>
                                <path d="M0.00201731343,8.21253994 L0.00201731343,0.0402034286" id="Stroke-20" stroke="#FFCBB5" stroke-width="1.2" stroke-linecap="round" stroke-linejoin="round"></path>
                            </g>
                            <g id="Group-25" transform="translate(12.400000, 0.000000)">
                                <polygon id="Clip-24" points="0.0997922388 0.0402034286 0.417740957 0.0402034286 0.417740957 8.12857397 0.0997922388 8.12857397"></polygon>
                                <path d="M0.0997922388,8.21253994 L0.0997922388,0.0402034286" id="Stroke-23" stroke="#FFCBB5" stroke-width="1.2" stroke-linecap="round" stroke-linejoin="round"></path>
                            </g>
                            <g id="Group-28" transform="translate(16.471642, 0.000000)">
                                <polygon id="Clip-27" points="0.148411343 0.0402215873 0.466360061 0.0402215873 0.466360061 8.12857397 0.148411343 8.12857397"></polygon>
                                <path d="M0.148411343,0.0402215873 L0.148411343,8.2125581" id="Stroke-26" stroke="#FFCBB5" stroke-width="1.2" stroke-linecap="round" stroke-linejoin="round"></path>
                            </g>
                            <g id="Group-31" transform="translate(20.728358, 0.000000)">
                                <polygon id="Clip-30" points="0.0119558209 0.0402034286 0.329904539 0.0402034286 0.329904539 8.12857397 0.0119558209 8.12857397"></polygon>
                                <path d="M0.0119558209,8.21253994 L0.0119558209,0.0402034286" id="Stroke-29" stroke="#FFCBB5" stroke-width="1.2" stroke-linecap="round" stroke-linejoin="round"></path>
                            </g>
                            <g id="Group-34" transform="translate(28.871642, 0.000000)">
                                <polygon id="Clip-33" points="0.10919403 0.0402034286 0.427142748 0.0402034286 0.427142748 8.12857397 0.10919403 8.12857397"></polygon>
                                <path d="M0.10919403,8.21253994 L0.10919403,0.0402034286" id="Stroke-32" stroke="#FFCBB5" stroke-width="1.2" stroke-linecap="round" stroke-linejoin="round"></path>
                            </g>
                            <g id="Group-37" transform="translate(24.800000, 0.000000)">
                                <polygon id="Clip-36" points="0.0605749254 0.0402215873 0.378523643 0.0402215873 0.378523643 8.12857397 0.0605749254 8.12857397"></polygon>
                                <path d="M0.0605749254,0.0402215873 L0.0605749254,8.2125581" id="Stroke-35" stroke="#FFCBB5" stroke-width="1.2" stroke-linecap="round" stroke-linejoin="round"></path>
                            </g>
                            <g id="Group-40" transform="translate(32.943284, 0.000000)">
                                <polygon id="Clip-39" points="0.158183284 0.0402215873 0.476132002 0.0402215873 0.476132002 8.12857397 0.158183284 8.12857397"></polygon>
                                <path d="M0.158183284,0.0402215873 L0.158183284,8.2125581" id="Stroke-38" stroke="#FFCBB5" stroke-width="1.2" stroke-linecap="round" stroke-linejoin="round"></path>
                            </g>
                            <g id="Group-43" transform="translate(37.200000, 0.000000)">
                                <polygon id="Clip-42" points="0.0224495522 0.0402034286 0.34039827 0.0402034286 0.34039827 8.12857397 0.0224495522 8.12857397"></polygon>
                                <path d="M0.0224495522,8.21253994 L0.0224495522,0.0402034286" id="Stroke-41" stroke="#FFCBB5" stroke-width="1.2" stroke-linecap="round" stroke-linejoin="round"></path>
                            </g>
                            <g id="Group-46" transform="translate(41.271642, 0.000000)">
                                <polygon id="Clip-45" points="0.0712352239 0.0402215873 0.389183942 0.0402215873 0.389183942 8.12857397 0.0712352239 8.12857397"></polygon>
                                <path d="M0.0712352239,0.0402215873 L0.0712352239,8.2125581" id="Stroke-44" stroke="#FFCBB5" stroke-width="1.2" stroke-linecap="round" stroke-linejoin="round"></path>
                            </g>
                            <g id="Group-49" transform="translate(45.343284, 0.000000)">
                                <polygon id="Clip-48" points="0.120409552 0.0402034286 0.43835827 0.0402034286 0.43835827 8.12857397 0.120409552 8.12857397"></polygon>
                                <path d="M0.120409552,8.21253994 L0.120409552,0.0402034286" id="Stroke-47" stroke="#FFCBB5" stroke-width="1.2" stroke-linecap="round" stroke-linejoin="round"></path>
                            </g>
                            <g id="Group-52" transform="translate(49.414925, 0.000000)">
                                <polygon id="Clip-51" points="0.169380299 0.0402215873 0.487329016 0.0402215873 0.487329016 8.12857397 0.169380299 8.12857397"></polygon>
                                <path d="M0.169380299,0.0402215873 L0.169380299,8.2125581" id="Stroke-50" stroke="#FFCBB5" stroke-width="1.2" stroke-linecap="round" stroke-linejoin="round"></path>
                            </g>
                            <g id="Group-55" transform="translate(53.671642, 0.000000)">
                                <polygon id="Clip-54" points="0.0334614925 0.0402034286 0.35141021 0.0402034286 0.35141021 8.12857397 0.0334614925 8.12857397"></polygon>
                                <path d="M0.0334614925,8.21253994 L0.0334614925,0.0402034286" id="Stroke-53" stroke="#FFCBB5" stroke-width="1.2" stroke-linecap="round" stroke-linejoin="round"></path>
                            </g>
                            <g id="Group-58" transform="translate(57.743284, 0.000000)">
                                <polygon id="Clip-57" points="0.0826358209 0.0402215873 0.400584539 0.0402215873 0.400584539 8.12857397 0.0826358209 8.12857397"></polygon>
                                <path d="M0.0826358209,0.0402215873 L0.0826358209,8.2125581" id="Stroke-56" stroke="#FFCBB5" stroke-width="1.2" stroke-linecap="round" stroke-linejoin="round"></path>
                            </g>
                            <g id="Group-61" transform="translate(61.814925, 0.000000)">
                                <polygon id="Clip-60" points="0.131791642 0.0402034286 0.44974036 0.0402034286 0.44974036 8.12857397 0.131791642 8.12857397"></polygon>
                                <path d="M0.131791642,8.21253994 L0.131791642,0.0402034286" id="Stroke-59" stroke="#FFCBB5" stroke-width="1.2" stroke-linecap="round" stroke-linejoin="round"></path>
                            </g>
                            <g id="Group-64" transform="translate(65.886567, 0.000000)">
                                <polygon id="Clip-63" points="0.180410746 0.0402215873 0.498359464 0.0402215873 0.498359464 8.12857397 0.180410746 8.12857397"></polygon>
                                <path d="M0.180410746,0.0402215873 L0.180410746,8.2125581" id="Stroke-62" stroke="#FFCBB5" stroke-width="1.2" stroke-linecap="round" stroke-linejoin="round"></path>
                            </g>
                            <g id="Group-67" transform="translate(70.143284, 0.000000)">
                                <polygon id="Clip-66" points="0.0443068657 0.0402034286 0.362255584 0.0402034286 0.362255584 8.12857397 0.0443068657 8.12857397"></polygon>
                                <path d="M0.0443068657,8.21253994 L0.0443068657,0.0402034286" id="Stroke-65" stroke="#FFCBB5" stroke-width="1.2" stroke-linecap="round" stroke-linejoin="round"></path>
                            </g>
                            <g id="Group-70" transform="translate(74.214925, 0.000000)">
                                <polygon id="Clip-69" points="0.0932961194 0.0402215873 0.411244837 0.0402215873 0.411244837 8.12857397 0.0932961194 8.12857397"></polygon>
                                <path d="M0.0932961194,0.0402215873 L0.0932961194,8.2125581" id="Stroke-68" stroke="#FFCBB5" stroke-width="1.2" stroke-linecap="round" stroke-linejoin="round"></path>
                            </g>
                            <g id="Group-73" transform="translate(78.286567, 0.000000)">
                                <polygon id="Clip-72" points="0.14282209 0.0402215873 0.460770808 0.0402215873 0.460770808 8.12857397 0.14282209 8.12857397"></polygon>
                                <path d="M0.14282209,8.12866476 L0.14282209,0.0402215873" id="Stroke-71" stroke="#FFCBB5" stroke-width="1.2" stroke-linecap="round" stroke-linejoin="round"></path>
                            </g>
                            <g id="Group-76" transform="translate(82.543284, 0.000000)">
                                <polygon id="Clip-75" points="0.00744 0.0402215873 0.325388718 0.0402215873 0.325388718 8.12857397 0.00744 8.12857397"></polygon>
                                <path d="M0.00744,0.0402215873 L0.00744,8.2125581" id="Stroke-74" stroke="#FFCBB5" stroke-width="1.2" stroke-linecap="round" stroke-linejoin="round"></path>
                            </g>
                            <g id="Group-79" transform="translate(86.614925, 0.000000)">
                                <polygon id="Clip-78" points="0.0569659701 0.0402034286 0.374914688 0.0402034286 0.374914688 8.12857397 0.0569659701 8.12857397"></polygon>
                                <path d="M0.0569659701,8.21253994 L0.0569659701,0.0402034286" id="Stroke-77" stroke="#FFCBB5" stroke-width="1.2" stroke-linecap="round" stroke-linejoin="round"></path>
                            </g>
                            <g id="Group-82" transform="translate(90.686567, 0.000000)">
                                <polygon id="Clip-81" points="0.106677015 0.0402215873 0.424625733 0.0402215873 0.424625733 8.12857397 0.106677015 8.12857397"></polygon>
                                <path d="M0.106677015,0.0402215873 L0.106677015,8.2125581" id="Stroke-80" stroke="#FFCBB5" stroke-width="1.2" stroke-linecap="round" stroke-linejoin="round"></path>
                            </g>
                            <g id="Group-85" transform="translate(94.758209, 0.000000)">
                                <polygon id="Clip-84" points="0.157091343 0.0402034286 0.475040061 0.0402034286 0.475040061 8.12857397 0.157091343 8.12857397"></polygon>
                                <path d="M0.157091343,8.21253994 L0.157091343,0.0402034286" id="Stroke-83" stroke="#FFCBB5" stroke-width="1.2" stroke-linecap="round" stroke-linejoin="round"></path>
                            </g>
                        </g>
                        <path d="M71.2,17.6 L93.6,17.6" id="Stroke-87" stroke="#FF9A71" stroke-width="1.2" stroke-linecap="round" stroke-linejoin="round"></path>
                        <path d="M71.2,22.4 L93.6,22.4" id="Stroke-88" stroke="#FF9A71" stroke-width="1.2" stroke-linecap="round" stroke-linejoin="round"></path>
                        <path d="M71.2,26.4 L81.6,26.4" id="Stroke-89" stroke="#FF9A71" stroke-width="1.2" stroke-linecap="round" stroke-linejoin="round"></path>
                        <polygon id="Fill-90" fill="#FF9A71" points="6.4 48 92 48 92 41.6 6.4 41.6"></polygon>
                        <polygon id="Stroke-91" stroke="#FF9A71" stroke-width="1.2" stroke-linecap="round" stroke-linejoin="round" points="6.4 96 92 96 92 41.6 6.4 41.6"></polygon>
                        <path d="M63.2,48 L63.2,96" id="Stroke-92" stroke="#FF9A71" stroke-width="1.2" stroke-linecap="round" stroke-linejoin="round"></path>
                        <path d="M10.4,54.4 L31.2,54.4" id="Stroke-94" stroke="#FF9A71" stroke-width="1.2" stroke-linecap="round" stroke-linejoin="round"></path>
                        <path d="M10.4,60.8 L20.8,60.8" id="Stroke-95" stroke="#FF9A71" stroke-width="1.2" stroke-linecap="round" stroke-linejoin="round"></path>
                        <path d="M66.4,92 L76.8,92" id="Stroke-96" stroke="#FF9A71" stroke-width="1.2" stroke-linecap="round" stroke-linejoin="round"></path>
                        <polygon id="Stroke-97" stroke="#FF9A71" stroke-width="1.2" stroke-linecap="round" stroke-linejoin="round" points="63.2 94.4 92 94.4 92 88 63.2 88"></polygon>
                        <path d="M6.4,110.4 L27.2,110.4" id="Stroke-98" stroke="#FF9A71" stroke-width="1.2" stroke-linecap="round" stroke-linejoin="round"></path>
                        <path d="M6.4,115.2 L27.2,115.2" id="Stroke-99" stroke="#FF9A71" stroke-width="1.2" stroke-linecap="round" stroke-linejoin="round"></path>
                        <path d="M6.4,119.2 L16.8,119.2" id="Stroke-100" stroke="#FF9A71" stroke-width="1.2" stroke-linecap="round" stroke-linejoin="round"></path>
                        <g id="Group-194">
                            <path d="M27.0121108,21.4651903 C27.0121108,21.3348813 27.0093415,21.2051275 27.0043569,21.0761142 C26.9958646,20.8632515 26.8710646,20.6724154 26.6816492,20.5757942 L25.99968,20.2278099 C25.6585108,20.0540028 25.5697108,19.6060656 25.8183877,19.3145362 L26.3170338,18.7296264 C26.4549415,18.5678507 26.4975877,18.3436969 26.4242954,18.1439762 C26.3349415,17.8998318 26.2358031,17.660315 26.1278031,17.426166 C26.0386338,17.2331087 25.8505108,17.1048358 25.6391262,17.088362 L24.8738954,17.0283903 C24.49248,16.9985895 24.2393723,16.6187683 24.3578954,16.2541252 L24.5945723,15.5248389 C24.6602954,15.3223416 24.6139569,15.0989283 24.4699569,14.9425205 C24.2943877,14.7514993 24.1110646,14.567882 23.9207262,14.3918538 C23.7647262,14.2474773 23.5418954,14.2010177 23.3399262,14.2669126 L22.6127262,14.5043934 C22.2488492,14.6230413 21.8700185,14.3692718 21.8402954,13.9870444 L21.78048,13.219813 C21.7640492,13.0078758 21.6362954,12.8190758 21.4437415,12.7298585 C21.2098338,12.6213911 20.9711262,12.5221785 20.7278031,12.432406 C20.5284185,12.3591071 20.3048492,12.4014946 20.1434954,12.5399479 L19.5602954,13.0398977 C19.2695262,13.2892248 18.8227569,13.2001926 18.6492185,12.8583165 L18.3019569,12.1743793 C18.2057723,11.9844687 18.0154338,11.8593424 17.8031262,11.851013 C17.6744492,11.8456452 17.5452185,11.8432389 17.4152492,11.8432389 C17.2850954,11.8432389 17.1558646,11.8456452 17.0271877,11.851013 C16.8150646,11.8593424 16.6245415,11.9844687 16.5283569,12.1743793 L16.18128,12.8583165 C16.0077415,13.2001926 15.5609723,13.2892248 15.2700185,13.0398977 L14.6868185,12.5399479 C14.5254646,12.4014946 14.3018954,12.3591071 14.1026954,12.432406 C13.8591877,12.5221785 13.62048,12.6213911 13.3867569,12.7298585 C13.1942031,12.8190758 13.0662646,13.0078758 13.0498338,13.219813 L12.9900185,13.9870444 C12.9602954,14.3692718 12.5814646,14.6230413 12.2175877,14.5043934 L11.4903877,14.2669126 C11.2884185,14.2010177 11.0655877,14.2474773 10.9095877,14.3918538 C10.7192492,14.567882 10.5361108,14.7514993 10.3603569,14.9425205 C10.2163569,15.0989283 10.1700185,15.3223416 10.2357415,15.5248389 L10.4726031,16.2541252 C10.5911262,16.6187683 10.3380185,16.9985895 9.95641846,17.0283903 L9.19137231,17.088362 C8.97980308,17.1048358 8.79186462,17.2331087 8.70269538,17.426166 C8.59451077,17.660315 8.49555692,17.8998318 8.40601846,18.1439762 C8.33272615,18.3436969 8.37537231,18.5678507 8.51328,18.7296264 L9.01192615,19.3145362 C9.26078769,19.6060656 9.17180308,20.0540028 8.83081846,20.2278099 L8.14866462,20.5757942 C7.95943385,20.6724154 7.83444923,20.8632515 7.82595692,21.0761142 C7.82097231,21.2051275 7.81820308,21.3348813 7.81820308,21.4651903 C7.81820308,21.5953142 7.82097231,21.7250679 7.82595692,21.8542664 C7.83444923,22.066944 7.95943385,22.2577801 8.14866462,22.3544013 L8.83081846,22.7023856 C9.17180308,22.8761926 9.26078769,23.324315 9.01192615,23.6158444 L8.51328,24.2005691 C8.37537231,24.3623448 8.33272615,24.5864985 8.40601846,24.7862193 C8.49555692,25.0303636 8.59451077,25.2698805 8.70269538,25.5040295 C8.79186462,25.6970867 8.97980308,25.8253597 9.19137231,25.8420185 L9.95641846,25.9018052 C10.3380185,25.9317911 10.5911262,26.3116122 10.4726031,26.6762554 L10.2357415,27.4053565 C10.1700185,27.6078538 10.2163569,27.8312671 10.3603569,27.987675 C10.5361108,28.1786962 10.7192492,28.3623134 10.9095877,28.5383416 C11.0655877,28.6827181 11.2884185,28.7291777 11.4903877,28.6632828 L12.2175877,28.425802 C12.5814646,28.3071542 12.9602954,28.5609236 12.9900185,28.9433362 L13.0498338,29.7103824 C13.0662646,29.9225048 13.1942031,30.1111197 13.3867569,30.2003369 C13.62048,30.3088044 13.8591877,30.4080169 14.1026954,30.4977895 C14.3018954,30.5712734 14.5254646,30.5287009 14.6868185,30.3904326 L15.2700185,29.8902977 C15.5609723,29.6409707 16.0077415,29.7300028 16.18128,30.0718789 L16.5283569,30.7558162 C16.6245415,30.9457267 16.8150646,31.070853 17.0271877,31.0791824 C17.1558646,31.0845503 17.2850954,31.0869565 17.4152492,31.0869565 C17.5452185,31.0869565 17.6744492,31.0845503 17.8031262,31.0791824 C18.0154338,31.070853 18.2057723,30.9457267 18.3019569,30.7558162 L18.6492185,30.0718789 C18.8227569,29.7300028 19.2695262,29.6409707 19.5602954,29.8902977 L20.1434954,30.3904326 C20.3048492,30.5287009 20.5284185,30.5712734 20.7278031,30.4977895 C20.9711262,30.4080169 21.2098338,30.3088044 21.4437415,30.2003369 C21.6362954,30.1111197 21.7640492,29.9225048 21.78048,29.7103824 L21.8402954,28.9433362 C21.8700185,28.5609236 22.2488492,28.3071542 22.6127262,28.425802 L23.3399262,28.6632828 C23.5418954,28.7291777 23.7647262,28.6827181 23.9207262,28.5383416 C24.1110646,28.3623134 24.2943877,28.1786962 24.4699569,27.987675 C24.6139569,27.8312671 24.6602954,27.6078538 24.5945723,27.4053565 L24.3578954,26.6762554 C24.2393723,26.3116122 24.49248,25.9317911 24.8738954,25.9018052 L25.6391262,25.8420185 C25.8505108,25.8253597 26.0386338,25.6970867 26.1278031,25.5040295 C26.2358031,25.2698805 26.3349415,25.0303636 26.4242954,24.7862193 C26.4975877,24.5864985 26.4549415,24.3623448 26.3170338,24.2005691 L25.8183877,23.6158444 C25.5697108,23.324315 25.6585108,22.8761926 25.99968,22.7023856 L26.6816492,22.3544013 C26.8710646,22.2577801 26.9958646,22.066944 27.0043569,21.8542664 C27.0093415,21.7250679 27.0121108,21.5953142 27.0121108,21.4651903" id="Fill-101" fill="#FF9A71"></path>
                            <path d="M15.0041723,25.4265475 L14.0482338,26.3268643 L12.79248,25.9472282 L12.4926646,24.6669051 L13.4486031,23.7664031 L14.7043569,24.1462243 L15.0041723,25.4265475 Z M20.7560492,18.4459451 L20.5034954,17.3675639 L21.8506338,16.0985318 C21.12048,15.8325459 20.2714338,15.9765522 19.6666338,16.5462839 C19.1218338,17.0595608 18.9080492,17.792549 19.0310031,18.4790776 L14.2743877,22.9595608 C13.5986954,22.7937129 12.8556185,22.9619671 12.3108185,23.4750588 C11.4545723,24.2813459 11.4126646,25.6308957 12.2168492,26.4891953 C13.0212185,27.3474949 14.3672492,27.3895122 15.2233108,26.5832251 C15.7682954,26.0701333 15.9818954,25.3371451 15.8589415,24.6506165 L20.6155569,20.1701333 C21.2914338,20.3359812 22.0343262,20.1679122 22.5791262,19.6546353 C23.1841108,19.0847184 23.3803569,18.2443733 23.1610338,17.4971325 L21.8138954,18.7659796 L20.7560492,18.4459451 Z" id="Fill-103" fill="#FFFFFF"></path>
                            <path d="M18.6065169,15.561766 C17.0771631,15.2530224 15.4512554,15.5447369 14.1048554,16.437835 C14.5006708,16.8990993 14.4676246,17.619686 14.0238092,18.0646616 C13.5796246,18.5100075 12.8767938,18.5370318 12.4012246,18.1462899 C11.5431323,19.4462334 11.2414708,21.0064248 11.4956862,22.4896154" id="Stroke-105" stroke="#FFFFFF" stroke-width="1.836" stroke-linecap="round" stroke-linejoin="round"></path>
                            <path d="M16.3038831,27.3834409 C17.8096062,27.6664558 19.4024677,27.3699288 20.7254215,26.492379 C20.3382831,26.0520307 20.3626523,25.3107131 20.8066523,24.8653672 C21.2506523,24.4202064 21.9536677,24.3931821 22.4292369,24.7839241 C23.21976,23.5861547 23.5376677,22.1675633 23.3840677,20.7920998" id="Stroke-107" stroke="#FFFFFF" stroke-width="1.836" stroke-linecap="round" stroke-linejoin="round"></path>
                            <path d="M91.5945046,133.218317 L55.3548738,133.218317 C54.59832,133.218317 53.9852123,132.603606 53.9852123,131.845074 L53.9852123,113.509448 C53.9852123,112.751101 54.59832,112.13639 55.3548738,112.13639 L91.5945046,112.13639 C92.3510585,112.13639 92.9643508,112.751101 92.9643508,113.509448 L92.9643508,131.845074 C92.9643508,132.603606 92.3510585,133.218317 91.5945046,133.218317" id="Fill-109" fill="#FFEBE2"></path>
                            <path d="M92.9845292,124.822195 L76.8077908,124.822195 L76.8077908,112.137612 L91.7789908,112.137612 C92.4447138,112.137612 92.9845292,112.678653 92.9845292,113.346117 L92.9845292,124.822195 Z" id="Fill-111" fill="#FF9A71"></path>
                            <path d="M78.6735877,121.904199 L78.8611569,121.645062 C78.9889108,121.784626 79.1964185,121.909752 79.4607877,121.909752 C79.73328,121.909752 79.8386954,121.775926 79.8386954,121.647653 C79.8386954,121.248952 78.7361723,121.496798 78.7361723,120.798793 C78.7361723,120.482461 79.0086646,120.240538 79.4266338,120.240538 C79.7192492,120.240538 79.9609108,120.337344 80.13408,120.508189 L79.9466954,120.756036 C79.7960492,120.604996 79.59408,120.536695 79.3952492,120.536695 C79.2019569,120.536695 79.0771569,120.633686 79.0771569,120.77325 C79.0771569,121.129193 80.1794954,120.909852 80.1794954,121.616371 C80.1794954,121.932519 79.9550031,122.206094 79.4465723,122.206094 C79.0970954,122.206094 78.8441723,122.080782 78.6735877,121.904199" id="Fill-113" fill="#FFFFFF"></path>
                            <path d="M81.4046031,122.171906 L81.4046031,121.311756 C81.4046031,121.095191 81.2936492,121.026705 81.1260185,121.026705 C80.9755569,121.026705 80.8448492,121.117958 80.7737723,121.209026 L80.7737723,122.171906 L80.4754338,122.171906 L80.4754338,120.795887 L80.7737723,120.795887 L80.7737723,120.980985 C80.8646031,120.872888 81.0438646,120.761829 81.2598646,120.761829 C81.5550646,120.761829 81.7029415,120.921384 81.7029415,121.203288 L81.7029415,122.171906 L81.4046031,122.171906 Z" id="Fill-115" fill="#FFFFFF"></path>
                            <path d="M82.9307446,122.171906 L82.9307446,122.021051 C82.8284677,122.140625 82.6663754,122.206149 82.4847138,122.206149 C82.2631754,122.206149 82.0102523,122.052333 82.0102523,121.750438 C82.0102523,121.431329 82.2602215,121.300094 82.4847138,121.300094 C82.6722831,121.300094 82.8284677,121.360066 82.9307446,121.476863 L82.9307446,121.271774 C82.9307446,121.112035 82.7970831,121.015414 82.6098831,121.015414 C82.4562831,121.015414 82.3198523,121.072424 82.20336,121.191997 L82.0783754,120.983947 C82.2373292,120.830131 82.4363446,120.761829 82.6552985,120.761829 C82.9621292,120.761829 83.2290831,120.889917 83.2290831,121.257522 L83.2290831,122.171906 L82.9307446,122.171906 Z M82.9307446,121.858535 L82.9307446,121.647709 C82.8596677,121.553864 82.7319138,121.505183 82.6039754,121.505183 C82.4363446,121.505183 82.3085908,121.604951 82.3085908,121.753029 C82.3085908,121.904254 82.4363446,122.000876 82.6039754,122.000876 C82.7319138,122.000876 82.8596677,121.952565 82.9307446,121.858535 L82.9307446,121.858535 Z" id="Fill-117" fill="#FFFFFF"></path>
                            <path d="M83.9142092,121.981015 L83.9142092,122.696233 L83.6158708,122.696233 L83.6158708,120.796017 L83.9142092,120.796017 L83.9142092,120.983891 C84.0166708,120.847289 84.1756246,120.761774 84.3547015,120.761774 C84.7099015,120.761774 84.9628246,121.029426 84.9628246,121.482731 C84.9628246,121.93548 84.7099015,122.206094 84.3547015,122.206094 C84.1813477,122.206094 84.0277477,122.126317 83.9142092,121.981015 M84.6559938,121.482731 C84.6559938,121.214709 84.5025785,121.026649 84.26664,121.026649 C84.1272554,121.026649 83.9823323,121.106426 83.9142092,121.208971 L83.9142092,121.753159 C83.9795631,121.855703 84.1272554,121.941219 84.26664,121.941219 C84.5025785,121.941219 84.6559938,121.750382 84.6559938,121.482731" id="Fill-119" fill="#FFFFFF"></path>
                            <path d="M85.1477538,121.904199 L85.3355077,121.645062 C85.4630769,121.784626 85.6705846,121.909752 85.9349538,121.909752 C86.2076308,121.909752 86.3128615,121.775926 86.3128615,121.647653 C86.3128615,121.248952 85.2103385,121.496798 85.2103385,120.798793 C85.2103385,120.482461 85.4830154,120.240538 85.9008,120.240538 C86.1934154,120.240538 86.4350769,120.337344 86.6082462,120.508189 L86.4208615,120.756036 C86.2702154,120.604996 86.0682462,120.536695 85.8694154,120.536695 C85.6763077,120.536695 85.5515077,120.633686 85.5515077,120.77325 C85.5515077,121.129193 86.6536615,120.909852 86.6536615,121.616371 C86.6536615,121.932519 86.4291692,122.206094 85.9207385,122.206094 C85.5712615,122.206094 85.3181538,122.080782 85.1477538,121.904199" id="Fill-121" fill="#FFFFFF"></path>
                            <path d="M86.8671692,121.48249 C86.8671692,121.066575 87.1597846,120.761718 87.5748,120.761718 C87.8447077,120.761718 88.0036615,120.875739 88.1004,121.006788 L87.9043385,121.186148 C87.8275385,121.077866 87.7224923,121.026779 87.5888308,121.026779 C87.3416308,121.026779 87.174,121.214838 87.174,121.48249 C87.174,121.750142 87.3416308,121.941163 87.5888308,121.941163 C87.7224923,121.941163 87.8275385,121.884338 87.9043385,121.776056 L88.1004,121.961154 C88.0036615,122.089241 87.8447077,122.206038 87.5748,122.206038 C87.1597846,122.206038 86.8671692,121.898405 86.8671692,121.48249" id="Fill-123" fill="#FFFFFF"></path>
                            <path d="M89.2060431,122.171906 L89.2060431,122.021051 C89.1037662,122.140625 88.9416738,122.206149 88.7598277,122.206149 C88.5382892,122.206149 88.2855508,122.052333 88.2855508,121.750438 C88.2855508,121.431329 88.5353354,121.300094 88.7598277,121.300094 C88.9475815,121.300094 89.1037662,121.360066 89.2060431,121.476863 L89.2060431,121.271774 C89.2060431,121.112035 89.0723815,121.015414 88.8849969,121.015414 C88.7315815,121.015414 88.5949662,121.072424 88.4786585,121.191997 L88.3536738,120.983947 C88.5126277,120.830131 88.7114585,120.761829 88.9304123,120.761829 C89.2372431,120.761829 89.5043815,120.889917 89.5043815,121.257522 L89.5043815,122.171906 L89.2060431,122.171906 Z M89.2060431,121.858535 L89.2060431,121.647709 C89.1349662,121.553864 89.0070277,121.505183 88.8790892,121.505183 C88.7114585,121.505183 88.5837046,121.604951 88.5837046,121.753029 C88.5837046,121.904254 88.7114585,122.000876 88.8790892,122.000876 C89.0070277,122.000876 89.1349662,121.952565 89.2060431,121.858535 L89.2060431,121.858535 Z" id="Fill-125" fill="#FFFFFF"></path>
                            <path d="M90.8203385,122.171906 L90.8203385,121.311756 C90.8203385,121.095191 90.7093846,121.026705 90.5419385,121.026705 C90.3912923,121.026705 90.2605846,121.117958 90.1895077,121.209026 L90.1895077,122.171906 L89.8911692,122.171906 L89.8911692,120.795887 L90.1895077,120.795887 L90.1895077,120.980985 C90.2805231,120.872888 90.4594154,120.761829 90.6754154,120.761829 C90.9708,120.761829 91.1186769,120.921384 91.1186769,121.203288 L91.1186769,122.171906 L90.8203385,122.171906 Z" id="Fill-127" fill="#FFFFFF"></path>
                            <path d="M84.7983508,114.725505 C83.5374277,114.725505 82.5152123,115.750392 82.5152123,117.014612 C82.5152123,118.278832 83.5374277,119.30372 84.7983508,119.30372 C86.0592738,119.30372 87.0814892,118.278832 87.0814892,117.014612 C87.0814892,115.750392 86.0592738,114.725505 84.7983508,114.725505 M84.7983508,119.150643 C83.6217969,119.150643 82.6680738,118.194427 82.6680738,117.014612 C82.6680738,115.834982 83.6217969,114.878766 84.7983508,114.878766 C85.9749046,114.878766 86.9286277,115.834982 86.9286277,117.014612 C86.9286277,118.194427 85.9749046,119.150643 84.7983508,119.150643" id="Fill-129" fill="#FFFFFF"></path>
                            <path d="M84.4949169,116.026799 L83.9632246,116.026799 C83.8795938,116.026799 83.81184,116.094915 83.81184,116.178765 L83.81184,116.710737 C83.81184,116.794586 83.8795938,116.862702 83.9632246,116.862702 L84.4949169,116.862702 C84.5787323,116.862702 84.6464862,116.794586 84.6464862,116.710737 L84.6464862,116.178765 C84.6464862,116.094915 84.5787323,116.026799 84.4949169,116.026799" id="Fill-131" fill="#FFFFFF"></path>
                            <path d="M85.63344,116.026799 L85.1017477,116.026799 C85.0179323,116.026799 84.9501785,116.094915 84.9501785,116.178765 L84.9501785,116.710737 C84.9501785,116.794586 85.0179323,116.862702 85.1017477,116.862702 L85.63344,116.862702 C85.7170708,116.862702 85.7850092,116.794586 85.7850092,116.710737 L85.7850092,116.178765 C85.7850092,116.094915 85.7170708,116.026799 85.63344,116.026799" id="Fill-133" fill="#FFFFFF"></path>
                            <path d="M84.4949169,117.16667 L83.9632246,117.16667 C83.8795938,117.16667 83.81184,117.234601 83.81184,117.318636 L83.81184,117.850422 C83.81184,117.934457 83.8795938,118.002573 83.9632246,118.002573 L84.4949169,118.002573 C84.5787323,118.002573 84.6464862,117.934457 84.6464862,117.850422 L84.6464862,117.318636 C84.6464862,117.234601 84.5787323,117.16667 84.4949169,117.16667" id="Fill-135" fill="#FFFFFF"></path>
                            <polygon id="Clip-138" points="0 141.6 100.793169 141.6 100.793169 0.0873662745 0 0.0873662745"></polygon>
                            <polygon id="Fill-137" fill="#FF9A71" points="84.9758769 132.02821 90.4860923 132.02821 90.4860923 127.560314 84.9758769 127.560314"></polygon>
                            <path d="M80.9778646,126.236289 L88.3351569,126.236289" id="Stroke-139" stroke="#FF9A71" stroke-width="0.7784"></path>
                            <g id="Group-142" transform="translate(85.661538, 131.049412)">
                                <path d="M0.08784,0.180359529 L4.05134769,0.180359529" id="Fill-140" fill="#3B77BC"></path>
                                <path d="M0.08784,0.180359529 L4.05134769,0.180359529" id="Stroke-141" stroke="#F6F6F6" stroke-width="1.1384"></path>
                            </g>
                            <path d="M82.4940923,131.986248 L79.5747692,131.986248 C79.1617846,131.986248 78.8272615,131.650851 78.8272615,131.236787 L78.8272615,128.309831 C78.8272615,127.895767 79.1617846,127.560369 79.5747692,127.560369 L82.4940923,127.560369 C82.9068923,127.560369 83.2416,127.895767 83.2416,128.309831 L83.2416,131.236787 C83.2416,131.650851 82.9068923,131.986248 82.4940923,131.986248" id="Fill-143" fill="#FF9A71"></path>
                            <path d="M81.3604246,129.028474 C81.3604246,129.643925 80.8630708,130.14295 80.24904,130.14295 C79.6351938,130.14295 79.1376554,129.643925 79.1376554,129.028474 C79.1376554,128.413208 79.6351938,127.914184 80.24904,127.914184 C80.8630708,127.914184 81.3604246,128.413208 81.3604246,129.028474" id="Fill-144" fill="#FFFFFF"></path>
                            <path d="M82.9053231,130.220598 C82.9053231,130.962656 82.3053231,131.56404 81.5653846,131.56404 C80.8254462,131.56404 80.2256308,130.962656 80.2256308,130.220598 C80.2256308,129.478725 80.8254462,128.877342 81.5653846,128.877342 C82.3053231,128.877342 82.9053231,129.478725 82.9053231,130.220598" id="Fill-145" fill="#FFFFFF"></path>
                            <path d="M88.2766523,129.176349 C88.2766523,129.934326 87.6639138,130.548851 86.9077292,130.548851 C86.1517292,130.548851 85.5388062,129.934326 85.5388062,129.176349 C85.5388062,128.418188 86.1517292,127.803847 86.9077292,127.803847 C87.6639138,127.803847 88.2766523,128.418188 88.2766523,129.176349" id="Fill-146" fill="#FFFBF9"></path>
                            <path d="M88.2766523,129.176349 C88.2766523,129.934326 87.6639138,130.548851 86.9077292,130.548851 C86.1517292,130.548851 85.5388062,129.934326 85.5388062,129.176349 C85.5388062,128.418188 86.1517292,127.803847 86.9077292,127.803847 C87.6639138,127.803847 88.2766523,128.418188 88.2766523,129.176349 Z" id="Stroke-147" stroke="#FF9A71" stroke-width="0.8"></path>
                            <path d="M89.9232369,129.176349 C89.9232369,129.934326 89.3104985,130.548851 88.5543138,130.548851 C87.7983138,130.548851 87.1853908,129.934326 87.1853908,129.176349 C87.1853908,128.418188 87.7983138,127.803847 88.5543138,127.803847 C89.3104985,127.803847 89.9232369,128.418188 89.9232369,129.176349" id="Fill-148" fill="#FFFBF9"></path>
                            <path d="M89.9232369,129.176349 C89.9232369,129.934326 89.3104985,130.548851 88.5543138,130.548851 C87.7983138,130.548851 87.1853908,129.934326 87.1853908,129.176349 C87.1853908,128.418188 87.7983138,127.803847 88.5543138,127.803847 C89.3104985,127.803847 89.9232369,128.418188 89.9232369,129.176349 Z" id="Stroke-149" stroke="#FF9A71" stroke-width="0.5"></path>
                            <path d="M88.2766523,129.176349 C88.2766523,129.934326 87.6639138,130.548851 86.9077292,130.548851 C86.1517292,130.548851 85.5388062,129.934326 85.5388062,129.176349 C85.5388062,128.418188 86.1517292,127.803847 86.9077292,127.803847 C87.6639138,127.803847 88.2766523,128.418188 88.2766523,129.176349 Z" id="Stroke-150" stroke="#FF9A71" stroke-width="0.5"></path>
                            <polygon id="Fill-151" fill="#FFEBE2" points="57.5592 130.760474 73.8849231 130.760474 73.8849231 114.392069 57.5592 114.392069"></polygon>
                            <polygon id="Fill-152" fill="#FF9A71" points="64.5876923 127.126444 65.7223385 127.126444 65.7223385 125.988831 64.5876923 125.988831"></polygon>
                            <polygon id="Fill-153" fill="#FF9A71" points="65.7221538 119.163711 66.8568 119.163711 66.8568 118.026099 65.7221538 118.026099"></polygon>
                            <polygon id="Fill-154" fill="#FF9A71" points="65.7221538 127.126444 66.8568 127.126444 66.8568 125.988831 65.7221538 125.988831"></polygon>
                            <polygon id="Fill-155" fill="#FF9A71" points="64.5875077 118.026099 65.7221538 118.026099 65.7221538 116.888671 64.5875077 116.888671"></polygon>
                            <polygon id="Fill-156" fill="#FF9A71" points="69.1259077 127.126444 70.2605538 127.126444 70.2605538 125.988831 69.1259077 125.988831"></polygon>
                            <polygon id="Fill-157" fill="#FF9A71" points="69.1259077 123.713976 70.2605538 123.713976 70.2605538 122.576364 69.1259077 122.576364"></polygon>
                            <polygon id="Fill-158" fill="#FF9A71" points="61.1839385 122.576549 62.3185846 122.576549 62.3185846 121.438936 61.1839385 121.438936"></polygon>
                            <polygon id="Fill-159" fill="#FF9A71" points="65.7221538 124.851404 66.8568 124.851404 66.8568 123.713791 65.7221538 123.713791"></polygon>
                            <polygon id="Fill-160" fill="#FF9A71" points="66.8568 123.713976 67.9914462 123.713976 67.9914462 122.576364 66.8568 122.576364"></polygon>
                            <polygon id="Fill-161" fill="#FF9A71" points="66.8568 122.576364 67.9914462 122.576364 67.9914462 121.438751 66.8568 121.438751"></polygon>
                            <polygon id="Fill-162" fill="#FF9A71" points="64.5875077 121.438751 65.7221538 121.438751 65.7221538 120.301139 64.5875077 120.301139"></polygon>
                            <polygon id="Fill-163" fill="#FF9A71" points="63.4530462 122.576549 64.5876923 122.576549 64.5876923 121.438936 63.4530462 121.438936"></polygon>
                            <polygon id="Fill-164" fill="#FF9A71" points="64.5876923 123.713976 65.7223385 123.713976 65.7223385 122.576364 64.5876923 122.576364"></polygon>
                            <polygon id="Fill-165" fill="#FF9A71" points="65.7221538 121.438751 66.8568 121.438751 66.8568 120.301139 65.7221538 120.301139"></polygon>
                            <polygon id="Fill-166" fill="#FF9A71" points="64.5875077 120.301324 65.7221538 120.301324 65.7221538 119.163711 64.5875077 119.163711"></polygon>
                            <polygon id="Fill-167" fill="#FF9A71" points="67.9912615 124.851404 69.1259077 124.851404 69.1259077 123.713791 67.9912615 123.713791"></polygon>
                            <polygon id="Fill-168" fill="#FF9A71" points="65.7221538 125.989016 66.8568 125.989016 66.8568 124.851404 65.7221538 124.851404"></polygon>
                            <polygon id="Fill-169" fill="#FF9A71" points="67.9912615 122.576364 69.1259077 122.576364 69.1259077 121.438751 67.9912615 121.438751"></polygon>
                            <polygon id="Fill-170" fill="#FF9A71" points="67.9912615 125.989016 69.1259077 125.989016 69.1259077 124.851404 67.9912615 124.851404"></polygon>
                            <polygon id="Fill-171" fill="#FF9A71" points="62.3184 123.713976 63.4530462 123.713976 63.4530462 122.576364 62.3184 122.576364"></polygon>
                            <polygon id="Fill-172" fill="#FF9A71" points="64.5876923 129.401484 65.7223385 129.401484 65.7223385 128.263871 64.5876923 128.263871"></polygon>
                            <polygon id="Fill-173" fill="#FF9A71" points="58.9146462 122.576549 60.0492923 122.576549 60.0492923 121.438936 58.9146462 121.438936"></polygon>
                            <polygon id="Fill-174" fill="#FF9A71" points="71.3950154 122.576364 72.5296615 122.576364 72.5296615 121.438751 71.3950154 121.438751"></polygon>
                            <polygon id="Fill-175" fill="#FF9A71" points="69.1259077 129.401484 70.2605538 129.401484 70.2605538 128.263871 69.1259077 128.263871"></polygon>
                            <polygon id="Fill-176" fill="#FF9A71" points="67.9912615 129.401484 69.1259077 129.401484 69.1259077 128.263871 67.9912615 128.263871"></polygon>
                            <polygon id="Fill-177" fill="#FF9A71" points="71.3950154 129.401484 72.5296615 129.401484 72.5296615 128.263871 71.3950154 128.263871"></polygon>
                            <polygon id="Fill-178" fill="#FF9A71" points="71.3950154 127.126444 72.5296615 127.126444 72.5296615 125.988831 71.3950154 125.988831"></polygon>
                            <polygon id="Fill-179" fill="#FF9A71" points="64.5876923 128.264056 65.7223385 128.264056 65.7223385 127.126444 64.5876923 127.126444"></polygon>
                            <polygon id="Fill-180" fill="#FF9A71" points="66.8568 128.264056 67.9914462 128.264056 67.9914462 127.126444 66.8568 127.126444"></polygon>
                            <polygon id="Fill-181" fill="#FF9A71" points="60.0491077 122.576549 61.1837538 122.576549 61.1837538 121.438936 60.0491077 121.438936"></polygon>
                            <polygon id="Fill-182" fill="#FF9A71" points="60.0491077 123.713976 61.1837538 123.713976 61.1837538 122.576364 60.0491077 122.576364"></polygon>
                            <polygon id="Fill-183" fill="#FF9A71" points="65.7221538 116.888671 66.8568 116.888671 66.8568 115.751059 65.7221538 115.751059"></polygon>
                            <polygon id="Fill-184" fill="#FF9A71" points="70.2603692 128.264056 71.3950154 128.264056 71.3950154 127.126444 70.2603692 127.126444"></polygon>
                            <polygon id="Fill-185" fill="#FF9A71" points="70.2603692 125.989016 71.3950154 125.989016 71.3950154 124.851404 70.2603692 124.851404"></polygon>
                            <polygon id="Fill-186" fill="#FF9A71" points="70.2603692 124.851404 71.3950154 124.851404 71.3950154 123.713791 70.2603692 123.713791"></polygon>
                            <polygon id="Fill-187" fill="#FF9A71" points="70.2603692 122.576364 71.3950154 122.576364 71.3950154 121.438751 70.2603692 121.438751"></polygon>
                            <path d="M58.9146462,120.301509 L63.4534154,120.301509 L63.4534154,115.751059 L58.9146462,115.751059 L58.9146462,120.301509 Z M59.6791385,119.535388 L62.6891077,119.535388 L62.6891077,116.517365 L59.6791385,116.517365 L59.6791385,119.535388 Z" id="Fill-188" fill="#FF9A71"></path>
                            <polygon id="Fill-189" fill="#FF9A71" points="60.3965538 118.816097 61.9716923 118.816097 61.9716923 117.236656 60.3965538 117.236656"></polygon>
                            <path d="M58.9146462,129.401669 L63.4534154,129.401669 L63.4534154,124.851219 L58.9146462,124.851219 L58.9146462,129.401669 Z M59.6791385,128.635548 L62.6891077,128.635548 L62.6891077,125.617525 L59.6791385,125.617525 L59.6791385,128.635548 Z" id="Fill-190" fill="#FF9A71"></path>
                            <polygon id="Fill-191" fill="#FF9A71" points="60.3965538 127.916257 61.9716923 127.916257 61.9716923 126.336816 60.3965538 126.336816"></polygon>
                            <path d="M67.9910769,120.301509 L72.5296615,120.301509 L72.5296615,115.751059 L67.9910769,115.751059 L67.9910769,120.301509 Z M68.7553846,119.535388 L71.7655385,119.535388 L71.7655385,116.517365 L68.7553846,116.517365 L68.7553846,119.535388 Z" id="Fill-192" fill="#FF9A71"></path>
                            <polygon id="Fill-193" fill="#FF9A71" points="69.4729846 118.816097 71.0481231 118.816097 71.0481231 117.236656 69.4729846 117.236656"></polygon>
                        </g>
                    </g>
                </g>
            </g>
        </g>
    </g>
</svg>