<?xml version="1.0" encoding="UTF-8"?>
<svg width="240px" height="200px" viewBox="0 0 240 200" version="1.1" xmlns="http://www.w3.org/2000/svg" xmlns:xlink="http://www.w3.org/1999/xlink">
    <!-- Generator: Sketch 53 (72520) - https://sketchapp.com -->
    <title>illustration/email</title>
    <desc>Created with Sketch.</desc>
    <defs>
        <filter x="-4.6%" y="-6.1%" width="109.2%" height="112.2%" filterUnits="objectBoundingBox" id="filter-1">
            <feOffset dx="4" dy="4" in="SourceAlpha" result="shadowOffsetOuter1"></feOffset>
            <feColorMatrix values="0 0 0 0 0.149019608   0 0 0 0 0.223529412   0 0 0 0 0.262745098  0 0 0 0.1 0" type="matrix" in="shadowOffsetOuter1" result="shadowMatrixOuter1"></feColorMatrix>
            <feMerge>
                <feMergeNode in="shadowMatrixOuter1"></feMergeNode>
                <feMergeNode in="SourceGraphic"></feMergeNode>
            </feMerge>
        </filter>
        <polygon id="path-2" points="0.0004 0 194.745 0 194.745 12.5449 0.0004 12.5449"></polygon>
        <polygon id="path-4" points="0.0003 0.7009 194.745 0.7009 194.745 1.7009 0.0003 1.7009"></polygon>
        <polygon id="path-6" points="0.7942 0.238 167.841 0.238 167.841 2.1551 0.7942 2.1551"></polygon>
        <polygon id="path-8" points="0.7942 0.1549 167.841 0.1549 167.841 2.8939 0.7942 2.8939"></polygon>
        <polygon id="path-10" points="0.7942 0.8937 167.841 0.8937 167.841 3.6327 0.7942 3.6327"></polygon>
        <polygon id="path-12" points="0.7942 0.6324 167.841 0.6324 167.841 3.3714 0.7942 3.3714"></polygon>
        <polygon id="path-14" points="0.7942 0.3712 167.841 0.3712 167.841 2.288 0.7942 2.288"></polygon>
    </defs>
    <g id="Page-1" stroke="none" stroke-width="1" fill="none" fill-rule="evenodd">
        <g id="SnapScan-Assets" transform="translate(-341.000000, -3899.000000)">
            <g id="illustration/email" transform="translate(341.000000, 3899.000000)">
                <g id="Group-127" filter="url(#filter-1)" transform="translate(22.000000, 20.000000)">
                    <g id="Group-42">
                        <g id="Group-3" fill="#FFFFFF" stroke="#EFF5F9">
                            <path d="M189.2679,147.8969 L5.4779,147.8969 C2.4529,147.8969 -0.0001,145.4449 -0.0001,142.4189 L-0.0001,5.4779 C-0.0001,2.4529 2.4529,-0.0001 5.4779,-0.0001 L189.2679,-0.0001 C192.2919,-0.0001 194.7459,2.4529 194.7459,5.4779 L194.7459,142.4189 C194.7459,145.4449 192.2919,147.8969 189.2679,147.8969" id="Fill-1"></path>
                        </g>
                        <g id="Group-6">
                            <mask id="mask-3" fill="white">
                                <use xlink:href="#path-2"></use>
                            </mask>
                            <g id="Clip-5"></g>
                            <path d="M194.7454,12.5449 L0.0004,12.5449 L0.0004,5.4779 C0.0004,2.4519 2.4524,-0.0001 5.4774,-0.0001 L189.2674,-0.0001 C192.2924,-0.0001 194.7454,2.4519 194.7454,5.4779 L194.7454,12.5449 Z" id="Fill-4" fill="#3B77BC" mask="url(#mask-3)"></path>
                        </g>
                        <polygon id="Fill-7" fill="#E7ECF9" points="8.139 6.1165 6.132 8.1235 4.125 6.1165 6.132 4.1095"></polygon>
                        <polygon id="Stroke-9" stroke="#E7ECF9" stroke-width="0.46" points="14.6038 6.1165 12.5968 8.1235 10.5898 6.1165 12.5968 4.1095"></polygon>
                        <polygon id="Stroke-11" stroke="#E7ECF9" stroke-width="0.46" points="21.0686 6.1165 19.0616 8.1235 17.0556 6.1165 19.0616 4.1095"></polygon>
                        <path d="M186.1995,3.9998 L190.7455,8.5448" id="Stroke-13" stroke="#E7ECF9" stroke-width="0.46" stroke-linecap="round"></path>
                        <path d="M186.1995,8.5451 L190.7455,4.0001" id="Stroke-15" stroke="#E7ECF9" stroke-width="0.46" stroke-linecap="round"></path>
                        <path d="M34.3177,8.901 L28.3057,8.901 C26.7437,8.901 25.4757,7.634 25.4757,6.071 C25.4757,4.508 26.7437,3.241 28.3057,3.241 L34.3177,3.241 C35.8797,3.241 37.1477,4.508 37.1477,6.071 C37.1477,7.634 35.8797,8.901 34.3177,8.901 Z" id="Stroke-17" stroke="#E7ECF9" stroke-width="0.46"></path>
                        <polyline id="Stroke-19" stroke="#E7ECF9" stroke-width="0.46" stroke-linecap="round" points="29.8138 7.4363 29.0588 6.7763 28.3048 6.1163 29.0588 5.4563 29.8138 4.7963"></polyline>
                        <path d="M28.305,6.1165 L34.319,6.1165" id="Stroke-21" stroke="#E7ECF9" stroke-width="0.46" stroke-linecap="round"></path>
                        <path d="M43.2786,3.2409 L49.2896,3.2409 C50.8516,3.2409 52.1196,4.5079 52.1196,6.0709 C52.1196,7.6339 50.8516,8.9009 49.2896,8.9009 L43.2786,8.9009 C41.7156,8.9009 40.4486,7.6339 40.4486,6.0709 C40.4486,4.5079 41.7156,3.2409 43.2786,3.2409 Z" id="Stroke-23" stroke="#E7ECF9" stroke-width="0.46"></path>
                        <polyline id="Stroke-25" stroke="#E7ECF9" stroke-width="0.46" stroke-linecap="round" points="47.7825 4.7056 48.5365 5.3656 49.2915 6.0256 48.5365 6.6856 47.7825 7.3456"></polyline>
                        <path d="M49.2913,6.0254 L43.2763,6.0254" id="Stroke-27" stroke="#E7ECF9" stroke-width="0.46" stroke-linecap="round"></path>
                        <g id="Group-31" transform="translate(0.000000, 30.000000)">
                            <mask id="mask-5" fill="white">
                                <use xlink:href="#path-4"></use>
                            </mask>
                            <g id="Clip-30"></g>
                            <path d="M0.0003,0.7009 L194.7453,0.7009" id="Stroke-29" stroke="#C8D8EB" stroke-width="0.614" mask="url(#mask-5)"></path>
                        </g>
                        <path d="M4.1253,18.5969 L20.8143,18.5969" id="Stroke-32" stroke="#B2C6DE" stroke-width="1.5" stroke-linecap="round" stroke-linejoin="round"></path>
                        <path d="M4.1253,24.6489 L26.5873,24.6489" id="Stroke-34" stroke="#B2C6DE" stroke-width="1.5" stroke-linecap="round" stroke-linejoin="round"></path>
                        <path d="M26.5872,18.5969 L40.5382,18.5969" id="Stroke-36" stroke="#B2C6DE" stroke-width="1.5" stroke-linecap="round" stroke-linejoin="round"></path>
                        <path d="M46.3108,18.5969 L62.9988,18.5969" id="Stroke-38" stroke="#B2C6DE" stroke-width="1.5"></path>
                        <path d="M191.3411,22.047 C191.3411,24.946 188.9901,27.297 186.0911,27.297 C183.1921,27.297 180.8411,24.946 180.8411,22.047 C180.8411,19.148 183.1921,16.797 186.0911,16.797 C188.9901,16.797 191.3411,19.148 191.3411,22.047" id="Fill-40" fill="#3B77BC"></path>
                    </g>
                    <g id="Group-58" transform="translate(13.000000, 47.000000)">
                        <g id="Group-45">
                            <mask id="mask-7" fill="white">
                                <use xlink:href="#path-6"></use>
                            </mask>
                            <g id="Clip-44"></g>
                            <polyline id="Stroke-43" stroke="#C8D8EB" stroke-width="0.614" mask="url(#mask-7)" points="0.7942 -0.5839 7.7532 2.1551 14.7132 -0.5839 21.6732 2.1551 28.6332 -0.5839 35.5922 2.1551 42.5522 -0.5839 49.5112 2.1551 56.4712 -0.5839 63.4322 2.1551 70.3922 -0.5839 77.3522 2.1551 84.3122 -0.5839 91.2722 2.1551 98.2322 -0.5839 105.1922 2.1551 112.1522 -0.5839 119.1122 2.1551 126.0722 -0.5839 133.0332 2.1551 139.9942 -0.5839 146.9552 2.1551 153.9172 -0.5839 160.8792 2.1551 167.8412 -0.5839"></polyline>
                        </g>
                        <g id="Group-48" transform="translate(0.000000, 2.000000)">
                            <mask id="mask-9" fill="white">
                                <use xlink:href="#path-8"></use>
                            </mask>
                            <g id="Clip-47"></g>
                            <polyline id="Stroke-46" stroke="#C8D8EB" stroke-width="0.614" mask="url(#mask-9)" points="0.7942 0.1549 7.7532 2.8939 14.7132 0.1549 21.6732 2.8939 28.6332 0.1549 35.5922 2.8939 42.5522 0.1549 49.5112 2.8939 56.4712 0.1549 63.4322 2.8939 70.3922 0.1549 77.3522 2.8939 84.3122 0.1549 91.2722 2.8939 98.2322 0.1549 105.1922 2.8939 112.1522 0.1549 119.1122 2.8939 126.0722 0.1549 133.0332 2.8939 139.9942 0.1549 146.9552 2.8939 153.9172 0.1549 160.8792 2.8939 167.8412 0.1549"></polyline>
                        </g>
                        <g id="Group-51" transform="translate(0.000000, 4.000000)">
                            <mask id="mask-11" fill="white">
                                <use xlink:href="#path-10"></use>
                            </mask>
                            <g id="Clip-50"></g>
                            <polyline id="Stroke-49" stroke="#C8D8EB" stroke-width="0.614" mask="url(#mask-11)" points="0.7942 0.8937 7.7532 3.6327 14.7132 0.8937 21.6732 3.6327 28.6332 0.8937 35.5922 3.6327 42.5522 0.8937 49.5112 3.6327 56.4712 0.8937 63.4322 3.6327 70.3922 0.8937 77.3522 3.6327 84.3122 0.8937 91.2722 3.6327 98.2322 0.8937 105.1922 3.6327 112.1522 0.8937 119.1122 3.6327 126.0722 0.8937 133.0332 3.6327 139.9942 0.8937 146.9552 3.6327 153.9172 0.8937 160.8792 3.6327 167.8412 0.8937"></polyline>
                        </g>
                        <g id="Group-54" transform="translate(0.000000, 7.000000)">
                            <mask id="mask-13" fill="white">
                                <use xlink:href="#path-12"></use>
                            </mask>
                            <g id="Clip-53"></g>
                            <polyline id="Stroke-52" stroke="#C8D8EB" stroke-width="0.614" mask="url(#mask-13)" points="0.7942 0.6324 7.7532 3.3714 14.7132 0.6324 21.6732 3.3714 28.6332 0.6324 35.5922 3.3714 42.5522 0.6324 49.5112 3.3714 56.4712 0.6324 63.4322 3.3714 70.3922 0.6324 77.3522 3.3714 84.3122 0.6324 91.2722 3.3714 98.2322 0.6324 105.1922 3.3714 112.1522 0.6324 119.1122 3.3714 126.0722 0.6324 133.0332 3.3714 139.9942 0.6324 146.9552 3.3714 153.9172 0.6324 160.8792 3.3714 167.8412 0.6324"></polyline>
                        </g>
                        <g id="Group-57" transform="translate(0.000000, 10.000000)">
                            <mask id="mask-15" fill="white">
                                <use xlink:href="#path-14"></use>
                            </mask>
                            <g id="Clip-56"></g>
                            <polyline id="Stroke-55" stroke="#C8D8EB" stroke-width="0.614" mask="url(#mask-15)" points="0.7942 0.3712 7.7532 3.1102 14.7132 0.3712 21.6732 3.1102 28.6332 0.3712 35.5922 3.1102 42.5522 0.3712 49.5112 3.1102 56.4712 0.3712 63.4322 3.1102 70.3922 0.3712 77.3522 3.1102 84.3122 0.3712 91.2722 3.1102 98.2322 0.3712 105.1922 3.1102 112.1522 0.3712 119.1122 3.1102 126.0722 0.3712 133.0332 3.1102 139.9942 0.3712 146.9552 3.1102 153.9172 0.3712 160.8792 3.1102 167.8412 0.3712"></polyline>
                        </g>
                    </g>
                    <g id="Group-126" transform="translate(13.000000, 47.000000)">
                        <polygon id="Stroke-59" stroke="#C8D8EB" stroke-width="0.614" points="0.7942 0.2379 167.9502 0.2379 167.9502 100.8969 0.7942 100.8969"></polygon>
                        <polygon id="Fill-61" fill="#C8D8EB" points="6.481 74.429 161.589 74.429 161.589 63.474 6.481 63.474"></polygon>
                        <polyline id="Stroke-63" stroke="#C8D8EB" stroke-width="0.614" points="6.4808 101 6.4808 63.474 161.5888 63.474 161.5888 101"></polyline>
                        <path d="M6.4808,74.4291 L161.5888,74.4291" id="Stroke-64" stroke="#C8D8EB" stroke-width="0.614"></path>
                        <path d="M6.4808,85.658 L161.5888,85.658" id="Stroke-65" stroke="#C8D8EB" stroke-width="0.614"></path>
                        <path d="M6.4808,96.887 L161.5888,96.887" id="Stroke-66" stroke="#C8D8EB" stroke-width="0.614"></path>
                        <path d="M12.6849,79.9066 L50.4999,79.9066" id="Stroke-67" stroke="#C8D8EB" stroke-width="0.614"></path>
                        <path d="M12.6849,91.1355 L50.4999,91.1355" id="Stroke-68" stroke="#C8D8EB" stroke-width="0.614"></path>
                        <path d="M102.9671,48.6106 L16.6511,48.6106 C11.0311,48.6106 6.4761,44.0556 6.4761,38.4366 L6.4761,38.4366 C6.4761,32.8166 11.0311,28.2616 16.6511,28.2616 L102.9671,28.2616 C108.5861,28.2616 113.1421,32.8166 113.1421,38.4366 L113.1421,38.4366 C113.1421,44.0556 108.5861,48.6106 102.9671,48.6106" id="Fill-69" fill="#3B77BC"></path>
                        <path d="M16.4144,33.6157 C13.7524,33.6157 11.5944,35.7737 11.5944,38.4367 C11.5944,41.0987 13.7524,43.2567 16.4144,43.2567 C19.0764,43.2567 21.2354,41.0987 21.2354,38.4367 C21.2354,35.7737 19.0764,33.6157 16.4144,33.6157 M16.4144,42.9337 C13.9314,42.9337 11.9164,40.9207 11.9164,38.4367 C11.9164,35.9517 13.9314,33.9387 16.4144,33.9387 C18.8984,33.9387 20.9124,35.9517 20.9124,38.4367 C20.9124,40.9207 18.8984,42.9337 16.4144,42.9337" id="Fill-70" fill="#FFFFFF"></path>
                        <path d="M15.7737,36.3559 L14.6517,36.3559 C14.4747,36.3559 14.3317,36.4989 14.3317,36.6759 L14.3317,37.7959 C14.3317,37.9729 14.4747,38.1159 14.6517,38.1159 L15.7737,38.1159 C15.9507,38.1159 16.0937,37.9729 16.0937,37.7959 L16.0937,36.6759 C16.0937,36.4989 15.9507,36.3559 15.7737,36.3559" id="Fill-71" fill="#FFFFFF"></path>
                        <path d="M18.177,36.3559 L17.055,36.3559 C16.878,36.3559 16.735,36.4989 16.735,36.6759 L16.735,37.7959 C16.735,37.9729 16.878,38.1159 17.055,38.1159 L18.177,38.1159 C18.354,38.1159 18.497,37.9729 18.497,37.7959 L18.497,36.6759 C18.497,36.4989 18.354,36.3559 18.177,36.3559" id="Fill-72" fill="#FFFFFF"></path>
                        <path d="M15.7737,38.7561 L14.6517,38.7561 C14.4747,38.7561 14.3317,38.8991 14.3317,39.0761 L14.3317,40.1961 C14.3317,40.3731 14.4747,40.5171 14.6517,40.5171 L15.7737,40.5171 C15.9507,40.5171 16.0937,40.3731 16.0937,40.1961 L16.0937,39.0761 C16.0937,38.8991 15.9507,38.7561 15.7737,38.7561" id="Fill-73" fill="#FFFFFF"></path>
                        <path d="M37.0628,38.4633 C37.0628,37.1473 38.0138,36.2143 39.3378,36.2143 C40.2178,36.2143 40.7508,36.5973 41.0358,36.9883 L40.2968,37.6813 C40.0928,37.3793 39.7818,37.2193 39.3908,37.2193 C38.7078,37.2193 38.2268,37.7163 38.2268,38.4633 C38.2268,39.2103 38.7078,39.7163 39.3908,39.7163 C39.7818,39.7163 40.0928,39.5383 40.2968,39.2543 L41.0358,39.9383 C40.7508,40.3383 40.2178,40.7203 39.3378,40.7203 C38.0138,40.7203 37.0628,39.7873 37.0628,38.4633" id="Fill-74" fill="#FFFFFF"></path>
                        <polygon id="Fill-75" fill="#FFFFFF" points="41.774 40.614 42.903 40.614 42.903 34.686 41.774 34.686"></polygon>
                        <path d="M44.023,40.614 L45.152,40.614 L45.152,36.321 L44.023,36.321 L44.023,40.614 Z M43.908,35.183 C43.908,34.81 44.218,34.516 44.583,34.516 C44.955,34.516 45.258,34.81 45.258,35.183 C45.258,35.556 44.955,35.859 44.583,35.859 C44.218,35.859 43.908,35.556 43.908,35.183 L43.908,35.183 Z" id="Fill-76" fill="#FFFFFF"></path>
                        <path d="M45.9964,38.4633 C45.9964,37.1473 46.9474,36.2143 48.2714,36.2143 C49.1514,36.2143 49.6854,36.5973 49.9704,36.9883 L49.2314,37.6813 C49.0274,37.3793 48.7164,37.2193 48.3254,37.2193 C47.6414,37.2193 47.1604,37.7163 47.1604,38.4633 C47.1604,39.2103 47.6414,39.7163 48.3254,39.7163 C48.7164,39.7163 49.0274,39.5383 49.2314,39.2543 L49.9704,39.9383 C49.6854,40.3383 49.1514,40.7203 48.2714,40.7203 C46.9474,40.7203 45.9964,39.7873 45.9964,38.4633" id="Fill-77" fill="#FFFFFF"></path>
                        <polygon id="Fill-78" fill="#FFFFFF" points="53.4895 40.6141 52.3515 38.9611 51.8375 39.5111 51.8375 40.6141 50.7085 40.6141 50.7085 34.6861 51.8375 34.6861 51.8375 38.2321 53.4635 36.3211 54.8495 36.3211 53.1515 38.2671 54.9025 40.6141"></polygon>
                        <path d="M58.3323,39.5477 L58.3323,37.3077 L57.6203,37.3077 L57.6203,36.3207 L58.3323,36.3207 L58.3323,35.1477 L59.4703,35.1477 L59.4703,36.3207 L60.3413,36.3207 L60.3413,37.3077 L59.4703,37.3077 L59.4703,39.2457 C59.4703,39.5117 59.6113,39.7157 59.8603,39.7157 C60.0303,39.7157 60.1893,39.6547 60.2523,39.5917 L60.4923,40.4447 C60.3233,40.5957 60.0203,40.7207 59.5503,40.7207 C58.7583,40.7207 58.3323,40.3117 58.3323,39.5477" id="Fill-79" fill="#FFFFFF"></path>
                        <path d="M64.2083,38.4633 C64.2083,37.7963 63.8083,37.2193 63.1053,37.2193 C62.4033,37.2193 62.0133,37.7963 62.0133,38.4633 C62.0133,39.1383 62.4033,39.7163 63.1053,39.7163 C63.8083,39.7163 64.2083,39.1383 64.2083,38.4633 M60.8393,38.4633 C60.8393,37.2453 61.6923,36.2143 63.1053,36.2143 C64.5273,36.2143 65.3813,37.2453 65.3813,38.4633 C65.3813,39.6893 64.5273,40.7203 63.1053,40.7203 C61.6923,40.7203 60.8393,39.6893 60.8393,38.4633" id="Fill-80" fill="#FFFFFF"></path>
                        <path d="M71.6751,38.4633 C71.6751,37.7253 71.2391,37.2193 70.5911,37.2193 C70.2261,37.2193 69.8081,37.4323 69.6211,37.7083 L69.6211,39.2273 C69.8081,39.4943 70.2261,39.7163 70.5911,39.7163 C71.2391,39.7163 71.6751,39.2103 71.6751,38.4633 M69.6211,40.0633 L69.6211,42.2493 L68.4921,42.2493 L68.4921,36.3213 L69.6211,36.3213 L69.6211,36.8633 C69.9501,36.4453 70.4221,36.2143 70.9461,36.2143 C72.0481,36.2143 72.8481,37.0313 72.8481,38.4633 C72.8481,39.8943 72.0481,40.7203 70.9461,40.7203 C70.4401,40.7203 69.9681,40.5073 69.6211,40.0633" id="Fill-81" fill="#FFFFFF"></path>
                        <path d="M76.2542,39.5829 L76.2542,39.0499 C76.0672,38.8009 75.7112,38.6769 75.3472,38.6769 C74.9012,38.6769 74.5372,38.9079 74.5372,39.3249 C74.5372,39.7259 74.9012,39.9569 75.3472,39.9569 C75.7112,39.9569 76.0672,39.8319 76.2542,39.5829 L76.2542,39.5829 Z M76.2542,40.6139 L76.2542,40.1699 C75.9602,40.5159 75.4532,40.7209 74.8942,40.7209 C74.2092,40.7209 73.4002,40.2579 73.4002,39.2989 C73.4002,38.2939 74.2092,37.9129 74.8942,37.9129 C75.4622,37.9129 75.9692,38.0989 76.2542,38.4369 L76.2542,37.8579 C76.2542,37.4239 75.8802,37.1389 75.3112,37.1389 C74.8492,37.1389 74.4222,37.3079 74.0582,37.6449 L73.6312,36.8899 C74.1552,36.4279 74.8312,36.2149 75.5072,36.2149 C76.4842,36.2149 77.3822,36.6059 77.3822,37.8409 L77.3822,40.6139 L76.2542,40.6139 Z" id="Fill-82" fill="#FFFFFF"></path>
                        <path d="M78.5208,41.2809 C78.6188,41.3259 78.7698,41.3519 78.8758,41.3519 C79.1688,41.3519 79.3658,41.2719 79.4718,41.0399 L79.6318,40.6759 L77.8898,36.3209 L79.0978,36.3209 L80.2188,39.3069 L81.3378,36.3209 L82.5558,36.3209 L80.5388,41.3159 C80.2188,42.1249 79.6498,42.3389 78.9118,42.3559 C78.7788,42.3559 78.4948,42.3289 78.3518,42.2939 L78.5208,41.2809 Z" id="Fill-83" fill="#FFFFFF"></path>
                        <path d="M157.6673,58.9148 L124.1893,58.9148 C122.1243,58.9148 120.4503,57.2408 120.4503,55.1748 L120.4503,21.6968 C120.4503,19.6318 122.1243,17.9578 124.1893,17.9578 L157.6673,17.9578 C159.7323,17.9578 161.4073,19.6318 161.4073,21.6968 L161.4073,55.1748 C161.4073,57.2408 159.7323,58.9148 157.6673,58.9148" id="Fill-84" fill="#3B77BC"></path>
                        <polygon id="Fill-85" fill="#FFFFFF" points="126.596 52.769 155.261 52.769 155.261 24.104 126.596 24.104"></polygon>
                        <polygon id="Fill-86" fill="#143641" points="128.7112 41.8949 129.6902 41.8919 129.6872 40.9139 128.7082 40.9169"></polygon>
                        <path d="M129.6478,27.2197 L130.6258,27.2167 L131.6038,27.2137 L132.5828,27.2117 L133.5598,27.2087 L134.5388,27.2057 L134.5518,32.0967 L133.5748,32.0997 L132.5958,32.1017 L131.6178,32.1047 L130.6398,32.1077 L129.6618,32.1107 L129.6478,27.2197 Z M130.6428,33.0857 L131.6208,33.0827 L132.5988,33.0797 L133.5778,33.0777 L134.5548,33.0747 L135.5338,33.0717 L135.5138,26.2247 L134.5358,26.2277 L133.5568,26.2307 L132.5798,26.2327 L131.6008,26.2357 L130.6238,26.2387 L129.6448,26.2417 L128.6668,26.2447 L128.6858,33.0917 L129.6648,33.0887 L130.6428,33.0857 Z" id="Fill-87" fill="#143641"></path>
                        <polygon id="Fill-88" fill="#143641" points="130.6653 40.9111 130.6683 41.8891 131.6453 41.8861 131.6433 40.9081"></polygon>
                        <polygon id="Fill-89" fill="#143641" points="132.5931 31.1239 133.5721 31.1209 133.5631 28.1869 132.5851 28.1899 131.6071 28.1919 130.6281 28.1949 130.6371 31.1299 131.6151 31.1269"></polygon>
                        <polygon id="Fill-90" fill="#143641" points="131.6233 34.0611 131.6263 35.0391 132.6043 35.0361 132.6023 34.0581"></polygon>
                        <polygon id="Fill-91" fill="#143641" points="131.6458 41.8865 131.6488 42.8645 132.6268 42.8615 133.6048 42.8595 133.6028 41.8805 132.6248 41.8835"></polygon>
                        <polygon id="Fill-92" fill="#143641" points="131.6575 45.7991 130.6785 45.8021 130.6875 48.7361 131.6655 48.7341 132.6435 48.7311 133.6225 48.7281 133.6135 45.7931 132.6355 45.7961"></polygon>
                        <polygon id="Fill-93" fill="#143641" points="133.5823 35.0337 132.6043 35.0367 132.6073 36.0147 133.5853 36.0117 134.5633 36.0087 134.5613 35.0307"></polygon>
                        <path d="M134.6028,49.7034 L133.6248,49.7064 L132.6468,49.7094 L131.6678,49.7114 L130.6908,49.7144 L129.7118,49.7174 L129.6988,44.8264 L130.6758,44.8234 L131.6548,44.8214 L132.6328,44.8184 L133.6108,44.8154 L134.5888,44.8124 L134.6028,49.7034 Z M133.6078,43.8374 L132.6298,43.8404 L131.6518,43.8424 L130.6728,43.8454 L129.6958,43.8484 L128.7168,43.8514 L128.7368,50.6984 L129.7148,50.6954 L130.6938,50.6924 L131.6708,50.6904 L132.6498,50.6874 L133.6268,50.6844 L134.6058,50.6814 L135.5838,50.6784 L135.5648,43.8314 L134.5858,43.8344 L133.6078,43.8374 Z" id="Fill-94" fill="#143641"></path>
                        <polygon id="Fill-95" fill="#143641" points="134.5667 36.9873 135.5447 36.9843 135.5427 36.0063 134.5637 36.0093"></polygon>
                        <polygon id="Fill-96" fill="#143641" points="135.556 40.8971 135.553 39.9191 134.575 39.9221 134.573 38.9441 133.594 38.9461 133.591 37.9681 132.613 37.9711 132.61 36.9931 131.632 36.9961 130.654 36.9981 130.646 34.0641 129.667 34.0671 128.689 34.0701 128.692 35.0481 129.67 35.0451 129.673 36.0231 128.695 36.0261 128.706 39.9391 129.684 39.9361 129.687 40.9141 130.665 40.9111 130.662 39.9331 131.64 39.9301 131.638 38.9521 132.616 38.9491 132.618 39.9271 131.64 39.9301 131.643 40.9081 132.621 40.9051 133.6 40.9031 133.603 41.8811 134.58 41.8781 134.577 40.9001"></polygon>
                        <polygon id="Fill-97" fill="#143641" points="134.5833 42.8562 135.5623 42.8532 135.5593 41.8752 134.5803 41.8782"></polygon>
                        <polygon id="Fill-98" fill="#143641" points="135.5364 34.0499 134.5574 34.0529 134.5604 35.0309 135.5394 35.0279 135.5424 36.0059 136.5194 36.0029 136.5144 34.0469"></polygon>
                        <polygon id="Fill-99" fill="#143641" points="135.553 39.9189 136.532 39.9159 136.529 38.9379 137.506 38.9349 137.501 36.9789 138.479 36.9759 139.457 36.9729 139.454 35.9949 140.433 35.9919 140.43 35.0139 139.451 35.0169 139.449 34.0389 138.471 34.0419 138.476 35.9979 137.498 36.0009 136.52 36.0029 136.526 37.9599 135.547 37.9629 134.57 37.9659 134.573 38.9439 135.55 38.9409"></polygon>
                        <polygon id="Fill-100" fill="#143641" points="136.5345 40.8943 135.5555 40.8973 135.5585 41.8753 136.5365 41.8723 137.5145 41.8693 137.5125 40.8913"></polygon>
                        <polygon id="Fill-101" fill="#143641" points="138.4485 26.2162 137.4695 26.2192 137.4725 27.1972 138.4515 27.1942"></polygon>
                        <polygon id="Fill-102" fill="#143641" points="138.471 34.0415 138.468 33.0635 137.49 33.0665 137.487 32.0885 138.465 32.0855 138.462 31.1075 137.484 31.1095 137.482 30.1315 136.503 30.1345 136.514 34.0475 137.492 34.0445"></polygon>
                        <polygon id="Fill-103" fill="#143641" points="139.4378 30.1261 140.4158 30.1231 140.4138 29.1451 141.3908 29.1421 141.3878 28.1641 142.3668 28.1611 142.3638 27.1831 141.3848 27.1861 141.3828 26.2081 140.4048 26.2101 140.4078 27.1891 139.4288 27.1911 139.4318 28.1701 138.4538 28.1731 137.4758 28.1751 137.4728 27.1971 136.4948 27.2001 136.4998 29.1561 137.4788 29.1531 137.4818 30.1321 138.4588 30.1291"></polygon>
                        <polygon id="Fill-104" fill="#143641" points="139.4436 32.0824 138.4646 32.0854 138.4676 33.0634 139.4456 33.0604"></polygon>
                        <polygon id="Fill-105" fill="#143641" points="138.4847 38.9324 137.5057 38.9354 137.5087 39.9134 138.4877 39.9104 139.4657 39.9074 139.4637 38.9294"></polygon>
                        <polygon id="Fill-106" fill="#143641" points="140.4183 31.1014 139.4403 31.1044 139.4433 32.0824 140.4213 32.0794"></polygon>
                        <polygon id="Fill-107" fill="#143641" points="140.4407 38.9268 141.4197 38.9238 141.4277 41.8588 142.4057 41.8558 142.4027 40.8778 143.3807 40.8748 143.3787 39.8968 142.3997 39.8998 142.3977 38.9208 143.3757 38.9178 143.3727 37.9398 144.3507 37.9368 144.3477 36.9588 143.3697 36.9618 142.3917 36.9648 141.4137 36.9678 140.4357 36.9708 139.4577 36.9728 139.4627 38.9298"></polygon>
                        <polygon id="Fill-108" fill="#143641" points="139.4661 39.9077 139.4711 41.8637 140.4491 41.8607 140.4441 39.9047"></polygon>
                        <polygon id="Fill-109" fill="#143641" points="143.345 28.1584 142.366 28.1614 142.372 30.1174 141.394 30.1204 141.4 32.0764 142.377 32.0744 142.383 34.0304 141.406 34.0334 141.4 32.0764 140.421 32.0794 140.43 35.0144 141.408 35.0114 142.386 35.0084 143.365 35.0054 143.362 34.0274 144.339 34.0244 145.318 34.0214 145.312 32.0654 144.334 32.0684 144.337 33.0464 143.359 33.0494 143.356 32.0714 144.334 32.0684 144.331 31.0904 145.309 31.0874 145.301 28.1524 144.323 28.1554 144.317 26.1994 143.339 26.2024 142.361 26.2054 142.364 27.1834 143.342 27.1804"></polygon>
                        <polygon id="Fill-110" fill="#143641" points="145.3597 48.6942 144.3817 48.6972 144.3847 49.6752 143.4067 49.6782 142.4277 49.6812 142.4247 48.7022 141.4477 48.7052 141.4417 46.7492 140.4637 46.7522 140.4687 48.7082 139.4917 48.7112 138.5127 48.7142 138.5067 46.7572 139.4857 46.7552 139.4797 44.7982 138.5017 44.8012 138.5047 45.7792 137.5267 45.7822 137.5287 46.7602 136.5507 46.7632 136.5537 47.7412 137.5317 47.7382 137.5347 48.7172 136.5567 48.7192 136.5617 50.6762 137.5407 50.6732 137.5377 49.6952 138.5157 49.6922 139.4937 49.6892 139.4967 50.6672 140.4747 50.6642 141.4537 50.6622 142.4307 50.6592 143.4097 50.6562 144.3867 50.6532 145.3657 50.6502 145.3627 49.6722 146.3407 49.6692 147.3187 49.6672 147.3167 48.6882 146.3387 48.6912"></polygon>
                        <polygon id="Fill-111" fill="#143641" points="146.3265 44.7788 147.3055 44.7758 147.3025 43.7978 146.3245 43.8008"></polygon>
                        <polygon id="Fill-112" fill="#143641" points="148.3001 50.6421 148.2971 49.6641 147.3191 49.6671 147.3211 50.6451"></polygon>
                        <polygon id="Fill-113" fill="#143641" points="149.2386 36.9451 148.2606 36.9481 148.2636 37.9261 149.2416 37.9231"></polygon>
                        <polygon id="Fill-114" fill="#143641" points="149.2132 28.1416 148.2352 28.1446 148.2432 31.0786 149.2222 31.0756 150.2002 31.0736 151.1782 31.0706 151.1702 28.1356 150.1922 28.1386"></polygon>
                        <path d="M148.2747,41.8386 L147.2957,41.8416 L147.2947,40.8636 L148.2717,40.8606 L148.2747,41.8386 Z M148.2867,45.7516 L147.3077,45.7546 L146.3297,45.7566 L145.3517,45.7596 L145.3427,42.8256 L146.3217,42.8226 L147.2987,42.8196 L148.2777,42.8166 L148.2867,45.7516 Z M149.2537,41.8356 L149.2477,39.8796 L148.2687,39.8826 L148.2637,37.9256 L147.2857,37.9286 L147.2767,34.9946 L148.2547,34.9916 L149.2337,34.9886 L149.2307,34.0106 L148.2527,34.0136 L147.2737,34.0166 L146.2957,34.0186 L146.3017,35.9756 L145.3237,35.9786 L145.3207,34.9996 L144.3417,35.0026 L144.3477,36.9586 L145.3267,36.9566 L145.3297,37.9346 L144.3507,37.9376 L144.3537,38.9156 L145.3327,38.9126 L146.3097,38.9096 L146.3187,41.8446 L145.3397,41.8476 L145.3347,39.8906 L144.3567,39.8936 L144.3627,41.8496 L143.3837,41.8526 L143.3867,42.8306 L142.4087,42.8336 L141.4297,42.8366 L141.4277,41.8586 L140.4497,41.8616 L140.4527,42.8396 L139.4737,42.8426 L139.4707,41.8636 L138.4937,41.8666 L137.5147,41.8696 L137.5177,42.8476 L136.5397,42.8506 L136.5457,44.8066 L137.5237,44.8036 L137.5207,43.8256 L138.4987,43.8226 L139.4767,43.8206 L140.4557,43.8176 L140.4587,44.7956 L141.4357,44.7926 L142.4147,44.7896 L142.4177,45.7686 L141.4387,45.7706 L141.4417,46.7496 L142.4207,46.7466 L143.3977,46.7436 L143.3927,44.7876 L144.3707,44.7846 L144.3787,47.7186 L145.3567,47.7156 L146.3357,47.7136 L146.3327,46.7346 L147.3107,46.7326 L147.3167,48.6886 L148.2947,48.6856 L149.2727,48.6826 L149.2697,47.7046 L150.2487,47.7016 L150.2507,48.6806 L151.2287,48.6776 L151.2227,46.7206 L150.2457,46.7236 L150.2427,45.7456 L151.2197,45.7426 L151.2177,44.7646 L150.2397,44.7676 L150.2337,42.8116 L151.2127,42.8086 L151.2097,41.8306 L150.2307,41.8326 L149.2537,41.8356 Z" id="Fill-115" fill="#143641"></path>
                        <polygon id="Fill-116" fill="#143641" points="149.2757 49.6611 150.2537 49.6581 150.2507 48.6801 149.2727 48.6831"></polygon>
                        <polygon id="Fill-117" fill="#143641" points="151.1868 34.005 150.2078 34.008 150.2108 34.986 151.1898 34.983 152.1668 34.98 152.1658 34.002"></polygon>
                        <polygon id="Fill-118" fill="#143641" points="151.1976 37.9176 149.2416 37.9236 149.2476 39.8796 150.2256 39.8766 150.2276 40.8546 151.2066 40.8516 151.2006 38.8956 152.1786 38.8926 152.1846 40.8496 153.1626 40.8466 153.1546 37.9116 152.1766 37.9146"></polygon>
                        <polygon id="Fill-119" fill="#143641" points="151.2093 41.8302 152.1883 41.8272 152.1853 40.8492 151.2063 40.8522"></polygon>
                        <polygon id="Fill-120" fill="#143641" points="151.2229 46.7211 152.2019 46.7181 152.1989 45.7401 151.2199 45.7431"></polygon>
                        <polygon id="Fill-121" fill="#143641" points="151.2317 49.6555 151.2347 50.6335 152.2127 50.6305 153.1907 50.6285 153.1877 49.6495 152.2107 49.6525"></polygon>
                        <path d="M152.1595,32.0458 L151.1805,32.0488 L150.2035,32.0518 L149.2245,32.0548 L148.2465,32.0568 L147.2685,32.0598 L147.2545,27.1688 L148.2325,27.1658 L149.2115,27.1638 L150.1885,27.1608 L151.1675,27.1578 L152.1445,27.1548 L152.1595,32.0458 Z M152.1425,26.1768 L151.1645,26.1798 L150.1855,26.1828 L149.2085,26.1858 L148.2295,26.1878 L147.2515,26.1908 L146.2735,26.1938 L146.2935,33.0408 L147.2715,33.0378 L148.2495,33.0358 L149.2275,33.0328 L150.2055,33.0298 L151.1835,33.0268 L152.1625,33.0238 L153.1395,33.0208 L153.1205,26.1738 L152.1425,26.1768 Z" id="Fill-122" fill="#143641"></path>
                        <polygon id="Fill-123" fill="#143641" points="152.1702 35.9585 151.1922 35.9615 151.1952 36.9395 152.1732 36.9365 153.1512 36.9335 153.1462 34.9775 152.1672 34.9805"></polygon>
                        <polygon id="Fill-124" fill="#143641" points="152.1985 45.7401 153.1775 45.7371 153.1685 42.8031 152.1895 42.8051 152.1925 43.7841 151.2155 43.7871 151.2185 44.7651 152.1955 44.7621"></polygon>
                        <polygon id="Fill-125" fill="#143641" points="152.2073 48.6746 153.1853 48.6716 153.1833 47.6936 152.2043 47.6966"></polygon>
                    </g>
                </g>
            </g>
        </g>
    </g>
</svg>