<?xml version="1.0" encoding="UTF-8"?>
<svg width="262px" height="222px" viewBox="0 0 262 222" version="1.1" xmlns="http://www.w3.org/2000/svg" xmlns:xlink="http://www.w3.org/1999/xlink">
    <!-- Generator: Sketch 53 (72520) - https://sketchapp.com -->
    <title>img-online</title>
    <desc>Created with Sketch.</desc>
    <defs>
        <polygon id="path-1" points="0 0.9546 207.9986 0.9546 207.9986 10.9996 0 10.9996"></polygon>
        <polygon id="path-3" points="0.1824 0.835 171.8164 0.835 171.8164 116.9547 0.1824 116.9547"></polygon>
        <polygon id="path-5" points="0 127.165 207.999 127.165 207.999 1 0 1"></polygon>
    </defs>
    <g id="Page-1" stroke="none" stroke-width="1" fill="none" fill-rule="evenodd">
        <g id="SnapScan-Assets" transform="translate(-647.000000, -1450.000000)">
            <g id="img-online" transform="translate(648.000000, 1451.000000)">
                <g id="image/online" transform="translate(20.000000, 68.000000)">
                    <ellipse id="Oval" fill-opacity="0.05" fill="#263943" fill-rule="nonzero" cx="110" cy="128.5" rx="110" ry="4.5"></ellipse>
                    <g id="Group-118" stroke-width="1" fill-rule="evenodd" transform="translate(6.000000, 0.000000)">
                        <g id="Group-3" transform="translate(0.000000, 116.165000)">
                            <mask id="mask-2" fill="white">
                                <use xlink:href="#path-1"></use>
                            </mask>
                            <g id="Clip-2"></g>
                            <path d="M198.6726,10.9996 L9.3266,10.9996 C4.1756,10.9996 -0.0004,6.8246 -0.0004,1.6736 L-0.0004,0.9546 L207.9986,0.9546 L207.9986,1.6736 C207.9986,6.8246 203.8226,10.9996 198.6726,10.9996" id="Fill-1" fill="#CED2DC" mask="url(#mask-2)"></path>
                        </g>
                        <g id="Group-6" transform="translate(18.000000, 0.165000)">
                            <mask id="mask-4" fill="white">
                                <use xlink:href="#path-3"></use>
                            </mask>
                            <g id="Clip-5"></g>
                            <path d="M0.1824,116.9547 L0.1824,5.7777 C0.1824,3.0487 2.3964,0.8347 5.1254,0.8347 L166.8724,0.8347 C169.6034,0.8347 171.8164,3.0487 171.8164,5.7777 L171.8164,116.9547 L0.1824,116.9547 Z" id="Fill-4" fill="#263943" mask="url(#mask-4)"></path>
                        </g>
                        <path d="M105.1912,5.2535 C105.1912,4.5955 104.6582,4.0625 104.0002,4.0625 C103.3412,4.0625 102.8082,4.5955 102.8082,5.2535 C102.8082,5.9105 103.3412,6.4445 104.0002,6.4445 C104.6582,6.4445 105.1912,5.9105 105.1912,5.2535" id="Fill-7" fill="#71848F"></path>
                        <mask id="mask-6" fill="white">
                            <use xlink:href="#path-5"></use>
                        </mask>
                        <g id="Clip-10"></g>
                        <polygon id="Fill-9" fill="#FFFFFF" mask="url(#mask-6)" points="24.038 109.312 183.961 109.312 183.961 9.506 24.038 9.506"></polygon>
                        <polygon id="Fill-11" fill="#9CBADD" mask="url(#mask-6)" points="23.983 92.042 183.906 92.042 183.906 25.798 23.983 25.798"></polygon>
                        <polygon id="Fill-12" fill="#3B77BC" mask="url(#mask-6)" points="23.983 32.083 183.906 32.083 183.906 17.648 23.983 17.648"></polygon>
                        <polygon id="Fill-13" fill="#FFFFFF" mask="url(#mask-6)" points="87.012 98.499 115.27 98.499 115.27 92.991 87.012 92.991"></polygon>
                        <path d="M43.4968,57.8775 L32.7648,57.8775 C31.5558,57.8775 30.5748,56.8985 30.5748,55.6895 L30.5748,44.9555 C30.5748,43.7465 31.5558,42.7675 32.7648,42.7675 L43.4968,42.7675 C44.7058,42.7675 45.6858,43.7465 45.6858,44.9555 L45.6858,55.6895 C45.6858,56.8985 44.7058,57.8775 43.4968,57.8775" id="Fill-14" fill="#FFD37E" mask="url(#mask-6)"></path>
                        <path d="M43.4968,57.8775 L32.7648,57.8775 C31.5558,57.8775 30.5748,56.8985 30.5748,55.6895 L30.5748,44.9555 C30.5748,43.7465 31.5558,42.7675 32.7648,42.7675 L43.4968,42.7675 C44.7058,42.7675 45.6858,43.7465 45.6858,44.9555 L45.6858,55.6895 C45.6858,56.8985 44.7058,57.8775 43.4968,57.8775 Z" id="Stroke-15" stroke="#FFFFFF" stroke-width="1.539" stroke-linecap="round" mask="url(#mask-6)"></path>
                        <polygon id="Fill-16" fill="#003742" mask="url(#mask-6)" points="39.2039 52.4918 39.0329 52.4918 38.6509 52.9238 39.2039 52.9238"></polygon>
                        <polygon id="Fill-17" fill="#003742" mask="url(#mask-6)" points="37.617 52.4918 37.788 52.4918 38.17 52.9238 37.617 52.9238"></polygon>
                        <polygon id="Fill-18" fill="#CED2DC" mask="url(#mask-6)" points="36.824 52.9234 39.997 52.9234 41.023 55.3454 35.798 55.3454"></polygon>
                        <polygon id="Fill-19" fill="#A0ABB5" mask="url(#mask-6)" points="35.798 55.941 41.024 55.941 41.024 55.345 35.798 55.345"></polygon>
                        <polygon id="Fill-20" fill="#3B5E69" mask="url(#mask-6)" points="37.7879 52.9234 39.0329 52.9234 38.6509 52.4914 38.1699 52.4914"></polygon>
                        <path d="M37.1257,53.3414 C37.1257,53.2424 37.2057,53.1634 37.3037,53.1634 C37.4007,53.1634 37.4797,53.2424 37.4797,53.3414 C37.4797,53.4394 37.4007,53.5184 37.3037,53.5184 C37.2057,53.5184 37.1257,53.4394 37.1257,53.3414" id="Fill-21" fill="#FFFFFF" mask="url(#mask-6)"></path>
                        <polygon id="Fill-22" fill="#3B5E69" mask="url(#mask-6)" points="36.533 46.213 40.288 46.213 40.288 45.535 36.533 45.535"></polygon>
                        <polygon id="Fill-23" fill="#143641" mask="url(#mask-6)" points="36.8816 44.7037 39.9396 44.7037 40.2876 45.2507 36.5326 45.2507"></polygon>
                        <polygon id="Fill-24" fill="#143641" mask="url(#mask-6)" points="36.197 45.535 40.624 45.535 40.624 45.251 36.197 45.251"></polygon>
                        <path d="M35.8582,47.3023 L36.4322,46.7283 L36.4312,47.2973 L36.1422,47.5863 C35.4722,48.2563 35.4722,49.3463 36.1422,50.0153 L36.5802,50.4523 L37.3172,51.7583 L35.8582,50.2993 C35.0312,49.4723 35.0312,48.1293 35.8582,47.3023" id="Fill-25" fill="#FFFFFF" mask="url(#mask-6)"></path>
                        <polygon id="Fill-26" fill="#143641" mask="url(#mask-6)" points="39.5037 51.7584 39.9967 52.9234 36.8237 52.9234 37.3167 51.7584"></polygon>
                        <path d="M40.3894,45.5347 L40.3894,49.4287 C40.3894,50.9177 39.5034,51.7587 39.5034,51.7587 L37.3174,51.7587 C37.3174,51.7587 36.4314,50.9177 36.4314,49.4287 L36.4314,45.5347 L40.3894,45.5347 Z" id="Fill-27" fill="#FFFFFF" mask="url(#mask-6)"></path>
                        <path d="M37.617,54.1343 C37.617,53.6963 37.972,53.3413 38.411,53.3413 C38.848,53.3413 39.204,53.6963 39.204,54.1343 C39.204,54.5723 38.848,54.9283 38.411,54.9283 C37.972,54.9283 37.617,54.5723 37.617,54.1343" id="Fill-28" fill="#71848F" mask="url(#mask-6)"></path>
                        <path d="M37.7879,54.1343 C37.7879,53.7903 38.0669,53.5123 38.4109,53.5123 C38.7549,53.5123 39.0329,53.7903 39.0329,54.1343 C39.0329,54.4783 38.7549,54.7573 38.4109,54.7573 C38.0669,54.7573 37.7879,54.4783 37.7879,54.1343" id="Fill-29" fill="#A0ABB5" mask="url(#mask-6)"></path>
                        <path d="M55.4011,50.1422 C55.4011,51.7682 54.0841,53.0862 52.4581,53.0862 C50.8321,53.0862 49.5141,51.7682 49.5141,50.1422 C49.5141,48.5172 50.8321,47.1992 52.4581,47.1992 C54.0841,47.1992 55.4011,48.5172 55.4011,50.1422" id="Fill-30" fill="#FFFFFF" mask="url(#mask-6)"></path>
                        <path d="M65.1716,70.9039 L30.6896,70.9039 C30.1366,70.9039 29.6896,70.4569 29.6896,69.9039 C29.6896,69.3509 30.1366,68.9039 30.6896,68.9039 L65.1716,68.9039 C65.7246,68.9039 66.1716,69.3509 66.1716,69.9039 C66.1716,70.4569 65.7246,70.9039 65.1716,70.9039" id="Fill-31" fill="#D3E1F2" mask="url(#mask-6)"></path>
                        <path d="M62.8621,74.9986 L30.6891,74.9986 C30.1361,74.9986 29.6891,74.5516 29.6891,73.9986 C29.6891,73.4456 30.1361,72.9986 30.6891,72.9986 L62.8621,72.9986 C63.4151,72.9986 63.8621,73.4456 63.8621,73.9986 C63.8621,74.5516 63.4151,74.9986 62.8621,74.9986" id="Fill-32" fill="#D3E1F2" mask="url(#mask-6)"></path>
                        <polygon id="Fill-33" fill="#FFFFFF" mask="url(#mask-6)" points="88.651 78.968 123.897 78.968 123.897 43.722 88.651 43.722"></polygon>
                        <polygon id="Fill-34" fill="#143641" mask="url(#mask-6)" points="91.4119 65.355 92.6069 65.351 92.6029 64.157 91.4089 64.161"></polygon>
                        <path d="M92.5554,47.4302 L93.7494,47.4262 L94.9454,47.4232 L96.1394,47.4192 L97.3344,47.4162 L98.5294,47.4122 L98.5464,53.3862 L97.3514,53.3902 L96.1574,53.3932 L94.9614,53.3972 L93.7674,53.4002 L92.5734,53.4042 L92.5554,47.4302 Z M93.7704,54.5952 L94.9654,54.5912 L96.1594,54.5882 L97.3554,54.5842 L98.5494,54.5812 L99.7444,54.5772 L99.7204,46.2142 L98.5264,46.2182 L97.3304,46.2212 L96.1364,46.2252 L94.9414,46.2282 L93.7464,46.2322 L92.5514,46.2352 L91.3574,46.2392 L91.3814,54.6022 L92.5764,54.5982 L93.7704,54.5952 Z" id="Fill-35" fill="#143641" mask="url(#mask-6)"></path>
                        <polygon id="Fill-36" fill="#143641" mask="url(#mask-6)" points="93.7986 64.1529 93.8016 65.3479 94.9966 65.3439 94.9926 64.1499"></polygon>
                        <polygon id="Fill-37" fill="#143641" mask="url(#mask-6)" points="96.1531 52.1988 97.3481 52.1948 97.3381 48.6108 96.1431 48.6148 94.9481 48.6178 93.7541 48.6218 93.7631 52.2058 94.9591 52.2018"></polygon>
                        <polygon id="Fill-38" fill="#143641" mask="url(#mask-6)" points="94.9685 55.7867 94.9725 56.9807 96.1665 56.9777 96.1635 55.7827"></polygon>
                        <polygon id="Fill-39" fill="#143641" mask="url(#mask-6)" points="94.9968 65.3443 94.9998 66.5393 96.1948 66.5353 97.3898 66.5323 97.3858 65.3373 96.1908 65.3413"></polygon>
                        <polygon id="Fill-40" fill="#143641" mask="url(#mask-6)" points="95.0105 70.1236 93.8155 70.1276 93.8255 73.7116 95.0205 73.7086 96.2155 73.7046 97.4095 73.7016 97.4005 70.1166 96.2045 70.1206"></polygon>
                        <polygon id="Fill-41" fill="#143641" mask="url(#mask-6)" points="97.3621 56.9742 96.1671 56.9782 96.1711 58.1722 97.3651 58.1692 98.5601 58.1652 98.5561 56.9712"></polygon>
                        <path d="M98.6082,74.8922 L97.4142,74.8962 L96.2182,74.9002 L95.0242,74.9032 L93.8292,74.9072 L92.6342,74.9102 L92.6172,68.9362 L93.8122,68.9322 L95.0062,68.9292 L96.2022,68.9252 L97.3962,68.9222 L98.5912,68.9182 L98.6082,74.8922 Z M97.3932,67.7272 L96.1982,67.7312 L95.0042,67.7342 L93.8082,67.7382 L92.6142,67.7412 L91.4192,67.7452 L91.4432,76.1082 L92.6372,76.1052 L93.8332,76.1012 L95.0272,76.0972 L96.2222,76.0942 L97.4172,76.0902 L98.6122,76.0872 L99.8062,76.0832 L99.7822,67.7202 L98.5872,67.7242 L97.3932,67.7272 Z" id="Fill-42" fill="#143641" mask="url(#mask-6)"></path>
                        <polygon id="Fill-43" fill="#143641" mask="url(#mask-6)" points="98.5632 59.3609 99.7582 59.3569 99.7542 58.1629 98.5602 58.1659"></polygon>
                        <polygon id="Fill-44" fill="#143641" mask="url(#mask-6)" points="99.7722 64.1363 99.7682 62.9413 98.5742 62.9453 98.5702 61.7503 97.3762 61.7533 97.3722 60.5593 96.1772 60.5623 96.1732 59.3673 94.9792 59.3703 93.7852 59.3743 93.7742 55.7893 92.5802 55.7933 91.3842 55.7963 91.3882 56.9913 92.5832 56.9883 92.5862 58.1833 91.3912 58.1863 91.4052 62.9653 92.6002 62.9623 92.6032 64.1573 93.7982 64.1533 93.7942 62.9583 94.9902 62.9553 94.9862 61.7603 96.1802 61.7573 96.1842 62.9513 94.9902 62.9553 94.9932 64.1503 96.1882 64.1463 97.3822 64.1433 97.3852 65.3373 98.5812 65.3343 98.5772 64.1393"></polygon>
                        <polygon id="Fill-45" fill="#143641" mask="url(#mask-6)" points="98.5838 66.5289 99.7788 66.5259 99.7748 65.3309 98.5808 65.3349"></polygon>
                        <polygon id="Fill-46" fill="#143641" mask="url(#mask-6)" points="99.7478 55.773 98.5538 55.776 98.5568 56.971 99.7518 56.967 99.7548 58.163 100.9498 58.159 100.9428 55.769"></polygon>
                        <polygon id="Fill-47" fill="#143641" mask="url(#mask-6)" points="99.7683 62.941 100.9633 62.938 100.9593 61.743 102.1553 61.74 102.1483 59.35 103.3423 59.347 104.5383 59.343 104.5343 58.149 105.7293 58.145 105.7253 56.951 104.5313 56.954 104.5273 55.759 103.3323 55.762 103.3393 58.152 102.1443 58.156 100.9503 58.159 100.9563 60.548 99.7613 60.552 98.5673 60.555 98.5703 61.751 99.7653 61.747"></polygon>
                        <polygon id="Fill-48" fill="#143641" mask="url(#mask-6)" points="100.9666 64.1324 99.7726 64.1364 99.7756 65.3304 100.9706 65.3274 102.1646 65.3234 102.1616 64.1294"></polygon>
                        <polygon id="Fill-49" fill="#143641" mask="url(#mask-6)" points="103.3045 46.2047 102.1105 46.2077 102.1145 47.4027 103.3085 47.3987"></polygon>
                        <polygon id="Fill-50" fill="#143641" mask="url(#mask-6)" points="103.3328 55.7623 103.3288 54.5683 102.1348 54.5713 102.1308 53.3763 103.3258 53.3723 103.3218 52.1783 102.1278 52.1813 102.1238 50.9873 100.9298 50.9903 100.9428 55.7693 102.1378 55.7663"></polygon>
                        <polygon id="Fill-51" fill="#143641" mask="url(#mask-6)" points="104.5134 50.98 105.7074 50.976 105.7044 49.782 106.8994 49.778 106.8964 48.584 108.0904 48.58 108.0874 47.385 106.8924 47.388 106.8894 46.194 105.6944 46.198 105.6984 47.392 104.5024 47.396 104.5064 48.59 103.3124 48.593 102.1174 48.597 102.1144 47.403 100.9184 47.406 100.9254 49.795 102.1204 49.792 102.1234 50.987 103.3194 50.983"></polygon>
                        <polygon id="Fill-52" fill="#143641" mask="url(#mask-6)" points="104.5203 53.3697 103.3263 53.3727 103.3293 54.5677 104.5243 54.5637"></polygon>
                        <polygon id="Fill-53" fill="#143641" mask="url(#mask-6)" points="103.3494 61.7359 102.1554 61.7399 102.1584 62.9339 103.3534 62.9309 104.5474 62.9269 104.5444 61.7329"></polygon>
                        <polygon id="Fill-54" fill="#143641" mask="url(#mask-6)" points="105.7117 52.1715 104.5177 52.1745 104.5207 53.3695 105.7147 53.3655"></polygon>
                        <polygon id="Fill-55" fill="#143641" mask="url(#mask-6)" points="105.739 61.7291 106.934 61.7261 106.944 65.3101 108.139 65.3071 108.135 64.1121 109.33 64.1091 109.327 62.9141 108.133 62.9171 108.129 61.7221 109.323 61.7191 109.32 60.5241 110.514 60.5211 110.511 59.3261 109.316 59.3301 108.122 59.3331 106.927 59.3361 105.732 59.3401 104.538 59.3431 104.545 61.7331"></polygon>
                        <polygon id="Fill-56" fill="#143641" mask="url(#mask-6)" points="104.5476 62.9273 104.5546 65.3173 105.7496 65.3143 105.7426 62.9243"></polygon>
                        <polygon id="Fill-57" fill="#143641" mask="url(#mask-6)" points="109.2859 48.5767 108.0909 48.5797 108.0979 50.9697 106.9029 50.9727 106.9099 53.3627 108.1039 53.3587 108.1109 55.7487 106.9169 55.7527 106.9099 53.3627 105.7149 53.3657 105.7249 56.9507 106.9199 56.9467 108.1149 56.9437 109.3089 56.9397 109.3069 55.7457 110.5009 55.7417 111.6959 55.7387 111.6889 53.3487 110.4939 53.3517 110.4979 54.5477 109.3029 54.5507 109.2999 53.3557 110.4939 53.3517 110.4909 52.1577 111.6849 52.1537 111.6759 48.5697 110.4799 48.5727 110.4729 46.1827 109.2789 46.1867 108.0839 46.1907 108.0879 47.3857 109.2819 47.3817"></polygon>
                        <polygon id="Fill-58" fill="#143641" mask="url(#mask-6)" points="111.7478 73.6597 110.5528 73.6637 110.5568 74.8577 109.3608 74.8617 108.1668 74.8647 108.1628 73.6707 106.9688 73.6737 106.9618 71.2847 105.7668 71.2877 105.7728 73.6777 104.5788 73.6807 103.3838 73.6837 103.3768 71.2947 104.5718 71.2917 104.5648 68.9017 103.3698 68.9047 103.3738 70.0997 102.1788 70.1027 102.1828 71.2987 100.9868 71.3017 100.9908 72.4967 102.1848 72.4927 102.1888 73.6867 100.9938 73.6907 101.0018 76.0807 102.1958 76.0767 102.1918 74.8827 103.3878 74.8787 104.5818 74.8757 104.5858 76.0697 105.7798 76.0667 106.9758 76.0627 108.1698 76.0597 109.3648 76.0557 110.5598 76.0537 111.7548 76.0497 111.7508 74.8547 112.9458 74.8507 114.1408 74.8477 114.1368 73.6527 112.9418 73.6567"></polygon>
                        <polygon id="Fill-59" fill="#143641" mask="url(#mask-6)" points="112.9285 68.8775 114.1225 68.8745 114.1195 67.6795 112.9245 67.6835"></polygon>
                        <polygon id="Fill-60" fill="#143641" mask="url(#mask-6)" points="115.3386 76.0396 115.3346 74.8446 114.1406 74.8486 114.1436 76.0426"></polygon>
                        <polygon id="Fill-61" fill="#143641" mask="url(#mask-6)" points="116.4851 59.3091 115.2911 59.3121 115.2941 60.5071 116.4891 60.5031"></polygon>
                        <polygon id="Fill-62" fill="#143641" mask="url(#mask-6)" points="116.4539 48.5562 115.2599 48.5592 115.2699 52.1442 116.4649 52.1402 117.6589 52.1372 118.8539 52.1332 118.8439 48.5492 117.6489 48.5522"></polygon>
                        <path d="M115.3074,65.2867 L114.1134,65.2897 L114.1094,64.0957 L115.3044,64.0917 L115.3074,65.2867 Z M115.3214,70.0647 L114.1264,70.0687 L112.9314,70.0717 L111.7374,70.0757 L111.7264,66.4917 L112.9214,66.4877 L114.1164,66.4847 L115.3114,66.4807 L115.3214,70.0647 Z M116.5024,65.2827 L116.4954,62.8927 L115.3004,62.8967 L115.2934,60.5077 L114.0994,60.5107 L114.0884,56.9267 L115.2844,56.9227 L116.4784,56.9197 L116.4754,55.7247 L115.2804,55.7277 L114.0854,55.7317 L112.8904,55.7347 L112.8974,58.1247 L111.7034,58.1277 L111.6994,56.9327 L110.5044,56.9367 L110.5114,59.3257 L111.7054,59.3227 L111.7094,60.5167 L110.5144,60.5207 L110.5184,61.7157 L111.7124,61.7127 L112.9084,61.7087 L112.9174,65.2937 L111.7234,65.2967 L111.7164,62.9067 L110.5214,62.9107 L110.5284,65.3007 L109.3334,65.3037 L109.3374,66.4987 L108.1424,66.5017 L106.9484,66.5057 L106.9444,65.3097 L105.7494,65.3137 L105.7524,66.5087 L104.5584,66.5127 L104.5544,65.3167 L103.3604,65.3207 L102.1644,65.3237 L102.1684,66.5187 L100.9734,66.5217 L100.9804,68.9117 L102.1754,68.9087 L102.1714,67.7137 L103.3674,67.7107 L104.5614,67.7067 L105.7564,67.7037 L105.7594,68.8977 L106.9544,68.8947 L108.1494,68.8907 L108.1534,70.0867 L106.9574,70.0897 L106.9614,71.2847 L108.1564,71.2807 L109.3514,71.2767 L109.3444,68.8887 L110.5384,68.8847 L110.5494,72.4687 L111.7444,72.4657 L112.9384,72.4617 L112.9354,71.2667 L114.1294,71.2637 L114.1364,73.6527 L115.3314,73.6497 L116.5264,73.6457 L116.5234,72.4517 L117.7174,72.4477 L117.7214,73.6427 L118.9154,73.6397 L118.9094,71.2497 L117.7144,71.2537 L117.7104,70.0577 L118.9064,70.0557 L118.9024,68.8597 L117.7074,68.8637 L117.7014,66.4737 L118.8954,66.4717 L118.8924,65.2757 L117.6974,65.2797 L116.5024,65.2827 Z" id="Fill-63" fill="#143641" mask="url(#mask-6)"></path>
                        <polygon id="Fill-64" fill="#143641" mask="url(#mask-6)" points="116.53 74.8414 117.724 74.8374 117.721 73.6434 116.526 73.6464"></polygon>
                        <polygon id="Fill-65" fill="#143641" mask="url(#mask-6)" points="118.864 55.7174 117.67 55.7214 117.674 56.9154 118.868 56.9124 120.062 56.9084 120.059 55.7144"></polygon>
                        <polygon id="Fill-66" fill="#143641" mask="url(#mask-6)" points="118.8787 60.4966 116.4887 60.5036 116.4957 62.8926 117.6907 62.8906 117.6937 64.0846 118.8887 64.0816 118.8817 61.6916 120.0767 61.6876 120.0837 64.0776 121.2777 64.0746 121.2677 60.4896 120.0727 60.4936"></polygon>
                        <polygon id="Fill-67" fill="#143641" mask="url(#mask-6)" points="118.8923 65.2759 120.0863 65.2729 120.0833 64.0779 118.8883 64.0819"></polygon>
                        <polygon id="Fill-68" fill="#143641" mask="url(#mask-6)" points="118.909 71.2496 120.104 71.2466 120.1 70.0516 118.906 70.0556"></polygon>
                        <polygon id="Fill-69" fill="#143641" mask="url(#mask-6)" points="118.9197 74.8345 118.9227 76.0285 120.1177 76.0255 121.3127 76.0215 121.3097 74.8275 120.1137 74.8305"></polygon>
                        <path d="M120.0525,53.3248 L118.8575,53.3288 L117.6625,53.3318 L116.4685,53.3358 L115.2735,53.3388 L114.0785,53.3428 L114.0615,47.3678 L115.2565,47.3648 L116.4505,47.3608 L117.6455,47.3578 L118.8405,47.3538 L120.0345,47.3508 L120.0525,53.3248 Z M120.0315,46.1558 L118.8365,46.1598 L117.6425,46.1628 L116.4475,46.1668 L115.2525,46.1698 L114.0585,46.1738 L112.8635,46.1768 L112.8875,54.5408 L114.0815,54.5368 L115.2775,54.5338 L116.4715,54.5298 L117.6665,54.5268 L118.8615,54.5228 L120.0555,54.5188 L121.2505,54.5158 L121.2265,46.1528 L120.0315,46.1558 Z" id="Fill-70" fill="#143641" mask="url(#mask-6)"></path>
                        <polygon id="Fill-71" fill="#143641" mask="url(#mask-6)" points="120.0662 58.1041 118.8722 58.1071 118.8752 59.3021 120.0692 59.2981 121.2642 59.2951 121.2572 56.9061 120.0622 56.9091"></polygon>
                        <polygon id="Fill-72" fill="#143641" mask="url(#mask-6)" points="120.1004 70.0513 121.2954 70.0483 121.2854 66.4633 120.0904 66.4673 120.0934 67.6613 118.8994 67.6653 118.9024 68.8603 120.0974 68.8573"></polygon>
                        <polygon id="Fill-73" fill="#143641" mask="url(#mask-6)" points="120.1111 73.6363 121.3051 73.6323 121.3021 72.4383 120.1071 72.4413"></polygon>
                        <path d="M174.5427,55.6949 L137.4837,55.6949 C134.7297,55.6949 132.4967,53.4629 132.4967,50.7089 C132.4967,47.9539 134.7297,45.7209 137.4837,45.7209 L174.5427,45.7209 C177.2967,45.7209 179.5287,47.9539 179.5287,50.7089 C179.5287,53.4629 177.2967,55.6949 174.5427,55.6949" id="Fill-74" fill="#3B77BC" mask="url(#mask-6)"></path>
                        <path d="M150.6511,51.7379 L150.9101,51.3809 C151.0871,51.5729 151.3741,51.7459 151.7391,51.7459 C152.1171,51.7459 152.2611,51.5609 152.2611,51.3839 C152.2611,50.8339 150.7371,51.1759 150.7371,50.2129 C150.7371,49.7769 151.1151,49.4429 151.6921,49.4429 C152.0961,49.4429 152.4311,49.5769 152.6711,49.8119 L152.4121,50.1539 C152.2031,49.9459 151.9231,49.8509 151.6491,49.8509 C151.3811,49.8509 151.2091,49.9849 151.2091,50.1769 C151.2091,50.6689 152.7331,50.3659 152.7331,51.3409 C152.7331,51.7769 152.4221,52.1539 151.7191,52.1539 C151.2361,52.1539 150.8861,51.9809 150.6511,51.7379" id="Fill-75" fill="#FFFFFF" mask="url(#mask-6)"></path>
                        <path d="M154.4275,52.107 L154.4275,50.92 C154.4275,50.622 154.2745,50.527 154.0425,50.527 C153.8345,50.527 153.6545,50.653 153.5555,50.779 L153.5555,52.107 L153.1425,52.107 L153.1425,50.209 L153.5555,50.209 L153.5555,50.464 C153.6815,50.315 153.9285,50.162 154.2275,50.162 C154.6365,50.162 154.8405,50.382 154.8405,50.771 L154.8405,52.107 L154.4275,52.107 Z" id="Fill-76" fill="#FFFFFF" mask="url(#mask-6)"></path>
                        <path d="M156.5388,52.107 L156.5388,51.899 C156.3968,52.064 156.1728,52.154 155.9218,52.154 C155.6148,52.154 155.2658,51.942 155.2658,51.525 C155.2658,51.086 155.6108,50.905 155.9218,50.905 C156.1818,50.905 156.3968,50.987 156.5388,51.148 L156.5388,50.865 C156.5388,50.645 156.3538,50.511 156.0948,50.511 C155.8828,50.511 155.6928,50.59 155.5328,50.755 L155.3588,50.468 C155.5798,50.256 155.8548,50.162 156.1568,50.162 C156.5818,50.162 156.9508,50.338 156.9508,50.845 L156.9508,52.107 L156.5388,52.107 Z M156.5388,51.674 L156.5388,51.383 C156.4398,51.254 156.2638,51.187 156.0868,51.187 C155.8548,51.187 155.6778,51.325 155.6778,51.53 C155.6778,51.738 155.8548,51.871 156.0868,51.871 C156.2638,51.871 156.4398,51.804 156.5388,51.674 L156.5388,51.674 Z" id="Fill-77" fill="#FFFFFF" mask="url(#mask-6)"></path>
                        <path d="M157.8982,51.8433 L157.8982,52.8293 L157.4862,52.8293 L157.4862,50.2093 L157.8982,50.2093 L157.8982,50.4683 C158.0402,50.2803 158.2602,50.1613 158.5072,50.1613 C158.9992,50.1613 159.3482,50.5313 159.3482,51.1563 C159.3482,51.7813 158.9992,52.1543 158.5072,52.1543 C158.2672,52.1543 158.0552,52.0443 157.8982,51.8433 M158.9242,51.1563 C158.9242,50.7863 158.7112,50.5283 158.3852,50.5283 C158.1932,50.5283 157.9932,50.6373 157.8982,50.7793 L157.8982,51.5293 C157.9892,51.6703 158.1932,51.7883 158.3852,51.7883 C158.7112,51.7883 158.9242,51.5263 158.9242,51.1563" id="Fill-78" fill="#FFFFFF" mask="url(#mask-6)"></path>
                        <path d="M159.6043,51.7379 L159.8643,51.3809 C160.0413,51.5729 160.3283,51.7459 160.6933,51.7459 C161.0703,51.7459 161.2153,51.5609 161.2153,51.3839 C161.2153,50.8339 159.6913,51.1759 159.6913,50.2129 C159.6913,49.7769 160.0683,49.4429 160.6453,49.4429 C161.0503,49.4429 161.3843,49.5769 161.6243,49.8119 L161.3653,50.1539 C161.1573,49.9459 160.8773,49.8509 160.6023,49.8509 C160.3353,49.8509 160.1633,49.9849 160.1633,50.1769 C160.1633,50.6689 161.6873,50.3659 161.6873,51.3409 C161.6873,51.7769 161.3763,52.1539 160.6733,52.1539 C160.1903,52.1539 159.8393,51.9809 159.6043,51.7379" id="Fill-79" fill="#FFFFFF" mask="url(#mask-6)"></path>
                        <path d="M161.9822,51.1558 C161.9822,50.5828 162.3872,50.1618 162.9612,50.1618 C163.3342,50.1618 163.5542,50.3188 163.6872,50.4998 L163.4172,50.7478 C163.3102,50.5978 163.1652,50.5268 162.9802,50.5268 C162.6382,50.5268 162.4072,50.7868 162.4072,51.1558 C162.4072,51.5248 162.6382,51.7888 162.9802,51.7888 C163.1652,51.7888 163.3102,51.7108 163.4172,51.5608 L163.6872,51.8158 C163.5542,51.9928 163.3342,52.1538 162.9612,52.1538 C162.3872,52.1538 161.9822,51.7298 161.9822,51.1558" id="Fill-80" fill="#FFFFFF" mask="url(#mask-6)"></path>
                        <path d="M165.2166,52.107 L165.2166,51.899 C165.0746,52.064 164.8516,52.154 164.5996,52.154 C164.2936,52.154 163.9436,51.942 163.9436,51.525 C163.9436,51.086 164.2896,50.905 164.5996,50.905 C164.8596,50.905 165.0746,50.987 165.2166,51.148 L165.2166,50.865 C165.2166,50.645 165.0316,50.511 164.7736,50.511 C164.5606,50.511 164.3716,50.59 164.2106,50.755 L164.0376,50.468 C164.2586,50.256 164.5326,50.162 164.8356,50.162 C165.2606,50.162 165.6296,50.338 165.6296,50.845 L165.6296,52.107 L165.2166,52.107 Z M165.2166,51.674 L165.2166,51.383 C165.1186,51.254 164.9426,51.187 164.7656,51.187 C164.5326,51.187 164.3566,51.325 164.3566,51.53 C164.3566,51.738 164.5326,51.871 164.7656,51.871 C164.9426,51.871 165.1186,51.804 165.2166,51.674 L165.2166,51.674 Z" id="Fill-81" fill="#FFFFFF" mask="url(#mask-6)"></path>
                        <path d="M167.449,52.107 L167.449,50.92 C167.449,50.622 167.296,50.527 167.064,50.527 C166.856,50.527 166.675,50.653 166.577,50.779 L166.577,52.107 L166.165,52.107 L166.165,50.209 L166.577,50.209 L166.577,50.464 C166.703,50.315 166.95,50.162 167.249,50.162 C167.658,50.162 167.862,50.382 167.862,50.771 L167.862,52.107 L167.449,52.107 Z" id="Fill-82" fill="#FFFFFF" mask="url(#mask-6)"></path>
                        <path d="M146.6052,48.4439 C145.2572,48.4439 144.1652,49.5369 144.1652,50.8839 C144.1652,52.2319 145.2572,53.3249 146.6052,53.3249 C147.9532,53.3249 149.0452,52.2319 149.0452,50.8839 C149.0452,49.5369 147.9532,48.4439 146.6052,48.4439 M146.6052,53.1609 C145.3472,53.1609 144.3282,52.1419 144.3282,50.8839 C144.3282,49.6269 145.3472,48.6069 146.6052,48.6069 C147.8632,48.6069 148.8822,49.6269 148.8822,50.8839 C148.8822,52.1419 147.8632,53.1609 146.6052,53.1609" id="Fill-83" fill="#FFFFFF" mask="url(#mask-6)"></path>
                        <path d="M146.281,49.8306 L145.713,49.8306 C145.623,49.8306 145.551,49.9036 145.551,49.9926 L145.551,50.5596 C145.551,50.6496 145.623,50.7226 145.713,50.7226 L146.281,50.7226 C146.37,50.7226 146.443,50.6496 146.443,50.5596 L146.443,49.9926 C146.443,49.9036 146.37,49.8306 146.281,49.8306" id="Fill-84" fill="#FFFFFF" mask="url(#mask-6)"></path>
                        <path d="M147.4978,49.8306 L146.9298,49.8306 C146.8398,49.8306 146.7678,49.9036 146.7678,49.9926 L146.7678,50.5596 C146.7678,50.6496 146.8398,50.7226 146.9298,50.7226 L147.4978,50.7226 C147.5868,50.7226 147.6598,50.6496 147.6598,50.5596 L147.6598,49.9926 C147.6598,49.9036 147.5868,49.8306 147.4978,49.8306" id="Fill-85" fill="#FFFFFF" mask="url(#mask-6)"></path>
                        <path d="M146.281,51.0465 L145.713,51.0465 C145.623,51.0465 145.551,51.1185 145.551,51.2075 L145.551,51.7755 C145.551,51.8645 145.623,51.9375 145.713,51.9375 L146.281,51.9375 C146.37,51.9375 146.443,51.8645 146.443,51.7755 L146.443,51.2075 C146.443,51.1185 146.37,51.0465 146.281,51.0465" id="Fill-86" fill="#FFFFFF" mask="url(#mask-6)"></path>
                        <path d="M167.5974,60.7027 L133.3834,60.7027 C132.8304,60.7027 132.3834,60.2557 132.3834,59.7027 C132.3834,59.1497 132.8304,58.7027 133.3834,58.7027 L167.5974,58.7027 C168.1504,58.7027 168.5974,59.1497 168.5974,59.7027 C168.5974,60.2557 168.1504,60.7027 167.5974,60.7027" id="Fill-87" fill="#D3E1F2" mask="url(#mask-6)"></path>
                        <path d="M161.8289,64.9986 L133.3839,64.9986 C132.8309,64.9986 132.3839,64.5516 132.3839,63.9986 C132.3839,63.4456 132.8309,62.9986 133.3839,62.9986 L161.8289,62.9986 C162.3819,62.9986 162.8289,63.4456 162.8289,63.9986 C162.8289,64.5516 162.3819,64.9986 161.8289,64.9986" id="Fill-88" fill="#D3E1F2" mask="url(#mask-6)"></path>
                        <polygon id="Fill-89" fill="#D3E1F2" mask="url(#mask-6)" points="24.038 109.312 183.961 109.312 183.961 98.507 24.038 98.507"></polygon>
                        <path d="M42.3465,107.1373 L28.6015,107.1373 C27.5295,107.1373 26.6595,106.2683 26.6595,105.1953 L26.6595,103.5863 C26.6595,102.5143 27.5295,101.6453 28.6015,101.6453 L42.3465,101.6453 C43.4195,101.6453 44.2885,102.5143 44.2885,103.5863 L44.2885,105.1953 C44.2885,106.2683 43.4195,107.1373 42.3465,107.1373" id="Fill-90" fill="#3B77BC" mask="url(#mask-6)"></path>
                        <path d="M32.5994,104.9429 L32.7374,104.7529 C32.8314,104.8549 32.9854,104.9469 33.1794,104.9469 C33.3804,104.9469 33.4574,104.8479 33.4574,104.7549 C33.4574,104.4619 32.6454,104.6429 32.6454,104.1309 C32.6454,103.8969 32.8464,103.7189 33.1544,103.7189 C33.3704,103.7189 33.5484,103.7909 33.6754,103.9169 L33.5374,104.0989 C33.4264,103.9879 33.2784,103.9369 33.1314,103.9369 C32.9894,103.9369 32.8974,104.0079 32.8974,104.1109 C32.8974,104.3729 33.7094,104.2119 33.7094,104.7309 C33.7094,104.9639 33.5434,105.1649 33.1684,105.1649 C32.9114,105.1649 32.7254,105.0729 32.5994,104.9429" id="Fill-91" fill="#FFFFFF" mask="url(#mask-6)"></path>
                        <path d="M34.6131,105.1402 L34.6131,104.5072 C34.6131,104.3482 34.5311,104.2972 34.4071,104.2972 C34.2971,104.2972 34.2001,104.3652 34.1471,104.4322 L34.1471,105.1402 L33.9271,105.1402 L33.9271,104.1272 L34.1471,104.1272 L34.1471,104.2642 C34.2151,104.1842 34.3461,104.1032 34.5061,104.1032 C34.7231,104.1032 34.8331,104.2202 34.8331,104.4272 L34.8331,105.1402 L34.6131,105.1402 Z" id="Fill-92" fill="#FFFFFF" mask="url(#mask-6)"></path>
                        <path d="M35.7381,105.1402 L35.7381,105.0292 C35.6631,105.1172 35.5431,105.1642 35.4091,105.1642 C35.2461,105.1642 35.0591,105.0512 35.0591,104.8292 C35.0591,104.5952 35.2441,104.4982 35.4091,104.4982 C35.5481,104.4982 35.6631,104.5422 35.7381,104.6282 L35.7381,104.4782 C35.7381,104.3612 35.6391,104.2892 35.5011,104.2892 C35.3881,104.2892 35.2881,104.3302 35.2021,104.4192 L35.1091,104.2662 C35.2261,104.1532 35.3741,104.1032 35.5351,104.1032 C35.7601,104.1032 35.9581,104.1972 35.9581,104.4672 L35.9581,105.1402 L35.7381,105.1402 Z M35.7381,104.9102 L35.7381,104.7542 C35.6851,104.6852 35.5921,104.6502 35.4971,104.6502 C35.3741,104.6502 35.2791,104.7232 35.2791,104.8312 C35.2791,104.9432 35.3741,105.0142 35.4971,105.0142 C35.5921,105.0142 35.6851,104.9782 35.7381,104.9102 L35.7381,104.9102 Z" id="Fill-93" fill="#FFFFFF" mask="url(#mask-6)"></path>
                        <path d="M36.4627,104.9996 L36.4627,105.5246 L36.2427,105.5246 L36.2427,104.1276 L36.4627,104.1276 L36.4627,104.2666 C36.5387,104.1656 36.6557,104.1036 36.7877,104.1036 C37.0497,104.1036 37.2357,104.2996 37.2357,104.6326 C37.2357,104.9666 37.0497,105.1646 36.7877,105.1646 C36.6597,105.1646 36.5467,105.1056 36.4627,104.9996 M37.0097,104.6326 C37.0097,104.4366 36.8967,104.2976 36.7227,104.2976 C36.6197,104.2976 36.5137,104.3556 36.4627,104.4326 L36.4627,104.8316 C36.5117,104.9066 36.6197,104.9706 36.7227,104.9706 C36.8967,104.9706 37.0097,104.8296 37.0097,104.6326" id="Fill-94" fill="#FFFFFF" mask="url(#mask-6)"></path>
                        <path d="M37.3728,104.9429 L37.5108,104.7529 C37.6048,104.8549 37.7578,104.9469 37.9528,104.9469 C38.1538,104.9469 38.2308,104.8479 38.2308,104.7549 C38.2308,104.4619 37.4188,104.6429 37.4188,104.1309 C37.4188,103.8969 37.6198,103.7189 37.9278,103.7189 C38.1438,103.7189 38.3218,103.7909 38.4488,103.9169 L38.3108,104.0989 C38.1998,103.9879 38.0518,103.9369 37.9048,103.9369 C37.7628,103.9369 37.6698,104.0079 37.6698,104.1109 C37.6698,104.3729 38.4828,104.2119 38.4828,104.7309 C38.4828,104.9639 38.3168,105.1649 37.9418,105.1649 C37.6848,105.1649 37.4978,105.0729 37.3728,104.9429" id="Fill-95" fill="#FFFFFF" mask="url(#mask-6)"></path>
                        <path d="M38.6404,104.6324 C38.6404,104.3264 38.8564,104.1034 39.1614,104.1034 C39.3614,104.1034 39.4784,104.1874 39.5494,104.2824 L39.4054,104.4144 C39.3484,104.3354 39.2704,104.2974 39.1724,104.2974 C38.9904,104.2974 38.8674,104.4364 38.8674,104.6324 C38.8674,104.8294 38.9904,104.9704 39.1724,104.9704 C39.2704,104.9704 39.3484,104.9284 39.4054,104.8484 L39.5494,104.9854 C39.4784,105.0784 39.3614,105.1644 39.1614,105.1644 C38.8564,105.1644 38.6404,104.9394 38.6404,104.6324" id="Fill-96" fill="#FFFFFF" mask="url(#mask-6)"></path>
                        <path d="M40.365,105.1402 L40.365,105.0292 C40.289,105.1172 40.17,105.1642 40.036,105.1642 C39.872,105.1642 39.685,105.0512 39.685,104.8292 C39.685,104.5952 39.87,104.4982 40.036,104.4982 C40.174,104.4982 40.289,104.5422 40.365,104.6282 L40.365,104.4782 C40.365,104.3612 40.266,104.2892 40.128,104.2892 C40.014,104.2892 39.914,104.3302 39.828,104.4192 L39.736,104.2662 C39.853,104.1532 40,104.1032 40.161,104.1032 C40.387,104.1032 40.585,104.1972 40.585,104.4672 L40.585,105.1402 L40.365,105.1402 Z M40.365,104.9102 L40.365,104.7542 C40.312,104.6852 40.218,104.6502 40.124,104.6502 C40,104.6502 39.906,104.7232 39.906,104.8312 C39.906,104.9432 40,105.0142 40.124,105.0142 C40.218,105.0142 40.312,104.9782 40.365,104.9102 L40.365,104.9102 Z" id="Fill-97" fill="#FFFFFF" mask="url(#mask-6)"></path>
                        <path d="M41.5545,105.1402 L41.5545,104.5072 C41.5545,104.3482 41.4735,104.2972 41.3495,104.2972 C41.2385,104.2972 41.1425,104.3652 41.0895,104.4322 L41.0895,105.1402 L40.8695,105.1402 L40.8695,104.1272 L41.0895,104.1272 L41.0895,104.2642 C41.1575,104.1842 41.2885,104.1032 41.4485,104.1032 C41.6655,104.1032 41.7755,104.2202 41.7755,104.4272 L41.7755,105.1402 L41.5545,105.1402 Z" id="Fill-98" fill="#FFFFFF" mask="url(#mask-6)"></path>
                        <path d="M30.4422,103.1871 C29.7232,103.1871 29.1412,103.7691 29.1412,104.4881 C29.1412,105.2071 29.7232,105.7891 30.4422,105.7891 C31.1612,105.7891 31.7442,105.2071 31.7442,104.4881 C31.7442,103.7691 31.1612,103.1871 30.4422,103.1871 M30.4422,105.7021 C29.7722,105.7021 29.2282,105.1591 29.2282,104.4881 C29.2282,103.8171 29.7722,103.2741 30.4422,103.2741 C31.1132,103.2741 31.6562,103.8171 31.6562,104.4881 C31.6562,105.1591 31.1132,105.7021 30.4422,105.7021" id="Fill-99" fill="#FFFFFF" mask="url(#mask-6)"></path>
                        <path d="M30.2693,103.9263 L29.9663,103.9263 C29.9183,103.9263 29.8803,103.9653 29.8803,104.0123 L29.8803,104.3153 C29.8803,104.3633 29.9183,104.4023 29.9663,104.4023 L30.2693,104.4023 C30.3173,104.4023 30.3563,104.3633 30.3563,104.3153 L30.3563,104.0123 C30.3563,103.9653 30.3173,103.9263 30.2693,103.9263" id="Fill-100" fill="#FFFFFF" mask="url(#mask-6)"></path>
                        <path d="M30.9177,103.9263 L30.6147,103.9263 C30.5667,103.9263 30.5287,103.9653 30.5287,104.0123 L30.5287,104.3153 C30.5287,104.3633 30.5667,104.4023 30.6147,104.4023 L30.9177,104.4023 C30.9657,104.4023 31.0047,104.3633 31.0047,104.3153 L31.0047,104.0123 C31.0047,103.9653 30.9657,103.9263 30.9177,103.9263" id="Fill-101" fill="#FFFFFF" mask="url(#mask-6)"></path>
                        <path d="M30.2693,104.5738 L29.9663,104.5738 C29.9183,104.5738 29.8803,104.6128 29.8803,104.6608 L29.8803,104.9628 C29.8803,105.0108 29.9183,105.0498 29.9663,105.0498 L30.2693,105.0498 C30.3173,105.0498 30.3563,105.0108 30.3563,104.9628 L30.3563,104.6608 C30.3563,104.6128 30.3173,104.5738 30.2693,104.5738" id="Fill-102" fill="#FFFFFF" mask="url(#mask-6)"></path>
                        <path d="M51.4812,107.0855 L47.8902,107.0855 C47.3822,107.0855 46.9712,106.6745 46.9712,106.1665 L46.9712,102.5755 C46.9712,102.0675 47.3822,101.6565 47.8902,101.6565 L51.4812,101.6565 C51.9892,101.6565 52.4002,102.0675 52.4002,102.5755 L52.4002,106.1665 C52.4002,106.6745 51.9892,107.0855 51.4812,107.0855" id="Fill-103" fill="#3B77BC" mask="url(#mask-6)"></path>
                        <path d="M60.7595,107.1373 L55.0845,107.1373 C54.7805,107.1373 54.5335,106.8903 54.5335,106.5863 L54.5335,102.2073 C54.5335,101.9033 54.7805,101.6573 55.0845,101.6573 L60.7595,101.6573 C61.0635,101.6573 61.3105,101.9033 61.3105,102.2073 L61.3105,106.5863 C61.3105,106.8903 61.0635,107.1373 60.7595,107.1373" id="Fill-104" fill="#3B77BC" mask="url(#mask-6)"></path>
                        <path d="M180.6941,107.9361 L169.8051,107.9361 C169.3811,107.9361 169.0361,107.5911 169.0361,107.1661 C169.0361,106.7421 169.3811,106.3971 169.8051,106.3971 L180.6941,106.3971 C181.1191,106.3971 181.4641,106.7421 181.4641,107.1661 C181.4641,107.5911 181.1191,107.9361 180.6941,107.9361" id="Fill-105" fill="#9CBADD" mask="url(#mask-6)"></path>
                        <path d="M180.6941,105.5201 L148.9791,105.5201 C148.5541,105.5201 148.2101,105.1751 148.2101,104.7501 C148.2101,104.3261 148.5541,103.9811 148.9791,103.9811 L180.6941,103.9811 C181.1191,103.9811 181.4641,104.3261 181.4641,104.7501 C181.4641,105.1751 181.1191,105.5201 180.6941,105.5201" id="Fill-106" fill="#9CBADD" mask="url(#mask-6)"></path>
                        <path d="M180.6941,103.1041 L161.5121,103.1041 C161.0881,103.1041 160.7431,102.7591 160.7431,102.3341 C160.7431,101.9101 161.0881,101.5651 161.5121,101.5651 L180.6941,101.5651 C181.1191,101.5651 181.4641,101.9101 181.4641,102.3341 C181.4641,102.7591 181.1191,103.1041 180.6941,103.1041" id="Fill-107" fill="#9CBADD" mask="url(#mask-6)"></path>
                        <polygon id="Fill-108" fill="#D3E1F2" mask="url(#mask-6)" points="24.038 18.052 183.961 18.052 183.961 9.506 24.038 9.506"></polygon>
                        <path d="M26.6863,13.4634 C26.6863,14.3124 27.3743,15.0014 28.2243,15.0014 C29.0743,15.0014 29.7623,14.3124 29.7623,13.4634 C29.7623,12.6134 29.0743,11.9254 28.2243,11.9254 C27.3743,11.9254 26.6863,12.6134 26.6863,13.4634" id="Fill-109" fill="#FFFFFF" mask="url(#mask-6)"></path>
                        <path d="M30.7058,13.4634 C30.7058,14.3124 31.3938,15.0014 32.2438,15.0014 C33.0938,15.0014 33.7818,14.3124 33.7818,13.4634 C33.7818,12.6134 33.0938,11.9254 32.2438,11.9254 C31.3938,11.9254 30.7058,12.6134 30.7058,13.4634" id="Fill-110" fill="#FFFFFF" mask="url(#mask-6)"></path>
                        <polygon id="Fill-111" fill="#FFFFFF" mask="url(#mask-6)" points="35.554 15.002 153.942 15.002 153.942 11.926 35.554 11.926"></polygon>
                        <polygon id="Fill-112" fill="#FFFFFF" mask="url(#mask-6)" points="158.224 15.002 181.019 15.002 181.019 11.926 158.224 11.926"></polygon>
                        <path d="M56.8787,13.4634 L37.7327,13.4634" id="Stroke-113" stroke="#AAC4E1" stroke-width="1.539" stroke-linecap="round" mask="url(#mask-6)"></path>
                        <path d="M70.6404,13.4634 L60.3324,13.4634" id="Stroke-114" stroke="#AAC4E1" stroke-width="1.539" stroke-linecap="round" mask="url(#mask-6)"></path>
                        <path d="M70.3621,28.4986 L32.3621,28.4986 C30.7051,28.4986 29.3621,27.1556 29.3621,25.4986 C29.3621,23.8416 30.7051,22.4986 32.3621,22.4986 L70.3621,22.4986 C72.0191,22.4986 73.3621,23.8416 73.3621,25.4986 C73.3621,27.1556 72.0191,28.4986 70.3621,28.4986" id="Fill-115" fill="#FFFFFF" mask="url(#mask-6)"></path>
                        <path d="M71.8621,65.9986 L31.8621,65.9986 C30.7581,65.9986 29.8621,65.1026 29.8621,63.9986 C29.8621,62.8946 30.7581,61.9986 31.8621,61.9986 L71.8621,61.9986 C72.9661,61.9986 73.8621,62.8946 73.8621,63.9986 C73.8621,65.1026 72.9661,65.9986 71.8621,65.9986" id="Fill-116" fill="#FFFFFF" mask="url(#mask-6)"></path>
                        <path d="M72.4265,52.9986 L60.2975,52.9986 C58.9525,52.9986 57.8625,51.9076 57.8625,50.5626 L57.8625,50.4346 C57.8625,49.0896 58.9525,47.9986 60.2975,47.9986 L72.4265,47.9986 C73.7715,47.9986 74.8625,49.0896 74.8625,50.4346 L74.8625,50.5626 C74.8625,51.9076 73.7715,52.9986 72.4265,52.9986" id="Fill-117" fill="#FFFFFF" mask="url(#mask-6)"></path>
                    </g>
                </g>
            </g>
        </g>
    </g>
</svg>