<?xml version="1.0" encoding="UTF-8"?>
<svg width="360px" height="215px" viewBox="0 0 360 215" version="1.1" xmlns="http://www.w3.org/2000/svg" xmlns:xlink="http://www.w3.org/1999/xlink">
    <!-- Generator: Sketch 53 (72520) - https://sketchapp.com -->
    <title>img-about-50000-merch</title>
    <desc>Created with Sketch.</desc>
    <defs>
        <path d="M230.309417,135.964031 C225.346764,136.745613 222.735268,137.787722 220.384921,141.956158 C218.033764,146.125404 216.467677,142.998267 213.071921,141.435913 C209.676976,139.87194 212.287661,137.00614 210.198465,134.14034 C208.109268,131.273731 209.153866,128.928985 210.721575,127.886876 C212.287661,126.844767 214.11652,123.457104 216.467677,121.113167 C218.817213,118.767613 224.041016,115.641285 227.435961,116.161531 C230.831717,116.683395 230.63626,121.967567 233.443213,122.155276 C237.360457,122.414995 236.577819,123.978967 237.360457,127.105295 C238.143906,130.231622 235.27126,135.182449 230.309417,135.964031 M272.358559,94.0150945 C271.835449,95.5782582 270.530512,99.7466945 267.657055,99.2264491 C264.784409,98.7045855 258.777157,96.8808945 258.516008,93.49404 C258.254858,90.1063764 259.299457,84.6353036 261.388654,81.7695036 C263.47785,78.9037036 267.134756,78.38184 269.223953,80.9879218 C271.313961,83.5923855 272.880047,81.24764 272.880047,81.24764 C272.880047,81.24764 276.536953,64.8336127 275.753504,59.6222582 C274.970055,54.4109036 271.835449,47.6371945 271.57511,40.8626764 C271.313961,34.0881582 271.313961,30.1802491 268.179354,30.1802491 C265.045559,30.1802491 251.203008,25.7504764 246.763465,26.0118127 C242.32311,26.2715309 240.233913,28.8776127 236.577819,30.1802491 C232.920913,31.4820764 228.741709,33.8276309 220.646071,39.8205673 C212.549622,45.8126945 210.982724,50.7635218 207.064669,55.1932945 C203.147425,59.6222582 198.707071,57.0169855 196.356724,59.8827855 C194.005567,62.7493945 185.909929,73.1712945 181.208425,72.9099582 C176.506921,72.6494309 165.276677,64.5730855 160.575984,66.6573036 C155.87448,68.7415218 160.182638,71.4511673 154.046433,76.2976218 C147.778031,81.24764 144.898898,82.8197036 143.076528,85.4168855 C141.24848,88.0221582 129.495937,88.2826855 128.451339,87.5019127 C127.40674,86.7195218 131.062835,79.4239491 131.323984,76.0370945 C131.585134,72.6494309 127.929039,65.0933309 125.056394,62.4880582 C122.182937,59.8827855 120.616039,59.3617309 120.616039,59.3617309 L120.616039,109.648349 C120.616039,109.648349 115.914535,110.690458 115.131087,111.993095 C114.348449,113.295731 113.825339,115.380758 111.213843,116.422867 C108.602346,117.464976 92.6705984,116.422867 90.320252,114.077313 C87.9690945,111.732567 88.2302441,107.824658 86.6633465,107.302795 C85.0964488,106.782549 84.5741496,103.134358 82.7461024,104.958858 C80.9180551,106.782549 78.305748,112.253622 77,112.514149 C77,112.514149 91.3648504,145.864876 91.8863386,146.906985 C92.4094488,147.949095 96.5878425,150.294649 97.6324409,152.11834 C98.6770394,153.942031 101.028197,169.053422 101.028197,169.053422 C101.028197,169.053422 97.6324409,169.835813 96.3266929,171.138449 C95.0209449,172.441085 98.939,177.912967 100.244748,180.257713 C101.550496,182.603267 104.161992,184.687485 103.378543,188.855922 C102.595094,193.024358 105.206591,188.334867 106.774299,190.158558 C108.340386,191.982249 110.430394,193.546222 111.213843,193.80594 C111.997291,194.067276 114.348449,198.49624 116.959134,199.018104 C119.571441,199.538349 125.056394,194.848049 127.145591,194.848049 C129.234787,194.848049 129.495937,195.109385 134.45778,194.327804 C139.420433,193.546222 141.24848,189.637504 148.56148,188.595395 C155.87448,187.553285 164.232079,187.291949 167.888173,188.855922 C171.545079,190.419085 174.940024,192.504113 178.596118,190.158558 C182.253024,187.813813 186.170268,185.207731 188.782575,185.729595 C191.394882,186.24984 204.453173,183.905904 208.892717,181.039295 C213.33226,178.173495 237.099307,161.237604 242.32311,155.244667 C247.546913,149.25254 257.471409,135.442167 260.867165,129.45004 C264.261299,123.457104 267.918205,123.457104 271.57511,121.633413 C275.231205,119.809722 276.798102,117.725504 278.365,111.47204 C279.932709,105.218576 282.805354,96.0993127 282.805354,96.0993127 C282.805354,96.0993127 272.880047,92.4519309 272.358559,94.0150945" id="path-1"></path>
        <filter x="-1.7%" y="-2.0%" width="105.8%" height="108.1%" filterUnits="objectBoundingBox" id="filter-2">
            <feOffset dx="5" dy="7" in="SourceAlpha" result="shadowOffsetOuter1"></feOffset>
            <feColorMatrix values="0 0 0 0 0.149019608   0 0 0 0 0.223529412   0 0 0 0 0.262745098  0 0 0 0.1 0" type="matrix" in="shadowOffsetOuter1"></feColorMatrix>
        </filter>
    </defs>
    <g id="Page-1" stroke="none" stroke-width="1" fill="none" fill-rule="evenodd">
        <g id="SnapScan-Assets" transform="translate(-468.000000, -4884.000000)">
            <g id="img-about-50000-merch" transform="translate(468.000000, 4884.000000)">
                <g id="Fill-3" fill="black" fill-opacity="1">
                    <use filter="url(#filter-2)" xlink:href="#path-1"></use>
                </g>
                <path d="M230.309417,135.964031 C225.346764,136.745613 222.735268,137.787722 220.384921,141.956158 C218.033764,146.125404 216.467677,142.998267 213.071921,141.435913 C209.676976,139.87194 212.287661,137.00614 210.198465,134.14034 C208.109268,131.273731 209.153866,128.928985 210.721575,127.886876 C212.287661,126.844767 214.11652,123.457104 216.467677,121.113167 C218.817213,118.767613 224.041016,115.641285 227.435961,116.161531 C230.831717,116.683395 230.63626,121.967567 233.443213,122.155276 C237.360457,122.414995 236.577819,123.978967 237.360457,127.105295 C238.143906,130.231622 235.27126,135.182449 230.309417,135.964031 M272.358559,94.0150945 C271.835449,95.5782582 270.530512,99.7466945 267.657055,99.2264491 C264.784409,98.7045855 258.777157,96.8808945 258.516008,93.49404 C258.254858,90.1063764 259.299457,84.6353036 261.388654,81.7695036 C263.47785,78.9037036 267.134756,78.38184 269.223953,80.9879218 C271.313961,83.5923855 272.880047,81.24764 272.880047,81.24764 C272.880047,81.24764 276.536953,64.8336127 275.753504,59.6222582 C274.970055,54.4109036 271.835449,47.6371945 271.57511,40.8626764 C271.313961,34.0881582 271.313961,30.1802491 268.179354,30.1802491 C265.045559,30.1802491 251.203008,25.7504764 246.763465,26.0118127 C242.32311,26.2715309 240.233913,28.8776127 236.577819,30.1802491 C232.920913,31.4820764 228.741709,33.8276309 220.646071,39.8205673 C212.549622,45.8126945 210.982724,50.7635218 207.064669,55.1932945 C203.147425,59.6222582 198.707071,57.0169855 196.356724,59.8827855 C194.005567,62.7493945 185.909929,73.1712945 181.208425,72.9099582 C176.506921,72.6494309 165.276677,64.5730855 160.575984,66.6573036 C155.87448,68.7415218 160.182638,71.4511673 154.046433,76.2976218 C147.778031,81.24764 144.898898,82.8197036 143.076528,85.4168855 C141.24848,88.0221582 129.495937,88.2826855 128.451339,87.5019127 C127.40674,86.7195218 131.062835,79.4239491 131.323984,76.0370945 C131.585134,72.6494309 127.929039,65.0933309 125.056394,62.4880582 C122.182937,59.8827855 120.616039,59.3617309 120.616039,59.3617309 L120.616039,109.648349 C120.616039,109.648349 115.914535,110.690458 115.131087,111.993095 C114.348449,113.295731 113.825339,115.380758 111.213843,116.422867 C108.602346,117.464976 92.6705984,116.422867 90.320252,114.077313 C87.9690945,111.732567 88.2302441,107.824658 86.6633465,107.302795 C85.0964488,106.782549 84.5741496,103.134358 82.7461024,104.958858 C80.9180551,106.782549 78.305748,112.253622 77,112.514149 C77,112.514149 91.3648504,145.864876 91.8863386,146.906985 C92.4094488,147.949095 96.5878425,150.294649 97.6324409,152.11834 C98.6770394,153.942031 101.028197,169.053422 101.028197,169.053422 C101.028197,169.053422 97.6324409,169.835813 96.3266929,171.138449 C95.0209449,172.441085 98.939,177.912967 100.244748,180.257713 C101.550496,182.603267 104.161992,184.687485 103.378543,188.855922 C102.595094,193.024358 105.206591,188.334867 106.774299,190.158558 C108.340386,191.982249 110.430394,193.546222 111.213843,193.80594 C111.997291,194.067276 114.348449,198.49624 116.959134,199.018104 C119.571441,199.538349 125.056394,194.848049 127.145591,194.848049 C129.234787,194.848049 129.495937,195.109385 134.45778,194.327804 C139.420433,193.546222 141.24848,189.637504 148.56148,188.595395 C155.87448,187.553285 164.232079,187.291949 167.888173,188.855922 C171.545079,190.419085 174.940024,192.504113 178.596118,190.158558 C182.253024,187.813813 186.170268,185.207731 188.782575,185.729595 C191.394882,186.24984 204.453173,183.905904 208.892717,181.039295 C213.33226,178.173495 237.099307,161.237604 242.32311,155.244667 C247.546913,149.25254 257.471409,135.442167 260.867165,129.45004 C264.261299,123.457104 267.918205,123.457104 271.57511,121.633413 C275.231205,119.809722 276.798102,117.725504 278.365,111.47204 C279.932709,105.218576 282.805354,96.0993127 282.805354,96.0993127 C282.805354,96.0993127 272.880047,92.4519309 272.358559,94.0150945" id="Fill-3" fill="#4A90E2"></path>
                <path d="M94.8288945,149.049296 C94.8288945,149.049296 95.6277528,148.12046 96.2903591,145.918115 C96.9521543,143.71496 98.7185638,143.935842 100.263564,143.274815 C101.809375,142.614596 101.368178,139.530342 103.575784,139.751224 C105.783391,139.971296 109.536808,141.733496 109.0948,145.47716 C108.653603,149.221633 107.328391,151.644051 109.315398,153.406251 C111.302406,155.167642 111.743603,156.488887 111.081808,157.810942 C110.420013,159.132187 110.861209,158.692042 112.626808,160.013287 C114.393217,161.335342 114.172619,163.75776 113.951209,165.959296 C113.731422,168.162451 116.380225,169.924651 117.926036,167.942378 C119.471036,165.959296 126.535863,160.674315 125.431249,163.096733 C124.327446,165.519151 123.003044,170.584869 125.431249,170.584869 C127.860265,170.584869 131.612871,172.787215 134.041887,169.483696 C136.470091,166.180178 142.210517,162.435705 145.079918,162.435705 C147.950131,162.435705 147.288335,152.085005 151.26154,154.066469 C155.234745,156.048742 155.014957,158.692042 157.884359,158.471969 C160.754572,158.251087 164.507178,153.847205 166.494186,155.388524 C168.481194,156.929842 174.871249,158.098978 174.871249,158.098978" id="Stroke-5" stroke="#FFFFFF" stroke-width="0.809999957" opacity="0.574944196" stroke-linecap="round" stroke-linejoin="round"></path>
                <path d="M189.63788,144.208991 C187.209676,141.786573 181.065361,132.923791 179.740959,132.042691 C178.415746,131.161591 175.987542,127.858073 175.987542,127.858073 C175.987542,127.858073 182.389762,119.268764 182.389762,117.506564 C182.389762,115.744364 183.714164,110.458573 183.714164,108.256227 C183.714164,106.053882 181.948565,102.530291 180.402754,102.750364 C178.857754,102.970436 176.870746,106.714909 175.987542,103.851536 C175.104337,100.988164 176.649337,98.3448636 174.221132,98.7858182 C171.792928,99.2259636 166.49451,101.209045 166.715109,97.9055273 C166.936518,94.6012 164.94951,93.9409818 162.299896,93.5000273 C159.650282,93.0598818 161.858699,86.8929909 158.546479,84.9107182 C155.235069,82.9284455 154.444321,78.2171091 153.355117,76.9023364" id="Stroke-7" stroke="#FFFFFF" stroke-width="0.809999957" opacity="0.574944196" stroke-linecap="round" stroke-linejoin="round"></path>
                <path d="M164.816908,187.841403 C163.933703,183.656785 156.117869,180.936621 155.235475,179.614566 C154.35227,178.293321 157.66368,173.448485 157.884278,172.787457 C158.105687,172.12643 161.859105,173.00753 162.078892,171.24533 C162.299491,169.483939 164.0659,165.519394 166.273506,164.638294 C168.481924,163.757194 172.675727,160.893821 174.883333,158.031257 C177.09175,155.167885 181.506963,150.763194 184.818372,150.323048 C188.129782,149.882094 188.570979,147.679748 189.012987,145.477403 C189.454183,143.275057 191.662601,142.834103 193.428199,142.614839 C195.194609,142.393957 199.83042,143.49513 202.921231,143.49513 C206.012042,143.49513 211.576475,139.579939 211.576475,139.579939" id="Stroke-9" stroke="#FFFFFF" stroke-width="0.809999957" opacity="0.574944196" stroke-linecap="round" stroke-linejoin="round"></path>
                <path d="M232.249872,135.370644 C232.531298,136.563244 232.945731,138.869962 231.621329,140.191207 C230.296928,141.513262 229.192313,144.376635 230.516715,145.036853 C231.841928,145.69788 241.334959,147.459271 241.997565,148.120298 C242.659361,148.780516 244.695841,152.276598 244.695841,152.276598" id="Stroke-11" stroke="#FFFFFF" stroke-width="0.809999957" opacity="0.574944196" stroke-linecap="round" stroke-linejoin="round"></path>
                <path d="M230.843233,118.955726 C232.168446,117.854554 239.347627,113.322026 241.114036,111.999972 C242.880446,110.679535 243.76365,102.089417 243.984249,100.988245 C244.204847,99.8878809 248.62006,100.768172 251.931469,100.548099 C255.24369,100.328026 260.541296,101.649272 261.866509,101.208317 L263.751328,97.9112718" id="Stroke-13" stroke="#FFFFFF" stroke-width="0.809999957" opacity="0.574944196" stroke-linecap="round" stroke-linejoin="round"></path>
                <path d="M204.42795,57.2483045 C204.42795,57.2483045 204.803454,60.7557136 206.895084,61.5648045 C209.49847,62.5721227 213.298116,61.7848773 214.180509,62.8868591 C215.062903,63.9880318 215.284313,65.9694955 218.375124,65.9694955 C221.465935,65.9694955 225.660549,64.8691318 227.205549,66.41045 C228.75136,67.9517682 228.309352,71.0352136 226.764352,73.2383682 C225.219352,75.4399045 223.232344,76.5418864 220.36132,78.7434227 C217.491919,80.9465773 215.284313,82.4878955 216.829313,84.6902409 C218.375124,86.8933955 219.478927,91.51735 219.478927,91.51735 L225.219352,93.9413864 C225.219352,93.9413864 225.660549,90.1969136 228.75136,87.7744955 C231.842171,85.3512682 232.503966,81.3867227 235.15358,78.7434227 C237.802383,76.1009318 237.802383,74.7796864 236.257383,72.3572682 C234.712383,69.93485 232.283368,65.7502318 234.712383,64.4281773 C237.140588,63.1069318 242.439006,63.5470773 242.659604,65.3092773 C242.880202,67.0714773 244.86721,69.05375 248.619817,66.8505955 C252.373234,64.64825 252.373234,61.5648045 257.009856,61.1246591 C261.645667,60.6845136 264.957076,61.7848773 265.177675,64.2081045 C265.399084,66.6313318 264.736478,68.17265 266.944084,67.7316955 C269.151691,67.29155 271.138698,65.52935 271.359297,61.7848773 C271.580706,58.0412136 273.314675,55.1203955 274.791549,54.6996682" id="Stroke-15" stroke="#FFFFFF" stroke-width="0.809999957" opacity="0.574944196" stroke-linecap="round" stroke-linejoin="round"></path>
                <path d="M233.652538,66.1909436 L227.610412,66.8341709 L233.652538,66.1909436 Z" id="Stroke-17" stroke="#FFFFFF" stroke-width="0.809999957" opacity="0.574944196" stroke-linecap="round" stroke-linejoin="round"></path>
                <path d="M219.452487,91.5975309 C219.452487,91.5975309 217.93344,92.8394855 213.960235,92.3985309 C209.985409,91.9583855 201.81759,94.3808036 199.830582,96.3638855 C197.843574,98.3453491 196.519172,102.75004 192.103149,102.970922 C187.687936,103.190995 183.62633,106.784976 183.62633,106.784976" id="Stroke-19" stroke="#FFFFFF" stroke-width="0.809999957" opacity="0.574944196" stroke-linecap="round" stroke-linejoin="round"></path>
                <path d="M243.852133,102.260297 C243.852133,102.260297 239.914613,99.8759064 238.023306,96.5837155 C234.586999,90.6012973 231.399676,92.3990973 230.076086,93.0601245 C228.751684,93.7203427 225.288613,93.9832973 225.288613,93.9832973" id="Stroke-21" stroke="#FFFFFF" stroke-width="0.809999957" opacity="0.574944196" stroke-linecap="round" stroke-linejoin="round"></path>
                <path d="M230.266676,73.7509273 C230.202606,78.4161455 225.818212,82.4219545 224.413519,83.5870455 C224.165346,83.7925545 223.808495,83.7949818 223.560322,83.5886636 C222.14833,82.4187182 217.70392,78.3587 217.70392,73.6473636 C217.70392,70.0291091 220.776889,67.1269 224.461369,67.3971364 C227.738716,67.6382455 230.312094,70.4724909 230.266676,73.7509273" id="Fill-23" fill="#143641" opacity="0.5"></path>
                <path d="M230.266676,69.8863855 C230.202606,74.5516036 225.818212,78.5574127 224.413519,79.7225036 C224.165346,79.9280127 223.808495,79.93044 223.560322,79.7241218 C222.14833,78.5541764 217.70392,74.4949673 217.70392,69.7828218 C217.70392,66.1645673 220.776889,63.2623582 224.461369,63.5325945 C227.738716,63.7737036 230.312094,66.6079491 230.266676,69.8863855" id="Fill-25" fill="#FF9B71"></path>
                <path d="M243.767381,36.9933609 C243.70331,41.6585791 239.318917,45.6643882 237.914224,46.82867 C237.66605,47.0349882 237.3092,47.0366064 237.061027,46.8310973 C235.649035,45.6611518 231.204625,41.6011336 231.204625,36.8889882 C231.204625,33.2707336 234.277594,30.3693336 237.962074,30.63957 C241.23942,30.87987 243.812798,33.7149245 243.767381,36.9933609" id="Fill-27" fill="#143641" opacity="0.5"></path>
                <path d="M243.767381,33.1289 C243.70331,37.7941182 239.318917,41.7999273 237.914224,42.9642091 C237.66605,43.1705273 237.3092,43.1721455 237.061027,42.9666364 C235.649035,41.7966909 231.204625,37.7366727 231.204625,33.0245273 C231.204625,29.4062727 234.277594,26.5048727 237.962074,26.7751091 C241.23942,27.0154091 243.812798,29.8504636 243.767381,33.1289" id="Fill-29" fill="#FF9B71"></path>
                <path d="M255.299083,85.2551482 C255.235012,89.9203664 250.850618,93.9269845 249.445925,95.0912664 C249.198563,95.2967755 248.841713,95.2992027 248.592728,95.0928845 C247.181547,93.9229391 242.737138,89.86373 242.737138,85.1515845 C242.737138,81.53333 245.810106,78.6311209 249.493776,78.9021664 C252.771122,79.1424664 255.3445,81.9767118 255.299083,85.2551482" id="Fill-31" fill="#143641" opacity="0.5"></path>
                <path d="M255.299083,81.3906873 C255.235012,86.0559055 250.850618,90.0625236 249.445925,91.2268055 C249.198563,91.4323145 248.841713,91.4347418 248.592728,91.2292327 C247.181547,90.0584782 242.737138,85.9992691 242.737138,81.2871236 C242.737138,77.6688691 245.810106,74.76666 249.493776,75.0377055 C252.771122,75.2780055 255.3445,78.1122509 255.299083,81.3906873" id="Fill-33" fill="#FF9B71"></path>
                <path d="M181.045328,73.4704155 C180.981257,78.1356336 176.596864,82.1414427 175.192171,83.3057245 C174.944809,83.5120427 174.587147,83.51447 174.338974,83.3081518 C172.927793,82.1382064 168.483383,78.0781882 168.483383,73.3660427 C168.483383,69.7485973 171.556352,66.8463882 175.240021,67.1166245 C178.517368,67.3577336 181.090746,70.1919791 181.045328,73.4704155" id="Fill-35" fill="#143641" opacity="0.5"></path>
                <path d="M181.045328,69.6058736 C180.981257,74.2710918 176.596864,78.2769009 175.192171,79.4411827 C174.944809,79.6475009 174.587147,79.6499282 174.338974,79.44361 C172.927793,78.2736645 168.483383,74.2136464 168.483383,69.5015009 C168.483383,65.8840555 171.556352,62.9818464 175.240021,63.2520827 C178.517368,63.4931918 181.090746,66.3274373 181.045328,69.6058736" id="Fill-37" fill="#FF9B71"></path>
                <path d="M145.605786,123.13549 C145.541715,127.800708 141.157321,131.806517 139.752628,132.971608 C139.505266,133.177117 139.148416,133.179545 138.899431,132.973226 C137.48825,131.803281 133.043841,127.743263 133.043841,123.031926 C133.043841,119.413672 136.116809,116.511463 139.800479,116.781699 C143.077825,117.022808 145.652014,119.857054 145.605786,123.13549" id="Fill-39" fill="#143641" opacity="0.5"></path>
                <path d="M145.605786,119.270948 C145.541715,123.936166 141.157321,127.941975 139.752628,129.107066 C139.505266,129.312575 139.148416,129.315003 138.899431,129.108685 C137.48825,127.938739 133.043841,123.87953 133.043841,119.167385 C133.043841,115.54913 136.116809,112.646921 139.800479,112.917157 C143.077825,113.158266 145.652014,115.992512 145.605786,119.270948" id="Fill-41" fill="#FF9B71"></path>
                <path d="M121.043854,173.037628 C120.978972,177.702846 116.594579,181.708655 115.189886,182.873746 C114.942524,183.079255 114.585673,183.081683 114.3375,182.875365 C112.925508,181.705419 108.481098,177.645401 108.481098,172.933255 C108.481098,169.31581 111.554067,166.413601 115.237736,166.683837 C118.515083,166.924946 121.089272,169.759192 121.043854,173.037628" id="Fill-43" fill="#143641" opacity="0.5"></path>
                <path d="M121.043854,169.173086 C120.978972,173.838305 116.594579,177.844114 115.189886,179.009205 C114.942524,179.214714 114.585673,179.217141 114.3375,179.010823 C112.925508,177.840877 108.481098,173.780859 108.481098,169.069523 C108.481098,165.451268 111.554067,162.549059 115.237736,162.819295 C118.515083,163.060405 121.089272,165.89465 121.043854,169.173086" id="Fill-45" fill="#FF9B71"></path>
                <path d="M207.672856,163.778068 C207.608785,168.443286 203.224391,172.449095 201.819698,173.613377 C201.572336,173.819695 201.214675,173.822123 200.966502,173.615805 C199.55532,172.445859 195.110911,168.385841 195.110911,163.673695 C195.110911,160.05625 198.18388,157.154041 201.867549,157.424277 C205.144895,157.665386 207.718273,160.499632 207.672856,163.778068" id="Fill-47" fill="#143641" opacity="0.5"></path>
                <path d="M207.672856,159.913607 C207.608785,164.578825 203.224391,168.584635 201.819698,169.748916 C201.572336,169.955235 201.214675,169.957662 200.966502,169.751344 C199.55532,168.581398 195.110911,164.52138 195.110911,159.809235 C195.110911,156.191789 198.18388,153.28958 201.867549,153.559816 C205.144895,153.800925 207.718273,156.635171 207.672856,159.913607" id="Fill-49" fill="#FF9B71"></path>
                <path d="M204.860388,103.450227 C204.795506,108.115445 200.411924,112.121255 199.00642,113.286345 C198.759057,113.491855 198.402207,113.494282 198.154034,113.287964 C196.742042,112.118018 192.297632,108.058 192.297632,103.345855 C192.297632,99.7284091 195.370601,96.8262 199.055081,97.0964364 C202.332428,97.3375455 204.905806,100.171791 204.860388,103.450227" id="Fill-51" fill="#143641" opacity="0.5"></path>
                <path d="M204.860388,99.5857664 C204.795506,104.250985 200.411924,108.256794 199.00642,109.421885 C198.759057,109.627394 198.402207,109.629821 198.154034,109.423503 C196.742042,108.253557 192.297632,104.193539 192.297632,99.4813936 C192.297632,95.8639482 195.370601,92.9617391 199.055081,93.2319755 C202.332428,93.4730845 204.905806,96.30733 204.860388,99.5857664" id="Fill-53" fill="#FF9B71"></path>
                <path d="M254.362918,122.249778 C254.298036,126.915805 249.914454,130.921615 248.509761,132.085896 C248.261587,132.291405 247.904737,132.293833 247.656564,132.088324 C246.244572,130.917569 241.800162,126.85836 241.800162,122.146215 C241.800162,118.52796 244.873131,115.62656 248.557611,115.896796 C251.834957,116.137096 254.408335,118.972151 254.362918,122.249778" id="Fill-55" fill="#143641" opacity="0.5"></path>
                <path d="M254.362918,118.385236 C254.298036,123.051264 249.914454,127.057073 248.509761,128.221355 C248.261587,128.426864 247.904737,128.429291 247.656564,128.223782 C246.244572,127.053027 241.800162,122.993818 241.800162,118.281673 C241.800162,114.663418 244.873131,111.762018 248.557611,112.032255 C251.834957,112.272555 254.408335,115.107609 254.362918,118.385236" id="Fill-57" fill="#FF9B71"></path>
            </g>
        </g>
    </g>
</svg>