<?xml version="1.0" encoding="UTF-8"?>
<svg width="226px" height="226px" viewBox="0 0 226 226" version="1.1" xmlns="http://www.w3.org/2000/svg" xmlns:xlink="http://www.w3.org/1999/xlink">
    <!-- Generator: Sketch 53 (72520) - https://sketchapp.com -->
    <title>img-prefooter-assist</title>
    <desc>Created with Sketch.</desc>
    <defs>
        <ellipse id="path-1" cx="75" cy="110.701195" rx="75" ry="75.2988048"></ellipse>
        <filter x="-25.0%" y="-14.9%" width="150.0%" height="149.8%" filterUnits="objectBoundingBox" id="filter-2">
            <feOffset dx="0" dy="15" in="SourceAlpha" result="shadowOffsetOuter1"></feOffset>
            <feGaussianBlur stdDeviation="10" in="shadowOffsetOuter1" result="shadowBlurOuter1"></feGaussianBlur>
            <feColorMatrix values="0 0 0 0 0.231372549   0 0 0 0 0.466666667   0 0 0 0 0.733333333  0 0 0 0.2 0" type="matrix" in="shadowBlurOuter1"></feColorMatrix>
        </filter>
        <path d="M75,186 C116.421356,186 150,152.287577 150,110.701195 C150,69.1148137 141.706055,0.302960035 75,0.302960035 C8.29394531,0.302960035 0,69.1148137 0,110.701195 C0,152.287577 33.5786438,186 75,186 Z" id="path-3"></path>
        <polygon id="path-5" points="0.0001 0.687 162.021 0.687 162.021 89 0.0001 89"></polygon>
    </defs>
    <g id="Page-1" stroke="none" stroke-width="1" fill="none" fill-rule="evenodd">
        <g id="SnapScan-Assets" transform="translate(-646.000000, -769.000000)">
            <g id="img-prefooter-assist" transform="translate(646.000000, 769.000000)">
                <g id="Group-2">
                    <g id="assistant" transform="translate(37.000000, 0.000000)">
                        <g transform="translate(0.000000, 3.000000)">
                            <g id="Oval-4-Copy">
                                <use fill="black" fill-opacity="1" filter="url(#filter-2)" xlink:href="#path-1"></use>
                                <use fill="#FFFFFF" fill-rule="evenodd" xlink:href="#path-1"></use>
                            </g>
                            <g id="Group-65">
                                <g id="Group-64">
                                    <mask id="mask-4" fill="white">
                                        <use xlink:href="#path-3"></use>
                                    </mask>
                                    <g id="Mask"></g>
                                    <g id="Group-60" mask="url(#mask-4)">
                                        <g transform="translate(-6.000000, 20.000000)">
                                            <path d="M53.1666,60.1196 C51.5046,66.2766 45.6756,66.5476 43.7776,56.1096 C41.8096,45.2846 48.7296,40.8316 52.5576,50.0976" id="Fill-1" stroke="none" fill="#FA976C" fill-rule="evenodd"></path>
                                            <path d="M57.7067,63.104 C57.7067,63.104 56.3107,48.995 53.7527,44.661 C51.1947,40.326 46.3597,42.374 44.3447,44.41 C42.3297,46.445 37.9467,61.607 49.2577,68.31 C54.9497,71.683 57.7067,63.104 57.7067,63.104" id="Fill-3" stroke="none" fill="#4B8EE0" fill-rule="evenodd"></path>
                                            <g id="Group-7" stroke="none" stroke-width="1" fill="none" fill-rule="evenodd" transform="translate(0.000000, 80.789000)">
                                                <mask id="mask-6" fill="white">
                                                    <use xlink:href="#path-5"></use>
                                                </mask>
                                                <g id="Clip-6"></g>
                                                <path d="M162.0211,89 L150.0261,56.521 C147.6741,50.154 142.4251,45.303 135.8871,43.484 C130.4601,41.976 122.8601,40.163 113.0191,37.996 C91.9491,33.358 94.9181,11.691 101.3341,0.687 L60.7501,0.687 C67.1661,11.691 70.0731,33.358 49.0021,37.996 C39.1621,40.163 31.5601,41.976 26.1341,43.484 C19.5961,45.303 14.3471,50.154 11.9961,56.521 L0.0001,89 L162.0211,89 Z" id="Fill-5" fill="#AD6E4C" mask="url(#mask-6)"></path>
                                            </g>
                                            <path d="M150.026,137.31 C147.674,130.943 142.425,126.092 135.887,124.273 C130.461,122.765 122.86,120.952 113.019,118.785 C109.944,118.108 107.394,117.06 105.279,115.744 L56.746,115.744 C54.629,117.06 52.078,118.108 49.003,118.785 C39.162,120.952 31.56,122.765 26.134,124.273 C19.596,126.092 14.347,130.943 11.996,137.31 L0,169.789 L162.021,169.789 L150.026,137.31 Z" id="Fill-8" stroke="none" fill="#34B82F" fill-rule="evenodd"></path>
                                            <polygon id="Fill-10" stroke="none" fill="#203A44" fill-rule="evenodd" points="137.985 169.789 137.985 150.47 132.542 169.789"></polygon>
                                            <polygon id="Fill-12" stroke="none" fill="#203A44" fill-rule="evenodd" points="29.4801 169.789 24.0371 150.47 24.0371 169.789"></polygon>
                                            <path d="M81.0104,81.476 L60.7484,81.476 C67.1644,92.478 70.0144,113.887 49.0124,118.783 C71.2814,113.591 69.4184,99.039 81.0104,93.673 L81.0104,81.476 Z" id="Fill-14" stroke="none" fill="#203A44" fill-rule="evenodd"></path>
                                            <path d="M55.8375,115.7573 C63.3285,135.9783 80.9735,141.3363 80.9735,141.3363 C80.9735,141.3363 98.6185,135.8113 106.1085,115.5933" id="Stroke-16" stroke="#FAE477" stroke-width="0.669" fill="none" stroke-linecap="round" stroke-linejoin="round"></path>
                                            <path d="M84.5407,26.5908 C75.8007,26.9858 65.6427,28.7988 54.3847,33.0958 L54.3847,33.0988 C47.2277,67.2888 61.7197,93.6728 81.0107,93.6728 C96.4747,93.6728 109.5687,76.7198 109.4187,50.0968 C109.3437,36.6778 97.9457,25.9848 84.5407,26.5908" id="Fill-18" stroke="none" fill="#AD6E4C" fill-rule="evenodd"></path>
                                            <path d="M90.9176,54.144 C90.9176,55.626 91.8086,56.828 92.9056,56.828 C94.0036,56.828 94.8936,55.626 94.8936,54.144 C94.8936,52.662 94.0036,51.46 92.9056,51.46 C91.8086,51.46 90.9176,52.662 90.9176,54.144" id="Fill-20" stroke="none" fill="#203A44" fill-rule="evenodd"></path>
                                            <path d="M90.9176,54.144 C90.9176,55.626 91.8086,56.828 92.9056,56.828 C94.0036,56.828 94.8936,55.626 94.8936,54.144 C94.8936,52.662 94.0036,51.46 92.9056,51.46 C91.8086,51.46 90.9176,52.662 90.9176,54.144 Z" id="Stroke-22" stroke="#203A44" stroke-width="1" fill="none" stroke-linecap="round" stroke-linejoin="round"></path>
                                            <path d="M89.7282,49.3002 C93.4952,45.1222 97.0372,50.9842 102.0562,47.2862" id="Stroke-24" stroke="#6B422C" stroke-width="1.1" fill="none" stroke-linecap="round" stroke-linejoin="round"></path>
                                            <path d="M70.653,54.144 C70.653,55.626 69.763,56.828 68.666,56.828 C67.567,56.828 66.677,55.626 66.677,54.144 C66.677,52.662 67.567,51.46 68.666,51.46 C69.763,51.46 70.653,52.662 70.653,54.144" id="Fill-26" stroke="none" fill="#203A44" fill-rule="evenodd"></path>
                                            <path d="M70.653,54.144 C70.653,55.626 69.763,56.828 68.666,56.828 C67.567,56.828 66.677,55.626 66.677,54.144 C66.677,52.662 67.567,51.46 68.666,51.46 C69.763,51.46 70.653,52.662 70.653,54.144 Z" id="Stroke-28" stroke="#203A44" stroke-width="1" fill="none" stroke-linecap="round" stroke-linejoin="round"></path>
                                            <path d="M71.8424,49.3002 C68.0754,45.1222 64.5334,50.9842 59.5144,47.2862" id="Stroke-30" stroke="#6B422C" stroke-width="1.1" fill="none" stroke-linecap="round" stroke-linejoin="round"></path>
                                            <path d="M74.3248,39.9731 C72.8888,39.8891 71.4458,39.8271 70.0018,39.8421 C68.5548,39.8411 67.1098,39.9231 65.6628,40.0331 C64.2188,40.1651 62.7738,40.3451 61.3408,40.6011 C59.9108,40.8621 58.4748,41.1761 57.0978,41.6311 L56.9638,41.3231 C58.3288,40.7231 59.7338,40.2741 61.1588,39.8711 C62.5828,39.4741 64.0278,39.1521 65.4828,38.8791 C66.9418,38.6261 68.4078,38.4021 69.8848,38.2631 C71.3588,38.1061 72.8408,38.0271 74.3248,37.9731 L74.3248,39.9731 Z" id="Fill-32" stroke="none" fill="#263943" fill-rule="evenodd"></path>
                                            <path d="M86.2448,37.9731 C87.7288,38.0271 89.2118,38.1061 90.6858,38.2631 C92.1628,38.4021 93.6288,38.6261 95.0868,38.8791 C96.5428,39.1521 97.9868,39.4741 99.4128,39.8711 C100.8368,40.2741 102.2418,40.7231 103.6078,41.3231 L103.4728,41.6311 C102.0968,41.1761 100.6598,40.8621 99.2298,40.6011 C97.7958,40.3451 96.3518,40.1651 94.9078,40.0331 C93.4608,39.9231 92.0158,39.8411 90.5688,39.8421 C89.1248,39.8271 87.6818,39.8891 86.2448,39.9731 L86.2448,37.9731 Z" id="Fill-34" stroke="none" fill="#263943" fill-rule="evenodd"></path>
                                            <path d="M87.1754,150.7514 C87.1754,147.3264 84.3984,144.5494 80.9734,144.5494 C77.5474,144.5494 74.7714,147.3264 74.7714,150.7514 C74.7714,154.1764 77.5474,156.9534 80.9734,156.9534 C84.3984,156.9534 87.1754,154.1764 87.1754,150.7514" id="Fill-36" stroke="none" fill="#FAE477" fill-rule="evenodd"></path>
                                            <path d="M84.2653,150.7514 C84.2653,148.9324 82.7913,147.4584 80.9733,147.4584 C79.1543,147.4584 77.6803,148.9324 77.6803,150.7514 C77.6803,152.5694 79.1543,154.0434 80.9733,154.0434 C82.7913,154.0434 84.2653,152.5694 84.2653,150.7514" id="Fill-38" stroke="none" fill="#F6BC72" fill-rule="evenodd"></path>
                                            <path d="M80.9733,145.5703 L80.9733,141.3363" id="Stroke-40" stroke="#FAE477" stroke-width="0.669" fill="none" stroke-linecap="round" stroke-linejoin="round"></path>
                                            <path d="M79.2409,51.1889 L75.7819,63.5019 C74.9839,67.9309 82.7569,66.6579 82.7569,66.6579" id="Stroke-42" stroke="#6B422C" stroke-width="1.1" fill="none" stroke-linecap="round" stroke-linejoin="round"></path>
                                            <path d="M74.8307,78.5766 C79.7507,79.8406 85.2507,78.5756 89.1237,75.2886" id="Stroke-44" stroke="#6B422C" stroke-width="1.1" fill="none" stroke-linecap="round" stroke-linejoin="round"></path>
                                            <path d="M107.8278,49.9868 C107.8278,49.9868 109.4738,24.8118 77.7128,30.2228 C45.9498,35.6348 49.2438,24.1058 49.2438,24.1058 C49.2438,24.1058 82.4178,4.9308 83.8298,5.4018 C85.2408,5.8718 93.1648,8.7578 97.0048,7.9898 C109.9448,5.4018 115.0278,11.6298 116.2978,17.8718 C119.1208,31.7528 114.4158,47.3988 111.3568,52.3398 C108.2988,57.2798 107.8278,49.9868 107.8278,49.9868" id="Fill-46" stroke="none" fill="#263943" fill-rule="evenodd"></path>
                                            <path d="M101.0065,8.8774 C114.3095,15.9224 109.7095,45.0454 109.7095,45.0454 C109.7095,45.0454 111.4155,46.9284 113.2985,43.8694 C116.1485,12.8914 106.6915,10.3184 101.0065,8.8774" id="Fill-48" stroke="none" fill="#214E81" fill-rule="evenodd"></path>
                                            <path d="M108.8092,60.1196 C110.4712,66.2766 116.3012,66.5476 118.1992,56.1096 C120.1672,45.2846 113.2462,40.8316 109.4182,50.0976" id="Fill-50" stroke="none" fill="#FA976C" fill-rule="evenodd"></path>
                                            <path d="M106.1559,64.0844 C106.1559,64.0844 105.7589,49.9124 107.7479,45.2894 C109.7369,40.6664 114.7919,42.0864 117.0489,43.8524 C119.3039,45.6174 125.5679,60.1034 115.1939,68.1814 C109.9739,72.2474 106.1559,64.0844 106.1559,64.0844" id="Fill-52" stroke="none" fill="#4B8EE0" fill-rule="evenodd"></path>
                                            <path d="M111.6373,65.0068 C111.6373,65.0068 114.3313,81.9028 89.8213,85.0048" id="Stroke-54" stroke="#214E81" stroke-width="2.7" fill="none" stroke-linecap="round"></path>
                                            <path d="M88.3981,88.9619 C90.6611,88.6959 92.3181,86.9739 92.1001,85.1149 C91.8811,83.2569 89.8711,81.9659 87.6081,82.2319 C85.3451,82.4969 83.6881,84.2189 83.9061,86.0769 C84.1251,87.9359 86.1351,89.2279 88.3981,88.9619" id="Fill-56" stroke="none" fill="#4B8EE0" fill-rule="evenodd"></path>
                                            <path d="M68.7711,23.6352 C68.7711,23.6352 51.2091,35.6662 53.1671,60.1192 C46.6551,51.6342 33.0691,21.4002 54.0081,10.3422 C74.9481,-0.7158 98.4171,-4.9508 99.8291,7.9892 C99.8421,8.1192 99.7501,8.3282 99.8711,8.3752 C109.4921,12.1792 108.7831,24.8432 99.1231,24.5762 L68.7711,23.6352 Z" id="Fill-58" stroke="none" fill="#263943" fill-rule="evenodd"></path>
                                        </g>
                                    </g>
                                </g>
                            </g>
                        </g>
                    </g>
                </g>
            </g>
        </g>
    </g>
</svg>