<?xml version="1.0" encoding="UTF-8"?>
<svg width="120px" height="120px" viewBox="0 0 120 120" version="1.1" xmlns="http://www.w3.org/2000/svg" xmlns:xlink="http://www.w3.org/1999/xlink">
    <!-- Generator: Sketch 53 (72520) - https://sketchapp.com -->
    <title>img-footer-illustration</title>
    <desc>Created with Sketch.</desc>
    <g id="Page-1" stroke="none" stroke-width="1" fill="none" fill-rule="evenodd">
        <g id="SnapScan-Assets" transform="translate(-620.000000, -349.000000)">
            <g id="img-footer-illustration" transform="translate(620.000000, 349.000000)">
                <g id="Group-166" transform="translate(20.000000, 13.000000)">
                    <path d="M77.5323582,90.0685457 C77.5323582,89.5605126 69.0607164,89.1489033 58.6105672,89.1489033 C48.1598209,89.1489033 39.6881791,89.5605126 39.6881791,90.0685457 C39.6881791,90.5765788 48.1598209,90.9881881 58.6105672,90.9881881 C69.0607164,90.9881881 77.5323582,90.5765788 77.5323582,90.0685457" id="Fill-1" fill-opacity="0.1" fill="#263943"></path>
                    <path d="M30.7273433,90.0685457 C30.7273433,89.5605126 23.9106269,89.1489033 15.5016716,89.1489033 C7.09271642,89.1489033 0.275402985,89.5605126 0.275402985,90.0685457 C0.275402985,90.5765788 7.09271642,90.9881881 15.5016716,90.9881881 C23.9106269,90.9881881 30.7273433,90.5765788 30.7273433,90.0685457" id="Fill-3" fill-opacity="0.1" fill="#263943"></path>
                    <path d="M76.0573134,44.9899781 C76.3152239,45.5263358 76.4871642,46.1615278 76.3414925,47.3770709 C76.3414925,47.3770709 75.9110448,47.5958325 75.7940299,47.100455 C75.7355224,46.8545742 75.8107463,46.3031503 75.4477612,45.3298722 L76.0573134,44.9899781 Z" id="Fill-5" fill="#884E42"></path>
                    <path d="M75.8346269,46.5983881 L76.1265672,46.6556397 C76.1916418,46.4483285 76.2734328,46.1897921 76.3522388,45.9439113 C76.2955224,45.5588185 76.1880597,45.2611099 76.0573134,44.9899179 L76.0197015,45.0116132 L75.8346269,46.5983881 Z" id="Fill-7" fill="#263943"></path>
                    <path d="M76.1500299,45.2065099 C76.2903284,45.5476093 76.3106269,45.9411391 76.2043582,46.3328609 C76.1088358,46.6872185 75.9524179,47.1633113 75.7070448,47.6779735 C75.7070448,47.6779735 75.1530149,47.7960927 75.2682388,47.2332185 C75.3834627,46.6703444 75.7213731,46.4985894 75.4473433,45.330053 L75.4646567,43.837894 C75.7828657,44.373649 76.0079403,44.8623974 76.1500299,45.2065099" id="Fill-9" fill="#884E42"></path>
                    <path d="M76.0293731,44.9263987 C75.8914627,44.6178424 75.704,44.2411868 75.464597,43.8374119 L75.4472836,45.3301735 C75.4562388,45.3657298 75.462209,45.3982728 75.4693731,45.4320212 L75.5911642,45.7676967 L75.8204179,45.7827629 C75.8986269,45.461551 75.9672836,45.1789086 76.0293731,44.9263987" id="Fill-11" fill="#263943"></path>
                    <path d="M72.2991642,41.6129742 C72.2991642,41.6129742 74.4209552,42.5856497 75.2388657,43.5318086 C75.4633433,43.7909477 75.8299104,44.2881331 75.850806,45.4355768 C75.8699104,46.4932258 74.7290149,47.5822126 74.7290149,47.5822126 C74.7290149,47.5822126 74.611403,47.6424775 74.4448358,47.4496298 C74.0627463,47.0078881 75.9063284,46.067153 74.5917015,44.5466695 C73.9146866,43.7638285 73.0496119,44.2146099 73.6209552,45.1993384 C73.7863284,45.484994 74.0370746,45.8911795 74.0484179,45.9086563 C74.3493134,46.3829411 73.8364776,46.8807291 73.4830448,46.4480272 C72.4788657,45.2168152 71.5194627,43.3793384 71.5194627,43.3793384 L70.7946866,42.8719079 L72.2991642,41.6129742 Z" id="Fill-13" fill="#884E42"></path>
                    <path d="M42.3895522,45.3966457 C42.3895522,45.3966457 42.4737313,46.5452947 42.5602985,47.502904 C42.5698507,47.604149 42.5519403,47.7047914 42.5137313,47.798202 L42.0122388,49.0161556 C41.899403,49.2921689 41.7280597,49.5398576 41.5107463,49.743553 L41.4928358,49.7604272 C41.3059701,49.935798 40.9955224,49.8357583 40.9537313,49.5814404 C40.9471642,49.5428709 40.9423881,48.3026192 40.940597,48.2562152" id="Fill-15" fill="#884E42"></path>
                    <path d="M42.8950448,43.9058728 L42.5338507,45.3281245 C42.0866866,47.6236146 41.3953433,48.7794954 41.3953433,48.7794954 L40.5296716,50.6055219 C40.3183284,51.0966808 39.8293731,50.9809722 39.865791,50.4470252 C39.8932537,50.0402371 39.904597,50.0408397 39.904597,50.0408397 C39.904597,50.0408397 39.5929552,49.9353762 39.5075821,49.8931907 C39.3505672,49.8148464 39.2616119,49.6442967 39.2795224,49.4677205 C39.2831045,49.4345748 39.2872836,49.3978132 39.2920597,49.3586411 C39.2920597,49.3586411 39.0884776,49.2833099 39.0150448,49.2489589 C38.8801194,49.1874887 38.7989254,49.0488795 38.8037015,48.8994225 C38.8066866,48.8174623 38.8216119,48.6059325 38.8216119,48.6059325 C38.4831045,48.3811444 38.345791,47.9821907 38.7171343,46.9992702 C39.3010149,45.4528728 40.2281791,43.9908464 40.2281791,43.9908464 L40.5380299,42.9356079" id="Fill-17" fill="#884E42"></path>
                    <path d="M62.6361791,30.282751 L61.7866269,20.2926384 C61.6421493,18.5817179 60.1979701,17.2836119 58.4976716,17.3360424 C56.6254328,17.3938967 55.2015522,19.0554 55.4146866,20.9344596 L56.5257313,30.6340954 C56.710209,32.351645 57.5717015,33.9221483 58.9173731,34.9894397 C63.6343881,38.7294795 67.1621493,41.5034728 69.5943881,43.1041086 C70.2773731,43.5536848 71.4636418,43.3789166 71.4636418,43.3789166 L73.1549851,42.0765921 C73.1549851,42.0765921 73.3054328,41.0424464 72.6863284,40.4446185 L62.6361791,30.282751 Z" id="Fill-19" fill="#FFE480"></path>
                    <path d="M62.3568955,32.0606861 L62.4094328,27.6444742 L60.0010746,28.0247457 L58.9097313,35.0215007 C58.9121194,35.0239113 58.9151045,35.0269245 58.9180896,35.0293351 C60.2261493,36.0658914 63.2357015,38.3577656 64.5121194,39.344302 L62.3568955,32.0606861 Z" id="Fill-21" fill="#263943"></path>
                    <path d="M50.6882985,34.9520755 L50.3103881,37.4042543 C50.2333731,37.9020424 50.2035224,38.4022411 50.2196418,38.8994265 C50.2196418,43.1613603 52.2608358,53.4985987 52.2608358,53.4985987 L39.5235224,82.8735192 L43.467403,84.8984199 L60.7557612,54.7527113 L61.8739701,34.9520755 L50.6882985,34.9520755 Z" id="Fill-23" fill="#3B77BB"></path>
                    <polygon id="Fill-25" fill="#263943" points="52.6635821 44.8451616 57.258209 60.8527245 60.7561194 54.7527113"></polygon>
                    <path d="M50.6882985,34.9520755 L50.3103881,37.4042543 C50.0387463,39.1664 50.2357612,41.0406384 51.2035224,42.5315921 C58.5957612,53.9228636 69.3318806,85.7336914 69.3318806,85.7336914 L72.9396418,84.6284331 L61.8739701,34.9520755 L50.6882985,34.9520755 Z" id="Fill-27" fill="#3B77BB"></path>
                    <path d="M61.8741493,34.9520755 L61.8741493,34.9520755 C62.6837015,34.1354861 63.0592239,32.9784 62.8860896,31.8357775 C62.5141493,29.3793801 62.3780299,19.6140556 61.2777313,18.0586185 C60.8407164,17.4403007 60.0610149,16.4374927 59.2586269,15.427453 C57.7302687,13.5019894 55.0001194,13.0692874 52.9571343,14.424645 C51.4478806,15.4268503 50.4944478,17.087751 50.385194,18.9083536 L49.5947463,32.0400755 C49.5290746,33.1242411 49.9272836,34.1843007 50.6884776,34.9520755" id="Fill-29" fill="#FFE480"></path>
                    <path d="M59.2586866,15.4272119 C59.1022687,15.2301457 58.9297313,15.0523642 58.7500299,14.8872384 L58.7500299,17.8932517 L59.6825672,15.9641722 C59.5434627,15.7863907 59.4013731,15.607404 59.2586866,15.4272119" id="Fill-31" fill="#263943"></path>
                    <path d="M53.4366567,23.0662099 L49.969194,25.8112762 L49.5942687,32.0402563 C49.5733731,32.3952166 49.606209,32.7465609 49.6814328,33.0876603 L49.886806,33.7409318 C49.8921791,33.7523821 49.8969552,33.7650377 49.9023284,33.7764881 L53.4366567,23.0662099 Z" id="Fill-33" fill="#263943"></path>
                    <path d="M52.9573731,14.4249464 L51.3472239,15.426549 C49.5496119,16.5450656 48.1782687,18.2421252 47.4540896,20.2441252 C44.671403,27.939953 40.8427463,38.8882775 40.0188657,42.7964563 C39.9221493,43.2562775 40.1722985,43.9909066 40.1722985,43.9909066 L42.5358806,45.0991781 C42.5358806,45.0991781 43.1866269,44.9045225 43.4039403,44.4362642 L54.0475224,21.750145 L52.9573731,14.4249464 Z" id="Fill-35" fill="#FFE480"></path>
                    <path d="M62.3324179,7.86053179 C61.4649552,6.47443907 60.8422687,3.89510132 60.8422687,3.89510132 L59.7079403,3.80530662 L55.7067463,2.69281656 L54.0476418,5.35592252 L55.1962985,10.7050351 L54.3055522,13.8092801 C54.3055522,13.8092801 56.5485373,17.8928298 58.7503284,17.8928298 L58.8757015,13.7960219 C58.8936119,13.1963861 59.3664478,12.710651 59.9598806,12.6859424 C60.5712239,12.6612338 61.1825672,12.6051874 61.4333134,12.5256377 C61.857791,12.391247 62.1192836,11.9633662 62.057194,11.5180086 L61.6876418,8.74039934 L62.1031642,8.56804172 C62.3795821,8.45353841 62.4918209,8.11484967 62.3324179,7.86053179" id="Fill-37" fill="#884E42"></path>
                    <path d="M47.572,88.3989066 C47.4830448,88.3645556 47.3899104,88.3368338 47.2943881,88.3181517 L45.1099104,87.8830391 C44.8215522,87.8251848 44.5409552,87.7402113 44.2669254,87.6365556 C43.9552836,87.3177543 43.6800597,86.9633967 43.4549851,86.5752907 C43.3260299,86.3523106 43.2561791,86.1070325 43.2394627,85.8593437 L43.2394627,85.8599464 L43.2364776,85.860549 L42.3594627,86.0437543 C41.6442388,86.1926086 40.9111045,85.8942974 40.4985672,85.2862245 L40.0328955,84.5998073 C39.1493134,86.4107675 38.4549851,87.5057808 38.4549851,87.5057808 L41.0490149,88.8298007 L43.7457313,90.2068536 L47.0197612,90.2068536 L48.5009552,90.2068536 C48.653791,89.4583636 48.2788657,88.6737146 47.572,88.3989066" id="Fill-39" fill="#E0E2EF"></path>
                    <path d="M43.4675224,84.8983596 L40.5869254,83.4188563 C40.3875224,83.8630086 40.2203582,84.2167636 40.0328955,84.6000483 L40.4985672,85.2864656 C40.9111045,85.8939358 41.6442388,86.192247 42.3594627,86.0433927 L43.2364776,85.8607901 L43.2394627,85.8601874 C43.2173731,85.5287305 43.290806,85.1918497 43.4675224,84.8983596" id="Fill-41" fill="#884E42"></path>
                    <path d="M72.4268657,84.7853629 L69.3313433,85.7333298 C69.5020896,86.1895351 69.6531343,86.6216344 69.7898507,87.0260119 L70.599403,87.1790848 C71.3170149,87.3140781 72.0441791,87.001906 72.4453731,86.3859987 L72.9379104,85.6308795 L72.9391045,85.6272636 C72.6913433,85.4097073 72.5080597,85.1192305 72.4268657,84.7853629" id="Fill-43" fill="#884E42"></path>
                    <path d="M79.4452537,86.7322205 C79.1186866,86.1283662 78.4619701,85.7848563 77.7849552,85.8638033 L75.5724179,86.1205318 C74.9091343,86.1976709 74.2380896,86.1500616 73.5921194,85.9801146 C73.3455522,85.9150285 73.1246567,85.7908828 72.9389851,85.6275649 L72.9395821,85.6275649 L72.9383881,85.6311808 L72.4452537,86.3863 C72.0446567,87.0016046 71.3168955,87.3143795 70.5998806,87.1787834 L69.7897313,87.0257106 C70.4327164,88.9373132 70.7085373,90.2070947 70.7085373,90.2070947 L79.7109254,87.2239821 L79.4452537,86.7322205 Z" id="Fill-45" fill="#E0E2EF"></path>
                    <path d="M60.3373134,0.0148854305 C58.2220896,-0.196644371 58.0632836,1.91744834 58.0632836,1.91744834 C58.0632836,1.91744834 57.5283582,1.09603775 56.3402985,1.11652781 C54.7277612,1.14485232 54.5689552,3.10768013 54.5689552,3.10768013 L53.3391045,3.7922894 C52.2734328,4.38589868 51.9385075,5.77259404 52.6131343,6.79468675 L55.1964179,10.7046735 C56.4579104,10.8233954 56.8358209,9.3481106 56.8358209,9.3481106 C54.719403,9.3481106 54.0895522,7.39010397 55.198209,6.9218457 C56.3062687,6.45358742 57.0961194,8.12774636 57.0961194,8.12774636 L57.7420896,7.77158079 C57.4710448,6.73803775 57.0453731,5.87805762 56.6823881,5.26998477 C56.4573134,4.89393179 56.759403,4.42024967 57.1916418,4.46846159 C63.1373134,5.1289649 62.6131343,0.242686755 60.3373134,0.0148854305" id="Fill-47" fill="#263943"></path>
                    <path d="M57.0962985,11.7259828 C57.0962985,11.7259828 57.6401791,12.8475126 58.9010746,13.5869629 C59.0091343,13.0873669 59.437791,12.707698 59.9601791,12.6860026 C57.8192836,12.6860026 57.0962985,11.7259828 57.0962985,11.7259828" id="Fill-49" fill="#263943"></path>
                    <path d="M62.3959403,33.1094159 L50.6150448,33.1094159" id="Stroke-51" stroke="#FFBE7A" stroke-width="0.5" stroke-linecap="round" stroke-linejoin="round"></path>
                    <path d="M53.492597,14.9846265 C53.9296119,15.7801232 55.9749851,19.2176331 58.8060299,19.2176331 C60.1403582,19.2176331 60.3791642,18.131057 60.172,16.9637258" id="Stroke-53" stroke="#FFBE7A" stroke-width="0.5" stroke-linecap="round" stroke-linejoin="round"></path>
                    <path d="M43.3690149,42.9342219 L40.812,41.9247848" id="Stroke-55" stroke="#FFBE7A" stroke-width="0.5" stroke-linecap="round" stroke-linejoin="round"></path>
                    <path d="M62.0962985,33.1094159 C62.0300299,33.5873166 61.8049552,34.0935417 61.6610746,34.4575417" id="Stroke-57" stroke="#FFBE7A" stroke-width="0.5" stroke-linecap="round" stroke-linejoin="round"></path>
                    <path d="M61.4672239,33.1094159 C61.4081194,33.5873166 61.2075224,34.0935417 61.0797612,34.4575417" id="Stroke-59" stroke="#FFBE7A" stroke-width="0.5" stroke-linecap="round" stroke-linejoin="round"></path>
                    <path d="M60.8380896,33.1094159 C60.7861493,33.5873166 60.6106269,34.0935417 60.4989851,34.4575417" id="Stroke-61" stroke="#FFBE7A" stroke-width="0.5" stroke-linecap="round" stroke-linejoin="round"></path>
                    <path d="M60.2090149,33.1094159 C60.1642388,33.5873166 60.0143881,34.0935417 59.9182687,34.4575417" id="Stroke-63" stroke="#FFBE7A" stroke-width="0.5" stroke-linecap="round" stroke-linejoin="round"></path>
                    <path d="M59.5793433,33.1094159 C59.5423284,33.5873166 59.4175522,34.0935417 59.3375522,34.4575417" id="Stroke-65" stroke="#FFBE7A" stroke-width="0.5" stroke-linecap="round" stroke-linejoin="round"></path>
                    <path d="M58.9502687,33.1094159 C58.9204179,33.5873166 58.8201194,34.0935417 58.7568358,34.4575417" id="Stroke-67" stroke="#FFBE7A" stroke-width="0.5" stroke-linecap="round" stroke-linejoin="round"></path>
                    <path d="M58.321194,33.1094159 C58.2991045,33.5873166 58.2238806,34.0935417 58.1755224,34.4575417" id="Stroke-69" stroke="#FFBE7A" stroke-width="0.5" stroke-linecap="round" stroke-linejoin="round"></path>
                    <path d="M57.6915224,33.1094159 C57.677194,33.5873166 57.6270448,34.0935417 57.594806,34.4575417" id="Stroke-71" stroke="#FFBE7A" stroke-width="0.5" stroke-linecap="round" stroke-linejoin="round"></path>
                    <path d="M57.0624478,33.1094159 C57.0546866,33.5873166 57.0296119,34.0935417 57.0140896,34.4575417" id="Stroke-73" stroke="#FFBE7A" stroke-width="0.5" stroke-linecap="round" stroke-linejoin="round"></path>
                    <path d="M56.4333731,33.1094159 L56.4333731,34.4575417" id="Stroke-75" stroke="#FFBE7A" stroke-width="0.5" stroke-linecap="round" stroke-linejoin="round"></path>
                    <path d="M55.8042985,33.1094159 C55.8114627,33.5873166 55.8365373,34.0935417 55.8526567,34.4575417" id="Stroke-77" stroke="#FFBE7A" stroke-width="0.5" stroke-linecap="round" stroke-linejoin="round"></path>
                    <path d="M55.1746269,33.1094159 C55.1895522,33.5873166 55.2397015,34.0935417 55.2713433,34.4575417" id="Stroke-79" stroke="#FFBE7A" stroke-width="0.5" stroke-linecap="round" stroke-linejoin="round"></path>
                    <path d="M54.5455522,33.1094159 C54.5676418,33.5873166 54.6428657,34.0935417 54.6906269,34.4575417" id="Stroke-81" stroke="#FFBE7A" stroke-width="0.5" stroke-linecap="round" stroke-linejoin="round"></path>
                    <path d="M53.9164776,33.1094159 C53.9457313,33.5873166 54.0460299,34.0935417 54.1099104,34.4575417" id="Stroke-83" stroke="#FFBE7A" stroke-width="0.5" stroke-linecap="round" stroke-linejoin="round"></path>
                    <path d="M53.286806,33.1094159 C53.3238209,33.5873166 53.449194,34.0935417 53.529194,34.4575417" id="Stroke-85" stroke="#FFBE7A" stroke-width="0.5" stroke-linecap="round" stroke-linejoin="round"></path>
                    <path d="M52.6577313,33.1094159 C52.7019104,33.5873166 52.8523582,34.0935417 52.9484776,34.4575417" id="Stroke-87" stroke="#FFBE7A" stroke-width="0.5" stroke-linecap="round" stroke-linejoin="round"></path>
                    <path d="M52.0286567,33.1094159 C52.080597,33.5873166 52.2555224,34.0935417 52.3671642,34.4575417" id="Stroke-89" stroke="#FFBE7A" stroke-width="0.5" stroke-linecap="round" stroke-linejoin="round"></path>
                    <path d="M51.3989851,33.1094159 C51.4586866,33.5873166 51.6592836,34.0935417 51.7864478,34.4575417" id="Stroke-91" stroke="#FFBE7A" stroke-width="0.5" stroke-linecap="round" stroke-linejoin="round"></path>
                    <path d="M50.7699104,33.1094159 C50.8361791,33.5873166 51.0618507,34.0935417 51.2057313,34.4575417" id="Stroke-93" stroke="#FFBE7A" stroke-width="0.5" stroke-linecap="round" stroke-linejoin="round"></path>
                    <path d="M39.0132537,47.5029642 C38.9195224,47.8229709 38.743403,48.5425338 38.743403,48.5425338" id="Stroke-95" stroke="#AA5840" stroke-width="0.5" stroke-linecap="round" stroke-linejoin="round"></path>
                    <path d="M39.578806,47.8584066 C39.4576119,48.4333338 39.2164179,49.2951219 39.2164179,49.2951219" id="Stroke-97" stroke="#AA5840" stroke-width="0.5" stroke-linecap="round" stroke-linejoin="round"></path>
                    <path d="M40.3308657,48.2450662 C40.1899701,48.8826689 39.8287761,49.9776821 39.8287761,49.9776821" id="Stroke-99" stroke="#AA5840" stroke-width="0.5" stroke-linecap="round" stroke-linejoin="round"></path>
                    <path d="M41.8648358,47.6824331 C41.6403582,48.4212808 41.4743881,48.7997444 41.4743881,48.7997444 L41.0564776,49.6808172" id="Stroke-101" stroke="#AA5840" stroke-width="0.5" stroke-linecap="round" stroke-linejoin="round"></path>
                    <path d="M60.5920597,7.01308675 C60.5956418,7.19147086 60.4929552,7.33851722 60.3616119,7.34153046 C60.2314627,7.34454371 60.122209,7.20171589 60.1180299,7.02393444 C60.1138507,6.84555033 60.2171343,6.69850397 60.3478806,6.69549073 C60.4792239,6.69247748 60.5878806,6.83470265 60.5920597,7.01308675" id="Fill-103" fill="#263943"></path>
                    <path d="M60.8725373,6.27387748 C60.138209,6.04728146 59.5292537,6.5384404 59.5292537,6.5384404" id="Stroke-105" stroke="#884E42" stroke-width="0.5" stroke-linecap="round" stroke-linejoin="round"></path>
                    <path d="M61.8939701,10.2928834 C61.8939701,10.2928834 61.0587463,10.2928834 60.6193433,9.94877086 L61.8133731,9.68722119 L61.8939701,10.2928834 Z" id="Fill-107" fill="#FFFFFF"></path>
                    <path d="M38.8680597,45.7150252 L40.4913433,46.3405748 C40.6185075,46.3863762 40.758209,46.324906 40.8113433,46.2001576 C40.8113433,46.2001576 39.1522388,45.2558066 38.5653731,45.0141444" id="Fill-109" fill="#894E42"></path>
                    <path d="M39.0191045,46.0722755 L40.7450746,47.0624278 C40.8692537,47.1335404 41.0262687,47.0943682 41.1038806,46.9738384 L39.1683582,45.4744477" id="Fill-111" fill="#894E42"></path>
                    <path d="M39.2458507,46.2040748 L40.7479403,47.7281742 C40.855403,47.8378563 41.0291343,47.8438828 41.1443582,47.7420351 L39.4303284,45.4405185 C38.8774925,45.1379887 38.5652537,45.013843 38.5652537,45.013843" id="Fill-113" fill="#894E42"></path>
                    <path d="M38.5654925,45.0140841 L39.4920597,45.9590377 C39.8019104,46.2754285 40.0389254,46.6569053 40.2132537,47.0745411 L40.8132537,48.453402 C40.6777313,48.5263225 40.5105672,48.4805212 40.4299701,48.3485411 L39.8323582,47.3674285 C39.5565373,46.9106205 39.0860896,46.540594 38.5917612,46.3405146 L37.1147463,45.7432894 L38.5654925,45.0140841 Z" id="Fill-115" fill="#894E42"></path>
                    <path d="M35.4935522,44.4444 C35.5890746,44.1123404 35.9484776,43.9369695 36.2654925,44.0677444 L38.565791,45.0139033 L38.8678806,45.7147841 L37.962806,46.0998768 C37.7699701,46.1824397 37.7084776,46.4289232 37.842209,46.5922411 C37.9431045,46.7163868 38.084597,46.8495722 38.2756418,46.9496119 L38.9687761,47.3124066 C39.1293731,47.3961748 39.2135522,47.5787775 39.1747463,47.7571616 L37.5448955,47.255155 C37.1383284,47.129804 36.7890746,46.8622278 36.5604179,46.5006384 L35.5616119,44.9198901 C35.4720597,44.7788702 35.4475821,44.6059099 35.4935522,44.4444" id="Fill-117" fill="#894E42"></path>
                    <path d="M18.1241194,25.4909682 C16.5700896,25.2661801 15.1957612,24.1928623 14.6972537,22.814604 C14.1981493,21.4363457 14.5969552,19.8152199 15.6918806,18.7720344 C16.786209,17.7282464 18.5277015,17.3094053 20.0345672,17.7264384 L22.5342687,20.1936834 L21.3336716,23.8246437 L20.6584478,24.8895245 L18.1241194,25.4909682 Z" id="Fill-119" fill="#263943"></path>
                    <path d="M29.240597,36.123806 L28.3773134,27.3673159 C28.2829851,26.4187464 27.7808955,25.5599715 27.0029851,25.0193954 L23.4752239,22.5672166 L22.7719403,24.8464351 C22.4907463,25.7588457 22.5074627,26.738753 22.8197015,27.6403159 L25.9289552,36.6179781 C26.1749254,37.3297066 26.6077612,37.9600775 27.1802985,38.4440046 L35.7940299,45.7179781 L37.1074627,44.2595675 L29.240597,36.123806 Z" id="Fill-121" fill="#BBD8F9"></path>
                    <path d="M25.9290746,36.6182192 C26.1302687,37.1991728 26.4568358,37.7240801 26.8807164,38.1616033 L27.0586269,30.722504 L24.7165373,33.1162258 L25.9290746,36.6182192 Z" id="Fill-123" fill="#263943"></path>
                    <path d="M27.400597,16.623651 C27.1140299,15.8631079 26.2895522,13.6700682 26.0746269,13.2349556 L25.8077612,12.2592669 L23.5498507,11.651194 L19.4841791,12.7654921 L19.0155224,19.115002 L19.601194,20.7216642 C19.9002985,21.5424722 19.5265672,22.4572934 18.7414925,22.8267172 L18.9826866,26.3925914 L25.201194,26.3925914 L25.201194,25.0613397 L24.2537313,23.2178364 C23.918806,22.5657702 23.9152239,21.8016113 24.0561194,21.1411079 C24.1970149,20.4793993 24.7701493,20.0014987 25.438806,19.9532868 L25.9379104,19.9177305 C26.4585075,19.8803662 26.8567164,19.432598 26.8364179,18.9058828 L26.6967164,17.147353 L27.2262687,16.9828298 C27.3767164,16.9358232 27.4567164,16.7719026 27.400597,16.623651" id="Fill-125" fill="#884E42"></path>
                    <path d="M26.7044776,27.984549 L25.201194,25.0610987 C22.5343284,26.3923503 19.84,25.0803834 18.7414925,22.8264762 L17.3910448,23.4616682 C15.7504478,24.2330589 14.9247761,26.1072974 15.4543284,27.8537742 L17.7170149,35.3127609 L17.1814925,36.1528536 C16.9014925,36.5909795 16.8823881,37.1496351 17.1319403,37.6070457 L17.8710448,38.963006 L25.239403,38.963006 L27.0585075,30.7223834 C27.2632836,29.7961119 27.1379104,28.8264497 26.7044776,27.984549" id="Fill-127" fill="#BBD8F9"></path>
                    <path d="M29.7606567,88.7802629 L25.9994627,87.7828788 C25.2161791,87.4749252 24.7869254,86.5625146 24.8543881,85.7163954 L25.2394627,81.213402 L22.5546866,81.213402 L22.5546866,90.2067331 L30.7272239,90.2067331 C30.7272239,89.575157 30.3439403,89.0086669 29.7606567,88.7802629" id="Fill-129" fill="#884E42"></path>
                    <path d="M30.7273433,90.2068536 C30.7273433,89.5752775 30.3434627,89.0087874 29.7607761,88.7803834 L27.154806,88.0903503 C26.6324179,88.6176682 25.9237612,88.9135689 25.1852537,88.9135689 L22.554806,88.9135689 L22.554806,90.2068536 L30.7273433,90.2068536 Z" id="Fill-131" fill="#FFD4C3"></path>
                    <path d="M1.34477612,81.982804 L1.34477612,86.1236053 C1.34477612,86.8238834 1.77104478,87.453049 2.41820896,87.7073669 L3.39432836,88.0906517 L3.39432836,85.9620954 C3.39432836,84.7254596 3.81104478,83.5255854 4.57522388,82.5589364 L6.32328358,80.3514331 L3.96328358,78.6754662 L1.34477612,81.982804 Z" id="Fill-133" fill="#884E42"></path>
                    <g id="Group-137" transform="translate(0.000000, 81.948815)">
                        <polygon id="Clip-136" points="0 0.0588788079 6.11671642 0.0588788079 6.11671642 8.25791854 0 8.25791854"></polygon>
                        <path d="M5.15014925,6.83144834 L3.39432836,6.14141523 L2.41820896,5.75873311 C1.77104478,5.50441523 1.34477612,4.87524967 1.34477612,4.17497152 L1.34477612,0.0588788079 L-0.000298507463,1.7595543 L-0.000298507463,5.13679934 C-0.000298507463,6.30774636 0.46119403,7.42987881 1.28089552,8.25791854 L6.11671642,8.25791854 C6.11671642,7.62634238 5.73343284,7.05985232 5.15014925,6.83144834" id="Fill-135" fill="#FFD4C3"></path>
                    </g>
                    <path d="M15.8515224,24.1856305 C14.9936119,24.5894053 14.2867463,25.2607563 13.836,26.100849 L9.41152239,34.3420742 C9.01331343,35.0833325 8.82167164,35.9198093 8.85570149,36.7623126 L9.31301493,47.9522993 L11.2658507,47.9522993 L11.9368955,36.6032132 L18.7715224,28.9513788 L18.7416716,22.826657 L15.8515224,24.1856305 Z" id="Fill-138" fill="#BBD8F9"></path>
                    <path d="M24.2983284,11.1974596 C21.3807164,9.36480397 15.9962388,12.3467113 18.7054925,18.2653272 L18.7413134,22.8267775 C22.0875821,23.7319563 23.5902687,19.1813536 21.9741493,16.6279298 C23.6750448,15.8330358 24.525791,14.3450954 24.1777313,12.9089828 C25.5580299,13.6062477 27.5031045,13.3338503 27.5031045,11.6476384 C27.5031045,10.2097179 25.3669851,9.66371788 24.2983284,11.1974596" id="Fill-140" fill="#263943"></path>
                    <polygon id="Fill-142" fill="#263943" points="18.7712836 28.9514993 17.0059104 32.9687576 16.5444179 31.4452609"></polygon>
                    <path d="M23.0355224,19.3191192 L24.2970149,20.5931192 C24.5346269,20.2598543 24.9035821,20.0296424 25.3197015,19.9669669 C24.9961194,19.9928808 24.0546269,19.9952914 23.0355224,19.3191192" id="Fill-144" fill="#263943"></path>
                    <path d="M26.2234627,41.3016457 L25.2395821,38.9627649 L17.8712239,38.9627649 L15.9864478,42.6895464 C14.7619701,45.1091821 14.1816716,47.808447 14.3016716,50.5221755 L14.7589851,60.8407318 L3.02764179,78.0108046 L6.32316418,80.3514934 L17.0007761,66.8624007 C18.0849552,65.4925795 18.8915224,63.9208709 19.3727164,62.2358642 C19.8473433,60.5779768 20.4998806,58.2680232 21.1816716,55.7694404 L21.1804776,55.7742616 L21.6240597,81.2138841 L25.2395821,81.2138841 L27.6825672,50.3751291 C27.9285373,47.2763079 27.4282388,44.1630232 26.2234627,41.3016457" id="Fill-146" fill="#3B77BB"></path>
                    <path d="M21.1745075,55.7952338 C21.1768955,55.786194 21.1792836,55.7783596 21.1816716,55.7693199 L21.1804776,55.7741411 L21.2557015,60.0879026 C23.8652537,53.3376311 23.3798806,47.2623265 23.3798806,47.2623265 C22.7213731,50.2279623 22.117194,52.3384391 21.1745075,55.7952338" id="Fill-148" fill="#263943"></path>
                    <path d="M24.0266269,31.7917238 C22.9161791,32.6715914 21.4791642,32.902406 20.2218507,32.4028099" id="Stroke-150" stroke-opacity="0.3" stroke="#4A90E2" stroke-width="0.5" stroke-linecap="round" stroke-linejoin="round"></path>
                    <path d="M25.7296716,26.1389364 C24.8568358,26.5746517 23.9290746,26.7946185 23.0102687,26.7946185 C22.3869851,26.7946185 21.7678806,26.6933735 21.1720597,26.4890755 C20.0437015,26.1021748 19.0442985,25.3639298 18.3111642,24.3960755" id="Stroke-152" stroke-opacity="0.3" stroke="#4A90E2" stroke-width="0.5" stroke-linecap="round" stroke-linejoin="round"></path>
                    <path d="M10.8829851,53.4876305 C10.8035821,53.4876305 10.7128358,53.4267629 10.6949254,53.2562132 C10.6585075,52.9187298 10.6173134,52.6324715 10.5773134,52.355253 C10.5504478,52.1708424 10.4943284,51.7399483 10.4453731,51.3602795 C10.441194,51.331955 10.4173134,51.3108623 10.3892537,51.3108623 L10.3862687,51.3108623 C10.3570149,51.3126702 10.3337313,51.3361735 10.3325373,51.3657033 C10.3098507,52.1575841 10.2901493,53.1459285 10.2901493,53.1567762 C10.2877612,53.265253 10.2173134,53.3140675 10.1480597,53.3140675 C10.0620896,53.3140675 9.97134328,53.2465709 9.96119403,53.0965113 C9.92895522,52.6294583 9.90268657,51.9014583 9.88656716,51.3735377 C9.88537313,51.3434053 9.86268657,51.319902 9.83343284,51.318094 L9.82985075,51.318094 C9.80238806,51.318094 9.77791045,51.3391868 9.77492537,51.366306 L9.60059701,52.5740146 C9.58925373,52.6734517 9.51343284,52.7180477 9.44776119,52.7180477 C9.40477612,52.7180477 9.36537313,52.7005709 9.33850746,52.6716437 C9.3080597,52.6378954 9.29492537,52.5884781 9.30029851,52.5276106 C9.31880597,52.3136702 9.31462687,51.9846238 9.30925373,51.5669881 C9.29850746,50.6696437 9.40835821,47.9516967 9.40835821,47.9516967 L11.0250746,47.9516967 C11.0250746,47.9516967 11.2913433,48.2524185 11.5970149,48.7502066 C11.84,49.1425311 11.9802985,49.398657 12.0608955,49.853657 C12.1098507,50.1320808 12.2716418,50.9655444 12.2716418,50.9655444 C12.0602985,50.9643391 11.919403,50.9257695 11.8489552,50.7196636 L11.5916418,49.9000609 C11.4238806,49.9115113 11.3050746,50.0380675 11.3110448,50.1953589 C11.321791,50.4996967 11.3964179,50.9516834 11.4835821,51.4747828 C11.5570149,51.920743 11.6376119,52.4082861 11.7020896,52.9229483 C11.7092537,52.9802 11.6949254,53.0326305 11.6620896,53.0705974 C11.6322388,53.103743 11.5880597,53.1242331 11.5450746,53.1242331 C11.4692537,53.1242331 11.4113433,53.0651735 11.3904478,52.9657364 L11.3014925,52.5444848 C11.2519403,52.308849 11.1295522,51.7809285 11.0244776,51.3295444 C11.0185075,51.3036305 10.9952239,51.2861536 10.9695522,51.2861536 C10.9665672,51.2861536 10.9635821,51.2861536 10.960597,51.2867563 C10.9313433,51.2909748 10.9110448,51.318094 10.9134328,51.3476238 C10.9647761,51.9430411 11.0316418,52.7560146 11.0591045,53.2477762 C11.0650746,53.3460079 11.0310448,53.4032596 11.001791,53.4345974 C10.9701493,53.4689483 10.9277612,53.4876305 10.8829851,53.4876305" id="Fill-154" fill="#894E42"></path>
                    <polygon id="Fill-156" fill="#723E36" points="26.7301493 17.5699907 25.4710448 17.8731232 26.7874627 18.2877457 26.758806 17.9273616"></polygon>
                    <path d="M25.7383881,15.8603358 C25.7419701,16.0248589 25.6464478,16.1616603 25.5252537,16.1640709 C25.4034627,16.1670841 25.3031642,16.035104 25.2995821,15.8699781 C25.295403,15.7048523 25.3909254,15.5686536 25.5121194,15.566243 C25.6333134,15.5632298 25.734806,15.6952099 25.7383881,15.8603358" id="Fill-158" fill="#263943"></path>
                    <path d="M25.7383881,15.8603358 C25.7419701,16.0248589 25.6464478,16.1616603 25.5252537,16.1640709 C25.4034627,16.1670841 25.3031642,16.035104 25.2995821,15.8699781 C25.295403,15.7048523 25.3909254,15.5686536 25.5121194,15.566243 C25.6333134,15.5632298 25.734806,15.6952099 25.7383881,15.8603358 Z" id="Stroke-160" stroke="#263943" stroke-width="0.5" stroke-linecap="round" stroke-linejoin="round"></path>
                    <path d="M25.8509254,15.2947497 C25.2222687,14.9681139 24.9207761,15.6087298 24.594209,15.4279351" id="Stroke-162" stroke="#723E36" stroke-width="0.5" stroke-linecap="round" stroke-linejoin="round"></path>
                    <path d="M26.1511642,14.5926636 C25.6371343,14.3160477 25.0007164,14.3588358 24.5398209,14.6420808 L24.4353433,14.4359748 C24.9935522,14.1617695 25.6753433,14.1840675 26.1977313,14.5221536 L26.1511642,14.5926636 Z" id="Fill-164" fill="#263943"></path>
                </g>
            </g>
        </g>
    </g>
</svg>