<?xml version="1.0" encoding="UTF-8"?>
<svg width="212px" height="225px" viewBox="0 0 212 225" version="1.1" xmlns="http://www.w3.org/2000/svg" xmlns:xlink="http://www.w3.org/1999/xlink">
    <!-- Generator: Sketch 53 (72520) - https://sketchapp.com -->
    <title>img-price-plant</title>
    <desc>Created with Sketch.</desc>
    <defs>
        <path d="M15.6545667,5.14568421 C7.14035,3.90712281 1.35278333,9.35810526 0.110783333,10.6561053 L0.110783333,10.6561053 C2.06271667,8.70235088 6.01986667,8.49894737 15.9524167,20.1508421 L15.9524167,20.1508421 C21.4827667,26.6392982 27.4784833,26.3876491 34.3604667,26.136386 L34.3604667,26.136386 C43.33545,25.8087018 53.81885,25.4810175 66.74715,40.0990526 L66.74715,40.0990526 C67.7825333,41.1033333 68.4993667,42.239614 68.8294167,43.5414737 L68.8294167,43.5414737 C62.8804667,19.436807 49.0659,3.58522807 33.47995,0.705157895 L33.47995,0.705157895 C31.75265,0.386350877 30.1553,0.249719298 28.6848333,0.249719298 L28.6848333,0.249719298 C19.8858,0.250105263 15.6545667,5.14568421 15.6545667,5.14568421 M68.8505,43.626 C68.8436,43.5978246 68.8367,43.5696491 68.8294167,43.5414737 L68.8294167,43.5414737 C68.8363167,43.5696491 68.8436,43.5978246 68.8505,43.626" id="path-1"></path>
    </defs>
    <g id="Page-1" stroke="none" stroke-width="1" fill="none" fill-rule="evenodd">
        <g id="SnapScan-Assets" transform="translate(-59.000000, -4204.000000)">
            <g id="img-price-plant" transform="translate(59.000000, 4204.000000)">
                <g id="Group-20" transform="translate(62.000000, 210.000000)">
                    <path d="M70,2.5 C70,3.88065626 54.3300403,5 35,5 C15.6699597,5 0,3.88065626 0,2.5 C0,1.11868219 15.6699597,0 35,0 C54.3300403,0 70,1.11868219 70,2.5" id="Fill-1" fill="#DCE6F2" opacity="0.421930804"></path>
                    <g id="Group-3"></g>
                </g>
                <g id="Group-67" transform="translate(0.000000, 2.000000)">
                    <g id="Group-11" transform="translate(17.000000, 91.000000)">
                        <path d="M50.1274955,20.4351531 C50.1274955,20.4351531 67.1532269,28.2768331 70.9585403,35.8114617 C72.3873761,38.6411589 73.2799134,39.9371303 73.8371672,41.0409074 C66.7651672,30.6283417 33.4506299,32.9205074 22.5647791,21.4248389 L50.1274955,20.4351531 Z" id="Fill-1" fill="#2D571D"></path>
                        <path d="M77.6408896,66.724228 C77.6408896,58.6099537 76.9082328,47.3126051 73.5561731,40.4422337" id="Stroke-3" stroke="#2D571D" stroke-width="1.141" stroke-linecap="round"></path>
                        <path d="M5.15688657,10.5702263 C5.15688657,10.5702263 7.82285672,7.56058629 16.2084388,9.27195771 C25.3503493,11.1380034 22.1996925,12.9672949 22.1996925,12.9672949 C12.4586179,12.9672949 0.407035821,23.1355977 0.407035821,23.1355977 C0.407035821,23.1355977 -0.494426866,17.3682377 5.15688657,10.5702263" id="Fill-5" fill="#2D571D"></path>
                        <path d="M20.8922806,5.10444286 C20.8922806,5.10444286 26.725594,-1.51056286 38.9374448,0.699671429 C54.734191,3.55961429 68.7330567,19.3172486 74.7441015,43.2745343 C74.4200716,41.9479343 73.6854746,40.7940029 72.6148179,39.7763686 C49.4911164,14.1563343 34.0940716,34.8168371 21.194191,19.98878 C11.1387881,8.43070571 7.1324597,8.63247143 5.15684776,10.5701114 C6.41454925,9.28294571 12.2730866,3.87547143 20.8922806,5.10444286" id="Fill-7" fill="#61B446"></path>
                        <path d="M21.1941134,19.9887417 C21.2829791,20.0909646 21.3726209,20.1855303 21.4618746,20.2839246 C21.3815463,20.1882103 21.2946209,20.0901989 21.1941134,19.9887417" id="Fill-9" fill="#44832C"></path>
                    </g>
                    <g id="Group-14" transform="translate(23.000000, 91.000000)">
                        <mask id="mask-2" fill="white">
                            <use xlink:href="#path-1"></use>
                        </mask>
                        <g id="Clip-13"></g>
                        <path d="M68.8698583,43.6978667 C68.8698583,43.6978667 60.2969917,15.1700421 15.4397083,4.86670877 L11.7919083,3.88365614" id="Stroke-12" stroke="#2D571D" stroke-width="1.141" stroke-linecap="round" mask="url(#mask-2)"></path>
                    </g>
                    <g id="Group-22" transform="translate(0.000000, 51.000000)">
                        <path d="M75.4039222,20.808036 C85.7514778,42.5336547 97.7603667,80.6025612 97.7603667,106.722878" id="Stroke-15" stroke="#2D571D" stroke-width="1.141" stroke-linecap="round"></path>
                        <g id="Group-19" transform="translate(0.000000, 3.464029)">
                            <polygon id="Clip-18" points="0 0.244162651 37.9694778 0.244162651 37.9694778 41.5365532 0 41.5365532"></polygon>
                            <path d="M-7.77777778e-05,41.5365532 C6.12414444,30.9689561 -3.38613333,-7.18193237 37.9694778,1.5250964 C28.1084222,8.8399705 16.1395889,22.3258194 -7.77777778e-05,41.5365532" id="Fill-17" fill="#61B446"></path>
                        </g>
                        <path d="M32.2346111,8.12387878 C36.1087222,5.11748669 43.1666667,-0.145142806 53.9847778,0.384853597 C69.8448333,1.16195072 75.6388889,20.3422781 78.0387222,26.4077924 L77.7556111,26.4997817 C72.6308333,14.1774615 62.1961667,5.31724568 21.1621667,31.6785047 C11.7685556,37.7136126 0,45.0007745 0,45.0007745 C13.8755556,28.485055 23.5320556,15.9614363 32.2346111,8.12387878" id="Fill-20" fill="#2D571D"></path>
                    </g>
                    <g id="Group-29" transform="translate(8.000000, 0.000000)">
                        <path d="M7.26586596,5.66098585 C-2.26551277,11.2160346 0.37697234,21.9303615 0.37697234,21.9303615 C10.7118617,6.39433707 37.785717,9.87997122 48.6952617,11.40602 C45.2717255,9.38708829 20.1882532,-1.86983366 7.26586596,5.66098585" id="Fill-23" fill="#2D571D"></path>
                        <path d="M80.3776668,12.4398795 C59.5243391,-8.04655463 35.7690796,2.96835756 35.7690796,2.96835756 L33.4971774,2.31362098 C24.6647562,-0.23249122 15.1670668,0.979869756 7.2659434,5.66090878 C7.2659434,5.66090878 21.6400711,-2.86646683 43.1075519,29.0002063 C52.0921562,42.3365624 75.5066498,49.3463673 81.7411179,52.3387332 C81.7411179,52.3387332 98.9106881,30.64726 80.3776668,12.4398795" id="Fill-25" fill="#61B446"></path>
                        <path d="M35.8349868,2.75644488 C74.7678847,14.0873571 90.8810804,40.7889717 90.8810804,157.72246" id="Stroke-27" stroke="#2D571D" stroke-width="1.141" stroke-linecap="round"></path>
                    </g>
                    <g id="Group-39" transform="translate(100.000000, 28.000000)">
                        <g id="Group-32" transform="translate(63.906645, 7.747748)">
                            <polygon id="Clip-31" points="0.320996149 0.057681982 38.1738261 0.057681982 38.1738261 39.8609613 0.320996149 39.8609613"></polygon>
                            <path d="M0.320996149,0.057681982 C19.2473726,11.0064117 35.508149,39.8609613 35.508149,39.8609613 C35.508149,39.8609613 41.5061341,26.2260874 35.508149,18.1048982 C26.3117518,5.65194324 0.320996149,0.057681982 0.320996149,0.057681982" id="Fill-30" fill="#2D571D"></path>
                        </g>
                        <path d="M8.64768554,33.9737189 C9.64747806,7.62479099 20.2521314,0.297745946 40.8362308,0.297745946 C54.0314131,0.297745946 64.2276029,7.80531351 64.2276029,7.80531351 C64.2276029,7.80531351 86.6195674,6.72256577 99.4151407,25.8525297 C99.4151407,25.8525297 83.2979618,12.5345387 67.2527741,17.5883946 C45.3639781,24.4827279 39.6366338,11.4149892 8.64768554,33.9737189" id="Fill-33" fill="#61B446"></path>
                        <path d="M51.6302942,8.32181712 C34.1741555,10.4598081 17.0760481,17.5509342 8.64768554,33.9738351 C0.508827789,49.8327 0.00103944543,92.9272225 0.00103944543,128.721042" id="Stroke-35" stroke="#2D571D" stroke-width="1.141" stroke-linecap="round"></path>
                        <path d="M8.64768554,33.9737189 C19.1122062,13.5831964 42.9420703,7.57752973 64.2276029,7.57752973" id="Stroke-37" stroke="#2D571D" stroke-width="1.141" stroke-linecap="round"></path>
                    </g>
                    <g id="Group-48" transform="translate(100.000000, 65.000000)">
                        <path d="M50.5027569,14.393362 C48.3394236,14.1580397 43.9455347,12.4689653 41.4472361,14.4405025 C49.2763333,20.9109157 52.7799097,28.3252793 52.7799097,28.3252793 C52.7799097,28.3252793 54.4031736,24.7209322 54.7591458,21.1720893 C55.0799792,17.9703372 54.3695625,14.8138248 50.5027569,14.393362" id="Fill-40" fill="#2D571D"></path>
                        <path d="M54.7597187,21.1724694 C55.9704826,10.1461554 47.5558646,2.70441983 32.5473576,6.47527934 C32.5473576,6.47527934 27.9540937,0.791047934 21.5473576,0.225742149 C10.2395104,-0.77181157 5.43808681,13.8877421 6.21572569,30.5397421 C6.43572569,35.2469488 7.42305208,40.3829818 7.42305208,40.3829818 C21.710066,28.1401388 39.1897535,13.1627669 50.502566,14.393362 C54.3693715,14.8138248 55.0801701,17.9703372 54.7593368,21.1720893 L54.7589549,21.1728496 L54.7597187,21.1724694 Z" id="Fill-42" fill="#61B446"></path>
                        <path d="M0.000878472222,91.7261669 C0.000878472222,45.7626628 15.6510521,10.3970264 32.5475104,6.27033223" id="Stroke-44" stroke="#2D571D" stroke-width="1.141" stroke-linecap="round"></path>
                        <path d="M0.000878472222,87.7118116 C0.000878472222,66.4168529 3.36007986,51.4117289 8.64619097,36.7187207" id="Stroke-46" stroke="#2D571D" stroke-width="1.141" stroke-linecap="round"></path>
                    </g>
                    <g id="Group-59" transform="translate(102.000000, 102.000000)">
                        <path d="M2.93701227,31.6129747 C2.945,31.5806962 2.9533681,31.5487975 2.96135583,31.516519 C2.9545092,31.545 2.945,31.5731013 2.93815337,31.6015823 L2.93701227,31.6129747 Z" id="Fill-49" fill="#61B446"></path>
                        <path d="M11.2141264,19.965038 C6.76077669,27.1638987 0.118408589,41.1192152 0.118408589,54.7897215" id="Stroke-51" stroke="#2D571D" stroke-width="1.141" stroke-linecap="round"></path>
                        <path d="M19.2709313,19.0739241 C15.3694957,18.4963291 12.378281,18.7473418 9.68489448,22.9678481 C0.0760355828,8.37987342 11.9575939,5.19075949 19.2709313,19.0739241" id="Fill-53" fill="#2D571D"></path>
                        <path d="M60.1539975,12.535519 C54.0677276,-5.59739241 34.6491755,0.0931139241 31.5579239,4.91589873 C19.9392,-0.65878481 7.58142086,5.91767089 6.27029202,12.714 C7.25468466,8.1296962 14.2991018,9.63539241 19.2708933,19.074 C30.205335,39.830962 43.9236908,54.4914684 51.6257644,59.6237468 C51.6257644,59.6237468 66.5803166,31.6812152 60.1539975,12.535519" id="Fill-55" fill="#61B446"></path>
                        <path d="M60.1539975,12.535519 C54.0677276,-5.59739241 34.6491755,0.0931139241 31.5579239,4.91589873 C19.9392,-0.65878481 7.58142086,5.91767089 6.27029202,12.714 C7.25468466,8.1296962 14.2991018,9.63539241 19.2708933,19.074 C30.205335,39.830962 43.9236908,54.4914684 51.6257644,59.6237468 C51.6257644,59.6237468 66.5803166,31.6812152 60.1539975,12.535519" id="Fill-57" fill="#61B446"></path>
                    </g>
                    <g id="Group-62" transform="translate(108.000000, 102.000000)">
                        <path d="M25.5108571,4.91582278 C13.8746667,-0.658860759 1.49752381,5.91797468 0.184761905,12.7139241 L0.184761905,12.7139241 C1.17066667,8.12962025 8.22590476,9.6356962 13.2053333,19.0739241 L13.2053333,19.0739241 C24.1565714,39.8308861 37.896,54.4913924 45.6099048,59.6240506 L45.6099048,59.6240506 C45.6099048,59.6240506 60.5874286,31.6811392 54.1512381,12.535443 L54.1512381,12.535443 C50.9721905,3.07936709 44.1615238,0.102151899 37.9329524,0.101772152 L37.9329524,0.101772152 C32.2175238,0.101772152 26.9927619,2.60810127 25.5108571,4.91582278" id="Clip-61"></path>
                        <path d="M25.5663619,4.69249367 C45.6650286,17.2313544 38.8635048,44.3642658 45.6097905,59.6236329 L46.4147429,61.3078101" id="Stroke-60" stroke="#2D571D" stroke-width="1.141" stroke-linecap="round"></path>
                    </g>
                    <polygon id="Fill-63" fill="#FF9A71" points="68 160 74.6882562 210 121.311744 210 128 160"></polygon>
                    <polygon id="Fill-64" fill="#C37053" points="127.911029 172 129 164 69 164 70.088971 172"></polygon>
                    <path d="M63,164 L134,164 L131.412354,156.317847 C130.94754,154.938176 129.58234,154 128.038987,154 L68.9610126,154 C67.417275,154 66.0520754,154.938176 65.5876459,156.317847 L63,164 Z" id="Fill-65" fill="#FF9A71"></path>
                </g>
            </g>
        </g>
    </g>
</svg>