<?xml version="1.0" encoding="UTF-8"?>
<svg width="360px" height="215px" viewBox="0 0 360 215" version="1.1" xmlns="http://www.w3.org/2000/svg" xmlns:xlink="http://www.w3.org/1999/xlink">
    <!-- Generator: Sketch 53 (72520) - https://sketchapp.com -->
    <title>img-about-1-mil</title>
    <desc>Created with Sketch.</desc>
    <defs>
        <path d="M93.8327837,117.905939 L25.3759673,117.905939 C11.7422531,117.905939 0.689273469,106.845678 0.689273469,93.2038812 L0.689273469,24.7019681 C0.689273469,11.0592725 11.7422531,-8.98550724e-05 25.3759673,-8.98550724e-05 L93.8327837,-8.98550724e-05 C107.466498,-8.98550724e-05 118.517682,11.0592725 118.517682,24.7019681 L118.517682,93.2038812 C118.517682,106.845678 107.466498,117.905939 93.8327837,117.905939" id="path-1"></path>
        <filter x="-3.0%" y="-3.0%" width="110.2%" height="111.9%" filterUnits="objectBoundingBox" id="filter-2">
            <feOffset dx="5" dy="7" in="SourceAlpha" result="shadowOffsetOuter1"></feOffset>
            <feColorMatrix values="0 0 0 0 0.149019608   0 0 0 0 0.223529412   0 0 0 0 0.262745098  0 0 0 0.1 0" type="matrix" in="shadowOffsetOuter1"></feColorMatrix>
        </filter>
    </defs>
    <g id="Page-1" stroke="none" stroke-width="1" fill="none" fill-rule="evenodd">
        <g id="SnapScan-Assets" transform="translate(-875.000000, -4884.000000)">
            <g id="img-about-1-mil" transform="translate(875.000000, 4884.000000)">
                <g id="Group-6" transform="translate(118.489796, 53.000000)">
                    <g id="Fill-4" fill="black" fill-opacity="1">
                        <use filter="url(#filter-2)" xlink:href="#path-1"></use>
                    </g>
                    <path d="M93.8327837,117.905939 L25.3759673,117.905939 C11.7422531,117.905939 0.689273469,106.845678 0.689273469,93.2038812 L0.689273469,24.7019681 C0.689273469,11.0592725 11.7422531,-8.98550725e-05 25.3759673,-8.98550725e-05 L93.8327837,-8.98550725e-05 C107.466498,-8.98550725e-05 118.517682,11.0592725 118.517682,24.7019681 L118.517682,93.2038812 C118.517682,106.845678 107.466498,117.905939 93.8327837,117.905939" id="Fill-4" fill="#4A90E2"></path>
                </g>
                <path d="M178.093992,78.6254986 C159.700196,78.6254986 144.788686,93.5468319 144.788686,111.953643 C144.788686,130.358658 159.700196,145.28089 178.093992,145.28089 C196.48689,145.28089 211.399298,130.358658 211.399298,111.953643 C211.399298,93.5468319 196.48689,78.6254986 178.093992,78.6254986 M178.093992,143.049788 C160.931298,143.049788 147.018318,129.128542 147.018318,111.953643 C147.018318,94.7778464 160.931298,80.8557014 178.093992,80.8557014 C195.255788,80.8557014 209.169665,94.7778464 209.169665,111.953643 C209.169665,129.128542 195.255788,143.049788 178.093992,143.049788" id="Fill-7" fill="#FFFFFF"></path>
                <path d="M173.66822,97.5713507 L165.912547,97.5713507 C164.691322,97.5713507 163.701771,98.5615536 163.701771,99.7835826 L163.701771,107.527293 C163.701771,108.749322 164.691322,109.740423 165.912547,109.740423 L173.66822,109.740423 C174.889445,109.740423 175.878996,108.749322 175.878996,107.527293 L175.878996,99.7835826 C175.878996,98.5615536 174.889445,97.5713507 173.66822,97.5713507" id="Fill-9" fill="#FFFFFF"></path>
                <path d="M190.275257,97.5713507 L182.518686,97.5713507 C181.298359,97.5713507 180.30791,98.5615536 180.30791,99.7835826 L180.30791,107.527293 C180.30791,108.749322 181.298359,109.740423 182.518686,109.740423 L190.275257,109.740423 C191.495584,109.740423 192.486033,108.749322 192.486033,107.527293 L192.486033,99.7835826 C192.486033,98.5615536 191.495584,97.5713507 190.275257,97.5713507" id="Fill-11" fill="#FFFFFF"></path>
                <path d="M173.66822,114.165606 L165.912547,114.165606 C164.691322,114.165606 163.701771,115.156707 163.701771,116.377838 L163.701771,124.122446 C163.701771,125.343577 164.691322,126.334678 165.912547,126.334678 L173.66822,126.334678 C174.889445,126.334678 175.878996,125.343577 175.878996,124.122446 L175.878996,116.377838 C175.878996,115.156707 174.889445,114.165606 173.66822,114.165606" id="Fill-13" fill="#FFFFFF"></path>
                <g id="Group-17" transform="translate(179.551020, 123.086957)" fill="#FF9A71">
                    <path d="M99.5030483,27 L11.4960068,27 C4.07381723,27 -2,20.9245983 -2,13.5004726 C-2,6.07445654 4.07381723,0 11.4960068,0 L99.5030483,0 C106.926183,0 113,6.07445654 113,13.5004726 C113,20.9245983 106.926183,27 99.5030483,27" id="Fill-15"></path>
                </g>
                <polygon id="Fill-18" fill="#FFFFFF" points="193.305869 142.548936 193.305869 132.858965 191.067257 132.858965 191.067257 130.375371 196.393951 130.375371 196.393951 142.548936"></polygon>
                <path d="M201.638302,141.230043 C201.638302,141.664043 201.482955,142.028855 201.256669,142.374797 L199.990547,144.215928 L198.56818,144.215928 L199.347608,142.358623 C198.949812,142.098043 198.775608,141.681116 198.775608,141.230043 C198.775608,140.39529 199.383527,139.805841 200.215935,139.805841 C200.980996,139.805841 201.638302,140.309928 201.638302,141.230043" id="Fill-20" fill="#FFFFFF"></path>
                <path d="M206.171918,136.452988 C206.171918,139.232206 206.831918,140.378757 208.393469,140.378757 C209.920898,140.378757 210.597959,139.232206 210.597959,136.452988 C210.597959,133.67467 209.920898,132.54609 208.393469,132.54609 C206.831918,132.54609 206.171918,133.67467 206.171918,136.452988 M213.756082,136.452988 C213.756082,140.430872 211.829959,142.635916 208.393469,142.635916 C204.922857,142.635916 202.996735,140.430872 202.996735,136.452988 C202.996735,132.493974 204.922857,130.288032 208.393469,130.288032 C211.829959,130.288032 213.756082,132.493974 213.756082,136.452988" id="Fill-22" fill="#FFFFFF"></path>
                <path d="M218.378506,136.452988 C218.378506,139.232206 219.038506,140.378757 220.600057,140.378757 C222.127486,140.378757 222.804547,139.232206 222.804547,136.452988 C222.804547,133.67467 222.127486,132.54609 220.600057,132.54609 C219.038506,132.54609 218.378506,133.67467 218.378506,136.452988 M225.962669,136.452988 C225.962669,140.430872 224.036547,142.635916 220.600057,142.635916 C217.129445,142.635916 215.203322,140.430872 215.203322,136.452988 C215.203322,132.493974 217.129445,130.288032 220.600057,130.288032 C224.036547,130.288032 225.962669,132.493974 225.962669,136.452988" id="Fill-24" fill="#FFFFFF"></path>
                <path d="M230.585184,136.452988 C230.585184,139.232206 231.245184,140.378757 232.806735,140.378757 C234.334163,140.378757 235.011224,139.232206 235.011224,136.452988 C235.011224,133.67467 234.334163,132.54609 232.806735,132.54609 C231.245184,132.54609 230.585184,133.67467 230.585184,136.452988 M238.169347,136.452988 C238.169347,140.430872 236.243224,142.635916 232.806735,142.635916 C229.335224,142.635916 227.41,140.430872 227.41,136.452988 C227.41,132.493974 229.335224,130.288032 232.806735,130.288032 C236.243224,130.288032 238.169347,132.493974 238.169347,136.452988" id="Fill-26" fill="#FFFFFF"></path>
                <path d="M242.445429,141.230043 C242.445429,141.664043 242.290082,142.028855 242.063796,142.374797 L240.797673,144.215928 L239.374408,144.215928 L240.154735,142.358623 C239.756939,142.098043 239.582735,141.681116 239.582735,141.230043 C239.582735,140.39529 240.189755,139.805841 241.022163,139.805841 C241.787224,139.805841 242.445429,140.309928 242.445429,141.230043" id="Fill-28" fill="#FFFFFF"></path>
                <path d="M246.977339,136.452988 C246.977339,139.232206 247.637339,140.378757 249.19889,140.378757 C250.726318,140.378757 251.40338,139.232206 251.40338,136.452988 C251.40338,133.67467 250.726318,132.54609 249.19889,132.54609 C247.637339,132.54609 246.977339,133.67467 246.977339,136.452988 M254.561502,136.452988 C254.561502,140.430872 252.636278,142.635916 249.19889,142.635916 C245.728278,142.635916 243.802155,140.430872 243.802155,136.452988 C243.802155,132.493974 245.728278,130.288032 249.19889,130.288032 C252.636278,130.288032 254.561502,132.493974 254.561502,136.452988" id="Fill-30" fill="#FFFFFF"></path>
                <path d="M259.183927,136.452988 C259.183927,139.232206 259.843927,140.378757 261.405478,140.378757 C262.932906,140.378757 263.609967,139.232206 263.609967,136.452988 C263.609967,133.67467 262.932906,132.54609 261.405478,132.54609 C259.843927,132.54609 259.183927,133.67467 259.183927,136.452988 M266.76809,136.452988 C266.76809,140.430872 264.842865,142.635916 261.405478,142.635916 C257.934865,142.635916 256.008743,140.430872 256.008743,136.452988 C256.008743,132.493974 257.934865,130.288032 261.405478,130.288032 C264.842865,130.288032 266.76809,132.493974 266.76809,136.452988" id="Fill-32" fill="#FFFFFF"></path>
                <path d="M271.39231,136.452988 C271.39231,139.232206 272.051412,140.378757 273.613861,140.378757 C275.14129,140.378757 275.818351,139.232206 275.818351,136.452988 C275.818351,133.67467 275.14129,132.54609 273.613861,132.54609 C272.051412,132.54609 271.39231,133.67467 271.39231,136.452988 M278.976473,136.452988 C278.976473,140.430872 277.050351,142.635916 273.613861,142.635916 C270.142351,142.635916 268.217127,140.430872 268.217127,136.452988 C268.217127,132.493974 270.142351,130.288032 273.613861,130.288032 C277.050351,130.288032 278.976473,132.493974 278.976473,136.452988" id="Fill-34" fill="#FFFFFF"></path>
                <path d="M91.739951,74.1932174 L102.823461,63.1024058" id="Stroke-36" stroke="#FFE682" stroke-width="10.0358997" stroke-linecap="round"></path>
                <path d="M81.2442449,101.140125 C81.2442449,104.247313 78.7263673,106.765951 75.6221224,106.765951 C72.5169796,106.765951 70.000898,104.247313 70.000898,101.140125 C70.000898,98.0329362 72.5169796,95.5142986 75.6221224,95.5142986 C78.7263673,95.5142986 81.2442449,98.0329362 81.2442449,101.140125" id="Fill-38" fill="#61B446"></path>
                <path d="M262.526759,166.452632 C262.526759,169.55982 260.00978,172.078458 256.904637,172.078458 C253.799494,172.078458 251.283412,169.55982 251.283412,166.452632 C251.283412,163.345443 253.799494,160.826806 256.904637,160.826806 C260.00978,160.826806 262.526759,163.345443 262.526759,166.452632" id="Fill-40" fill="#61B446"></path>
                <polyline id="Stroke-42" stroke="#61B446" stroke-width="3.34529991" stroke-linecap="round" stroke-linejoin="round" points="107.838384 162.106432 107.838384 155.455359 101.190792 155.454461 101.190792 148.80249 94.542302 148.80249 94.542302 142.150519 87.8947102 142.14962 87.8947102 135.498548"></polyline>
                <polyline id="Stroke-44" stroke="#FF9A71" stroke-width="3.34529991" stroke-linecap="round" stroke-linejoin="round" points="276.502955 70.9517855 269.855363 70.9517855 269.855363 77.6037565 263.206873 77.6037565 263.206873 84.2566261 256.559282 84.2566261 256.559282 90.9085971 249.91169 90.9085971"></polyline>
                <path d="M100.745853,111.547139 L95.2674041,121.042125 C94.3649551,122.6074 95.4927918,124.561748 97.2976898,124.561748 L108.254588,124.561748 C110.060384,124.561748 111.18822,122.6074 110.285771,121.042125 L104.806424,111.547139 C103.904873,109.982762 101.648302,109.982762 100.745853,111.547139" id="Fill-46" fill="#FF9A71"></path>
                <path d="M278.557576,112.535186 L284.036024,103.0402 C284.938473,101.474925 283.810637,99.5205768 282.005739,99.5205768 L271.048841,99.5205768 C269.243045,99.5205768 268.115208,101.474925 269.017657,103.0402 L274.497004,112.535186 C275.398555,114.099562 277.655127,114.099562 278.557576,112.535186" id="Fill-48" fill="#FFE682"></path>
            </g>
        </g>
    </g>
</svg>