<?xml version="1.0" encoding="UTF-8"?>
<svg width="150px" height="130px" viewBox="0 0 150 130" version="1.1" xmlns="http://www.w3.org/2000/svg" xmlns:xlink="http://www.w3.org/1999/xlink">
    <!-- Generator: Sketch 53 (72520) - https://sketchapp.com -->
    <title>img-price-access</title>
    <desc>Created with Sketch.</desc>
    <defs>
        <polygon id="path-1" points="0.0002 0.7662 129.082 0.7662 129.082 7 0.0002 7"></polygon>
        <polygon id="path-3" points="0.2834 0.703 106.7984 0.703 106.7984 72.7659 0.2834 72.7659"></polygon>
        <polygon id="path-5" points="0 79.2968 129.082 79.2968 129.082 0.9998 0 0.9998"></polygon>
    </defs>
    <g id="Page-1" stroke="none" stroke-width="1" fill="none" fill-rule="evenodd">
        <g id="SnapScan-Assets" transform="translate(-501.000000, -4203.000000)">
            <g id="img-price-access" transform="translate(501.000000, 4203.000000)">
                <g id="Group-75" transform="translate(10.000000, 26.000000)">
                    <g id="Group-3" transform="translate(0.000000, 72.296800)">
                        <mask id="mask-2" fill="white">
                            <use xlink:href="#path-1"></use>
                        </mask>
                        <g id="Clip-2"></g>
                        <path d="M123.2942,7.0002 L5.7882,7.0002 C2.5912,7.0002 0.0002,4.4082 0.0002,1.2122 L0.0002,0.7662 L129.0822,0.7662 L129.0822,1.2122 C129.0822,4.4082 126.4902,7.0002 123.2942,7.0002" id="Fill-1" fill="#3B77BC" mask="url(#mask-2)"></path>
                    </g>
                    <g id="Group-6" transform="translate(11.000000, 0.296800)">
                        <mask id="mask-4" fill="white">
                            <use xlink:href="#path-3"></use>
                        </mask>
                        <g id="Clip-5"></g>
                        <path d="M0.2834,72.7659 L0.2834,3.7709 C0.2834,2.0769 1.6574,0.7029 3.3514,0.7029 L103.7304,0.7029 C105.4254,0.7029 106.7984,2.0769 106.7984,3.7709 L106.7984,72.7659 L0.2834,72.7659 Z" id="Fill-4" fill="#A0C6EF" mask="url(#mask-4)"></path>
                    </g>
                    <path d="M65.2805,3.6398 C65.2805,3.2318 64.9495,2.9008 64.5415,2.9008 C64.1335,2.9008 63.8015,3.2318 63.8015,3.6398 C63.8015,4.0478 64.1335,4.3788 64.5415,4.3788 C64.9495,4.3788 65.2805,4.0478 65.2805,3.6398" id="Fill-7" fill="#71848F"></path>
                    <mask id="mask-6" fill="white">
                        <use xlink:href="#path-5"></use>
                    </mask>
                    <g id="Clip-10"></g>
                    <polygon id="Fill-9" fill="#FFFFFF" mask="url(#mask-6)" points="14.918 67.5478 114.164 67.5478 114.164 10.9628 14.918 10.9628"></polygon>
                    <polygon id="Fill-11" fill="#D3E1F2" mask="url(#mask-6)" points="14.918 11.5828 114.164 11.5828 114.164 6.2788 14.918 6.2788"></polygon>
                    <path d="M16.5608,8.7345 C16.5608,9.2615 16.9888,9.6885 17.5158,9.6885 C18.0428,9.6885 18.4698,9.2615 18.4698,8.7345 C18.4698,8.2075 18.0428,7.7805 17.5158,7.7805 C16.9888,7.7805 16.5608,8.2075 16.5608,8.7345" id="Fill-12" fill="#FFFFFF" mask="url(#mask-6)"></path>
                    <path d="M19.0559,8.7345 C19.0559,9.2615 19.4829,9.6885 20.0099,9.6885 C20.5369,9.6885 20.9649,9.2615 20.9649,8.7345 C20.9649,8.2075 20.5369,7.7805 20.0099,7.7805 C19.4829,7.7805 19.0559,8.2075 19.0559,8.7345" id="Fill-13" fill="#FFFFFF" mask="url(#mask-6)"></path>
                    <polygon id="Fill-14" fill="#FFFFFF" mask="url(#mask-6)" points="22.064 9.6888 95.535 9.6888 95.535 7.7808 22.064 7.7808"></polygon>
                    <polygon id="Fill-15" fill="#FFFFFF" mask="url(#mask-6)" points="98.193 9.6888 112.339 9.6888 112.339 7.7808 98.193 7.7808"></polygon>
                    <path d="M35.2981,8.7345 L23.4171,8.7345" id="Stroke-16" stroke="#AAC4E1" stroke-width="0.955" stroke-linecap="round" mask="url(#mask-6)"></path>
                    <path d="M43.8391,8.7345 L37.4421,8.7345" id="Stroke-17" stroke="#AAC4E1" stroke-width="0.955" stroke-linecap="round" mask="url(#mask-6)"></path>
                    <path d="M19.1838,13.9904 C19.1838,14.6784 18.6258,15.2364 17.9388,15.2364 C17.2508,15.2364 16.6938,14.6784 16.6938,13.9904 C16.6938,13.3034 17.2508,12.7454 17.9388,12.7454 C18.6258,12.7454 19.1838,13.3034 19.1838,13.9904 Z" id="Stroke-18" stroke="#3B77BC" stroke-width="0.3" mask="url(#mask-6)"></path>
                    <path d="M27.4582,14.6808 L20.6852,14.6808 C20.2842,14.6808 19.9592,14.3558 19.9592,13.9548 C19.9592,13.5548 20.2842,13.2298 20.6852,13.2298 L27.4582,13.2298 C27.8582,13.2298 28.1842,13.5548 28.1842,13.9548 C28.1842,14.3558 27.8582,14.6808 27.4582,14.6808 Z" id="Stroke-19" stroke="#3B77BC" stroke-width="0.3" mask="url(#mask-6)"></path>
                    <path d="M15.1203,16.6242 L114.0473,16.6242" id="Stroke-20" stroke="#D3E1F2" stroke-width="0.2" mask="url(#mask-6)"></path>
                    <path d="M61.5891,32.0812 L38.8271,32.0812 C38.6121,32.0812 38.4391,31.9072 38.4391,31.6932 L38.4391,26.0352 C38.4391,25.8202 38.6121,25.6462 38.8271,25.6462 L61.5891,25.6462 C61.8041,25.6462 61.9781,25.8202 61.9781,26.0352 L61.9781,31.6932 C61.9781,31.9072 61.8041,32.0812 61.5891,32.0812" id="Fill-21" fill="#F6FAFD" mask="url(#mask-6)"></path>
                    <path d="M46.5071,30.425 L43.1941,30.425 C42.8131,30.425 42.5021,30.115 42.5021,29.733 C42.5021,29.351 42.8131,29.041 43.1941,29.041 L46.5071,29.041 C46.8891,29.041 47.1991,29.351 47.1991,29.733 C47.1991,30.115 46.8891,30.425 46.5071,30.425" id="Fill-22" fill="#DBE9F9" mask="url(#mask-6)"></path>
                    <path d="M17.8342,23.0949 L17.7922,23.0949 C17.4092,23.0949 17.1002,22.7849 17.1002,22.4029 C17.1002,22.0209 17.4092,21.7099 17.7922,21.7099 L17.8342,21.7099 C18.2162,21.7099 18.5262,22.0209 18.5262,22.4029 C18.5262,22.7849 18.2162,23.0949 17.8342,23.0949" id="Fill-23" fill="#DBE9F9" mask="url(#mask-6)"></path>
                    <path d="M27.133,23.0949 L20.1,23.0949 C19.717,23.0949 19.407,22.7849 19.407,22.4029 C19.407,22.0209 19.717,21.7099 20.1,21.7099 L27.133,21.7099 C27.515,21.7099 27.825,22.0209 27.825,22.4029 C27.825,22.7849 27.515,23.0949 27.133,23.0949" id="Fill-24" fill="#DBE9F9" mask="url(#mask-6)"></path>
                    <path d="M17.8342,25.7287 L17.7922,25.7287 C17.4092,25.7287 17.1002,25.4177 17.1002,25.0367 C17.1002,24.6537 17.4092,24.3437 17.7922,24.3437 L17.8342,24.3437 C18.2162,24.3437 18.5262,24.6537 18.5262,25.0367 C18.5262,25.4177 18.2162,25.7287 17.8342,25.7287" id="Fill-25" fill="#DBE9F9" mask="url(#mask-6)"></path>
                    <path d="M27.133,25.7287 L20.1,25.7287 C19.717,25.7287 19.407,25.4177 19.407,25.0367 C19.407,24.6537 19.717,24.3437 20.1,24.3437 L27.133,24.3437 C27.515,24.3437 27.825,24.6537 27.825,25.0367 C27.825,25.4177 27.515,25.7287 27.133,25.7287" id="Fill-26" fill="#DBE9F9" mask="url(#mask-6)"></path>
                    <path d="M17.8342,28.3615 L17.7922,28.3615 C17.4092,28.3615 17.1002,28.0515 17.1002,27.6705 C17.1002,27.2875 17.4092,26.9775 17.7922,26.9775 L17.8342,26.9775 C18.2162,26.9775 18.5262,27.2875 18.5262,27.6705 C18.5262,28.0515 18.2162,28.3615 17.8342,28.3615" id="Fill-27" fill="#DBE9F9" mask="url(#mask-6)"></path>
                    <path d="M27.133,28.3615 L20.1,28.3615 C19.717,28.3615 19.407,28.0515 19.407,27.6705 C19.407,27.2875 19.717,26.9775 20.1,26.9775 L27.133,26.9775 C27.515,26.9775 27.825,27.2875 27.825,27.6705 C27.825,28.0515 27.515,28.3615 27.133,28.3615" id="Fill-28" fill="#DBE9F9" mask="url(#mask-6)"></path>
                    <path d="M67.2053,50.3527 L60.1723,50.3527 C59.7893,50.3527 59.4793,50.0427 59.4793,49.6607 C59.4793,49.2787 59.7893,48.9677 60.1723,48.9677 L67.2053,48.9677 C67.5873,48.9677 67.8973,49.2787 67.8973,49.6607 C67.8973,50.0427 67.5873,50.3527 67.2053,50.3527" id="Fill-29" fill="#DBE9F9" mask="url(#mask-6)"></path>
                    <path d="M67.2053,53.4474 L60.1723,53.4474 C59.7893,53.4474 59.4793,53.1374 59.4793,52.7564 C59.4793,52.3734 59.7893,52.0634 60.1723,52.0634 L67.2053,52.0634 C67.5873,52.0634 67.8973,52.3734 67.8973,52.7564 C67.8973,53.1374 67.5873,53.4474 67.2053,53.4474" id="Fill-30" fill="#DBE9F9" mask="url(#mask-6)"></path>
                    <path d="M67.2053,56.5431 L60.1723,56.5431 C59.7893,56.5431 59.4793,56.2321 59.4793,55.8511 C59.4793,55.4681 59.7893,55.1581 60.1723,55.1581 L67.2053,55.1581 C67.5873,55.1581 67.8973,55.4681 67.8973,55.8511 C67.8973,56.2321 67.5873,56.5431 67.2053,56.5431" id="Fill-31" fill="#DBE9F9" mask="url(#mask-6)"></path>
                    <path d="M67.2053,59.6379 L60.1723,59.6379 C59.7893,59.6379 59.4793,59.3279 59.4793,58.9459 C59.4793,58.5639 59.7893,58.2529 60.1723,58.2529 L67.2053,58.2529 C67.5873,58.2529 67.8973,58.5639 67.8973,58.9459 C67.8973,59.3279 67.5873,59.6379 67.2053,59.6379" id="Fill-32" fill="#DBE9F9" mask="url(#mask-6)"></path>
                    <path d="M17.8342,30.9953 L17.7922,30.9953 C17.4092,30.9953 17.1002,30.6853 17.1002,30.3033 C17.1002,29.9213 17.4092,29.6103 17.7922,29.6103 L17.8342,29.6103 C18.2162,29.6103 18.5262,29.9213 18.5262,30.3033 C18.5262,30.6853 18.2162,30.9953 17.8342,30.9953" id="Fill-33" fill="#DBE9F9" mask="url(#mask-6)"></path>
                    <path d="M27.133,30.9953 L20.1,30.9953 C19.717,30.9953 19.407,30.6853 19.407,30.3033 C19.407,29.9213 19.717,29.6103 20.1,29.6103 L27.133,29.6103 C27.515,29.6103 27.825,29.9213 27.825,30.3033 C27.825,30.6853 27.515,30.9953 27.133,30.9953" id="Fill-34" fill="#DBE9F9" mask="url(#mask-6)"></path>
                    <path d="M17.8342,33.6291 L17.7922,33.6291 C17.4092,33.6291 17.1002,33.3181 17.1002,32.9371 C17.1002,32.5541 17.4092,32.2441 17.7922,32.2441 L17.8342,32.2441 C18.2162,32.2441 18.5262,32.5541 18.5262,32.9371 C18.5262,33.3181 18.2162,33.6291 17.8342,33.6291" id="Fill-35" fill="#DBE9F9" mask="url(#mask-6)"></path>
                    <path d="M27.133,33.6291 L20.1,33.6291 C19.717,33.6291 19.407,33.3181 19.407,32.9371 C19.407,32.5541 19.717,32.2441 20.1,32.2441 L27.133,32.2441 C27.515,32.2441 27.825,32.5541 27.825,32.9371 C27.825,33.3181 27.515,33.6291 27.133,33.6291" id="Fill-36" fill="#DBE9F9" mask="url(#mask-6)"></path>
                    <path d="M48.1565,27.6008 L42.8945,27.6008 C42.6775,27.6008 42.5025,27.4248 42.5025,27.2078 C42.5025,26.9918 42.6775,26.8158 42.8945,26.8158 L48.1565,26.8158 C48.3735,26.8158 48.5495,26.9918 48.5495,27.2078 C48.5495,27.4248 48.3735,27.6008 48.1565,27.6008" id="Fill-37" fill="#3B77BC" mask="url(#mask-6)"></path>
                    <path d="M86.6213,32.0812 L63.8583,32.0812 C63.6443,32.0812 63.4713,31.9072 63.4713,31.6932 L63.4713,26.0352 C63.4713,25.8202 63.6443,25.6462 63.8583,25.6462 L86.6213,25.6462 C86.8353,25.6462 87.0093,25.8202 87.0093,26.0352 L87.0093,31.6932 C87.0093,31.9072 86.8353,32.0812 86.6213,32.0812" id="Fill-38" fill="#F6FAFD" mask="url(#mask-6)"></path>
                    <path d="M15.2766,21.3605 C15.1456,21.3605 15.0356,21.3565 14.9276,21.3515 L14.9276,23.5935 L15.2766,23.5935 C15.4696,23.5935 15.6266,23.4375 15.6266,23.2445 L15.6266,21.7105 C15.6266,21.5165 15.4696,21.3605 15.2766,21.3605" id="Fill-39" fill="#4990E2" mask="url(#mask-6)"></path>
                    <path d="M71.5383,30.425 L68.2263,30.425 C67.8443,30.425 67.5343,30.115 67.5343,29.733 C67.5343,29.351 67.8443,29.041 68.2263,29.041 L71.5383,29.041 C71.9213,29.041 72.2303,29.351 72.2303,29.733 C72.2303,30.115 71.9213,30.425 71.5383,30.425" id="Fill-40" fill="#DBE9F9" mask="url(#mask-6)"></path>
                    <path d="M73.1887,27.6008 L67.9267,27.6008 C67.7097,27.6008 67.5347,27.4248 67.5347,27.2078 C67.5347,26.9918 67.7097,26.8158 67.9267,26.8158 L73.1887,26.8158 C73.4057,26.8158 73.5817,26.9918 73.5817,27.2078 C73.5817,27.4248 73.4057,27.6008 73.1887,27.6008" id="Fill-41" fill="#3B77BC" mask="url(#mask-6)"></path>
                    <path d="M111.6526,32.0812 L88.8906,32.0812 C88.6756,32.0812 88.5026,31.9072 88.5026,31.6932 L88.5026,26.0352 C88.5026,25.8202 88.6756,25.6462 88.8906,25.6462 L111.6526,25.6462 C111.8676,25.6462 112.0406,25.8202 112.0406,26.0352 L112.0406,31.6932 C112.0406,31.9072 111.8676,32.0812 111.6526,32.0812" id="Fill-42" fill="#F6FAFD" mask="url(#mask-6)"></path>
                    <path d="M96.5705,30.425 L93.2575,30.425 C92.8755,30.425 92.5655,30.115 92.5655,29.733 C92.5655,29.351 92.8755,29.041 93.2575,29.041 L96.5705,29.041 C96.9525,29.041 97.2625,29.351 97.2625,29.733 C97.2625,30.115 96.9525,30.425 96.5705,30.425" id="Fill-43" fill="#DBE9F9" mask="url(#mask-6)"></path>
                    <path d="M98.22,27.6008 L92.958,27.6008 C92.741,27.6008 92.566,27.4248 92.566,27.2078 C92.566,26.9918 92.741,26.8158 92.958,26.8158 L98.22,26.8158 C98.437,26.8158 98.613,26.9918 98.613,27.2078 C98.613,27.4248 98.437,27.6008 98.22,27.6008" id="Fill-44" fill="#3B77BC" mask="url(#mask-6)"></path>
                    <path d="M61.5891,40.1174 L38.8271,40.1174 C38.6121,40.1174 38.4391,39.9434 38.4391,39.7294 L38.4391,34.0714 C38.4391,33.8564 38.6121,33.6824 38.8271,33.6824 L61.5891,33.6824 C61.8041,33.6824 61.9781,33.8564 61.9781,34.0714 L61.9781,39.7294 C61.9781,39.9434 61.8041,40.1174 61.5891,40.1174" id="Fill-45" fill="#F6FAFD" mask="url(#mask-6)"></path>
                    <path d="M46.5071,38.4611 L43.1941,38.4611 C42.8131,38.4611 42.5021,38.1511 42.5021,37.7691 C42.5021,37.3871 42.8131,37.0771 43.1941,37.0771 L46.5071,37.0771 C46.8891,37.0771 47.1991,37.3871 47.1991,37.7691 C47.1991,38.1511 46.8891,38.4611 46.5071,38.4611" id="Fill-46" fill="#DBE9F9" mask="url(#mask-6)"></path>
                    <path d="M48.1565,35.6369 L42.8945,35.6369 C42.6775,35.6369 42.5025,35.4609 42.5025,35.2439 C42.5025,35.0279 42.6775,34.8519 42.8945,34.8519 L48.1565,34.8519 C48.3735,34.8519 48.5495,35.0279 48.5495,35.2439 C48.5495,35.4609 48.3735,35.6369 48.1565,35.6369" id="Fill-47" fill="#3B77BC" mask="url(#mask-6)"></path>
                    <path d="M86.6213,40.1174 L63.8583,40.1174 C63.6443,40.1174 63.4713,39.9434 63.4713,39.7294 L63.4713,34.0714 C63.4713,33.8564 63.6443,33.6824 63.8583,33.6824 L86.6213,33.6824 C86.8353,33.6824 87.0093,33.8564 87.0093,34.0714 L87.0093,39.7294 C87.0093,39.9434 86.8353,40.1174 86.6213,40.1174" id="Fill-48" fill="#F6FAFD" mask="url(#mask-6)"></path>
                    <path d="M71.5383,38.4611 L68.2263,38.4611 C67.8443,38.4611 67.5343,38.1511 67.5343,37.7691 C67.5343,37.3871 67.8443,37.0771 68.2263,37.0771 L71.5383,37.0771 C71.9213,37.0771 72.2303,37.3871 72.2303,37.7691 C72.2303,38.1511 71.9213,38.4611 71.5383,38.4611" id="Fill-49" fill="#DBE9F9" mask="url(#mask-6)"></path>
                    <path d="M73.1887,35.6369 L67.9267,35.6369 C67.7097,35.6369 67.5347,35.4609 67.5347,35.2439 C67.5347,35.0279 67.7097,34.8519 67.9267,34.8519 L73.1887,34.8519 C73.4057,34.8519 73.5817,35.0279 73.5817,35.2439 C73.5817,35.4609 73.4057,35.6369 73.1887,35.6369" id="Fill-50" fill="#3B77BC" mask="url(#mask-6)"></path>
                    <path d="M111.6526,40.1174 L88.8906,40.1174 C88.6756,40.1174 88.5026,39.9434 88.5026,39.7294 L88.5026,34.0714 C88.5026,33.8564 88.6756,33.6824 88.8906,33.6824 L111.6526,33.6824 C111.8676,33.6824 112.0406,33.8564 112.0406,34.0714 L112.0406,39.7294 C112.0406,39.9434 111.8676,40.1174 111.6526,40.1174" id="Fill-51" fill="#F6FAFD" mask="url(#mask-6)"></path>
                    <path d="M39.7883,26.2482 C39.6563,26.2482 38.5473,26.2432 38.4383,26.2382 L38.4383,31.4802 L39.7883,31.4802 C39.9803,31.4802 40.1373,31.3242 40.1373,31.1322 L40.1373,26.5972 C40.1373,26.4042 39.9803,26.2482 39.7883,26.2482" id="Fill-52" fill="#61B445" mask="url(#mask-6)"></path>
                    <path d="M64.8196,26.2482 C64.6886,26.2482 63.5786,26.2432 63.4706,26.2382 L63.4706,31.4802 L64.8196,31.4802 C65.0116,31.4802 65.1686,31.3242 65.1686,31.1322 L65.1686,26.5972 C65.1686,26.4042 65.0116,26.2482 64.8196,26.2482" id="Fill-53" fill="#4990E2" mask="url(#mask-6)"></path>
                    <path d="M90.0139,26.2482 C89.8829,26.2482 88.7729,26.2432 88.6649,26.2382 L88.6649,31.4802 L90.0139,31.4802 C90.2069,31.4802 90.3639,31.3242 90.3639,31.1322 L90.3639,26.5972 C90.3639,26.4042 90.2069,26.2482 90.0139,26.2482" id="Fill-54" fill="#BBD8F8" mask="url(#mask-6)"></path>
                    <path d="M39.7883,34.2843 C39.6563,34.2843 38.5473,34.2793 38.4383,34.2743 L38.4383,39.5163 L39.7883,39.5163 C39.9803,39.5163 40.1373,39.3603 40.1373,39.1683 L40.1373,34.6333 C40.1373,34.4403 39.9803,34.2843 39.7883,34.2843" id="Fill-55" fill="#AD69D2" mask="url(#mask-6)"></path>
                    <path d="M64.8196,34.2843 C64.6886,34.2843 63.5786,34.2793 63.4706,34.2743 L63.4706,39.5163 L64.8196,39.5163 C65.0116,39.5163 65.1686,39.3603 65.1686,39.1683 L65.1686,34.6333 C65.1686,34.4403 65.0116,34.2843 64.8196,34.2843" id="Fill-56" fill="#FF9A72" mask="url(#mask-6)"></path>
                    <path d="M90.0139,34.2843 C89.8829,34.2843 88.7729,34.2793 88.6649,34.2743 L88.6649,39.5163 L90.0139,39.5163 C90.2069,39.5163 90.3639,39.3603 90.3639,39.1683 L90.3639,34.6333 C90.3639,34.4403 90.2069,34.2843 90.0139,34.2843" id="Fill-57" fill="#FFE681" mask="url(#mask-6)"></path>
                    <path d="M96.5705,38.4611 L93.2575,38.4611 C92.8755,38.4611 92.5655,38.1511 92.5655,37.7691 C92.5655,37.3871 92.8755,37.0771 93.2575,37.0771 L96.5705,37.0771 C96.9525,37.0771 97.2625,37.3871 97.2625,37.7691 C97.2625,38.1511 96.9525,38.4611 96.5705,38.4611" id="Fill-58" fill="#DBE9F9" mask="url(#mask-6)"></path>
                    <path d="M98.22,35.6369 L92.958,35.6369 C92.741,35.6369 92.566,35.4609 92.566,35.2439 C92.566,35.0279 92.741,34.8519 92.958,34.8519 L98.22,34.8519 C98.437,34.8519 98.613,35.0279 98.613,35.2439 C98.613,35.4609 98.437,35.6369 98.22,35.6369" id="Fill-59" fill="#3B77BC" mask="url(#mask-6)"></path>
                    <polygon id="Fill-60" fill="#3B77BC" mask="url(#mask-6)" points="38.44 22.3258 66.947 22.3258 66.947 19.3938 38.44 19.3938"></polygon>
                    <path d="M55.219,54.2531 C55.219,58.8421 51.499,62.5611 46.911,62.5611 C42.323,62.5611 38.604,58.8421 38.604,54.2531 C38.604,49.6651 42.323,45.9451 46.911,45.9451 C51.499,45.9451 55.219,49.6651 55.219,54.2531 Z" id="Stroke-61" stroke="#AAC4E1" stroke-width="3" stroke-linecap="round" mask="url(#mask-6)"></path>
                    <path d="M55.219,54.2531 C55.219,56.2761 54.495,58.1311 53.293,59.5711 C51.77,61.3991 49.476,62.5611 46.911,62.5611" id="Stroke-62" stroke="#FFE681" stroke-width="3" mask="url(#mask-6)"></path>
                    <path d="M53.2932,59.5715 C51.7702,61.3985 49.4762,62.5605 46.9112,62.5605" id="Stroke-63" stroke="#61B445" stroke-width="3" mask="url(#mask-6)"></path>
                    <path d="M46.9114,62.5607 C42.3224,62.5607 38.6034,58.8417 38.6034,54.2527" id="Stroke-64" stroke="#AD69D2" stroke-width="3" mask="url(#mask-6)"></path>
                    <path d="M38.6037,54.2531 C38.6037,49.6651 42.3227,45.9451 46.9117,45.9451" id="Stroke-65" stroke="#FF9A72" stroke-width="3" mask="url(#mask-6)"></path>
                    <path d="M104.4787,50.3527 L97.4457,50.3527 C97.0637,50.3527 96.7527,50.0427 96.7527,49.6607 C96.7527,49.2787 97.0637,48.9677 97.4457,48.9677 L104.4787,48.9677 C104.8617,48.9677 105.1707,49.2787 105.1707,49.6607 C105.1707,50.0427 104.8617,50.3527 104.4787,50.3527" id="Fill-66" fill="#DBE9F9" mask="url(#mask-6)"></path>
                    <path d="M104.4787,53.4474 L97.4457,53.4474 C97.0637,53.4474 96.7527,53.1374 96.7527,52.7564 C96.7527,52.3734 97.0637,52.0634 97.4457,52.0634 L104.4787,52.0634 C104.8617,52.0634 105.1707,52.3734 105.1707,52.7564 C105.1707,53.1374 104.8617,53.4474 104.4787,53.4474" id="Fill-67" fill="#DBE9F9" mask="url(#mask-6)"></path>
                    <path d="M104.4787,56.5431 L97.4457,56.5431 C97.0637,56.5431 96.7527,56.2321 96.7527,55.8511 C96.7527,55.4681 97.0637,55.1581 97.4457,55.1581 L104.4787,55.1581 C104.8617,55.1581 105.1707,55.4681 105.1707,55.8511 C105.1707,56.2321 104.8617,56.5431 104.4787,56.5431" id="Fill-68" fill="#DBE9F9" mask="url(#mask-6)"></path>
                    <path d="M104.4787,59.6379 L97.4457,59.6379 C97.0637,59.6379 96.7527,59.3279 96.7527,58.9459 C96.7527,58.5639 97.0637,58.2529 97.4457,58.2529 L104.4787,58.2529 C104.8617,58.2529 105.1707,58.5639 105.1707,58.9459 C105.1707,59.3279 104.8617,59.6379 104.4787,59.6379" id="Fill-69" fill="#DBE9F9" mask="url(#mask-6)"></path>
                    <path d="M84.1848,45.9455 C88.7728,45.9455 92.4928,49.6655 92.4928,54.2535 C92.4928,58.8415 88.7728,62.5605 84.1848,62.5605 C79.5968,62.5605 75.8768,58.8415 75.8768,54.2535 C75.8768,49.6655 79.5968,45.9455 84.1848,45.9455 Z" id="Stroke-70" stroke="#AAC4E1" stroke-width="3" stroke-linecap="round" mask="url(#mask-6)"></path>
                    <path d="M84.1848,45.9455 C86.2078,45.9455 88.0628,46.6695 89.5028,47.8715 C91.3308,49.3945 92.4928,51.6885 92.4928,54.2535" id="Stroke-71" stroke="#FFE681" stroke-width="3" mask="url(#mask-6)"></path>
                    <path d="M89.5032,47.8713 C91.3302,49.3943 92.4922,51.6883 92.4922,54.2533" id="Stroke-72" stroke="#61B445" stroke-width="3" mask="url(#mask-6)"></path>
                    <path d="M92.4924,54.2531 C92.4924,58.8421 88.7724,62.5611 84.1844,62.5611" id="Stroke-73" stroke="#AD69D2" stroke-width="3" mask="url(#mask-6)"></path>
                    <path d="M84.1848,62.5607 C79.5968,62.5607 75.8768,58.8417 75.8768,54.2527" id="Stroke-74" stroke="#FF9A72" stroke-width="3" mask="url(#mask-6)"></path>
                </g>
            </g>
        </g>
    </g>
</svg>