<?xml version="1.0" encoding="UTF-8"?>
<svg width="360px" height="215px" viewBox="0 0 360 215" version="1.1" xmlns="http://www.w3.org/2000/svg" xmlns:xlink="http://www.w3.org/1999/xlink">
    <!-- Generator: Sketch 53 (72520) - https://sketchapp.com -->
    <title>img-about-app-of-the-year</title>
    <desc>Created with Sketch.</desc>
    <defs>
        <filter x="-8.4%" y="-11.4%" width="116.9%" height="122.9%" filterUnits="objectBoundingBox" id="filter-1">
            <feOffset dx="5" dy="7" in="SourceAlpha" result="shadowOffsetOuter1"></feOffset>
            <feColorMatrix values="0 0 0 0 0.149019608   0 0 0 0 0.223529412   0 0 0 0 0.262745098  0 0 0 0.1 0" type="matrix" in="shadowOffsetOuter1" result="shadowMatrixOuter1"></feColorMatrix>
            <feMerge>
                <feMergeNode in="shadowMatrixOuter1"></feMergeNode>
                <feMergeNode in="SourceGraphic"></feMergeNode>
            </feMerge>
        </filter>
        <path d="M119.8533,6.1841 C118.5233,4.4541 116.3993,1.9661 113.2493,0.8881 C112.1273,0.4781 110.8663,0.2481 109.4813,0.2451 L54.1253,0.1121 C47.3373,0.0961 40.3033,5.3741 38.4173,11.9111 L0.4653,143.5151 C-0.5117,146.9031 0.0973,149.9521 1.8503,152.1101 C3.5303,154.4031 5.4443,155.9331 7.3593,156.8241 C7.4423,156.8651 7.5323,156.8971 7.6163,156.9351 C7.8203,157.0241 8.0243,157.1161 8.2283,157.1911 C8.4443,157.2721 8.6683,157.3411 8.8953,157.4081 C8.9743,157.4321 9.0533,157.4631 9.1313,157.4851 C9.1863,157.4991 9.2243,157.5041 9.2743,157.5161 C10.1423,157.7361 11.0723,157.8651 12.0723,157.8671 L67.4293,158.0001 C74.2243,158.0161 81.2503,152.7381 83.1363,146.2021 L121.0883,14.5981 C122.0383,11.3041 121.4893,8.3321 119.8503,6.1861 C119.8513,6.1851 119.8523,6.1851 119.8533,6.1841" id="path-2"></path>
        <filter x="-2.9%" y="-2.2%" width="109.9%" height="108.9%" filterUnits="objectBoundingBox" id="filter-3">
            <feOffset dx="5" dy="7" in="SourceAlpha" result="shadowOffsetOuter1"></feOffset>
            <feColorMatrix values="0 0 0 0 0.149019608   0 0 0 0 0.223529412   0 0 0 0 0.262745098  0 0 0 0.1 0" type="matrix" in="shadowOffsetOuter1"></feColorMatrix>
        </filter>
    </defs>
    <g id="Page-1" stroke="none" stroke-width="1" fill="none" fill-rule="evenodd">
        <g id="SnapScan-Assets" transform="translate(-59.000000, -4884.000000)">
            <g id="img-about-app-of-the-year" transform="translate(59.000000, 4884.000000)">
                <g id="Group-40" filter="url(#filter-1)" transform="translate(84.000000, 40.000000)">
                    <g id="Group-12">
                        <rect id="Rectangle" fill="#FFC325" fill-rule="nonzero" x="0" y="0" width="160" height="118" rx="5"></rect>
                        <g id="Group-11" transform="translate(17.000000, 12.000000)">
                            <path d="M0.111806015,13.9415832 C0.111806015,6.55968842 15.5796567,0.575351579 34.66057,0.575351579 C53.7414832,0.575351579 69.209334,6.55968842 69.209334,13.9415832 C69.209334,21.3219621 53.7414832,27.3062989 34.66057,27.3062989 C15.5796567,27.3062989 0.111806015,21.3219621 0.111806015,13.9415832" id="Fill-4" fill="#006891"></path>
                            <path d="M0.111806015,13.9415832 C0.111806015,6.55968842 15.5796567,0.575351579 34.66057,0.575351579 C53.7414832,0.575351579 69.209334,6.55968842 69.209334,13.9415832 C69.209334,21.3219621 53.7414832,27.3062989 34.66057,27.3062989 C15.5796567,27.3062989 0.111806015,21.3219621 0.111806015,13.9415832 Z" id="Stroke-6" stroke="#006891" stroke-width="0.5"></path>
                            <polygon id="Fill-8" fill="#FFFFFF" points="12.773267 20.4373474 16.3595831 7.16282105 22.0183665 7.16282105 22.0183665 14.9706526 22.0550473 14.9706526 25.8950725 7.16282105 31.6447938 7.16282105 28.0584777 20.4373474 24.3216174 20.4373474 26.6202832 11.9224 26.5836024 11.9224 22.0183665 20.4373474 19.0258214 20.4373474 19.0258214 11.9224 18.9654509 11.9224 16.6660209 20.4373474"></polygon>
                            <polygon id="Fill-10" fill="#EE4034" points="32.6561915 20.7004884 33.1651381 18.8133305 37.2894398 18.8133305 36.779729 20.7004884"></polygon>
                            <polygon id="Fill-12" fill="#FFC325" points="33.3077348 18.2839411 35.3939575 10.5655411 31.6448702 10.5655411 32.5641837 7.16259368 44.1874241 7.16259368 43.2673465 10.5655411 39.5182592 10.5655411 37.4328007 18.2816674"></polygon>
                            <polygon id="Fill-14" fill="#FFFFFF" points="41.521415 20.4373474 45.1054385 7.16282105 49.1556143 7.16282105 50.9827786 14.2658105 51.0186952 14.2658105 52.9367974 7.16282105 56.6812995 7.16282105 53.097276 20.4373474 49.2442597 20.4373474 47.2596735 13.1880842 47.2237569 13.1880842 45.2659172 20.4373474"></polygon>
                        </g>
                        <path d="M27.9326612,52.7481053 L25.0966429,60.7391579 L30.7335379,60.7391579 L27.9326612,52.7481053 Z M34.2429443,70.6041053 L32.6473279,66.1486316 L23.2179945,66.1486316 L21.6584694,70.6041053 L14.4620493,70.6041053 L24.1753644,45.8531579 L31.7260493,45.8531579 L41.4384146,70.6041053 L34.2429443,70.6041053 Z" id="Fill-16" fill="#FFFFFF"></path>
                        <path d="M49.3390904,58.4906737 C49.8348712,57.8540421 50.863474,56.8990947 52.6357479,56.8990947 C54.9398941,56.8990947 56.1451543,58.1013053 56.1451543,60.6118316 C56.1451543,62.8750947 54.5856292,64.0062526 52.6357479,64.0062526 C50.4379763,64.0062526 49.5518393,62.9101474 49.3390904,62.5918316 L49.3390904,58.4906737 Z M49.5869808,76.1003579 L49.5869808,67.8610947 C50.0124785,68.3205684 51.2538301,69.2395158 54.1952731,69.2395158 C58.9811726,69.2395158 62.5257205,65.9512 62.5257205,60.5767789 C62.5257205,55.5197263 59.973684,51.6667789 54.9398941,51.6667789 C51.8920767,51.6667789 50.3676932,52.7619368 49.5869808,53.7168842 L49.5869808,51.6667789 L43.2064146,53.2214105 L43.2064146,76.1003579 L49.5869808,76.1003579 Z" id="Fill-18" fill="#FFFFFF"></path>
                        <path d="M71.5623233,58.4906737 C72.0581041,57.8540421 73.0857571,56.8990947 74.8589808,56.8990947 C77.1631269,56.8990947 78.3683872,58.1013053 78.3683872,60.6118316 C78.3683872,62.8750947 76.8079123,64.0062526 74.8589808,64.0062526 C72.6612091,64.0062526 71.7750721,62.9101474 71.5623233,62.5918316 L71.5623233,58.4906737 Z M71.8102137,76.1003579 L71.8102137,67.8610947 C72.2357114,68.3205684 73.4761132,69.2395158 76.4185059,69.2395158 C81.2044055,69.2395158 84.7489534,65.9512 84.7489534,60.5767789 C84.7489534,55.5197263 82.1969169,51.6667789 77.1631269,51.6667789 C74.1143598,51.6667789 72.5899763,52.7619368 71.8102137,53.7168842 L71.8102137,51.6667789 L65.4296475,53.2214105 L65.4296475,76.1003579 L71.8102137,76.1003579 Z" id="Fill-20" fill="#FFFFFF"></path>
                        <polygon id="Fill-22" fill="#FFFFFF" points="24.2986447 100.539337 24.2986447 91.9012316 14.4267178 76.3539684 21.9774027 76.3539684 27.5896037 85.4401789 33.2350466 76.3539684 40.7866813 76.3539684 30.8796128 91.9353368 30.8796128 100.539337"></polygon>
                        <path d="M45.6802849,91.8465684 C45.6802849,90.4330947 44.5719014,89.6647789 43.154842,89.6647789 C41.6152621,89.6647789 40.6293991,90.4634105 40.2912804,91.8465684 L45.6802849,91.8465684 Z M40.3530155,94.3040421 C40.7224767,95.7165684 41.7691251,96.6070947 43.9251068,96.6070947 C46.8817461,96.6070947 48.3909333,95.5630947 48.3909333,95.5630947 L50.0226411,98.9414105 C50.0226411,98.9414105 47.2512073,101.000042 43.4017826,101.000042 C37.6737096,101.000042 34.9326685,97.4057263 34.9326685,93.2590947 C34.9326685,89.1427789 37.6119744,85.7332 43.2469699,85.7332 C48.3291982,85.7332 50.6694356,89.3275158 50.6694356,92.0616211 C50.6694356,93.5357263 50.3921023,94.3040421 50.3921023,94.3040421 L40.3530155,94.3040421 Z" id="Fill-24" fill="#FFFFFF"></path>
                        <path d="M63.5386521,90.9241158 C63.3230539,90.7403263 62.5841315,90.1254842 60.7054831,90.1254842 C59.104168,90.1254842 57.810579,91.2310632 57.810579,93.3825368 C57.810579,95.6855895 58.796442,96.5770632 60.7054831,96.5770632 C62.1833279,96.5770632 63.077063,95.9319053 63.5386521,95.5018 L63.5386521,90.9241158 Z M71.2688438,99.6787474 C71.2688438,99.6787474 69.7596566,100.723695 67.66541,100.723695 C66.064095,100.723695 64.4627799,100.355168 63.7238575,98.7579053 C63.2613187,99.5565368 61.9677297,101.000326 58.8581772,101.000326 C54.4844785,101.000326 52.2677114,97.6523263 52.2677114,93.2593789 C52.2677114,88.7129579 55.7163324,85.7334842 60.8897388,85.7334842 C66.679547,85.7334842 68.8668712,88.6513789 68.8668712,88.6513789 L68.8668712,95.5321158 C68.8972639,96.1469579 69.1128621,96.3307474 69.7283142,96.3307474 C70.0673826,96.3307474 70.6837845,96.1156947 70.6837845,96.1156947 L71.2688438,99.6787474 Z" id="Fill-26" fill="#FFFFFF"></path>
                        <path d="M72.8039598,100.539337 L72.8039598,87.0848105 L78.3468274,85.7329158 L78.3468274,88.3751263 C79.0866995,87.3311263 80.5341516,85.7329158 82.7822612,85.7329158 C84.5374393,85.7329158 85.3077041,86.4396526 85.3077041,86.4396526 L83.7985169,91.2314421 C83.7985169,91.2314421 83.1203799,90.7397579 81.5190648,90.7397579 C80.1029553,90.7397579 78.9936219,91.7231263 78.3468274,92.4289158 L78.3468274,100.539337 L72.8039598,100.539337 Z" id="Fill-28" fill="#FFFFFF"></path>
                        <path d="M50.8982356,80.8768947 C50.8982356,80.3548947 50.5952584,79.9285789 49.9617607,79.9285789 C49.3216146,79.9285789 49.0262356,80.3473158 49.0262356,80.8768947 C49.0262356,81.4187895 49.349158,81.8242632 49.9617607,81.8242632 C50.5677151,81.8242632 50.8982356,81.4187895 50.8982356,80.8768947 M49.9617607,82.5793158 C48.7365553,82.5793158 48.1173041,81.7967895 48.1173041,80.8835263 C48.1173041,79.9494211 48.7299068,79.1668947 49.9617607,79.1668947 C51.1869662,79.1668947 51.8071671,79.9494211 51.8071671,80.8835263 C51.8071671,81.7967895 51.1803178,82.5793158 49.9617607,82.5793158" id="Fill-30" fill="#FFFFFF"></path>
                        <path d="M52.7683361,82.6296211 L52.7683361,80.0319368 L52.1899251,80.0319368 L52.327642,79.2636211 L52.7683361,79.2636211 L52.7683361,78.7065684 C52.7683361,77.6966737 53.2983087,77.3196211 54.1379068,77.3196211 C54.7096694,77.3196211 55.0677333,77.5261474 55.0677333,77.5261474 L54.8065461,78.2404632 C54.8065461,78.2404632 54.5994959,78.1362526 54.241432,78.1362526 C53.8634228,78.1362526 53.6772676,78.3228842 53.6772676,78.7274105 L53.6772676,79.2636211 L54.8065461,79.2636211 L54.8065461,80.0319368 L53.6772676,80.0319368 L53.6772676,82.6296211 L52.7683361,82.6296211 Z" id="Fill-32" fill="#FFFFFF"></path>
                        <path d="M59.3058995,82.3043895 C59.3058995,82.3043895 58.900347,82.5791263 58.2592511,82.5791263 C57.5022831,82.5791263 57.0273973,82.2437579 57.0273973,81.3987053 L57.0273973,80.0326 L56.4489863,80.0326 L56.5867032,79.2557579 L57.0273973,79.2557579 L57.0273973,78.5281789 L57.9363288,78.2884947 L57.9363288,79.2557579 L59.0855525,79.2557579 L59.0855525,80.0326 L57.9363288,80.0326 L57.9363288,81.2679684 C57.9363288,81.6175474 58.0740457,81.7624947 58.417863,81.7624947 C58.8167671,81.7624947 59.0513607,81.5910211 59.0513607,81.5910211 L59.3058995,82.3043895 Z" id="Fill-34" fill="#FFFFFF"></path>
                        <path d="M63.7099909,82.2840211 C63.7099909,82.2840211 63.3861187,82.5180211 62.9254795,82.5180211 C62.3537169,82.5180211 62.1675616,82.2432842 62.1675616,81.7137053 L62.1675616,80.6564421 C62.1675616,80.1552842 61.9823562,79.9762316 61.5901005,79.9762316 C61.1835982,79.9762316 60.880621,80.2168632 60.7495525,80.3333895 L60.7495525,82.4763368 L59.8415708,82.4763368 L59.8415708,77.5670737 L60.7495525,77.3273895 L60.7495525,79.6607579 C60.8673242,79.5376 61.2728767,79.1671789 61.899726,79.1671789 C62.677589,79.1671789 63.0764932,79.6133895 63.0764932,80.3959158 L63.0764932,81.5914947 C63.0764932,81.7421263 63.1182831,81.7961263 63.2484018,81.7961263 C63.3861187,81.7961263 63.5855708,81.7212842 63.5855708,81.7212842 L63.7099909,82.2840211 Z" id="Fill-36" fill="#FFFFFF"></path>
                        <path d="M66.5367963,80.5882316 L66.5367963,80.5541263 C66.5234995,80.1420211 66.2756091,79.8540211 65.7522849,79.8540211 C65.2289607,79.8540211 64.9259836,80.1486526 64.8500018,80.5882316 L66.5367963,80.5882316 Z M64.8576,81.0818105 C64.932632,81.5289684 65.2498557,81.8378105 65.8548603,81.8378105 C66.5510429,81.8378105 66.9432986,81.5356 66.9432986,81.5356 L67.2111342,82.1125474 C67.2111342,82.1125474 66.6536183,82.5796 65.7931251,82.5796 C64.5479744,82.5796 63.9553169,81.7904421 63.9553169,80.8629684 C63.9553169,79.9421263 64.5337279,79.1671789 65.7589333,79.1671789 C66.949947,79.1671789 67.3697461,80.0463368 67.3697461,80.6024421 C67.3697461,80.8970737 67.3013626,81.0818105 67.3013626,81.0818105 L64.8576,81.0818105 Z" id="Fill-38" fill="#FFFFFF"></path>
                    </g>
                </g>
                <g id="Group-42" transform="translate(168.000000, 36.000000)">
                    <g id="Group-3" transform="translate(0.000000, 0.888000)">
                        <g id="Fill-1" fill="black" fill-opacity="1">
                            <use filter="url(#filter-3)" xlink:href="#path-2"></use>
                        </g>
                        <path d="M119.8533,6.1841 C118.5233,4.4541 116.3993,1.9661 113.2493,0.8881 C112.1273,0.4781 110.8663,0.2481 109.4813,0.2451 L54.1253,0.1121 C47.3373,0.0961 40.3033,5.3741 38.4173,11.9111 L0.4653,143.5151 C-0.5117,146.9031 0.0973,149.9521 1.8503,152.1101 C3.5303,154.4031 5.4443,155.9331 7.3593,156.8241 C7.4423,156.8651 7.5323,156.8971 7.6163,156.9351 C7.8203,157.0241 8.0243,157.1161 8.2283,157.1911 C8.4443,157.2721 8.6683,157.3411 8.8953,157.4081 C8.9743,157.4321 9.0533,157.4631 9.1313,157.4851 C9.1863,157.4991 9.2243,157.5041 9.2743,157.5161 C10.1423,157.7361 11.0723,157.8651 12.0723,157.8671 L67.4293,158.0001 C74.2243,158.0161 81.2503,152.7381 83.1363,146.2021 L121.0883,14.5981 C122.0383,11.3041 121.4893,8.3321 119.8503,6.1861 C119.8513,6.1851 119.8523,6.1851 119.8533,6.1841" id="Fill-1" stroke="#BBD8F9" stroke-width="0.5" fill="#FFFFFF" fill-rule="nonzero"></path>
                    </g>
                    <path d="M51.7839,78.2239 C51.5709,77.8259 51.0459,77.6189 50.4549,77.6169 C49.6869,77.6149 48.9799,78.0409 48.7999,78.6669 C48.6149,79.3089 49.0819,79.7149 49.8489,79.7169 C50.4409,79.7179 51.0839,79.5139 51.5259,79.1169 L51.7839,78.2239 Z" id="Fill-4" fill="#3792CD"></path>
                    <path d="M58.593,75.6419 C57.929,75.6409 57.143,75.9819 56.693,76.4329 L56.012,78.7919 C56.186,79.2429 56.782,79.6189 57.446,79.6209 C58.565,79.6229 59.532,78.7919 59.869,77.6239 C60.204,76.4639 59.712,75.6449 58.593,75.6419" id="Fill-6" fill="#3792CD"></path>
                    <path d="M108.5984,4.1951 L100.3004,4.1751 L99.8634,5.6871 C99.2094,7.9551 96.7604,9.7911 94.4024,9.7851 L64.2044,9.7131 C61.8384,9.7071 60.4584,7.8621 61.1124,5.5941 L61.5484,4.0821 L53.2494,4.0621 C48.2294,4.0501 43.0124,7.9661 41.6184,12.7991 L3.6594,144.4251 C2.2674,149.2521 5.2184,153.1941 10.2394,153.2061 L65.5874,153.3391 C70.6004,153.3511 75.8204,149.4281 77.2114,144.6021 L82.7694,125.3291 L96.0814,79.1701 L105.2814,47.2681 L109.0954,34.0421 L115.1704,12.9751 C116.5644,8.1421 113.6114,4.2071 108.5984,4.1951" id="Fill-8" fill="#4A90E2"></path>
                    <path d="M71.1814,54.5447 L70.4784,56.9807 C70.3694,57.3617 69.9584,57.6747 69.5584,57.6737 L67.0084,57.6677 C66.6094,57.6667 66.3714,57.3527 66.4814,56.9707 L67.1834,54.5347 C67.2934,54.1527 67.7124,53.8407 68.1114,53.8417 L70.6614,53.8477 C71.0624,53.8487 71.2914,54.1627 71.1814,54.5447 M64.7624,57.6617 L62.2114,57.6557 C61.8114,57.6547 61.5744,57.3407 61.6844,56.9597 L62.3874,54.5237 C62.4964,54.1417 62.9154,53.8297 63.3144,53.8307 L65.8654,53.8367 C66.2644,53.8367 66.4944,54.1507 66.3844,54.5327 L65.6814,56.9687 C65.5724,57.3507 65.1614,57.6627 64.7624,57.6617 M65.0614,59.1227 L64.3584,61.5577 C64.2484,61.9397 63.8384,62.2527 63.4384,62.2517 L60.8884,62.2447 C60.4884,62.2437 60.2504,61.9307 60.3614,61.5487 L61.0634,59.1127 C61.1734,58.7307 61.5914,58.4187 61.9914,58.4197 L64.5414,58.4257 C64.9414,58.4267 65.1714,58.7407 65.0614,59.1227 M68.7364,49.1517 C63.3884,49.1387 57.8404,53.2817 56.3634,58.4057 C54.8854,63.5297 58.0364,67.6937 63.3854,67.7067 C68.7424,67.7197 74.2814,63.5757 75.7584,58.4527 C77.2364,53.3287 74.0934,49.1647 68.7364,49.1517" id="Fill-10" fill="#3792CD"></path>
                    <path d="M78.4368,77.6839 C77.6688,77.6819 76.9628,78.1079 76.7818,78.7349 C76.5968,79.3759 77.0638,79.7819 77.8318,79.7839 C78.3758,79.7849 78.9648,79.6109 79.3998,79.2739 C79.4368,79.2459 79.4738,79.2159 79.5088,79.1839 L79.5288,79.1149 L79.7668,78.2909 C79.5528,77.8929 79.0288,77.6849 78.4368,77.6839" id="Fill-12" fill="#3792CD"></path>
                    <path d="M105.2815,47.2678 L108.9205,34.6508 L10.0535,153.1958 C10.1165,153.1978 10.1755,153.2058 10.2395,153.2058 L19.3465,153.2278 L103.9935,51.7318 L105.2815,47.2678 Z" id="Fill-14" fill="#3B77BB"></path>
                    <polygon id="Fill-16" fill="#3B77BB" points="95.9309 79.6917 34.5719 153.2647 59.8289 153.3247 82.5549 126.0767 82.7699 125.3287"></polygon>
                    <path d="M37.7063,72.138 C35.7153,72.134 34.1123,73.169 33.7233,74.52 C32.8623,77.506 38.4343,76.465 37.9433,78.168 C37.7853,78.718 37.1163,79.289 35.8123,79.286 C34.5493,79.283 33.7123,78.746 33.2703,78.141 L32.0543,79.254 C32.6513,80.012 33.7043,80.549 35.3753,80.553 C37.8063,80.559 39.2143,79.393 39.6033,78.042 C40.4763,75.018 34.9383,75.937 35.3763,74.417 C35.5483,73.822 36.2693,73.403 37.1963,73.406 C38.1483,73.408 39.0213,73.708 39.5563,74.351 L40.7573,73.292 C40.1433,72.564 39.1053,72.141 37.7063,72.138" id="Fill-18" fill="#FEFEFE"></path>
                    <path d="M45.0222,74.4558 C44.0392,74.4538 43.0762,74.9328 42.5342,75.3968 L42.7662,74.5958 L41.3982,74.5918 L39.6762,80.5628 L41.0432,80.5668 L42.2482,76.3898 C42.6822,75.9938 43.3972,75.5978 44.0762,75.5998 C44.8442,75.6018 45.2612,75.9008 44.9902,76.8398 L43.9142,80.5738 L45.2732,80.5768 L46.4842,76.3768 C46.8382,75.1478 46.3652,74.4588 45.0222,74.4558" id="Fill-20" fill="#FEFEFE"></path>
                    <path d="M51.6018,74.4715 C50.5948,74.4695 49.5998,74.7575 48.6848,75.4045 L48.9988,76.2835 C49.6798,75.7815 50.3818,75.5385 51.0858,75.5395 C51.9408,75.5425 52.4378,75.9555 52.2418,76.6355 L51.9938,77.4985 C51.6628,77.0085 51.0258,76.7475 50.1628,76.7445 C49.1308,76.7425 47.8188,77.2975 47.4298,78.6485 C47.0598,79.9315 48.0388,80.5835 49.0548,80.5855 C49.8858,80.5885 50.7088,80.3145 51.3288,79.8045 L51.1438,80.4455 L52.5098,80.4495 L53.6268,76.5775 C54.0758,75.0195 53.0088,74.4745 51.6018,74.4715 M49.8498,79.7165 C49.0818,79.7155 48.6148,79.3085 48.7998,78.6675 C48.9798,78.0415 49.6868,77.6155 50.4548,77.6175 C51.0468,77.6185 51.5708,77.8255 51.7838,78.2235 L51.5258,79.1175 C51.0838,79.5135 50.4408,79.7185 49.8498,79.7165" id="Fill-22" fill="#FEFEFE"></path>
                    <path d="M59.3411,74.49 C58.4931,74.488 57.6281,74.853 56.9771,75.447 L57.2131,74.63 L55.7891,74.627 L53.4041,82.896 L54.8281,82.9 L55.7261,79.784 C56.0791,80.419 56.7081,80.765 57.5311,80.767 C59.2181,80.771 60.7561,79.598 61.3241,77.628 C61.8921,75.657 61.0281,74.494 59.3411,74.49 M57.4451,79.62 C56.7821,79.619 56.1861,79.243 56.0121,78.792 L56.6931,76.432 C57.1431,75.982 57.9291,75.64 58.5931,75.642 C59.7121,75.645 60.2041,76.464 59.8691,77.624 C59.5321,78.792 58.5651,79.623 57.4451,79.62" id="Fill-24" fill="#FEFEFE"></path>
                    <path d="M66.4875,72.2073 C64.4965,72.2023 62.8945,73.2373 62.5045,74.5893 C61.6435,77.5753 67.2085,76.5343 66.7165,78.2363 C66.5585,78.7863 65.8975,79.3573 64.5945,79.3543 C63.3315,79.3523 62.4935,78.8143 62.0525,78.2103 L60.8355,79.3233 C61.4325,80.0813 62.4865,80.6183 64.1565,80.6223 C66.5875,80.6283 67.9955,79.4623 68.3855,78.1103 C69.2575,75.0863 63.7195,76.0053 64.1585,74.4863 C64.3305,73.8913 65.0505,73.4723 65.9785,73.4743 C66.9215,73.4773 67.8025,73.7763 68.3375,74.4193 L69.5395,73.3603 C68.9255,72.6333 67.8865,72.2103 66.4875,72.2073" id="Fill-26" fill="#FEFEFE"></path>
                    <path d="M73.4358,74.5237 C71.5488,74.5197 69.8498,75.8067 69.3408,77.5707 C68.8578,79.2467 69.7028,80.5157 71.4208,80.6317 C71.5028,80.6367 71.5868,80.6397 71.6718,80.6397 C72.8948,80.6427 73.7658,80.1487 74.3538,79.6067 L73.6938,78.8187 C73.2908,79.2057 72.8348,79.4387 72.3358,79.5007 C72.2448,79.5117 72.1528,79.5177 72.0598,79.5177 C70.9408,79.5147 70.4148,78.7037 70.7408,77.5737 C71.0688,76.4367 72.0568,75.6437 73.1768,75.6467 C73.7838,75.6477 74.2018,75.8627 74.4138,76.3217 L75.5118,75.5727 L75.5188,75.5677 C75.5188,75.5667 75.5188,75.5657 75.5178,75.5657 C75.2468,75.0077 74.6578,74.5267 73.4358,74.5237" id="Fill-28" fill="#FEFEFE"></path>
                    <path d="M79.5842,74.5383 C78.5762,74.5363 77.5822,74.8243 76.6672,75.4713 L76.9812,76.3503 C77.6622,75.8483 78.3642,75.6053 79.0682,75.6073 C79.9232,75.6093 80.4202,76.0223 80.2242,76.7023 L79.9752,77.5653 C79.6442,77.0753 79.0082,76.8143 78.1442,76.8123 C77.1132,76.8093 75.8012,77.3643 75.4112,78.7163 C75.0412,79.9983 76.0212,80.6503 77.0372,80.6533 C77.5542,80.6543 78.0692,80.5483 78.5332,80.3453 C78.8142,80.2223 79.0762,80.0633 79.3102,79.8713 L79.1252,80.5133 L80.4922,80.5163 L81.6082,76.6443 C81.6242,76.5933 81.6362,76.5423 81.6482,76.4933 C81.9862,75.0513 80.9442,74.5413 79.5842,74.5383 M77.8312,79.7843 C77.0632,79.7823 76.5972,79.3753 76.7822,78.7343 C76.9622,78.1083 77.6692,77.6823 78.4372,77.6843 C79.0282,77.6853 79.5522,77.8923 79.7662,78.2903 L79.5282,79.1143 L79.5082,79.1843 C79.4732,79.2153 79.4372,79.2453 79.3992,79.2743 C78.9642,79.6113 78.3762,79.7853 77.8312,79.7843" id="Fill-30" fill="#FEFEFE"></path>
                    <path d="M87.3948,74.5574 C86.4118,74.5554 85.4498,75.0344 84.8988,75.4984 L85.1308,74.6974 L83.7708,74.6934 L82.0498,80.6644 L83.4088,80.6684 L84.6128,76.4914 C85.0558,76.0954 85.7698,75.6994 86.4488,75.7014 C87.2168,75.7034 87.6348,76.0024 87.3638,76.9414 L86.2868,80.6754 L87.6458,80.6784 L88.8568,76.4784 C89.2118,75.2494 88.7388,74.5604 87.3948,74.5574" id="Fill-32" fill="#FEFEFE"></path>
                    <path d="M68.928,48.4871 C63.188,48.4731 57.251,52.9141 55.668,58.4041 C54.084,63.8941 57.453,68.3571 63.194,68.3711 C68.934,68.3851 74.871,63.9441 76.454,58.4541 C78.037,52.9641 74.668,48.5011 68.928,48.4871 M63.386,67.7071 C58.037,67.6941 54.886,63.5291 56.363,58.4061 C57.841,53.2821 63.388,49.1391 68.736,49.1521 C74.093,49.1641 77.236,53.3291 75.759,58.4521 C74.281,63.5761 68.742,67.7191 63.386,67.7071" id="Fill-34" fill="#FEFEFE"></path>
                    <path d="M65.8655,53.8362 L63.3145,53.8302 C62.9155,53.8292 62.4975,54.1422 62.3865,54.5232 L61.6845,56.9592 C61.5745,57.3412 61.8115,57.6552 62.2115,57.6562 L64.7615,57.6622 C65.1615,57.6632 65.5725,57.3512 65.6815,56.9692 L66.3845,54.5332 C66.4945,54.1512 66.2645,53.8372 65.8655,53.8362" id="Fill-36" fill="#FEFEFE"></path>
                    <path d="M70.6619,53.8479 L68.1119,53.8419 C67.7119,53.8409 67.2939,54.1529 67.1839,54.5349 L66.4809,56.9709 C66.3709,57.3529 66.6089,57.6659 67.0089,57.6669 L69.5589,57.6739 C69.9589,57.6749 70.3689,57.3619 70.4789,56.9799 L71.1819,54.5449 C71.2909,54.1629 71.0619,53.8489 70.6619,53.8479" id="Fill-38" fill="#FEFEFE"></path>
                    <path d="M64.5417,58.4256 L61.9917,58.4196 C61.5917,58.4186 61.1737,58.7306 61.0637,59.1126 L60.3607,61.5486 C60.2507,61.9306 60.4887,62.2436 60.8877,62.2446 L63.4387,62.2516 C63.8377,62.2526 64.2487,61.9396 64.3587,61.5576 L65.0607,59.1226 C65.1707,58.7406 64.9417,58.4266 64.5417,58.4256" id="Fill-40" fill="#FEFEFE"></path>
                </g>
            </g>
        </g>
    </g>
</svg>