<?xml version="1.0" encoding="utf-8"?>
<!-- Generator: Adobe Illustrator 22.1.0, SVG Export Plug-In . SVG Version: 6.00 Build 0)  -->
<svg version="1.1" id="Layer_1" xmlns="http://www.w3.org/2000/svg" xmlns:xlink="http://www.w3.org/1999/xlink" x="0px" y="0px"
	 viewBox="0 0 460 490" style="enable-background:new 0 0 460 490;" xml:space="preserve">
<style type="text/css">
	.st0{fill:#FFFFFF;}
	.st1{fill:#E2EBF4;}
	.st2{fill:#5589C5;}
	.st3{fill:#BED2EA;}
	.st4{fill:#A9C3E2;}
	.st5{fill:#8AADD7;}
	.st6{fill:none;stroke:#5589C5;stroke-width:0.373;stroke-linecap:round;stroke-linejoin:round;}
	.st7{fill:#C7D8EC;}
	.st8{fill:#263943;}
	.st9{fill:none;stroke:#8AADD7;stroke-width:0.8;}
	.st10{fill:#FFE783;}
	.st11{fill:none;stroke:#FFE783;stroke-width:6.004;}
	.st12{fill:#6B422C;}
	.st13{fill:#2A5C95;}
	.st14{fill:#61B546;}
	.st15{fill:none;stroke:#61B546;stroke-width:0.8;}
	.st16{fill:none;stroke:#2A5C95;stroke-width:0.4;stroke-linecap:round;stroke-linejoin:round;}
	.st17{fill:#AD6E4C;}
	.st18{fill:none;stroke:#61B546;stroke-width:1.601;}
	.st19{fill:none;stroke:#E2E2E2;stroke-width:0.8;}
	.st20{fill:none;stroke:#6B422C;stroke-width:0.4;stroke-linecap:round;stroke-linejoin:round;}
	.st21{fill:none;stroke:#263943;stroke-width:0.2;stroke-linecap:round;stroke-linejoin:round;}
	.st22{fill:none;stroke:#2A5C95;stroke-width:0.4;}
	.st23{fill:#E48360;}
	.st24{fill:none;stroke:#8AADD7;stroke-width:0.4;}
	.st25{fill:#894E42;}
	.st26{fill:#FFD47E;}
	.st27{fill:none;}
	.st28{fill:none;stroke:#FFC17A;stroke-width:0.8;}
	.st29{fill:#FFC17A;}
</style>
<g id="Page-1">
	<g id="SnapScan---Assets" transform="translate(-59.000000, -2668.000000)">
		<g id="img-mer-lan-get" transform="translate(59.000000, 2668.000000)">
			<g id="Group-289" transform="translate(53.000000, 66.000000)">
				<g id="Oval-6" transform="translate(0.000000, 373.000000)">
				</g>
				<ellipse id="Oval-6_1_" class="st0" cx="177.5" cy="371" rx="228.5" ry="45"/>
				<g id="Group-240" transform="translate(64.000000, 0.064000)">
					<path id="Fill-47" class="st1" d="M-6.2,49.1h-29.4"/>
					<path id="Fill-51" class="st1" d="M-53.7,73.4l-6.4-2.5"/>
					<path id="Fill-53" class="st1" d="M-6.9,49.1c-0.2,1.2-0.7,2.4-1.1,3.3"/>
					<path id="Fill-55" class="st1" d="M-8.1,49.1c-0.2,1.2-0.7,2.4-1,3.3"/>
					<path id="Fill-57" class="st1" d="M-9.2,49.1c-0.1,1.2-0.6,2.4-0.9,3.3"/>
					<path id="Fill-59" class="st1" d="M-10.3,49.1c-0.1,1.2-0.6,2.4-0.8,3.3"/>
					<path id="Fill-61" class="st1" d="M-11.5,49.1c-0.1,1.2-0.5,2.4-0.7,3.3"/>
					<path id="Fill-63" class="st1" d="M-12.6,49.1c-0.1,1.2-0.4,2.4-0.7,3.3"/>
					<path id="Fill-65" class="st1" d="M-13.7,49.1c-0.1,1.2-0.4,2.4-0.6,3.3"/>
					<path id="Fill-67" class="st1" d="M-14.9,49.1c-0.1,1.2-0.3,2.4-0.5,3.3"/>
					<path id="Fill-69" class="st1" d="M-16,49.1c-0.1,1.2-0.3,2.4-0.4,3.3"/>
					<path id="Fill-71" class="st1" d="M-17.1,49.1c0,1.2-0.2,2.4-0.3,3.3"/>
					<path id="Fill-73" class="st1" d="M-18.3,49.1c0,1.2-0.1,2.4-0.2,3.3"/>
					<path id="Fill-75" class="st1" d="M-19.4,49.1c0,1.2-0.1,2.4-0.1,3.3"/>
					<path id="Fill-77" class="st1" d="M-20.5,49.1c0,1.2,0,2.4,0,3.3"/>
					<path id="Fill-79" class="st1" d="M-21.7,49.1c0,1.2,0,2.4,0,3.3"/>
					<path id="Fill-81" class="st1" d="M-22.8,49.1c0,1.2,0.1,2.4,0.1,3.3"/>
					<path id="Fill-83" class="st1" d="M-23.9,49.1c0,1.2,0.1,2.4,0.2,3.3"/>
					<path id="Fill-85" class="st1" d="M-25,49.1c0,1.2,0.2,2.4,0.3,3.3"/>
					<path id="Fill-87" class="st1" d="M-26.2,49.1c0.1,1.2,0.3,2.4,0.4,3.3"/>
					<path id="Fill-89" class="st1" d="M-27.3,49.1c0.1,1.2,0.3,2.4,0.5,3.3"/>
					<path id="Fill-91" class="st1" d="M-28.4,49.1c0.1,1.2,0.4,2.4,0.6,3.3"/>
					<path id="Fill-93" class="st1" d="M-29.6,49.1c0.1,1.2,0.4,2.4,0.7,3.3"/>
					<path id="Fill-95" class="st1" d="M-30.7,49.1c0.1,1.2,0.5,2.4,0.7,3.3"/>
					<path id="Fill-97" class="st1" d="M-31.8,49.1c0.1,1.2,0.6,2.4,0.8,3.3"/>
					<path id="Fill-99" class="st1" d="M-33,49.1c0.1,1.2,0.6,2.4,0.9,3.3"/>
					<path id="Fill-101" class="st1" d="M-34.1,49.1c0.2,1.2,0.7,2.4,1,3.3"/>
					<path id="Fill-103" class="st1" d="M-35.2,49.1c0.2,1.2,0.7,2.4,1.1,3.3"/>
					<path id="Fill-105" class="st1" d="M-64.6,84.7c-0.2,0.8-0.7,2.6-0.7,2.6"/>
					<path id="Fill-107" class="st1" d="M-63.2,85.6c-0.3,1.4-0.9,3.6-0.9,3.6"/>
					<path id="Fill-109" class="st1" d="M-61.3,86.5c-0.4,1.6-1.3,4.3-1.3,4.3"/>
					<path id="Fill-111" class="st1" d="M-57.5,85.1c-0.6,1.8-1,2.8-1,2.8l-1,2.2"/>
					<path id="Fill-121" class="st2" d="M213.3,53.1h-40.1c0,1.5,1.2,2.7,2.7,2.7h34.7C212.1,55.8,213.3,54.6,213.3,53.1"/>
					<path id="Fill-122" class="st2" d="M216.7,51.6l11.5-30.2c0.5-1.4-0.2-2.9-1.6-3.5l-13.4,35.2
						C214.7,53.6,216.2,52.9,216.7,51.6"/>
					<polygon id="Fill-123" class="st2" points="201.1,62.5 208.6,62.5 208.6,81.5 201.2,74.1 					"/>
					<path id="Fill-124" class="st3" d="M201.3,167.8l-0.1-93.8l7.4,7.4l-0.1,86.4c0,9.2,7.7,16.6,17.2,16.6h-41.6
						C193.6,184.5,201.3,177,201.3,167.8"/>
					<polygon id="Fill-125" class="st3" points="137.9,64.8 271.9,64.8 271.9,55.8 137.9,55.8 					"/>
					<path id="Fill-126" class="st3" d="M161.9,184.5h86c3.3,0,6,2.7,6,6h-97.9C155.9,187.2,158.6,184.5,161.9,184.5"/>
					<path id="Fill-127" class="st4" d="M110,10.9c3.3-2.7,8.1-2.3,10.8,0.9L147,41.6l-11.1,10.5l-26.8-30.4
						C106.4,18.4,106.8,13.6,110,10.9"/>
					<path id="Fill-128" class="st5" d="M159.1,3.1c1.6-1.3,3.3-2.6,5.3-2.9c0.8-0.1,1.2-0.1,2-0.1c2.5,0,4-2.1,4.6-2.8
						c0,0,1.5,0.9,0.5,2.3c-0.3,0.5-0.7,0.9-1.1,1.3l0,1.8l1.6,2.6l-2.2,4.6c0,0-4.7,2.2-8.8,1.9l-1.1,2.5l-7-3.6
						C154.8,7.2,157.5,4.4,159.1,3.1"/>
					<path id="Fill-129" class="st2" d="M166.6,3.2L166.6,3.2c1.2-0.4,2.5-1.1,3.7-2.3l0,1.8l1.6,2.6l-2.2,4.6c0,0-1.1,0.5-2.7,1
						c0,0-2.2-3.9-4.7-3.6l-0.1,0C165.1,6.8,166.5,4.7,166.6,3.2"/>
					<path id="Fill-130" class="st5" d="M167.9,7.9c-1.4,0.2-1.4,1.5-0.4,1.8c1.1,0.3,3.1,0.3,4.4,0.1c1.4-0.2,1.2-2.2,0-2.2
						S167.9,7.9,167.9,7.9"/>
					<path id="Fill-131" class="st5" d="M167.7,6.2c-1.5,0.3-1.4,1.6-0.3,1.9c1.1,0.3,3.2,0,4.6-0.2c1.5-0.3,1.2-2.3-0.1-2.2
						C170.5,5.7,167.7,6.2,167.7,6.2"/>
					<path id="Fill-132" class="st5" d="M167.7,4.4c-1.5,0.4-1.3,1.7-0.1,1.9c1.1,0.2,3.2-0.2,4.6-0.6c1.5-0.4,1-2.4-0.3-2.2
						C170.5,3.7,167.7,4.4,167.7,4.4"/>
					<path id="Fill-133" class="st4" d="M169.9,1.8c0,3.2,3,4.3,3.1,4.4l1,0.5l-0.7-1.3c0,0-2.6-0.9-2.6-3.6c0-0.7,0.6-1.3,1.3-1.3
						s1.3,0.6,1.3,1.3c0,0.2,0.2,0.4,0.4,0.4s0.4-0.2,0.4-0.4c0-1.2-0.9-2.1-2.1-2.1C170.9-0.3,169.9,0.7,169.9,1.8"/>
					<path id="Fill-134" class="st4" d="M173.3-3.1v7.9c0,4.9,3,6.2,3,6.2l4.5,0c0,0,2.9-1.3,2.9-6.2v-7.9H173.3z"/>
					<path id="Fill-135" class="st5" d="M172,0.6c-0.4,0-0.8,0.2-1.1,0.6l0,0c0,0-1.1,0.5-1.8,0.9c-1.4,0.8-0.7,2.1,0.7,2.1
						c1.8,0,2.6-0.7,3.3-1.9c0.2-0.3,0.2-0.7,0-1C172.9,0.8,172.5,0.6,172,0.6"/>
					<polygon id="Fill-136" class="st4" points="152.9,10.7 161.7,15.2 148.7,49.7 134.5,42.9 					"/>
					<path id="Fill-137" class="st4" d="M148.7,49.7L148.7,49.7c-2,5.4-9.1,6.7-12.9,2.3l-0.4-0.4c-2.1-2.4-2.5-5.9-1-8.7l0,0
						c2.6-4.6,8.9-5.3,12.4-1.3l0.3,0.4C149.2,44.1,149.7,47.1,148.7,49.7"/>
					<polygon id="Fill-138" class="st5" points="117.7,31.5 125.9,17.6 135.5,38.9 150.8,44.3 135.2,51.3 					"/>
					<path id="Fill-139" class="st5" d="M171.7,48.5l6.8-2.7c0.7-0.4,1.6-0.6,2.4-0.4l4.1,0.7c0.7,0.1,1.3,0.4,1.8,0.9l1,0.9
						c0.8,0.7,1.5,2.2,1.5,3.3v0.5l2.4,2.3c-0.6,0.6-1.5,0.7-2.2,0.2c-0.3-0.2-0.6-0.4-0.9-0.6l1.6,1.5c-0.6,0.6-1.5,0.7-2.2,0.2
						c-0.9-0.6-3.7-2.8-4.6-3.6c-0.2-0.2-0.5-0.2-0.7-0.1l-0.1,0l3.8,3.3l-0.1,0.1c-0.5,0.5-1.2,0.6-1.8,0.3l-4.5-2.5
						c0,0-1,2.7-4,2.7H166v-6L171.7,48.5z"/>
					<path id="Stroke-140" class="st6" d="M191.8,54.1l-5.9-5.9c-0.3-0.3-0.6-0.4-1-0.5l-2.3-0.4"/>
					<path id="Stroke-141" class="st6" d="M186.6,55.2l-4.1-3.6c-0.3-0.3-0.7-0.4-1.1-0.5l-1.2-0.1"/>
					<path id="Stroke-142" class="st6" d="M190.3,55.3l-4.6-4.5c-0.3-0.3-0.6-0.4-0.9-0.5l-2.3-0.5"/>
					<path id="Fill-143" class="st2" d="M137.3,185.1c-0.3-0.1-0.5-0.2-0.8-0.2l-6.4-1.3c-0.8-0.2-1.7-0.4-2.5-0.7
						c-0.9-0.9-1.7-2-2.4-3.1c-0.4-0.6-0.6-1.4-0.6-2.1v0l0,0l-2.6,0.5c-2.1,0.4-4.3-0.4-5.5-2.2l-1.4-2c-2.6,5.3-4.6,8.5-4.6,8.5
						l7.6,3.9l7.9,4.1h9.6h4.4C140.5,188.3,139.4,185.9,137.3,185.1"/>
					<path id="Fill-144" class="st7" d="M125.2,174.9l-8.5-4.3c-0.6,1.3-1.1,2.3-1.6,3.4l1.4,2c1.2,1.8,3.4,2.6,5.5,2.2l2.6-0.5l0,0
						C124.5,176.8,124.7,175.8,125.2,174.9"/>
					<path id="Fill-145" class="st5" d="M149.3,72.7l-36.8,95.8l12.7,6.5l43.3-80.5c4.4-8.2-0.5-18.3-9.6-20
						C156,73.9,152.8,73.3,149.3,72.7"/>
					<polygon id="Fill-146" class="st2" points="173.4,83.3 149.6,83.3 141.7,102.1 146.4,102.1 158.7,112.8 173.6,84.9 					"/>
					<path id="Fill-147" class="st2" d="M96.1,69c0,9.1,7.4,16.4,16.4,16.4S129,78,129,69s-7.4-16.4-16.4-16.4S96.1,59.9,96.1,69"/>
					<path id="Fill-148" class="st4" d="M92.9,60.5l2.3-38.2c0.3-5.3,3.1-10.1,7.6-13c6-3.9,14-2.7,18.5,2.9l4.7,5.5
						c7.5,8.8,6.1,35.6,6,42.3c-0.1,3.4-0.6,6.7-3,9.1H96.1C93.9,66.7,92.7,63.6,92.9,60.5"/>
					<path id="Fill-149" class="st5" d="M104.5,30.8l27.6,18.7c0,4.6-0.3,10.9-0.3,12.9C117.3,59.6,104.5,30.8,104.5,30.8"/>
					<path id="Fill-150" class="st5" d="M130.1-10.9l-3.8-5.9l0.2-0.5c0.3-0.8,0.4-1.7,0.2-2.5l-0.9-3.2l-6-1.8h-9l-7.7,14l3.8,8.8
						l-2.8,10.6c0,0,9.6,6.9,16.1,6.9v-8c0.1-1.7,1.4-3.2,3.2-3.2c1.8-0.1,3.6-0.2,4.3-0.5c1.2-0.4,2-1.6,1.8-2.9l-1.3-9.1l1.2-0.5
						C130.3-9.2,130.6-10.2,130.1-10.9"/>
					<path id="Fill-151" class="st2" d="M125.4-24.9c-0.3-0.9-1-1.7-1.9-1.9c-3.2-0.8-10.7-2.4-16.5-0.5c-11.2,3.7-10.8,20.4,0,25.1
						c3.7,0.3,6-3.4,6-3.4c-6.2,0-8.1-5.7-4.8-7.1c3.3-1.4,5.6,3.5,5.6,3.5h2.8l-3.7-6.3c-2-3.4,0.5-7.6,4.4-7.6h8.6L125.4-24.9z"/>
					<path id="Fill-152" class="st2" d="M114.9,1.4c0,0,1.6,3.3,5.3,5.4c0.3-1.5,1.6-2.6,3.1-2.6C117.1,4.2,114.9,1.4,114.9,1.4"/>
					<path id="Fill-153" class="st5" d="M96.1,69l-2.4,10.8c-2.3,10.7,5.8,20.8,16.7,20.8h74.2L180.4,87c-1.8-5.7-6.6-9.9-12.4-11
						L129,69H96.1z"/>
					<polygon id="Fill-154" class="st7" points="209.5,180.1 208.7,184.4 203,190.5 197.4,176.8 207.3,173.1 					"/>
					<path id="Fill-155" class="st2" d="M198.9,190.5v-10l3.1,1.6c2.2,1,4.4,0.8,5.7-0.5l1.7-1.6c0,0,0,0,0,0c0.5,0.6,1.2,0.9,2,1.3
						c1.9,1.1,9.6,2.5,9.6,2.5l6.1,1.3c1.9,0.4,3,2,2.8,3.9l-0.1,1.6H202h0H198.9z"/>
					<path id="Fill-156" class="st5" d="M167.9,76c-6.3-1.1-14.2-2.6-21.3-3.9c21.8,39.1,50.8,104.7,50.8,104.7h11.1L180.4,87
						C178.6,81.3,173.8,77.1,167.9,76"/>
					<path id="Fill-157" class="st4" d="M103.8,18.1c3.3-2.7,8.1-2.3,10.8,0.9l18.9,21.6l38.2,7.9l0,7.3h-36.7
						c-8.7,0-10.3-1.8-13.3-5.2l-18.9-21.7C100.1,25.7,100.5,20.8,103.8,18.1"/>
					<polygon id="Fill-158" class="st3" points="97.7,108.6 98.2,105.8 81.5,108.6 77.3,180.5 82.6,180.5 					"/>
					<polygon id="Fill-159" class="st3" points="97.7,108.6 98.2,105.8 81.5,108.6 76.7,190.5 80.5,190.5 					"/>
					<path id="Fill-160" class="st3" d="M94.1,125.4c1.5-9.7,10.8-16.8,20.5-16.8l-17.9-2.8L94.1,125.4z"/>
					<path id="Fill-161" class="st3" d="M139.6,125.4c-1.5-9.7-9.8-16.8-19.5-16.8l17.9-2.8L139.6,125.4z"/>
					<path id="Fill-162" class="st3" d="M81.5,108.6h66.6v-2.4c0-3.1-2.5-5.5-5.5-5.5H81.5V108.6z"/>
					<polygon id="Fill-163" class="st3" points="132,108.6 131.4,105.8 148.1,108.6 153,190.5 149.2,190.5 					"/>
					<path id="Fill-164" class="st3" d="M135.5,125.4c-1.5-9.7-10.8-16.8-20.5-16.8l17.9-2.8L135.5,125.4z"/>
					<path id="Fill-165" class="st3" d="M74.6,30.6l10.5,71.5l-3.5-1.3L71.5,31.1c-0.1-0.9,0.5-1.7,1.4-1.8
						C73.7,29.1,74.5,29.7,74.6,30.6"/>
					<polygon id="Fill-166" class="st1" points="245.4,35.1 254.7,27.6 258.5,35.1 					"/>
					<path id="Fill-167" class="st5" d="M263.6,18.3l-14.7,35.1l2.3,0.9l6.7-18.2c0.4-1,1.2-1.8,2.2-2.2l1-0.4l0.8-1.8
						c1.8-4.2,2.7-8.7,2.9-13.2c0-0.2-0.1-0.4-0.3-0.5C264.1,17.9,263.8,18.1,263.6,18.3"/>
					<path id="Fill-168" class="st3" d="M250,26.7l-2.3-8.7l-0.5,0.1l1.6,8c0,0.1-0.1,0.3-0.2,0.3h0c-0.1,0-0.3-0.1-0.3-0.2l-1.7-8
						l-0.5,0.1l1.4,8c0,0.1-0.1,0.3-0.2,0.3c-0.1,0-0.3-0.1-0.3-0.2l-1.5-8l-0.5,0.1l1.3,8.1c0,0.1-0.1,0.3-0.2,0.3l0,0
						c-0.1,0-0.3-0.1-0.3-0.2l-1.4-8l-0.5,0.1l0.9,9c0.1,0.8,0.6,1.5,1.4,1.9l0,0c0.7,0.3,1.2,1,1.4,1.7l3.9,24.1l1.2-0.2l1.2-0.2
						l-5-23.9c-0.2-0.8,0.1-1.6,0.6-2.1l0,0C250,28.4,250.2,27.5,250,26.7"/>
					<polygon id="Fill-169" class="st8" points="249.6,25.2 248.3,28.5 249.6,29.5 					"/>
					<path id="Fill-170" class="st3" d="M250.4,17.9l-4.3,37.8l2.4,0.3l1.3-19.4c0.1-1.1,0.6-2.1,1.5-2.7l0.9-0.6l0.2-1.9
						c0.5-4.5,0.2-9.1-0.9-13.5c-0.1-0.2-0.3-0.4-0.5-0.4C250.7,17.4,250.5,17.6,250.4,17.9"/>
					<polygon id="Fill-171" class="st3" points="244.2,56 259.7,56 259.7,35.1 244.2,35.1 					"/>
					<path id="Stroke-172" class="st9" d="M244.2,44.3h15.5"/>
					<path id="Stroke-173" class="st9" d="M244.2,41.8h15.5"/>
					<path id="Stroke-174" class="st9" d="M244.2,46.8h15.5"/>
					<path id="Stroke-175" class="st9" d="M244.2,49.3h15.5"/>
					<polygon id="Fill-176" class="st0" points="256.5,35.1 242.4,23.6 244.2,35.1 					"/>
					<polygon id="Fill-177" class="st10" points="70.9,239 69.8,233.8 101.4,239 109.4,375 99.4,375 					"/>
					<polygon id="Fill-178" class="st10" points="70.9,239 69.8,233.8 101.4,239 109.4,375 99.4,375 					"/>
					<path id="Fill-179" class="st10" d="M77.5,270.8C74.8,252.5,57.2,239,38.7,239l33.9-5.2L77.5,270.8z"/>
					<path id="Fill-180" class="st10" d="M-8.4,270.8C-5.7,252.5,10,239,28.5,239l-33.9-5.2L-8.4,270.8z"/>
					<polygon id="Fill-181" class="st10" points="-24.6,239 101.4,239 101.4,223.9 -24.6,223.9 					"/>
					<polygon id="Fill-182" class="st10" points="6,239 7.1,233.8 -24.6,239 -32.6,375 -22.6,375 					"/>
					<path id="Fill-183" class="st10" d="M-0.7,270.8C2.1,252.5,19.7,239,38.1,239l-33.9-5.2L-0.7,270.8z"/>
					<path id="Stroke-184" class="st11" d="M-21.3,223.9l-13.7-103c-1.5-11.6,6.3-22.5,17.9-24.6L6.6,92c21.3-3.9,43.1-3.9,64.3,0
						l23.2,4.3c11.5,2.1,19.4,12.9,17.8,24.6l-13.7,103"/>
					<path id="Fill-185" class="st10" d="M39.2,89.1L39.2,89.1c-0.1,0-0.2,0-0.3,0c-0.1,0-0.2,0-0.3,0v0c-10.6,0-21.2,1-31.6,3
						l12.7,131.9h18.9h0.5h18.9L70.9,92C60.4,90.1,49.8,89.1,39.2,89.1"/>
					<polygon id="Fill-186" class="st8" points="8.4,223.8 61.1,223.8 85.1,203.7 85.1,158.5 -16.9,158.5 -16.9,203.7 					"/>
					<path id="Fill-187" class="st12" d="M94.2,372.6v-1c0-3.7-2.3-6.9-5.8-8.2L78,359.6c-4.5-1.6-7.1-6.3-6-10.9l1.5-7h-22
						l-2.2,30.8H94.2z"/>
					<path id="Fill-188" class="st12" d="M20.3,372.6L18,341.7H-4l1.5,7c1,4.6-1.6,9.3-6,10.9l-10.4,3.8c-3.5,1.2-5.8,4.5-5.8,8.2v1
						H20.3z"/>
					<path id="Fill-189" class="st13" d="M18.3,344.9h-30.4l-29.1-157.7c-2.7-14.9,8.7-28.7,23.9-28.7c12.7,0,23.3,9.9,24.2,22.6
						L18.3,344.9z"/>
					<path id="Fill-190" class="st13" d="M51.3,344.9h30.4l29.1-157.7c2.7-14.9-8.7-28.7-23.9-28.7c-12.7,0-23.3,9.9-24.2,22.6
						L51.3,344.9z"/>
					<path id="Fill-191" class="st14" d="M64.4-27h-7.3v15.2h4.4c1.6,0,2.9-1.3,2.9-2.9V-27z"/>
					<path id="Stroke-192" class="st15" d="M64.4-27h-7.3v15.2h4.4c1.6,0,2.9-1.3,2.9-2.9V-27z"/>
					<path id="Fill-193" class="st2" d="M119.7,123.3l-9.4-66.9c-0.8-6-4.5-11.3-9.8-14.2L63.3,21.9l-6.5,6.5
						c-3.1,3.1-7.3,4.8-11.7,4.8H24.4c-4.4,0-8.6-1.7-11.7-4.8l-6.5-6.5l-37.1,20.3c-5.3,2.9-9,8.2-9.8,14.2l-9.4,66.9
						c-1.5,10.5,6.7,19.9,17.3,19.9h17.3H85.1h17.3C113,143.2,121.2,133.8,119.7,123.3"/>
					<polygon id="Fill-194" class="st8" points="-15.1,89.3 -7.6,64.3 -7.6,99.6 					"/>
					<polygon id="Fill-195" class="st8" points="84.7,89.3 77.2,64.3 77.2,99.6 					"/>
					<path id="Fill-196" class="st8" d="M-9.8,122.2c-8.2-7.2-13.9-9.5-19.5-9.7h28.5V131L-9.8,122.2z"/>
					<path id="Stroke-197" class="st16" d="M-40.9,113.9c10.8-2,17.5-3.5,31.1,8.3"/>
					<path id="Fill-198" class="st8" d="M79.3,122.2c8.2-7.2,13.9-9.5,19.5-9.7H70.4V131L79.3,122.2z"/>
					<path id="Stroke-199" class="st16" d="M110.4,113.9c-10.8-2-17.5-3.5-31.1,8.3"/>
					<path id="Fill-200" class="st17" d="M12.7,28.5c3.1,3.1,7.3,4.8,11.7,4.8h20.8c4.4,0,8.6-1.7,11.7-4.8l6.5-6.5l-3.3-1.8
						c-4.9-2.7-8-7.9-8-13.5v-6H17.5v6c0,5.6-3.1,10.8-8,13.5l-3.3,1.8L12.7,28.5z"/>
					<path id="Fill-201" class="st8" d="M34.8,11.8l2.8-11.1H17.5v6c0,4.8-2.3,9.3-6,12.2C18.7,14.3,21.5,11.8,34.8,11.8"/>
					<path id="Fill-202" class="st14" d="M12.4-27H5.1v12.3c0,1.6,1.3,2.9,2.9,2.9h4.4V-27z"/>
					<path id="Stroke-203" class="st15" d="M12.4-27H5.1v12.3c0,1.6,1.3,2.9,2.9,2.9h4.4V-27z"/>
					<path id="Stroke-204" class="st18" d="M64-27v-2c0-16.2-13.1-29.3-29.3-29.3C18.6-58.3,5.5-45.2,5.5-29v2"/>
					<path id="Fill-205" class="st17" d="M21.2-47.3l-8.8,2.9v28c0,4,0.8,7.9,2.5,11.4l2.6,5.6c3.1,6.8,9.9,11.1,17.3,11.1
						c7.4,0,14.2-4.3,17.3-11.1L54.6-5c1.6-3.6,2.5-7.5,2.5-11.4v-28L21.2-47.3z"/>
					<path id="Fill-206" class="st12" d="M49.7-48.2c4.9-2.8,10.9,1.3,10.1,6.9l-2.3,14.8l-0.4,2.9c0,0-4.8-8.2-4.8-20.8"/>
					<path id="Fill-207" class="st8" d="M52.3-44c0,2.3,0.2,4.5,0.5,6.5c1.4-1.1,3.4-3,5.9-6.2L52.3-44z"/>
					<path id="Stroke-208" class="st19" d="M31.4-19.1c0-4.5-3.7-8.2-8.2-8.2c-4.5,0-8.2,3.7-8.2,8.2s3.7,8.2,8.2,8.2
						C27.7-11,31.4-14.6,31.4-19.1z"/>
					<path id="Stroke-209" class="st19" d="M54.5-19.1c0-4.5-3.7-8.2-8.2-8.2c-4.5,0-8.2,3.7-8.2,8.2s3.7,8.2,8.2,8.2
						C50.9-11,54.5-14.6,54.5-19.1z"/>
					<path id="Stroke-210" class="st19" d="M38.2-20.3c-1.9-1.9-5-1.9-6.9,0"/>
					<path id="Stroke-211" class="st20" d="M33.3-15.3L32-10.6c-0.6,3.6,5.6,2.5,5.6,2.5"/>
					<path id="Fill-212" class="st8" d="M44.3-17.4c0,0.8,0.5,1.5,1.1,1.5c0.6,0,1.1-0.7,1.1-1.5s-0.5-1.5-1.1-1.5
						C44.8-18.8,44.3-18.2,44.3-17.4"/>
					<path id="Stroke-213" class="st21" d="M44.3-17.4c0,0.8,0.5,1.5,1.1,1.5c0.6,0,1.1-0.7,1.1-1.5s-0.5-1.5-1.1-1.5
						C44.8-18.8,44.3-18.2,44.3-17.4z"/>
					<path id="Fill-214" class="st8" d="M25.2-17.4c0,0.8-0.5,1.5-1.1,1.5c-0.6,0-1.1-0.7-1.1-1.5s0.5-1.5,1.1-1.5
						C24.7-18.8,25.2-18.2,25.2-17.4"/>
					<path id="Stroke-215" class="st21" d="M25.2-17.4c0,0.8-0.5,1.5-1.1,1.5c-0.6,0-1.1-0.7-1.1-1.5s0.5-1.5,1.1-1.5
						C24.7-18.8,25.2-18.2,25.2-17.4z"/>
					<path id="Stroke-216" class="st20" d="M34.8,2.2c4.1-0.3,7.9-2.7,10-6.2"/>
					<path id="Fill-217" class="st8" d="M16.7-37.2c0.5-3.3,3.9-5.4,7.1-4.2l-7.6-4.8L15-39.7L16.7-37.2z"/>
					<path id="Fill-218" class="st12" d="M53.6-54.9L53.6-54.9c-2.2,0-4.3,1.1-5.5,2.8l-0.7-0.4c-9.6-5.3-21.4-4.1-29.7,3.1
						c-4-2.3-9,1-8.3,5.6l3.1,20.2c0,0,4.8-8.2,4.8-20.8c0,0,10.4,6.3,22.9,6.3c7.4,0,13.2-2.2,16.6-4c2.2-1.2,3.6-3.5,3.6-6
						C60.4-51.9,57.3-54.9,53.6-54.9"/>
					<path id="Stroke-219" class="st20" d="M40.7-28.9c2.9-1.5,6.3-2,9.5-1.2"/>
					<path id="Stroke-220" class="st20" d="M29.5-28.9c-2.9-1.5-6.3-2-9.5-1.2"/>
					<path id="Stroke-221" class="st22" d="M70.4,25.8L62.3,34c-4.6,4.6-10.7,7.1-17.1,7.1H24.4c-6.5,0-12.6-2.5-17.1-7.1l-8.1-8.1"
						/>
					<path id="Fill-222" class="st17" d="M45.7,32.2H23.9L34.8,56L45.7,32.2C45.7,32.1,45.7,32.2,45.7,32.2"/>
					<polygon id="Fill-223" class="st13" points="39,33.3 31.7,49.2 34.8,56 45.2,33.3 					"/>
					<path id="Fill-224" class="st1" d="M112,364.7H73.8c-16.3,0-29.6-12.8-29.6-28.7l0.2-181.6H31.6l0.2,181.6
						c0,15.8-13.3,28.7-29.6,28.7h-38.2c-5.7,0-10.3,4.6-10.3,10.3h168.6C122.3,369.3,117.7,364.7,112,364.7"/>
					<polygon id="Fill-225" class="st8" points="30.9,158.5 45.8,158.5 45.8,188.7 30.9,173.8 					"/>
					<polygon id="Fill-226" class="st23" points="-105,158.5 181,158.5 181,143 -105,143 					"/>
					<path id="Fill-227" class="st1" d="M79.3,143.2H-9.8c-3.2,0-5.8-2.6-5.8-5.8V79.2c0-3.3,2.7-6,6-6H79c3.3,0,6,2.7,6,6v58.3
						C85.1,140.6,82.5,143.2,79.3,143.2"/>
					<path id="Stroke-228" class="st24" d="M85.1,137.2H-15.6"/>
					<path id="Fill-229" class="st0" d="M41.7,108.1c0-3.8-3.1-6.9-6.9-6.9c-3.8,0-6.9,3.1-6.9,6.9c0,3.8,3.1,6.9,6.9,6.9
						C38.6,115.1,41.7,112,41.7,108.1"/>
					<path id="Fill-230" class="st25" d="M127.5,138.5c0.3,0,0.5-0.1,0.7-0.3c1.7-1.7,3.8-3.5,7.1-3.5c2.9,0,5.3-2.4,5.3-5.3
						c0-2.9-2.4-5.3-5.3-5.3c-2.9,0-5.3,2.4-5.3,5.3c0,0.6,0.5,1,1,1s1-0.5,1-1c0-1.8,1.5-3.3,3.3-3.3c1.8,0,3.3,1.5,3.3,3.3
						c0,1.8-1.5,3.3-3.3,3.3c-3.9,0-6.4,2-8.5,4.1c-0.4,0.4-0.4,1.1,0,1.5C127,138.4,127.2,138.5,127.5,138.5"/>
					<path id="Fill-231" class="st8" d="M126.5,137.4c0-0.2,0.1-0.4,0.3-0.6c1.3-1.3,2.7-2.5,4.5-3.3v2.3c-0.8,0.4-1.5,1-2.1,1.6
						H126.5z"/>
					<path id="Fill-232" class="st25" d="M132.1,122.4v6.1c0,6.6-4.2,12.2-10,14.3c-0.1-0.1-0.3-0.3-0.5-0.3c-2.4-0.3-4.6-0.3-7-0.2
						c-5.2-2.4-8.9-7.7-8.9-13.8v-6.1H132.1z"/>
					<path id="Fill-233" class="st8" d="M128.3,138.5c-0.6,0.4-3.4,3-4.1,3.3c0,0,0,0,0,0c-0.2,0.1-0.4,0.2-0.5,0.3
						c0,0-0.1,0-0.1,0.1c0,0,0,0,0,0c-0.2,0.1-0.3,0.1-0.5,0.2c0,0-0.1,0-0.1,0c0,0-0.1,0-0.1,0c-0.1,0.1-0.3,0.1-0.4,0.2
						c-0.1,0-0.1,0-0.2,0.1c-0.1-0.1-0.2-0.2-0.4-0.2c-1.5-0.3-3.1-0.1-4.6-0.2c-1.1-0.1-2-0.3-2.9-0.1c-2.6-1.3-5-3.5-6.5-5.9
						C107.9,136.4,128.3,138.5,128.3,138.5"/>
					<path id="Fill-234" class="st25" d="M132.6,143.2h-26c-3.4,0-6.4-1.9-8-4.6h41.9C138.9,141.3,136,143.2,132.6,143.2"/>
					<path id="Fill-235" class="st23" d="M117.7,123.6l4.5-1.2h-13.9c1.2,0.4,2.5,0.8,3.7,1.2c0.8,0.3,1.6,0.5,2.5,0.6
						C115.6,124.2,116.7,123.9,117.7,123.6"/>
					<path id="Fill-236" class="st3" d="M-66.2,122.2l-1.6,1.9L-86,110.9c-1.3-0.9-1.6-2.6-0.7-3.7c0.9-1.1,2.6-1.1,3.8-0.1
						L-66.2,122.2z"/>
					<polygon id="Fill-237" class="st8" points="-68.3,120.4 -75.6,118.5 -73,120.4 					"/>
					<path id="Fill-238" class="st26" d="M-71.9,143.1H-41c7.2-4.9,12-13.3,12-22.7h-54.9C-83.9,129.8-79.2,138.1-71.9,143.1"/>
					<path id="Fill-239" class="st8" d="M-49.6,139.1l-29.7-3.4c0.8,1.2,1.7,2.3,2.7,3.4H-49.6z"/>
				</g>
				<g id="Group-247" transform="translate(85.000000, 179.064000)">
					<g id="Group-243">
						<path id="Clip-242" class="st27" d="M-104.9-58.6c0,9.4,4.8,17.8,12,22.7l0,0H-62c7.2-4.9,12-13.3,12-22.7l0,0"/>
						<polyline id="Stroke-241" class="st28" points="-104.8,-53.6 -100.2,-51.8 -95.7,-53.6 -91.1,-51.8 -86.6,-53.6 -82,-51.8 
							-77.5,-53.6 -72.9,-51.8 -68.4,-53.6 -63.8,-51.8 -59.3,-53.6 -54.7,-51.8 -50.2,-53.6 						"/>
					</g>
					<g id="Group-246">
						<path id="Clip-245" class="st27" d="M-104.9-58.6c0,9.4,4.8,17.8,12,22.7l0,0H-62c7.2-4.9,12-13.3,12-22.7l0,0"/>
						<polyline id="Stroke-244" class="st28" points="-104.8,-48.5 -100.2,-46.7 -95.7,-48.5 -91.1,-46.7 -86.6,-48.5 -82,-46.7 
							-77.5,-48.5 -72.9,-46.7 -68.4,-48.5 -63.8,-46.7 -59.3,-48.5 -54.7,-46.7 -50.2,-48.5 						"/>
					</g>
				</g>
				<g id="Group-288" transform="translate(80.000000, 145.064000)">
					<path id="Fill-248" class="st29" d="M-49.6-1.8h-47.7c-3.3,0-6.1-1.8-7.6-4.4H-42C-43.5-3.6-46.4-1.8-49.6-1.8"/>
					<path id="Fill-250" class="st8" d="M247.2,125.7c-4.6-17.8-17.7-31.8-36.1-31.8l33.9-5.2L247.2,125.7z"/>
					<path id="Fill-252" class="st10" d="M119.6,93.9h135.6V78.8H125.9c-3.4,0-6.2,2.8-6.2,6.2V93.9z"/>
					<polygon id="Fill-254" class="st8" points="175,229.9 170.5,93.9 203.2,93.9 183.6,230 					"/>
					<polygon id="Fill-256" class="st10" points="133.8,93.9 119.6,93.9 100.7,229.9 109.3,229.9 					"/>
					<g id="Group-260" transform="translate(344.000000, 152.000000)">
						<polygon id="Clip-259" class="st27" points="-104.2,-58.1 -64.2,-58.1 -64.2,78 -104.2,78 						"/>
						<polygon id="Fill-258" class="st8" points="-72.7,78 -104.2,-58.1 -90,-58.1 -64.2,77.9 						"/>
					</g>
					<path id="Fill-261" class="st10" d="M228.1,91.5l14.9,2.4c-1.7,0-12.4,0.1-13.8,45.9L228.1,91.5z"/>
					<path id="Fill-263" class="st10" d="M261.8,139.9c-10.1-45.9-15.7-46-18.9-46l11.2-2.4L261.8,139.9z"/>
					<polygon id="Fill-265" class="st10" points="279,229.9 253.1,93.9 255.2,93.9 281,229.9 					"/>
					<path id="Fill-267" class="st8" d="M160,94.3c1.7-0.2,3.4-0.3,5.1-0.3h0c1.9,0,3.7,0.1,5.5,0.4l0.7,20.8
						C170.5,94.3,160.2,94.3,160,94.3"/>
					<path id="Fill-269" class="st10" d="M259.2-54.6l0.5,0.7L234.1,78.8h-29.2l7.8-132C228.1-55,243.7-55.5,259.2-54.6"/>
					<g id="Group-273" transform="translate(255.000000, 0.000000)">
						<polygon id="Clip-272" class="st27" points="-104.9,-58 32,-58 32,78.8 -104.9,78.8 						"/>
						<path id="Fill-271" class="st10" d="M-6,78.8L25.4-30.9c1.3-4.6,0.5-9.4-2.2-13.3c-2.7-3.9-7-6.4-11.7-6.8
							c-21-1.8-42.2-1.1-63.1,2.1c-9.1,1.4-17.2,5.6-23.7,12.2c-6.4,6.6-10.4,14.8-11.6,23.9l-12,91.7h-6.1l12.1-92.5
							c1.4-10.4,6-19.8,13.3-27.3c7.3-7.5,16.7-12.3,27-13.9c21.3-3.3,43-4,64.5-2.1c6.5,0.6,12.4,4,16.1,9.4
							c3.7,5.4,4.8,12.1,3,18.4L0.2,78.8H-6z"/>
					</g>
					<polygon id="Fill-274" class="st8" points="160,78.8 155.5,83.9 156.1,78.8 					"/>
					<polygon id="Fill-276" class="st8" points="255.2,78.8 249.8,76 249,78.8 					"/>
					<polygon id="Fill-278" class="st10" points="197.2,93.9 198.9,88.7 230.5,93.9 226.3,229.9 217.7,229.9 					"/>
					<path id="Stroke-280" class="st28" d="M215.7,123.3l5.2,84.6"/>
					<path id="Fill-282" class="st10" d="M202,125.7c-2.8-18.3-18.5-31.8-36.9-31.8l33.9-5.2L202,125.7z"/>
					<path id="Fill-284" class="st10" d="M129.8,89.8l35.2,4.1c-18.1,0-33.6,12.9-36.8,30.7L129.8,89.8z"/>
					<path id="Stroke-286" class="st28" d="M220.6,69.2L235-44.9"/>
				</g>
			</g>
		</g>
	</g>
</g>
</svg>
