<?xml version="1.0" encoding="UTF-8"?>
<svg width="262px" height="222px" viewBox="0 0 262 222" version="1.1" xmlns="http://www.w3.org/2000/svg" xmlns:xlink="http://www.w3.org/1999/xlink">
    <!-- Generator: Sketch 53 (72520) - https://sketchapp.com -->
    <title>img-at-till-points</title>
    <desc>Created with Sketch.</desc>
    <defs>
        <linearGradient x1="50%" y1="0%" x2="27.560013%" y2="100%" id="linearGradient-1">
            <stop stop-color="#FAFAFA" offset="0%"></stop>
            <stop stop-color="#FFFFFF" offset="100%"></stop>
        </linearGradient>
    </defs>
    <g id="Page-1" stroke="none" stroke-width="1" fill="none" fill-rule="evenodd">
        <g id="SnapScan-Assets" transform="translate(-646.000000, -1207.000000)">
            <g id="img-at-till-points" transform="translate(647.000000, 1208.000000)">
                <g id="image/paypoint" transform="translate(48.000000, 13.000000)">
                    <ellipse id="Oval" fill-opacity="0.05" fill="#263943" fill-rule="nonzero" cx="78" cy="182.5" rx="71" ry="5.5"></ellipse>
                    <g id="Group-133" stroke-width="1" fill-rule="evenodd" transform="translate(17.000000, 0.000000)">
                        <g id="Group-132">
                            <g id="Group-4" transform="translate(0.000000, 40.000000)" fill="url(#linearGradient-1)">
                                <path d="M95.9257,141.9351 L93.3377,139.8041 L110.4997,0.0291 L16.8387,0.0291 L0.0337,136.8941 C-0.2953,139.5731 1.7947,141.9351 4.4937,141.9351 L95.9257,141.9351 Z" id="Fill-2"></path>
                            </g>
                            <path d="M80.5419,165.0088 L11.3659,165.0088 C10.3429,165.0088 9.4799,165.7718 9.3549,166.7868 C9.2079,167.9938 10.1489,169.0588 11.3659,169.0588 L80.5419,169.0588 C81.5649,169.0588 82.4269,168.2958 82.5519,167.2808 C82.6999,166.0728 81.7579,165.0088 80.5419,165.0088" id="Fill-5" fill="#D7DFEA"></path>
                            <g id="Group-9" transform="translate(91.000000, 155.000000)" fill="#C7CCD5">
                                <path d="M6.07847752,22.528 L6.19717303,22.528 C6.15147881,22.5118567 6.1196878,22.5039567 6.1018,22.5043 C4.86674292,22.528 4.98346614,21.5052711 4.99246614,21.4292711 L7.5618,0.4933 L3.0828,0.4933 L0.4918,21.5913 C0.2438,23.6133 1.2538,25.5243 3.0658,26.4563 C3.7738,26.8213 4.5318,27.0003 5.2828,27.0003 C6.4518,27.0003 7.6038,26.5673 8.5168,25.7313 L6.07847752,22.528 Z" id="Fill-7"></path>
                                <rect id="Rectangle" fill-rule="nonzero" x="4" y="22.5" width="33" height="4.5" rx="2.25"></rect>
                            </g>
                            <polygon id="Fill-10" fill="#C7CCD5" points="101.3701 132.6213 112.8181 39.3843 108.3391 39.3843 96.8911 132.6213"></polygon>
                            <path d="M56.809,99.7847 C56.907,98.9857 57.003,98.2027 57.101,97.4117 L54.724,97.4117 C54.625,98.2167 54.529,98.9987 54.433,99.7847 L56.809,99.7847 Z M69.569,94.9777 L67.161,94.9777 C67.063,95.7787 66.967,96.5617 66.869,97.3567 L69.277,97.3567 C69.375,96.5547 69.471,95.7787 69.569,94.9777 L69.569,94.9777 Z M76.255,99.7887 C76.455,98.1657 76.65,96.5777 76.846,94.9787 L74.426,94.9787 C74.327,95.7827 74.231,96.5677 74.13,97.3887 L69.312,97.3887 C69.211,98.2097 69.115,98.9937 69.017,99.7887 L76.255,99.7887 Z M78.391,102.2717 L71.15,102.2717 C70.851,104.7057 70.556,107.1167 70.261,109.5177 L77.501,109.5177 C77.799,107.0927 78.093,104.6977 78.391,102.2717 L78.391,102.2717 Z M42.231,119.2717 C41.452,119.2707 40.673,119.2697 39.894,119.2697 L39.903,119.2777 C39.924,118.9627 39.937,118.6477 39.969,118.3317 C40.011,117.9257 40.057,117.5177 40.121,117.1117 C40.156,116.8907 40.08,116.8267 39.868,116.8307 C39.284,116.8417 38.702,116.8347 38.119,116.8347 L37.736,116.8347 C38.135,113.5857 38.53,110.3697 38.929,107.1177 L41.316,107.1177 C41.418,106.2877 41.516,105.4937 41.617,104.6737 L39.213,104.6737 C39.312,103.8657 39.409,103.0817 39.509,102.2627 L32.212,102.2627 C32.413,100.6297 32.609,99.0317 32.81,97.3957 L30.392,97.3957 C30.494,96.5727 30.59,95.7877 30.69,94.9697 L33.095,94.9697 L33.087,94.9607 C32.99,95.7547 32.892,96.5497 32.79,97.3837 C33.112,97.3837 33.384,97.3787 33.654,97.3847 C34.175,97.3937 34.696,97.4097 35.218,97.4217 C35.122,98.2057 35.026,98.9917 34.93,99.7737 L37.36,99.7737 C37.458,98.9737 37.554,98.2007 37.648,97.4307 L35.206,97.4307 C35.317,96.6077 35.427,95.7847 35.538,94.9607 L35.528,94.9697 L37.979,94.9697 C38.085,94.1117 38.183,93.3147 38.28,92.5187 L38.271,92.5267 L45.535,92.5267 C45.432,93.3617 45.335,94.1477 45.234,94.9717 L40.424,94.9717 C40.124,97.4127 39.829,99.8137 39.535,102.2127 L44.348,102.2127 C44.45,101.3807 44.548,100.5787 44.646,99.7777 L44.639,99.7847 L47.095,99.7847 C47.293,98.1677 47.488,96.5797 47.689,94.9457 L52.573,94.9457 C52.675,94.1147 52.771,93.3287 52.871,92.5157 L57.697,92.5157 C57.798,91.6947 57.895,90.9007 57.997,90.0677 L55.622,90.0677 C55.724,89.2427 55.82,88.4567 55.92,87.6427 C56.081,87.6427 56.222,87.6447 56.362,87.6427 C57.033,87.6337 57.704,87.6237 58.373,87.6137 C58.296,88.1287 58.216,88.6437 58.143,89.1577 C58.101,89.4607 58.068,89.7627 58.028,90.0917 L60.446,90.0917 C60.048,93.3337 59.653,96.5477 59.254,99.8007 L61.7,99.8007 C61.598,100.6307 61.5,101.4247 61.399,102.2477 L66.27,102.2477 C66.168,103.0777 66.07,103.8767 65.972,104.6757 C65.164,104.6747 64.356,104.6747 63.543,104.6747 C63.341,106.3187 63.145,107.9157 62.945,109.5447 L65.365,109.5447 C65.267,110.3427 65.169,111.1397 65.071,111.9367 L67.481,111.9367 C67.58,111.1277 67.676,110.3517 67.773,109.5557 L65.352,109.5557 C65.556,107.9267 65.76,106.2967 65.964,104.6667 L68.371,104.6667 C68.571,103.0347 68.767,101.4387 68.968,99.8007 L64.105,99.8007 C64.406,97.3497 64.702,94.9397 65.002,92.4957 L62.61,92.4957 C62.71,91.6757 62.807,90.8897 62.907,90.0717 L65.294,90.0717 C65.394,89.2527 65.491,88.4667 65.592,87.6427 L65.221,87.6427 C63.34,87.6427 61.46,87.6437 59.58,87.6417 C59.174,87.6417 58.769,87.6297 58.364,87.6237 C58.367,87.4947 58.358,87.3657 58.374,87.2367 C58.536,85.8987 58.701,84.5617 58.865,83.2237 C58.881,83.0947 58.896,82.9667 58.917,82.7987 L56.516,82.7987 C56.618,81.9727 56.714,81.1867 56.81,80.3997 C56.917,80.3837 57.026,80.3567 57.132,80.3567 C57.725,80.3517 58.318,80.3437 58.908,80.3597 C59.158,80.3667 59.24,80.2797 59.261,80.0377 C59.301,79.5777 59.369,79.1177 59.426,78.6567 C59.455,78.4207 59.483,78.1857 59.512,77.9557 L57.118,77.9557 C57.015,78.7907 56.915,79.6007 56.816,80.4097 C56.349,80.3937 55.882,80.3727 55.414,80.3617 C55.068,80.3547 54.719,80.3607 54.338,80.3607 C54.44,79.5257 54.537,78.7397 54.633,77.9537 L52.206,77.9537 C52.107,78.7597 52.011,79.5447 51.914,80.3337 L49.464,80.3337 C49.563,79.5217 49.66,78.7357 49.76,77.9197 L47.332,77.9197 C47.434,77.0887 47.532,76.2887 47.63,75.4897 L47.621,75.4967 L52.529,75.4967 C52.632,74.6587 52.729,73.8637 52.826,73.0827 L62.533,73.0827 C62.513,73.2407 62.497,73.3727 62.481,73.5037 C62.215,75.6707 61.953,77.8377 61.678,80.0047 C61.643,80.2737 61.702,80.3637 61.982,80.3607 C63.358,80.3477 64.733,80.3547 66.107,80.3557 C66.234,80.3557 66.358,80.3667 66.48,80.3727 C66.378,81.2007 66.282,81.9867 66.182,82.8027 L61.365,82.8027 C61.266,83.6177 61.169,84.4017 61.069,85.2137 C61.665,85.2137 62.236,85.2147 62.807,85.2127 C64.655,85.2087 66.504,85.2037 68.352,85.1987 L68.346,85.1907 C68.047,87.6247 67.748,90.0587 67.449,92.4957 L77.158,92.4957 C77.259,91.6747 77.357,90.8757 77.455,90.0767 L77.446,90.0837 C78.264,90.0807 79.081,90.0767 79.899,90.0737 C79.801,90.8787 79.702,91.6837 79.599,92.5267 L82.04,92.5267 L82.032,92.5187 C81.933,93.3267 81.834,94.1347 81.731,94.9727 L79.318,94.9727 C79.12,96.5907 78.925,98.1777 78.726,99.7997 L81.142,99.7997 C81.041,100.6277 80.943,101.4227 80.845,102.2227 L83.289,102.2227 C83.389,101.4097 83.487,100.6157 83.587,99.7947 L86.003,99.7947 C86.024,99.6257 86.04,99.4847 86.059,99.3447 C86.147,98.6977 86.236,98.0507 86.324,97.4037 L86.318,97.4107 L88.733,97.4107 C88.637,98.1937 88.54,98.9767 88.44,99.7937 L90.84,99.7937 C90.64,101.4277 90.443,103.0257 90.243,104.6587 L85.427,104.6587 C85.324,105.4987 85.225,106.3057 85.126,107.1127 L85.134,107.1057 L80.242,107.1057 C80.038,108.7587 79.84,110.3787 79.641,111.9977 L79.649,111.9897 C79.595,111.9857 79.541,111.9777 79.487,111.9777 C76.377,111.9767 73.268,111.9757 70.158,111.9777 C70.086,111.9777 70.012,111.9997 69.909,112.0167 C69.812,112.8087 69.717,113.5847 69.616,114.4027 L62.316,114.4027 C62.214,115.2347 62.117,116.0247 62.02,116.8147 L62.029,116.8057 C61.337,116.8157 60.643,116.8377 59.953,116.8287 C59.685,116.8257 59.581,116.8957 59.555,117.1757 C59.491,117.8547 59.394,118.5347 59.308,119.2357 L52.03,119.2357 C52.126,118.4527 52.223,117.6687 52.323,116.8467 L47.461,116.8467 C47.563,116.0147 47.661,115.2197 47.763,114.3867 L48.126,114.3867 C49.489,114.3867 50.852,114.3887 52.216,114.3857 C52.345,114.3857 52.478,114.3617 52.609,114.3497 L52.601,114.3397 C52.501,115.1517 52.401,115.9637 52.299,116.8017 L59.59,116.8017 C59.686,116.0187 59.784,115.2237 59.886,114.3927 L62.307,114.3927 C62.407,113.5797 62.502,112.8037 62.602,111.9897 L60.202,111.9897 C60.503,109.5397 60.799,107.1277 61.098,104.6937 L58.66,104.6937 C58.462,106.3047 58.266,107.9057 58.066,109.5257 L53.236,109.5257 C53.333,108.7297 53.431,107.9357 53.532,107.1107 L55.914,107.1107 C56.015,106.2957 56.111,105.5087 56.213,104.6817 L58.626,104.6817 C58.727,103.8577 58.824,103.0727 58.925,102.2467 L54.105,102.2467 C54.206,101.4207 54.303,100.6347 54.402,99.8277 L51.97,99.8277 C51.872,100.6247 51.776,101.4097 51.673,102.2467 L49.23,102.2467 C49.129,103.0747 49.033,103.8517 48.935,104.6497 L46.465,104.6497 C46.564,103.8377 46.665,103.0187 46.766,102.2007 C47.279,102.2147 47.791,102.2317 48.304,102.2417 C48.605,102.2477 48.908,102.2427 49.208,102.2427 C49.311,101.4057 49.407,100.6217 49.505,99.8277 L47.067,99.8277 C46.968,100.6357 46.871,101.4227 46.774,102.2097 C46.236,102.2227 45.698,102.2367 45.161,102.2467 C44.91,102.2517 44.66,102.2477 44.388,102.2477 C44.188,103.8757 43.993,105.4637 43.793,107.0937 L48.629,107.0937 C48.527,107.9207 48.431,108.7077 48.33,109.5297 L50.745,109.5297 C50.644,110.3517 50.548,111.1387 50.448,111.9507 L45.599,111.9507 C45.696,111.1547 45.792,110.3687 45.893,109.5507 L43.474,109.5507 C43.575,108.7317 43.671,107.9437 43.771,107.1297 L41.37,107.1297 C41.173,108.7327 40.977,110.3317 40.776,111.9667 L43.168,111.9667 C43.068,112.7867 42.972,113.5717 42.871,114.3847 L45.275,114.3847 C45.173,115.2087 45.076,116.0037 44.974,116.8347 C44.289,116.8347 43.619,116.8497 42.955,116.8277 C42.652,116.8177 42.546,116.9097 42.521,117.2137 C42.474,117.7847 42.39,118.3577 42.314,118.9287 C42.299,119.0457 42.253,119.1627 42.221,119.2787 L42.231,119.2717 Z" id="Fill-12" fill="#143641"></path>
                            <path d="M72.9331,87.6233 L75.3061,87.6233 C75.4051,86.8213 75.5001,86.0383 75.5981,85.2493 L73.2251,85.2493 C73.1251,86.0543 73.0301,86.8293 72.9331,87.6233 L72.9331,87.6233 Z M69.2361,77.9403 L74.0861,77.9403 C74.1871,77.1183 74.2841,76.3313 74.3851,75.5043 L76.8151,75.5043 C77.0161,73.8663 77.2121,72.2673 77.4111,70.6473 L89.5641,70.6473 C89.4671,71.4443 89.3701,72.2283 89.2691,73.0513 L84.4321,73.0513 C84.3301,73.8753 84.2341,74.6623 84.1321,75.4923 L76.8461,75.4923 C76.7441,76.3203 76.6481,77.1063 76.5481,77.9213 L81.3641,77.9213 C81.2651,78.7353 81.1681,79.5213 81.0681,80.3333 L76.2391,80.3333 C76.3351,79.5493 76.4321,78.7633 76.5311,77.9543 L74.1021,77.9543 C74.0051,78.7493 73.9091,79.5353 73.8081,80.3583 L71.3971,80.3583 C71.2961,81.1833 71.2001,81.9693 71.0981,82.7953 L78.3611,82.7953 C78.2611,83.6093 78.1651,84.3843 78.0671,85.1863 L80.4971,85.1863 C80.5941,84.4013 80.6901,83.6153 80.7911,82.7923 L83.2181,82.7923 C83.4181,81.1633 83.6131,79.5723 83.8111,77.9563 L86.2521,77.9563 C86.1571,78.7393 86.0611,79.5163 85.9611,80.3323 C86.1331,80.3403 86.2791,80.3533 86.4271,80.3533 C86.9871,80.3553 87.5501,80.3463 88.1091,80.3573 C88.3231,80.3623 88.4061,80.2923 88.4291,80.0753 C88.4881,79.4923 88.5681,78.9093 88.6401,78.3263 C88.6541,78.2083 88.6681,78.0903 88.6851,77.9513 L91.1091,77.9513 C91.0131,78.7383 90.9161,79.5233 90.8151,80.3443 L88.4051,80.3443 C88.3041,81.1733 88.2061,81.9673 88.1041,82.7993 L83.2421,82.7993 C83.1421,83.6133 83.0471,84.3893 82.9471,85.2043 L87.7881,85.2043 C87.6871,86.0283 87.5911,86.8133 87.4891,87.6393 L89.9281,87.6393 C89.8271,88.4673 89.7301,89.2533 89.6291,90.0763 L87.2191,90.0763 L87.2241,90.0833 C87.3231,89.2773 87.4221,88.4703 87.5241,87.6433 L82.6311,87.6433 C82.7281,86.8463 82.8271,86.0493 82.9251,85.2453 L80.4911,85.2453 C80.3911,86.0623 80.2941,86.8533 80.1971,87.6433 L77.7741,87.6433 C77.7491,87.8433 77.7321,87.9943 77.7121,88.1463 C77.6241,88.7913 77.5351,89.4373 77.4461,90.0833 L77.4551,90.0763 L72.6021,90.0763 C72.7031,89.2533 72.8011,88.4583 72.9031,87.6243 L70.4731,87.6243 C70.5731,86.8093 70.6681,86.0333 70.7681,85.2193 C70.5871,85.2193 70.4351,85.2213 70.2841,85.2193 C69.6381,85.2103 68.9921,85.2003 68.3461,85.1913 L68.3521,85.1993 C68.6501,82.7763 68.9471,80.3543 69.2451,77.9313 L69.2361,77.9403 Z" id="Fill-14" fill="#143641"></path>
                            <path d="M57.0483,58.4683 C57.2453,56.8643 57.4423,55.2603 57.6443,53.6183 L55.2243,53.6183 C55.3253,52.7943 55.4223,52.0093 55.5213,51.2023 L65.2133,51.2023 C65.1153,51.9963 65.0203,52.7713 64.9223,53.5723 L67.3603,53.5723 C67.4563,52.7883 67.5523,52.0043 67.6513,51.2013 L77.3683,51.2013 C77.1713,52.8083 76.9763,54.3973 76.7773,56.0163 L74.3813,56.0163 C74.4783,55.2323 74.5743,54.4453 74.6743,53.6313 L69.7883,53.6313 C69.6893,54.4333 69.5933,55.2113 69.4933,56.0273 C69.3423,56.0343 69.2153,56.0453 69.0883,56.0453 C67.7353,56.0463 66.3813,56.0593 65.0313,56.0373 C64.6833,56.0313 64.6013,56.1433 64.5663,56.4653 C64.4173,57.8173 64.2413,59.1703 64.0753,60.5233 C64.0603,60.6413 64.0463,60.7593 64.0293,60.8943 L66.4583,60.8943 C66.5563,60.0923 66.6533,59.3053 66.7523,58.4943 L74.0583,58.4943 C73.9623,59.2853 73.8643,60.0803 73.7623,60.9083 L76.1773,60.9083 C76.0773,61.7273 75.9803,62.5133 75.8793,63.3383 L68.6163,63.3383 C68.5163,64.1523 68.4213,64.9283 68.3193,65.7563 L70.7323,65.7563 C70.6263,66.6173 70.5263,67.4283 70.4263,68.2393 L70.4353,68.2303 L67.9793,68.2303 C68.0843,67.3753 68.1813,66.5823 68.2783,65.7903 L65.8423,65.7903 L65.8483,65.7973 C65.9473,64.9883 66.0473,64.1803 66.1513,63.3353 L61.2923,63.3353 C61.3933,62.5123 61.4893,61.7253 61.5913,60.8993 L59.1783,60.8993 C59.2823,60.0583 59.3803,59.2573 59.4793,58.4573 L61.9043,58.4573 C61.9973,57.6953 62.0933,56.9623 62.1673,56.2293 C62.1733,56.1663 62.0393,56.0583 61.9563,56.0543 C61.5423,56.0363 61.1233,56.0463 60.7063,56.0463 L59.7853,56.0463 C59.6823,56.8883 59.5853,57.6783 59.4883,58.4673 C58.6723,58.4653 57.8563,58.4623 57.0403,58.4603 L57.0483,58.4683 Z" id="Fill-16" fill="#143641"></path>
                            <path d="M85.1259,107.1128 L89.9469,107.1128 C89.7469,108.7428 89.5499,110.3418 89.3499,111.9728 L84.5369,111.9728 C84.4379,112.7818 84.3419,113.5568 84.2409,114.3778 L86.6409,114.3778 C86.4389,116.0218 86.2429,117.6208 86.0449,119.2328 C85.2409,119.2328 84.4539,119.2328 83.6649,119.2338 C83.6609,119.1288 83.6459,119.0238 83.6579,118.9188 C83.7249,118.3378 83.7839,117.7558 83.8759,117.1758 C83.9199,116.8938 83.8289,116.8198 83.5609,116.8298 C83.0659,116.8488 82.5739,116.8348 82.0799,116.8348 L81.5139,116.8348 C81.4109,117.6768 81.3139,118.4598 81.2199,119.2268 L83.6749,119.2268 C83.6189,119.5428 83.5539,119.8578 83.5099,120.1738 C83.4409,120.6658 83.3869,121.1578 83.3239,121.6708 L76.0269,121.6708 C76.2239,120.0728 76.4189,118.4838 76.6189,116.8578 C76.4899,116.8488 76.3879,116.8358 76.2829,116.8358 C74.8869,116.8338 73.4889,116.8418 72.0939,116.8288 C71.8209,116.8268 71.7299,116.9048 71.6989,117.1798 C71.5449,118.5428 71.3709,119.9068 71.2029,121.2698 C71.1869,121.3988 71.1709,121.5278 71.1529,121.6738 L68.7339,121.6738 C68.8319,120.8768 68.9289,120.0828 69.0279,119.2748 L66.6159,119.2748 C66.5189,120.0728 66.4219,120.8588 66.3229,121.6678 L63.8689,121.6678 C63.9659,120.8768 64.0629,120.0908 64.1639,119.2698 L61.7269,119.2698 C61.8309,118.4248 61.9299,117.6158 62.0289,116.8058 C62.0289,116.8058 62.0209,116.8148 62.0209,116.8148 C62.0849,116.8188 62.1499,116.8278 62.2159,116.8278 C65.3039,116.8288 68.3929,116.8288 71.4809,116.8278 C71.5639,116.8278 71.6489,116.8088 71.7639,116.7948 C71.8639,115.9838 71.9599,115.1978 72.0619,114.3698 L79.3569,114.3698 C79.4579,113.5478 79.5539,112.7688 79.6489,111.9898 L79.6409,111.9978 L82.0889,111.9978 C82.1949,111.1338 82.2909,110.3578 82.3909,109.5408 L84.8069,109.5408 C84.8289,109.3598 84.8449,109.2198 84.8639,109.0788 C84.9539,108.4208 85.0439,107.7628 85.1339,107.1058 L85.1259,107.1128 Z" id="Fill-18" fill="#143641"></path>
                            <path d="M20.4155,119.2354 L32.5355,119.2354 C33.0325,115.1844 33.5275,111.1554 34.0215,107.1274 L21.9025,107.1274 C21.4055,111.1714 20.9125,115.1914 20.4155,119.2354 L20.4155,119.2354 Z M17.6815,121.6654 C18.3765,116.0034 19.0685,110.3634 19.7645,104.6974 L36.7555,104.6974 C36.0625,110.3454 35.3695,115.9934 34.6725,121.6654 L17.6815,121.6654 Z" id="Fill-20" fill="#143641"></path>
                            <path d="M92.5732,65.7676 C93.0732,61.6926 93.5682,57.6646 94.0652,53.6206 C93.9332,53.6136 93.8252,53.6046 93.7172,53.6046 C89.9252,53.6036 86.1322,53.6076 82.3402,53.5966 C82.0102,53.5956 81.9342,53.7046 81.8972,54.0096 C81.4432,57.7916 80.9792,61.5726 80.5032,65.3546 C80.4612,65.6876 80.5362,65.7766 80.8712,65.7756 C84.6432,65.7636 88.4132,65.7676 92.1842,65.7676 L92.5732,65.7676 Z M77.7252,68.2156 C78.4252,62.5166 79.1172,56.8786 79.8132,51.2106 L96.8342,51.2106 C96.8172,51.3496 96.8012,51.4776 96.7852,51.6056 C96.1222,57.0046 95.4572,62.4036 94.8042,67.8026 C94.7642,68.1286 94.6792,68.2256 94.3362,68.2246 C88.9272,68.2126 83.5172,68.2156 78.1072,68.2156 L77.7252,68.2156 Z" id="Fill-22" fill="#143641"></path>
                            <path d="M40.5981,53.6306 L28.4751,53.6306 C27.9771,57.6806 27.4841,61.7026 26.9871,65.7466 L39.1101,65.7466 C39.6071,61.7026 40.1011,57.6806 40.5981,53.6306 M41.2391,68.1986 L24.2571,68.1986 C24.9521,62.5336 25.6461,56.8866 26.3431,51.2096 L43.3251,51.2096 C42.6311,56.8636 41.9371,62.5126 41.2391,68.1986" id="Fill-24" fill="#143641"></path>
                            <path d="M37.6279,77.9402 C37.7259,77.1422 37.8239,76.3432 37.9269,75.5052 L40.3599,75.5052 C40.4319,74.9222 40.4949,74.3782 40.5669,73.8342 C40.6029,73.5632 40.6559,73.2922 40.7009,73.0212 L40.6949,73.0262 C40.7689,73.0362 40.8409,73.0552 40.9169,73.0552 C43.1709,73.0562 45.4269,73.0562 47.6819,73.0552 C47.7559,73.0552 47.8319,73.0492 47.9249,73.0452 C48.0229,72.2482 48.1189,71.4722 48.2199,70.6452 L43.4049,70.6452 C44.0039,65.7602 44.5979,60.9262 45.1949,56.0662 L47.6019,56.0662 C47.1079,60.0902 46.6129,64.1192 46.1149,68.1802 L48.5429,68.1802 C49.0399,64.1392 49.5339,60.1082 50.0309,56.0592 L52.4399,56.0592 C52.3429,56.8432 52.2469,57.6282 52.1439,58.4682 L57.0479,58.4682 L57.0409,58.4602 C56.8419,60.0822 56.6429,61.7042 56.4429,63.3262 L54.0059,63.3262 C54.1049,62.5222 54.2019,61.7362 54.2999,60.9382 L51.8569,60.9382 C51.3599,64.9832 50.8659,69.0012 50.3679,73.0602 L47.9489,73.0602 C47.9269,73.2412 47.9109,73.3822 47.8919,73.5222 C47.8019,74.1802 47.7119,74.8392 47.6219,75.4972 L47.6299,75.4892 L45.2329,75.4892 C45.1299,76.3262 45.0339,77.1122 44.9329,77.9312 L37.6209,77.9312 L37.6279,77.9402 Z" id="Fill-26" fill="#143641"></path>
                            <path d="M33.0947,94.9692 C33.2927,93.3552 33.4907,91.7402 33.6917,90.1052 L31.2797,90.1052 C31.1817,90.8972 31.0847,91.6912 30.9837,92.5142 L28.5617,92.5142 C28.4607,93.3372 28.3627,94.1322 28.2627,94.9432 L25.8357,94.9432 C25.9337,94.1412 26.0317,93.3472 26.1327,92.5262 L28.5157,92.5262 C28.7167,90.8932 28.9137,89.2872 29.1147,87.6492 L21.8707,87.6492 C22.0707,86.0282 22.2647,84.4392 22.4637,82.8232 L27.2927,82.8232 C27.1967,83.6062 27.1007,84.3832 27.0007,85.2052 L31.8677,85.2052 C31.7657,86.0362 31.6697,86.8232 31.5707,87.6252 L33.9707,87.6252 C34.1667,86.0312 34.3627,84.4342 34.5627,82.8102 L32.1897,82.8102 C32.2907,81.9902 32.3877,81.1962 32.4877,80.3832 L34.8867,80.3832 L34.8787,80.3742 C34.7817,81.1702 34.6837,81.9662 34.5817,82.7972 C34.7897,82.7972 34.9417,82.7952 35.0927,82.7972 C35.7377,82.8052 36.3827,82.8152 37.0277,82.8242 L37.0207,82.8162 C36.9247,83.6042 36.8277,84.3922 36.7287,85.1992 L39.1787,85.1992 L39.1727,85.1912 C39.0747,86.0082 38.9777,86.8242 38.8817,87.6412 L36.4607,87.6412 C36.3567,88.4862 36.2607,89.2712 36.1617,90.0742 L38.5827,90.0742 C38.4787,90.8912 38.3747,91.7092 38.2707,92.5262 L38.2807,92.5182 L35.8287,92.5182 C35.7247,93.3702 35.6267,94.1692 35.5287,94.9692 L35.5377,94.9602 L33.0877,94.9602 L33.0947,94.9692 Z" id="Fill-28" fill="#143641"></path>
                            <path d="M33.3378,73.0786 L30.9708,73.0786 C30.8708,73.8946 30.7738,74.6876 30.6758,75.4786 L33.0438,75.4786 C33.1428,74.6726 33.2388,73.8876 33.3378,73.0786 M40.7008,73.0206 C40.5808,73.0326 40.4598,73.0546 40.3408,73.0546 C38.9548,73.0576 37.5688,73.0566 36.1828,73.0566 L35.7948,73.0566 C35.6938,73.8796 35.5968,74.6656 35.4958,75.4936 L33.0688,75.4936 C32.9668,76.3206 32.8708,77.1066 32.7708,77.9246 L25.4858,77.9246 C25.3858,78.7416 25.2898,79.5276 25.1898,80.3376 L22.7728,80.3376 C23.1688,77.1126 23.5648,73.8876 23.9628,70.6446 L26.3628,70.6446 C26.2648,71.4416 26.1688,72.2276 26.0688,73.0346 L28.4998,73.0346 C28.5968,72.2406 28.6938,71.4536 28.7928,70.6476 L40.9848,70.6476 C40.8868,71.4526 40.7898,72.2396 40.6938,73.0266 C40.6948,73.0266 40.7008,73.0206 40.7008,73.0206" id="Fill-30" fill="#143641"></path>
                            <path d="M34.8862,80.3833 C34.9842,79.5823 35.0822,78.7823 35.1862,77.9403 L37.6282,77.9403 L37.6202,77.9313 C37.5232,78.7283 37.4252,79.5253 37.3232,80.3583 L44.6522,80.3583 C44.5482,81.2043 44.4492,82.0143 44.3492,82.8243 L44.3562,82.8183 L41.8812,82.8183 C41.7812,83.6333 41.6852,84.4073 41.5892,85.1913 L39.1722,85.1913 L39.1782,85.1993 C39.2752,84.4113 39.3722,83.6243 39.4712,82.8163 L37.0212,82.8163 L37.0282,82.8243 C37.1282,82.0083 37.2282,81.1913 37.3282,80.3743 L34.8792,80.3743 L34.8862,80.3833 Z" id="Fill-32" fill="#143641"></path>
                            <path d="M21.5668,90.094 L23.9598,90.094 C23.4638,94.132 22.9688,98.161 22.4708,102.219 L20.0778,102.219 C20.5738,98.181 21.0688,94.151 21.5668,90.094" id="Fill-34" fill="#143641"></path>
                            <path d="M70.4267,68.2397 C71.0747,68.2297 71.7237,68.2197 72.3717,68.2097 C72.5237,68.2077 72.6757,68.2097 72.8637,68.2097 C72.9647,67.3877 73.0607,66.6027 73.1597,65.7927 L75.5747,65.7927 C75.3777,67.3987 75.1807,68.9957 74.9797,70.6347 L72.5797,70.6347 C72.3797,72.2657 72.1837,73.8557 71.9837,75.4887 L69.5367,75.4887 L69.5437,75.4977 C69.8417,73.0747 70.1387,70.6527 70.4357,68.2297 L70.4267,68.2397 Z" id="Fill-36" fill="#143641"></path>
                            <path d="M87.2187,90.0759 C87.1037,90.9749 86.9827,91.8739 86.8727,92.7729 C86.6847,94.3189 86.5027,95.8649 86.3177,97.4109 L86.3237,97.4039 L83.8647,97.4039 C84.0687,95.7449 84.2647,94.1459 84.4647,92.5179 L82.0317,92.5179 L82.0397,92.5269 C82.1367,91.7099 82.2337,90.8919 82.3307,90.0739 C83.9617,90.0769 85.5937,90.0809 87.2237,90.0839 L87.2187,90.0759 Z" id="Fill-38" fill="#143641"></path>
                            <path d="M27.6523,99.8047 L30.0563,99.8047 C29.9553,100.6237 29.8593,101.4087 29.7593,102.2207 L24.9393,102.2207 C25.1363,100.6197 25.3313,99.0317 25.5293,97.4137 L27.9463,97.4137 C27.8493,98.1977 27.7543,98.9727 27.6523,99.8047" id="Fill-40" fill="#143641"></path>
                            <path d="M69.5366,75.4888 C69.4366,76.3058 69.3356,77.1228 69.2356,77.9398 L69.2446,77.9318 L66.8266,77.9318 C66.9286,77.0988 67.0256,76.3068 67.1256,75.4978 L69.5436,75.4978 L69.5366,75.4888 Z" id="Fill-42" fill="#143641"></path>
                            <path d="M93.8232,75.4863 L91.4332,75.4863 C91.5312,74.6843 91.6292,73.8903 91.7292,73.0763 L94.1192,73.0763 C94.0222,73.8673 93.9252,74.6603 93.8232,75.4863" id="Fill-44" fill="#143641"></path>
                            <path d="M39.894,119.2695 C39.81,119.8605 39.724,120.4505 39.642,121.0405 C39.612,121.2465 39.59,121.4525 39.563,121.6735 L37.144,121.6735 C37.241,120.8785 37.338,120.0865 37.438,119.2765 C38.263,119.2765 39.082,119.2765 39.902,119.2765 C39.903,119.2775 39.894,119.2695 39.894,119.2695" id="Fill-46" fill="#143641"></path>
                            <path d="M89.3295,92.5374 L91.7405,92.5374 C91.6415,93.3434 91.5445,94.1304 91.4455,94.9384 L89.0345,94.9384 C89.1325,94.1404 89.2295,93.3534 89.3295,92.5374" id="Fill-48" fill="#143641"></path>
                            <path d="M42.2207,119.2791 L44.6747,119.2791 C44.5777,120.0661 44.4817,120.8511 44.3817,121.6641 L41.9387,121.6641 C42.0377,120.8631 42.1357,120.0661 42.2317,119.2701 C42.2307,119.2711 42.2207,119.2791 42.2207,119.2791" id="Fill-50" fill="#143641"></path>
                            <path d="M49.2509,121.6819 L46.8709,121.6819 C46.9689,120.8869 47.0659,120.0929 47.1659,119.2789 L49.5459,119.2789 C49.4499,120.0619 49.3529,120.8559 49.2509,121.6819" id="Fill-52" fill="#143641"></path>
                            <path d="M90.2231,85.2163 C90.3241,84.3913 90.4181,83.6263 90.5161,82.8283 L92.9481,82.8283 C92.8561,83.5763 92.7681,84.3193 92.6661,85.0613 C92.6601,85.1133 92.5451,85.2083 92.4891,85.2093 C91.7431,85.2193 90.9981,85.2163 90.2231,85.2163" id="Fill-54" fill="#143641"></path>
                            <path d="M52.6093,114.3494 C52.7043,113.5734 52.7993,112.7964 52.8983,111.9954 L55.3133,111.9954 C55.2163,112.7824 55.1203,113.5644 55.0183,114.3924 C54.3763,114.3924 53.7433,114.3964 53.1113,114.3904 C52.9393,114.3884 52.7713,114.3584 52.6013,114.3404 C52.6013,114.3404 52.6093,114.3494 52.6093,114.3494" id="Fill-56" fill="#143641"></path>
                            <path d="M44.3491,82.8247 C44.4261,82.8157 44.5041,82.7977 44.5791,82.7977 C46.8341,82.7967 49.0891,82.7967 51.3431,82.7977 C51.4181,82.7977 51.4931,82.8087 51.6031,82.8167 C51.4071,84.4117 51.2121,86.0007 51.0131,87.6217 L53.4321,87.6217 C53.3311,88.4477 53.2331,89.2417 53.1331,90.0607 L43.4651,90.0607 C43.5631,89.2637 43.6611,88.4697 43.7621,87.6447 L48.5631,87.6447 C48.6631,86.8277 48.7591,86.0427 48.8611,85.2187 L44.0621,85.2187 C44.1631,84.3917 44.2601,83.6047 44.3561,82.8177 L44.3491,82.8247 Z" id="Fill-58" fill="#143641"></path>
                            <path d="M38.5703,90.085 C38.6713,89.268 38.7713,88.45 38.8713,87.633 L41.2813,87.633 C41.1803,88.456 41.0843,89.24 40.9803,90.085 L38.5703,90.085 Z" id="Fill-60" fill="#143641"></path>
                            <path d="M44.6464,99.7776 L42.2784,99.7776 C42.3734,99.0036 42.4694,98.2206 42.5684,97.4106 L44.9304,97.4106 C44.8324,98.2116 44.7354,98.9976 44.6394,99.7846 L44.6464,99.7776 Z" id="Fill-62" fill="#143641"></path>
                            <path d="M65.2583,70.6047 L62.8493,70.6047 C63.0463,68.9947 63.2413,67.4057 63.4393,65.7967 L65.8483,65.7967 L65.8423,65.7907 C65.8013,66.2047 65.7683,66.6197 65.7163,67.0347 C65.5653,68.2267 65.4063,69.4187 65.2513,70.6107 L65.2583,70.6047 Z" id="Fill-64" fill="#143641"></path>
                            <path d="M58.604,65.7688 C59.364,65.7688 60.099,65.7648 60.832,65.7768 C60.893,65.7778 60.99,65.8868 60.983,65.9458 C60.798,67.4848 60.602,69.0228 60.407,70.5608 C60.406,70.5698 60.393,70.5788 60.367,70.6098 L58.01,70.6098 C58.207,69.0038 58.402,67.4148 58.604,65.7688" id="Fill-66" fill="#143641"></path>
                            <path d="M65.2509,70.6108 L67.6769,70.6108 C67.5749,71.4378 67.4789,72.2228 67.3799,73.0318 L64.9599,73.0318 C65.0599,72.2238 65.1589,71.4138 65.2579,70.6048 L65.2509,70.6108 Z" id="Fill-68" fill="#143641"></path>
                            <path d="M55.8276,68.197 L53.4286,68.197 C53.5266,67.393 53.6236,66.607 53.7236,65.794 L56.1226,65.794 C56.0246,66.594 55.9276,67.38 55.8276,68.197" id="Fill-70" fill="#143641"></path>
                            <path d="M75.6626,104.6921 C75.5636,105.4941 75.4676,106.2801 75.3696,107.0851 L72.9556,107.0851 C73.0546,106.2821 73.1506,105.4971 73.2496,104.6921 L75.6626,104.6921 Z" id="Fill-72" fill="#143641"></path>
                            <path d="M80.1889,87.6328 L82.6409,87.6328 C82.5409,88.4498 82.4399,89.2678 82.3399,90.0848 L79.8879,90.0848 C79.9879,89.2678 80.0879,88.4498 80.1889,87.6328" id="Fill-74" fill="#143641"></path>
                            <path d="M31.2915,109.5671 C30.9945,111.9891 30.7005,114.3821 30.4025,116.8051 L23.1585,116.8051 C23.4535,114.4051 23.7495,111.9971 24.0475,109.5671 L31.2915,109.5671 Z" id="Fill-76" fill="#143641"></path>
                            <path d="M90.4633,63.3313 L83.2013,63.3313 C83.4993,60.9063 83.7953,58.4943 84.0943,56.0613 L91.3563,56.0613 C91.0583,58.4843 90.7623,60.8943 90.4633,63.3313" id="Fill-78" fill="#143641"></path>
                            <path d="M36.9565,63.3323 L29.7175,63.3323 C30.0155,60.9093 30.3105,58.4973 30.6105,56.0633 L37.8495,56.0633 C37.5525,58.4813 37.2555,60.8933 36.9565,63.3323" id="Fill-80" fill="#143641"></path>
                            <polygon id="Fill-82" fill="#3B77BC" points="5.5244 132.2024 2.6104 155.9324 96.2714 155.9324 99.1854 132.2024"></polygon>
                            <path d="M37.1186,142.8237 L21.1136,142.8237 C20.1266,142.8237 19.2936,143.5597 19.1736,144.5397 C19.0306,145.7047 19.9396,146.7327 21.1136,146.7327 L37.1186,146.7327 C38.1056,146.7327 38.9376,145.9957 39.0576,145.0157 C39.2016,143.8507 38.2926,142.8237 37.1186,142.8237" id="Fill-84" fill="#FFFFFF"></path>
                            <polygon id="Fill-86" fill="#61B446" points="56.3217 150.6582 44.2137 150.6582 45.7007 138.5502 57.8087 138.5502"></polygon>
                            <polygon id="Fill-88" fill="#143641" points="77.893 150.6582 59.171 150.6582 60.658 138.5502 79.38 138.5502"></polygon>
                            <path d="M68.184,144.1436 C68.303,143.1796 68.824,142.3176 69.553,141.7086 C69.025,141.1556 68.276,140.8096 67.398,140.8096 C65.557,140.8096 63.881,142.3026 63.655,144.1436 C63.43,145.9846 64.739,147.4766 66.58,147.4766 C67.457,147.4766 68.291,147.1306 68.955,146.5776 C68.375,145.9686 68.066,145.1066 68.184,144.1436" id="Fill-90" fill="#E0121A"></path>
                            <path d="M71.9272,140.8096 C71.0502,140.8096 70.2162,141.1556 69.5522,141.7086 C70.1322,142.3176 70.4412,143.1796 70.3232,144.1436 C70.2042,145.1066 69.6832,145.9686 68.9542,146.5776 C69.4822,147.1306 70.2312,147.4766 71.1092,147.4766 C72.9502,147.4766 74.6262,145.9846 74.8512,144.1436 C75.0772,142.3026 73.7682,140.8096 71.9272,140.8096" id="Fill-92" fill="#F8A312"></path>
                            <path d="M70.3232,144.1436 C70.4412,143.1796 70.1322,142.3176 69.5522,141.7086 C68.8232,142.3176 68.3022,143.1796 68.1842,144.1436 C68.0662,145.1066 68.3752,145.9686 68.9542,146.5776 C69.6832,145.9686 70.2042,145.1066 70.3232,144.1436" id="Fill-94" fill="#EF6F19"></path>
                            <path d="M52.3256,142.8252 C52.1456,144.2892 50.8136,145.4752 49.3496,145.4752 C47.8856,145.4752 46.8446,144.2892 47.0246,142.8252 C47.2036,141.3612 48.5366,140.1742 50.0006,140.1742 C51.4646,140.1742 52.5056,141.3612 52.3256,142.8252" id="Fill-96" fill="#FFFFFF"></path>
                            <path d="M52.1577,148.1807 C51.3807,148.1807 50.6847,147.8777 50.1977,147.3267 C49.7057,146.7707 49.4887,146.0337 49.5847,145.2497 C49.7787,143.6667 51.2247,142.3797 52.8087,142.3797 C53.5857,142.3797 54.2817,142.6827 54.7687,143.2327 C55.2607,143.7887 55.4777,144.5267 55.3817,145.3097 C55.1877,146.8927 53.7407,148.1807 52.1577,148.1807" id="Fill-98" fill="#FFFFFF"></path>
                            <path d="M52.8085,142.1294 C51.1025,142.1294 49.5455,143.5154 49.3365,145.2194 C49.2305,146.0744 49.4705,146.8824 50.0105,147.4924 C50.5455,148.0974 51.3085,148.4304 52.1575,148.4304 C53.8635,148.4304 55.4205,147.0444 55.6295,145.3404 C55.7345,144.4844 55.4955,143.6774 54.9555,143.0664 C54.4205,142.4624 53.6575,142.1294 52.8085,142.1294 M52.8085,142.6294 C54.2725,142.6294 55.3135,143.8164 55.1335,145.2794 C54.9545,146.7434 53.6215,147.9304 52.1575,147.9304 C50.6935,147.9304 49.6525,146.7434 49.8325,145.2794 C50.0125,143.8164 51.3445,142.6294 52.8085,142.6294" id="Fill-100" fill="#61B446"></path>
                            <path d="M115.1435,0.5581 L115.1435,0.0001 L23.7085,0.0001 C22.5935,0.0001 21.6535,0.8311 21.5175,1.9381 L16.8355,40.0741 L110.4965,40.0741 L115.3475,0.5581 L115.1435,0.5581 Z" id="Fill-102" fill="#3B77BC"></path>
                            <path d="M51.3999,22.3442 L52.2159,21.3812 C52.6289,21.8992 53.3439,22.3652 54.3289,22.3652 C55.3449,22.3652 55.7969,21.8682 55.8559,21.3912 C56.0379,19.9102 51.8189,20.8302 52.1369,18.2382 C52.2809,17.0632 53.4069,16.1642 54.9629,16.1642 C56.0529,16.1642 56.9089,16.5232 57.4759,17.1582 L56.6649,18.0792 C56.1719,17.5182 55.4519,17.2642 54.7119,17.2642 C53.9919,17.2642 53.4829,17.6242 53.4189,18.1422 C53.2559,19.4652 57.4619,18.6502 57.1399,21.2752 C56.9959,22.4492 56.0349,23.4652 54.1409,23.4652 C52.8389,23.4652 51.9549,23.0002 51.3999,22.3442" id="Fill-104" fill="#FFFFFF"></path>
                            <path d="M61.4487,23.3389 L61.8417,20.1429 C61.9397,19.3389 61.5587,19.0849 60.9337,19.0849 C60.3727,19.0849 59.8447,19.4229 59.5387,19.7619 L59.0997,23.3389 L57.9887,23.3389 L58.6157,18.2269 L59.7267,18.2269 L59.6427,18.9149 C60.0307,18.5139 60.7477,18.1009 61.5527,18.1009 C62.6527,18.1009 63.1297,18.6929 63.0017,19.7409 L62.5597,23.3389 L61.4487,23.3389 Z" id="Fill-106" fill="#FFFFFF"></path>
                            <path d="M67.1328,23.3389 L67.2018,22.7779 C66.7668,23.2229 66.1328,23.4659 65.4558,23.4659 C64.6308,23.4659 63.7588,22.8939 63.8968,21.7729 C64.0418,20.5869 65.0328,20.1009 65.8688,20.1009 C66.5678,20.1009 67.1228,20.3229 67.4498,20.7559 L67.5438,19.9949 C67.6158,19.4019 67.1628,19.0429 66.4648,19.0429 C65.8938,19.0429 65.3598,19.2539 64.8708,19.6979 L64.4998,18.9259 C65.1628,18.3549 65.9348,18.1009 66.7498,18.1009 C67.8918,18.1009 68.8288,18.5769 68.6608,19.9419 L68.2438,23.3389 L67.1328,23.3389 Z M67.2758,22.1749 L67.3718,21.3909 C67.1508,21.0429 66.6958,20.8629 66.2198,20.8629 C65.5958,20.8629 65.0738,21.2329 65.0068,21.7839 C64.9378,22.3439 65.3698,22.7039 65.9938,22.7039 C66.4698,22.7039 66.9678,22.5239 67.2758,22.1749 L67.2758,22.1749 Z" id="Fill-108" fill="#FFFFFF"></path>
                            <path d="M70.8828,22.6299 L70.5568,25.2859 L69.4458,25.2859 L70.3128,18.2269 L71.4238,18.2269 L71.3378,18.9259 C71.7808,18.4179 72.4128,18.1009 73.0788,18.1009 C74.4018,18.1009 75.2218,19.0949 75.0148,20.7779 C74.8088,22.4609 73.7428,23.4659 72.4198,23.4659 C71.7748,23.4659 71.2398,23.1699 70.8828,22.6299 M73.8718,20.7779 C73.9938,19.7839 73.5078,19.0849 72.6298,19.0849 C72.1118,19.0849 71.5358,19.3809 71.2348,19.7619 L70.9868,21.7839 C71.1838,22.1639 71.6948,22.4819 72.2128,22.4819 C73.0908,22.4819 73.7498,21.7729 73.8718,20.7779" id="Fill-110" fill="#FFFFFF"></path>
                            <path d="M75.5117,22.3442 L76.3287,21.3812 C76.7407,21.8992 77.4557,22.3652 78.4407,22.3652 C79.4567,22.3652 79.9087,21.8682 79.9677,21.3912 C80.1487,19.9102 75.9307,20.8302 76.2487,18.2382 C76.3927,17.0632 77.5187,16.1642 79.0747,16.1642 C80.1647,16.1642 81.0207,16.5232 81.5877,17.1582 L80.7767,18.0792 C80.2847,17.5182 79.5637,17.2642 78.8237,17.2642 C78.1037,17.2642 77.5947,17.6242 77.5307,18.1422 C77.3677,19.4652 81.5737,18.6502 81.2517,21.2752 C81.1077,22.4492 80.1467,23.4652 78.2527,23.4652 C76.9507,23.4652 76.0657,23.0002 75.5117,22.3442" id="Fill-112" fill="#FFFFFF"></path>
                            <path d="M82.1074,20.7778 C82.2974,19.2328 83.5264,18.1008 85.0714,18.1008 C86.0764,18.1008 86.6174,18.5238 86.9174,19.0108 L86.1054,19.6768 C85.8694,19.2748 85.5014,19.0848 85.0034,19.0848 C84.0824,19.0848 83.3734,19.7828 83.2514,20.7778 C83.1284,21.7728 83.6654,22.4818 84.5864,22.4818 C85.0844,22.4818 85.5014,22.2698 85.8364,21.8678 L86.4824,22.5558 C86.0634,23.0318 85.4184,23.4658 84.4134,23.4658 C82.8674,23.4658 81.9184,22.3228 82.1074,20.7778" id="Fill-114" fill="#FFFFFF"></path>
                            <path d="M90.5039,23.3389 L90.5729,22.7779 C90.1369,23.2229 89.5039,23.4659 88.8259,23.4659 C88.0019,23.4659 87.1299,22.8939 87.2679,21.7729 C87.4129,20.5869 88.4039,20.1009 89.2399,20.1009 C89.9389,20.1009 90.4929,20.3229 90.8209,20.7559 L90.9139,19.9949 C90.9869,19.4019 90.5339,19.0429 89.8359,19.0429 C89.2639,19.0429 88.7309,19.2539 88.2419,19.6979 L87.8709,18.9259 C88.5339,18.3549 89.3059,18.1009 90.1209,18.1009 C91.2639,18.1009 92.1989,18.5769 92.0319,19.9419 L91.6149,23.3389 L90.5039,23.3389 Z M90.6469,22.1749 L90.7429,21.3909 C90.5209,21.0429 90.0669,20.8629 89.5899,20.8629 C88.9659,20.8629 88.4449,21.2329 88.3779,21.7839 C88.3089,22.3439 88.7399,22.7039 89.3649,22.7039 C89.8409,22.7039 90.3389,22.5239 90.6469,22.1749 L90.6469,22.1749 Z" id="Fill-116" fill="#FFFFFF"></path>
                            <path d="M96.5156,23.3389 L96.9086,20.1429 C97.0066,19.3389 96.6256,19.0849 96.0006,19.0849 C95.4406,19.0849 94.9116,19.4229 94.6056,19.7619 L94.1656,23.3389 L93.0556,23.3389 L93.6826,18.2269 L94.7936,18.2269 L94.7096,18.9149 C95.0976,18.5139 95.8146,18.1009 96.6196,18.1009 C97.7206,18.1009 98.1976,18.6929 98.0686,19.7409 L97.6266,23.3389 L96.5156,23.3389 Z" id="Fill-118" fill="#FFFFFF"></path>
                            <path d="M41.5937,13.4731 C37.9637,13.4731 34.6607,16.4161 34.2147,20.0451 C33.7687,23.6751 36.3497,26.6171 39.9797,26.6171 C43.6097,26.6171 46.9127,23.6751 47.3587,20.0451 C47.8047,16.4161 45.2237,13.4731 41.5937,13.4731 M40.0337,26.1781 C36.6477,26.1781 34.2387,23.4321 34.6547,20.0451 C35.0707,16.6591 38.1537,13.9131 41.5397,13.9131 C44.9267,13.9131 47.3347,16.6591 46.9197,20.0451 C46.5037,23.4321 43.4207,26.1781 40.0337,26.1781" id="Fill-120" fill="#FFFFFF"></path>
                            <path d="M40.2617,17.2095 L38.7317,17.2095 C38.4907,17.2095 38.2717,17.4045 38.2417,17.6455 L38.0537,19.1725 C38.0247,19.4145 38.1957,19.6095 38.4367,19.6095 L39.9677,19.6095 C40.2077,19.6095 40.4277,19.4145 40.4567,19.1725 L40.6447,17.6455 C40.6747,17.4045 40.5027,17.2095 40.2617,17.2095" id="Fill-122" fill="#FFFFFF"></path>
                            <path d="M43.5385,17.2095 L42.0085,17.2095 C41.7675,17.2095 41.5485,17.4045 41.5185,17.6455 L41.3305,19.1725 C41.3015,19.4145 41.4725,19.6095 41.7135,19.6095 L43.2445,19.6095 C43.4845,19.6095 43.7045,19.4145 43.7335,19.1725 L43.9215,17.6455 C43.9515,17.4045 43.7795,17.2095 43.5385,17.2095" id="Fill-124" fill="#FFFFFF"></path>
                            <path d="M39.8598,20.4817 L38.3298,20.4817 C38.0888,20.4817 37.8698,20.6777 37.8398,20.9187 L37.6518,22.4457 C37.6228,22.6867 37.7938,22.8817 38.0348,22.8817 L39.5658,22.8817 C39.8058,22.8817 40.0258,22.6867 40.0548,22.4457 L40.2428,20.9187 C40.2728,20.6777 40.1008,20.4817 39.8598,20.4817" id="Fill-126" fill="#FFFFFF"></path>
                            <path d="M117.3476,2.4951 C117.4976,1.2771 116.6306,0.1671 115.4116,0.0181 C114.1986,-0.1329 113.0846,0.7351 112.9346,1.9531 L108.2546,40.0741 L112.7336,40.0741 L117.3476,2.4951 Z" id="Fill-128" fill="#2C598D"></path>
                            <polygon id="Fill-130" fill="#2C598D" points="94.0288 155.9321 98.5078 155.9321 101.4218 132.2021 96.9428 132.2021"></polygon>
                        </g>
                    </g>
                </g>
            </g>
        </g>
    </g>
</svg>