<?xml version="1.0" encoding="UTF-8"?>
<svg width="240px" height="240px" viewBox="0 0 240 240" version="1.1" xmlns="http://www.w3.org/2000/svg" xmlns:xlink="http://www.w3.org/1999/xlink">
    <!-- Generator: Sketch 53 (72520) - https://sketchapp.com -->
    <title>img-for-user</title>
    <desc>Created with Sketch.</desc>
    <defs>
        <circle id="path-1" cx="103.55" cy="103.55" r="103.5"></circle>
        <polygon id="path-3" points="0.264578821 0.409604608 32.5298316 0.409604608 32.5298316 30.8249206 0.264578821 30.8249206"></polygon>
        <polygon id="path-5" points="0.456609773 0.348161639 26.83071 0.348161639 26.83071 13.9773932 0.456609773 13.9773932"></polygon>
    </defs>
    <g id="Page-1" stroke="none" stroke-width="1" fill="none" fill-rule="evenodd">
        <g id="SnapScan-Assets" transform="translate(-356.000000, -254.000000)">
            <g id="img-for-user" transform="translate(356.000000, 254.000000)">
                <g id="Group-5" transform="translate(15.000000, 12.000000)">
                    <g id="Group-6-Copy">
                        <mask id="mask-2" fill="white">
                            <use xlink:href="#path-1"></use>
                        </mask>
                        <use id="Oval" stroke="#E8F2FF" stroke-width="1.15" fill="#F9FBFD" fill-rule="nonzero" xlink:href="#path-1"></use>
                        <g id="Group-25" opacity="0.25" mask="url(#mask-2)">
                            <g transform="translate(17.980000, 11.320000)">
                                <path d="M84.0764667,31.4980375 L88.1848788,18.6678495 C85.0577636,18.8685661 81.9163282,18.983879 78.7681,19.0146892 L84.0764667,31.4980375 Z" id="Fill-31" stroke="none" fill="#C3D8EE" fill-rule="evenodd"></path>
                                <path d="M69.378199,31.4356604 L74.6559059,19.0065452 C71.5236501,18.9631227 68.3875389,18.8364586 65.2545488,18.6236702 L69.378199,31.4356604 Z" id="Fill-32" stroke="none" fill="#C3D8EE" fill-rule="evenodd"></path>
                                <path d="M54.6681081,30.3166923 L61.0912427,18.2897311 C57.9474207,18.0000073 54.8098408,17.6243393 51.6862138,17.161646 L54.6681081,30.3166923 Z" id="Fill-33" stroke="none" fill="#C3D8EE" fill-rule="evenodd"></path>
                                <path d="M40.0365392,27.9848661 L47.5221183,16.4924885 C44.3961046,15.9496168 41.287165,15.3180981 38.2024594,14.5986534 L40.0365392,27.9848661 Z" id="Fill-34" stroke="none" fill="#C3D8EE" fill-rule="evenodd"></path>
                                <path d="M25.5751231,24.462722 L34.0656824,13.5777193 C30.9749183,12.7710691 27.9127945,11.8732497 24.8859203,10.8849816 L25.5751231,24.462722 Z" id="Fill-35" stroke="none" fill="#C3D8EE" fill-rule="evenodd"></path>
                                <path d="M11.6698425,19.7716107 L21.0866213,9.58965673 C18.060665,8.51364269 15.074181,7.34447741 12.1348799,6.08107983 L11.6698425,19.7716107 Z" id="Fill-36" stroke="none" fill="#C3D8EE" fill-rule="evenodd"></path>
                                <path d="M98.9579587,30.298999 L101.684661,17.2607071 C98.6001387,17.7080853 95.4902811,18.0700599 92.3629823,18.3475317 L98.9579587,30.298999 Z" id="Fill-37" stroke="none" fill="#C3D8EE" fill-rule="evenodd"></path>
                                <path d="M113.548458,27.9555694 L115.128264,14.7358398 C112.099737,15.4387083 109.034309,16.0552723 105.94024,16.5864326 L113.548458,27.9555694 Z" id="Fill-38" stroke="none" fill="#C3D8EE" fill-rule="evenodd"></path>
                                <path d="M127.948206,24.421984 L128.393599,11.0271228 C125.436306,12.0013371 122.429076,12.8874451 119.380354,13.685627 L127.948206,24.421984 Z" id="Fill-39" stroke="none" fill="#C3D8EE" fill-rule="evenodd"></path>
                                <path d="M141.073755,6.16933027 C138.211195,7.43020539 135.284378,8.5999112 132.301199,9.677727 L141.771403,19.719864 L141.073755,6.16933027 Z" id="Fill-40" stroke="none" fill="#C3D8EE" fill-rule="evenodd"></path>
                                <path d="M153.06278,0.130516824 C110.066185,24.7676707 46.8614824,25.8496305 0.0353509506,0.19141648" id="Stroke-41" stroke="#C3D8EE" stroke-width="0.69" fill="none"></path>
                            </g>
                        </g>
                        <g id="Group-8-Copy" mask="url(#mask-2)">
                            <g transform="translate(-25.940000, 29.120000)">
                                <polygon id="Fill-226" stroke="none" fill="#C3D8EE" fill-rule="evenodd" opacity="0.2" points="19.0286811 102.899225 241.981488 102.899225 241.981488 87.4415106 19.0286811 87.4415106"></polygon>
                                <g id="blender" stroke="none" stroke-width="1" fill="none" fill-rule="evenodd" transform="translate(146.280000, 30.500000)">
                                    <polygon id="Fill-227" fill="#003742" points="19.4028141 36.7733744 18.6093521 36.7733744 16.8367125 38.7787929 19.4028141 38.7787929"></polygon>
                                    <polygon id="Fill-228" fill="#003742" points="12.0412996 36.7733744 12.8347616 36.7733744 14.6074013 38.7787929 12.0412996 38.7787929"></polygon>
                                    <polygon id="Fill-229" fill="#A4C6E5" points="8.36273872 38.7786257 23.0815418 38.7786257 27.8412016 50.0349357 3.60307892 50.0349357"></polygon>
                                    <polygon id="Fill-230" fill="#669FD4" points="3.60296772 52.8015106 27.8410904 52.8015106 27.8410904 50.0349357 3.60296772 50.0349357"></polygon>
                                    <polygon id="Fill-231" fill="#3B5E69" points="12.8347616 38.7786257 18.6091853 38.7786257 16.8371017 36.7732072 14.6074013 36.7732072"></polygon>
                                    <path d="M9.76528146,40.7179585 C9.76528146,40.2632707 10.1333766,39.894394 10.5871012,39.894394 C11.0408258,39.894394 11.408921,40.2632707 11.408921,40.7179585 C11.408921,41.1726463 11.0408258,41.5420802 10.5871012,41.5420802 C10.1333766,41.5420802 9.76528146,41.1726463 9.76528146,40.7179585" id="Fill-232" fill="#FFFFFF"></path>
                                    <polygon id="Fill-233" fill="#3B5E69" points="7.01257448 7.58626022 24.4309276 7.58626022 24.4309276 4.43520666 7.01257448 4.43520666"></polygon>
                                    <polygon id="Fill-234" fill="#669FD4" points="8.63274933 0.575040681 22.8116424 0.575040681 24.4313724 3.11482885 7.01301931 3.11482885"></polygon>
                                    <polygon id="Fill-235" fill="#669FD4" points="5.45567641 4.43520666 25.9883817 4.43520666 25.9883817 3.11460597 5.45567641 3.11460597"></polygon>
                                    <path d="M3.88593394,12.6509589 L6.54878567,9.98245396 L6.54433739,12.6275559 L5.20373695,13.9710024 C2.09716927,17.0841653 2.09716927,22.1498112 5.20373695,25.2624169 L7.2304846,27.2934674 L10.6523241,33.3637728 L3.88593394,26.5830176 C0.046512108,22.7360019 0.046512108,16.4979746 3.88593394,12.6509589" id="Fill-236" fill="#FFFFFF"></path>
                                    <polygon id="Fill-237" fill="#C3D8EE" points="7.23026219 29.9344459 7.23026219 27.2938017 10.6521017 33.36355"></polygon>
                                    <polygon id="Fill-238" fill="#669FD4" points="20.7917896 33.3637171 23.0815418 38.7787372 8.36273872 38.7787372 10.6524909 33.3637171"></polygon>
                                    <path d="M24.8997207,4.4353181 L24.8997207,22.5325626 C24.8997207,29.4531789 20.791734,33.3637171 20.791734,33.3637171 L10.6524353,33.3637171 C10.6524353,33.3637171 6.54444859,29.4531789 6.54444859,22.5325626 L6.54444859,4.4353181 L24.8997207,4.4353181 Z" id="Fill-239" fill="#FFFFFF"></path>
                                    <path d="M15.7220291,24.7551837 L15.7220291,8.05877895" id="Stroke-240" stroke="#A4C6E5" stroke-width="0.69"></path>
                                    <path d="M10.5871568,24.7551837 L10.5871568,8.05877895" id="Stroke-241" stroke="#A4C6E5" stroke-width="0.69"></path>
                                    <path d="M20.8566789,24.7551837 L20.8566789,8.05877895" id="Stroke-242" stroke="#A4C6E5" stroke-width="0.69"></path>
                                    <path d="M12.0412996,44.4068365 C12.0412996,42.3696566 13.6893874,40.71807 15.7222515,40.71807 C17.7551155,40.71807 19.4026473,42.3696566 19.4026473,44.4068365 C19.4026473,46.4440163 17.7551155,48.095603 15.7222515,48.095603 C13.6893874,48.095603 12.0412996,46.4440163 12.0412996,44.4068365" id="Fill-243" fill="#669FD4"></path>
                                    <path d="M12.8347616,44.4068365 C12.8347616,42.8087424 14.127543,41.5137737 15.7222515,41.5137737 C17.3169599,41.5137737 18.6091853,42.8087424 18.6091853,44.4068365 C18.6091853,46.0049305 17.3169599,47.2998992 15.7222515,47.2998992 C14.127543,47.2998992 12.8347616,46.0049305 12.8347616,44.4068365" id="Fill-244" fill="#E0EBF5"></path>
                                </g>
                                <g id="Group-15" stroke="none" stroke-width="1" fill="none" fill-rule="evenodd" transform="translate(22.000000, 0.000000)">
                                    <g id="Group-144" transform="translate(0.679612, 82.854545)">
                                        <path d="M58.9058768,1.32381818 L39.9817722,1.32381818 C26.3327237,21.0200992 28.0492142,36.6797081 29.8882386,56.9878829 C31.7267545,77.2960576 36.6306499,137.486918 36.6306499,137.486918 L42.9174998,137.486918 L48.3877964,27.8782813 C49.0853749,27.8559569 49.8022741,27.8559569 50.4998526,27.8782813 L55.9706577,137.486918 L62.2564907,137.486918 C62.2564907,137.486918 67.1603861,77.2960576 68.9994105,56.9878829 C70.8384348,36.6797081 72.5549253,21.0200992 58.9058768,1.32381818" id="Fill-12" fill="#6593CA"></path>
                                        <path d="M53.7127812,28.1876784 C51.4451426,27.752351 47.4427098,27.752351 45.1750712,28.1876784" id="Stroke-35" stroke="#0E5C98" stroke-width="0.702765021"></path>
                                        <path d="M45.174817,28.1876784 C47.4424556,27.752351 51.4453969,27.752351 53.712527,28.1876784" id="Stroke-37" stroke="#0E5C98" stroke-width="0.702765021"></path>
                                        <path d="M56.4915536,6.33957102 C62.3762281,16.8604902 67.405708,18.0497762 67.405708,18.0497762" id="Stroke-52" stroke="#0E5C98" stroke-width="0.702765021"></path>
                                        <path d="M42.396248,6.33957102 C36.5115735,16.8604902 31.4815851,18.0497762 31.4815851,18.0497762" id="Stroke-54" stroke="#0E5C98" stroke-width="0.702765021"></path>
                                        <path d="M95.4794799,37.2254909 L97.8177914,42.4392721 C98.0069308,42.8390832 98.4762201,43.0232602 98.8875474,42.8593782 C98.8875474,42.8593782 97.2005463,36.8282166 96.3911112,34.9083112" id="Fill-124" fill="#7B3B33"></path>
                                        <path d="M95.0072924,38.3987946 L96.7436121,44.689732 C96.8681797,45.1418028 97.3237411,45.4193366 97.7833701,45.3224281 L96.7344602,37.3688243" id="Fill-126" fill="#7B3B33"></path>
                                        <path d="M95.2322259,39.2302294 L95.2118883,46.2319985 C95.2108715,46.7353141 95.6018612,47.152376 96.1047075,47.184848 L97.4225817,37.9004006 C96.8322839,35.9185955 96.3909587,34.9079053 96.3909587,34.9079053" id="Fill-128" fill="#904B3F"></path>
                                        <path d="M96.3911112,34.9081083 L96.3692483,39.2375356 C96.3616217,40.6865973 96.0341869,42.1158715 95.4759208,43.483246 L93.6902825,48.0526614 C93.2082822,47.9065376 92.9235563,47.4108326 93.0404973,46.9217235 L93.911962,43.2726856 C94.3248146,41.5795766 94.0822891,39.6343025 93.3918288,38.0238956 L91.3301081,33.214492 L96.3911112,34.9081083 Z" id="Fill-130" fill="#A8614F"></path>
                                        <path d="M90.5514844,26.4564148 C91.5393816,25.9140314 92.7804816,26.3447924 93.2182476,27.3818661 L96.3909078,34.9082605 L95.4792765,37.2254402 L92.4825362,36.0077412 C91.8429198,35.7474581 91.1305966,36.1741601 91.063991,36.8601305 C91.0136556,37.3806968 91.0365353,38.0164372 91.2510966,38.6927675 L92.0285001,41.1378056 C92.2084875,41.704543 91.9842659,42.3220178 91.481928,42.6416638 L88.8431289,37.6952691 C88.1847002,36.4618415 87.9894596,35.0351042 88.2914724,33.6702665 L89.6118889,27.7086153 C89.7298468,27.1753646 90.0725347,26.7197422 90.5514844,26.4564148" id="Fill-132" fill="#A8614F"></path>
                                        <path d="M3.40806751,37.2254909 L1.07026438,42.4392721 C0.88061658,42.8390832 0.411835698,43.0232602 0,42.8593782 C0,42.8593782 1.68700105,36.8282166 2.49643615,34.9083112" id="Fill-134" fill="#7B3B33"></path>
                                        <path d="M3.88050916,38.3987946 L2.14418951,44.689732 C2.01962193,45.1418028 1.56406046,45.4193366 1.10443149,45.3224281 L2.15334142,37.3688243" id="Fill-136" fill="#7B3B33"></path>
                                        <path d="M3.65557568,39.2302294 L3.67540481,46.2319985 C3.67693013,46.7353141 3.28594043,47.152376 2.78309413,47.184848 L1.4652199,37.9004006 C2.05551773,35.9185955 2.49633446,34.9079053 2.49633446,34.9079053" id="Fill-138" fill="#904B3F"></path>
                                        <path d="M2.49643615,34.9081083 L2.51829903,39.2375356 C2.52592562,40.6865973 2.85386886,42.1158715 3.41213503,43.483246 L5.19726482,48.0526614 C5.67926512,47.9065376 5.96449948,47.4108326 5.84755848,46.9217235 L4.9760938,43.2726856 C4.56273279,41.5795766 4.80525825,39.6343025 5.4957186,38.0238956 L7.55743928,33.214492 L2.49643615,34.9081083 Z" id="Fill-140" fill="#A8614F"></path>
                                        <path d="M8.33631719,26.4564148 C7.34841996,25.9140314 6.10732003,26.3447924 5.66955394,27.3818661 L2.4963853,34.9082605 L3.40801667,37.2254402 L6.40475692,36.0077412 C7.04488179,35.7474581 7.75720502,36.1741601 7.82381055,36.8601305 C7.87414602,37.3806968 7.85126626,38.0164372 7.63670494,38.6927675 L6.85930151,41.1378056 C6.67931406,41.704543 6.90353571,42.3220178 7.40587358,42.6416638 L10.0446727,37.6952691 C10.7025929,36.4618415 10.898342,35.0351042 10.5963291,33.6702665 L9.27591271,27.7086153 C9.15795483,27.1753646 8.81526686,26.7197422 8.33631719,26.4564148" id="Fill-142" fill="#A8614F"></path>
                                    </g>
                                    <g id="Group-69" transform="translate(26.135922, 0.000000)">
                                        <g id="Group-3" transform="translate(18.183079, 0.048054)">
                                            <mask id="mask-4" fill="white">
                                                <use xlink:href="#path-3"></use>
                                            </mask>
                                            <g id="Clip-2"></g>
                                            <path d="M5.04453162,30.8249206 C5.04453162,30.8249206 0.311021567,25.9439897 0.266927601,20.7509356 C0.222833634,15.5574237 0.753324965,8.11955324 5.83595014,7.59141501 C7.6038,3.14617528 9.68167136,-1.6070688 15.5157123,2.70636519 C19.5819033,-0.770926214 26.610118,-1.07893057 27.5379096,7.32734589 C30.5440271,7.45960928 34.3451998,9.13189446 31.5604612,14.5455402 C28.7757227,19.9587282 26.7869484,25.9000545 23.8253794,26.1201884 C20.8638104,26.3403222 5.04453162,30.8249206 5.04453162,30.8249206" id="Fill-1" fill="#6593CA" mask="url(#mask-4)"></path>
                                        </g>
                                        <path d="M21.5855423,17.7081454 C20.3772767,17.7333166 19.3217489,17.9928092 18.4844181,18.2985252 C18.4694171,18.6724324 18.459871,19.0426784 18.4544161,19.4065171 C19.2521986,19.0774605 20.3395468,18.7566417 21.6055437,18.7191136 C21.8746532,18.7108758 22.0951231,18.5063023 22.10376,18.2381143 L22.1042146,18.2216385 C22.1133061,17.9333135 21.8746532,17.7021958 21.5855423,17.7081454" id="Fill-4" fill="#80ADDB"></path>
                                        <path d="M24.143856,20.7606837 L24.2361352,19.757038 C21.8136945,19.5350735 19.697184,20.1826606 18.4493702,20.6988998 C18.4498248,20.7323088 18.4498248,20.7661756 18.4498248,20.7986694 C18.4525523,21.1254377 18.4739174,21.4503755 18.5116473,21.7730249 C19.5780849,21.2966021 21.7114146,20.5391768 24.143856,20.7606837" id="Fill-6" fill="#80ADDB"></path>
                                        <path d="M23.8788377,23.0051796 L23.9629344,22.0015339 C22.1437173,21.8454723 19.8808331,22.517773 18.7148432,22.9232587 C18.7912121,23.2532307 18.881673,23.5786261 18.9844074,23.8994449 C20.0544816,23.527826 22.22145,22.8720009 23.8788377,23.0051796" id="Fill-8" fill="#80ADDB"></path>
                                        <path d="M39.3189083,36.6068901 C38.3415678,36.69293 37.4169583,35.2851715 37.2546743,33.461859 C37.0919357,31.639004 37.7524361,30.0907444 38.7302311,30.0042469 C39.7075716,29.918207 40.6317266,31.3255078 40.7944652,33.149278 C40.9572037,34.9725906 40.2962488,36.5203926 39.3189083,36.6068901 M41.5063327,33.480623 C41.2935907,31.0898135 40.0248664,29.2481946 38.673409,29.3681012 C37.3214971,29.4870925 36.3991604,31.5227587 36.6119024,33.9135682 C36.8255536,36.3043776 38.0938234,38.1459966 39.4452807,38.0265476 C40.7967381,37.9070987 41.7199839,35.8718901 41.5063327,33.480623" id="Fill-10" fill="#FAE477"></path>
                                        <path d="M24.5707038,27.4179714 L23.2274288,30.8728375 C23.2274288,30.8728375 23.6751872,38.3409134 20.5408789,41.1271401 C17.4070252,43.9133667 16.9592669,44.8053437 12.3698578,44.8053437 C7.78044861,44.8053437 1.28818024,45.4739832 1.28818024,53.610241 C1.28818024,61.7469564 0.392663592,85.7104278 0.0571857836,88.1625635 C-0.278746602,90.6142416 0.840421914,92.6206177 4.19883662,92.9551663 C7.55679674,93.2897148 15.9519243,92.7322864 18.8621261,91.7290984 C21.7723279,90.7259103 35.8760332,87.9396837 35.8760332,87.9396837 L36.547898,89.4998425 L41.6968914,90.1684819 L41.0250266,78.2428095 L36.2119656,82.0322242 C36.2119656,82.0322242 14.4963689,84.1498113 8.89961713,84.7072397 C9.79558835,79.8029682 11.5861671,70.6635224 11.5861671,70.6635224 L24.6829843,75.1215766 L50.7929767,99.8177597 L49.4206088,76.9050729 C49.4206088,76.9050729 49.0846764,60.8554371 48.5246376,57.0655648 C47.9650533,53.2761501 44.7189191,50.1553748 39.5699257,48.7064271 C34.4209323,47.2574795 31.6225564,45.9197428 32.629899,38.8978842 C33.973174,38.8978842 35.8760332,39.2324328 36.9956563,37.5606052 C38.1148248,35.8887777 40.2417905,33.2137621 40.9132007,31.4302659 C41.5850655,29.6472273 41.8087173,27.1950915 42.592408,25.7461438 C43.3756442,24.2971961 45.1666775,22.5136999 42.1446497,19.2812559 C35.204623,20.1732329 29.8315232,20.6189925 28.7123546,20.5073238 C26.6976695,23.8514365 26.1376307,24.1855274 26.1376307,24.1855274 C26.1376307,24.1855274 27.1454278,18.6126164 25.0184621,18.6126164 C22.891951,18.6126164 21.8841539,24.2971961 23.3397094,25.8573549 C24.0111196,26.6376631 24.9066362,26.6376631 24.9066362,26.6376631 L24.5707038,27.4179714 Z" id="Fill-12" fill="#80ADDB"></path>
                                        <path d="M37.6875225,36.5168229 C35.679656,36.7351261 34.185916,36.1053876 33.3217652,34.9456803 L33.2808533,33.4624082 L38.5794025,35.2916703 L37.6875225,36.5168229 Z" id="Fill-15" fill="#6593CA"></path>
                                        <path d="M33.2808987,33.4622709 C34.2191456,33.0622771 35.2987659,33.0728032 36.2665603,33.396368 C37.2343547,33.7199328 38.0739584,34.4082516 38.579448,35.291533 L38.5776296,35.3061781 C36.6843165,35.3510286 34.7314538,34.6430305 33.2808987,33.4622709" id="Fill-17" fill="#6593CA"></path>
                                        <path d="M38.1937848,35.3083291 C36.1318237,35.2474605 34.0430425,34.3193285 32.6502186,32.8873141" id="Stroke-19" stroke="#4E79AD" stroke-width="0.66930002" stroke-linecap="round" stroke-linejoin="round"></path>
                                        <path d="M36.964336,36.5595224 C35.6556088,36.5682179 34.6032631,36.1846999 33.8463925,35.5160604" id="Stroke-21" stroke="#4E79AD" stroke-width="0.66930002" stroke-linecap="round" stroke-linejoin="round"></path>
                                        <path d="M39.8800381,27.7495909 C39.7577569,28.1578225 39.9045853,28.5614776 40.2082427,28.6516364 C40.5119001,28.7417951 40.8569241,28.4841333 40.9792053,28.0763593 C41.1019411,27.6681276 40.9546581,27.2640149 40.6510007,27.1738562 C40.3473433,27.0836974 40.0023193,27.3413593 39.8800381,27.7495909" id="Fill-23" fill="#4E79AD"></path>
                                        <path d="M39.8800381,27.7495909 C39.7577569,28.1578225 39.9045853,28.5614776 40.2082427,28.6516364 C40.5119001,28.7417951 40.8569241,28.4841333 40.9792053,28.0763593 C41.1019411,27.6681276 40.9546581,27.2640149 40.6510007,27.1738562 C40.3473433,27.0836974 40.0023193,27.3413593 39.8800381,27.7495909 Z" id="Stroke-25" stroke="#4E79AD" stroke-width="0.66930002" stroke-linecap="round" stroke-linejoin="round"></path>
                                        <path d="M39.9508612,26.31808 C41.337321,25.4773608 41.8328099,27.3821367 43.5261092,26.7766541" id="Stroke-27" stroke="#4E79AD" stroke-width="0.66930002" stroke-linecap="round" stroke-linejoin="round"></path>
                                        <path d="M35.3358139,26.5437516 C35.2135327,26.9519832 34.8680542,27.2096451 34.5643968,27.1194863 C34.261194,27.0293275 34.113911,26.6252148 34.2366468,26.2169832 C34.358928,25.8092092 34.7039519,25.5515473 35.0076094,25.6417061 C35.3108122,25.7318649 35.4580951,26.1355199 35.3358139,26.5437516" id="Fill-29" fill="#4E79AD"></path>
                                        <path d="M35.3358139,26.5437516 C35.2135327,26.9519832 34.8680542,27.2096451 34.5643968,27.1194863 C34.261194,27.0293275 34.113911,26.6252148 34.2366468,26.2169832 C34.358928,25.8092092 34.7039519,25.5515473 35.0076094,25.6417061 C35.3108122,25.7318649 35.4580951,26.1355199 35.3358139,26.5437516 Z" id="Stroke-31" stroke="#4E79AD" stroke-width="0.66930002" stroke-linecap="round" stroke-linejoin="round"></path>
                                        <path d="M36.064319,25.3077983 C35.3674525,23.8478667 33.9046238,25.1709583 32.8213669,23.7403169" id="Stroke-33" stroke="#4E79AD" stroke-width="0.66930002" stroke-linecap="round" stroke-linejoin="round"></path>
                                        <path d="M37.8158041,22.2478459 C37.0266585,21.9997948 36.2156931,21.8089511 35.3906359,21.6785184 C34.5669424,21.5586118 33.7214293,21.484471 32.8850076,21.5439667 L32.8604605,21.4185682 C33.7055191,21.2506074 34.5614875,21.2194866 35.4179105,21.2355047 C36.273879,21.2620489 37.1298474,21.3526653 37.9762698,21.5055233 L37.8158041,22.2478459 Z" id="Fill-35" fill="#4E79AD"></path>
                                        <path d="M44.1743359,24.2487758 C44.0379628,24.1316152 43.9011352,24.0153699 43.7611255,23.9018705 C43.0833512,23.3650367 42.3605738,22.8757995 41.6023394,22.4401083 L41.281408,23.1243082 C42.0514614,23.4497036 42.7983314,23.8323064 43.5142902,24.2684552 C43.7374874,24.4080411 43.9570481,24.5544919 44.1743359,24.7050616 L44.1743359,24.2487758 Z" id="Fill-37" fill="#4E79AD"></path>
                                        <path d="M29.0481052,65.5363711 C29.0481052,65.5363711 28.9362793,68.2113867 28.7121728,69.7720031" id="Stroke-39" stroke="#428ACA" stroke-width="0.66930002"></path>
                                        <path d="M9.79540652,86.713387 C9.79540652,86.713387 12.8174343,79.6915283 9.57130007,75.456354 C6.32516588,71.220722 11.3623334,63.1956753 11.3623334,63.1956753 L18.414186,57.5115532 C18.414186,57.5115532 25.3542127,61.5238478 28.9362793,68.3228266 C32.5178913,64.7562917 38.4505754,60.2977799 38.4505754,60.2977799 C38.4505754,60.2977799 42.8163327,67.988278 42.8163327,70.1063229 C42.8163327,72.22391 39.1933542,83.9271603 39.1933542,83.9271603 L39.0619814,91.1879169 L22.8108545,91.0707562 L9.3476482,86.6021759 L9.79540652,86.713387 Z" id="Fill-41" fill="#C3D8EE"></path>
                                        <path d="M14.8323467,73.4499779 C14.8323467,73.4499779 17.1829643,76.2362045 21.9960253,75.7904449 C26.8095409,75.3446852 30.6152593,75.6792338 31.9585343,76.3478733" id="Stroke-43" stroke="#A4C6E5" stroke-width="0.66930002"></path>
                                        <path d="M13.2637834,55.8028842 C13.1119547,55.7525417 12.8073881,58.6724047 12.3459925,62.4027814 C11.7736801,67.0324577 10.9599873,72.9069658 9.895368,75.9238524 C10.3581274,76.6533605 10.6590573,77.4483138 10.8408881,78.2656924 C11.5363909,75.1472055 12.7242005,68.9880336 13.1305923,61.7712123 C13.2387817,59.8440112 13.2915126,57.8422117 13.2637834,55.8028842" id="Fill-45" fill="#4E79AD"></path>
                                        <path d="M37.0278404,32.4415087 C36.4778022,32.2849894 35.8177564,31.4598306 35.8177564,31.4598306 C36.3250644,32.4209141 37.315133,34.4419352 39.5962003,32.4241177 C38.744323,32.5984857 37.9538137,32.7046625 37.0278404,32.4415087" id="Fill-47" fill="#6593CA"></path>
                                        <path d="M35.7362508,31.3503129 C36.0690011,31.8134636 36.4976672,32.2267295 37.027704,32.4413714 C37.8332144,32.7681398 38.7446412,32.5983484 39.5965185,32.424438" id="Stroke-49" stroke="#4E79AD" stroke-width="0.66930002" stroke-linecap="round" stroke-linejoin="round"></path>
                                        <path d="M27.5989138,36.1673546 C25.3673954,34.5133758 24.4109655,33.8026317 23.2490667,31.9509443 C23.2404298,34.1202469 22.9404089,38.9938552 20.5411517,41.1270028 C19.9042893,41.6931267 19.3787983,42.1805333 18.9055837,42.5983758 C22.3880979,40.8103029 26.5174752,37.750854 27.5989138,36.1673546" id="Fill-51" fill="#428ACA"></path>
                                        <path d="M44.5578625,78.7293923 L42.2827048,80.5211264 C42.2827048,80.5211264 14.4966871,84.1499029 8.89993533,84.7073313 C9.79545198,79.8030598 11.5864853,70.6631563 11.5864853,70.6631563 L11.6137599,70.6727671 L14.0298365,49.230538 C9.51679629,49.3170355 1.28804386,45.9115965 1.28804386,53.6107902 C1.28804386,61.7470479 0.392527219,85.7105193 0.0570494105,88.162655 C-0.278882975,90.6143331 0.840740118,92.6207092 4.19870024,92.9548001 C7.55666037,93.2893487 15.951788,92.7319203 18.8619898,91.7291899 C21.1148733,90.952543 35.7336143,87.7141494 39.4802377,86.9736575 C40.5889509,86.754439 41.7335758,87.101802 42.5299946,87.9004166 L42.6181826,87.9887447 L44.5578625,88.240457 L44.5578625,78.7293923 Z" id="Fill-53" fill="#80ADDB"></path>
                                        <path d="M24.796674,24.6731171 C24.7271238,24.6104178 24.6148432,24.5284969 24.5352923,24.4717472 C24.5325648,24.4726625 24.5316557,24.4740355 24.5289282,24.4754085 C24.5284736,24.4754085 24.5284736,24.4754085 24.528019,24.4754085 C24.4789247,24.4328462 24.421648,24.4026407 24.3561889,24.4026407 C24.1911775,24.4026407 24.0579864,24.5628213 24.0579864,24.7600722 C24.0579864,24.9124726 24.137992,25.0406171 24.2502725,25.0923325 C24.9871418,25.6104022 25.5335433,26.9032883 25.570364,28.4442254 C25.6185492,30.4611276 24.7812184,32.1169371 23.6997798,32.1421083 C22.6183412,32.1677372 21.7028231,30.5540324 21.654638,28.5366725 C21.6173627,26.9746831 22.1128516,25.6328275 22.8397201,25.0937055 C22.7597146,24.870368 22.7010742,24.639708 22.6651626,24.3985218 C21.6014525,25.0548045 20.8650378,26.8680486 20.9154958,28.987924 C20.9791366,31.6327341 22.242406,33.7484907 23.7375097,33.7127933 C25.2326133,33.6775535 26.3931484,31.5045897 26.3299622,28.8593219 C26.2863228,27.0305174 25.6680981,25.4584595 24.796674,24.6731171" id="Fill-55" fill="#FFFFFF"></path>
                                        <path d="M17.4623927,62.4860753 L18.4706445,62.5679963 C19.371616,51.5068412 17.5173965,46.5211065 16.1132083,44.3856706 C15.7977318,44.4881862 15.4545262,44.5691918 15.072227,44.6323487 C16.3086764,46.2831239 18.4083674,50.8697802 17.4623927,62.4860753" id="Fill-57" fill="#C3D8EE"></path>
                                        <path d="M37.5017369,66.2474356 L38.5040791,66.3851908 C39.5909726,58.5610564 38.4318014,51.3419468 37.7685735,48.1621336 C37.3744553,48.0312432 37.0003385,47.8948608 36.6453138,47.751156 C37.2471738,50.4275445 38.6490891,57.9862369 37.5017369,66.2474356" id="Fill-59" fill="#C3D8EE"></path>
                                        <path d="M30.1872296,56.6317042 C30.2172317,56.6436034 30.2485975,56.6490953 30.2795088,56.6490953 C30.3708787,56.6490953 30.4590667,56.5987528 30.5036152,56.5136283 C31.5864176,54.4472989 33.7097466,48.8281644 34.5411679,46.5943319 C34.3975216,46.4831208 34.2620577,46.3645872 34.1325032,46.2419346 C33.3815421,48.2606675 31.2754869,53.8509695 30.1590459,56.0783948 C22.8221735,53.1164271 19.3137484,46.1558948 18.1300299,43.2543381 C17.9895656,43.3655492 17.8509197,43.4689801 17.7131828,43.5664614 C18.9882713,46.6414707 22.6371606,53.6935349 30.1872296,56.6317042" id="Fill-61" fill="#C3D8EE"></path>
                                        <path d="M32.5513027,59.9995694 C32.5513027,58.8009611 31.5857812,57.8293515 30.3956986,57.8293515 C29.2051615,57.8293515 28.23964,58.8009611 28.23964,59.9995694 C28.23964,61.1981778 29.2051615,62.1697874 30.3956986,62.1697874 C31.5857812,62.1697874 32.5513027,61.1981778 32.5513027,59.9995694" id="Fill-63" fill="#C3D8EE"></path>
                                        <path d="M31.5400507,59.9995694 C31.5400507,59.3629661 31.0277425,58.8471846 30.3954259,58.8471846 C29.7635639,58.8471846 29.2512557,59.3629661 29.2512557,59.9995694 C29.2512557,60.6357151 29.7635639,61.1519542 30.3954259,61.1519542 C31.0277425,61.1519542 31.5400507,60.6357151 31.5400507,59.9995694" id="Fill-65" fill="#A4C6E5"></path>
                                        <path d="M30.3956532,58.1865999 L30.3956532,56.7051585" id="Stroke-67" stroke="#C3D8EE" stroke-width="0.66930002" stroke-linecap="round" stroke-linejoin="round"></path>
                                    </g>
                                </g>
                                <path d="M106.426766,103.279692 L110.802206,104.953567 C111.144168,105.076155 111.521715,104.911219 111.664616,104.57689 C111.664616,104.57689 107.191871,102.051032 105.610507,101.404662" id="Fill-246" stroke="none" fill="#80ADDB" fill-rule="evenodd"></path>
                                <path d="M106.833617,104.235261 L111.485962,106.884263 C111.820139,107.074274 112.243838,106.971189 112.454019,106.648561 L107.235631,102.635495" id="Fill-247" stroke="none" fill="#80ADDB" fill-rule="evenodd"></path>
                                <path d="M107.445867,104.587867 L111.493802,108.667799 C111.784609,108.960894 112.25279,108.976496 112.562502,108.704018 L107.942407,102.545115 C106.451677,101.736038 105.610396,101.404495 105.610396,101.404495" id="Fill-248" stroke="none" fill="#80ADDB" fill-rule="evenodd"></path>
                                <path d="M105.610507,101.40455 L108.10766,103.933194 C108.943381,104.779047 109.582821,105.799866 110.052671,106.918198 L111.669065,110.608079 C111.304862,110.802547 110.852805,110.679959 110.637064,110.327799 L109.025674,107.702757 C108.283367,106.479112 107.015051,105.489497 105.68168,104.954013 L101.700469,103.354805 L105.610507,101.40455 Z" id="Fill-249" stroke="none" fill="#80ADDB" fill-rule="evenodd"></path>
                                <path d="M97.3315904,99.879786 C97.5890346,98.9921418 98.5565355,98.5224091 99.4111613,98.871226 L105.610396,101.404328 L106.426655,103.279915 L103.986774,104.309649 C103.465769,104.529749 103.300626,105.190607 103.660381,105.627464 C103.932838,105.959007 104.314834,106.315625 104.830835,106.583646 L106.698,107.553758 C107.131152,107.778873 107.359126,108.267551 107.254035,108.744527 L102.859135,107.400523 C101.763189,107.065637 100.822934,106.349615 100.206847,105.381732 L97.5139698,101.151909 C97.2732067,100.774117 97.2070385,100.310514 97.3315904,99.879786" id="Fill-250" stroke="none" fill="#80ADDB" fill-rule="evenodd"></path>
                                <path d="M81.878265,218.518262 L71.7411905,215.850314 C69.6277014,215.026192 68.4711485,212.585031 68.653528,210.319393 L69.6910894,198.27128 L62.4542935,198.27128 L62.4542935,222.336302 L84.4844012,222.336302 C84.4844012,220.646268 83.4490639,219.130642 81.878265,218.518262" id="Fill-255" stroke="none" fill="#80ADDB" fill-rule="evenodd"></path>
                                <path d="M5.28488542,200.329356 L5.28488542,211.409585 C5.28488542,213.284615 6.43365378,214.967963 8.17737961,215.647209 L10.8090934,216.673043 L10.8090934,210.976072 C10.8090934,207.667883 11.9317281,204.456651 13.9929499,201.872285 L18.7036786,195.964129 L12.342638,191.477988 L5.28488542,200.329356 Z" id="Fill-257" stroke="none" fill="#80ADDB" fill-rule="evenodd"></path>
                                <path d="M30.994944,124.078429 C30.7814266,124.078429 30.5356591,123.916279 30.486172,123.459919 C30.3894219,122.555001 30.2782149,121.790502 30.1703441,121.048291 C30.0980595,120.555712 29.946262,119.401162 29.8133696,118.385358 C29.803361,118.309577 29.7388609,118.253298 29.6632401,118.253298 L29.6554556,118.253298 C29.5764987,118.257756 29.5136667,118.321278 29.5114426,118.401517 C29.4491667,120.518936 29.3963433,123.163481 29.3963433,123.193013 C29.3902269,123.48388 29.1989509,123.613711 29.0126792,123.613711 C28.7819246,123.613711 28.5367132,123.43373 28.5094675,123.030863 C28.423282,121.782701 28.3526656,119.835233 28.3081828,118.42102 C28.3059586,118.341338 28.2436827,118.278373 28.1647258,118.273915 C28.1619456,118.273358 28.1597214,118.273358 28.1563852,118.273358 C28.0813205,118.273358 28.0168204,118.328522 28.0062558,118.403189 L27.5364062,121.634481 C27.5080484,121.900273 27.3028715,122.018403 27.1249403,122.018403 C27.0109531,122.018403 26.9036383,121.973826 26.8313538,121.894701 C26.7496166,121.804989 26.7134743,121.671815 26.7273752,121.51078 C26.7779744,120.937405 26.7668537,120.05589 26.7523968,118.93923 C26.7223709,116.538189 27.0198496,109.265412 27.0198496,109.265412 L31.3774961,109.265412 C31.3774961,109.265412 32.0936692,110.070031 32.9199373,111.400662 C33.5727224,112.45157 33.9513822,113.135831 34.1682359,114.353347 C34.3016843,115.099458 34.7381718,117.331106 34.7381718,117.331106 C34.1676799,117.325534 33.788464,117.223564 33.598856,116.67192 L32.9049243,114.478163 C32.4528678,114.509367 32.1320356,114.849269 32.1476046,115.268852 C32.1781865,116.082944 32.3794712,117.292658 32.6130059,118.692941 C32.8109544,119.886497 33.027252,121.190938 33.201847,122.566146 C33.2213083,122.720494 33.1829418,122.860913 33.0934202,122.961769 C33.0144632,123.05148 32.8938036,123.107202 32.7787044,123.107202 C32.5751956,123.107202 32.4189497,122.948396 32.3616781,122.681489 L32.122027,121.553685 C31.9885786,120.925146 31.6594059,119.512605 31.375828,118.304562 C31.359147,118.23491 31.296871,118.186989 31.2273667,118.186989 C31.2195822,118.186989 31.2117977,118.188104 31.2034572,118.189218 C31.1250562,118.201477 31.0694527,118.273358 31.0761251,118.35304 C31.2140218,119.945561 31.3947332,122.120931 31.4692419,123.435959 C31.4842548,123.698965 31.3936211,123.853314 31.3152202,123.936339 C31.2295908,124.027722 31.1156036,124.078429 30.994944,124.078429" id="Fill-263" stroke="none" fill="#80ADDB" fill-rule="evenodd"></path>
                                <polygon id="Fill-265" stroke="none" fill="#E8F2FF" fill-rule="evenodd" points="0.366477629 234.841165 260.96508 234.841165 260.96508 107.103416 0.366477629 107.103416"></polygon>
                                <polyline id="Stroke-271-Copy" stroke="#A4C6E5" stroke-width="0.69" fill="none" opacity="0.5" points="70.3513806 168.796992 70.3513806 134 6.9 134 6.9 168.796992"></polyline>
                                <polygon id="Fill-266" stroke="none" fill="#E8F2FF" fill-rule="evenodd" points="84.7175466 107.103416 192.633936 107.103416 192.633936 83.4412606 84.7175466 83.4412606"></polygon>
                                <polygon id="Fill-267" stroke="none" fill="#A4C6E5" fill-rule="evenodd" points="84.7175466 107.103973 192.633936 107.103973 192.633936 105.002714 84.7175466 105.002714"></polygon>
                                <polygon id="Stroke-269" stroke="#A4C6E5" stroke-width="0.69" fill="none" opacity="0.5" points="106.26 216.496309 227.510665 216.496309 227.510665 134 106.26 134"></polygon>
                                <g id="Group-3" stroke="none" stroke-width="1" fill="none" fill-rule="evenodd" transform="translate(102.120000, 45.680000)">
                                    <polygon id="Fill-273" fill="#1D78C2" points="1.37285845 8.34474086 19.6046908 8.34474086 19.6046908 0.553753973 1.37285845 0.553753973"></polygon>
                                    <polygon id="Fill-274" fill="#C3D8EE" points="1.37285845 37.782992 19.6046908 37.782992 19.6046908 27.9420094 1.37285845 27.9420094"></polygon>
                                    <polygon id="Fill-275" fill="#FFFFFF" points="1.37285845 27.9420094 19.6046908 27.9420094 19.6046908 8.34474086 1.37285845 8.34474086"></polygon>
                                    <polygon id="Fill-276" fill="#FFFFFF" points="3.8455462 4.89279094 17.131447 4.89279094 17.131447 4.00570389 3.8455462 4.00570389"></polygon>
                                    <polygon id="Fill-277" fill="#203A44" points="3.8455462 31.0100378 17.131447 31.0100378 17.131447 30.260583 3.8455462 30.260583"></polygon>
                                    <polygon id="Fill-278" fill="#203A44" points="3.8455462 32.4582409 17.131447 32.4582409 17.131447 31.7087861 3.8455462 31.7087861"></polygon>
                                    <polygon id="Fill-279" fill="#203A44" points="3.8455462 33.9064439 17.131447 33.9064439 17.131447 33.1569891 3.8455462 33.1569891"></polygon>
                                    <polygon id="Fill-280" fill="#203A44" points="9.56325434 11.9304225 10.4039793 11.9304225 10.4039793 11.0873555 9.56325434 11.0873555"></polygon>
                                    <polygon id="Fill-281" fill="#203A44" points="10.4039793 12.7729323 11.2447042 12.7729323 11.2447042 11.9304225 10.4039793 11.9304225"></polygon>
                                    <polygon id="Fill-282" fill="#203A44" points="9.56325434 13.6159993 10.4039793 13.6159993 10.4039793 12.7729323 9.56325434 12.7729323"></polygon>
                                    <polygon id="Fill-283" fill="#203A44" points="10.4039793 14.4585091 11.2447042 14.4585091 11.2447042 13.6154421 10.4039793 13.6154421"></polygon>
                                    <polygon id="Fill-284" fill="#203A44" points="9.56325434 15.3010189 10.4039793 15.3010189 10.4039793 14.4585091 9.56325434 14.4585091"></polygon>
                                    <polygon id="Fill-285" fill="#203A44" points="10.4039793 16.144086 11.2447042 16.144086 11.2447042 15.3010189 10.4039793 15.3010189"></polygon>
                                    <polygon id="Fill-286" fill="#203A44" points="9.56325434 16.9865958 10.4039793 16.9865958 10.4039793 16.1435288 9.56325434 16.1435288"></polygon>
                                    <polygon id="Fill-287" fill="#203A44" points="10.4039793 17.8296628 11.2447042 17.8296628 11.2447042 16.9865958 10.4039793 16.9865958"></polygon>
                                    <polygon id="Fill-288" fill="#203A44" points="9.56325434 18.6721726 10.4039793 18.6721726 10.4039793 17.8296628 9.56325434 17.8296628"></polygon>
                                    <polygon id="Fill-289" fill="#203A44" points="10.4039793 19.5146824 11.2447042 19.5146824 11.2447042 18.6716154 10.4039793 18.6716154"></polygon>
                                    <polygon id="Fill-290" fill="#203A44" points="9.56325434 20.3577495 10.4039793 20.3577495 10.4039793 19.5146824 9.56325434 19.5146824"></polygon>
                                    <polygon id="Fill-291" fill="#203A44" points="10.4039793 21.2008165 11.2447042 21.2008165 11.2447042 20.3577495 10.4039793 20.3577495"></polygon>
                                    <polygon id="Fill-292" fill="#203A44" points="9.56325434 22.0433263 10.4039793 22.0433263 10.4039793 21.2008165 9.56325434 21.2008165"></polygon>
                                    <polygon id="Fill-293" fill="#203A44" points="10.4039793 22.8858361 11.2447042 22.8858361 11.2447042 22.0427691 10.4039793 22.0427691"></polygon>
                                    <polygon id="Fill-294" fill="#203A44" points="9.56325434 23.7289031 10.4039793 23.7289031 10.4039793 22.8858361 9.56325434 22.8858361"></polygon>
                                    <polygon id="Fill-295" fill="#203A44" points="10.4039793 24.5719702 11.2447042 24.5719702 11.2447042 23.7289031 10.4039793 23.7289031"></polygon>
                                    <polygon id="Fill-296" fill="#203A44" points="4.51723651 18.6721726 5.35796146 18.6721726 5.35796146 17.8296628 4.51723651 17.8296628"></polygon>
                                    <polygon id="Fill-297" fill="#203A44" points="5.35796146 17.8296628 6.19868642 17.8296628 6.19868642 16.9865958 5.35796146 16.9865958"></polygon>
                                    <polygon id="Fill-298" fill="#203A44" points="6.19924245 18.6721726 7.03996741 18.6721726 7.03996741 17.8296628 6.19924245 17.8296628"></polygon>
                                    <polygon id="Fill-299" fill="#203A44" points="7.03996741 17.8296628 7.88069236 17.8296628 7.88069236 16.9865958 7.03996741 16.9865958"></polygon>
                                    <polygon id="Fill-300" fill="#203A44" points="7.8812484 18.6721726 8.72197335 18.6721726 8.72197335 17.8296628 7.8812484 17.8296628"></polygon>
                                    <polygon id="Fill-301" fill="#203A44" points="8.72197335 17.8296628 9.56269831 17.8296628 9.56269831 16.9865958 8.72197335 16.9865958"></polygon>
                                    <polygon id="Fill-302" fill="#203A44" points="11.2447042 18.6721726 12.0854292 18.6721726 12.0854292 17.8296628 11.2447042 17.8296628"></polygon>
                                    <polygon id="Fill-303" fill="#203A44" points="12.0859852 17.8296628 12.9267102 17.8296628 12.9267102 16.9865958 12.0859852 16.9865958"></polygon>
                                    <polygon id="Fill-304" fill="#203A44" points="12.9267102 18.6721726 13.7674351 18.6721726 13.7674351 17.8296628 12.9267102 17.8296628"></polygon>
                                    <polygon id="Fill-305" fill="#203A44" points="13.7679912 17.8296628 14.6087161 17.8296628 14.6087161 16.9865958 13.7679912 16.9865958"></polygon>
                                    <polygon id="Fill-306" fill="#203A44" points="14.6087161 18.6721726 15.4494411 18.6721726 15.4494411 17.8296628 14.6087161 17.8296628"></polygon>
                                    <polygon id="Fill-307" fill="#203A44" points="15.4499971 17.8296628 16.2907221 17.8296628 16.2907221 16.9865958 15.4499971 16.9865958"></polygon>
                                    <polygon id="Fill-308" fill="#203A44" points="16.2907221 18.6721726 17.131447 18.6721726 17.131447 17.8296628 16.2907221 17.8296628"></polygon>
                                    <polygon id="Fill-309" fill="#203A44" points="15.4499971 19.5146824 16.2907221 19.5146824 16.2907221 18.6716154 15.4499971 18.6716154"></polygon>
                                    <polygon id="Fill-310" fill="#203A44" points="16.2907221 20.3577495 17.131447 20.3577495 17.131447 19.5146824 16.2907221 19.5146824"></polygon>
                                    <polygon id="Fill-311" fill="#203A44" points="15.4499971 21.2008165 16.2907221 21.2008165 16.2907221 20.3577495 15.4499971 20.3577495"></polygon>
                                    <polygon id="Fill-312" fill="#203A44" points="16.2907221 22.0433263 17.131447 22.0433263 17.131447 21.2008165 16.2907221 21.2008165"></polygon>
                                    <polygon id="Fill-313" fill="#203A44" points="15.4499971 22.8858361 16.2907221 22.8858361 16.2907221 22.0427691 15.4499971 22.0427691"></polygon>
                                    <polygon id="Fill-314" fill="#203A44" points="16.2907221 23.7289031 17.131447 23.7289031 17.131447 22.8858361 16.2907221 22.8858361"></polygon>
                                    <polygon id="Fill-315" fill="#203A44" points="15.4499971 24.5719702 16.2907221 24.5719702 16.2907221 23.7289031 15.4499971 23.7289031"></polygon>
                                    <polygon id="Fill-316" fill="#203A44" points="14.6087161 23.7289031 15.4494411 23.7289031 15.4494411 22.8858361 14.6087161 22.8858361"></polygon>
                                    <polygon id="Fill-317" fill="#203A44" points="13.7679912 24.5719702 14.6087161 24.5719702 14.6087161 23.7289031 13.7679912 23.7289031"></polygon>
                                    <polygon id="Fill-318" fill="#203A44" points="12.9267102 23.7289031 13.7674351 23.7289031 13.7674351 22.8858361 12.9267102 22.8858361"></polygon>
                                    <polygon id="Fill-319" fill="#203A44" points="12.0859852 24.5719702 12.9267102 24.5719702 12.9267102 23.7289031 12.0859852 23.7289031"></polygon>
                                    <polygon id="Fill-320" fill="#203A44" points="11.2447042 23.7289031 12.0854292 23.7289031 12.0854292 22.8858361 11.2447042 22.8858361"></polygon>
                                    <polygon id="Fill-321" fill="#203A44" points="3.67595552 17.8296628 4.51668047 17.8296628 4.51668047 16.9865958 3.67595552 16.9865958"></polygon>
                                    <path d="M12.0570714,22.0645005 L14.6087161,22.0645005 L14.6087161,19.5074386 L12.0570714,19.5074386 L12.0570714,22.0645005 Z M11.2163465,22.9075675 L15.4499971,22.9075675 L15.4499971,18.6649288 L11.2163465,18.6649288 L11.2163465,22.9075675 Z" id="Fill-322" fill="#203A44"></path>
                                    <polygon id="Fill-323" fill="#203A44" points="12.8983524 21.2225479 13.7679912 21.2225479 13.7679912 20.3510629 12.8983524 20.3510629"></polygon>
                                    <path d="M12.9267102,15.3010189 L16.2907221,15.3010189 L16.2907221,11.9304225 L12.9267102,11.9304225 L12.9267102,15.3010189 Z M12.0859852,16.1435288 L17.1320031,16.1435288 L17.1320031,11.0873555 L12.0859852,11.0873555 L12.0859852,16.1435288 Z" id="Fill-324" fill="#203A44"></path>
                                    <polygon id="Fill-325" fill="#203A44" points="13.7679912 14.4585091 15.4499971 14.4585091 15.4499971 12.7729323 13.7679912 12.7729323"></polygon>
                                    <path d="M4.51723651,15.3010189 L7.8812484,15.3010189 L7.8812484,11.9304225 L4.51723651,11.9304225 L4.51723651,15.3010189 Z M3.67595552,16.1435288 L8.72197335,16.1435288 L8.72197335,11.0873555 L3.67595552,11.0873555 L3.67595552,16.1435288 Z" id="Fill-326" fill="#203A44"></path>
                                    <polygon id="Fill-327" fill="#203A44" points="5.35796146 14.4585091 7.03996741 14.4585091 7.03996741 12.7729323 5.35796146 12.7729323"></polygon>
                                    <path d="M4.51723651,23.7289031 L7.8812484,23.7289031 L7.8812484,20.3577495 L4.51723651,20.3577495 L4.51723651,23.7289031 Z M3.67595552,24.5714129 L8.72197335,24.5714129 L8.72197335,19.5146824 L3.67595552,19.5146824 L3.67595552,24.5714129 Z" id="Fill-328" fill="#203A44"></path>
                                    <polygon id="Fill-329" fill="#203A44" points="5.35796146 22.8858361 7.03996741 22.8858361 7.03996741 21.2008165 5.35796146 21.2008165"></polygon>
                                </g>
                                <polygon id="Fill-338" stroke="none" fill="#FFFFFF" fill-rule="evenodd" points="20.259687 91.345808 6.47224261 91.345808 9.23684875 107.946929 17.4956369 107.946929"></polygon>
                                <path d="M20.3271341,89.5647802 L6.40512918,89.5647802 C5.91415026,89.5647802 5.51658522,89.9631893 5.51658522,90.4552105 C5.51658522,90.9466746 5.91415026,91.3456409 6.40512918,91.3456409 L20.3271341,91.3456409 C20.818113,91.3456409 21.2156781,90.9466746 21.2156781,90.4552105 C21.2156781,89.9631893 20.818113,89.5647802 20.3271341,89.5647802" id="Fill-339" stroke="none" fill="#FFFFFF" fill-rule="evenodd"></path>
                                <polygon id="Fill-340" stroke="none" fill="#A4C6E5" fill-rule="evenodd" points="6.82943951 93.4898061 9.23707116 107.946762 17.4953033 107.946762 19.9023789 93.4898061"></polygon>
                                <polygon id="Fill-341" stroke="none" fill="#C3D8EE" fill-rule="evenodd" points="6.40496237 91.345808 20.1540404 91.9777785 20.3269673 91.345808"></polygon>
                                <polygon id="Fill-342" stroke="none" fill="#FFFFFF" fill-rule="evenodd" points="41.9481667 91.345808 28.1607223 91.345808 30.9253284 107.946929 39.1835606 107.946929"></polygon>
                                <path d="M42.0155026,89.5647802 L28.0934977,89.5647802 C27.6025187,89.5647802 27.2049537,89.9631893 27.2049537,90.4552105 C27.2049537,90.9466746 27.6025187,91.3456409 28.0934977,91.3456409 L42.0155026,91.3456409 C42.5064815,91.3456409 42.9040465,90.9466746 42.9040465,90.4552105 C42.9040465,89.9631893 42.5064815,89.5647802 42.0155026,89.5647802" id="Fill-343" stroke="none" fill="#FFFFFF" fill-rule="evenodd"></path>
                                <polygon id="Fill-344" stroke="none" fill="#A4C6E5" fill-rule="evenodd" points="28.5179192 93.4898061 30.9249948 107.946762 39.183783 107.946762 41.5908586 93.4898061"></polygon>
                                <polygon id="Fill-345" stroke="none" fill="#C3D8EE" fill-rule="evenodd" points="28.0934421 91.345808 41.8425201 91.9777785 42.015447 91.345808"></polygon>
                            </g>
                        </g>
                    </g>
                    <g id="Group-62" transform="translate(104.000000, 22.000000)">
                        <g id="Group-30" transform="translate(33.610256, 64.216981)">
                            <path d="M78.3897436,135.78326 C78.3897436,136.887475 60.9290136,137.783019 39.3897436,137.783019 C17.8504736,137.783019 0.38974359,136.887475 0.38974359,135.78326 C0.38974359,134.678563 17.8504736,133.783019 39.3897436,133.783019 C60.9290136,133.783019 78.3897436,134.678563 78.3897436,135.78326" id="Fill-27" fill="#E8F2FF"></path>
                            <g id="Group-26" transform="translate(6.389744, 0.783019)">
                                <path d="M15.1138487,119.16017 C15.6323951,121.238467 15.8413388,122.066978 16.1453493,123.261531 C16.4259745,124.363403 16.2724441,125.310339 14.9064301,126.095317 L14.3451799,130.631529 L21.1793166,130.720466 L23.653088,126.803998 L23.653088,119.16017 L15.1138487,119.16017 Z" id="Fill-1" fill="#FDC39B"></path>
                                <path d="M22.8735908,40.3993416 L3.89835061,40.3993416 C3.89835061,51.4990417 5.22216911,64.7978052 6.91812091,77.2802285 C8.22262101,86.0296737 11.4853964,106.379202 12.8859801,115.087456 C13.1345774,116.630732 13.9149389,118.056519 15.1136962,119.160263 L23.6529355,119.160263 C24.4576992,117.769115 24.8588101,116.209924 24.8176314,114.634349 L22.8735908,40.3993416 Z" id="Fill-3" fill="#3B77BB"></path>
                                <polygon id="Fill-5" fill="#263943" points="24.343619 96.544876 23.6644249 70.6101574 12.9422068 55.5045856"></polygon>
                                <path d="M5.11952742,0.426097795 L3.89840145,40.3991543 L22.1852967,43.6687282 C22.1852967,43.6687282 35.7396933,23.6066042 35.7396933,4.16937371 L35.6705537,0.426097795 L5.11952742,0.426097795 Z" id="Fill-7" fill="#3B77BB"></path>
                                <g id="Group-11" transform="translate(41.178686, 120.765935)">
                                    <mask id="mask-6" fill="white">
                                        <use xlink:href="#path-5"></use>
                                    </mask>
                                    <g id="Clip-10"></g>
                                    <path d="M3.02246471,9.58301102 C3.25987763,9.49875572 3.50694974,9.43322381 3.76215592,9.38641531 L9.09504994,8.32807508 C9.86321036,8.18858574 10.6120524,7.98169216 11.341576,7.73033051 C12.1712503,6.95377746 12.904841,6.09250102 13.5052364,5.14884162 C13.8494088,4.6086715 14.0339504,4.01233118 14.0786877,3.40943768 L14.0786877,3.40990576 L14.0873301,3.41271427 L16.424856,3.85739504 C18.3297515,4.21922476 20.2844682,3.4932249 21.3835832,2.01594857 L22.6250443,0.348161639 C24.9798551,4.75050126 26.8308625,7.41016035 26.8308625,7.41016035 L19.9158935,10.6301172 L12.7299586,13.9773932 L4.49422145,13.9773932 L0.547168144,13.9773932 C0.138431558,12.1574786 1.13942949,10.2505003 3.02246471,9.58301102" id="Fill-9" fill="#6B422C" mask="url(#mask-6)"></path>
                                </g>
                                <path d="M54.6497084,121.838833 L62.3282624,118.242536 C62.8595183,119.322876 63.3048581,120.182748 63.8035778,121.114238 L62.5621166,122.782493 C61.4630016,124.259301 59.5087933,124.985301 57.6038978,124.623003 L55.2658636,124.17879 L55.2572211,124.175982 C55.3172098,123.370875 55.1209756,122.553599 54.6497084,121.838833" id="Fill-12" fill="#FDC39B"></path>
                                <path d="M31.2166467,58.7023899 C31.2166467,58.7023899 36.6557919,38.0809594 36.6557919,29.5784845 C36.6557919,25.2771195 30.5743842,18.4568617 34.0358966,14.8849388 L5.59587839,21.7051966 L8.57548676,61.2045413 L49.1110735,116.633687 C49.9366807,117.763381 51.2849014,118.623423 52.8964623,119.049795 L61.1327079,116.093615 L61.260311,115.713337 C61.6304107,114.610532 61.5165339,113.447035 60.9354569,112.397238 L31.2166467,58.7023899 Z" id="Fill-14" fill="#3B77BB"></path>
                                <polygon id="Fill-16" fill="#2A5C96" points="52.8962081 119.049983 54.6496067 121.838833 62.3286691 118.242536 61.1324537 115.4476"></polygon>
                                <path d="M3.89824893,40.3993416 C3.89824893,45.2238939 8.14575413,49.1347442 13.3856148,49.1347442 C18.6259839,49.1347442 22.8734891,45.2238939 22.8734891,40.3993416 C22.8734891,35.5743212 18.6259839,31.6639389 13.3856148,31.6639389 C8.14575413,31.6639389 3.89824893,35.5743212 3.89824893,40.3993416" id="Fill-18" fill="#3B77BB"></path>
                                <path d="M0.103760121,134.74272 L0.381843346,133.250465 C0.723473925,131.607487 2.11287329,130.319785 3.89474112,129.994466 L8.2484975,128.931913 C12.287059,127.928338 14.9062268,126.095317 14.9062268,126.095317 C14.9062268,126.095317 15.2758182,126.369615 15.7892808,126.751573 C17.6712993,128.14787 20.2797911,128.369274 22.4058314,127.31187 L23.6528847,126.691658 L23.8857222,134.74272 L0.103760121,134.74272 Z" id="Fill-20" fill="#6B422C"></path>
                                <path d="M24.5754952,5.76255929 C16.9767567,5.76255929 5.02832888,10.3825585 5.02832888,10.3825585 L5.16914982,5.76255929 L24.5754952,5.76255929 Z" id="Fill-22" fill="#263943"></path>
                                <polygon id="Fill-24" fill="#2A5C96" points="15.7845529 121.838833 23.6532406 121.838833 23.6532406 119.159983 15.1140012 119.159983"></polygon>
                            </g>
                        </g>
                        <polygon id="Fill-334" fill="#FFFFFF" points="38.4710456 64.1556116 25.8647909 64.1556116 28.3925493 79.4264497 35.9432872 79.4264497"></polygon>
                        <path d="M38.5327144,62.5173013 L25.8034271,62.5173013 C25.3545111,62.5173013 24.991006,62.8842975 24.991006,63.3368921 C24.991006,63.7884616 25.3545111,64.1554578 25.8034271,64.1554578 L38.5327144,64.1554578 C38.9816305,64.1554578 39.3451356,63.7884616 39.3451356,63.3368921 C39.3451356,62.8842975 38.9816305,62.5173013 38.5327144,62.5173013" id="Fill-335" fill="#FFFFFF"></path>
                        <polygon id="Fill-337" fill="#C3D8EE" points="25.8032746 64.1556116 38.3744499 64.7369409 38.5325619 64.1556116"></polygon>
                        <polygon id="Fill-346" fill="#B86B45" points="12.8624426 39.2296448 20.3018412 43.6397509 23.0832906 40.6499614 23.3024105 34.4469042 11.8278512 29.5729271 11.4201155 30.5980564"></polygon>
                        <path d="M17.2372137,31.6437907 L17.2372137,19.904523 C17.2372137,19.2648423 17.6230883,18.6892322 18.211814,18.4503771 L23.7884396,16.1894545" id="Stroke-347" stroke="#6593CA" stroke-width="0.902159541"></path>
                        <polygon id="Fill-348" fill="#FFFFFF" points="23.7886938 27.9677285 21.0916386 43.6393921 13.6212277 43.6393921 10.9246809 27.9677285"></polygon>
                        <polygon id="Fill-349" fill="#34B92F" points="23.1561441 31.6437907 21.0915369 43.6393408 13.6211261 43.6393408 11.5570272 31.6437907"></polygon>
                        <polygon id="Fill-350" fill="#E0EBF5" points="23.3386084 30.5830895 11.2016057 29.5789754 11.1888957 29.5046535 11.1868621 29.4938897 23.5262076 29.4938897"></polygon>
                        <polygon id="Fill-351" fill="#FDC39B" points="24.3770128 33.1764615 29.4071098 44.4605719 22.2941033 47.9424234 20.3016887 43.6394433"></polygon>
                        <path d="M17.3566365,22.0056792 C20.9088184,22.0056792 23.7888972,24.9088452 23.7888972,28.4901343 L10.9243759,28.4901343 C10.9243759,24.9088452 13.8044546,22.0056792 17.3566365,22.0056792" id="Fill-352" fill="#FFFFFF"></path>
                        <path d="M10.9272737,29.4938897 L23.7856943,29.4938897 C24.2000392,29.4938897 24.5360908,29.155597 24.5360908,28.7373443 L24.5360908,28.243232 C24.5360908,27.8249792 24.2000392,27.4866866 23.7856943,27.4866866 L10.9272737,27.4866866 C10.5129288,27.4866866 10.1768772,27.8249792 10.1768772,28.243232 L10.1768772,28.7373443 C10.1768772,29.155597 10.5129288,29.4938897 10.9272737,29.4938897" id="Fill-353" fill="#FFFFFF"></path>
                        <path d="M17.3566365,22.0056792 C17.4552659,22.0056792 17.5533868,22.008242 17.6509994,22.0128551 L17.6509994,31.6439445 L16.8233263,31.6439445 L16.8233263,22.0292571 C16.9992322,22.0149053 17.1766634,22.0056792 17.3566365,22.0056792" id="Fill-354" fill="#E0EBF5"></path>
                        <path d="M21.3651063,37.7489993 C21.5781253,37.4399229 21.8552026,36.9832278 22.1210952,36.5352463 C22.9238568,35.1836134 21.5181343,31.2286647 21.5654154,30.4362397 C21.6381164,29.2117228 22.5166294,29.1512402 22.5166294,29.1512402 C25.3611202,34.9857634 25.7195413,35.973988 24.4231246,41.203685 L20.3015361,43.6393921 C19.3503221,41.6516664 19.8673636,39.9186854 21.3651063,37.7489993" id="Fill-355" fill="#FDC39B"></path>
                        <path d="M11.4541782,31.7023256 L11.4541782,31.7023256 C12.0591727,31.6833607 12.5340171,31.1738715 12.5152063,30.5639196 C12.4963956,29.9539677 11.9910472,29.4747197 11.3860527,29.4936846 C10.7810583,29.5131621 10.3062139,30.0231639 10.3250246,30.6326032 C10.3438354,31.2425552 10.8491837,31.7212905 11.4541782,31.7023256" id="Fill-356" fill="#FDC39B"></path>
                        <path d="M11.8194627,33.8532006 L11.8194627,33.8532006 C12.4244571,33.8342357 12.8993016,33.3247465 12.8804908,32.7147945 C12.86168,32.1048426 12.3563317,31.6255947 11.7513372,31.6445596 C11.1463428,31.664037 10.6714983,32.1740389 10.6903091,32.7834782 C10.7091198,33.3934301 11.2144682,33.8721655 11.8194627,33.8532006" id="Fill-357" fill="#FDC39B"></path>
                        <path d="M12.1847471,36.0040756 L12.1847471,36.0040756 C12.7897416,35.9851107 13.264586,35.4756214 13.2457753,34.8656695 C13.2269645,34.2557176 12.7216162,33.7764697 12.1166217,33.7954346 C11.5116272,33.814912 11.0367828,34.3244013 11.0555936,34.9343532 C11.0744043,35.5443051 11.5797527,36.0230405 12.1847471,36.0040756" id="Fill-358" fill="#FDC39B"></path>
                        <path d="M13.3145108,37.8070729 L13.3145108,37.8070729 C13.7288558,37.3626794 13.707503,36.6635412 13.2662129,36.245801 C12.8254312,35.8280609 12.1319754,35.8495886 11.717122,36.2944947 C11.302777,36.7388882 11.3246382,37.4380264 11.7654199,37.8562791 C12.20671,38.2735067 12.9001658,38.251979 13.3145108,37.8070729" id="Fill-359" fill="#FDC39B"></path>
                        <path d="M61.3461412,42.3870942 C58.48589,39.5931044 53.9209778,39.6658885 51.1496964,42.5500897 C50.9361689,42.7725428 50.7150155,43.0390764 50.5350423,43.2804943 L38.3324561,59.8860507 L31.2667307,44.6480168 C30.6505514,43.3189367 29.0480786,42.7920202 27.7730146,43.4988469 L21.892875,46.7582454 C20.7779566,47.3763983 20.2954862,48.7362323 20.7693138,49.9274325 L30.502099,74.4034188 C31.5778707,77.1092475 34.6262294,78.4239758 37.3105747,77.3383639 C38.0080978,77.0569659 38.629361,76.621286 39.1230162,76.1123093 L60.8479104,53.3539271 L61.507812,52.6670904 C64.2790934,49.7834018 64.2063924,45.1805714 61.3461412,42.3870942" id="Fill-360" fill="#62B446"></path>
                        <polygon id="Fill-361" fill="#203A44" points="45.2515086 70.4465224 43.4238152 52.9578171 46.5824964 48.6589375"></polygon>
                        <path d="M45.7241669,90.615223 L45.7241669,90.615223 C43.6321061,88.5065321 42.6620814,85.5213557 43.1089638,82.573084 C44.0708542,76.233172 44.4221577,51.0324193 47.2651234,47.0185257 C48.3952938,45.422912 50.4090611,42.8354857 52.4818027,40.2280694 C56.4315524,35.260293 63.4860931,34.1439273 68.7632719,37.6406432 C72.6642153,40.2255066 75.1274071,44.5136223 75.4105852,49.2112772 L77.4528229,83.0994878 C77.6211028,85.8970656 76.5926122,88.6336482 74.6266344,90.615223" id="Fill-365" fill="#62B446"></path>
                        <path d="M52.4819044,40.2282232 C52.8865898,39.7192465 53.3309303,39.2610137 53.7961151,38.8330223 L53.7961151,46.5912006 L51.3863051,41.6126603 C51.7472682,41.1549401 52.1122985,40.6926068 52.4819044,40.2282232" id="Fill-366" fill="#263A43"></path>
                        <path d="M44.540818,20.7002283 C46.782348,17.1235523 48.3904131,10.467388 48.3904131,10.467388 L51.3223486,10.2367339 L61.6591115,7.36432171 L65.9469463,14.2378134 L62.9794229,28.041179 L65.2814524,36.0520516 C65.2814524,36.0520516 59.4841817,46.5914056 53.7962168,46.5914056 L53.4723668,36.0177098 C53.4245773,34.4707897 52.2034036,33.2165441 50.6695646,33.1534986 C49.0909866,33.0889155 47.5108834,32.9448848 46.862675,32.7393464 C45.7660589,32.3928527 45.0919222,31.2877634 45.251051,30.1401311 L46.2063322,22.9708896 L45.1325941,22.5264961 C44.4188023,22.2312589 44.129015,21.3573362 44.540818,20.7002283" id="Fill-367" fill="#FDC39B"></path>
                        <path d="M49.6949134,0.454437905 C55.1612165,-0.0904182995 55.5709859,5.36429452 55.5709859,5.36429452 C55.5709859,5.36429452 56.953322,3.24330207 60.0235419,3.29763392 C64.1888527,3.3704181 64.6001472,8.4340441 64.6001472,8.4340441 L67.7771309,10.2018795 C70.5311268,11.7334226 71.3969298,15.3116363 69.6521054,17.9498065 L62.9793721,28.041179 C59.7195195,28.3466675 58.7433939,24.5403625 58.7433939,24.5403625 C64.2112222,24.5403625 65.8386065,19.4869878 62.9742881,18.2773353 C60.1104781,17.0687079 58.0697656,21.3901403 58.0697656,21.3901403 L56.3996758,20.4711119 C57.101266,17.8042381 58.2004241,15.5853458 59.1394365,14.0148478 C59.7200279,13.044563 58.9401442,11.8220963 57.8231922,11.9456244 C42.4593828,13.6524646 43.8157906,1.04132441 49.6949134,0.454437905" id="Fill-372" fill="#884E42"></path>
                        <path d="M58.0698673,30.6762225 C58.0698673,30.6762225 56.6641448,33.570675 53.405309,35.4784405 C53.1277233,34.1893405 52.0204309,33.2088043 50.6696155,33.1534474 C56.2020104,33.1534474 58.0698673,30.6762225 58.0698673,30.6762225" id="Fill-373" fill="#263A43"></path>
                        <path d="M44.3760968,85.858982 L74.8169788,85.858982" id="Stroke-374" stroke="#3C7644" stroke-width="0.737068409" stroke-linecap="round" stroke-linejoin="round"></path>
                        <path d="M67.381495,39.0849991 C66.251833,41.1393581 60.9665199,50.0103142 53.651679,50.0103142 C50.2037189,50.0103142 49.5865228,47.2055605 50.1228835,44.1942433" id="Stroke-375" stroke="#3C7644" stroke-width="0.737068409" stroke-linecap="round" stroke-linejoin="round"></path>
                        <path d="M45.1497272,85.858982 C45.3215659,87.0932377 45.9041909,88.3982272 46.2763387,89.3387833" id="Stroke-376" stroke="#3C7644" stroke-width="0.737068409" stroke-linecap="round" stroke-linejoin="round"></path>
                        <path d="M47.1008089,85.858982 C47.2497698,87.0932377 47.7546097,88.3982272 48.0769345,89.3387833" id="Stroke-377" stroke="#3C7644" stroke-width="0.737068409" stroke-linecap="round" stroke-linejoin="round"></path>
                        <path d="M49.0518399,85.858982 C49.1779228,87.0932377 49.6049777,88.3982272 49.8779878,89.3387833" id="Stroke-378" stroke="#3C7644" stroke-width="0.737068409" stroke-linecap="round" stroke-linejoin="round"></path>
                        <path d="M51.0029217,85.858982 C51.1061266,87.0932377 51.4553965,88.3982272 51.6785836,89.3387833" id="Stroke-379" stroke="#3C7644" stroke-width="0.737068409" stroke-linecap="round" stroke-linejoin="round"></path>
                        <path d="M52.9539526,85.858982 C53.034009,87.0932377 53.3050862,88.3982272 53.4778662,89.3387833" id="Stroke-380" stroke="#3C7644" stroke-width="0.737068409" stroke-linecap="round" stroke-linejoin="round"></path>
                        <path d="M54.9050344,85.858982 C54.96229,87.0932377 55.1558441,88.3982272 55.2794756,89.3387833" id="Stroke-381" stroke="#3C7644" stroke-width="0.737068409" stroke-linecap="round" stroke-linejoin="round"></path>
                        <path d="M56.8562179,85.858982 C56.8906725,87.0932377 57.0067037,88.3982272 57.0806799,89.3387833" id="Stroke-382" stroke="#3C7644" stroke-width="0.737068409" stroke-linecap="round" stroke-linejoin="round"></path>
                        <path d="M58.8072488,85.858982 C58.8183959,87.0932377 58.8574108,88.3982272 58.8822384,89.3387833" id="Stroke-383" stroke="#3C7644" stroke-width="0.737068409" stroke-linecap="round" stroke-linejoin="round"></path>
                        <path d="M60.7580263,85.858982 C60.7463725,87.0932377 60.7078644,88.3982272 60.6830367,89.3387833" id="Stroke-384" stroke="#3C7644" stroke-width="0.737068409" stroke-linecap="round" stroke-linejoin="round"></path>
                        <path d="M62.7086029,85.858982 C62.6741483,87.0932377 62.5581171,88.3982272 62.4841409,89.3387833" id="Stroke-385" stroke="#3C7644" stroke-width="0.737068409" stroke-linecap="round" stroke-linejoin="round"></path>
                        <path d="M64.659127,85.858982 C64.6018714,87.0932377 64.4083173,88.3982272 64.2846858,89.3387833" id="Stroke-386" stroke="#3C7644" stroke-width="0.737068409" stroke-linecap="round" stroke-linejoin="round"></path>
                        <path d="M66.6097036,85.858982 C66.5296472,87.0932377 66.2590767,88.3982272 66.08579,89.3387833" id="Stroke-387" stroke="#3C7644" stroke-width="0.737068409" stroke-linecap="round" stroke-linejoin="round"></path>
                        <path d="M68.5625052,85.858982 C68.4593003,87.0932377 68.1100303,88.3982272 67.8868433,89.3387833" id="Stroke-388" stroke="#3C7644" stroke-width="0.737068409" stroke-linecap="round" stroke-linejoin="round"></path>
                        <path d="M70.5136887,85.858982 C70.3876058,87.0932377 69.9605509,88.3982272 69.6875407,89.3387833" id="Stroke-389" stroke="#3C7644" stroke-width="0.737068409" stroke-linecap="round" stroke-linejoin="round"></path>
                        <path d="M72.4647705,85.858982 C72.3158096,87.0932377 71.8109697,88.3982272 71.4886449,89.3387833" id="Stroke-390" stroke="#3C7644" stroke-width="0.737068409" stroke-linecap="round" stroke-linejoin="round"></path>
                        <path d="M74.4158014,85.858982 C74.2439626,87.0932377 73.6613377,88.3982272 73.2891898,89.3387833" id="Stroke-391" stroke="#3C7644" stroke-width="0.737068409" stroke-linecap="round" stroke-linejoin="round"></path>
                        <path d="M49.0374522,18.5138326 C49.0272842,18.9736031 49.2931768,19.3534135 49.6312619,19.3605894 C49.9698555,19.3682779 50.2520168,19.0012816 50.2621847,18.5409985 C50.2718443,18.0807155 50.0059518,17.7014177 49.6678666,17.6937292 C49.3297815,17.6865533 49.0476202,18.0535496 49.0374522,18.5138326" id="Fill-392" fill="#263A43"></path>
                        <path d="M48.3127298,16.6067334 C50.2100739,16.0203594 51.7835679,17.2894695 51.7835679,17.2894695" id="Stroke-393" stroke="#884E42" stroke-width="0.737068409" stroke-linecap="round" stroke-linejoin="round"></path>
                        <path d="M45.6725136,26.9781199 C45.6725136,26.9781199 47.8321913,26.9781199 48.9664289,26.0893329 L45.8804486,25.4153104 L45.6725136,26.9781199 Z" id="Fill-394" fill="#FFFFFF"></path>
                        <polygon id="Fill-395" fill="#203A44" points="51.3864577 70.9721061 51.7835171 74.9296177 76.2232606 62.6926496 75.7311306 54.5346709 65.9469971 53.2143044"></polygon>
                        <polygon id="Fill-396" fill="#203A44" points="7.17084434 59.7472482 9.28448494 58.6494415 2.26152209 44.2569588 0.147881492 45.3547655"></polygon>
                        <path d="M3.58975831,57.3406035 C3.58975831,57.3406035 3.17439655,57.8147258 3.07170001,58.4395421 L4.51860278,57.6701826 L3.58975831,57.3406035 Z" id="Fill-397" fill="#203A44"></path>
                        <path d="M3.83699261,59.4674392 C3.83699261,59.4674392 3.42163085,59.9415615 3.31893431,60.5663778 L4.76583708,59.7970182 L3.83699261,59.4674392 Z" id="Fill-398" fill="#203A44"></path>
                        <path d="M15.1172418,61.6208257 L12.7526794,56.9974927 C12.5528787,56.6069185 12.242247,56.2845153 11.8604396,56.0723136 L10.0098682,55.0430838 C9.36318506,54.683776 8.58025103,54.675575 7.92594187,55.0215561 L6.32956988,55.8662626 L5.01993476,55.401879 L4.15718213,55.0963905 C3.45864228,54.8477967 2.74383367,55.4234068 2.82822786,56.1650878 L2.82873626,56.1650878 C2.88771051,56.6843157 3.33611819,57.2506997 3.82468936,57.4239465 L4.51865362,57.6699775 C3.89433999,57.4485496 3.2115605,57.7873548 3.07175085,58.439337 C2.95176875,59.0005953 3.26595916,59.5269992 3.76571511,59.7043466 L4.50899404,59.9678048 C4.01381369,59.7930202 3.4520331,60.0539156 3.31883263,60.5659677 C3.19427494,61.0477785 3.45864228,61.5065238 3.88569721,61.6582429 L4.40121351,61.8412285 L4.43171744,62.1082747 C4.53848117,63.0437051 5.12822369,63.8525321 5.98233355,64.2338802 L7.53905044,64.9289179 L12.5015304,67.1457599 L15.1172418,61.6208257 Z" id="Fill-399" fill="#FDC39B"></path>
                        <path d="M4.40116267,61.8410235 L4.4316666,62.1080697 C4.45352774,62.300794 4.50080882,62.4863424 4.56181667,62.6647149 L6.19072618,62.4755785 L4.40116267,61.8410235 Z" id="Fill-400" fill="#203A44"></path>
                        <polygon id="Fill-401" fill="#FDC39B" points="15.1172418 61.6208257 12.8452079 64.1462317 12.5015304 67.1457599 31.9462564 75.5851366 34.8212512 67.6485858"></polygon>
                        <path d="M48.2682958,77.1954609 L72.23472,61.1588512 C76.0446601,58.6093547 76.9887565,53.3781201 74.3145792,49.6389611 C71.5743101,45.8085656 66.18325,45.1324929 62.596497,48.1704634 L39.5060438,67.7258293 L17.4278124,61.0486498 L13.6122799,69.1604977 C13.6122799,69.1604977 33.2603654,79.0227538 38.5751657,80.1550091 C42.0556634,80.8972026 44.6459549,79.3610464 47.7141412,77.5455425 C47.9012319,77.434316 48.086289,77.3179638 48.2682958,77.1954609" id="Fill-402" fill="#62B446"></path>
                        <polygon id="Fill-403" fill="#203A44" points="7.51134271 55.24078 6.32982408 55.8666214 9.67864647 57.0542336"></polygon>
                        <path d="M39.5058404,67.7260343 L30.3744909,64.9643361" id="Stroke-404" stroke="#3C7644" stroke-width="0.737068409" stroke-linecap="round" stroke-linejoin="round"></path>
                        <path d="M56.4787318,53.7761778 L39.5058404,67.7261368" id="Stroke-405" stroke="#3C7644" stroke-width="0.737068409" stroke-linecap="round" stroke-linejoin="round"></path>
                    </g>
                </g>
            </g>
        </g>
    </g>
</svg>