<?xml version="1.0" encoding="UTF-8"?>
<svg width="280px" height="220px" viewBox="0 0 280 220" version="1.1" xmlns="http://www.w3.org/2000/svg" xmlns:xlink="http://www.w3.org/1999/xlink">
    <!-- Generator: Sketch 53 (72520) - https://sketchapp.com -->
    <title>img-careers</title>
    <desc>Created with Sketch.</desc>
    <defs>
        <polygon id="path-1" points="44.414493 116.073801 109.335748 116.073801 109.335748 69.4933937 44.414493 69.4933937"></polygon>
        <filter x="-4.6%" y="-6.4%" width="118.5%" height="125.8%" filterUnits="objectBoundingBox" id="filter-2">
            <feOffset dx="6" dy="6" in="SourceAlpha" result="shadowOffsetOuter1"></feOffset>
            <feColorMatrix values="0 0 0 0 0.498039216   0 0 0 0 0.635294118   0 0 0 0 0.815686275  0 0 0 0.3 0" type="matrix" in="shadowOffsetOuter1"></feColorMatrix>
        </filter>
        <path d="M33.2381874,65.1483679 C29.8774182,65.1483679 27.1519601,62.4181959 27.1519601,59.0505036 C27.1519601,55.6810104 29.8774182,52.9508385 33.2381874,52.9508385 L56.9666559,52.9508385 C60.3283238,52.9508385 63.0528832,55.6810104 63.0528832,59.0505036 C63.0528832,62.4181959 60.3283238,65.1483679 56.9666559,65.1483679 L33.2381874,65.1483679 Z" id="path-3"></path>
        <filter x="-4.2%" y="-12.3%" width="116.7%" height="149.2%" filterUnits="objectBoundingBox" id="filter-4">
            <feOffset dx="3" dy="3" in="SourceAlpha" result="shadowOffsetOuter1"></feOffset>
            <feColorMatrix values="0 0 0 0 0.498039216   0 0 0 0 0.635294118   0 0 0 0 0.815686275  0 0 0 0.3 0" type="matrix" in="shadowOffsetOuter1"></feColorMatrix>
        </filter>
        <polygon id="path-5" points="0 197.199095 257 197.199095 257 0.484443439 0 0.484443439"></polygon>
        <polygon id="path-7" points="150.585825 81.8655385 215.916843 81.8655385 215.916843 34.9510633 150.585825 34.9510633"></polygon>
        <filter x="-4.6%" y="-6.4%" width="118.4%" height="125.6%" filterUnits="objectBoundingBox" id="filter-8">
            <feOffset dx="6" dy="6" in="SourceAlpha" result="shadowOffsetOuter1"></feOffset>
            <feColorMatrix values="0 0 0 0 0.498039216   0 0 0 0 0.635294118   0 0 0 0 0.815686275  0 0 0 0.3 0" type="matrix" in="shadowOffsetOuter1"></feColorMatrix>
        </filter>
        <path d="M166.483685,144.262394 L213.639983,144.262394 C216.125264,144.262394 218.139983,142.247675 218.139983,139.762394 L218.139983,114.553303 C218.139983,112.068022 216.125264,110.053303 213.639983,110.053303 L166.483685,110.053303 C163.998404,110.053303 161.983685,112.068022 161.983685,114.553303 L161.983685,139.762394 C161.983685,142.247675 163.998404,144.262394 166.483685,144.262394 Z" id="path-9"></path>
        <filter x="-5.3%" y="-8.8%" width="121.4%" height="135.1%" filterUnits="objectBoundingBox" id="filter-10">
            <feOffset dx="6" dy="6" in="SourceAlpha" result="shadowOffsetOuter1"></feOffset>
            <feColorMatrix values="0 0 0 0 0.498039216   0 0 0 0 0.635294118   0 0 0 0 0.815686275  0 0 0 0.3 0" type="matrix" in="shadowOffsetOuter1"></feColorMatrix>
        </filter>
        <path d="M217.151072,85.8060086 L190.866981,85.8060086 C189.546037,85.8060086 188.474904,84.7335697 188.474904,83.4090041 L188.474904,67.2251715 C188.474904,65.9024068 189.546037,64.828167 190.866981,64.828167 L217.151072,64.828167 C218.472016,64.828167 219.543149,65.9024068 219.543149,67.2251715 L219.543149,83.4090041 C219.543149,84.7335697 218.472016,85.8060086 217.151072,85.8060086" id="path-11"></path>
        <filter x="-9.7%" y="-14.3%" width="138.6%" height="157.2%" filterUnits="objectBoundingBox" id="filter-12">
            <feOffset dx="6" dy="6" in="SourceAlpha" result="shadowOffsetOuter1"></feOffset>
            <feColorMatrix values="0 0 0 0 0.498039216   0 0 0 0 0.635294118   0 0 0 0 0.815686275  0 0 0 0.3 0" type="matrix" in="shadowOffsetOuter1"></feColorMatrix>
        </filter>
        <path d="M69.3752913,143.861242 L90.4256912,143.861242 C92.9109726,143.861242 94.9256912,141.846523 94.9256912,139.361242 L94.9256912,93.0221335 C94.9256912,90.5368521 92.9109726,88.5221335 90.4256912,88.5221335 L69.3752913,88.5221335 C66.8900099,88.5221335 64.8752913,90.5368521 64.8752913,93.0221335 L64.8752913,139.361242 C64.8752913,141.846523 66.8900099,143.861242 69.3752913,143.861242 Z" id="path-13"></path>
        <filter x="-10.0%" y="-5.4%" width="139.9%" height="121.7%" filterUnits="objectBoundingBox" id="filter-14">
            <feOffset dx="6" dy="6" in="SourceAlpha" result="shadowOffsetOuter1"></feOffset>
            <feColorMatrix values="0 0 0 0 0.498039216   0 0 0 0 0.635294118   0 0 0 0 0.815686275  0 0 0 0.3 0" type="matrix" in="shadowOffsetOuter1"></feColorMatrix>
        </filter>
    </defs>
    <g id="Page-1" stroke="none" stroke-width="1" fill="none" fill-rule="evenodd">
        <g id="SnapScan-Assets" transform="translate(-691.000000, -4203.000000)">
            <g id="img-careers" transform="translate(691.000000, 4203.000000)">
                <g id="Fill-1">
                    <use fill="black" fill-opacity="1" filter="url(#filter-2)" xlink:href="#path-1"></use>
                    <use fill="#F8FAFD" fill-rule="evenodd" xlink:href="#path-1"></use>
                </g>
                <polygon id="Fill-2" fill="#61B446" points="54.955986 110.152425 62.0127028 110.152425 62.0127028 85.5799774 54.955986 85.5799774"></polygon>
                <polygon id="Fill-3" fill="#61B446" points="67.2165035 110.152425 74.2732203 110.152425 74.2732203 81.3748643 67.2165035 81.3748643"></polygon>
                <polygon id="Fill-4" fill="#61B446" points="79.477021 110.152425 86.5337378 110.152425 86.5337378 77.1832579 79.477021 77.1832579"></polygon>
                <polygon id="Fill-5" fill="#61B446" points="91.7384371 110.152425 98.7951538 110.152425 98.7951538 77.1832579 91.7384371 77.1832579"></polygon>
                <g id="Group-69" transform="translate(11.000000, 11.416009)">
                    <path d="M42.1476406,99.0015095 C42.1476406,99.0015095 43.206193,85.6550027 56.1721126,86.1853692 C69.1389308,86.7148353 74.7848434,82.0306814 77.0780741,79.024971 C79.3713049,76.0210615 82.6350252,69.2145412 91.9849727,69.2145412" id="Stroke-6" stroke="#3C7644" stroke-width="1.8"></path>
                    <g id="Fill-8">
                        <use fill="black" fill-opacity="1" filter="url(#filter-4)" xlink:href="#path-3"></use>
                        <use fill="#FF9A71" fill-rule="evenodd" xlink:href="#path-3"></use>
                    </g>
                    <path d="M38.9279517,99.0015095 L92.8233678,99.0015095" id="Stroke-10" stroke="#3C7644" stroke-width="1.8"></path>
                    <mask id="mask-6" fill="white">
                        <use xlink:href="#path-5"></use>
                    </mask>
                    <g id="Clip-13"></g>
                    <g id="Fill-12" mask="url(#mask-6)">
                        <use fill="black" fill-opacity="1" filter="url(#filter-8)" xlink:href="#path-7"></use>
                        <use fill="#F8FAFD" fill-rule="evenodd" xlink:href="#path-7"></use>
                    </g>
                    <path d="M201.91214,165.459135 L195.355045,118.626601 C193.416762,104.779443 185.054378,92.668357 172.805542,85.969891 L151.269661,74.1901715 L99.9298671,74.1901715 L78.3930874,85.969891 C66.1451503,92.668357 57.7827657,104.780343 55.8435839,118.627502 L49.2873881,165.459135 C47.9628497,174.92019 55.2936399,183.369135 64.8278007,183.369135 L80.3754021,183.369135 L170.824126,183.369135 L186.371727,183.369135 C195.905888,183.369135 203.236678,174.92019 201.91214,165.459135" id="Fill-14" fill="#84B3E2" mask="url(#mask-6)"></path>
                    <polygon id="Fill-15" fill="#263943" mask="url(#mask-6)" points="80.761621 134.858698 87.4930441 112.300562 87.4930441 144.073929"></polygon>
                    <polygon id="Fill-16" fill="#263943" mask="url(#mask-6)" points="170.437907 134.858698 163.706484 112.300562 163.706484 144.073929"></polygon>
                    <path d="M85.543708,164.465486 C78.1437255,157.991233 73.020799,155.943604 67.9769493,155.7365 L93.5466521,155.7365 L93.5466521,172.424586 L85.543708,164.465486 Z" id="Fill-17" fill="#263943" mask="url(#mask-6)"></path>
                    <path d="M57.6335979,156.954902 C67.325014,155.142291 73.3330629,153.783508 85.5441573,164.465576" id="Stroke-18" stroke="#CDDCED" stroke-width="0.72" mask="url(#mask-6)"></path>
                    <path d="M165.65573,164.465486 C173.055713,157.991233 178.178639,155.943604 183.222489,155.7365 L157.652786,155.7365 L157.652786,172.424586 L165.65573,164.465486 Z" id="Fill-19" fill="#263943" mask="url(#mask-6)"></path>
                    <path d="M193.56593,156.954902 C183.874514,155.142291 177.866465,153.783508 165.655371,164.465576" id="Stroke-20" stroke="#CDDCED" stroke-width="0.72" mask="url(#mask-6)"></path>
                    <path d="M99.9296874,74.1898113 C106.460722,80.7343 115.318236,84.411748 124.55496,84.411748 L126.644208,84.411748 C135.880034,84.411748 144.738446,80.7343 151.269481,74.1898113 L148.340041,72.5870059 C143.902747,70.159386 141.142243,65.4986439 141.142243,60.4335986 L141.142243,55.0119742 L110.056925,55.0119742 L110.056925,60.4335986 C110.056925,65.4986439 107.296422,70.159386 102.859128,72.5870059 L99.9296874,74.1898113 Z" id="Fill-21" fill="#D1895B" mask="url(#mask-6)"></path>
                    <path d="M125.599944,65.025276 L128.104346,55.0122443 L110.056835,55.0122443 L110.056835,60.4329683 C110.056835,64.7659457 108.033185,68.7972715 104.672416,71.393276 C111.168405,67.3169276 113.637762,65.025276 125.599944,65.025276" id="Fill-22" fill="#263943" mask="url(#mask-6)"></path>
                    <path d="M113.453459,11.8088041 L105.507127,14.3985054 L105.507127,39.6219805 C105.507127,43.1787679 106.270039,46.6950348 107.743745,49.9321615 L110.056745,55.011614 C112.834322,61.1112792 118.909766,65.0255462 125.599854,65.0255462 C132.289941,65.0255462 138.364487,61.1112792 141.142064,55.011614 L143.455962,49.9321615 C144.929669,46.6950348 145.691683,43.1787679 145.691683,39.6219805 L145.691683,14.3985054 L113.453459,11.8088041 Z" id="Fill-23" fill="#D1895B" mask="url(#mask-6)"></path>
                    <path d="M139.053085,11.0508932 C143.469711,8.48820543 148.881987,12.1872643 148.113683,17.2424045 L146.08554,30.5835086 L145.692851,33.1723095 C145.692851,33.1723095 141.363389,25.7922009 141.363389,14.3987756" id="Fill-24" fill="#685B4F" mask="url(#mask-6)"></path>
                    <path d="M141.372016,14.7608475 C141.389089,16.8580014 141.54904,18.8155851 141.802446,20.6128882 C143.019152,19.6277932 144.888243,17.8818158 147.11947,15.0129742 L141.372016,14.7608475 Z" id="Fill-25" fill="#685B4F" mask="url(#mask-6)"></path>
                    <path d="M124.317819,40.6664154 L123.139753,44.8688271 C122.562851,48.0780398 128.183602,47.1568769 128.183602,47.1568769" id="Stroke-26" stroke="#4D3131" stroke-width="0.72" stroke-linecap="round" stroke-linejoin="round" mask="url(#mask-6)"></path>
                    <path d="M117.793344,38.265809 C117.793344,39.3049312 117.170613,40.1477548 116.402309,40.1477548 C115.634005,40.1477548 115.011274,39.3049312 115.011274,38.265809 C115.011274,37.2275873 115.634005,36.3847638 116.402309,36.3847638 C117.170613,36.3847638 117.793344,37.2275873 117.793344,38.265809" id="Fill-27" fill="#263943" mask="url(#mask-6)"></path>
                    <path d="M117.793344,38.265809 C117.793344,39.3049312 117.170613,40.1477548 116.402309,40.1477548 C115.634005,40.1477548 115.011274,39.3049312 115.011274,38.265809 C115.011274,37.2275873 115.634005,36.3847638 116.402309,36.3847638 C117.170613,36.3847638 117.793344,37.2275873 117.793344,38.265809 Z" id="Stroke-28" stroke="#263943" stroke-width="0.5" stroke-linecap="round" stroke-linejoin="round" mask="url(#mask-6)"></path>
                    <path d="M123.062114,56.0418217 C126.682579,56.6631339 130.572624,55.4250118 133.170481,52.8227041" id="Stroke-29" stroke="#4D3131" stroke-width="0.72" stroke-linecap="round" stroke-linejoin="round" mask="url(#mask-6)"></path>
                    <path d="M136.502944,38.265809 C136.502944,39.3049312 135.880213,40.1477548 135.111909,40.1477548 C134.343605,40.1477548 133.720874,39.3049312 133.720874,38.265809 C133.720874,37.2275873 134.343605,36.3847638 135.111909,36.3847638 C135.880213,36.3847638 136.502944,37.2275873 136.502944,38.265809" id="Fill-30" fill="#263943" mask="url(#mask-6)"></path>
                    <path d="M136.502944,38.265809 C136.502944,39.3049312 135.880213,40.1477548 135.111909,40.1477548 C134.343605,40.1477548 133.720874,39.3049312 133.720874,38.265809 C133.720874,37.2275873 134.343605,36.3847638 135.111909,36.3847638 C135.880213,36.3847638 136.502944,37.2275873 136.502944,38.265809 Z" id="Stroke-31" stroke="#263943" stroke-width="0.5" stroke-linecap="round" stroke-linejoin="round" mask="url(#mask-6)"></path>
                    <path d="M142.521597,4.94645566 L142.485652,4.94645566 C140.520411,4.94645566 112.298037,-7.84897421 110.160264,9.89804389 C106.543394,7.79998959 102.111492,10.8291118 102.740513,14.9693923 L105.507306,33.1729398 C105.507306,33.1729398 108.225576,28.5157995 109.351523,20.9051751 L109.358712,20.9141796 C109.80352,17.9021661 112.892911,16.0778493 115.730694,17.1700982 L115.725303,17.1664964 C119.478761,18.6126231 124.692446,20.083062 130.380593,20.083062 C137.031142,20.083062 142.216072,18.0723516 145.325233,16.4425326 C147.336303,15.3890032 148.599736,13.3116593 148.599736,11.0371163 C148.599736,7.67302579 145.878771,4.94645566 142.521597,4.94645566" id="Fill-32" fill="#203A44" mask="url(#mask-6)"></path>
                    <path d="M130.946352,28.3766796 C133.520845,26.9845801 136.622817,26.6027882 139.457006,27.3285529" id="Stroke-33" stroke="#4D3131" stroke-width="0.72" stroke-linecap="round" stroke-linejoin="round" mask="url(#mask-6)"></path>
                    <path d="M120.850296,28.3766796 C118.275803,26.9845801 115.173831,26.6027882 112.339642,27.3285529" id="Stroke-34" stroke="#4D3131" stroke-width="0.72" stroke-linecap="round" stroke-linejoin="round" mask="url(#mask-6)"></path>
                    <path d="M157.652966,77.6807756 L156.941273,78.3948344 C148.62921,86.7240199 137.355357,91.402771 125.599854,91.402771 C113.84435,91.402771 102.570497,86.7240199 94.2575357,78.3939339 L93.5458434,77.681676" id="Stroke-35" stroke="#BBD8F9" stroke-width="0.72" mask="url(#mask-6)"></path>
                    <polygon id="Fill-36" fill="#F8FAFD" mask="url(#mask-6)" points="0 191.224973 257 191.224973 257 183.224973 0 183.224973"></polygon>
                    <g id="laptop-coffee" mask="url(#mask-6)">
                        <g transform="translate(77.000000, 114.000000)">
                            <path d="M94.1140255,69.6457606 L6.13721019,69.6457606 C2.98982166,69.6457606 0.438738854,67.0981549 0.438738854,63.9560423 L0.438738854,6.51266197 C0.438738854,3.21970423 3.11125478,0.550830986 6.40870701,0.550830986 L93.8425287,0.550830986 C97.1389936,0.550830986 99.8124968,3.21970423 99.8124968,6.51266197 L99.8124968,63.9560423 C99.8124968,67.0981549 97.261414,69.6457606 94.1140255,69.6457606" id="Fill-37" stroke="none" fill="#E2EBF4" fill-rule="evenodd"></path>
                            <path d="M99.8123981,63.6965493 L0.438640127,63.6965493" id="Stroke-38" stroke="#8AADD7" stroke-width="0.55" fill="none"></path>
                            <path d="M56.9615127,35.0982958 C56.9615127,31.3281549 53.9010032,28.270831 50.1257166,28.270831 C46.3494427,28.270831 43.2889331,31.3281549 43.2889331,35.0982958 C43.2889331,38.8684366 46.3494427,41.9247746 50.1257166,41.9247746 C53.9010032,41.9247746 56.9615127,38.8684366 56.9615127,35.0982958" id="Fill-39" stroke="none" fill="#FFFFFF" fill-rule="evenodd"></path>
                        </g>
                    </g>
                    <g id="Fill-46" mask="url(#mask-6)">
                        <use fill="black" fill-opacity="1" filter="url(#filter-10)" xlink:href="#path-9"></use>
                        <use fill="#FFFFFF" fill-rule="evenodd" xlink:href="#path-9"></use>
                    </g>
                    <path d="M184.598337,45.3278778 L156.984316,45.3278778 C155.622037,45.3278778 154.517656,44.2212217 154.517656,42.8570362 C154.517656,41.4919502 155.622037,40.3852941 156.984316,40.3852941 L184.598337,40.3852941 C185.960617,40.3852941 187.0641,41.4919502 187.0641,42.8570362 C187.0641,44.2212217 185.960617,45.3278778 184.598337,45.3278778" id="Fill-47" fill="#AAE697" mask="url(#mask-6)"></path>
                    <path d="M209.373946,45.3278778 L192.333768,45.3278778 C190.971488,45.3278778 189.868006,44.2212217 189.868006,42.8570362 C189.868006,41.4919502 190.971488,40.3852941 192.333768,40.3852941 L209.373946,40.3852941 C210.736226,40.3852941 211.839708,41.4919502 211.839708,42.8570362 C211.839708,44.2212217 210.736226,45.3278778 209.373946,45.3278778" id="Fill-48" fill="#FF9A71" mask="url(#mask-6)"></path>
                    <path d="M209.373946,55.0631199 L187.563992,55.0631199 C186.200813,55.0631199 185.097331,53.9564638 185.097331,52.5913778 C185.097331,51.2262919 186.200813,50.1205362 187.563992,50.1205362 L209.373946,50.1205362 C210.736226,50.1205362 211.839708,51.2262919 211.839708,52.5913778 C211.839708,53.9564638 210.736226,55.0631199 209.373946,55.0631199" id="Fill-49" fill="#FFE682" mask="url(#mask-6)"></path>
                    <path d="M179.171594,55.0631199 L161.842964,55.0631199 C160.480685,55.0631199 159.377202,53.9564638 159.377202,52.5913778 C159.377202,51.2262919 160.480685,50.1205362 161.842964,50.1205362 L179.171594,50.1205362 C180.533873,50.1205362 181.638255,51.2262919 181.638255,52.5913778 C181.638255,53.9564638 180.533873,55.0631199 179.171594,55.0631199" id="Fill-50" fill="#CDDCED" mask="url(#mask-6)"></path>
                    <path d="M180.889809,64.7974615 L158.503851,64.7974615 C157.14247,64.7974615 156.038089,63.6908054 156.038089,62.3266199 C156.038089,60.9615339 157.14247,59.8557783 158.503851,59.8557783 L180.889809,59.8557783 C182.252089,59.8557783 183.355572,60.9615339 183.355572,62.3266199 C183.355572,63.6908054 182.252089,64.7974615 180.889809,64.7974615" id="Fill-51" fill="#4A90E2" mask="url(#mask-6)"></path>
                    <path d="M179.308091,74.6822688 L162.823249,74.6822688 C161.460969,74.6822688 160.356588,73.5756127 160.356588,72.2114271 C160.356588,70.8463412 161.460969,69.7405855 162.823249,69.7405855 L179.308091,69.7405855 C180.670371,69.7405855 181.773853,70.8463412 181.773853,72.2114271 C181.773853,73.5756127 180.670371,74.6822688 179.308091,74.6822688" id="Fill-52" fill="#FF9A71" mask="url(#mask-6)"></path>
                    <g id="Fill-53" mask="url(#mask-6)">
                        <use fill="black" fill-opacity="1" filter="url(#filter-12)" xlink:href="#path-11"></use>
                        <use fill="#61B446" fill-rule="evenodd" xlink:href="#path-11"></use>
                    </g>
                    <polyline id="Stroke-54" stroke="#FFFFFF" stroke-width="0.9" mask="url(#mask-6)" points="206.3258 80.3865452 211.261818 75.4394593 206.3258 70.4932738"></polyline>
                    <polyline id="Stroke-55" stroke="#FFFFFF" stroke-width="0.9" mask="url(#mask-6)" points="201.325982 70.4930036 196.389066 75.4391891 201.325982 80.3862751"></polyline>
                    <path d="M183.535562,126.908513 C183.535562,131.174857 180.084034,134.633495 175.82646,134.633495 C171.568887,134.633495 168.117359,131.174857 168.117359,126.908513 C168.117359,122.64307 171.568887,119.184432 175.82646,119.184432 C180.084034,119.184432 183.535562,122.64307 183.535562,126.908513" id="Fill-56" fill="#3B77BC" mask="url(#mask-6)"></path>
                    <polygon id="Fill-57" fill="#4A90E2" mask="url(#mask-6)" points="189.05585 126.431633 210.564773 126.431633 210.564773 120.137471 189.05585 120.137471"></polygon>
                    <polygon id="Fill-58" fill="#F2F2F2" mask="url(#mask-6)" points="189.05585 132.204434 210.564773 132.204434 210.564773 129.484167 189.05585 129.484167"></polygon>
                    <polygon id="Stroke-59" fill="#CDDCED" mask="url(#mask-6)" points="189.05585 132.204434 210.564773 132.204434 210.564773 129.484167 189.05585 129.484167"></polygon>
                    <polygon id="Fill-60" fill="#F2F2F2" mask="url(#mask-6)" points="189.05585 137.01105 210.564773 137.01105 210.564773 134.290783 189.05585 134.290783"></polygon>
                    <polygon id="Stroke-61" fill="#CDDCED" mask="url(#mask-6)" points="189.05585 137.01105 210.564773 137.01105 210.564773 134.290783 189.05585 134.290783"></polygon>
                    <path d="M214.699238,118.760409 C214.699238,121.387459 212.573576,123.517499 209.951927,123.517499 C207.330277,123.517499 205.204615,121.387459 205.204615,118.760409 C205.204615,116.133359 207.330277,114.003318 209.951927,114.003318 C212.573576,114.003318 214.699238,116.133359 214.699238,118.760409" id="Fill-62" fill="#F15946" mask="url(#mask-6)"></path>
                    <g id="Fill-63" mask="url(#mask-6)">
                        <use fill="black" fill-opacity="1" filter="url(#filter-14)" xlink:href="#path-13"></use>
                        <use fill="#FFFFFF" fill-rule="evenodd" xlink:href="#path-13"></use>
                    </g>
                    <path d="M69.8249231,137.957425 L89.9760594,137.957425 L89.9760594,125.885959 L69.8249231,125.885959 L69.8249231,137.957425 Z" id="Stroke-64" stroke="#4A90E2" stroke-width="0.9" opacity="0.489620536" stroke-dasharray="0.9" mask="url(#mask-6)"></path>
                    <polygon id="Stroke-65" stroke="#4A90E2" stroke-width="0.9" mask="url(#mask-6)" points="69.8249231 104.197661 89.9760594 104.197661 89.9760594 94.4268507 69.8249231 94.4268507"></polygon>
                    <polygon id="Stroke-66" stroke="#4A90E2" stroke-width="0.9" mask="url(#mask-6)" points="69.8249231 123.402511 89.9760594 123.402511 89.9760594 118.860629 69.8249231 118.860629"></polygon>
                    <polygon id="Stroke-67" stroke="#4A90E2" stroke-width="0.9" mask="url(#mask-6)" points="69.8249231 116.4141 78.8262133 116.4141 78.8262133 106.64329 69.8249231 106.64329"></polygon>
                    <path d="M80.9747692,116.4141 L89.9760594,116.4141 L89.9760594,106.64329 L80.9747692,106.64329 L80.9747692,116.4141 Z" id="Stroke-68" stroke="#4A90E2" stroke-width="0.9" opacity="0.489620536" stroke-dasharray="0.9" mask="url(#mask-6)"></path>
                </g>
            </g>
        </g>
    </g>
</svg>