<?xml version="1.0" encoding="UTF-8"?>
<svg width="240px" height="240px" viewBox="0 0 240 240" version="1.1" xmlns="http://www.w3.org/2000/svg" xmlns:xlink="http://www.w3.org/1999/xlink">
    <!-- Generator: Sketch 53 (72520) - https://sketchapp.com -->
    <title>img-for-business</title>
    <desc>Created with Sketch.</desc>
    <defs>
        <ellipse id="path-1" cx="103.38649" cy="103.181538" rx="103.38649" ry="103.181538"></ellipse>
        <polygon id="path-3" points="0.323059962 0.183767635 34.5800764 0.183767635 34.5800764 26.5681793 0.323059962 26.5681793"></polygon>
        <polygon id="path-5" points="0.453734565 0.422382892 24.3748098 0.422382892 24.3748098 26.595722 0.453734565 26.595722"></polygon>
    </defs>
    <g id="Page-1" stroke="none" stroke-width="1" fill="none" fill-rule="evenodd">
        <g id="SnapScan-Assets" transform="translate(-84.000000, -254.000000)">
            <g id="img-for-business" transform="translate(84.000000, 254.000000)">
                <g id="Group-9" transform="translate(1.000000, 12.000000)">
                    <g id="Group-4">
                        <g id="Group-6" transform="translate(18.588832, 0.000000)">
                            <mask id="mask-2" fill="white">
                                <use xlink:href="#path-1"></use>
                            </mask>
                            <use id="Oval" stroke="#EFF5F9" stroke-width="1.14646154" fill-opacity="0.4" fill="#EFF5F9" fill-rule="nonzero" xlink:href="#path-1"></use>
                            <g id="Group-25" opacity="0.25" mask="url(#mask-2)">
                                <g transform="translate(19.145646, 21.655385)">
                                    <path d="M77.7632023,29.0751116 L81.5631156,17.231861 C78.6708141,17.4171379 75.7652677,17.5235806 72.8534385,17.5520208 L77.7632023,29.0751116 Z" id="Fill-31" stroke="none" fill="#C3D8EE" fill-rule="evenodd"></path>
                                    <path d="M64.168621,29.0175327 L69.0500272,17.5445033 C66.1529711,17.504421 63.2523491,17.3875003 60.3546138,17.1910802 L64.168621,29.0175327 Z" id="Fill-32" stroke="none" fill="#C3D8EE" fill-rule="evenodd"></path>
                                    <path d="M50.5631042,27.9846391 L56.5039286,16.8828287 C53.5961747,16.6153913 50.6941943,16.2686209 47.805119,15.8415194 L50.5631042,27.9846391 Z" id="Fill-33" stroke="none" fill="#C3D8EE" fill-rule="evenodd"></path>
                                    <path d="M37.0302134,25.8321841 L43.9537036,15.2238356 C41.062421,14.7227232 38.1869302,14.1397829 35.3338538,13.4756801 L37.0302134,25.8321841 Z" id="Fill-34" stroke="none" fill="#C3D8EE" fill-rule="evenodd"></path>
                                    <path d="M23.6546985,22.5809741 L31.5077055,12.5332794 C28.6490255,11.7886792 25.8168352,10.9599228 23.0172477,10.0476753 L23.6546985,22.5809741 Z" id="Fill-35" stroke="none" fill="#C3D8EE" fill-rule="evenodd"></path>
                                    <path d="M10.7935592,18.2507175 L19.5032363,8.85199082 C16.7044977,7.8587471 13.9422674,6.77951761 11.2236772,5.61330445 L10.7935592,18.2507175 Z" id="Fill-36" stroke="none" fill="#C3D8EE" fill-rule="evenodd"></path>
                                    <path d="M91.5272497,27.9683068 L94.0492049,15.9329604 C91.1962983,16.3459249 88.3199585,16.6800553 85.4274872,16.9361831 L91.5272497,27.9683068 Z" id="Fill-37" stroke="none" fill="#C3D8EE" fill-rule="evenodd"></path>
                                    <path d="M105.022155,25.805141 L106.483334,13.6023136 C103.682218,14.2511153 100.846971,14.8202513 97.9852345,15.3105531 L105.022155,25.805141 Z" id="Fill-38" stroke="none" fill="#C3D8EE" fill-rule="evenodd"></path>
                                    <path d="M118.340632,22.5433699 L118.752581,10.1788826 C116.01735,11.0781574 113.235931,11.8961032 110.416137,12.6328865 L118.340632,22.5433699 Z" id="Fill-39" stroke="none" fill="#C3D8EE" fill-rule="evenodd"></path>
                                    <path d="M130.480589,5.69476641 C127.832978,6.85865113 125.125934,7.93837957 122.366761,8.93328646 L131.125851,18.2029514 L130.480589,5.69476641 Z" id="Fill-40" stroke="none" fill="#C3D8EE" fill-rule="evenodd"></path>
                                    <path d="M141.569364,0.120477068 C101.801364,22.8624652 43.3426746,23.8611974 0.0326964635,0.176692135" id="Stroke-41" stroke="#C3D8EE" stroke-width="0.636923077" fill="none"></path>
                                </g>
                            </g>
                            <g id="Group-8-Copy" mask="url(#mask-2)">
                                <g transform="translate(-42.120422, 19.024615)">
                                    <polygon id="Fill-226" stroke="none" fill="#C3D8EE" fill-rule="evenodd" opacity="0.2" points="60.9966241 110.2239 267.208004 110.2239 267.208004 95.9552405 60.9966241 95.9552405"></polygon>
                                    <g id="blender" stroke="none" stroke-width="1" fill="none" fill-rule="evenodd" transform="translate(164.652558, 43.393846)">
                                        <polygon id="Fill-227" fill="#003742" points="17.9458654 33.9446533 17.2119842 33.9446533 15.5724512 35.7958088 17.9458654 35.7958088"></polygon>
                                        <polygon id="Fill-228" fill="#003742" points="11.1371238 33.9446533 11.8710051 33.9446533 13.510538 35.7958088 11.1371238 35.7958088"></polygon>
                                        <polygon id="Fill-229" fill="#A4C6E5" points="7.7347844 35.7956545 21.3483591 35.7956545 25.7506182 46.1860945 3.33252534 46.1860945"></polygon>
                                        <polygon id="Fill-230" fill="#669FD4" points="3.33242248 48.7398559 25.7505153 48.7398559 25.7505153 46.1860945 3.33242248 46.1860945"></polygon>
                                        <polygon id="Fill-231" fill="#3B5E69" points="11.8710051 35.7956545 17.2118299 35.7956545 15.5728112 33.944499 13.510538 33.944499"></polygon>
                                        <path d="M9.03201083,37.5858079 C9.03201083,37.166096 9.37246591,36.8255945 9.79212052,36.8255945 C10.2117751,36.8255945 10.5522302,37.166096 10.5522302,37.5858079 C10.5522302,38.0055197 10.2117751,38.3465356 9.79212052,38.3465356 C9.37246591,38.3465356 9.03201083,38.0055197 9.03201083,37.5858079" id="Fill-232" fill="#FFFFFF"></path>
                                        <polygon id="Fill-233" fill="#3B5E69" points="6.48600339 7.00270174 22.5964201 7.00270174 22.5964201 4.09403692 6.48600339 4.09403692"></polygon>
                                        <polygon id="Fill-234" fill="#669FD4" points="7.98452003 0.530806782 21.0987264 0.530806782 22.5968316 2.87522663 6.48641481 2.87522663"></polygon>
                                        <polygon id="Fill-235" fill="#669FD4" points="5.04601211 4.09403692 24.0369257 4.09403692 24.0369257 2.87502089 5.04601211 2.87502089"></polygon>
                                        <path d="M3.59414089,11.6778082 L6.05704027,9.21457289 L6.05292601,11.6562054 L4.81299066,12.8963099 C1.93969377,15.7699987 1.93969377,20.4459796 4.81299066,23.3191541 L6.68755074,25.1939699 L9.85244587,30.7973288 L3.59414089,24.5381701 C0.0430195345,20.9870787 0.0430195345,15.2288996 3.59414089,11.6778082" id="Fill-236" fill="#FFFFFF"></path>
                                        <polygon id="Fill-237" fill="#C3D8EE" points="6.68734503 27.6317962 6.68734503 25.1942785 9.85224015 30.797123"></polygon>
                                        <polygon id="Fill-238" fill="#669FD4" points="19.2305434 30.7972773 21.3483591 35.7957574 7.7347844 35.7957574 9.85260015 30.7972773"></polygon>
                                        <path d="M23.0300118,4.09413979 L23.0300118,20.7992885 C23.0300118,27.1875497 19.230492,30.7972773 19.230492,30.7972773 L9.85254872,30.7972773 C9.85254872,30.7972773 6.05302887,27.1875497 6.05302887,20.7992885 L6.05302887,4.09413979 L23.0300118,4.09413979 Z" id="Fill-239" fill="#FFFFFF"></path>
                                        <path d="M14.5414689,22.8509388 L14.5414689,7.43887287" id="Stroke-240" stroke="#A4C6E5" stroke-width="0.636923077"></path>
                                        <path d="M9.79217195,22.8509388 L9.79217195,7.43887287" id="Stroke-241" stroke="#A4C6E5" stroke-width="0.636923077"></path>
                                        <path d="M19.2905602,22.8509388 L19.2905602,7.43887287" id="Stroke-242" stroke="#A4C6E5" stroke-width="0.636923077"></path>
                                        <path d="M11.1371238,40.990926 C11.1371238,39.1104523 12.6614574,37.5859107 14.5416746,37.5859107 C16.4218918,37.5859107 17.9457112,39.1104523 17.9457112,40.990926 C17.9457112,42.8713996 16.4218918,44.3959412 14.5416746,44.3959412 C12.6614574,44.3959412 11.1371238,42.8713996 11.1371238,40.990926" id="Fill-243" fill="#669FD4"></path>
                                        <path d="M11.8710051,40.990926 C11.8710051,39.5157623 13.0667121,38.3204065 14.5416746,38.3204065 C16.0166371,38.3204065 17.2118299,39.5157623 17.2118299,40.990926 C17.2118299,42.4660897 16.0166371,43.6614455 14.5416746,43.6614455 C13.0667121,43.6614455 11.8710051,42.4660897 11.8710051,40.990926" id="Fill-244" fill="#E0EBF5"></path>
                                    </g>
                                    <g id="Group-144" stroke="none" stroke-width="1" fill="none" fill-rule="evenodd" transform="translate(30.000000, 0.000000)">
                                        <path d="M42.8580267,26.9157444 C42.3204267,28.8989477 40.4350933,28.9865826 39.8206933,25.6240598 C39.1838933,22.1367237 41.4228267,20.7026988 42.6606933,23.6870639" id="Fill-1" fill="#A8614F"></path>
                                        <path d="M60.85696,26.9157444 C61.39456,28.8989477 63.2798933,28.9865826 63.89376,25.6240598 C64.53056,22.1367237 62.29216,20.7026988 61.0542933,23.6870639" id="Fill-3" fill="#A8614F"></path>
                                        <g id="Group-7" transform="translate(29.866667, 0.347353)">
                                            <mask id="mask-4" fill="white">
                                                <use xlink:href="#path-3"></use>
                                            </mask>
                                            <g id="Clip-6"></g>
                                            <path d="M34.37648,8.08731618 C34.11728,5.30955685 31.13008,3.66467718 28.6239467,4.91227884 C27.68688,1.77495104 23.9839467,0.416345228 21.2266133,2.19878506 C18.37968,-0.887555187 13.34608,-0.34899917 11.2223467,3.26899253 C6.94288,1.62623734 3.01968,6.34205477 5.43621333,10.2240133 C5.43621333,10.2240133 -1.85392,14.3040797 0.975413333,19.1707353 C2.45808,21.7211751 7.05488,21.9049427 10.3327467,20.4358639 C10.8879467,22.6049593 11.7343467,24.7097892 12.9914133,26.5681793 L12.99408,26.5681793 C12.63568,23.9667519 31.1231467,25.5494905 30.9882133,26.5681793 L30.9898133,26.5681793 C34.74768,21.0131917 34.8607467,13.2795485 34.37648,8.08731618" id="Fill-5" fill="#203A44" mask="url(#mask-4)"></path>
                                        </g>
                                        <path d="M61.7900267,88.1180149 L41.93936,88.1180149 C27.6220267,108.736106 29.42256,125.128604 31.3516267,146.387227 C33.28016,167.645849 38.42416,230.653716 38.42416,230.653716 L45.0188267,230.653716 L50.75696,115.91526 C51.4886933,115.89189 52.2406933,115.89189 52.9724267,115.91526 L58.7110933,230.653716 L65.3046933,230.653716 C65.3046933,230.653716 70.4486933,167.645849 72.37776,146.387227 C74.3068267,125.128604 76.10736,108.736106 61.7900267,88.1180149" id="Fill-12" fill="#1D77BE"></path>
                                        <path d="M74.1890133,51.7810988 C73.42848,49.7304432 71.73088,48.167356 69.61568,47.5815303 C67.86048,47.0955552 65.4018133,46.5118539 62.21888,45.8139618 C55.40288,44.3199203 56.3634133,37.340468 58.4391467,33.7952398 L45.3106133,33.7952398 C47.3863467,37.340468 48.3266133,44.3199203 41.5111467,45.8139618 C38.32768,46.5118539 35.8690133,47.0955552 34.1138133,47.5815303 C31.9991467,48.167356 30.3010133,49.7304432 29.54048,51.7810988 C24.4472149,65.51385 20.627266,75.8134134 18.0806335,82.679789 C15.9245985,88.4930132 19.0511267,90.6306293 23.3267036,88.4909462 C24.0410791,88.1334418 24.6257161,87.2471325 25.0806147,85.832018 L35.8274133,64.4748747 L51.7314133,69.8046672 L67.90208,64.4748747 L94.34688,117.0287 L97.78208,115.395505 L74.1890133,51.7810988 Z" id="Fill-14" fill="#A8614F"></path>
                                        <polygon id="Fill-16" fill="#203A44" points="70.2941867 56.0202357 67.9021867 64.4751402 70.2941867 69.2291983"></polygon>
                                        <polygon id="Fill-18" fill="#203A44" points="33.4350933 56.0202357 35.8270933 64.4751402 33.4350933 69.2291983"></polygon>
                                        <path d="M51.8648,33.7953992 L45.3106667,33.7953992 C47.3858667,37.3395651 48.3074667,44.2356315 41.5144,45.8130589 C48.7176,44.140561 48.1149333,39.4528929 51.8648,37.7240963 L51.8648,33.7953992 Z" id="Fill-20" fill="#203A44"></path>
                                        <path d="M51.8648,67.627605 L51.8648,62.675439" id="Stroke-22" stroke="#7B3B33" stroke-width="0.735646154"></path>
                                        <path d="M67.9020267,64.4750871 C66.3372267,60.7365311 63.0758933,57.8520166 63.0758933,57.8520166 L62.0470933,57.8520166 C62.0470933,57.8520166 56.0422933,60.9680996 51.8646933,66.6882656 C47.2438933,60.9680996 41.6822933,57.8520166 41.6822933,57.8520166 L40.6534933,57.8520166 C40.6534933,57.8520166 37.39216,60.7365311 35.82736,64.4750871 L39.4524267,77.2873029 C39.4524267,77.2873029 38.5958933,82.2697427 39.0028267,84.0197842 C39.42416,85.828249 41.93936,88.1179087 41.93936,88.1179087 L61.7900267,88.1179087 C61.7900267,88.1179087 64.3052267,85.828249 64.7260267,84.0197842 C65.1334933,82.2697427 64.27696,77.2873029 64.27696,77.2873029 L67.9020267,64.4750871 Z" id="Fill-24" fill="#FD9267"></path>
                                        <path d="M41.51088,45.8138025 C41.21648,45.8785992 40.9354133,45.9407402 40.6538133,46.0034124 L40.6538133,57.8521759 L41.68208,57.8521759 L41.68208,45.7702506 C41.6239467,45.7840598 41.57008,45.8010556 41.51088,45.8138025" id="Fill-33" fill="#FD9267"></path>
                                        <path d="M56.3426667,116.239137 C53.964,115.783436 49.7656,115.783436 47.3869333,116.239137" id="Stroke-35" stroke="#0E5C98" stroke-width="0.735646154"></path>
                                        <path d="M47.3866667,116.239137 C49.7653333,115.783436 53.9642667,115.783436 56.3424,116.239137" id="Stroke-37" stroke="#0E5C98" stroke-width="0.735646154"></path>
                                        <path d="M62.2186667,45.8138025 C62.5125333,45.8785992 62.7941333,45.9407402 63.0757333,46.0034124 L63.0757333,57.8521759 L62.0469333,57.8521759 L62.0469333,45.7702506 C62.1050667,45.7840598 62.1594667,45.8010556 62.2186667,45.8138025" id="Fill-50" fill="#FD9267"></path>
                                        <path d="M59.2574933,93.3685112 C65.4302933,104.381822 70.7060267,105.626768 70.7060267,105.626768" id="Stroke-52" stroke="#0E5C98" stroke-width="0.735646154"></path>
                                        <path d="M44.4720533,93.3685112 C38.2992533,104.381822 33.0229867,105.626768 33.0229867,105.626768" id="Stroke-54" stroke="#0E5C98" stroke-width="0.735646154"></path>
                                        <path d="M43.24576,31.5082888 C43.1790933,29.8904963 42.64416,28.2328697 41.8820267,27.285351 C41.8116267,27.1982473 41.70656,27.1477909 41.5934933,27.1477909 C41.4708267,27.1477909 41.3550933,27.2072763 41.2846933,27.307127 C41.1918933,27.4372515 41.19136,27.6088033 41.28256,27.7346788 C41.7054933,28.3157245 42.19936,29.6557411 42.19936,31.5194423 C42.19936,35.0545793 39.24416,35.0545793 39.24416,31.5194423 C39.24416,29.4618822 39.8548267,27.8934838 40.4340267,27.4478739 C40.3204267,27.2550772 40.21536,27.024571 40.1198933,26.760073 L40.0980267,26.7749444 C39.09856,27.4462805 38.2814933,29.4810025 38.1982933,31.5082888 C38.1470933,32.7479237 38.4020267,34.3943967 39.2708267,35.2951768 C39.67136,35.711044 40.1598933,35.9218988 40.7220267,35.9218988 C41.2846933,35.9218988 41.7726933,35.711044 42.1732267,35.2951768 C43.0414933,34.3943967 43.2964267,32.7479237 43.24576,31.5082888" id="Fill-56" fill="#F8E275"></path>
                                        <path d="M60.4692267,31.5082888 C60.5358933,29.8904963 61.0708267,28.2328697 61.83296,27.285351 C61.9028267,27.1982473 62.0084267,27.1477909 62.1214933,27.1477909 C62.24416,27.1477909 62.3598933,27.2072763 62.4302933,27.307127 C62.5230933,27.4372515 62.5236267,27.6088033 62.4324267,27.7346788 C62.00896,28.3157245 61.5150933,29.6557411 61.5150933,31.5194423 C61.5150933,35.0545793 64.4702933,35.0545793 64.4702933,31.5194423 C64.4702933,29.4618822 63.86016,27.8934838 63.28096,27.4478739 C63.39456,27.2550772 63.4996267,27.024571 63.59456,26.760073 L63.61696,26.7749444 C64.6164267,27.4462805 65.43296,29.4810025 65.5166933,31.5082888 C65.56736,32.7479237 65.3124267,34.3943967 64.44416,35.2951768 C64.0436267,35.711044 63.5550933,35.9218988 62.9924267,35.9218988 C62.4302933,35.9218988 61.9422933,35.711044 61.54176,35.2951768 C60.67296,34.3943967 60.4180267,32.7479237 60.4692267,31.5082888" id="Fill-58" fill="#F8E275"></path>
                                        <path d="M39.9069867,72.4118307 C41.9096533,73.8777228 44.5912533,74.6276647 46.98112,73.9467685 C47.6493867,73.7566274 48.3325867,73.5521461 48.96992,73.3566938 C50.9021867,72.7639635 52.9693867,72.7639635 54.9016533,73.3566938 C55.5389867,73.5521461 56.2221867,73.7566274 56.88992,73.9467685 C59.2797867,74.6276647 61.9613867,73.8777228 63.9645867,72.4118307" id="Stroke-60" stroke="#EF7E5A" stroke-width="0.735646154"></path>
                                        <path d="M43.7218133,44.8384531 C46.1447467,51.352644 51.85248,55.3333909 51.85248,55.3333909 C51.85248,55.3333909 57.5602133,51.2984697 59.9831467,44.7853411" id="Stroke-62" stroke="#F8E275" stroke-width="0.735646154" stroke-linecap="round" stroke-linejoin="round"></path>
                                        <path d="M61.0251733,23.1947685 C61.0363733,23.3583535 61.0529067,23.5208763 61.0539733,23.687117 C61.05504,23.8905361 61.0513067,24.0902373 61.0475733,24.2899386 C61.45824,24.3600465 61.84224,24.4322788 62.2043733,24.5045112 C62.3585067,24.1714988 62.5089067,23.8374241 62.6443733,23.4964448 C62.1505067,23.395532 61.60864,23.2924946 61.0251733,23.1947685" id="Fill-68" fill="#5C4342"></path>
                                        <path d="M60.5033067,20.928956 C60.65264,21.2991469 60.7795733,21.6804913 60.8691733,22.0767071 C61.6585067,22.2025826 62.37904,22.3380183 63.0185067,22.4713295 C63.13424,22.1287568 63.2377067,21.7829975 63.3369067,21.4356448 C62.5171733,21.2624996 61.56464,21.0861676 60.5033067,20.928956" id="Fill-70" fill="#5C4342"></path>
                                        <path d="M58.99264,18.5645676 C59.3361067,18.9310407 59.6427733,19.3293809 59.9089067,19.7574639 C61.3211733,19.9438871 62.5697067,20.1696133 63.6091733,20.3905593 C63.6923733,20.0426755 63.7681067,19.6931983 63.8369067,19.34319 C62.5163733,19.0627585 60.8731733,18.773829 58.99264,18.5645676" id="Fill-72" fill="#5C4342"></path>
                                        <path d="M53.54288,16.107605 C55.0031467,16.1426589 56.3722133,16.5946423 57.53168,17.3413975 C60.11248,17.5442855 62.3263467,17.912883 64.0271467,18.2740448 C64.0842133,17.9160697 64.1354133,17.5591568 64.1791467,17.202244 C61.60688,16.6605012 57.9018133,16.1091983 53.54288,16.107605" id="Fill-74" fill="#5C4342"></path>
                                        <path d="M53.0064533,16.1151469 C50.1792533,16.2426158 46.8933867,16.8268481 43.2517867,18.2104166 L43.2517867,18.21201 C40.93712,29.2253212 45.6245867,37.7243087 51.8645867,37.7243087 C56.86672,37.7243087 61.1024533,32.2633295 61.05392,23.6873295 C61.0293867,19.3650722 57.3424533,15.9202257 53.0064533,16.1151469" id="Fill-76" fill="#A8614F"></path>
                                        <path d="M49.68768,34.4291851 C51.9378133,34.9491519 53.7191467,34.4371519 54.85888,33.237351 L55.1079467,31.5590108 L48.84288,32.9170855 L49.68768,34.4291851 Z" id="Fill-78" fill="#7B3B33"></path>
                                        <path d="M55.108,31.5588515 C54.0978667,30.9772747 52.8706667,30.8429012 51.7277333,31.0792498 C50.5848,31.3150672 49.5373333,31.9826855 48.8429333,32.9169261 L48.8429333,32.933922 C50.9864,33.2414407 53.2994667,32.7028846 55.108,31.5588515" id="Fill-80" fill="#7B3B33"></path>
                                        <path d="M47.97232,32.7626888 C50.6608533,33.4658921 53.7909867,32.6989544 55.9029867,30.9919336" id="Stroke-82" stroke="#4D3131" stroke-width="0.735646154" stroke-linecap="round" stroke-linejoin="round"></path>
                                        <path d="M50.5027733,34.5757212 C51.9875733,34.7632066 53.2345067,34.4705593 54.18544,33.8140946" id="Stroke-84" stroke="#4D3131" stroke-width="0.735646154" stroke-linecap="round" stroke-linejoin="round"></path>
                                        <path d="M55.06944,24.9909112 C55.06944,25.4683884 55.35744,25.855044 55.71264,25.855044 C56.06784,25.855044 56.3553067,25.4683884 56.3553067,24.9909112 C56.3553067,24.513434 56.06784,24.1267784 55.71264,24.1267784 C55.35744,24.1267784 55.06944,24.513434 55.06944,24.9909112" id="Fill-86" fill="#203A44"></path>
                                        <path d="M55.06944,24.9909112 C55.06944,25.4683884 55.35744,25.855044 55.71264,25.855044 C56.06784,25.855044 56.3553067,25.4683884 56.3553067,24.9909112 C56.3553067,24.513434 56.06784,24.1267784 55.71264,24.1267784 C55.35744,24.1267784 55.06944,24.513434 55.06944,24.9909112 Z" id="Stroke-88" stroke="#203A44" stroke-width="0.735646154" stroke-linecap="round" stroke-linejoin="round"></path>
                                        <path d="M54.6848533,23.4307452 C55.9029867,22.0843552 57.0485867,23.9730191 58.6725867,22.7817162" id="Stroke-90" stroke="#4D3131" stroke-width="0.735646154" stroke-linecap="round" stroke-linejoin="round"></path>
                                        <path d="M48.51424,24.9909112 C48.51424,25.4683884 48.22624,25.855044 47.87104,25.855044 C47.51584,25.855044 47.2283733,25.4683884 47.2283733,24.9909112 C47.2283733,24.513434 47.51584,24.1267784 47.87104,24.1267784 C48.22624,24.1267784 48.51424,24.513434 48.51424,24.9909112" id="Fill-92" fill="#203A44"></path>
                                        <path d="M48.51424,24.9909112 C48.51424,25.4683884 48.22624,25.855044 47.87104,25.855044 C47.51584,25.855044 47.2283733,25.4683884 47.2283733,24.9909112 C47.2283733,24.513434 47.51584,24.1267784 47.87104,24.1267784 C48.22624,24.1267784 48.51424,24.513434 48.51424,24.9909112 Z" id="Stroke-94" stroke="#203A44" stroke-width="0.735646154" stroke-linecap="round" stroke-linejoin="round"></path>
                                        <path d="M48.89888,23.4307452 C47.6807467,22.0843552 46.5346133,23.9730191 44.9111467,22.7817162" id="Stroke-96" stroke="#4D3131" stroke-width="0.735646154" stroke-linecap="round" stroke-linejoin="round"></path>
                                        <path d="M51.16736,29.1244614 C50.5326933,29.034171 49.6740267,28.2173079 49.6740267,28.2173079 C50.38336,29.2078473 51.7918933,31.303117 54.0174933,28.716561 C53.0980267,29.038951 52.2356267,29.2768929 51.16736,29.1244614" id="Fill-98" fill="#7B3B33"></path>
                                        <path d="M49.5663467,28.1078971 C50.00688,28.5720963 50.54608,28.9661876 51.1674133,29.1244614 C52.1114133,29.3650589 53.09808,29.038951 54.0175467,28.716561" id="Stroke-100" stroke="#4D3131" stroke-width="0.735646154" stroke-linecap="round" stroke-linejoin="round"></path>
                                        <path d="M49.7020267,20.1374274 C48.7590933,20.1172448 47.81296,20.1661079 46.8748267,20.2850788 C45.9398933,20.4146722 45.00336,20.5995021 44.1148267,20.9272033 L44.1004267,20.8937427 C44.9846933,20.5357676 45.9174933,20.321195 46.8556267,20.1602656 C47.7964267,20.0110207 48.7484267,19.9313527 49.7020267,19.9217925 L49.7020267,20.1374274 Z" id="Fill-102" stroke="#203A44" stroke-width="0.6325" stroke-linecap="round" stroke-linejoin="round"></path>
                                        <path d="M53.88144,19.9216863 C54.83504,19.9317776 55.78704,20.0109145 56.72784,20.1606905 C57.6659733,20.3210888 58.5987733,20.5356614 59.48304,20.8941676 L59.46864,20.9276282 C58.5801067,20.5993959 57.6435733,20.4150971 56.70864,20.2849726 C55.7705067,20.1660017 54.8249067,20.1176697 53.88144,20.1373212 L53.88144,19.9216863 Z" id="Fill-104" stroke="#203A44" stroke-width="0.6325" stroke-linecap="round" stroke-linejoin="round"></path>
                                        <path d="M67.9020267,64.4750871 L62.8668267,82.270805" id="Stroke-114" stroke="#EF7E5A" stroke-width="0.735646154"></path>
                                        <path d="M40.86272,82.2710174 L35.82752,64.4752996" id="Stroke-116" stroke="#EF7E5A" stroke-width="0.735646154"></path>
                                        <path d="M53.8587733,58.3661942 C53.8587733,57.2625261 52.9601067,56.3681195 51.8523733,56.3681195 C50.74464,56.3681195 49.8465067,57.2625261 49.8465067,58.3661942 C49.8465067,59.4693311 50.74464,60.3637378 51.8523733,60.3637378 C52.9601067,60.3637378 53.8587733,59.4693311 53.8587733,58.3661942" id="Fill-118" fill="#F8E275"></path>
                                        <path d="M52.9176533,58.3661942 C52.9176533,57.7803685 52.44032,57.3055469 51.8525867,57.3055469 C51.26432,57.3055469 50.78752,57.7803685 50.78752,58.3661942 C50.78752,58.9520199 51.26432,59.4268415 51.8525867,59.4268415 C52.44032,59.4268415 52.9176533,58.9520199 52.9176533,58.3661942" id="Fill-120" fill="#F4BA72"></path>
                                        <path d="M51.8525333,56.6970954 L51.8525333,55.3331784" id="Stroke-122" stroke="#F8E275" stroke-width="0.735646154" stroke-linecap="round" stroke-linejoin="round"></path>
                                        <path d="M100.154347,125.69993 L102.607147,131.157723 C102.805547,131.576246 103.297813,131.769042 103.72928,131.59749 C103.72928,131.59749 101.95968,125.284063 101.110613,123.274304" id="Fill-124" fill="#7B3B33"></path>
                                        <path d="M99.65904,126.928146 L101.480373,133.513507 C101.61104,133.986735 102.088907,134.277258 102.57104,134.175814 L101.470773,125.849972" id="Fill-126" fill="#7B3B33"></path>
                                        <path d="M99.8949867,127.798493 L99.8736533,135.127954 C99.8725867,135.654825 100.28272,136.091406 100.810187,136.125398 L102.192587,126.406427 C101.573387,124.331871 101.110453,123.273879 101.110453,123.273879" id="Fill-128" fill="#904B3F"></path>
                                        <path d="M101.110613,123.274091 L101.08768,127.806141 C101.07968,129.323021 100.736213,130.819187 100.150613,132.250556 L98.2775467,137.033826 C97.7719467,136.880863 97.47328,136.361959 97.5959467,135.849959 L98.51008,132.030141 C98.9431467,130.257793 98.6887467,128.221477 97.96448,126.535701 L95.8018133,121.501212 L101.110613,123.274091 Z" id="Fill-130" fill="#A8614F"></path>
                                        <path d="M94.9850667,114.426848 C96.0213333,113.85908 97.3232,114.310002 97.7824,115.395612 L101.1104,123.274251 L100.154133,125.699877 L97.0106667,124.425188 C96.3397333,124.152724 95.5925333,124.599396 95.5226667,125.317471 C95.4698667,125.8624 95.4938667,126.527894 95.7189333,127.235877 L96.5344,129.795346 C96.7232,130.388607 96.488,131.034981 95.9610667,131.369587 L93.1930667,126.191695 C92.5024,124.900541 92.2976,123.407031 92.6144,121.978317 L93.9994667,115.737653 C94.1232,115.179446 94.4826667,114.7025 94.9850667,114.426848" id="Fill-132" fill="#A8614F"></path>
                                        <path d="M3.57493333,125.69993 L1.12266667,131.157723 C0.923733333,131.576246 0.432,131.769042 0,131.59749 C0,131.59749 1.7696,125.284063 2.61866667,123.274304" id="Fill-134" fill="#7B3B33"></path>
                                        <path d="M4.07050667,126.928146 L2.24917333,133.513507 C2.11850667,133.986735 1.64064,134.277258 1.15850667,134.175814 L2.25877333,125.849972" id="Fill-136" fill="#7B3B33"></path>
                                        <path d="M3.83456,127.798493 L3.85536,135.127954 C3.85696,135.654825 3.44682667,136.091406 2.91936,136.125398 L1.53696,126.406427 C2.15616,124.331871 2.61856,123.273879 2.61856,123.273879" id="Fill-138" fill="#904B3F"></path>
                                        <path d="M2.61866667,123.274091 L2.6416,127.806141 C2.6496,129.323021 2.9936,130.819187 3.5792,132.250556 L5.45173333,137.033826 C5.95733333,136.880863 6.25653333,136.361959 6.13386667,135.849959 L5.21973333,132.030141 C4.78613333,130.257793 5.04053333,128.221477 5.7648,126.535701 L7.92746667,121.501212 L2.61866667,123.274091 Z" id="Fill-140" fill="#A8614F"></path>
                                    </g>
                                    <path d="M141.832026,110.5751 L145.878916,112.120216 C146.1952,112.233374 146.544398,112.081125 146.676568,111.772514 C146.676568,111.772514 142.539679,109.440953 141.077059,108.844303" id="Fill-246" stroke="none" fill="#80ADDB" fill-rule="evenodd"></path>
                                    <path d="M142.208327,111.457164 L146.511329,113.902397 C146.820413,114.077791 147.212296,113.982636 147.406695,113.684826 L142.580153,109.980457" id="Fill-247" stroke="none" fill="#80ADDB" fill-rule="evenodd"></path>
                                    <path d="M142.774603,111.782646 L146.518581,115.548737 C146.78755,115.819287 147.220576,115.833689 147.507032,115.58217 L143.233858,109.897029 C141.855066,109.150189 141.076956,108.844149 141.076956,108.844149" id="Fill-248" stroke="none" fill="#80ADDB" fill-rule="evenodd"></path>
                                    <path d="M141.077059,108.8442 L143.386702,111.178333 C144.159669,111.959121 144.751094,112.901415 145.185663,113.933721 L146.680682,117.339765 C146.343827,117.519274 145.925716,117.406116 145.726174,117.081045 L144.235783,114.65793 C143.549216,113.528411 142.376137,112.61492 141.142887,112.120627 L137.460624,110.644435 L141.077059,108.8442 Z" id="Fill-249" stroke="none" fill="#80ADDB" fill-rule="evenodd"></path>
                                    <path d="M133.419803,107.436726 C133.657916,106.617362 134.552767,106.183762 135.34322,106.505747 L141.076956,108.843995 L141.831923,110.575306 L139.575251,111.52583 C139.093368,111.728999 138.940626,112.339022 139.273367,112.742274 C139.525366,113.048314 139.878678,113.3775 140.355932,113.624904 L142.082893,114.520392 C142.483519,114.72819 142.694375,115.179278 142.597176,115.619564 L138.532286,114.378945 C137.518635,114.069819 136.648983,113.408875 136.079158,112.515445 L133.588487,108.610993 C133.365803,108.262262 133.304603,107.83432 133.419803,107.436726" id="Fill-250" stroke="none" fill="#80ADDB" fill-rule="evenodd"></path>
                                    <path d="M119.126861,216.949165 L109.750975,214.486444 C107.796186,213.725716 106.726479,211.472337 106.895163,209.380978 L107.854815,198.259643 L101.161427,198.259643 L101.161427,220.47351 L121.537303,220.47351 C121.537303,218.913478 120.579709,217.514439 119.126861,216.949165" id="Fill-255" stroke="none" fill="#80ADDB" fill-rule="evenodd"></path>
                                    <path d="M48.2848439,200.159405 L48.2848439,210.38731 C48.2848439,212.118107 49.3473517,213.671966 50.960142,214.298962 L53.3942415,215.245886 L53.3942415,209.987143 C53.3942415,206.933431 54.4325781,203.969216 56.3390237,201.583648 L60.6960259,196.129966 L54.8126329,191.988912 L48.2848439,200.159405 Z" id="Fill-257" stroke="none" fill="#80ADDB" fill-rule="evenodd"></path>
                                    <path d="M57.7713007,216.949165 L53.3942415,215.245629 L50.960142,214.299219 C49.3473517,213.671709 48.2848439,212.117849 48.2848439,210.387052 L48.2848439,200.22087 L44.9317213,204.422104 L44.9317213,212.764391 C44.9317213,215.655568 46.0801143,218.428443 48.1243877,220.47351 L60.1817433,220.47351 C60.1817433,218.913478 59.2241491,217.514439 57.7713007,216.949165" id="Fill-258" stroke="none" fill="#6593CA" fill-rule="evenodd"></path>
                                    <path d="M72.0643456,129.773934 C71.8668611,129.773934 71.6395482,129.624257 71.593777,129.203003 C71.5042919,128.367694 71.4014353,127.662002 71.3016645,126.976884 C71.2348078,126.522196 71.0944086,125.456457 70.9714951,124.518792 C70.962238,124.44884 70.9025812,124.39689 70.8326388,124.39689 L70.8254388,124.39689 C70.7524107,124.401005 70.6942968,124.459641 70.6922396,124.533708 C70.63464,126.488249 70.5857831,128.929367 70.5857831,128.956628 C70.580126,129.22512 70.4032128,129.344964 70.2309281,129.344964 C70.0175009,129.344964 69.7907022,129.178828 69.7655024,128.806951 C69.6857886,127.654801 69.6204747,125.857138 69.5793321,124.551711 C69.577275,124.478158 69.5196753,124.420036 69.4466472,124.415921 C69.4440758,124.415407 69.4420186,124.415407 69.4389329,124.415407 C69.3695048,124.415407 69.309848,124.466328 69.3000766,124.535251 L68.8655078,127.517983 C68.8392794,127.763329 68.6495092,127.872372 68.4849387,127.872372 C68.3795108,127.872372 68.2802542,127.831224 68.2133975,127.758186 C68.137798,127.675375 68.1043696,127.552445 68.1172267,127.403797 C68.1640264,126.874528 68.1537407,126.060822 68.1403694,125.030059 C68.1125981,122.813713 68.3877393,116.10038 68.3877393,116.10038 L72.4181721,116.10038 C72.4181721,116.10038 73.080568,116.843106 73.844792,118.07138 C74.4485598,119.04145 74.7987862,119.673075 74.9993564,120.796935 C75.1227843,121.485654 75.5264961,123.545637 75.5264961,123.545637 C74.9988421,123.540493 74.6481014,123.446367 74.472731,122.937157 L73.8309064,120.912151 C73.4127946,120.940954 73.1160535,121.254709 73.1304535,121.642017 C73.158739,122.393486 73.3449093,123.510146 73.560908,124.802715 C73.7439926,125.904458 73.9440485,127.108558 74.1055333,128.377981 C74.1235332,128.520456 74.0880477,128.650073 74.0052482,128.743171 C73.93222,128.825982 73.8206207,128.877417 73.7141642,128.877417 C73.5259368,128.877417 73.3814234,128.730827 73.3284523,128.484452 L73.1067965,127.443402 C72.9833686,126.863212 72.6789133,125.559328 72.4166292,124.444211 C72.4012007,124.379917 72.3436011,124.335682 72.2793157,124.335682 C72.2721158,124.335682 72.2649158,124.336711 72.2572016,124.33774 C72.1846878,124.349056 72.1332595,124.415407 72.1394309,124.48896 C72.266973,125.95898 72.4341148,127.967013 72.5030287,129.180885 C72.5169143,129.42366 72.4330862,129.566136 72.3605724,129.642774 C72.2813729,129.727128 72.1759449,129.773934 72.0643456,129.773934" id="Fill-263" stroke="none" fill="#80ADDB" fill-rule="evenodd"></path>
                                    <polygon id="Fill-265" stroke="none" fill="#E8F2FF" fill-rule="evenodd" points="0.338958987 232.01646 284.766127 232.01646 284.766127 114.104692 0.338958987 114.104692"></polygon>
                                    <polygon id="Fill-266" stroke="none" fill="#E8F2FF" fill-rule="evenodd" points="121.752942 114.104692 221.565938 114.104692 221.565938 92.2627021 121.752942 92.2627021"></polygon>
                                    <polygon id="Fill-267" stroke="none" fill="#A4C6E5" fill-rule="evenodd" points="121.752942 114.105206 221.565938 114.105206 221.565938 112.165582 121.752942 112.165582"></polygon>
                                    <polygon id="Stroke-269" stroke="#A4C6E5" stroke-width="0.636923077" fill="none" opacity="0.5" points="141.677782 215.082747 253.823789 215.082747 253.823789 138.932308 141.677782 138.932308"></polygon>
                                    <polyline id="Fill-270" stroke="none" fill="#E0E9F2" fill-rule="evenodd" opacity="0.227911086" points="128.887548 232.197224 128.887548 200.076923 70.2007029 200.076923 70.2007029 232.197224"></polyline>
                                    <polyline id="Stroke-271" stroke="#A4C6E5" stroke-width="0.636923077" fill="none" points="128.887548 232.197224 128.887548 200.076923 70.2007029 200.076923 70.2007029 232.197224"></polyline>
                                    <polygon id="Stroke-271-Copy" stroke="#A4C6E5" stroke-width="0.636923077" fill="none" opacity="0.5" points="103.360019 245.935385 103.360019 138.932308 44.6731745 138.932308 44.6731745 245.935385"></polygon>
                                    <g id="Group-3" stroke="none" stroke-width="1" fill="none" fill-rule="evenodd" transform="translate(137.848653, 57.406154)">
                                        <polygon id="Fill-273" fill="#1D78C2" points="1.26977112 7.70283771 18.1325833 7.70283771 18.1325833 0.511157513 1.26977112 0.511157513"></polygon>
                                        <polygon id="Fill-274" fill="#C3D8EE" points="1.26977112 34.876608 18.1325833 34.876608 18.1325833 25.7926241 1.26977112 25.7926241"></polygon>
                                        <polygon id="Fill-275" fill="#FFFFFF" points="1.26977112 25.7926241 18.1325833 25.7926241 18.1325833 7.70283771 1.26977112 7.70283771"></polygon>
                                        <polygon id="Fill-276" fill="#FFFFFF" points="3.55678585 4.51642241 15.8450543 4.51642241 15.8450543 3.69757282 3.55678585 3.69757282"></polygon>
                                        <polygon id="Fill-277" fill="#203A44" points="3.55678585 28.6246503 15.8450543 28.6246503 15.8450543 27.9328459 3.55678585 27.9328459"></polygon>
                                        <polygon id="Fill-278" fill="#203A44" points="3.55678585 29.9614531 15.8450543 29.9614531 15.8450543 29.2696487 3.55678585 29.2696487"></polygon>
                                        <polygon id="Fill-279" fill="#203A44" points="3.55678585 31.2982559 15.8450543 31.2982559 15.8450543 30.6064515 3.55678585 30.6064515"></polygon>
                                        <polygon id="Fill-280" fill="#203A44" points="8.84515384 11.0126977 9.62274913 11.0126977 9.62274913 10.234482 8.84515384 10.234482"></polygon>
                                        <polygon id="Fill-281" fill="#203A44" points="9.62274913 11.790399 10.4003444 11.790399 10.4003444 11.0126977 9.62274913 11.0126977"></polygon>
                                        <polygon id="Fill-282" fill="#203A44" points="8.84515384 12.5686148 9.62274913 12.5686148 9.62274913 11.790399 8.84515384 11.790399"></polygon>
                                        <polygon id="Fill-283" fill="#203A44" points="9.62274913 13.3463161 10.4003444 13.3463161 10.4003444 12.5681004 9.62274913 12.5681004"></polygon>
                                        <polygon id="Fill-284" fill="#203A44" points="8.84515384 14.1240175 9.62274913 14.1240175 9.62274913 13.3463161 8.84515384 13.3463161"></polygon>
                                        <polygon id="Fill-285" fill="#203A44" points="9.62274913 14.9022332 10.4003444 14.9022332 10.4003444 14.1240175 9.62274913 14.1240175"></polygon>
                                        <polygon id="Fill-286" fill="#203A44" points="8.84515384 15.6799346 9.62274913 15.6799346 9.62274913 14.9017189 8.84515384 14.9017189"></polygon>
                                        <polygon id="Fill-287" fill="#203A44" points="9.62274913 16.4581503 10.4003444 16.4581503 10.4003444 15.6799346 9.62274913 15.6799346"></polygon>
                                        <polygon id="Fill-288" fill="#203A44" points="8.84515384 17.2358516 9.62274913 17.2358516 9.62274913 16.4581503 8.84515384 16.4581503"></polygon>
                                        <polygon id="Fill-289" fill="#203A44" points="9.62274913 18.013553 10.4003444 18.013553 10.4003444 17.2353373 9.62274913 17.2353373"></polygon>
                                        <polygon id="Fill-290" fill="#203A44" points="8.84515384 18.7917687 9.62274913 18.7917687 9.62274913 18.013553 8.84515384 18.013553"></polygon>
                                        <polygon id="Fill-291" fill="#203A44" points="9.62274913 19.5699844 10.4003444 19.5699844 10.4003444 18.7917687 9.62274913 18.7917687"></polygon>
                                        <polygon id="Fill-292" fill="#203A44" points="8.84515384 20.3476858 9.62274913 20.3476858 9.62274913 19.5699844 8.84515384 19.5699844"></polygon>
                                        <polygon id="Fill-293" fill="#203A44" points="9.62274913 21.1253872 10.4003444 21.1253872 10.4003444 20.3471715 9.62274913 20.3471715"></polygon>
                                        <polygon id="Fill-294" fill="#203A44" points="8.84515384 21.9036029 9.62274913 21.9036029 9.62274913 21.1253872 8.84515384 21.1253872"></polygon>
                                        <polygon id="Fill-295" fill="#203A44" points="9.62274913 22.6818186 10.4003444 22.6818186 10.4003444 21.9036029 9.62274913 21.9036029"></polygon>
                                        <polygon id="Fill-296" fill="#203A44" points="4.17803923 17.2358516 4.95563453 17.2358516 4.95563453 16.4581503 4.17803923 16.4581503"></polygon>
                                        <polygon id="Fill-297" fill="#203A44" points="4.95563453 16.4581503 5.73322982 16.4581503 5.73322982 15.6799346 4.95563453 15.6799346"></polygon>
                                        <polygon id="Fill-298" fill="#203A44" points="5.7337441 17.2358516 6.51133939 17.2358516 6.51133939 16.4581503 5.7337441 16.4581503"></polygon>
                                        <polygon id="Fill-299" fill="#203A44" points="6.51133939 16.4581503 7.28893469 16.4581503 7.28893469 15.6799346 6.51133939 15.6799346"></polygon>
                                        <polygon id="Fill-300" fill="#203A44" points="7.28944897 17.2358516 8.06704426 17.2358516 8.06704426 16.4581503 7.28944897 16.4581503"></polygon>
                                        <polygon id="Fill-301" fill="#203A44" points="8.06704426 16.4581503 8.84463955 16.4581503 8.84463955 15.6799346 8.06704426 15.6799346"></polygon>
                                        <polygon id="Fill-302" fill="#203A44" points="10.4003444 17.2358516 11.1779397 17.2358516 11.1779397 16.4581503 10.4003444 16.4581503"></polygon>
                                        <polygon id="Fill-303" fill="#203A44" points="11.178454 16.4581503 11.9560493 16.4581503 11.9560493 15.6799346 11.178454 15.6799346"></polygon>
                                        <polygon id="Fill-304" fill="#203A44" points="11.9560493 17.2358516 12.7336446 17.2358516 12.7336446 16.4581503 11.9560493 16.4581503"></polygon>
                                        <polygon id="Fill-305" fill="#203A44" points="12.7341589 16.4581503 13.5117542 16.4581503 13.5117542 15.6799346 12.7341589 15.6799346"></polygon>
                                        <polygon id="Fill-306" fill="#203A44" points="13.5117542 17.2358516 14.2893495 17.2358516 14.2893495 16.4581503 13.5117542 16.4581503"></polygon>
                                        <polygon id="Fill-307" fill="#203A44" points="14.2898637 16.4581503 15.067459 16.4581503 15.067459 15.6799346 14.2898637 15.6799346"></polygon>
                                        <polygon id="Fill-308" fill="#203A44" points="15.067459 17.2358516 15.8450543 17.2358516 15.8450543 16.4581503 15.067459 16.4581503"></polygon>
                                        <polygon id="Fill-309" fill="#203A44" points="14.2898637 18.013553 15.067459 18.013553 15.067459 17.2353373 14.2898637 17.2353373"></polygon>
                                        <polygon id="Fill-310" fill="#203A44" points="15.067459 18.7917687 15.8450543 18.7917687 15.8450543 18.013553 15.067459 18.013553"></polygon>
                                        <polygon id="Fill-311" fill="#203A44" points="14.2898637 19.5699844 15.067459 19.5699844 15.067459 18.7917687 14.2898637 18.7917687"></polygon>
                                        <polygon id="Fill-312" fill="#203A44" points="15.067459 20.3476858 15.8450543 20.3476858 15.8450543 19.5699844 15.067459 19.5699844"></polygon>
                                        <polygon id="Fill-313" fill="#203A44" points="14.2898637 21.1253872 15.067459 21.1253872 15.067459 20.3471715 14.2898637 20.3471715"></polygon>
                                        <polygon id="Fill-314" fill="#203A44" points="15.067459 21.9036029 15.8450543 21.9036029 15.8450543 21.1253872 15.067459 21.1253872"></polygon>
                                        <polygon id="Fill-315" fill="#203A44" points="14.2898637 22.6818186 15.067459 22.6818186 15.067459 21.9036029 14.2898637 21.9036029"></polygon>
                                        <polygon id="Fill-316" fill="#203A44" points="13.5117542 21.9036029 14.2893495 21.9036029 14.2893495 21.1253872 13.5117542 21.1253872"></polygon>
                                        <polygon id="Fill-317" fill="#203A44" points="12.7341589 22.6818186 13.5117542 22.6818186 13.5117542 21.9036029 12.7341589 21.9036029"></polygon>
                                        <polygon id="Fill-318" fill="#203A44" points="11.9560493 21.9036029 12.7336446 21.9036029 12.7336446 21.1253872 11.9560493 21.1253872"></polygon>
                                        <polygon id="Fill-319" fill="#203A44" points="11.178454 22.6818186 11.9560493 22.6818186 11.9560493 21.9036029 11.178454 21.9036029"></polygon>
                                        <polygon id="Fill-320" fill="#203A44" points="10.4003444 21.9036029 11.1779397 21.9036029 11.1779397 21.1253872 10.4003444 21.1253872"></polygon>
                                        <polygon id="Fill-321" fill="#203A44" points="3.39992966 16.4581503 4.17752495 16.4581503 4.17752495 15.6799346 3.39992966 15.6799346"></polygon>
                                        <path d="M11.1517113,20.3672312 L13.5117542,20.3672312 L13.5117542,18.0068664 L11.1517113,18.0068664 L11.1517113,20.3672312 Z M10.374116,21.1454469 L14.2898637,21.1454469 L14.2898637,17.2291651 L10.374116,17.2291651 L10.374116,21.1454469 Z" id="Fill-322" fill="#203A44"></path>
                                        <polygon id="Fill-323" fill="#203A44" points="11.9298209 19.5900442 12.7341589 19.5900442 12.7341589 18.7855965 11.9298209 18.7855965"></polygon>
                                        <path d="M11.9560493,14.1240175 L15.067459,14.1240175 L15.067459,11.0126977 L11.9560493,11.0126977 L11.9560493,14.1240175 Z M11.178454,14.9017189 L15.8455686,14.9017189 L15.8455686,10.234482 L11.178454,10.234482 L11.178454,14.9017189 Z" id="Fill-324" fill="#203A44"></path>
                                        <polygon id="Fill-325" fill="#203A44" points="12.7341589 13.3463161 14.2898637 13.3463161 14.2898637 11.790399 12.7341589 11.790399"></polygon>
                                        <path d="M4.17803923,14.1240175 L7.28944897,14.1240175 L7.28944897,11.0126977 L4.17803923,11.0126977 L4.17803923,14.1240175 Z M3.39992966,14.9017189 L8.06704426,14.9017189 L8.06704426,10.234482 L3.39992966,10.234482 L3.39992966,14.9017189 Z" id="Fill-326" fill="#203A44"></path>
                                        <polygon id="Fill-327" fill="#203A44" points="4.95563453 13.3463161 6.51133939 13.3463161 6.51133939 11.790399 4.95563453 11.790399"></polygon>
                                        <path d="M4.17803923,21.9036029 L7.28944897,21.9036029 L7.28944897,18.7917687 L4.17803923,18.7917687 L4.17803923,21.9036029 Z M3.39992966,22.6813043 L8.06704426,22.6813043 L8.06704426,18.013553 L3.39992966,18.013553 L3.39992966,22.6813043 Z" id="Fill-328" fill="#203A44"></path>
                                        <polygon id="Fill-329" fill="#203A44" points="4.95563453 21.1253872 6.51133939 21.1253872 6.51133939 19.5699844 4.95563453 19.5699844"></polygon>
                                    </g>
                                    <polygon id="Fill-338" stroke="none" fill="#FFFFFF" fill-rule="evenodd" points="62.1351943 99.5592074 49.3830429 99.5592074 51.940056 114.883319 59.5786955 114.883319"></polygon>
                                    <path d="M62.1975768,97.9151817 L49.320969,97.9151817 C48.8668575,97.9151817 48.4991454,98.2829439 48.4991454,98.7371174 C48.4991454,99.1907765 48.8668575,99.5590531 49.320969,99.5590531 L62.1975768,99.5590531 C62.6516883,99.5590531 63.0194004,99.1907765 63.0194004,98.7371174 C63.0194004,98.2829439 62.6516883,97.9151817 62.1975768,97.9151817" id="Fill-339" stroke="none" fill="#FFFFFF" fill-rule="evenodd"></path>
                                    <polygon id="Fill-340" stroke="none" fill="#A4C6E5" fill-rule="evenodd" points="49.7134181 101.538283 51.9402617 114.883165 59.5783869 114.883165 61.8047163 101.538283"></polygon>
                                    <polygon id="Fill-341" stroke="none" fill="#C3D8EE" fill-rule="evenodd" points="49.3208147 99.5592074 62.0374806 100.142565 62.1974225 99.5592074"></polygon>
                                    <polygon id="Fill-342" stroke="none" fill="#FFFFFF" fill-rule="evenodd" points="82.1950957 99.5592074 69.4429443 99.5592074 71.9999574 114.883319 79.6380826 114.883319"></polygon>
                                    <path d="M82.2573753,97.9151817 L69.3807676,97.9151817 C68.926656,97.9151817 68.558944,98.2829439 68.558944,98.7371174 C68.558944,99.1907765 68.926656,99.5590531 69.3807676,99.5590531 L82.2573753,99.5590531 C82.7114869,99.5590531 83.0791989,99.1907765 83.0791989,98.7371174 C83.0791989,98.2829439 82.7114869,97.9151817 82.2573753,97.9151817" id="Fill-343" stroke="none" fill="#FFFFFF" fill-rule="evenodd"></path>
                                    <polygon id="Fill-344" stroke="none" fill="#A4C6E5" fill-rule="evenodd" points="69.7733195 101.538283 71.9996489 114.883165 79.6382883 114.883165 81.8646177 101.538283"></polygon>
                                    <polygon id="Fill-345" stroke="none" fill="#C3D8EE" fill-rule="evenodd" points="69.3807162 99.5592074 82.097382 100.142565 82.2573239 99.5592074"></polygon>
                                </g>
                            </g>
                            <g id="Group-109" mask="url(#mask-2)">
                                <g transform="translate(158.500000, 135.500000) scale(-1, 1) translate(-158.500000, -135.500000) translate(107.000000, 24.000000)">
                                    <path d="M93.5279195,110.387498 C94.1650611,111.696885 94.5907336,113.251072 94.2306894,116.219107 C94.2306894,116.219107 93.1642292,116.754125 92.8743708,115.543748 C92.7312646,114.943329 92.9163,113.595337 92.0180124,111.218638 L93.5279195,110.387498 Z" id="Fill-3" stroke="none" fill="#B4CCE5" fill-rule="evenodd"></path>
                                    <path d="M92.9765049,114.317203 L93.6988721,114.456181 C93.8592969,113.95023 94.0625624,113.319834 94.2576243,112.718052 C94.1177084,111.77791 93.8506376,111.050321 93.527965,110.38768 L93.4331686,110.439456 L92.9765049,114.317203 Z" id="Fill-5" stroke="none" fill="#6593CA" fill-rule="evenodd"></path>
                                    <path d="M93.7557956,110.915749 C94.1049018,111.750523 94.154123,112.711103 93.8916097,113.668959 C93.6537071,114.534163 93.2672292,115.696851 92.6597115,116.954916 C92.6597115,116.954916 91.2892646,117.243771 91.5741097,115.868075 C91.8589549,114.492833 92.6961717,114.072721 92.0180124,111.218684 L92.0585743,107.571203 C92.8479372,108.881499 93.4044106,110.074163 93.7557956,110.915749" id="Fill-7" stroke="none" fill="#B4CCE5" fill-rule="evenodd"></path>
                                    <path d="M93.4575969,110.231398 C93.115327,109.477921 92.6531942,108.557763 92.0588934,107.571294 L92.0178757,111.218775 C92.0388403,111.305976 92.0538801,111.384549 92.0716544,111.467663 L92.3729066,112.286995 L92.9407739,112.323329 C93.1344686,111.538514 93.3049199,110.848168 93.4575969,110.231398" id="Fill-9" stroke="none" fill="#6593CA" fill-rule="evenodd"></path>
                                    <path d="M84.2250597,102.136089 C84.2250597,102.136089 89.4766925,104.512334 91.5006881,106.823177 C92.05625,107.457659 92.9641084,108.673486 93.0160642,111.474839 C93.0643739,114.059095 90.2391659,116.721016 90.2391659,116.721016 C90.2391659,116.721016 89.948396,116.868169 89.5350288,116.396735 C88.5907102,115.318523 93.1527898,113.01858 89.898719,109.303427 C88.2238296,107.39135 86.0817942,108.493179 87.4969049,110.898945 C87.9070819,111.596103 88.5269049,112.588476 88.5547058,112.631169 C89.2984934,113.790224 88.0305907,115.008321 87.156458,113.950547 C84.6703296,110.942545 82.2958606,106.451662 82.2958606,106.451662 L80.5020199,105.211309 L84.2250597,102.136089 Z" id="Fill-11" stroke="none" fill="#B4CCE5" fill-rule="evenodd"></path>
                                    <path d="M10.195177,111.380597 C10.195177,111.380597 10.403,114.187854 10.618115,116.527764 C10.6409027,116.774381 10.5966947,117.020544 10.5014425,117.248995 L9.26179646,120.22475 C8.98059735,120.898746 8.55720354,121.50507 8.02078319,122.001937 L7.97520796,122.044176 C7.51170796,122.472463 6.74422124,122.228117 6.64030973,121.606805 C6.62481416,121.512337 6.61387611,118.482534 6.60840708,118.368536" id="Fill-13" stroke="none" fill="#A4C6E5" fill-rule="evenodd"></path>
                                    <path d="M11.4458066,107.737431 L10.5502535,111.213688 C9.44323142,116.822297 7.73416062,119.647266 7.73416062,119.647266 L5.59166947,124.109537 C5.06664292,125.309014 3.85798805,125.026971 3.94731549,123.721672 C4.01476681,122.726574 4.04439071,122.729299 4.04439071,122.729299 C4.04439071,122.729299 3.27143496,122.470873 3.06178894,122.367776 C2.67166504,122.176568 2.45244823,121.760543 2.49802345,121.329531 C2.50668274,121.247325 2.51625354,121.157853 2.52764735,121.061568 C2.52764735,121.061568 2.0235854,120.878081 1.84174027,120.794967 C1.5085854,120.642818 1.30668717,120.304912 1.31990398,119.940209 C1.32719602,119.739464 1.36274469,119.222613 1.36274469,119.222613 C0.525527876,118.673515 0.185992478,117.697492 1.10478894,115.296723 C2.55089071,111.517985 4.84514735,107.944989 4.84514735,107.944989 L5.61126681,105.366637" id="Fill-15" stroke="none" fill="#A4C6E5" fill-rule="evenodd"></path>
                                    <path d="M60.3070013,74.4495719 L58.2050721,50.0381116 C57.8477624,45.8578835 54.272842,42.6854701 50.0644261,42.8140016 C45.4289704,42.9557043 41.9060058,47.0160301 42.4337668,51.6072868 L45.1824084,75.3088713 C45.6399836,79.5049955 47.7719925,83.3418672 51.1030854,85.9488326 C62.7790013,95.0881992 71.5103022,101.86858 77.5307889,105.778574 C79.2202624,106.875861 82.1580412,106.451662 82.1580412,106.451662 L86.3432137,103.269256 C86.3432137,103.269256 86.7155633,100.74268 85.1828686,99.2811442 L60.3070013,74.4495719 Z" id="Fill-17" stroke="none" fill="#A4C6E5" fill-rule="evenodd"></path>
                                    <path d="M59.6166735,78.7935301 L59.7465628,68.0032369 L53.7848681,68.9315709 L51.083169,86.0289945 C51.0913726,86.0344446 51.0982088,86.0421656 51.1059566,86.048524 C54.3422531,88.5814589 61.7910673,94.1809843 64.9512531,96.591746 L59.6166735,78.7935301 Z" id="Fill-19" stroke="none" fill="#4E79AD" fill-rule="evenodd"></path>
                                    <path d="M30.7356102,85.8598597 L29.7994951,91.8517925 C29.6099022,93.066711 29.5360704,94.2893505 29.5748093,95.5038149 C29.5748093,105.919414 34.6268226,131.178819 34.6268226,131.178819 L3.10016327,202.954843 L12.8632872,207.90399 L55.6543181,134.243139 L58.4221013,85.8598597 L30.7356102,85.8598597 Z" id="Fill-21" stroke="none" fill="#6593CA" fill-rule="evenodd"></path>
                                    <polygon id="Fill-23" stroke="none" fill="#4E79AD" fill-rule="evenodd" points="35.624692 110.033559 46.9966212 149.146669 55.6540903 134.243366"></polygon>
                                    <path d="M30.7356102,85.8598597 L29.7994951,91.8517925 C29.1277164,96.1573729 29.6149155,100.735913 32.0108049,104.380214 C50.3069774,132.21343 76.8796102,209.944145 76.8796102,209.944145 L85.8100748,207.244074 L58.4221013,85.8598597 L30.7356102,85.8598597 Z" id="Fill-25" stroke="none" fill="#6593CA" fill-rule="evenodd"></path>
                                    <path d="M58.4221013,85.8598597 L58.4221013,85.8598597 C60.4260438,83.8628515 61.3557783,81.0365196 60.9269155,78.2447049 C60.0058403,72.2423261 59.6690394,48.3804177 56.9459199,44.57988 C55.8630527,43.0688393 53.9338535,40.6194727 51.9485969,38.1505766 C48.164942,33.4462303 41.407504,32.3893648 36.3518447,35.7007558 C32.6155881,38.1478515 30.2557031,42.2081774 29.9845305,46.6559147 L28.028442,78.7433892 C27.86665,81.3921387 28.852442,83.9832079 30.7356102,85.8598597" id="Fill-27" stroke="none" fill="#A4C6E5" fill-rule="evenodd"></path>
                                    <path d="M51.9485513,38.1501678 C51.5607062,37.6678338 51.1350336,37.2340965 50.6897637,36.8298807 L50.6897637,44.1752554 L52.9981487,39.4613715 C52.6522327,39.0276342 52.302215,38.5902635 51.9485513,38.1501678" id="Fill-29" stroke="none" fill="#A4C6E5" fill-rule="evenodd"></path>
                                    <path d="M37.5380765,56.8165849 L28.9562624,63.5224811 L28.0283509,78.743253 C27.9754836,79.6116358 28.057519,80.4709352 28.2425544,81.3038925 L28.7516296,82.8994098 C28.763935,82.9289312 28.7776075,82.9584525 28.7908243,82.9875198 L37.5380765,56.8165849 Z" id="Fill-31" stroke="none" fill="#4E79AD" fill-rule="evenodd"></path>
                                    <path d="M36.3519358,35.7005287 L32.3663827,38.1485328 C27.9168739,40.8808505 24.5224314,45.028378 22.7304137,49.9212069 C15.843542,68.7249666 6.36708628,95.4763373 4.32713938,105.027641 C4.08786947,106.149908 4.70723673,107.944808 4.70723673,107.944808 L10.5563606,110.654417 C10.5563606,110.654417 12.1674447,110.178895 12.7061438,109.033011 L39.0499889,53.6000257 L36.3519358,35.7005287 Z" id="Fill-33" stroke="none" fill="#A4C6E5" fill-rule="evenodd"></path>
                                    <path d="M59.5556938,19.6602886 C57.4081894,16.2735045 55.8677469,9.97137006 55.8677469,9.97137006 L53.0594018,9.75291181 L43.1577292,7.033311 L39.0495788,13.5407326 L41.8925611,26.6109851 L39.6871761,34.1961644 C39.6871761,34.1961644 45.2409726,44.175755 50.689946,44.175755 L51.0003133,34.1634637 C51.0454327,32.6987489 52.2158044,31.511535 53.6846938,31.4515839 C55.1968796,31.3902703 56.7104327,31.2535635 57.3311673,31.0600849 C58.3816761,30.7317163 59.0279327,29.6848426 58.8752558,28.5984556 L57.9601053,21.8098996 L58.9891938,21.3893334 C59.6723664,21.1095615 59.9499195,20.2825086 59.5556938,19.6602886" id="Fill-35" stroke="none" fill="#C3D8EE" fill-rule="evenodd"></path>
                                    <g id="Group-48" stroke="none" stroke-width="1" fill="none" fill-rule="evenodd" transform="translate(34.181416, 0.031792)">
                                        <mask id="mask-6" fill="white">
                                            <use xlink:href="#path-5"></use>
                                        </mask>
                                        <g id="Clip-47"></g>
                                        <path d="M20.4366584,0.458671487 C15.200977,-0.0577256619 14.8076628,5.10715418 14.8076628,5.10715418 C14.8076628,5.10715418 13.4841584,3.09924582 10.5427336,3.15056762 C6.55262301,3.21960224 6.1588531,8.01432933 6.1588531,8.01432933 L3.11533982,9.68751059 C0.477446018,11.138146 -0.352023009,14.5262927 1.31922035,17.024256 L7.71114513,26.5791929 C10.8339593,26.8685024 11.7691628,23.2641684 11.7691628,23.2641684 C6.53120265,23.2641684 4.97207434,18.4794332 7.71615841,17.3344576 C10.459331,16.1899363 12.4140522,20.2816002 12.4140522,20.2816002 L14.0137425,19.4114006 C13.3424195,16.8861868 12.2891761,14.7851725 11.3890655,13.2986572 C10.8335035,12.3798609 11.5804814,11.2217143 12.6505876,11.3393456 C27.3681938,12.9553008 26.0683885,1.0141277 20.4366584,0.458671487" id="Fill-46" fill="#6593CA" mask="url(#mask-6)"></path>
                                    </g>
                                    <path d="M46.595696,29.1061326 C46.595696,29.1061326 47.9424438,31.8470796 51.0638907,33.65288 C51.33005,32.4316031 52.3910412,31.5041774 53.6849217,31.4519473 C48.3849792,31.4519473 46.595696,29.1061326 46.595696,29.1061326" id="Fill-49" stroke="none" fill="#A4C6E5" fill-rule="evenodd"></path>
                                    <path d="M37.675577,37.0679593 C38.7579885,39.0127373 43.8204841,47.4127067 50.8276743,47.4127067 C54.1305106,47.4127067 54.722077,44.7566904 54.2079885,41.9049246" id="Stroke-53" stroke="#609ED2" stroke-width="0.668769231" fill="none" stroke-linecap="round" stroke-linejoin="round"></path>
                                    <path d="M12.6185482,105.363231 L6.28997301,102.897514" id="Stroke-55" stroke="#6593CA" stroke-width="0.668769231" fill="none" stroke-linecap="round" stroke-linejoin="round"></path>
                                    <g id="Group-8" stroke="none" stroke-width="1" fill="none" fill-rule="evenodd" transform="translate(30.294118, 80.762162)" stroke-linecap="round" stroke-linejoin="round">
                                        <path d="M28.6781222,0.594096697 C28.5135956,1.76268937 27.9552992,2.99849996 27.5993567,3.88913743" id="Stroke-57" stroke="#6593CA" stroke-width="0.668769231"></path>
                                        <path d="M27.1208169,0.594096697 C26.9745204,1.76268937 26.4782062,2.99849996 26.1619142,3.88913743" id="Stroke-59" stroke="#6593CA" stroke-width="0.668769231"></path>
                                        <path d="M25.5630558,0.594096697 C25.4349894,1.76268937 25.0011133,2.99849996 24.724016,3.88913743" id="Stroke-61" stroke="#6593CA" stroke-width="0.668769231"></path>
                                        <path d="M24.0057505,0.594096697 C23.8959142,1.76268937 23.5235647,2.99849996 23.2865735,3.88913743" id="Stroke-63" stroke="#6593CA" stroke-width="0.668769231"></path>
                                        <path d="M22.4479894,0.594096697 C22.356839,1.76268937 22.0464717,2.99849996 21.8486753,3.88913743" id="Stroke-65" stroke="#6593CA" stroke-width="0.668769231"></path>
                                        <path d="M20.8906841,0.594096697 C20.8177638,1.76268937 20.5693788,2.99849996 20.410777,3.88913743" id="Stroke-67" stroke="#6593CA" stroke-width="0.668769231"></path>
                                        <path d="M19.3333788,0.594096697 C19.2782328,1.76268937 19.0922859,2.99849996 18.9733346,3.88913743" id="Stroke-69" stroke="#6593CA" stroke-width="0.668769231"></path>
                                        <path d="M17.7756633,0.594096697 C17.7392031,1.76268937 17.6147828,2.99849996 17.5359377,3.88913743" id="Stroke-71" stroke="#6593CA" stroke-width="0.668769231"></path>
                                        <path d="M16.218358,0.594096697 C16.2001279,1.76268937 16.1376899,2.99849996 16.0980394,3.88913743" id="Stroke-73" stroke="#6593CA" stroke-width="0.668769231"></path>
                                        <path d="M14.660597,0.594096697 L14.660597,3.88913743" id="Stroke-75" stroke="#6593CA" stroke-width="0.668769231"></path>
                                        <path d="M13.1032916,0.594096697 C13.1215217,1.76268937 13.183504,2.99849996 13.2231545,3.88913743" id="Stroke-77" stroke="#6593CA" stroke-width="0.668769231"></path>
                                        <path d="M11.5455762,0.594096697 C11.5824921,1.76268937 11.7064567,2.99849996 11.7853018,3.88913743" id="Stroke-79" stroke="#6593CA" stroke-width="0.668769231"></path>
                                        <path d="M9.98827085,0.594096697 C10.0429611,1.76268937 10.228908,2.99849996 10.3478593,3.88913743" id="Stroke-81" stroke="#6593CA" stroke-width="0.668769231"></path>
                                        <path d="M8.43096554,0.594096697 C8.50388589,1.76268937 8.7518151,2.99849996 8.91041687,3.88913743" id="Stroke-83" stroke="#6593CA" stroke-width="0.668769231"></path>
                                        <path d="M6.87320448,0.594096697 C6.96481067,1.76268937 7.27472218,2.99849996 7.47251864,3.88913743" id="Stroke-85" stroke="#6593CA" stroke-width="0.668769231"></path>
                                        <path d="M5.31589917,0.594096697 C5.4252797,1.76268937 5.79762926,2.99849996 6.03507616,3.88913743" id="Stroke-87" stroke="#6593CA" stroke-width="0.668769231"></path>
                                        <path d="M3.75813811,0.594096697 C3.88620448,1.76268937 4.32008058,2.99849996 4.59763368,3.88913743" id="Stroke-89" stroke="#6593CA" stroke-width="0.668769231"></path>
                                        <path d="M2.20087837,0.594096697 C2.34717483,1.76268937 2.84303324,2.99849996 3.15978103,3.88913743" id="Stroke-91" stroke="#6593CA" stroke-width="0.668769231"></path>
                                        <path d="M0.643117309,0.594096697 C0.80809961,1.76268937 1.36594032,2.99849996 1.72233855,3.88913743" id="Stroke-93" stroke="#6593CA" stroke-width="0.668769231"></path>
                                        <path d="M29.4191297,0.594096697 L0.259191645,0.594096697" id="Stroke-51" stroke="#6593CA" stroke-width="0.668769231"></path>
                                    </g>
                                    <path d="M1.83718274,116.527764 C1.60474912,117.310308 1.17041726,119.067966 1.17041726,119.067966" id="Stroke-95" stroke="#6593CA" stroke-width="0.668769231" fill="none" stroke-linecap="round" stroke-linejoin="round"></path>
                                    <path d="M3.23825619,117.395738 C2.93791549,118.800956 2.33996858,120.906512 2.33996858,120.906512" id="Stroke-97" stroke="#6593CA" stroke-width="0.668769231" fill="none" stroke-linecap="round" stroke-linejoin="round"></path>
                                    <path d="M5.09909248,118.340922 C4.74907478,119.899197 3.85671195,122.574289 3.85671195,122.574289" id="Stroke-99" stroke="#6593CA" stroke-width="0.668769231" fill="none" stroke-linecap="round" stroke-linejoin="round"></path>
                                    <path d="M8.89600973,116.966861 C8.33999204,118.771753 7.92935929,119.695545 7.92935929,119.695545 L6.89525752,121.849244" id="Stroke-101" stroke="#6593CA" stroke-width="0.668769231" fill="none" stroke-linecap="round" stroke-linejoin="round"></path>
                                    <path d="M55.2478783,17.5898857 C55.2574491,18.0254397 55.0031394,18.3846923 54.6790996,18.3919591 C54.3550597,18.3987717 54.0847987,18.0517819 54.0752279,17.6157737 C54.0652013,17.1797656 54.3204226,16.8209672 54.6444624,16.8137004 C54.9680465,16.8064336 55.2383075,17.1538776 55.2478783,17.5898857" id="Fill-103" stroke="none" fill="#4E79AD" fill-rule="evenodd"></path>
                                    <path d="M55.9421712,15.784267 C54.1246314,15.229265 52.6179146,16.4305582 52.6179146,16.4305582" id="Stroke-105" stroke="#4E79AD" stroke-width="0.668769231" fill="none" stroke-linecap="round" stroke-linejoin="round"></path>
                                    <path d="M58.4715049,25.6044876 C58.4715049,25.6044876 56.4028456,25.6044876 55.3158765,24.7624468 L58.2723412,24.1247849 L58.4715049,25.6044876 Z" id="Fill-107" stroke="none" fill="#FFFFFF" fill-rule="evenodd"></path>
                                </g>
                            </g>
                        </g>
                        <g id="Group" transform="translate(22.177101, 73.847203) rotate(-22.000000) translate(-22.177101, -73.847203) translate(10.177101, 44.347203)">
                            <path d="M18.1355388,21.1231021 C18.1045137,20.9560439 18.9139859,18.3822332 19.561328,16.3672512 C20.0568579,14.8247494 19.8494246,13.1500444 18.9882035,11.7314948 L16.9393879,8.35773572 L16.7158591,8.52756688 C16.0757479,9.01320248 15.8965366,9.85771568 16.2865094,10.5500568 L17.1712365,12.120749 C17.3165309,12.4542803 17.1962826,12.8331766 16.8820953,13.0326939 C16.5190311,13.2635948 16.0233414,13.1799031 15.7564331,12.8455549 C14.5738726,11.3636909 12.9053478,8.22956811 10.6493407,4.81657871 C10.099883,3.98546859 8.75752793,4.51682607 9.31408997,5.54103183 C10.3789903,7.50177845 11.2395841,9.04229353 12.390581,11.261006 C12.390581,11.261006 9.88702013,7.64615266 8.08449118,5.29569466 C7.30869185,4.28385652 5.88681847,5.07674419 6.69643521,6.25009712 C8.23911026,8.48581753 9.06606354,10.0456547 10.6279504,12.1725676 C8.93485663,10.3740742 6.11221047,7.14403749 6.11221047,7.14403749 C5.41807915,6.37129984 4.2680462,7.25278147 4.99460863,8.22308257 C6.66595911,10.45491 7.36692765,11.3905133 9.09939631,13.4006851 L5.47534014,10.1192368 C4.77111321,9.45803936 3.64055474,10.3569293 4.44502761,11.1409898 C6.15571571,12.8083883 10.1350163,18.3507873 14.3410638,21.6111637" id="Fill-4" fill="#A8614F" transform="translate(11.996482, 13.009158) rotate(34.000000) translate(-11.996482, -13.009158) "></path>
                            <path d="M11.2941176,18.7073171 C11.2941176,16.5544461 12.5158626,15.8193535 13.0798264,15.8293691 L14.1176471,15.8293691" id="Stroke-46" stroke="#6B422C" stroke-width="0.6325" stroke-linecap="round" stroke-linejoin="round"></path>
                            <polygon id="Path-4" fill="#A8614F" fill-rule="nonzero" points="9.08348854 21.5853659 1.77047069 58.8811916 11.4668639 55.7363066 13.8925797 21.187566"></polygon>
                        </g>
                    </g>
                    <path d="M64.087564,23.9124881 C63.1244498,20.6531465 59.3185863,19.2417032 56.4846076,21.0934639 C53.5585383,17.8870928 48.3850198,18.4465938 46.2022532,22.2052928 C41.8038306,20.4986492 37.7715778,25.3978695 40.2552833,29.4308012 C40.2552833,29.4308012 32.7625067,33.6695454 35.6704868,38.7254701 C37.194367,41.3750991 41.9189439,41.5660137 45.2879251,40.0398009 C45.8585579,42.2932546 45.2879251,27.2110058 70,27.2110058 C69.733595,24.3252167 66.6633601,22.616366 64.087564,23.9124881 Z" id="Fill-5" fill="#203A44"></path>
                </g>
            </g>
        </g>
    </g>
</svg>