<?xml version="1.0" encoding="UTF-8"?>
<svg width="135px" height="40px" viewBox="0 0 135 40" version="1.1" xmlns="http://www.w3.org/2000/svg" xmlns:xlink="http://www.w3.org/1999/xlink">
    <!-- Generator: Sketch 53 (72520) - https://sketchapp.com -->
    <title>logo-playstore</title>
    <desc>Created with Sketch.</desc>
    <defs>
        <polygon id="path-1" points="0 60 155 60 155 0 0 0"></polygon>
        <path d="M1.435,0.538 C1.145,0.846 0.973,1.324 0.973,1.943 L0.973,1.943 L0.973,24.059 C0.973,24.679 1.145,25.157 1.435,25.464 L1.435,25.464 L1.509,25.536 L13.899,13.147 L13.899,13.001 L13.899,12.855 L1.509,0.465 L1.435,0.538 Z" id="path-3"></path>
        <path d="M0.899,4.855 L0.899,5.001 L0.899,5.147 L5.028,9.278 L5.122,9.226 L10.015,6.446 C11.412,5.651 11.412,4.351 10.015,3.558 L10.015,3.558 L5.122,0.777 L5.029,0.724 L0.899,4.855 Z" id="path-5"></path>
        <path d="M0.435,0.538 L12.899,13.001 L17.122,8.777 L2.514,0.477 C2.112,0.248 1.731,0.14 1.393,0.14 L1.393,0.14 C1.009,0.14 0.68,0.279 0.435,0.538" id="path-7"></path>
        <linearGradient x1="61.231376%" y1="4.8388%" x2="26.323984%" y2="71.9684%" id="linearGradient-9">
            <stop stop-color="#00A0FF" offset="0%"></stop>
            <stop stop-color="#00A1FF" offset="0.657445%"></stop>
            <stop stop-color="#00BEFF" offset="26.01%"></stop>
            <stop stop-color="#00D2FF" offset="51.22%"></stop>
            <stop stop-color="#00DFFF" offset="76.04%"></stop>
            <stop stop-color="#00E3FF" offset="100%"></stop>
        </linearGradient>
        <linearGradient x1="107.728079%" y1="49.4282353%" x2="-130.665025%" y2="49.4282353%" id="linearGradient-10">
            <stop stop-color="#FFE000" offset="0%"></stop>
            <stop stop-color="#FFBD00" offset="40.87%"></stop>
            <stop stop-color="#FFA500" offset="77.54%"></stop>
            <stop stop-color="#FF9C00" offset="100%"></stop>
        </linearGradient>
        <linearGradient x1="86.3892216%" y1="30.8297553%" x2="-49.888024%" y2="136.004321%" id="linearGradient-11">
            <stop stop-color="#FF3A44" offset="0%"></stop>
            <stop stop-color="#C31162" offset="100%"></stop>
        </linearGradient>
        <linearGradient x1="-18.5790419%" y1="-11.6823797%" x2="42.2748503%" y2="35.0643382%" id="linearGradient-12">
            <stop stop-color="#32A071" offset="0%"></stop>
            <stop stop-color="#2DA771" offset="6.85%"></stop>
            <stop stop-color="#15CF74" offset="47.62%"></stop>
            <stop stop-color="#06E775" offset="80.09%"></stop>
            <stop stop-color="#00F076" offset="100%"></stop>
        </linearGradient>
    </defs>
    <g id="Page-1" stroke="none" stroke-width="1" fill="none" fill-rule="evenodd">
        <g id="SnapScan-Assets" transform="translate(-1176.000000, -626.000000)">
            <g id="logo/google-play" transform="translate(1176.000000, 626.000000)">
                <g id="Group-29" transform="translate(-10.000000, -10.000000)">
                    <path d="M140,50 L15,50 C12.25,50 10,47.75 10,45 L10,15 C10,12.25 12.25,10 15,10 L140,10 C142.75,10 145,12.25 145,15 L145,45 C145,47.75 142.75,50 140,50" id="Fill-3" fill="#000000"></path>
                    <path d="M140,10 L15,10 C12.25,10 10,12.25 10,15 L10,45 C10,47.75 12.25,50 15,50 L140,50 C142.75,50 145,47.75 145,45 L145,15 C145,12.25 142.75,10 140,10 M140,10.8 C142.316,10.8 144.2,12.684 144.2,15 L144.2,45 C144.2,47.316 142.316,49.2 140,49.2 L15,49.2 C12.684,49.2 10.8,47.316 10.8,45 L10.8,15 C10.8,12.684 12.684,10.8 15,10.8 L140,10.8" id="Fill-5" fill="#A6A6A6"></path>
                    <path d="M57.4185,20.2432 C57.4185,21.0812 57.1705,21.7482 56.6735,22.2462 C56.1085,22.8382 55.3735,23.1342 54.4695,23.1342 C53.6035,23.1342 52.8665,22.8342 52.2615,22.2332 C51.6545,21.6332 51.3525,20.8882 51.3525,20.0002 C51.3525,19.1112 51.6545,18.3672 52.2615,17.7662 C52.8665,17.1662 53.6035,16.8662 54.4695,16.8662 C54.8985,16.8662 55.3105,16.9502 55.7005,17.1172 C56.0915,17.2852 56.4045,17.5082 56.6395,17.7872 L56.1115,18.3152 C55.7145,17.8412 55.1675,17.6032 54.4695,17.6032 C53.8375,17.6032 53.2915,17.8252 52.8305,18.2692 C52.3695,18.7142 52.1395,19.2902 52.1395,20.0002 C52.1395,20.7092 52.3695,21.2862 52.8305,21.7302 C53.2915,22.1752 53.8375,22.3962 54.4695,22.3962 C55.1395,22.3962 55.6975,22.1732 56.1455,21.7262 C56.4355,21.4352 56.6035,21.0312 56.6475,20.5112 L54.4695,20.5112 L54.4695,19.7902 L57.3765,19.7902 C57.4045,19.9472 57.4185,20.0972 57.4185,20.2432" id="Fill-7" fill="#FFFFFF"></path>
                    <path d="M57.4185,20.2432 C57.4185,21.0812 57.1705,21.7482 56.6735,22.2462 C56.1085,22.8382 55.3735,23.1342 54.4695,23.1342 C53.6035,23.1342 52.8665,22.8342 52.2615,22.2332 C51.6545,21.6332 51.3525,20.8882 51.3525,20.0002 C51.3525,19.1112 51.6545,18.3672 52.2615,17.7662 C52.8665,17.1662 53.6035,16.8662 54.4695,16.8662 C54.8985,16.8662 55.3105,16.9502 55.7005,17.1172 C56.0915,17.2852 56.4045,17.5082 56.6395,17.7872 L56.1115,18.3152 C55.7145,17.8412 55.1675,17.6032 54.4695,17.6032 C53.8375,17.6032 53.2915,17.8252 52.8305,18.2692 C52.3695,18.7142 52.1395,19.2902 52.1395,20.0002 C52.1395,20.7092 52.3695,21.2862 52.8305,21.7302 C53.2915,22.1752 53.8375,22.3962 54.4695,22.3962 C55.1395,22.3962 55.6975,22.1732 56.1455,21.7262 C56.4355,21.4352 56.6035,21.0312 56.6475,20.5112 L54.4695,20.5112 L54.4695,19.7902 L57.3765,19.7902 C57.4045,19.9472 57.4185,20.0972 57.4185,20.2432 Z" id="Stroke-9" stroke="#FFFFFF" stroke-width="0.2"></path>
                    <polygon id="Fill-11" fill="#FFFFFF" points="62.0278 17.7373 59.2958 17.7373 59.2958 19.6393 61.7588 19.6393 61.7588 20.3603 59.2958 20.3603 59.2958 22.2623 62.0278 22.2623 62.0278 23.0003 58.5248 23.0003 58.5248 17.0003 62.0278 17.0003"></polygon>
                    <polygon id="Stroke-13" stroke="#FFFFFF" stroke-width="0.2" points="62.0278 17.7373 59.2958 17.7373 59.2958 19.6393 61.7588 19.6393 61.7588 20.3603 59.2958 20.3603 59.2958 22.2623 62.0278 22.2623 62.0278 23.0003 58.5248 23.0003 58.5248 17.0003 62.0278 17.0003"></polygon>
                    <polygon id="Fill-15" fill="#FFFFFF" points="65.2788 23 64.5078 23 64.5078 17.737 62.8318 17.737 62.8318 17 66.9548 17 66.9548 17.737 65.2788 17.737"></polygon>
                    <polygon id="Stroke-17" stroke="#FFFFFF" stroke-width="0.2" points="65.2788 23 64.5078 23 64.5078 17.737 62.8318 17.737 62.8318 17 66.9548 17 66.9548 17.737 65.2788 17.737"></polygon>
                    <mask id="mask-2" fill="white">
                        <use xlink:href="#path-1"></use>
                    </mask>
                    <g id="Clip-20"></g>
                    <polygon id="Fill-19" fill="#FFFFFF" mask="url(#mask-2)" points="69.938 23 70.709 23 70.709 17 69.938 17"></polygon>
                    <polygon id="Stroke-21" stroke="#FFFFFF" stroke-width="0.2" mask="url(#mask-2)" points="69.938 23 70.709 23 70.709 17 69.938 17"></polygon>
                    <polygon id="Fill-22" fill="#FFFFFF" mask="url(#mask-2)" points="74.1284 23 73.3574 23 73.3574 17.737 71.6814 17.737 71.6814 17 75.8044 17 75.8044 17.737 74.1284 17.737"></polygon>
                    <polygon id="Stroke-23" stroke="#FFFFFF" stroke-width="0.2" mask="url(#mask-2)" points="74.1284 23 73.3574 23 73.3574 17.737 71.6814 17.737 71.6814 17 75.8044 17 75.8044 17.737 74.1284 17.737"></polygon>
                    <path d="M79.7793,21.7222 C80.2233,22.1722 80.7663,22.3962 81.4093,22.3962 C82.0513,22.3962 82.5953,22.1722 83.0393,21.7222 C83.4833,21.2722 83.7063,20.6982 83.7063,20.0002 C83.7063,19.3022 83.4833,18.7272 83.0393,18.2782 C82.5953,17.8282 82.0513,17.6032 81.4093,17.6032 C80.7663,17.6032 80.2233,17.8282 79.7793,18.2782 C79.3363,18.7272 79.1133,19.3022 79.1133,20.0002 C79.1133,20.6982 79.3363,21.2722 79.7793,21.7222 M83.6093,22.2242 C83.0193,22.8312 82.2863,23.1342 81.4093,23.1342 C80.5323,23.1342 79.7993,22.8312 79.2103,22.2242 C78.6203,21.6182 78.3263,20.8772 78.3263,20.0002 C78.3263,19.1232 78.6203,18.3812 79.2103,17.7752 C79.7993,17.1692 80.5323,16.8662 81.4093,16.8662 C82.2813,16.8662 83.0123,17.1702 83.6053,17.7792 C84.1973,18.3882 84.4933,19.1282 84.4933,20.0002 C84.4933,20.8772 84.1983,21.6182 83.6093,22.2242" id="Fill-24" fill="#FFFFFF" mask="url(#mask-2)"></path>
                    <path d="M79.7793,21.7222 C80.2233,22.1722 80.7663,22.3962 81.4093,22.3962 C82.0513,22.3962 82.5953,22.1722 83.0393,21.7222 C83.4833,21.2722 83.7063,20.6982 83.7063,20.0002 C83.7063,19.3022 83.4833,18.7272 83.0393,18.2782 C82.5953,17.8282 82.0513,17.6032 81.4093,17.6032 C80.7663,17.6032 80.2233,17.8282 79.7793,18.2782 C79.3363,18.7272 79.1133,19.3022 79.1133,20.0002 C79.1133,20.6982 79.3363,21.2722 79.7793,21.7222 Z M83.6093,22.2242 C83.0193,22.8312 82.2863,23.1342 81.4093,23.1342 C80.5323,23.1342 79.7993,22.8312 79.2103,22.2242 C78.6203,21.6182 78.3263,20.8772 78.3263,20.0002 C78.3263,19.1232 78.6203,18.3812 79.2103,17.7752 C79.7993,17.1692 80.5323,16.8662 81.4093,16.8662 C82.2813,16.8662 83.0123,17.1702 83.6053,17.7792 C84.1973,18.3882 84.4933,19.1282 84.4933,20.0002 C84.4933,20.8772 84.1983,21.6182 83.6093,22.2242 Z" id="Stroke-25" stroke="#FFFFFF" stroke-width="0.2" mask="url(#mask-2)"></path>
                    <polygon id="Fill-26" fill="#FFFFFF" mask="url(#mask-2)" points="85.5752 23 85.5752 17 86.5132 17 89.4292 21.667 89.4632 21.667 89.4292 20.511 89.4292 17 90.2012 17 90.2012 23 89.3962 23 86.3462 18.106 86.3122 18.106 86.3462 19.263 86.3462 23"></polygon>
                    <polygon id="Stroke-27" stroke="#FFFFFF" stroke-width="0.2" mask="url(#mask-2)" points="85.5752 23 85.5752 17 86.5132 17 89.4292 21.667 89.4632 21.667 89.4292 20.511 89.4292 17 90.2012 17 90.2012 23 89.3962 23 86.3462 18.106 86.3122 18.106 86.3462 19.263 86.3462 23"></polygon>
                    <path d="M116.937,40 L118.802,40 L118.802,27.499 L116.937,27.499 L116.937,40 Z M133.743,32.002 L131.604,37.422 L131.54,37.422 L129.32,32.002 L127.311,32.002 L130.64,39.577 L128.741,43.791 L130.687,43.791 L135.818,32.002 L133.743,32.002 Z M123.16,38.58 C122.55,38.58 121.697,38.274 121.697,37.519 C121.697,36.554 122.759,36.184 123.676,36.184 C124.495,36.184 124.882,36.361 125.38,36.602 C125.235,37.76 124.238,38.58 123.16,38.58 L123.16,38.58 Z M123.386,31.729 C122.035,31.729 120.636,32.324 120.057,33.643 L121.713,34.334 C122.067,33.643 122.727,33.417 123.418,33.417 C124.383,33.417 125.364,33.996 125.38,35.025 L125.38,35.154 C125.042,34.961 124.318,34.672 123.434,34.672 C121.648,34.672 119.831,35.653 119.831,37.486 C119.831,39.159 121.295,40.237 122.936,40.237 C124.189,40.237 124.882,39.674 125.315,39.014 L125.38,39.014 L125.38,39.979 L127.182,39.979 L127.182,35.187 C127.182,32.967 125.524,31.729 123.386,31.729 L123.386,31.729 Z M111.854,33.524 L109.2,33.524 L109.2,29.239 L111.854,29.239 C113.249,29.239 114.041,30.394 114.041,31.381 C114.041,32.35 113.249,33.524 111.854,33.524 L111.854,33.524 Z M111.806,27.499 L107.335,27.499 L107.335,40 L109.2,40 L109.2,35.264 L111.806,35.264 C113.874,35.264 115.907,33.767 115.907,31.381 C115.907,28.996 113.874,27.499 111.806,27.499 L111.806,27.499 Z M87.425,38.583 C86.136,38.583 85.057,37.503 85.057,36.021 C85.057,34.522 86.136,33.427 87.425,33.427 C88.697,33.427 89.696,34.522 89.696,36.021 C89.696,37.503 88.697,38.583 87.425,38.583 L87.425,38.583 Z M89.567,32.702 L89.503,32.702 C89.084,32.203 88.278,31.751 87.264,31.751 C85.137,31.751 83.188,33.621 83.188,36.021 C83.188,38.405 85.137,40.258 87.264,40.258 C88.278,40.258 89.084,39.807 89.503,39.292 L89.567,39.292 L89.567,39.903 C89.567,41.531 88.697,42.4 87.296,42.4 C86.152,42.4 85.443,41.579 85.153,40.886 L83.526,41.563 C83.993,42.69 85.233,44.076 87.296,44.076 C89.487,44.076 91.34,42.787 91.34,39.646 L91.34,32.009 L89.567,32.009 L89.567,32.702 Z M92.629,40 L94.497,40 L94.497,27.499 L92.629,27.499 L92.629,40 Z M97.252,35.876 C97.204,34.232 98.525,33.395 99.476,33.395 C100.217,33.395 100.845,33.766 101.055,34.297 L97.252,35.876 Z M103.052,34.458 C102.697,33.508 101.618,31.751 99.411,31.751 C97.22,31.751 95.399,33.476 95.399,36.005 C95.399,38.389 97.204,40.258 99.62,40.258 C101.569,40.258 102.697,39.066 103.165,38.373 L101.715,37.406 C101.231,38.115 100.571,38.583 99.62,38.583 C98.67,38.583 97.993,38.147 97.559,37.293 L103.245,34.941 L103.052,34.458 Z M57.744,33.057 L57.744,34.861 L62.062,34.861 C61.933,35.876 61.594,36.617 61.079,37.132 C60.45,37.761 59.467,38.454 57.744,38.454 C55.085,38.454 53.007,36.311 53.007,33.653 C53.007,30.995 55.085,28.852 57.744,28.852 C59.178,28.852 60.225,29.416 60.998,30.141 L62.271,28.868 C61.191,27.837 59.758,27.047 57.744,27.047 C54.103,27.047 51.042,30.012 51.042,33.653 C51.042,37.293 54.103,40.258 57.744,40.258 C59.709,40.258 61.191,39.613 62.351,38.405 C63.543,37.213 63.914,35.538 63.914,34.184 C63.914,33.766 63.882,33.379 63.817,33.057 L57.744,33.057 Z M68.822,38.583 C67.534,38.583 66.422,37.519 66.422,36.005 C66.422,34.474 67.534,33.427 68.822,33.427 C70.111,33.427 71.223,34.474 71.223,36.005 C71.223,37.519 70.111,38.583 68.822,38.583 L68.822,38.583 Z M68.822,31.751 C66.47,31.751 64.553,33.54 64.553,36.005 C64.553,38.454 66.47,40.258 68.822,40.258 C71.175,40.258 73.092,38.454 73.092,36.005 C73.092,33.54 71.175,31.751 68.822,31.751 L68.822,31.751 Z M78.136,38.583 C76.847,38.583 75.735,37.519 75.735,36.005 C75.735,34.474 76.847,33.427 78.136,33.427 C79.425,33.427 80.536,34.474 80.536,36.005 C80.536,37.519 79.425,38.583 78.136,38.583 L78.136,38.583 Z M78.136,31.751 C75.784,31.751 73.867,33.54 73.867,36.005 C73.867,38.454 75.784,40.258 78.136,40.258 C80.488,40.258 82.405,38.454 82.405,36.005 C82.405,33.54 80.488,31.751 78.136,31.751 L78.136,31.751 Z" id="Fill-28" fill="#FFFFFF" mask="url(#mask-2)"></path>
                </g>
                <g id="Group-32" transform="translate(9.000000, 7.000000)">
                    <mask id="mask-4" fill="white">
                        <use xlink:href="#path-3"></use>
                    </mask>
                    <g id="Clip-31"></g>
                    <path d="M1.435,0.538 C1.145,0.846 0.973,1.324 0.973,1.943 L0.973,1.943 L0.973,24.059 C0.973,24.679 1.145,25.157 1.435,25.464 L1.435,25.464 L1.509,25.536 L13.899,13.147 L13.899,13.001 L13.899,12.855 L1.509,0.465 L1.435,0.538 Z" id="Fill-30" mask="url(#mask-4)"></path>
                </g>
                <g id="Group-35" transform="translate(22.000000, 15.000000)">
                    <mask id="mask-6" fill="white">
                        <use xlink:href="#path-5"></use>
                    </mask>
                    <g id="Clip-34"></g>
                    <path d="M0.899,4.855 L0.899,5.001 L0.899,5.147 L5.028,9.278 L5.122,9.226 L10.015,6.446 C11.412,5.651 11.412,4.351 10.015,3.558 L10.015,3.558 L5.122,0.777 L5.029,0.724 L0.899,4.855 Z" id="Fill-33" mask="url(#mask-6)"></path>
                </g>
                <g id="Group-41" transform="translate(10.000000, 7.000000)">
                    <mask id="mask-8" fill="white">
                        <use xlink:href="#path-7"></use>
                    </mask>
                    <g id="Clip-40"></g>
                    <path d="M0.435,0.538 L12.899,13.001 L17.122,8.777 L2.514,0.477 C2.112,0.248 1.731,0.14 1.393,0.14 L1.393,0.14 C1.009,0.14 0.68,0.279 0.435,0.538" id="Fill-39" mask="url(#mask-8)"></path>
                </g>
                <g id="Group" transform="translate(9.000000, 7.000000)">
                    <path d="M1.4,0.5 C1.1,0.8 0.9,1.3 0.9,1.9 L0.9,24 C0.9,24.6 1.1,25.1 1.4,25.4 L1.5,25.5 L13.9,13.1 L13.9,13 L13.9,12.9 L1.4,0.5 L1.4,0.5 Z" id="Path" fill="url(#linearGradient-9)"></path>
                    <path d="M18,17.3 L13.9,13.2 L13.9,13 L13.9,12.9 L18,8.8 L18.1,8.9 L23,11.7 C24.4,12.5 24.4,13.8 23,14.6 L18,17.3 L18,17.3 Z" id="Path" fill="url(#linearGradient-10)"></path>
                    <path d="M18.1,17.2 L13.9,13 L1.4,25.5 C1.9,26 2.6,26 3.5,25.6 L18.1,17.2" id="Path" fill="url(#linearGradient-11)"></path>
                    <path d="M18.1,8.8 L3.5,0.5 C2.6,5.55111512e-17 1.9,0.1 1.4,0.6 L13.9,13 L18.1,8.8 Z" id="Path" fill="url(#linearGradient-12)"></path>
                    <g transform="translate(0.000000, 17.000000)" fill="#000000" id="Path">
                        <path d="M18,0.1 L3.5,8.3 C2.7,8.8 2,8.7 1.5,8.3 L1.5,8.3 L1.4,8.4 L1.4,8.4 L1.5,8.5 L1.5,8.5 C2,8.9 2.7,9 3.5,8.5 L18,0.1 L18,0.1 Z" opacity="0.2"></path>
                        <path d="M1.4,8.3 C1.1,8 1,7.5 1,6.9 L1,7 C1,7.6 1.2,8.1 1.5,8.4 L1.5,8.3 L1.4,8.3 Z" opacity="0.12"></path>
                    </g>
                    <path d="M23,14.3 L18,17.1 L18.1,17.2 L23,14.4 C23.7,14 24,13.5 24,13 L24,13 C24,13.5 23.6,13.9 23,14.3 Z" id="Path" fill="#000000" opacity="0.12"></path>
                    <path d="M3.5,0.6 L23,11.7 C23.6,12.1 24,12.5 24,13 L24,13 C24,12.5 23.7,12 23,11.6 L3.5,0.5 C2.1,-0.3 1,0.4 1,2 L1,2.1 C1,0.5 2.1,-0.2 3.5,0.6 Z" id="Path" fill="#FFFFFF" opacity="0.25"></path>
                </g>
            </g>
        </g>
    </g>
</svg>