<?xml version="1.0" encoding="utf-8"?>
<!-- Generator: Adobe Illustrator 16.0.0, SVG Export Plug-In . SVG Version: 6.00 Build 0)  -->
<!DOCTYPE svg PUBLIC "-//W3C//DTD SVG 1.1//EN" "http://www.w3.org/Graphics/SVG/1.1/DTD/svg11.dtd">
<svg version="1.1" id="Layer_1" xmlns="http://www.w3.org/2000/svg" xmlns:xlink="http://www.w3.org/1999/xlink" x="0px" y="0px"
	 width="155px" height="40px" viewBox="0 0 155 40" enable-background="new 0 0 155 40" xml:space="preserve">
<title>logo-snapscan</title>
<desc>Created with Sketch.</desc>
<g id="Page-1">
	<g id="SnapScan-Assets" transform="translate(-84.000000, -81.000000)">
		<g id="logo_x2F_snapscan-horizontal" transform="translate(89.000000, 85.000000)">
			<path id="XMLID_634_" fill="#FFFFFF" d="M40.1,20.7l1.6-2.2c1.1,1.2,2.8,2.2,5,2.2c2.3,0,3.2-1.101,3.2-2.2
				c0-3.3-9.2-1.3-9.2-7.1c0-2.6,2.3-4.7,5.8-4.7c2.4,0,4.5,0.8,5.9,2.2L50.8,11c-1.3-1.3-2.9-1.8-4.6-1.8c-1.6,0-2.7,0.8-2.7,2
				c0,3,9.2,1.1,9.2,7c0,2.6-1.9,4.899-6.1,4.899C43.7,23.3,41.5,22.2,40.1,20.7"/>
			<path id="XMLID_633_" fill="#FFFFFF" d="M63,23v-7.2c0-1.8-0.9-2.4-2.3-2.4c-1.3,0-2.4,0.8-2.9,1.5v8h-2.5V11.5h2.5V13
				c0.8-0.9,2.3-1.8,4.1-1.8c2.5,0,3.7,1.3,3.7,3.7V23H63z"/>
			<path id="XMLID_628_" fill="#FFFFFF" d="M75.7,23v-1.3c-0.9,1-2.2,1.5-3.7,1.5c-1.9,0-4-1.3-4-3.8c0-2.7,2.1-3.8,4-3.8
				c1.6,0,2.9,0.5,3.7,1.5v-1.7c0-1.3-1.101-2.1-2.7-2.1c-1.3,0-2.4,0.5-3.4,1.5l-1-1.7c1.3-1.3,3-1.9,4.8-1.9
				c2.6,0,4.8,1.1,4.8,4.1V23H75.7z M75.7,20.4V18.6C75.1,17.8,74,17.4,73,17.4c-1.4,0-2.5,0.8-2.5,2.1s1.1,2.1,2.5,2.1
				C74.1,21.5,75.2,21.1,75.7,20.4L75.7,20.4z"/>
			<path id="XMLID_621_" fill="#FFFFFF" d="M84,21.4v6h-2.5V11.5H84v1.6c0.9-1.1,2.2-1.9,3.7-1.9c3,0,5.1,2.2,5.1,6
				c0,3.8-2.1,6-5.1,6C86.2,23.3,84.9,22.6,84,21.4 M90.2,17.2c0-2.2-1.3-3.8-3.3-3.8c-1.2,0-2.4,0.7-2.9,1.5v4.5
				c0.5,0.899,1.8,1.6,2.9,1.6C88.9,21,90.2,19.5,90.2,17.2"/>
			<path id="XMLID_619_" fill="#FFFFFF" d="M94.3,20.7l1.601-2.2c1.1,1.2,2.8,2.2,5,2.2c2.3,0,3.199-1.101,3.199-2.2
				c0-3.3-9.199-1.3-9.199-7.1c0-2.6,2.3-4.7,5.8-4.7c2.399,0,4.5,0.8,5.899,2.2L105,11c-1.3-1.3-2.9-1.8-4.6-1.8
				c-1.601,0-2.7,0.8-2.7,2c0,3,9.2,1.1,9.2,7c0,2.6-1.9,4.899-6.101,4.899C97.8,23.3,95.7,22.2,94.3,20.7"/>
			<path id="XMLID_618_" fill="#FFFFFF" d="M108.7,17.2c0-3.5,2.399-6,5.899-6c2.301,0,3.601,1,4.4,2l-1.6,1.5
				c-0.601-0.9-1.5-1.3-2.601-1.3c-2.1,0-3.5,1.6-3.5,3.8s1.4,3.8,3.5,3.8c1.101,0,2-0.5,2.601-1.4l1.6,1.5c-0.8,1.101-2.1,2-4.4,2
				C111.1,23.3,108.7,20.7,108.7,17.2"/>
			<path id="XMLID_26_" fill="#FFFFFF" d="M128.3,23v-1.3c-0.899,1-2.2,1.5-3.7,1.5c-1.899,0-4-1.3-4-3.8c0-2.7,2.101-3.8,4-3.8
				c1.601,0,2.9,0.5,3.7,1.5v-1.7c0-1.3-1.1-2.1-2.7-2.1c-1.3,0-2.399,0.5-3.399,1.5l-1-1.7c1.3-1.3,3-1.9,4.8-1.9
				c2.6,0,4.8,1.1,4.8,4.1V23H128.3z M128.3,20.4V18.6c-0.6-0.8-1.7-1.199-2.7-1.199c-1.399,0-2.5,0.8-2.5,2.1s1.101,2.1,2.5,2.1
				C126.6,21.5,127.7,21.1,128.3,20.4L128.3,20.4z"/>
			<path id="XMLID_24_" fill="#FFFFFF" d="M141.8,23v-7.2c0-1.8-0.899-2.4-2.3-2.4c-1.3,0-2.4,0.8-2.9,1.5v8H134V11.5h2.5V13
				c0.8-0.9,2.3-1.8,4.1-1.8c2.5,0,3.7,1.3,3.7,3.7V23H141.8z"/>
			<g id="logo_x2F_snapscan-icon" transform="translate(0.000000, 1.000000)">
				<path id="XMLID_19_" fill="#FFFFFF" d="M15,0C6.689,0,0,6.689,0,15c0,8.311,6.689,15,15,15s15-6.689,15-15
					C30,6.689,23.311,0,15,0 M15,28.986C7.297,28.986,1.014,22.703,1.014,15C1.014,7.297,7.297,1.014,15,1.014
					S28.986,7.297,28.986,15C28.986,22.703,22.703,28.986,15,28.986"/>
				<path id="XMLID_14_" fill="#FFFFFF" d="M13.074,9H9.926C9.463,9,9,9.37,9,9.926v3.148C9,13.537,9.37,14,9.926,14h3.148
					C13.537,14,14,13.63,14,13.074V9.926C13.907,9.37,13.537,9,13.074,9"/>
				<path id="XMLID_14_-Copy" fill="#FFFFFF" d="M13.074,16H9.926C9.463,16,9,16.37,9,16.926v3.148C9,20.537,9.37,21,9.926,21h3.148
					C13.537,21,14,20.63,14,20.074v-3.148C13.907,16.37,13.537,16,13.074,16"/>
				<path id="XMLID_12_" fill="#FFFFFF" d="M20.074,9h-3.148C16.463,9,16,9.37,16,9.926v3.148C16,13.537,16.37,14,16.926,14h3.148
					C20.537,14,21,13.63,21,13.074V9.926C21,9.37,20.63,9,20.074,9"/>
			</g>
		</g>
	</g>
</g>
</svg>
