<svg id="Layer_1" data-name="Layer 1" xmlns="http://www.w3.org/2000/svg" xmlns:xlink="http://www.w3.org/1999/xlink" viewBox="0 0 1920 880"><defs><style>.cls-1,.cls-10,.cls-11,.cls-13,.cls-17,.cls-18,.cls-20,.cls-21,.cls-26,.cls-7{fill:none;}.cls-2{fill:#eff5f9;}.cls-3{opacity:0.3;}.cls-4{fill:#cddced;}.cls-5{fill:#e2ebf4;}.cls-6{fill:#c6d7eb;}.cls-7{stroke:#aac4e1;stroke-width:0.92px;}.cls-18,.cls-20,.cls-21,.cls-22,.cls-26,.cls-7{stroke-linecap:round;}.cls-10,.cls-11,.cls-13,.cls-17,.cls-7{stroke-miterlimit:10;}.cls-8{fill:#fff;}.cls-9{clip-path:url(#clip-path);}.cls-10,.cls-11{stroke:#fff;}.cls-10{stroke-width:1.84px;}.cls-11{stroke-width:3.69px;}.cls-12{fill:#61b446;}.cls-13{stroke:#a34738;stroke-width:1.09px;}.cls-14{fill:#c78c63;}.cls-15{fill:#8eb2de;}.cls-16,.cls-22{fill:#263943;}.cls-17{stroke:#b5cae2;}.cls-17,.cls-26{stroke-width:0.96px;}.cls-18{stroke:#6b422c;}.cls-18,.cls-20,.cls-21,.cls-22,.cls-26{stroke-linejoin:round;}.cls-18,.cls-20,.cls-22{stroke-width:0.48px;}.cls-19{fill:#665b50;fill-rule:evenodd;}.cls-20{stroke:#93583e;}.cls-21,.cls-22{stroke:#263943;}.cls-21{stroke-width:0.72px;}.cls-23{fill:#2a5c95;}.cls-24{fill:#854f43;}.cls-25{fill:#c56c4f;}.cls-26{stroke:#6b432c;}.cls-27{fill:#a34738;}.cls-28{fill:#333;}</style><clipPath id="clip-path"><rect class="cls-1" x="1626.04" y="222.61" width="55.2" height="57.85"/></clipPath></defs><title>SnapScan web support</title><rect class="cls-2" width="1920" height="880"/><g class="cls-3"><rect class="cls-4" x="921.03" y="643.23" width="261.15" height="18" transform="translate(2103.21 1304.47) rotate(-180)"/><rect class="cls-5" x="921.03" y="643.23" width="261.15" height="18"/><rect class="cls-5" x="1054.5" y="115.16" width="127.68" height="127.68" transform="translate(2236.68 358.01) rotate(-180)"/><rect class="cls-5" x="921.03" y="115.16" width="127.68" height="127.68" transform="translate(1969.75 358.01) rotate(-180)"/><rect class="cls-5" x="1054.5" y="248.63" width="127.68" height="127.68" transform="translate(2236.68 624.93) rotate(-180)"/><rect class="cls-5" x="921.03" y="248.63" width="127.68" height="127.68" transform="translate(1969.75 624.93) rotate(-180)"/><rect class="cls-5" x="1054.5" y="382.09" width="127.68" height="127.68" transform="translate(2236.68 891.86) rotate(-180)"/><rect class="cls-5" x="921.03" y="382.09" width="127.68" height="127.68" transform="translate(1969.75 891.86) rotate(-180)"/><rect class="cls-5" x="1054.5" y="515.55" width="127.68" height="127.68"/><polygon class="cls-5" points="1048.72 515.55 1048.72 643.23 1008.54 643.23 976.1 643.23 921.03 643.23 921.03 515.55 1048.72 515.55"/><polygon class="cls-6" points="1103.77 206.51 1149.28 206.51 1149.28 253.06 1182.18 253.06 1182.18 661.23 1054.5 661.23 1054.5 263.48 1103.77 263.48 1103.77 206.51"/><polygon class="cls-6" points="953 308.49 953 323.11 986.51 323.11 986.51 274.49 1048.72 231.9 1048.72 661.23 921.03 661.23 921.03 336.67 921.03 308.49 953 308.49"/><circle class="cls-7" cx="1138.07" cy="216.42" r="2.2"/><circle class="cls-7" cx="1127.05" cy="216.42" r="2.2"/><circle class="cls-7" cx="1116.02" cy="216.42" r="2.2"/><circle class="cls-7" cx="1138.07" cy="226.09" r="2.2"/><circle class="cls-7" cx="1127.05" cy="226.09" r="2.2"/><circle class="cls-7" cx="1116.02" cy="226.09" r="2.2"/><circle class="cls-7" cx="1138.07" cy="235.75" r="2.2"/><circle class="cls-7" cx="1127.05" cy="235.75" r="2.2"/><circle class="cls-7" cx="1116.02" cy="235.75" r="2.2"/><circle class="cls-7" cx="1138.07" cy="245.42" r="2.2"/><circle class="cls-7" cx="1127.05" cy="245.42" r="2.2"/><circle class="cls-7" cx="1116.02" cy="245.42" r="2.2"/><line class="cls-7" x1="1149.28" y1="258.23" x2="1178.91" y2="258.23"/><line class="cls-7" x1="1149.28" y1="263.47" x2="1178.91" y2="263.47"/><line class="cls-7" x1="1149.28" y1="268.72" x2="1178.91" y2="268.72"/><line class="cls-7" x1="1149.28" y1="273.96" x2="1178.91" y2="273.96"/><line class="cls-7" x1="1149.28" y1="279.2" x2="1178.91" y2="279.2"/><line class="cls-7" x1="1149.28" y1="284.45" x2="1178.91" y2="284.45"/><line class="cls-7" x1="1149.28" y1="289.69" x2="1178.91" y2="289.69"/><polygon class="cls-8" points="921.03 515.55 921.03 509.77 1048.72 509.77 1048.72 382.09 921.03 382.09 921.03 376.31 1048.72 376.31 1048.72 248.63 921.03 248.63 921.03 242.84 1048.72 242.84 1048.72 115.16 1054.5 115.16 1054.5 242.84 1182.18 242.84 1182.18 248.63 1054.5 248.63 1054.5 376.31 1182.18 376.31 1182.18 382.09 1054.5 382.09 1054.5 509.77 1182.18 509.77 1182.18 515.55 1054.5 515.55 1054.5 643.23 1048.72 643.23 1048.72 515.55 921.03 515.55"/><rect class="cls-5" x="1553.56" y="115.16" width="127.68" height="127.68" transform="translate(3234.81 358.01) rotate(-180)"/><rect class="cls-5" x="1420.1" y="115.16" width="127.68" height="127.68" transform="translate(2967.88 358.01) rotate(-180)"/><rect class="cls-5" x="1553.56" y="248.63" width="127.68" height="127.68" transform="translate(3234.81 624.93) rotate(-180)"/><rect class="cls-5" x="1420.1" y="248.63" width="127.68" height="127.68" transform="translate(2967.88 624.93) rotate(-180)"/><rect class="cls-5" x="1553.56" y="382.09" width="127.68" height="127.68" transform="translate(3234.81 891.86) rotate(-180)"/><rect class="cls-5" x="1420.1" y="382.09" width="127.68" height="127.68" transform="translate(2967.88 891.86) rotate(-180)"/><rect class="cls-5" x="1553.56" y="515.55" width="127.68" height="127.68"/><polygon class="cls-5" points="1547.78 515.55 1547.78 643.23 1507.61 643.23 1475.17 643.23 1420.1 643.23 1420.1 515.55 1547.78 515.55"/><polygon class="cls-6" points="1442.4 299.75 1442.4 269.98 1490.8 269.98 1490.8 186.46 1547.78 186.46 1547.78 210.4 1578.25 210.4 1578.25 269.98 1578.25 289.49 1578.25 299.75 1626.05 299.75 1626.05 286.5 1626.05 269.98 1626.05 222.62 1681.25 222.62 1681.25 269.98 1681.25 286.5 1681.25 643.23 1420.1 643.23 1420.1 299.75 1442.4 299.75"/><line class="cls-7" x1="1625.47" y1="299.75" x2="1625.47" y2="341.38"/><line class="cls-7" x1="1617.7" y1="299.75" x2="1617.7" y2="341.38"/><line class="cls-7" x1="1609.92" y1="299.75" x2="1609.92" y2="341.38"/><line class="cls-7" x1="1602.14" y1="299.75" x2="1602.14" y2="341.38"/><line class="cls-7" x1="1594.37" y1="299.75" x2="1594.37" y2="341.38"/><line class="cls-7" x1="1586.59" y1="299.75" x2="1586.59" y2="341.38"/><line class="cls-7" x1="1578.82" y1="299.75" x2="1578.82" y2="341.38"/><line class="cls-7" x1="1490.8" y1="282.38" x2="1490.8" y2="290.63"/><line class="cls-7" x1="1478.61" y1="282.38" x2="1478.61" y2="290.63"/><line class="cls-7" x1="1466.43" y1="282.38" x2="1466.43" y2="290.63"/><line class="cls-7" x1="1454.25" y1="282.38" x2="1454.25" y2="290.63"/><line class="cls-7" x1="1490.8" y1="301.12" x2="1490.8" y2="309.38"/><line class="cls-7" x1="1478.61" y1="301.12" x2="1478.61" y2="309.38"/><line class="cls-7" x1="1466.43" y1="301.12" x2="1466.43" y2="309.38"/><line class="cls-7" x1="1454.25" y1="301.12" x2="1454.25" y2="309.38"/><line class="cls-7" x1="1490.8" y1="319.87" x2="1490.8" y2="328.13"/><line class="cls-7" x1="1478.61" y1="319.87" x2="1478.61" y2="328.13"/><line class="cls-7" x1="1466.43" y1="319.87" x2="1466.43" y2="328.13"/><line class="cls-7" x1="1454.25" y1="319.87" x2="1454.25" y2="328.13"/><g class="cls-9"><polyline class="cls-7" points="1683.55 225.27 1673.36 229.6 1665.48 226.25 1657.6 229.6 1649.71 226.25 1641.83 229.6 1633.93 226.25 1623.81 230.55"/><polyline class="cls-7" points="1683.55 233.02 1673.36 237.35 1665.48 234 1657.6 237.35 1649.71 234 1641.83 237.35 1633.93 234 1623.81 238.3"/><polyline class="cls-7" points="1683.55 240.77 1673.36 245.1 1665.48 241.75 1657.6 245.1 1649.71 241.75 1641.83 245.1 1633.93 241.75 1623.81 246.05"/><polyline class="cls-7" points="1683.55 248.52 1673.36 252.85 1665.48 249.5 1657.6 252.85 1649.71 249.5 1641.83 252.85 1633.93 249.5 1623.81 253.79"/><polyline class="cls-7" points="1683.55 256.27 1673.36 260.6 1665.48 257.25 1657.6 260.6 1649.71 257.25 1641.83 260.6 1633.93 257.25 1623.81 261.54"/></g><rect class="cls-7" x="1521.16" y="194.69" width="5.57" height="5.57" transform="translate(3047.88 394.94) rotate(-180)"/><rect class="cls-7" x="1510.12" y="194.69" width="5.57" height="5.57" transform="translate(3025.8 394.94) rotate(-180)"/><rect class="cls-7" x="1499.08" y="194.69" width="5.57" height="5.57" transform="translate(3003.72 394.94) rotate(-180)"/><rect class="cls-7" x="1521.16" y="204.83" width="5.57" height="5.57" transform="translate(3047.88 415.23) rotate(-180)"/><rect class="cls-7" x="1510.12" y="204.83" width="5.57" height="5.57" transform="translate(3025.8 415.23) rotate(-180)"/><rect class="cls-7" x="1499.08" y="204.83" width="5.57" height="5.57" transform="translate(3003.72 415.23) rotate(-180)"/><rect class="cls-7" x="1521.16" y="214.97" width="5.57" height="5.57" transform="translate(3047.88 435.52) rotate(-180)"/><rect class="cls-7" x="1510.12" y="214.97" width="5.57" height="5.57" transform="translate(3025.8 435.52) rotate(-180)"/><rect class="cls-7" x="1499.08" y="214.97" width="5.57" height="5.57" transform="translate(3003.72 435.52) rotate(-180)"/><rect class="cls-7" x="1521.16" y="225.12" width="5.57" height="5.57" transform="translate(3047.88 455.8) rotate(-180)"/><rect class="cls-7" x="1510.12" y="225.12" width="5.57" height="5.57" transform="translate(3025.8 455.8) rotate(-180)"/><rect class="cls-7" x="1499.08" y="225.12" width="5.57" height="5.57" transform="translate(3003.72 455.8) rotate(-180)"/><polygon class="cls-8" points="1420.1 515.55 1420.1 509.77 1547.78 509.77 1547.78 382.09 1420.1 382.09 1420.1 376.31 1547.78 376.31 1547.78 248.63 1420.1 248.63 1420.1 242.84 1547.78 242.84 1547.78 115.16 1553.56 115.16 1553.56 242.84 1681.25 242.84 1681.25 248.63 1553.56 248.63 1553.56 376.31 1681.25 376.31 1681.25 382.09 1553.56 382.09 1553.56 509.77 1681.25 509.77 1681.25 515.55 1553.56 515.55 1553.56 643.23 1547.78 643.23 1547.78 515.55 1420.1 515.55"/><line class="cls-7" x1="1694.09" y1="126.7" x2="1407.25" y2="126.7"/><rect class="cls-8" x="1420.1" y="643.23" width="261.15" height="18" transform="translate(3101.35 1304.47) rotate(-180)"/><line class="cls-10" x1="1190.44" y1="130.96" x2="912.64" y2="130.96"/><line class="cls-10" x1="1190.44" y1="138.1" x2="912.64" y2="138.1"/><line class="cls-10" x1="1190.44" y1="145.25" x2="912.64" y2="145.25"/><line class="cls-10" x1="1190.44" y1="152.4" x2="912.64" y2="152.4"/><line class="cls-10" x1="1190.44" y1="159.54" x2="912.64" y2="159.54"/><line class="cls-11" x1="1190.44" y1="163.69" x2="912.71" y2="169.69"/><line class="cls-10" x1="1690.3" y1="130.96" x2="1412.5" y2="130.96"/><line class="cls-10" x1="1690.3" y1="138.1" x2="1412.5" y2="138.1"/><line class="cls-10" x1="1690.3" y1="145.25" x2="1412.5" y2="145.25"/><line class="cls-11" x1="1690.3" y1="151.7" x2="1412.57" y2="150.78"/><path class="cls-8" d="M1670.61,217.82a3.61,3.61,0,0,1,1.78-2.82,5.12,5.12,0,0,1,2.33-.51,5.29,5.29,0,0,1,1.12.15,5.69,5.69,0,0,1,2.37-2.46,8.66,8.66,0,0,1,3-.86v7.31h-12.41A1.41,1.41,0,0,1,1670.61,217.82Z"/><path class="cls-8" d="M1162,185.31a5.23,5.23,0,0,1,3.37-4,12.23,12.23,0,0,1,4.45-.73,13.7,13.7,0,0,1,2.12.2,9.73,9.73,0,0,1,4.5-3.49,20.36,20.36,0,0,1,5.79-1.24v10.43h-23.61C1158.84,185.56,1160.49,185,1162,185.31Z"/><path class="cls-8" d="M1077.17,229.86a4.19,4.19,0,0,1,.77-1.36,7.39,7.39,0,0,1,5.18-2.23,6.66,6.66,0,0,1,3.07.67,4.07,4.07,0,0,1,1.12.9,5.27,5.27,0,0,1,3.5,1.58,2.93,2.93,0,0,1,.55,1c1.52-.79,3.52,0,3.82,1.3H1071.8C1072.22,229.83,1075,228.75,1077.17,229.86Z"/><path class="cls-8" d="M921,197.1a28.94,28.94,0,0,1,4.3,1.67,27.84,27.84,0,0,1,9.81,7.7,14.06,14.06,0,0,1,13.47,3.76,10.72,10.72,0,0,1,1.51,2.13c4.15-2.16,9.61-.07,10.42,3.55H921Z"/><path class="cls-8" d="M1611.35,178.69a4.73,4.73,0,0,1,.77-1,7.39,7.39,0,0,1,5-1.95,7.69,7.69,0,0,1,1.86.2,14.35,14.35,0,0,1,5-3.59,14.84,14.84,0,0,1,10.81-.6,10.19,10.19,0,0,1,2.22,1.17c4.09-4.8,13.29-4.11,11.73,2.55,6-1,10,1.52,11,4.87H1606C1606.42,178.66,1609.22,177.69,1611.35,178.69Z"/><path class="cls-8" d="M1490.81,220.8h-22.46c.67-3,5.21-4.75,8.66-3a6.6,6.6,0,0,1,1.24-2.2,12,12,0,0,1,8.36-3.59,10.86,10.86,0,0,1,4.2.75Z"/><path class="cls-6" d="M908.18,101.5H1195a0,0,0,0,1,0,0v13.29a11.9,11.9,0,0,1-11.9,11.9h-263a11.9,11.9,0,0,1-11.9-11.9V101.5A0,0,0,0,1,908.18,101.5Z" transform="translate(2103.21 228.2) rotate(-180)"/><path class="cls-6" d="M1407.25,101.5h286.84a0,0,0,0,1,0,0v13.29a11.9,11.9,0,0,1-11.9,11.9h-263a11.9,11.9,0,0,1-11.9-11.9V101.5a0,0,0,0,1,0,0Z" transform="translate(3101.35 228.2) rotate(-180)"/><path class="cls-1" d="M1480.8,551.22a1.42,1.42,0,0,0-.17-.42l-1.17-2.88A8.4,8.4,0,0,1,1480.8,551.22Z"/><path class="cls-12" d="M1480.63,550.8a1.42,1.42,0,0,1,.17.42Z"/></g><line class="cls-13" x1="917.01" y1="253.63" x2="929.52" y2="255.54"/><path class="cls-14" d="M926.41,279.28l57.2,3.64-4.79,36.6-8.61,3-31.34,1.67.55-4.21a21.77,21.77,0,0,0-5.66-17.59A28.48,28.48,0,0,1,926.41,279.28Z"/><path class="cls-14" d="M825.53,336.21c-.11-.68,3.07-11.24,5.61-19.51a24.21,24.21,0,0,0-2-18.95L821.4,284l-.86.71a6.7,6.7,0,0,0-1.71,8.29l3.32,6.39a3.13,3.13,0,0,1-1.13,3.75h0a3.12,3.12,0,0,1-4.29-.73c-4.47-6-10.74-18.78-19.24-32.67-2.07-3.38-7.21-1.16-5.12,3,4,8,7.23,14.26,11.56,23.3,0,0-9.44-14.7-16.25-24.25-2.93-4.12-8.38-.82-5.33,3.95,5.81,9.09,8.92,15.45,14.81,24.1h0c-6.4-7.3-17.07-20.42-17.07-20.42-2.63-3.14-7.05.51-4.31,4.46,6.31,9.07,9,12.87,15.5,21h0l-13.73-13.3a2.9,2.9,0,1,0-4,4.22c6.48,6.76,21.49,29.3,37.44,42.49"/><path class="cls-15" d="M938,331.09l.9-6.89,40-4.68-.26,2a9.81,9.81,0,0,0,10.86,11l-29.53,13.05-30.49-6A9.8,9.8,0,0,0,938,331.09Z"/><path class="cls-15" d="M883.51,589l-7.34-159.5-42,56.52c-19.9,26.76-62.26,7.85-55.64-24.83l26.1-128.79,20.95,3.83-5.68,93,41.75-67.39a37.73,37.73,0,0,1,27.68-17.6l128.25-15a37.72,37.72,0,0,1,38.6,21.55l60.71,130.41a26.08,26.08,0,0,1-22.92,37.07l-4.94.28-56.68-98.18L1010.13,589"/><polygon class="cls-16" points="983.73 521.31 1017.33 534.18 1020.14 514.96 983.73 521.31"/><line class="cls-17" x1="958.77" y1="322.59" x2="938.92" y2="473.5"/><path class="cls-16" d="M936.51,306.09H957L938.87,324.2l.55-4.21A21.6,21.6,0,0,0,936.51,306.09Z"/><polygon class="cls-16" points="1063.2 473.87 1090.04 476.07 1067.08 480.6 1063.2 473.87"/><polygon class="cls-16" points="876.17 429.48 874.42 391.42 864.74 444.84 876.17 429.48"/><polygon class="cls-16" points="818.07 458.43 819.85 429.25 826.74 418.13 818.07 458.43"/><polyline class="cls-17" points="946.22 337.58 958.77 322.59 967.69 335.06"/><path class="cls-16" d="M863.11,460.78h83.34a8,8,0,0,1,7.9,7.05l6.83,60.07a8,8,0,0,1-7.9,8.85H870a8,8,0,0,1-7.9-7.06l-6.84-60.06A8,8,0,0,1,863.11,460.78Z"/><polygon class="cls-15" points="1103.39 473.44 1093.92 518.25 983.73 521.31 983.73 497.02 1103.39 473.44"/><line class="cls-17" x1="946.22" y1="337.58" x2="929.4" y2="339.56"/><line class="cls-17" x1="989.42" y1="332.52" x2="967.69" y2="335.06"/><polygon class="cls-16" points="1015.7 391.42 1032.3 420.35 1029.07 444.84 1015.7 391.42"/><path class="cls-14" d="M960.33,487.13l-3.67.94.62,5.38,1.32,3.34,4.23,30.69,20.9-6.17V497l-16.24-8.64A8.84,8.84,0,0,0,960.33,487.13Z"/><path class="cls-16" d="M956.31,491l-.44,2.09,1.41.35c1.37-.72,2.89-1.59,4.2-2.44Z"/><path class="cls-14" d="M961.48,491c-10.5,6.8-23.18,9.11-33.61,11.45-6.94,1.56-4.51,6.38-4.51,6.38h0a6.46,6.46,0,0,0-1.74.36c-3.51,1.24-2.7,6.83,1,7.06h0a5.29,5.29,0,0,0-.4.84c-.71,1.93.25,4.76,2.63,5,1.28.14,6,.44,6,.44-.33,1.55.07,4.8,3.24,5a241.79,241.79,0,0,0,27.18.32,4.81,4.81,0,0,0,3.56-1.92c2.42-3.16,6.94-9.84,5.8-14.51a12,12,0,0,0-2.76-9.48S968.37,495.5,961.48,491Z"/><path class="cls-18" d="M923.36,508.84a113.29,113.29,0,0,0,35.8-3.71"/><path class="cls-18" d="M930.82,523a144.06,144.06,0,0,0,29.85-1.11"/><path class="cls-18" d="M922.5,516.75A178.55,178.55,0,0,0,959,514.28"/><path class="cls-18" d="M807,294.59c-8.45,3.53-14.59,8.22-18.58,15.32"/><path class="cls-18" d="M808.75,317.07c0-10,7.5-13.46,11-13.41h6.38"/><line class="cls-17" x1="824.49" y1="353.23" x2="801.25" y2="348.82"/><line class="cls-17" x1="1005.39" y1="492.76" x2="1005.39" y2="520.71"/><path class="cls-14" d="M923.53,275.07l4.47-34a31.81,31.81,0,0,1,7.36-16.55h44.17a10.29,10.29,0,0,1,10.21,11.63l-6.13,46.79a30.29,30.29,0,0,1-30,26.37h0A30.3,30.3,0,0,1,923.53,275.07Z"/><path class="cls-19" d="M984.84,253.86c.33,2.07.3,2-.07-.17q-2.24-5.88-5.26-12.16l-.09-.19c-2.89-3.48-6.42-5.91-9.47-8.4q-5.28-4.32-2.36-7.34a1.76,1.76,0,0,1,.34-.46,89,89,0,0,1,11.58-.7,10.33,10.33,0,0,1,10.23,11.67l-3,23.05Q985.86,256.57,984.84,253.86Z"/><path class="cls-14" d="M977.78,275.89l-.7,5.29a4,4,0,0,1-6.56,2.45L965.35,279a14.83,14.83,0,0,0-9.87-3.76h-32l0,0-2.21,16.87a15.17,15.17,0,0,0,15,17.14h18.41a29,29,0,0,0,28.71-25.2l1.07-8.2Z"/><path class="cls-8" d="M956,281.46c-2.95,8-11.95,10.45-18.5,3.79Z"/><path class="cls-14" d="M984.56,255.43h2.6a5.05,5.05,0,0,1,5,5.71l-.73,5.12a9.33,9.33,0,0,1-4.31,6.61l-5.25,3.27Z"/><path class="cls-14" d="M987.16,255.43a5.05,5.05,0,0,1,5,5.71l-.73,5.12"/><path class="cls-20" d="M986.43,258.44a2.88,2.88,0,0,1,2.84,3.24l-.72,5.11"/><path class="cls-16" d="M920.08,219.8c4.35-5,25.11-14.43,56-2.58,3.74,1.43,6.24,4.45,3.41,7.28h0c-18.82,0-30.52,5.82-37.13,8.32-3.73,1.41-7.63,2.63-11.62,2.6s-8.15-1.49-10.63-4.62S917.46,222.82,920.08,219.8Z"/><path class="cls-21" d="M940.09,249.78a13.76,13.76,0,0,0-12.7-.6"/><path class="cls-18" d="M943.9,256.8l-3.32,10.13a5,5,0,0,0-.32,3.08,3.36,3.36,0,0,0,2.84,2,10.23,10.23,0,0,0,3.63-.47"/><path class="cls-21" d="M965.27,248.57A13.73,13.73,0,0,0,952.81,246"/><ellipse class="cls-22" cx="934.73" cy="258.21" rx="1.76" ry="2.37"/><ellipse class="cls-22" cx="959.04" cy="258.21" rx="1.76" ry="2.37"/><path class="cls-23" d="M907.25,512.2a13.23,13.23,0,0,1-12.76-11.36,9.85,9.85,0,0,1,10-11.37,13.22,13.22,0,0,1,12.76,11.37,9.84,9.84,0,0,1-10,11.36m-2.89-23.54a10.55,10.55,0,0,0-10.68,12.18A14.17,14.17,0,0,0,907.35,513,10.54,10.54,0,0,0,918,500.84a14.16,14.16,0,0,0-13.67-12.18"/><path class="cls-23" d="M906.49,495.47h2.84a.94.94,0,0,1,.91.81l.34,2.83a.7.7,0,0,1-.71.81H907a1,1,0,0,1-.91-.81l-.35-2.83a.71.71,0,0,1,.71-.81"/><path class="cls-23" d="M900.42,495.47h2.84a1,1,0,0,1,.91.81l.34,2.83a.7.7,0,0,1-.71.81H901a1,1,0,0,1-.91-.81l-.35-2.83a.71.71,0,0,1,.71-.81"/><path class="cls-23" d="M901.17,501.53H904a.94.94,0,0,1,.91.81l.35,2.83a.71.71,0,0,1-.71.81h-2.84a1,1,0,0,1-.91-.81l-.34-2.83a.7.7,0,0,1,.71-.81"/><path class="cls-24" d="M1023.19,721.37,1012.65,880H947.94l-.07-158.63L947.68,668h-7.4L910.59,880H846.17c2.7-31.06,18-217.93,19.76-241.28,1.44-19,18-74.1,18-74.1h129.39c10.76,30.78,13.84,51.89,12.3,97C1025,679.3,1024.17,699.5,1023.19,721.37Z"/><polygon class="cls-25" points="882.45 572.45 1013.45 572.45 1017.33 585.65 878.55 585.65 882.45 572.45"/><rect class="cls-24" x="944.21" y="567.69" width="7.48" height="22.55"/><rect class="cls-24" x="997.86" y="567.69" width="7.48" height="22.55"/><rect class="cls-24" x="890.57" y="567.69" width="7.48" height="22.55"/><polyline class="cls-26" points="950.45 651.88 933.33 651.88 933.33 599.38"/><line class="cls-13" x1="974.66" y1="253.63" x2="987.16" y2="255.54"/><path class="cls-27" d="M940.68,259.43c-.48,5.67-4.91,10.13-10.29,10.13s-9.81-4.46-10.29-10.13h-1c.48,6.27,5.36,11.21,11.29,11.21s10.81-4.94,11.3-11.21Z"/><path class="cls-27" d="M970.9,259.43c-.48,5.67-4.91,10.13-10.29,10.13s-9.81-4.46-10.29-10.13h-1c.49,6.27,5.36,11.21,11.3,11.21s10.81-4.94,11.29-11.21Z"/><path class="cls-28" d="M974.78,252.34a15.78,15.78,0,0,1-7.26-2l-.4-.2a14.46,14.46,0,0,0-8.6-1.3h0a22.52,22.52,0,0,0-8.59,3.43,8.44,8.44,0,0,1-8.84,0,22.93,22.93,0,0,0-8.6-3.44h0a14.46,14.46,0,0,0-8.6,1.3l-.4.2a15.79,15.79,0,0,1-7.27,2h-.5v3.42l.4.09a3,3,0,0,1,2.16,3v.54h.82c0,.2,0,.4.08.6h1a11.9,11.9,0,0,1-.12-1.59,8.3,8.3,0,0,1,3.24-6.65,11.57,11.57,0,0,1,1-.62,13.48,13.48,0,0,1,11.63-.13,8.13,8.13,0,0,1,3.23,2.53,8.23,8.23,0,0,1,1.56,4.87,11.9,11.9,0,0,1-.12,1.59h1a11.83,11.83,0,0,0,.1-1.47h0v-.68h0v-.13a1.94,1.94,0,0,1,1.86-2h3.78a1.93,1.93,0,0,1,1.86,2v.82h0a11.83,11.83,0,0,0,.1,1.47h1a11.9,11.9,0,0,1-.12-1.59,8.29,8.29,0,0,1,1.55-4.87,8.16,8.16,0,0,1,3.24-2.53,13.48,13.48,0,0,1,11.63.13c.36.18,1,.62,1,.62a8.3,8.3,0,0,1,3.24,6.65,11.9,11.9,0,0,1-.12,1.59h1c0-.2.06-.4.07-.6h.83v-.54a3,3,0,0,1,2.16-3l.39-.09v-3.42Z"/></svg>